/* XPM */
static char *tile0101719244618[] = {
/* columns rows colors chars-per-pixel */
"43 43 151 2 ",
"   c #00031C",
".  c #000627",
"X  c #00042A",
"o  c #00082A",
"O  c #03132C",
"+  c #030430",
"@  c #000833",
"#  c #00063A",
"$  c #061630",
"%  c #000441",
"&  c #000C4E",
"*  c #001745",
"=  c #01144B",
"-  c #0C164B",
";  c #021B4D",
":  c #0F1C50",
">  c #041E59",
",  c #172853",
"<  c #1F3254",
"1  c #1D3358",
"2  c #223146",
"3  c #272E5C",
"4  c #031C66",
"5  c #142165",
"6  c #16346A",
"7  c #1F3972",
"8  c #1A347F",
"9  c #233364",
"0  c #304874",
"q  c #4D586A",
"w  c #253781",
"e  c #274A8A",
"r  c #2A5490",
"t  c #3E609F",
"y  c #324EA1",
"u  c #2D62A6",
"i  c #48699C",
"p  c #486AA9",
"a  c #5271A7",
"s  c #4D6FB7",
"d  c #4B65BA",
"f  c #4270BD",
"g  c #5175B1",
"h  c #3F7DEC",
"j  c #506FC2",
"k  c #5270C6",
"l  c #5279C4",
"z  c #5E7AC4",
"x  c #597ECC",
"c  c #527DDC",
"v  c #597BDD",
"b  c #637EC3",
"n  c #467BE3",
"m  c #4B78E3",
"M  c #447CEB",
"N  c #4A7DED",
"B  c #5B7DE1",
"V  c #517AEE",
"C  c #4377F3",
"Z  c #4A7CF5",
"A  c #4D77FD",
"S  c #467CFF",
"D  c #4A7BFD",
"F  c #5876FC",
"G  c #547AFD",
"H  c #5B7DFF",
"J  c #627DEE",
"K  c #7F8B9B",
"L  c #6F89BA",
"P  c #5E82C4",
"I  c #4A81DE",
"U  c #4E89D9",
"Y  c #5080D4",
"T  c #5A83D5",
"R  c #568AD5",
"E  c #5584DE",
"W  c #5F8CDF",
"Q  c #6482C5",
"!  c #6E89CE",
"~  c #6B83D1",
"^  c #6C83DB",
"/  c #658DDC",
"(  c #4B84E2",
")  c #4F8AE4",
"_  c #4583ED",
"`  c #4C83EB",
"'  c #4E8CED",
"]  c #5483E3",
"[  c #528AE7",
"{  c #5B8CE4",
"}  c #5483ED",
"|  c #5C82EB",
" . c #528BEC",
".. c #598CEB",
"X. c #5790E1",
"o. c #5B95E7",
"O. c #5792EE",
"+. c #4385F3",
"@. c #4D82F4",
"#. c #4B8AF4",
"$. c #4582FC",
"%. c #4C84FC",
"&. c #4589FA",
"*. c #4D8AFC",
"=. c #5284F4",
"-. c #5A85F6",
";. c #538AF3",
":. c #588AF6",
">. c #5386FE",
",. c #5B85FE",
"<. c #5188FF",
"1. c #5B8CFD",
"2. c #4E91FC",
"3. c #5693F5",
"4. c #5A95F3",
"5. c #5492FD",
"6. c #5B92FC",
"7. c #6082E4",
"8. c #648BE4",
"9. c #698EE7",
"0. c #6890E5",
"q. c #6091ED",
"w. c #6F9AE9",
"e. c #698CF0",
"r. c #6084FF",
"t. c #638CFF",
"y. c #688FFC",
"u. c #7087F9",
"i. c #6A92F1",
"p. c #6998F4",
"a. c #6392FF",
"s. c #7190FF",
"d. c #66A0F4",
"f. c #9097B3",
"g. c #9BA7BD",
"h. c #9E9EC2",
"j. c #BFBBDC",
"k. c #C7CBD7",
"l. c #CAD0DC",
"z. c #CED4E0",
"x. c #CCD7E9",
"c. c #E8E9EB",
"v. c #FCF5ED",
"b. c #FFFEEF",
"n. c #EEEFF3",
"m. c #E7F1FB",
"M. c #EFF2F9",
"N. c #F8F5F0",
"B. c #FFFEF5",
"V. c #F4FCFF",
"C. c #FEFEFD",
/* pixels */
"<.<.<.<.<.<.<.<.<.<.<.<.<.<.<.<.<.<.<.<.<.<.<.<.<.<.<.<.<.<.<.<.<.<.>.1.>.>.>.>.>.>.;.",
"<.<.<.<.<.<.<.<.<.<.<.<.<.<.<.<.<.<.<.<.<.<.<.<.<.<.<.<.<.<.%.>.<.<.>.>.>.>.>.>.>.;.<.",
"<.<.<.<.<.<.<.<.<.<.<.<.<.<.<.<.<.<.>.%.<.<.<.<.<.<.<.<.<.<.<.<.<.<.>.>.>.,.<.>.<.:.<.",
"<.<.<.<.<.<.<.<.<.<.<.<.<.<.<.<.<.<.<.<.<.<.<.<.<.<.<.<.<.<.<.<.<.>.>.>.>.>.>.>.<.>.<.",
"<.<.<.<.<.<.<.<.<.<.<.<.<.<.<.<.<.<.<.<.<.<.<.<.<.<.<.<.<.<.<.<.<.<.<.>.>.>.>.<.>.>.<.",
"<.<.<.<.<.<.<.<.<.<.<.<.<.<.<.<.<.<.<.<.<.<.<.<.<.<.<.<.<.<.<.<.<.<.>.>.>.>.>.<.<.*.<.",
"<.<.<.<.<.<.<.<.<.<.<.<.<.<.<.<.<.<.<.<.<.<.<.<.<.<.<.<.<.<.<.<.<.<.<.;.>.>.<.<.<.<.<.",
"<.<.<.<.<.<.<.<.<.<.<.<.<.<.<.<.<.<.<.<.<.<.<.<.<.<.<.<.<.<.<.<.<.<.<.>.:.>.<.<.<.<.<.",
"<.<.<.<.<.<.<.<.<.<.<.<.>.%.<.<.<.<.<.<.<.<.<.<.<.<.<.<.<.<.<.<.<.<.>.*.>.;.<.<.<.<.%.",
"<.<.<.<.<.<.<.<.<.<.<.<.<.<.<.<.<.<.<.<.<.<.<.<.<.<.<.<.<.<.<.<.<.<.>.;.<.*.<.<.<.<.%.",
"<.<.<.<.<.<.<.<.<.<.<.<.<.<.<.<.<.<.<.<.<.<.<.<.<.<.<.<.<.<.<.<.<.<.*.;.<.;.<.<.<.<.>.",
"<.<.<.<.<.<.<.<.<.<.<.<.<.<.<.<.<.<.<.<.<.<.<.<.<.<.<.<.<.<.<.<.<.<.*.>.*.<.<.<.>.<.<.",
"<.<.<.<.<.<.<.<.<.<.<.<.<.<.<.<.<.<.<.<.<.<.<.<.<.<.<.<.<.<.>.%.<.<.;.*.*.<.<.%.>.>.Z ",
"<.<.<.<.<.<.<.<.<.<.<.<.>.<.<.<.<.>.<.<.<.<.<.<.<.<.<.<.<.<.<.<.<.<.*.*.<.<.<.<.<.<.>.",
"<.<.<.<.<.<.%.<.<.<.<.<.<.<.<.<.<.<.<.<.<.<.<.<.<.<.<.<.<.<.<.<.<.*.;.*.*.*.*.<.<.<.<.",
"<.<.<.<.<.<.<.<.<.<.<.<.<.<.<.<.<.<.<.<.<.<.<.<.<.<.<.<.<.<.<.<.<.<.*.*.>.#.;.=.<.<.N ",
"<.<.<.<.<.<.%.>.<.<.<.<.<.<.<.<.<.<.<.%.<.<.<.<.>.<.<.<.<.<.<.<.<.<.*.*.5.' [ [ ;.1.1.",
"<.<.<.<.<.<.<.<.<.<.<.<.<.<.<.<.<.<.<.<.<.<.<.<.<.<.<.<.<.<.%.>.<.<.*.$._  .O. .' =.a.",
"<.<.<.<.<.<.<.<.<.<.<.<.<.<.<.<.<.<.<.<.<.<.<.<.<.<.<.<.<.<.<.<.<.>.Z >.:.;.@.*.*.%.C ",
"<.<.<.<.<.<.<.<.<.<.<.<.<.<.<.<.<.<.<.<.<.<.<.<.<.<.<.<.<.<.<.<.<.-.-.-.=.=.<.<.%.S 1.",
"<.<.<.<.<.<.<.<.<.<.<.<.<.<.<.<.<.<.<.<.<.<.<.<.<.<.<.<.<.<.<.<.<.>.:.} } 1.>.D D 1.| ",
"<.<.<.<.<.<.<.<.<.<.<.<.<.<.<.<.<.<.<.<.<.<.<.<.<.<.<.<.<.<.<.<.<.<.N :.6.:.:.t.t.B y ",
"<.<.<.<.<.<.<.<.<.<.<.<.<.<.<.<.<.<.<.<.<.<.<.<.<.<.<.<.<.<.<.<.<.<.2.2.( ( { 8.d w # ",
"<.<.<.<.<.<.<.<.<.<.<.<.<.<.<.<.<.<.<.<.<.<.<.<.<.<.<.<.<.<.<.<.*.*.2.h 3.d.f 4 % - h.",
"<.<.<.<.<.<.<.<.<.<.<.<.<.<.<.<.<.<.<.<.<.<.<.<.<.<.<.<.<.<.<.<.<.<.$.5.#.U = & ; 3 j.",
"<.<.<.<.<.<.<.<.<.<.<.<.<.<.<.<.<.<.<.<.<.<.<.<.<.<.<.<.<.<.<.<.<.<.<.$.;.o.u r 7 : X ",
"<.<.<.<.<.<.<.<.<.<.<.<.<.<.<.<.<.<.<.<.<.<.<.<.<.<.<.<.<.<.<.<.<.>.,.A ;.] X.R / z 5 ",
"<.<.<.<.<.<.<.<.<.<.<.<.<.<.<.<.<.<.<.<.<.<.<.<.<.<.<.<.<.<.<.<.<.>.G H 1.` 4.I q.9.~ ",
"<.<.%.<.<.>.<.<.<.<.<.<.<.<.<.<.<.<.<.<.<.<.<.<.<.<.<.<.<.<.<.>.<.>.H r.,.@.5.#.` c ^ ",
"<.<.<.<.<.<.<.<.<.<.<.<.<.<.<.<.<.<.<.<.<.<.<.<.<.<.<.<.<.<.<.%.<.>.r.r.=.+.*.;.:.i.w ",
"<.<.<.<.<.<.<.<.<.<.<.<.<.<.<.<.<.<.<.<.<.<.<.>.<.<.<.<.<.<.<.<.*.<.G <.<.*.#.N ( x = ",
"<.<.<.<.<.<.<.<.<.<.<.<.<.<.<.<.<.<.<.<.>.>.>.>.>.>.>.>.>.#.>.>.;.>.5.Z *.+.5...9.Q , ",
"<.<.>.>.<.>.>.>.;.<.>.;.*.<.<.<.<.<.<.<.>.>.,.>.H H =.1.6.:.( ' 3.+.*.5.%.n ] w.P L < ",
"<.<.>.>.;.>.>.>.<.<.*.>.<.<.<.<.<.<.*.>.<.,.>.,.,.>.a.-.n } 3.3.3.6.<.M :.p./ e ; 1   ",
"<.<.>.>.>.>.>.>.<.<.<.<.<.<.<.<.<.<.;.;.=.=.-.-.=.;.N 1.6.>.>.=.D Z ..E W l p * . $ q ",
"<.<.>.>.>.>.*.*.<.;.<.<.<.<.<.<.<.<.@.#.;.;.;.;.;.#.:.>.>.Z >.1.,.y.9.P p a * < V.V.V.",
"<.<.*.>.;.*.<.>.<.<.>.*.<.>.>.*.%.>.;.=.;.;.;. . .#.5.h 5.6.G G F J b 0 X . O x.C.M.C.",
"<.<.>.>.<.<.<.<.<.*.;.>.<.<.>.>.>.>.*.<.<.;.;. .#.#.5.+.5.@.V s.u.^ 9   f.f.l.V.n.C.B.",
"<.<.<.*.<.;.<.<.<.<.<.<.>.>.>.;.>.<.>.>.<.>.;.>.#.*.&.&.5.;.i.k 4 % . l.B.C.c.C.C.B.B.",
"<.<.<.>.*.<.<.<.<.<.<.<.>.<.;.>.>.>.>.H >.,.>.>.*.*.2.&.2.O.l > + f.k.C.V.C.C.N.B.v.v.",
"<.<.*.>.<.<.<.<.<.<.>.<.=.6.>.@.a.1.t.G t.y.r.:.<.*.$.&.3.X.g o m.C.C.C.C.C.C.C.C.C.B.",
"<.*.;.*.>.*.<.*.<.<.>.>.Z >.1.} N m m | v | B y.a.Z <.S 6.Y i   C.B.C.C.C.C.C.C.C.C.C.",
"<.<.*.*.*.*.<.<.<.<.Z 6.%.=.>.;.:...T s Q ! ~ s e.=.<.%.=.8.6 2 B.B.C.C.C.C.C.C.C.C.C."
};
