/* XPM */
static char *tile1001719244614[] = {
/* columns rows colors chars-per-pixel */
"43 43 185 2 ",
"   c #070713",
".  c #00021F",
"X  c #0F0E1C",
"o  c #000224",
"O  c #000826",
"+  c #080A23",
"@  c #00022B",
"#  c #010C28",
"$  c #03112E",
"%  c #000332",
"&  c #020D32",
"*  c #00033C",
"=  c #000D3C",
"-  c #021132",
";  c #00123B",
":  c #0A1334",
">  c #121B3B",
",  c #001445",
"<  c #00144B",
"1  c #031A4A",
"2  c #031942",
"3  c #001851",
"4  c #092345",
"5  c #1A2344",
"6  c #0E2456",
"7  c #353541",
"8  c #2F3652",
"9  c #26385C",
"0  c #1E3468",
"q  c #052573",
"w  c #293F78",
"e  c #3D4A5D",
"r  c #314E6C",
"t  c #254578",
"y  c #444D64",
"u  c #48557F",
"i  c #575C79",
"p  c #5E6E7E",
"a  c #5F657B",
"s  c #80777A",
"d  c #133785",
"f  c #2D4688",
"g  c #354E8E",
"h  c #3E5488",
"j  c #294790",
"k  c #2C499C",
"l  c #2F579D",
"z  c #3A5690",
"x  c #385999",
"c  c #3758A5",
"v  c #3C5BAE",
"b  c #425C8D",
"n  c #405D95",
"m  c #445C9A",
"M  c #4C6A9E",
"N  c #566D9F",
"B  c #587295",
"V  c #646D8E",
"C  c #677288",
"Z  c #6A7788",
"A  c #4461A1",
"S  c #4165AF",
"D  c #4B69AF",
"F  c #4865AB",
"G  c #4C6EB4",
"H  c #4D70B4",
"J  c #5074BE",
"K  c #597BB8",
"L  c #5478B4",
"P  c #6377B2",
"I  c #3F78DF",
"U  c #4B70C0",
"Y  c #5B7ECC",
"T  c #5478C2",
"R  c #4D75D5",
"E  c #567CD7",
"W  c #437BE4",
"Q  c #477AEF",
"!  c #4C7AE7",
"~  c #537EE3",
"^  c #547DE9",
"/  c #4A7BF3",
"(  c #437DFC",
")  c #4B7FF9",
"_  c #587DF0",
"`  c #507CF9",
"'  c #75818F",
"]  c #5983CB",
"[  c #5E84D4",
"{  c #5F89D3",
"}  c #5C85DC",
"|  c #5988DC",
" . c #6987CF",
".. c #6D8FCF",
"X. c #6185CA",
"o. c #7489CA",
"O. c #7090CD",
"+. c #6185D5",
"@. c #6188D3",
"#. c #6187DC",
"$. c #638ADC",
"%. c #4780E7",
"&. c #4B81E7",
"*. c #4B84EA",
"=. c #5380E7",
"-. c #5489E7",
";. c #5C8AE3",
":. c #5484ED",
">. c #5B83ED",
",. c #548AED",
"<. c #5A8BEC",
"1. c #4787F2",
"2. c #4D84F5",
"3. c #4D8CF5",
"4. c #4685FA",
"5. c #4D84FC",
"6. c #4E8AFC",
"7. c #5486F5",
"8. c #528BF4",
"9. c #5C8AF4",
"0. c #5386FE",
"q. c #5A86FE",
"w. c #5188FF",
"e. c #5A8CFF",
"r. c #4E92F7",
"t. c #5790F7",
"y. c #5D92F5",
"u. c #5391F8",
"i. c #5A92FB",
"p. c #618CE5",
"a. c #628CEB",
"s. c #6E8CE4",
"d. c #6993E7",
"f. c #6E94E9",
"g. c #7194EE",
"h. c #6185F4",
"j. c #628DF3",
"k. c #628CFF",
"l. c #6494FE",
"z. c #649DFF",
"x. c #8A8A96",
"c. c #868DA0",
"v. c #9B9CB0",
"b. c #86A1AC",
"n. c #9DACBF",
"m. c #B7B5C2",
"M. c #B2B7CA",
"N. c #BDC1CC",
"B. c #BECDD4",
"V. c #D8D3D7",
"C. c #F0E2DF",
"Z. c #ECF6DB",
"A. c #D7DDED",
"S. c #D0D3E4",
"D. c #DFF0FF",
"F. c #DDF3F0",
"G. c #FFEEEE",
"H. c #EEFCE4",
"J. c #EFF7EC",
"K. c #ECFCE8",
"L. c #F0F2E7",
"P. c #F2FFE3",
"I. c #F8FFE2",
"U. c #F3F3EC",
"Y. c #FCF5E9",
"T. c #F4FEEC",
"R. c #FDFCED",
"E. c #E5E7F9",
"W. c #E0EDF3",
"Q. c #F4EFF2",
"!. c #FCECF1",
"~. c #F1EBFC",
"^. c #FBEDFE",
"/. c #F1E0F2",
"(. c #EDF3FF",
"). c #EDFDFF",
"_. c #ECF5F3",
"`. c #F3F5F4",
"'. c #FCF5F4",
"]. c #F5FEF5",
"[. c #FDFDF4",
"{. c #F5F5FE",
"}. c #FCF5FE",
"|. c #F6FEFC",
" X c #FEFEFE",
/* pixels */
"w.w.w.w.w.w.w.w.w.w.w.w.w.w.w.w.w.w.w.w.w.w.0.w.w.w.w.5.w.w.w.w.w.w.w.w.7.3.7.w.w.0.0.",
"w.w.w.w.w.w.w.5.w.w.w.w.w.w.w.w.5.w.w.w.w.w.5.w.w.w.w.w.w.w.w.w.w.w.w.w.8.0.e.0.0.0.0.",
"w.w.w.w.w.w.w.w.w.w.w.5.w.w.w.w.w.w.w.w.w.w.w.w.w.w.w.w.w.w.w.w.w.w.w.w.w.0.0.0.w.7.0.",
"w.w.w.w.w.w.w.w.w.w.w.w.w.w.w.w.w.w.w.w.w.w.w.w.w.w.w.w.w.w.w.w.w.w.w.0.0.0.0.0.e.0.8.",
"w.w.w.5.w.w.w.w.w.w.w.w.w.w.w.w.w.w.w.w.5.w.w.w.w.w.w.w.w.w.w.w.w.w.w.0.q.0.0.w.5.8.3.",
"w.w.w.w.w.w.w.w.w.w.w.w.w.w.w.w.w.w.w.w.w.w.w.w.w.w.w.w.w.w.w.w.w.w.w.w.0.0.0.w.7.3.6.",
"w.w.w.w.w.w.w.w.w.w.w.w.w.w.5.w.w.w.w.w.w.w.w.w.w.w.w.w.5.w.w.w.w.w.e.0.0.0.w.7.3.7.6.",
"w.w.w.w.w.w.w.w.w.w.w.w.w.w.w.w.w.w.w.w.w.w.w.w.w.w.w.w.w.w.w.w.w.w.5.0.0.0.w.7.3.3.3.",
"w.w.w.w.w.w.w.w.w.w.w.w.w.w.w.w.w.w.w.w.w.w.w.w.w.w.w.w.w.w.w.w.w.w.w.w.0.0.w.3.3.3.6.",
"w.w.w.w.w.w.w.w.w.w.w.w.w.w.w.w.5.w.w.w.w.w.w.w.w.w.w.w.w.w.w.w.w.w.w.w.0.0.7.8.7.3.6.",
"w.w.w.w.w.w.w.w.w.w.w.w.w.w.w.w.w.w.w.w.w.w.6.w.w.5.w.w.w.5.w.w.0.5.w.w.0.0.w.0.3.3.3.",
"w.w.w.w.w.5.w.w.w.w.w.w.w.w.w.w.w.w.w.w.w.w.w.w.w.0.w.w.w.w.w.w.w.w.w.w.0.w.w.3.3.3.3.",
"w.w.w.w.w.w.w.w.w.w.w.w.w.w.w.w.w.w.w.w.w.w.w.6.w.w.w.w.w.w.w.w.w.w.w.0.w.w.w.w.6.3.3.",
"w.w.w.w.0.0.w.w.5.w.6.w.0.0.7.9.7.0.9.0.7.7.7.e.0.0.0.w.w.0.0.w.w.w.w.w.w.6.w.8.8.,.-.",
"5.w.w.0.0.7.7.w.w.w.5.e.:.^ a.a.R h.>.^ >.>.<.<.:.:.7.9.7.q.q.5.) 0.e.w.5.5.e.&.p.@.K ",
"w.w.w.w.0.q.6.w.w.w.7.8.<.[ G G D j k v c S T X.$.$.#.} p.E ~ j.9.~ ! 7.q.Q 9.| T n 2 ",
"w.w.w.w.w.w.6.6.w.8.<.| l * ; o $ 4 & & ; & @ @ @ & 1 6 0 t b m g f A  .E g.Y F 3 @ 8 ",
"w.w.w.6.5.6.w.6.3.8.;.] < B |.|.W.|.(.|.|.|.{.A.M.c.a y 8 > : > & o & 9 P o.b % b {. X",
"w.w.w.w.6.5.r.6.2.,.$.L @ D.|.].[.[.[.[. X}. X X}.}.}.}.~. X}.E. X Xv.+ O & o i {. X{.",
"w.w.6.6.6.4.6.w.2.<.@.F O |.}.[.[.Y.Y.[. X[.}.}.}. X X X X X}.}.{.}.}. Xx.7 m.}.{.}.}.",
"w.w.w.5.6.4.r.6.7.a.X.b - E. X}.'.}.}. X}. X X X X}. X X}.{. X|. X{.{.|.}.[. X].[.'. X",
"w.w.w.w.r.1.6.w.2.a.X.h # |.}.^.}./.}.}. X X X X X X|.|. X|.{.|.|.|.|. X[.Y.R. X'.[.'.",
"w.w.w.w.W z.2.Q l.E O.- e {.}.}.}.~. X X|.|.|.|.|.|.|.|.|.|.|.|.[.|.|.].[.[.[.[.[. X X",
"w.w.6.7.i.I 7.0.9.f.t # B.|.{.}. X{. X].[.[.|.[.|.[.|.[.|.[.|.[.].].].].].].[.[.|. X X",
"w.w.w.7.u.*.0.q.>.U & b.|.T.T.|.|.].].K.[.[. X[.[. X[.[. X[. X[.[. X[.[.|.|.|. X|.|. X",
"w.w.w.w.*.z.Q q.>.d 2 ).K.Z.R.[.J.T.T.H.[. X X X X X X X X X X X X X X X|.|.|.|. X|. X",
"w.w.w.6.,.9./ k.>.q r F.T.I.R.L.`.[.P.P. X X X X}. X}.}. X}.}. X}. X}. X X|. X|. X|. X",
"w.w.w.7.u.! 0.q.j.q 9 {.T.R.[.[. X[.H.[. X X}. X X X X X}. X}. X X}. X}.}. X X X X X X",
"w.6.w.w.u.,.e.) h.k & ).T.R.}.}.}.}.{.[. X X[. X X X X X X X X X X X X X X}. X}. X X X",
"w.w.w.7.*.u.5.0._ s.@ Z [. X}.}.}.}. X_.|.[. X[.[.[. X[. X X[. X X X X X}. X}. X}. X X",
"w.w.w.6.w.3.w.0.q.p.x O S.}.}.}.}. X|.|. X X X X X X X X X X X X X X X X X X X X X X X",
"w.w.w.w.7.5.w.w.0.j.J 0 5 {.}.}. X{.].|. X X X X X X X X X X X X X X X X X X X X X X X",
"w.w.w.w.0.2.w.w.3.y.d.H & V |.}.Q.[.`. X X X X X X X X X X X X X X X X X X X X X X X X",
"w.w.w.w.q.` 7.w.1.r.j.| A @ (. XU.[.U. X X X X X X X X X X X X X X X X X X X X X X X X",
"w.w.w.0.q.0.8.u.1.1.8.p.Y = n.|.[.[.'. X X X X X X X X X X X X X X X X X X X X X X X X",
"w.w.w.0.q.0.7.3.r.r.3.-.{ 1 p `.[.R.'. X X X X X X X X X X X X X X X X X X X X X X X X",
"w.w.w.0.q.0.7.3.u.3.-.| ..@ ' [.U.[. X X X X X X X X X X X X X X X X X X X X X X X X X",
"w.w.w.w.0.0.w.2.r.-.| X.N $ N. X[.U.[.}. X X X X X X X X X X X X X X X X X X X X X X X",
"w.w.w.w.0.w.w.6.W <.x % . X  X}. X X X|. X X X X X X X X X X X X X X X X X X X X X X X",
"w.w.w.w.5.( 5.i.l.} < -   s !. X X{.|.|. X X X X X X X X X X X X X X X X X X X X X X X",
"w.w.w.w.r.6.( 5.9.+., C V.[.G.!.'. X|.|.|. X X X X X X X X X X X X X X X X X X X X X X",
"w.w.w.w.4.w.w.5.^ +.6 e `.C.'.'.}. X|._. X X X X X X X X X X X X X X X X X X X X X X X",
"w.w.w.5.6.5.w.7.7.d.z o  XQ.}.'.}.].|.|. X X X X X X X X X X X X X X X X X X X X X X X"
};
