/* XPM */
static char *tile1011719244613[] = {
/* columns rows colors chars-per-pixel */
"43 43 194 2 ",
"   c #020213",
".  c #00011C",
"X  c #010B1C",
"o  c #000225",
"O  c #000A26",
"+  c #00032A",
"@  c #000C29",
"#  c #0A0D20",
"$  c #02132B",
"%  c #07182C",
"&  c #0A1626",
"*  c #010432",
"=  c #000A34",
"-  c #00023B",
";  c #000A3C",
":  c #041334",
">  c #03123B",
",  c #111E31",
"<  c #171626",
"1  c #182434",
"2  c #020443",
"3  c #010C4E",
"4  c #001942",
"5  c #00154C",
"6  c #091F48",
"7  c #071943",
"8  c #000D5A",
"9  c #001151",
"0  c #00135B",
"q  c #061B55",
"w  c #0D2645",
"e  c #1D2445",
"r  c #1F2942",
"t  c #132358",
"y  c #212C42",
"u  c #30384D",
"i  c #393A4C",
"p  c #232B59",
"a  c #283756",
"s  c #213454",
"d  c #1A3260",
"f  c #182B77",
"g  c #07277A",
"h  c #24396E",
"j  c #2C3F78",
"k  c #3A4352",
"l  c #3A477B",
"z  c #404362",
"x  c #4A5066",
"c  c #454C73",
"v  c #4F5670",
"b  c #615D6B",
"n  c #59636C",
"m  c #566174",
"M  c #6E727B",
"N  c #696B77",
"B  c #1E2881",
"V  c #2E3B8A",
"C  c #3F5B8D",
"Z  c #3C5095",
"A  c #395EAF",
"S  c #3A5AA7",
"D  c #475A88",
"F  c #576997",
"G  c #51649E",
"H  c #7C7A87",
"J  c #636490",
"K  c #4B5DA3",
"L  c #4363AE",
"P  c #5B79AA",
"I  c #4F69BE",
"U  c #4C69B7",
"Y  c #586FB3",
"T  c #4F76B1",
"R  c #5D7AB9",
"E  c #6374AF",
"W  c #627CAD",
"Q  c #6679BB",
"!  c #396BDE",
"~  c #4E6AC5",
"^  c #5B75CF",
"/  c #547BCA",
"(  c #5E7BCC",
")  c #557CC1",
"_  c #4E78DE",
"`  c #5B7ED4",
"'  c #5A7CDB",
"]  c #4B79C4",
"[  c #667EC8",
"{  c #637BD8",
"}  c #436DE5",
"|  c #4C79E5",
" . c #477AEF",
".. c #5178E1",
"X. c #567DE9",
"o. c #5C7CE8",
"O. c #4779F5",
"+. c #547DF2",
"@. c #587FFF",
"#. c #5576F9",
"$. c #677CE5",
"%. c #637FFC",
"&. c #7E909E",
"*. c #788FB1",
"=. c #7788B8",
"-. c #5F80D1",
";. c #5E81DA",
":. c #6189C7",
">. c #6A8BC9",
",. c #6485D3",
"<. c #6F85D0",
"1. c #6982DF",
"2. c #6888D8",
"3. c #738BDA",
"4. c #7292DD",
"5. c #5B83E5",
"6. c #5C8AE3",
"7. c #5C84EC",
"8. c #4C86FF",
"9. c #4E8AFC",
"0. c #4A86F7",
"q. c #5484F6",
"w. c #5B85F3",
"e. c #518AF6",
"r. c #5486FC",
"t. c #5A84FA",
"y. c #5289FA",
"u. c #5B8BFE",
"i. c #5B92FF",
"p. c #6284E1",
"a. c #618CE5",
"s. c #6D89E3",
"d. c #6383EA",
"f. c #6B89EE",
"g. c #6A80E3",
"h. c #758FE9",
"j. c #7491E8",
"k. c #638BFC",
"l. c #6C8BFD",
"z. c #6382FF",
"x. c #6592FE",
"c. c #7498FF",
"v. c #7796F3",
"b. c #6697E6",
"n. c #8B969B",
"m. c #8792A8",
"M. c #959CA4",
"N. c #9FA8B7",
"B. c #98A6B3",
"V. c #A1ACAE",
"C. c #A9ACB3",
"Z. c #8697DF",
"A. c #9BB1D4",
"S. c #A6AFC0",
"D. c #A6A5C5",
"F. c #AFB5C5",
"G. c #A0ACD4",
"H. c #ADBDD4",
"J. c #B7C5C6",
"K. c #BCC5CA",
"L. c #C8CFDF",
"P. c #C3CBD8",
"I. c #E9EDDF",
"U. c #EEF4DC",
"Y. c #F6F5DE",
"T. c #CFDDE6",
"R. c #CDD1F5",
"E. c #E6E8E7",
"W. c #EDEEE0",
"Q. c #E9EDEC",
"!. c #F3EAED",
"~. c #EDF4ED",
"^. c #EDF9EC",
"/. c #F5F5E5",
"(. c #FDFCE5",
"). c #F3F4EE",
"_. c #F6FBEA",
"`. c #FEFDED",
"'. c #EDEDF3",
"]. c #E9EEFA",
"[. c #F2EDF4",
"{. c #F0EEF9",
"}. c #ECF2F4",
"|. c #E4F6FF",
" X c #EEF6FC",
".X c #E9FCFF",
"XX c #F4F4F5",
"oX c #FBF3F5",
"OX c #F2FAF4",
"+X c #FEFFF4",
"@X c #F5F5FD",
"#X c #FCF4FE",
"$X c #F5FBFD",
"%X c #FFFFFF",
/* pixels */
"r.r.r.y.t.r.r.r.r.i.i. .r.y.| 6.p./ L 0 A a.x.! u.u.k.X.w.x.x.w.| z.X.X._ 5.7.7.;.=.@ ",
"r.r.y.e.y.e.y.r.r. .u.r.u.7.5.,.R l 4 + 9 ,.d.k.@.+.k.a.a.` ` 1.h.f.j.[ 4.S g v.( F . ",
"y.e.e.e.e.e.e.e.r.u.+.X.p.` R d @ X B.H.+ <.d.z.#.l.' 2.>.P D j h t t + : + 5 Y =.7 u ",
"e.e.e.e.e.e.e.e.r.t.o.f.( q + 1 V.%XXXP.= Q $.%.l.$.8 ; . . $ e y k x n.J..X$ t l . L.",
"e.0.9.9.y.y.e.y.t.l.$.f - s T.$X_.W.+X$X+ K { d.o.~ 9 A..X$X$X%X@X#X#X/.U.^.K.+ l X %X",
"9.9.9.9.9.y.r.y.w.^ B 3 G.%X$XU.(.+X%X$Xp f h.' 5.^ 2 A..XOX^.%X%X#X+XY.(.`.}.. c # '.",
"9.9.8.O.u.i.q.w.o.V 2 R. X%X+X(.(.+X#X@X=.5 / a.5.h.f = m $X%X#X#X#XoX`.U.+XM + J   #X",
"9.0.i.x.O.} k.7.I * D.@X$X@X+X/.+X+XXX$X$X- ) b.a.^ Z.D   K.$X#X#X#X%X`.`.+XN o *   !.",
"9.8.u.r.+.c.f.~ 3 m %X%X%X'.#X#X%X@X%X$X|.= T ] / [ E a X OX%X@X#X#X!.`.+X).%XR.. H #X",
"9.9.r.k.o.$.{ Z > OX/.).%X].@X%X%X%X%X X&.w W :.,.j o , n.$XXX$X@XXX%XW./.+XQ. X%X@X%X",
"8.r.u.X.p.3.G + S.+X(.+XOX%X%X%X%X%XOX%Xn $ *.W 4 O N.%X$X+X+X%X%X).+X+X`._.+X%X}.%X$X",
"y.q.k.o.3.E + k %XU.+XoX$X%X$X%X@X$X@X%XC.  y : : @X}.$XOX^.).$X%X+X~.+X+XI.+X+X+X@XXX",
"q.e...s.L @ 1 +X/.+X+X~.$XOX^.$X).%X$X#X%Xb < i ].%X@X%X%X%X%X$X@X$X}.$X%X$X%XXXXX%X%X",
"6.;.U 0 * v }.`.+X+X@X%XOX+X_.$X$X+X%X[.#X#X$X%X#X$X+X$X%X$X%X$X%X%X%X@X%XXX%X+X%X%XXX",
"D 6 + y F.%XXX).+X%X%X%X$X%X$X+X%X%X%X%X%X%X%X%X%X%X%X%X%X%X%X%X%X%X%X%X%X%X%X%X%X%X%X",
"$ & M.$X%XoX#X%X{.%X%X%X%X%X%X%X%X%X%X%X%X%X%X%X%X%X%X%X%X%X%X%X%X%X%X%X%X%X%X%X%X%X%X",
"m.].%X%XOXXX@X%XXX%X%X%X%X%X%X%X%X%X%X%X%X%X%X%X%X%X%X%X%X%X%X%X%X%X%X%X%X%X%X%X%X%X%X",
" X$X%X%X#X%XOX$X%X%X%X%X%X%X%X%X%X%X%X%X%X%X%X%X%X%X%X%X%X%X%X%X%X%X%X%X%X%X%X%X%X%X%X",
"#X%XXXXXXX%X%X$X%X%X%X%X%X%X%X%X%X%X%X%X%X%X%X%X%X%X%X%X%X%X%X%X%X%X%X%X%X%X%X%X%X%X%X",
"[.%X$X%X%X%XOX~.$X%X%X%X%X%X%X%X%X%X%X%X%X%X%X%X%X%X%X%X%X%X%X%X%X%X%X%X%X%X%X%X%X%X%X",
"%X%X%X%XE.~.%X$XOX%X%X%X%X%X%X%X%X%X%X%X%X%X%X%X%X%X%X%X%X%X%X%X%X%X%X%X%X%X%X%X%X%X%X",
"#X%XoX#X%X%X$X).$X+X%X%X%X%X%X%X%X%X%X%X%X%X%X%X%X%X%X%X%X%X%X%X%X%X%X%X%X%X%X%X%X%X%X",
"#X%X%X%X%X+X%X+X+X%X%X%X%X%X%X%X%X%X%X%X%X%X%X%X%X%X%X%X%X%X%X%X%X%X%X%X%X%X%X%X%X%X%X",
"%X%X%X%X+X%X+X+X+X+X%X%X%X%X%X%X%X%X%X%X%X%X%X%X%X%X%X%X%X%X%X%X%X%X%X%X%X%X%X%X%X%X%X",
"%X%X%X%X+X+X+X+X+X%X%X%X%X%X%X%X%X%X%X%X%X%X%X%X%X%X%X%X%X%X%X%X%X%X%X%X%X%X%X%X%X%X%X",
"%X%X%X%X%X%X+X+X+X%X%X%X%X%X%X%X%X%X%X%X%X%X%X%X%X%X%X%X%X%X%X%X%X%X%X%X%X%X%X%X%X%X%X",
"%X%X%X%X%X+X%X%X+X%X%X%X%X%X%X%X%X%X%X%X%X%X%X%X%X%X%X%X%X%X%X%X%X%X%X%X%X%X%X%X%X%X%X",
"%X%X%X%X#X%X%X%X%X%X%X%X%X%X%X%X%X%X%X%X%X%X%X%X%X%X%X%X%X%X%X%X%X%X%X%X%X%X%X%X%X%X%X",
"%X%X%X%X%X%X%X%X%X%X%X%X%X%X%X%X%X%X%X%X%X%X%X%X%X%X%X%X%X%X%X%X%X%X%X%X%X%X%X%X%X%X%X",
"%X%X%X%X%X%X%X%X%X%X%X%X%X%X%X%X%X%X%X%X%X%X%X%X%X%X%X%X%X%X%X%X%X%X%X%X%X%X%X%X%X%X%X",
"%X%X%X%X%X%X%X%X%X%X%X%X%X%X%X%X%X%X%X%X%X%X%X%X%X%X%X%X%X%X%X%X%X%X%X%X%X%X%X%X%X%X%X",
"%X%X%X%X%X%X%X%X%X%X%X%X%X%X%X%X%X%X%X%X%X%X%X%X%X%X%X%X%X%X%X%X%X%X%X%X%X%X%X%X%X%X%X",
"%X%X%X%X%X%X%X%X%X%X%X%X%X%X%X%X%X%X%X%X%X%X%X%X%X%X%X%X%X%X%X%X%X%X%X%X%X%X%X%X%X%X%X",
"%X%X%X%X%X%X%X%X%X%X%X%X%X%X%X%X%X%X%X%X%X%X%X%X%X%X%X%X%X%X%X%X%X%X%X%X%X%X%X%X%X%X%X",
"%X%X%X%X%X%X%X%X%X%X%X%X%X%X%X%X%X%X%X%X%X%X%X%X%X%X%X%X%X%X%X%X%X%X%X%X%X%X%X%X%X%X%X",
"%X%X%X%X%X%X%X%X%X%X%X%X%X%X%X%X%X%X%X%X%X%X%X%X%X%X%X%X%X%X%X%X%X%X%X%X%X%X%X%X%X%X%X",
"%X%X%X%X%X%X%X%X%X%X%X%X%X%X%X%X%X%X%X%X%X%X%X%X%X%X%X%X%X%X%X%X%X%X%X%X%X%X%X%X%X%X%X",
"%X%X%X%X%X%X%X%X%X%X%X%X%X%X%X%X%X%X%X%X%X%X%X%X%X%X%X%X%X%X%X%X%X%X%X%X%X%X%X%X%X%X%X",
"%X%X%X%X%X%X%X%X%X%X%X%X%X%X%X%X%X%X%X%X%X%X%X%X%X%X%X%X%X%X%X%X%X%X%X%X%X%X%X%X%X%X%X",
"%X%X%X%X%X%X%X%X%X%X%X%X%X%X%X%X%X%X%X%X%X%X%X%X%X%X%X%X%X%X%X%X%X%X%X%X%X%X%X%X%X%X%X",
"%X%X%X%X%X%X%X%X%X%X%X%X%X%X%X%X%X%X%X%X%X%X%X%X%X%X%X%X%X%X%X%X%X%X%X%X%X%X%X%X%X%X%X",
"%X%X%X%X%X%X%X%X%X%X%X%X%X%X%X%X%X%X%X%X%X%X%X%X%X%X%X%X%X%X%X%X%X%X%X%X%X%X%X%X%X%X%X",
"%X%X%X%X%X%X%X%X%X%X%X%X%X%X%X%X%X%X%X%X%X%X%X%X%X%X%X%X%X%X%X%X%X%X%X%X%X%X%X%X%X%X%X"
};
