/* XPM */
static char *tile1021719244613[] = {
/* columns rows colors chars-per-pixel */
"43 43 162 2 ",
"   c #C1CDE5",
".  c #F4FDFF",
"X  c #F6FDFF",
"o  c #FCFFFF",
"O  c #FEFEFF",
"+  c #FFFEFF",
"@  c #FFFBFF",
"#  c #FFFCFF",
"$  c #FFFDFF",
"%  c #FEFEFC",
"&  c #FEFFFB",
"*  c #FFFFFD",
"=  c white",
"-  c #FEFFFF",
";  c #F9FFFF",
":  c #EFF8F3",
">  c #FFFFF8",
",  c #FDF9F0",
"<  c #FFFAF3",
"1  c #FFFAF8",
"2  c #FCFAFF",
"3  c #112750",
"4  c #102F66",
"5  c #668DCE",
"6  c #638BD3",
"7  c #6D91DB",
"8  c #EEF9FF",
"9  c #F8FFFF",
"0  c #E8EDF3",
"q  c #F8F8F8",
"w  c #FEFCFD",
"e  c #FFFDFE",
"r  c #FDFFFC",
"t  c #FBFFFA",
"y  c #FEFFFD",
"u  c #FAFFFF",
"i  c #F6FAFD",
"p  c #FFFEFD",
"a  c #FDF6F0",
"s  c #FFF8F5",
"d  c #FFFBFB",
"f  c #F6F1F8",
"g  c #FAFDFF",
"h  c #98A7C6",
"j  c #041D46",
"k  c #446495",
"l  c #5273A8",
"z  c #000337",
"x  c #F0F7FF",
"c  c #F2F6F9",
"v  c #FCFEFD",
"b  c #FCFCFA",
"n  c #F6F5F3",
"m  c #FDFEFF",
"M  c #FBFFFC",
"N  c #F9FCFF",
"B  c #F7F7FF",
"V  c #FEF8FC",
"C  c #FFFCFB",
"Z  c #FFF9F6",
"A  c #FFFBFA",
"S  c #F3F3FD",
"D  c #F3FBFF",
"F  c #34455F",
"G  c #000A29",
"H  c #081F3F",
"J  c #000A28",
"K  c #EDF4FE",
"L  c #F4F9FD",
"P  c #FDFEF9",
"I  c #FFFFFB",
"U  c #FBFFFF",
"Y  c #FAFFFC",
"T  c #F9FFFB",
"R  c #FAFFF9",
"E  c GhostWhite",
"W  c #F4EDF4",
"Q  c #FFFCFD",
"!  c #FFF2EF",
"~  c #FDEFEC",
"^  c #FFFDFB",
"/  c #F2F9FF",
"(  c #F0FCFF",
")  c #3B4B5B",
"_  c #000616",
"`  c #45515F",
"'  c #F2F5FC",
"]  c #EEEFF1",
"[  c #FBFDF8",
"{  c #FAFBF5",
"}  c #FBFAF5",
"|  c #FFFFFA",
" . c #F9FFF9",
".. c #FBFEFF",
"X. c #F3F1F6",
"o. c #FBF0EE",
"O. c #FCF1ED",
"+. c #FDF5F2",
"@. c #F1FAFF",
"#. c #B4BDC2",
"$. c #EFF7F9",
"%. c #F7F8F2",
"&. c #E7E7DF",
"*. c #EEF3F9",
"=. c #FCFCFE",
"-. c #FAF6F5",
";. c #FFFEF8",
":. c #F5F0EC",
">. c #FBFAF6",
",. c #F7F9F8",
"<. c #F7FBFC",
"1. c #F6FCFC",
"2. c #FCFEFB",
"3. c #FAFAF0",
"4. c #FFFFF6",
"5. c #FEFEFE",
"6. c #FAFFFA",
"7. c #FEFFFA",
"8. c #FFFEF9",
"9. c #F4F4EA",
"0. c #F5F5E9",
"q. c #FCFCF4",
"w. c #F8FFFE",
"e. c #F8FFFC",
"r. c #FDFFF9",
"t. c #FDFFFA",
"y. c #FCFFFD",
"u. c #FEFDF9",
"i. c #FAF9F4",
"p. c #F5F7EC",
"a. c #FEFFF7",
"s. c #F9FAF4",
"d. c #F8FFF9",
"f. c #F0EFEB",
"g. c #F8F9F1",
"h. c #FBFFF9",
"j. c #FAFFF7",
"k. c #F8FFFA",
"l. c #F5F5F3",
"z. c #FDFEF6",
"x. c #FBFCF4",
"c. c #F2F3ED",
"v. c #FEFDFF",
"b. c #FEFFF9",
"n. c #FAFFFE",
"m. c #FBFFFE",
"M. c #F4F5EF",
"N. c #FDFDFB",
"B. c #FFFEFC",
"V. c #FFFEF7",
"C. c #FDFFFE",
"Z. c #F6F8F3",
"A. c #F4F7F0",
"S. c #FFFDFA",
"D. c #FFFDF7",
"F. c #FFFCF7",
"G. c #FFFEFB",
"H. c #F9FBFA",
"J. c #FCFEF9",
"K. c #F8FAF5",
"L. c #FFFCF9",
"P. c #FFFCFC",
/* pixels */
"  . X o O + @ @ # # $ % & & * = = = = = = = = = = = = = = - ; : > , < 1 2 X 3 4 5 6 7 ",
"8 9 0 o q w e # # $ O r t t y = = = = = = = = = = = = = = - u i p a s d f g h j k l z ",
"x ; c v b n e # $ O m M t t y = = = = = = = = = = = = = = - N B V C Z A # S D F G H J ",
"K L - P I I p + O m U Y T R - = = = = = = = = = = = = = = - o E W Q ! ~ ^ $ / ( ) _ ` ",
"' ] [ { } | * + = m U T T  .- = = = = = = = = = = = = = = - ..O X.Q o.O.+.* U ; @.#.$.",
"- y %.> &.| I = - m U T  . .y = = = = = = = = = = = = = = - *.o =.-.s ;.:.>.,.<.1.U 2.",
"q P > 3.4.> % 5.m m U Y 6.t y = = = = = = = = = = = = = = - u 9 M 7.8.8.8.7.y o o o y ",
"* | 9.0.4.q.% O m m U M t t y = = = = = = = = = = = = = = - w.e.6.t r.r.r.t.y.o o - - ",
"u.i.p.4.a.s.5.O m m m r t.t.* = = = = = = = = = = = = = = y 6.d.d.R 6.6.t M o o - - - ",
"f.i.> > g.P 5.O m m m r 7.7.* = = = = = = = = = = = = = = y h.j.R R k.e.Y M o - - - - ",
"l.| z.x.c.* O v.v.v.O % 8.b.* = = = = = = = = = = = = = = * a.a.r.t Y n.m.m.y * * = - ",
"* I M.b.7.N.O v.v.v.$ B.8.8.* = = = = = = = = = = = = = = * V.V.8.t.m.m.m.C.* I I I * ",
"C.Z.A.7.& ,.O v.# $ e S.V.V.* = = = = = = = = = = = = = = * D.F.S.B.5.m C.% G.> > > | ",
"H.y J.K.y ,.O v.$ $ e S.8.8.* = = = = = = = = = = = = = = * L.L.P.e e O 5.B.G.| > > | ",
"= = * * = = = = = = = * * * = = = = = = = = = = = = = = = = * * + + = = = = * * * * * ",
"= = = = = = = = = = = = = = = = = = = = = = = = = = = = = = = = = = = = = = = = = = = ",
"= = = = = = = = = = = = = = = = = = = = = = = = = = = = = = = = = = = = = = = = = = = ",
"= = = = = = = = = = = = = = = = = = = = = = = = = = = = = = = = = = = = = = = = = = = ",
"= = = = = = = = = = = = = = = = = = = = = = = = = = = = = = = = = = = = = = = = = = = ",
"= = = = = = = = = = = = = = = = = = = = = = = = = = = = = = = = = = = = = = = = = = = ",
"= = = = = = = = = = = = = = = = = = = = = = = = = = = = = = = = = = = = = = = = = = = ",
"= = = = = = = = = = = = = = = = = = = = = = = = = = = = = = = = = = = = = = = = = = = ",
"= = = = = = = = = = = = = = = = = = = = = = = = = = = = = = = = = = = = = = = = = = = ",
"= = = = = = = = = = = = = = = = = = = = = = = = = = = = = = = = = = = = = = = = = = = ",
"= = = = = = = = = = = = = = = = = = = = = = = = = = = = = = = = = = = = = = = = = = = ",
"= = = = = = = = = = = = = = = = = = = = = = = = = = = = = = = = = = = = = = = = = = = ",
"= = = = = = = = = = = = = = = = = = = = = = = = = = = = = = = = = = = = = = = = = = = ",
"= = = = = = = = = = = = = = = = = = = = = = = = = = = = = = = = = = = = = = = = = = = ",
"= = = = = = = = = = = = = = = = = = = = = = = = = = = = = = = = = = = = = = = = = = = ",
"= = = = = = = = = = = = = = = = = = = = = = = = = = = = = = = = = = = = = = = = = = = ",
"= = = = = = = = = = = = = = = = = = = = = = = = = = = = = = = = = = = = = = = = = = = ",
"= = = = = = = = = = = = = = = = = = = = = = = = = = = = = = = = = = = = = = = = = = = ",
"= = = = = = = = = = = = = = = = = = = = = = = = = = = = = = = = = = = = = = = = = = = ",
"= = = = = = = = = = = = = = = = = = = = = = = = = = = = = = = = = = = = = = = = = = = ",
"= = = = = = = = = = = = = = = = = = = = = = = = = = = = = = = = = = = = = = = = = = = ",
"= = = = = = = = = = = = = = = = = = = = = = = = = = = = = = = = = = = = = = = = = = = ",
"= = = = = = = = = = = = = = = = = = = = = = = = = = = = = = = = = = = = = = = = = = = ",
"= = = = = = = = = = = = = = = = = = = = = = = = = = = = = = = = = = = = = = = = = = = ",
"= = = = = = = = = = = = = = = = = = = = = = = = = = = = = = = = = = = = = = = = = = = ",
"= = = = = = = = = = = = = = = = = = = = = = = = = = = = = = = = = = = = = = = = = = = ",
"= = = = = = = = = = = = = = = = = = = = = = = = = = = = = = = = = = = = = = = = = = = ",
"= = = = = = = = = = = = = = = = = = = = = = = = = = = = = = = = = = = = = = = = = = = ",
"= = = = = = = = = = = = = = = = = = = = = = = = = = = = = = = = = = = = = = = = = = = "
};
