/* XPM */
static char *tile1031719244613[] = {
/* columns rows colors chars-per-pixel */
"43 43 85 1 ",
"  c #6482CA",
". c #6E85C9",
"X c #04154B",
"o c #A5B2D2",
"O c #20283B",
"+ c #0E1728",
"@ c #5D6773",
"# c #000710",
"$ c #F1F9FC",
"% c #F4FAFA",
"& c #EEF4F2",
"* c #FDFFFC",
"= c #FDFFFA",
"- c #FEFEFC",
"; c #FFFEFC",
": c #FFFCFF",
"> c #FFFEFF",
", c white",
"< c #31487A",
"1 c #7889B7",
"2 c #000025",
"3 c #9AA2B9",
"4 c #EBF2FF",
"5 c #030B18",
"6 c #00020B",
"7 c #00040A",
"8 c #CCD4D6",
"9 c #F8FEFC",
"0 c #FCFFFD",
"q c #FFFDFF",
"w c #000621",
"e c #000217",
"r c #000518",
"t c #E7EDFB",
"y c #F6FCFF",
"u c #DFE6F0",
"i c #0C1319",
"p c #080D11",
"a c #E2E8E8",
"s c #F1F6F2",
"d c #F9FEF8",
"f c #FEFEFF",
"g c #939CA5",
"h c #5F6065",
"j c #BBBABF",
"k c #FCFFFF",
"l c #E5E8EF",
"z c #FAFFFF",
"x c #EAEEEF",
"c c #F8FDF7",
"v c #FBFFFA",
"b c #FDFEFF",
"n c #FEFDFF",
"m c #F8FAF7",
"M c #FFFFF8",
"N c #FFFFFA",
"B c #F9F9F9",
"V c #FEFFFF",
"C c #F4F5F7",
"Z c #EEF2F1",
"A c #FEFFFD",
"S c #E7E9E4",
"D c #FEFFFB",
"F c #FDFFF9",
"G c #FBFFFC",
"H c #FBFFFF",
"J c #FCFDF5",
"K c #FDF9EE",
"L c #FEFAF1",
"P c #FFFFFD",
"I c #FEFEFE",
"U c #FCFEFB",
"Y c #F9FBF6",
"T c #FEFFFA",
"R c #F7FAF3",
"E c #FFFEFA",
"W c #FFFEF7",
"Q c #FFFDF7",
"! c #FFFFFB",
"~ c #FFFDFA",
"^ c #FDFDFF",
"/ c #FBFEFF",
"( c #FAFFFE",
") c #FFFEFD",
"_ c #FBFFFE",
/* pixels */
" .XoO+@#$%&*=-;::::>,,,,,,,,,,,,,,,,,,,,,,,",
"<1234567890==--qq:q,,,,,,,,,,,,,,,,,,,,,,,,",
"wertyuipasd==*-ffqf,,,,,,,,,,,,,,,,,,,,,,,,",
"ghjklkzxkcv==**bbnf,,,,,,,,,,,,,,,,,,,,,,,,",
"mMNBVCZASDF==GGHHbb,,,,,,,,,,,,,,,,,,,,,,,,",
"JKLP,IUDYTR==GGHHHH,,,,,,,,,,,,,,,,,,,,,,,,",
"EWQ!PP!!!!!DDAAkkkk,,,,,,,,,,,,,,,,,,,,,,,,",
"-;~PP!!!!!!DDAVkkkV,,,,,,,,,,,,,,,,,,,,,,,,",
"bnf>PPPPPPPPPVVVVVV,,,,,,,,,,,,,,,,,,,,,,,,",
"b^b,PPP,P,P,,,V,V,,,,,,,,,,,,,,,,,,,,,,,,,,",
"b//,,,,,,,,,,,,>,PP,,,,,,,,,,,,,,,,,,,,,,,,",
"bzzV,,,,,,,,,>>>>PP,,,,,,,,,,,,,,,,,,,,,,,,",
"*(zVVVV>>>>>>>>)))P,,,,,,,,,,,,,,,,,,,,,,,,",
"=G_VVVV>,>,>>>>PP)P,,,,,,,,,,,,,,,,,,,,,,,,",
"PVV,,,,,,,,,,,,,,>,,,,,,,,,,,,,,,,,,,,,,,,,",
",,,,,,,,,,,,,,,,,,,,,,,,,,,,,,,,,,,,,,,,,,,",
",,,,,,,,,,,,,,,,,,,,,,,,,,,,,,,,,,,,,,,,,,,",
",,,,,,,,,,,,,,,,,,,,,,,,,,,,,,,,,,,,,,,,,,,",
",,,,,,,,,,,,,,,,,,,,,,,,,,,,,,,,,,,,,,,,,,,",
",,,,,,,,,,,,,,,,,,,,,,,,,,,,,,,,,,,,,,,,,,,",
",,,,,,,,,,,,,,,,,,,,,,,,,,,,,,,,,,,,,,,,,,,",
",,,,,,,,,,,,,,,,,,,,,,,,,,,,,,,,,,,,,,,,,,,",
",,,,,,,,,,,,,,,,,,,,,,,,,,,,,,,,,,,,,,,,,,,",
",,,,,,,,,,,,,,,,,,,,,,,,,,,,,,,,,,,,,,,,,,,",
",,,,,,,,,,,,,,,,,,,,,,,,,,,,,,,,,,,,,,,,,,,",
",,,,,,,,,,,,,,,,,,,,,,,,,,,,,,,,,,,,,,,,,,,",
",,,,,,,,,,,,,,,,,,,,,,,,,,,,,,,,,,,,,,,,,,,",
",,,,,,,,,,,,,,,,,,,,,,,,,,,,,,,,,,,,,,,,,,,",
",,,,,,,,,,,,,,,,,,,,,,,,,,,,,,,,,,,,,,,,,,,",
",,,,,,,,,,,,,,,,,,,,,,,,,,,,,,,,,,,,,,,,,,,",
",,,,,,,,,,,,,,,,,,,,,,,,,,,,,,,,,,,,,,,,,,,",
",,,,,,,,,,,,,,,,,,,,,,,,,,,,,,,,,,,,,,,,,,,",
",,,,,,,,,,,,,,,,,,,,,,,,,,,,,,,,,,,,,,,,,,,",
",,,,,,,,,,,,,,,,,,,,,,,,,,,,,,,,,,,,,,,,,,,",
",,,,,,,,,,,,,,,,,,,,,,,,,,,,,,,,,,,,,,,,,,,",
",,,,,,,,,,,,,,,,,,,,,,,,,,,,,,,,,,,,,,,,,,,",
",,,,,,,,,,,,,,,,,,,,,,,,,,,,,,,,,,,,,,,,,,,",
",,,,,,,,,,,,,,,,,,,,,,,,,,,,,,,,,,,,,,,,,,,",
",,,,,,,,,,,,,,,,,,,,,,,,,,,,,,,,,,,,,,,,,,,",
",,,,,,,,,,,,,,,,,,,,,,,,,,,,,,,,,,,,,,,,,,,",
",,,,,,,,,,,,,,,,,,,,,,,,,,,,,,,,,,,,,,,,,,,",
",,,,,,,,,,,,,,,,,,,,,,,,,,,,,,,,,,,,,,,,,,,",
",,,,,,,,,,,,,,,,,,,,,,,,,,,,,,,,,,,,,,,,,,,"
};
