/* XPM */
static char *tile1071719244613[] = {
/* columns rows colors chars-per-pixel */
"43 43 152 2 ",
"   c #010216",
".  c #00021E",
"X  c #000325",
"o  c #000825",
"O  c #00032B",
"+  c #010C2B",
"@  c #0F132E",
"#  c #000233",
"$  c #000A33",
"%  c #071633",
"&  c #0C1735",
"*  c #08143A",
"=  c #0C193B",
"-  c #1B1E3D",
";  c #102332",
":  c #000B43",
">  c #001342",
",  c #06124C",
"<  c #101242",
"1  c #011B53",
"2  c #102042",
"3  c #142B57",
"4  c #1B2F52",
"5  c #18335E",
"6  c #213045",
"7  c #2A3449",
"8  c #24344D",
"9  c #21335B",
"0  c #001C65",
"q  c #0C2A66",
"w  c #182C67",
"e  c #1A356C",
"r  c #193073",
"t  c #2A4272",
"y  c #2D407B",
"u  c #36477F",
"i  c #55545C",
"p  c #585E6E",
"a  c #44517D",
"s  c #5D697F",
"d  c #61687B",
"f  c #274080",
"g  c #314A8A",
"h  c #3A558A",
"j  c #3D5BA3",
"k  c #3C66AE",
"l  c #3C68B1",
"z  c #3F6EBE",
"x  c #4C5E82",
"c  c #617188",
"v  c #4057A3",
"b  c #4866A4",
"n  c #5460AC",
"m  c #5568AC",
"M  c #5B6DAF",
"N  c #5B71AA",
"B  c #516EB2",
"V  c #4F74BA",
"C  c #5E71B6",
"Z  c #5B79B7",
"A  c #5473BC",
"S  c #3C7BE5",
"D  c #5C75C5",
"F  c #5F77CD",
"G  c #5B7ECF",
"H  c #5878C8",
"J  c #5B7CD4",
"K  c #527AD9",
"L  c #627FC3",
"P  c #6F7EC3",
"I  c #617CCB",
"U  c #677EDB",
"Y  c #467BE5",
"T  c #4F7EEA",
"R  c #567BE6",
"E  c #4A7BF1",
"W  c #497AFA",
"Q  c #437BF2",
"!  c #517DF6",
"~  c #5C7CF5",
"^  c #637CE1",
"/  c #7A869E",
"(  c #5C82D7",
")  c #5F8CDF",
"_  c #5D85DC",
"`  c #6385CF",
"'  c #648CDB",
"]  c #6D8CDA",
"[  c #788FD5",
"{  c #718EDE",
"}  c #7294DC",
"|  c #4487EF",
" . c #5D84E4",
".. c #5484EA",
"X. c #5B86ED",
"o. c #5C8CEB",
"O. c #4F80F6",
"+. c #4689F1",
"@. c #4B8AF3",
"#. c #4E86FC",
"$. c #4E8AFC",
"%. c #5486F2",
"&. c #5A86F1",
"*. c #548AF7",
"=. c #5E8BF2",
"-. c #5287FE",
";. c #5986FF",
":. c #5189FC",
">. c #5C8AFA",
",. c #5394FE",
"<. c #589BFF",
"1. c #6B83E6",
"2. c #6188E7",
"3. c #6A8CE4",
"4. c #6285EC",
"5. c #718AE7",
"6. c #6F94E5",
"7. c #6586F7",
"8. c #6386FA",
"9. c #6689FF",
"0. c #6F8EF8",
"q. c #6093FC",
"w. c #6D99FF",
"e. c #8892AD",
"r. c #97A4AC",
"t. c #97A6BB",
"y. c #B1B8BE",
"u. c #B0B6C4",
"i. c #ABBDD3",
"p. c #C0C7D7",
"a. c #C6CED9",
"s. c #C9CADC",
"d. c #D0CFD5",
"f. c #D6DFFF",
"g. c #DAE9FF",
"h. c #EDEDED",
"j. c #FBFFEE",
"k. c #E7EFF1",
"l. c #EFEEF4",
"z. c #E5EEFC",
"x. c #EFEEFE",
"c. c #EAF4F6",
"v. c #E6F0FC",
"b. c #E8F7FE",
"n. c #EFFCFF",
"m. c #F5F5F5",
"M. c #F7FDF5",
"N. c #FCFEF4",
"B. c #F5F5FC",
"V. c #F9F6FC",
"C. c #F5FEFE",
"Z. c #FFFFFF",
/* pixels */
"Z.Z.Z.Z.Z.Z.Z.Z.Z.Z.Z.Z.Z.Z.Z.Z.Z.Z.Z.Z.Z.Z.N.j.j.Z.V.V.Z.N.N.N.C.i.# G X.O.-.-.-.-.#.",
"Z.Z.Z.Z.Z.Z.Z.Z.Z.Z.Z.Z.Z.Z.Z.Z.Z.Z.Z.Z.Z.Z.Z.j.j.Z.Z.Z.Z.V.N.m.n.4 q _ =.*.-.:.-.-.:.",
"Z.Z.Z.Z.Z.Z.Z.Z.Z.Z.Z.Z.Z.Z.Z.Z.Z.Z.Z.Z.Z.Z.Z.j.j.Z.Z.Z.Z.N.Z.M.t.$ V  ...*.,.:.#.:.:.",
"Z.Z.Z.Z.Z.Z.Z.Z.Z.Z.Z.Z.Z.Z.Z.Z.Z.Z.Z.Z.Z.Z.Z.N.j.N.Z.N.Z.N.Z.v.< y 3.X.@.@.@.:.:.:.-.",
"Z.Z.Z.Z.Z.Z.Z.Z.Z.Z.Z.Z.Z.Z.Z.Z.Z.Z.Z.Z.Z.Z.Z.M.M.N.Z.N.N.Z.C./ # D 2.&.,.+.| $.:.:.-.",
"Z.Z.Z.Z.Z.Z.Z.Z.Z.Z.Z.Z.Z.Z.Z.Z.Z.Z.Z.Z.Z.Z.Z.M.Z.Z.Z.Z.Z.N.Z.= y 5.7.! O.@.,.$.:.-.:.",
"Z.Z.Z.Z.Z.Z.Z.Z.Z.Z.Z.Z.Z.Z.Z.Z.Z.Z.Z.Z.Z.Z.Z.Z.M.Z.Z.M.Z.C.C.$ m ^ 9.;.Q ,.| #.-.:.:.",
"Z.Z.Z.Z.Z.Z.Z.Z.Z.Z.Z.Z.Z.Z.Z.Z.Z.Z.Z.Z.Z.Z.Z.Z.C.Z.C.Z.Z.Z.C.X C 1.~ ;.#.@.<.:.#.:.:.",
"Z.Z.Z.Z.Z.Z.Z.Z.Z.Z.Z.Z.Z.Z.Z.Z.Z.Z.Z.Z.Z.Z.Z.Z.Z.Z.Z.Z.Z.Z.C.O M 1.7.! ;.$.S :.:.:.$.",
"Z.Z.Z.Z.Z.Z.Z.Z.Z.Z.Z.Z.Z.Z.Z.Z.Z.Z.Z.Z.Z.Z.Z.Z.Z.C.V.Z.Z.C.C.% u F 0.8.T ,.@.:.:.:.:.",
"Z.Z.Z.Z.Z.Z.Z.Z.Z.Z.Z.Z.Z.Z.Z.Z.Z.Z.Z.Z.Z.Z.Z.Z.C.V.Z.Z.Z.M.C.7 9 [ J R >.*.*.*.*.#.:.",
"Z.Z.Z.Z.Z.Z.Z.Z.Z.Z.Z.Z.Z.Z.Z.Z.Z.Z.Z.Z.Z.Z.Z.Z.Z.Z.Z.Z.Z.Z.C.r.. M { _ w...Y :.:.:.:.",
"Z.Z.Z.Z.Z.Z.Z.Z.Z.Z.Z.Z.Z.Z.Z.Z.Z.Z.Z.Z.Z.Z.Z.N.Z.V.Z.Z.Z.N.M.C.; > ` 3. ...q.:.*.#.:.",
"Z.Z.Z.Z.Z.Z.Z.Z.Z.Z.Z.Z.Z.Z.Z.Z.Z.Z.Z.Z.Z.Z.Z.N.N.C.Z.Z.Z.N.N.C.b.% # g A ] J  .&.*.:.",
"Z.Z.Z.Z.Z.Z.Z.Z.Z.Z.Z.Z.Z.Z.Z.Z.Z.Z.Z.Z.Z.Z.Z.Z.Z.Z.Z.Z.Z.N.Z.Z.V.z.d . + & a P U 9.W ",
"Z.Z.Z.Z.Z.Z.Z.Z.Z.Z.Z.Z.Z.Z.Z.Z.Z.Z.Z.Z.Z.Z.Z.Z.N.N.N.Z.Z.Z.Z.Z.M.Z.B.l.d.i   < n ^ w.",
"Z.Z.Z.Z.Z.Z.Z.Z.Z.Z.Z.Z.Z.Z.Z.Z.Z.Z.Z.Z.Z.Z.Z.Z.N.Z.Z.N.Z.Z.N.h.m.Z.C.V.Z.V.x.- , H T ",
"Z.Z.Z.Z.Z.Z.Z.Z.Z.Z.Z.Z.Z.Z.Z.Z.Z.Z.Z.Z.Z.Z.Z.N.N.Z.N.Z.Z.Z.Z.Z.Z.B.V.Z.Z.Z.V.C.* 0 X.",
"Z.Z.Z.Z.Z.Z.Z.Z.Z.Z.Z.Z.Z.Z.Z.Z.Z.Z.Z.Z.Z.Z.Z.Z.Z.Z.Z.Z.Z.Z.Z.m.Z.V.Z.V.l.Z.Z.m.z.: z ",
"Z.Z.Z.Z.Z.Z.Z.Z.Z.Z.Z.Z.Z.Z.Z.Z.Z.Z.Z.Z.Z.Z.Z.N.N.Z.N.Z.Z.Z.Z.Z.Z.V.Z.Z.Z.Z.V.N.C.# l ",
"Z.Z.Z.Z.Z.Z.Z.Z.Z.Z.Z.Z.Z.Z.Z.Z.Z.Z.Z.Z.Z.Z.Z.Z.Z.Z.Z.N.Z.Z.Z.N.Z.Z.Z.C.V.Z.Z.N.c.w k ",
"Z.Z.Z.Z.Z.Z.Z.Z.Z.Z.Z.Z.Z.Z.Z.Z.Z.Z.Z.Z.Z.Z.Z.Z.N.N.Z.Z.Z.Z.Z.Z.V.Z.V.Z.Z.V.Z.N.y.O ' ",
"Z.Z.Z.Z.Z.Z.Z.Z.Z.Z.Z.Z.Z.Z.Z.Z.Z.Z.Z.Z.Z.Z.Z.Z.Z.Z.Z.Z.Z.Z.Z.Z.Z.Z.Z.Z.Z.Z.Z.N.p 1 _ ",
"Z.Z.Z.Z.Z.Z.Z.Z.Z.Z.Z.Z.Z.Z.Z.Z.Z.Z.Z.Z.Z.Z.Z.Z.Z.Z.Z.Z.Z.Z.Z.Z.Z.Z.Z.Z.Z.Z.Z.Z.7 r 2.",
"Z.Z.Z.Z.Z.Z.Z.Z.Z.Z.Z.Z.Z.Z.Z.Z.Z.Z.Z.Z.Z.Z.Z.Z.Z.Z.Z.Z.Z.Z.Z.Z.Z.Z.Z.Z.Z.Z.Z.Z.X v 4.",
"Z.Z.Z.Z.Z.Z.Z.Z.Z.Z.Z.Z.Z.Z.Z.Z.Z.Z.Z.Z.Z.Z.Z.Z.Z.Z.Z.Z.Z.Z.Z.Z.Z.Z.Z.Z.Z.Z.Z.x.X I X.",
"Z.Z.Z.Z.Z.Z.Z.Z.Z.Z.Z.Z.Z.Z.Z.Z.Z.Z.Z.Z.Z.Z.Z.Z.Z.Z.Z.Z.Z.Z.Z.Z.Z.Z.Z.Z.Z.Z.Z.s.O ] ..",
"Z.Z.Z.Z.Z.Z.Z.Z.Z.Z.Z.Z.Z.Z.Z.Z.Z.Z.Z.Z.Z.Z.Z.Z.Z.Z.Z.Z.Z.Z.Z.Z.Z.Z.Z.Z.Z.Z.Z.u.O ` ..",
"Z.Z.Z.Z.Z.Z.Z.Z.Z.Z.Z.Z.Z.Z.Z.Z.Z.Z.Z.Z.Z.Z.Z.Z.Z.Z.Z.Z.Z.Z.Z.Z.Z.Z.Z.Z.Z.Z.C.a.+ V o.",
"Z.Z.Z.Z.Z.Z.Z.Z.Z.Z.Z.Z.Z.Z.Z.Z.Z.Z.Z.Z.Z.Z.Z.Z.Z.Z.Z.Z.Z.Z.Z.Z.Z.Z.Z.Z.Z.Z.Z.B.X b ) ",
"Z.Z.Z.Z.Z.Z.Z.Z.Z.Z.Z.Z.Z.Z.Z.Z.Z.Z.Z.Z.Z.Z.Z.Z.Z.Z.Z.Z.Z.Z.Z.Z.Z.Z.Z.Z.Z.Z.Z.V.@ : B ",
"Z.Z.Z.Z.Z.Z.Z.Z.Z.Z.Z.Z.Z.Z.Z.Z.Z.Z.Z.Z.Z.Z.Z.Z.Z.Z.Z.Z.Z.Z.Z.Z.Z.Z.Z.Z.Z.Z.Z.Z.Z.O w ",
"Z.Z.Z.Z.Z.Z.Z.Z.Z.Z.Z.Z.Z.Z.Z.Z.Z.Z.Z.Z.Z.Z.Z.Z.Z.Z.Z.Z.Z.Z.Z.Z.Z.Z.Z.Z.Z.Z.Z.Z.B.f.: ",
"Z.Z.Z.Z.Z.Z.Z.Z.Z.Z.Z.Z.Z.Z.Z.Z.Z.Z.Z.Z.Z.Z.Z.Z.Z.Z.Z.Z.Z.Z.Z.Z.Z.Z.Z.Z.Z.Z.Z.m.Z.f.# ",
"Z.Z.Z.Z.Z.Z.Z.Z.Z.Z.Z.Z.Z.Z.Z.Z.Z.Z.Z.Z.Z.Z.Z.Z.Z.Z.Z.Z.Z.Z.Z.Z.Z.Z.Z.Z.Z.Z.Z.Z.Z.e.O ",
"Z.Z.Z.Z.Z.Z.Z.Z.Z.Z.Z.Z.Z.Z.Z.Z.Z.Z.Z.Z.Z.Z.Z.Z.Z.Z.Z.Z.Z.Z.Z.Z.Z.Z.Z.Z.Z.Z.Z.m.m.c 3 ",
"Z.Z.Z.Z.Z.Z.Z.Z.Z.Z.Z.Z.Z.Z.Z.Z.Z.Z.Z.Z.Z.Z.Z.Z.Z.Z.Z.Z.Z.Z.Z.Z.Z.Z.Z.Z.Z.Z.Z.M.Z.4 3 ",
"Z.Z.Z.Z.Z.Z.Z.Z.Z.Z.Z.Z.Z.Z.Z.Z.Z.Z.Z.Z.Z.Z.Z.Z.Z.Z.Z.Z.Z.Z.Z.Z.Z.Z.Z.Z.Z.Z.Z.Z.n.8 t ",
"Z.Z.Z.Z.Z.Z.Z.Z.Z.Z.Z.Z.Z.Z.Z.Z.Z.Z.Z.Z.Z.Z.Z.Z.Z.Z.Z.Z.Z.Z.Z.Z.Z.Z.Z.Z.V.Z.Z.k.C.+ h ",
"Z.Z.Z.Z.Z.Z.Z.Z.Z.Z.Z.Z.Z.Z.Z.Z.Z.Z.Z.Z.Z.Z.Z.Z.Z.Z.Z.Z.Z.Z.Z.Z.h.V.Z.V.Z.N.Z.C.c O C ",
"Z.Z.Z.Z.Z.Z.Z.Z.Z.Z.Z.Z.Z.Z.Z.Z.Z.Z.Z.Z.Z.Z.Z.Z.Z.Z.Z.Z.Z.Z.Z.Z.m.V.Z.Z.Z.l.C.g.$ e } ",
"Z.Z.Z.Z.Z.Z.Z.Z.Z.Z.Z.Z.Z.Z.Z.Z.Z.Z.Z.Z.Z.Z.Z.Z.Z.Z.Z.Z.Z.Z.Z.V.Z.Z.M.Z.m.m.Z.x 1 ` ' ",
"Z.Z.Z.Z.Z.Z.Z.Z.Z.Z.Z.Z.Z.Z.Z.Z.Z.Z.Z.Z.Z.Z.Z.Z.Z.Z.Z.Z.Z.Z.Z.Z.Z.Z.V.Z.h.Z.p.# j } K "
};
