/* XPM */
static char *tile1081719244613[] = {
/* columns rows colors chars-per-pixel */
"43 43 101 2 ",
"   c #03091F",
".  c #00022B",
"X  c #000C33",
"o  c #000C3A",
"O  c #222D3F",
"+  c #000840",
"@  c #001647",
"#  c #19274E",
"$  c #09285F",
"%  c #00186A",
"&  c #153170",
"*  c #1D347A",
"=  c #354964",
"-  c #385893",
";  c #3B58A6",
":  c #4E6BAF",
">  c #4565B2",
",  c #4265BF",
"<  c #516EBA",
"1  c #4C70BE",
"2  c #3F73E1",
"3  c #5C7BCD",
"4  c #5E7CD0",
"5  c #527DDD",
"6  c #687ED3",
"7  c #6079DE",
"8  c #4E77E0",
"9  c #467DE2",
"0  c #407EEF",
"q  c #4E7EEF",
"w  c #537EE7",
"e  c #567FE9",
"r  c #4D74F7",
"t  c #4C7FF2",
"y  c #4B7CFC",
"u  c #547BF2",
"i  c #6C82BE",
"p  c #5B80C7",
"a  c #4F80DF",
"s  c #5B86DD",
"d  c #6F83C2",
"f  c #6486CE",
"g  c #6386D3",
"h  c #6688D2",
"j  c #6D8FD7",
"k  c #6187DB",
"l  c #678CDD",
"z  c #6C8DDA",
"x  c #4B84E5",
"c  c #4482E9",
"v  c #4B8EED",
"b  c #5682E2",
"n  c #518AE5",
"m  c #5F8AE6",
"M  c #5484ED",
"N  c #5C83EB",
"B  c #548BED",
"V  c #5B88EA",
"C  c #4991E6",
"Z  c #4990EA",
"A  c #5390EF",
"S  c #4484F2",
"D  c #4B83F5",
"F  c #4488F3",
"G  c #4D8CF4",
"H  c #4683F9",
"J  c #4E85FD",
"K  c #4D89FC",
"L  c #5486F5",
"P  c #538AF5",
"I  c #5B8AF4",
"U  c #5386FE",
"Y  c #5984FE",
"T  c #5188FF",
"R  c #5B8DFE",
"E  c #4E90FF",
"W  c #5391F4",
"Q  c #5391F9",
"!  c #5A93FF",
"~  c #6487E1",
"^  c #628BE3",
"/  c #6187EA",
"(  c #6691EF",
")  c #7393E8",
"_  c #6385F0",
"`  c #6887F3",
"'  c #648DF3",
"]  c #628CFF",
"[  c #6A8BFC",
"{  c #6A96F5",
"}  c #6495FD",
"|  c #6F91FC",
" . c #B9BCC1",
".. c #B5C5DC",
"X. c #CEE3F8",
"o. c #F0EFEA",
"O. c #F2F1EC",
"+. c #EAF6FF",
"@. c #FEFBF2",
"#. c #F1FFFF",
"$. c #F9FFFE",
/* pixels */
"T T T T T D T ! D D ! ' ) * o .    .O.@.O.$.+.. : ~ M Y U T T T T T T T T T T T T T T ",
"T T T T T D J ! T J L q [ e 6 6 # O $.$.$.#.= @ z / ] Y U T T T T T T T T T T J T T T ",
"T T T U ! T D U G T T U r | ` 6 i . ..#.#.X.X - k w R J T T T T T T T T T T T U T T T ",
"T T T T T T T T J T R R u y u | 3 & o X . o $ 3 ^ R y y T T T T T T T T T T T T T T T ",
"T T P T D P T R T T D K T J L M ( , % ; < > l ^ 5 I G K T T T T T T T T T T T T T T T ",
"T T J U ! T D J ! T J T K K P P I _ / _ e ` 8 { M v W P T T T T T T T T T T T T T T J ",
"T P T T P T J T T T T P Z Z G P L Y Y Y Y ] y Y P v v L U T T T T T T T T T T T T T T ",
"T K T K U T T T T T T T Z C Z v K T U U Y y Y Y T G v v K T T T T J T T T T T T T T T ",
"U T T P U J T T T T T K Z Z v G G T T T U U y U U J J K T T T T T T T T T T T T T T T ",
"T T K U T T T T T T T K G Z G G G P T T U U U U J J J T T T T T T T T T T T T T T T T ",
"T J U T T T T T T T T T K K G T P K P T U U U J T U J U T T T T T T T T T T T T T T T ",
"T P T T T T T T T T T T T T T T T T P T D J U U U U y U T T T T T T T T T T U J T T T ",
"P J T T T T T T U T T U U U U T U L T U U U U U U U u U T T T T T T T T T T T T T T U ",
"T K T T T T T T J T U U U U Y U U T U T U U U U U U T U T T T T T T T T T T T T T T J ",
"J K E D P T P G K J U U T T U T T T T T T T T T U U U T U T T T T T T J T T T T T T T ",
"K K F G L P P K G P U U U T T T T T T T T T T T T T T T T T T T T T T T T T T T T T T ",
"2 K c ! L L T K G T T Y U T T T T T T T T T T T T T U J T T T T T T T T T T J T T T T ",
"! G W 9 L P T K G T U U T T T T T T T T T T U T T T T T T T T T T J T T T T T T T T T ",
"Z W B B L Y T T K P T Y U T T T T T T T T T T T T T T T T T T T T U T T T T T T T T T ",
"A A A M L R T K K K T Y U T T T T T T T T T T T T T T T T T T T T T T T T T T T T T T ",
"a A x L Y Y U K K K T T T T T T T T T T T T T T T T T T T T T T T T T T T T T T T T T ",
"n W I B Y Y U J G G T P Y T T T T T T T T T T T T T T T T T T T T T T T T T T T T T T ",
"I c P R Y U T K G G I T T T T T T T T T T T T T T T T T T T T T T T T T T T T T T T T ",
"P T U U U u U K G T P L U T T T T T T T T T T T T T T T T T J T T T T T T T T T T T T ",
"U T U U Y U U J G G P L T T T T T T T T T T T T T T T T U T T T T T T T T T T T T T T ",
"T K T U U y T J G P T U U T T T T T T T T T T T T T T T J T T T T T T T T T T T T T T ",
"! F K T U U J J G T U Y T T T T T T T T T T J T T T T T T T T T J T T T T T T J T T T ",
"! S G D U T J K K U U U U T T T T T T T T T U T T T T T T T T T U T T T T T T T T T T ",
"Q F G G U U J J K T U U U T T T T T T T T T T T T T T T T T T T T T T T T T T T T T J ",
"x G W Q U T J J J T U U T T T T J T T T T T T T T T T T T T T T T T T T T T T T T T T ",
"s B E F K K K J J L U U U T T T T T T T T T T T T T T T J T T T T T T T T T T T T T T ",
"p B K K K K K T U Y U U U T T T T T T T T T T T T T T T T T T T T T T T T T T T T T T ",
"3 V J H K K K J J J L U T T T T T T T T T T T T T T T T T T T T T T T T T T T T T T U ",
"p 5 } H K K K K U T U U U T T T T T J T T T T T T T T T T T T T T T T T T T T T T T T ",
"j { 2 T K J J J U U L U T T T T T T T T T T T T T T T U T T T T T T T T T T T T T T T ",
"j 5 L J K J J T U U U J T T T T T T T T T T T T T T T J T T T J T T J U T T J T T T T ",
"f ( q R T J U U U L U U T T T T T T T U T T T T T T T T T T T T T T T T T T T T T T T ",
"h b L U T T U U U U U T T T T T T T T T T T T T T T T T T T T T T T T T T T T T T T T ",
"g V q U U U U U U U U T T T T T T T T T T T T T T T T T T T T T T T T T T T T T T T T ",
"k V R T U T U U U U U T T T T T T T T T T T T T T T T T T T T T T T T T T T T T T T J ",
"s M R U T U U U U U U T T T T T T T T T T T T T T T T T T T T T U T T T T T T T T T T ",
"w L P U Y T L L L T T U T T T T T T T T T T T T T T T T T T T T J T T T T T T T T T T ",
"M L T T P P L I P U U U T T T T T T T T T T T T T T T T T T T T T T T T T T T T T T T "
};
