/* XPM */
static char *tile0111719244618[] = {
/* columns rows colors chars-per-pixel */
"43 43 209 2 ",
"   c #020202",
".  c #0B0402",
"X  c #00010E",
"o  c #090C03",
"O  c #000313",
"+  c #010B13",
"@  c #080814",
"#  c #00041D",
"$  c #000B1E",
"%  c #0D0A18",
"&  c #08061C",
"*  c #1C1914",
"=  c #010224",
"-  c #000C25",
";  c #000329",
":  c #010F29",
">  c #02122A",
",  c #00192E",
"<  c #171828",
"1  c #000233",
"2  c #010B32",
"3  c #00033B",
"4  c #000C3B",
"5  c #001237",
"6  c #011B3F",
"7  c #00123A",
"8  c #1C2234",
"9  c #1E2B3C",
"0  c #393229",
"q  c #232937",
"w  c #3E4136",
"e  c #000040",
"r  c #000D41",
"t  c #021243",
"y  c #051647",
"u  c #111E48",
"i  c #000855",
"p  c #001356",
"a  c #0E204E",
"s  c #1E2C4B",
"d  c #112143",
"f  c #0A2359",
"g  c #12255C",
"h  c #273656",
"j  c #313654",
"k  c #001861",
"l  c #192768",
"z  c #122F6B",
"x  c #153065",
"c  c #183475",
"v  c #344356",
"b  c #284372",
"n  c #364F72",
"m  c #474A4F",
"M  c #444F6D",
"N  c #534D67",
"B  c #495A7B",
"V  c #585A6E",
"C  c #69677F",
"Z  c #606F74",
"A  c #6F797A",
"S  c #73707B",
"D  c #243F8C",
"F  c #1F4D98",
"G  c #2D4888",
"H  c #344B99",
"J  c #3A5892",
"K  c #355586",
"L  c #3048A0",
"P  c #3954A1",
"I  c #2D59B0",
"U  c #3F5DB3",
"Y  c #40508B",
"T  c #555F83",
"R  c #455E9E",
"E  c #596886",
"W  c #47689D",
"Q  c #57679A",
"!  c #676D8D",
"~  c #607588",
"^  c #6F7A9A",
"/  c #4B5FB5",
"(  c #5375AA",
")  c #5C72AB",
"_  c #4562B3",
"`  c #4B66B9",
"'  c #536EBF",
"]  c #4F72B6",
"[  c #5675B5",
"{  c #5574C5",
"}  c #4D7BDD",
"|  c #447BD8",
" . c #567FD7",
".. c #5B7BDD",
"X. c #5679D8",
"o. c #6279C7",
"O. c #667BD7",
"+. c #4E7EE4",
"@. c #4B7BEB",
"#. c #537CE3",
"$. c #5C7DE1",
"%. c #5A79ED",
"&. c #4D7FF2",
"*. c #497CFA",
"=. c #5F7DF7",
"-. c #577DFB",
";. c #5176FF",
":. c #687FE7",
">. c #667EE8",
",. c #867F9E",
"<. c #6D8396",
"1. c #778B89",
"2. c #6A84BD",
"3. c #5E86DD",
"4. c #5B84D9",
"5. c #7780C1",
"6. c #7395C5",
"7. c #6385D5",
"8. c #6188D7",
"9. c #6B8ED2",
"0. c #6D8BDD",
"q. c #668BDC",
"w. c #7292D1",
"e. c #4A83E7",
"r. c #4B82EE",
"t. c #4988EA",
"y. c #538CE6",
"u. c #5285EC",
"i. c #5B85EE",
"p. c #538AEC",
"a. c #5685E5",
"s. c #4E91E6",
"d. c #4F92ED",
"f. c #4D83F4",
"g. c #4C8CF5",
"h. c #4E85FC",
"j. c #4D8AFD",
"k. c #4681F7",
"l. c #5285F5",
"z. c #5C84F5",
"x. c #5289F4",
"c. c #5C8BF4",
"v. c #5386FE",
"b. c #5983FF",
"n. c #5188FE",
"m. c #5A8DFD",
"M. c #5392F3",
"N. c #5D92F4",
"B. c #5691FE",
"V. c #5C92FE",
"C. c #5F9CFF",
"Z. c #6782E6",
"A. c #6789E6",
"S. c #6987EA",
"D. c #738BEF",
"F. c #6E96EB",
"G. c #6485F4",
"H. c #6487FF",
"J. c #628BFF",
"K. c #628FF6",
"L. c #6791F7",
"P. c #6197FE",
"I. c #6892FF",
"U. c #6198FD",
"Y. c #7497F5",
"T. c #938D97",
"R. c #8A949E",
"E. c #94969C",
"W. c #8693A4",
"Q. c #919EAE",
"!. c #8F9AB6",
"~. c #92AAAC",
"^. c #ACADB3",
"/. c #A7AFBB",
"(. c #808FCA",
"). c #B9BCC6",
"_. c #B7BCD9",
"`. c #BECAC8",
"'. c #B7CAD1",
"]. c #B7D0E4",
"[. c #CDD3C9",
"{. c #D6CDE0",
"}. c #C9D8ED",
"|. c #D8DEE8",
" X c #E7DCEA",
".X c #EAECE3",
"XX c #E8EEEC",
"oX c #F3EDEB",
"OX c #ECF6E8",
"+X c #F6F2EE",
"@X c #FEFFED",
"#X c #F4F8E9",
"$X c #EDECFD",
"%X c #E1E7F5",
"&X c #F7E6F6",
"*X c #F8EFF0",
"=X c #F6EBF9",
"-X c #EBF5F5",
";X c #E7F0F9",
":X c #EDFAFF",
">X c #E3F0F6",
",X c #F3F2F4",
"<X c #FCF4F3",
"1X c #FEFEF4",
"2X c #F5F4FD",
"3X c #FCF4FE",
"4X c #F4FBFE",
"5X c #FDFDFD",
"6X c #F5FAF4",
/* pixels */
"n.n.n.j.g.n.g.v.n.v.j.n.v.j.x.n.v.j.n.n.n.v.j.n.n.v.n.n.n.n.n.n.n.n.n.n.n.n.n.n.n.n.n.",
"n.g.x.g.j.j.j.n.x.n.n.n.n.n.n.n.j.v.n.n.n.j.n.n.n.n.n.n.n.n.n.n.n.n.n.n.n.n.n.n.n.n.n.",
"n.n.n.n.x.j.j.n.n.n.n.n.x.n.n.n.n.v.v.n.v.v.n.n.n.n.n.n.n.n.n.n.n.n.n.n.n.n.n.n.n.n.n.",
"x.n.j.n.n.j.n.n.n.n.n.h.n.v.j.v.n.n.j.x.n.n.n.n.n.n.j.n.n.n.n.n.n.n.n.n.n.h.n.n.n.n.n.",
"n.n.n.h.n.n.h.n.n.n.n.x.x.n.v.j.n.n.n.n.v.j.n.n.n.n.n.n.n.h.n.n.n.n.n.h.n.n.n.n.n.n.n.",
"n.n.n.h.j.n.n.n.v.j.n.n.n.n.n.n.x.n.x.n.n.v.j.n.h.n.n.n.n.n.n.n.n.n.n.n.n.n.h.n.n.h.n.",
"n.n.n.v.n.n.n.n.n.v.n.j.v.j.n.n.h.n.n.n.n.v.n.n.n.n.n.n.n.n.n.n.n.n.n.n.n.n.n.n.n.n.n.",
"n.n.n.n.n.n.n.n.x.n.n.v.n.n.n.n.n.n.n.n.j.n.x.n.n.n.n.n.n.n.n.n.n.n.n.n.n.n.n.n.n.n.n.",
"h.*.n.m.h.&.n.n.n.n.n.m.B.n.f.n.l.n.n.j.n.h.n.n.n.n.n.n.n.n.n.n.n.n.n.n.n.n.n.n.n.n.n.",
"h.v.n.m.m.m.m.h.n.h.f.j.m.x.n.n.n.n.n.v.n.v.n.n.n.n.n.n.n.h.n.n.n.n.n.n.n.n.n.n.n.n.n.",
"n.n.v.&.l.x.f.m.n.n.n.j.h.n.x.n.n.j.n.n.n.n.n.n.n.n.n.n.n.n.n.n.n.n.n.n.n.n.v.n.n.n.n.",
"h.m.n.f.x.B.x.n.n.n.n.m.h.h.n.n.n.n.n.x.n.n.n.n.n.n.n.n.n.n.n.n.h.n.n.n.n.n.h.n.n.n.n.",
"v.n.x.x.p.p.+.j.h.f.h.j.n.v.v.n.n.n.v.j.v.x.j.n.n.n.n.n.n.n.n.n.n.n.n.n.n.n.n.n.n.n.n.",
"m.r.r.c.p.c.C.m.m.n.h.f.n.n.n.n.n.x.n.v.n.n.n.n.n.n.n.n.n.n.n.n.n.n.n.n.n.n.n.n.n.h.n.",
"m.r.r.U.p.| N.@.n.V.n.h.n.m.j.n.n.n.n.n.n.n.n.h.n.n.n.n.n.n.n.n.n.n.n.n.n.n.n.n.n.n.n.",
"V.c.a.a.F p k I } m.m.h.n.B.g.v.n.v.v.x.j.v.j.v.n.n.n.n.n.n.n.h.n.n.n.n.n.h.n.n.n.n.n.",
"c. .9.K ; <.E 2 J ..I.m.j.g.V.x.b.b.b.x.g.g.g.n.n.n.n.n.n.n.n.n.n.n.n.n.n.n.n.n.n.n.n.",
"#.8.J = ).5X4XR.= ' #.v.h.U.r.v.b.b.z.x.j.g.g.j.n.n.n.n.n.n.n.n.n.n.n.n.n.n.n.n.n.n.n.",
"c.4.x h $X2X3X5XB 3 A.c.h.N.e.v.b.b.b.b.h.j.j.j.n.n.n.n.n.n.n.j.n.n.n.n.n.h.n.n.n.n.n.",
"a.] 4 V 2X3X3X,X|.t _ #.x.r.B.v.b.-.-.v.h.j.j.n.n.n.n.n.n.n.n.n.n.n.n.h.n.n.n.n.n.n.n.",
"7.4 s %X3X3X=X3X2X2 G a.l.m.n.n.n.-.-.v.h.h.j.n.n.n.n.n.n.n.n.n.n.n.n.n.n.n.n.n.n.n.n.",
") # 8 5X3X3X3X3X=Xj g O.i.m.k.v.v.v.b.b.n.h.g.v.n.n.n.n.n.n.n.n.n.n.n.n.n.h.n.n.h.n.n.",
"# m o w 5X5X3X&X3X$X2 D S.&.V.x.x.v.v.v.v.p.y.n.n.n.n.h.n.n.n.n.n.n.n.n.n.n.n.n.n.n.n.",
"V o 0   OX5X5X3X3X$XE p A.@.V.x.p.x.x.v.l.y.y.c.n.n.n.n.n.n.n.n.n.n.n.n.n.n.n.n.n.n.n.",
"<X0 .   [.4X5X5X<X5XW.2 q.i.c.p.p.x.l.v.b.p.a.v.n.n.n.n.n.n.n.n.n.n.n.n.n.h.n.n.n.n.n.",
",. X. * .X,X5X5X1X5XZ y w.X.u.c.g.x.n.n.v.x.x.n.n.n.n.n.n.n.n.n.n.n.n.n.n.n.n.n.n.n.n.",
"1 & {.5X5X5X5X5X1XOX1.> [ F.U.x.l.n.v.v.v.v.v.v.n.n.n.h.n.n.n.n.n.n.n.n.n.n.n.n.n.n.n.",
"o.= N 3XT.% < 4X6X4X~.- 6.8.} l.v.h.h.v.h.b.v.b.n.n.n.n.n.n.n.n.n.n.n.n.n.n.n.n.n.n.n.",
"l = C 3X% & # }.~ O > 2 W 7.L.b.v.v.h.h.n.-.h.n.n.n.n.n.n.n.n.n.n.n.n.n.n.n.n.n.n.n.n.",
"1 _.5X`.O ! d 1 4 b f 4 G  .i.b.v.n.x.f.h.v.v.h.h.n.n.n.n.h.n.n.n.n.n.n.h.n.n.n.n.n.n.",
"M 5X+X>X- n 2.P / 0.` i i S.G.b.b.v.p.s.y.n.n.n.n.n.n.n.n.n.n.n.n.n.n.n.n.n.n.n.n.n.n.",
"9 XX4X[.+ n 5.0.O.:.D.{ ' A...G.b.v.x.y.y.x.l.n.n.n.v.n.n.n.v.n.v.v.v.n.j.n.n.n.n.n.n.",
"9 :X5XA o X d { A.D.:.O.H c [ 7.$.-.J.v.v.x.t.x.n.n.x.x.n.n.v.b.v.b.v.n.j.j.j.n.n.n.n.",
"Q.;X:X5X|.^.$ g o.O.O.H 3 4 y 2.7.H.;.b.h.s.s.x.x.x.x.g.x.x.v.b.b.b.b.m.j.g.j.n.n.n.n.",
"4X5X4X5X2X5XX = u Y (.Q y ]., n 9.>.-.m.n.d.s.x.v.n.n.g.x.n.m.v.b.b.v.n.j.j.j.j.n.j.n.",
"5X-X5X=X5X5X@ + > 2 E ^ $ '.1.5 9.X.J.b.h.M.t.g.n.n.g.n.h.n.n.b.b.b.b.n.j.j.j.n.n.n.n.",
"3X5X5X3X5X3X^.E.2XO < 8 + >X:X= R S.=.;.k.g.t.n.n.n.j.j.j.n.h.v.n.b.v.v.n.n.j.n.n.n.n.",
"<X*XoX3X5X5X5X5X5XS q < E.4X4Xh k Y.=.H.m.r.V.n.n.n.j.j.j.j.j.m.v.n.v.n.n.j.j.h.n.n.n.",
"1X<X5X5X3X3X,X<XoX3X2X5X5X6X5X!.r / >.%.G.+.L.v.v.n.n.j.j.j.j.n.v.v.b.m.n.h.h.n.n.n.n.",
"5X5XoX+X5X3X5X<X1X,X2X3X5X6X5X4Xs t o.L U { 4.i.v.v.n.j.j.j.j.n.v.l.v.v.n.n.n.n.n.n.n.",
"1X5X1X5X5X5X5X1X1X1X1X1X1X@X1X6X;X- ; t r 2 ( 3.c.u.V.&.h.B.k.j.x.v.x.v.n.n.h.n.n.n.n.",
"5X1X5X5X5X5X6X1X1X5X5X5X1X@X@X#X6X  8 :X:Xv 5 7.#.e.r.B.j.j.x.n.v.l.m.v.b.n.h.n.n.n.n.",
"5X5X5X6X5X1X5X5X4X5X5X5X5X1X1X1X.X5X5X4X).^.: z q.Y.+.h.n.B.h.j.v.x.v.v.n.h.h.n.n.n.n."
};
