/* XPM */
static char *tile1151719244613[] = {
/* columns rows colors chars-per-pixel */
"43 43 123 2 ",
"   c #00041C",
".  c #000224",
"X  c #000D27",
"o  c #000A2A",
"O  c #000630",
"+  c #000F33",
"@  c #00093B",
"#  c #001139",
"$  c #081C3D",
"%  c #142738",
"&  c #1D3037",
"*  c #000140",
"=  c #000F40",
"-  c #001343",
";  c #02194B",
":  c #1E2D4A",
">  c #0A2352",
",  c #17345C",
"<  c #283A4E",
"1  c #153067",
"2  c #1C3460",
"3  c #1B3572",
"4  c #223D72",
"5  c #3B4C56",
"6  c #394F5D",
"7  c #294575",
"8  c #556177",
"9  c #2B4487",
"0  c #3E609D",
"q  c #44619B",
"w  c #596D92",
"e  c #56719C",
"r  c #4564A5",
"t  c #4A65A3",
"y  c #5976BC",
"u  c #5D79B8",
"i  c #5675C5",
"p  c #5D7EC5",
"a  c #5376CB",
"s  c #4F6FD6",
"d  c #5A7CD5",
"f  c #537BDB",
"g  c #5C7CDE",
"h  c #4C7DE6",
"j  c #4E77ED",
"k  c #427BEF",
"l  c #4C7CEB",
"z  c #567CE7",
"x  c #5A7BE2",
"c  c #447BF5",
"v  c #4E7DF3",
"b  c #4B77FA",
"n  c #4378FC",
"m  c #4F7CFD",
"M  c #527CF3",
"N  c #5A7EF2",
"B  c #527DFB",
"V  c #597FFA",
"C  c #5E81C3",
"Z  c #5D81D7",
"A  c #6586CB",
"S  c #6C89CD",
"D  c #6186D7",
"F  c #6788D7",
"G  c #6787DE",
"H  c #6B85DA",
"J  c #658ADC",
"K  c #4683EE",
"L  c #4A84ED",
"P  c #4E8DED",
"I  c #5C83E3",
"U  c #518CEC",
"Y  c #4D85F6",
"T  c #4E8BF3",
"R  c #4C85FE",
"E  c #4D89FC",
"W  c #5486F6",
"Q  c #5B85F3",
"!  c #518AF4",
"~  c #5386FE",
"^  c #5A85FD",
"/  c #5188FF",
"(  c #5A8CFF",
")  c #5591FE",
"_  c #5C94FF",
"`  c #6184E0",
"'  c #6589E7",
"]  c #638CEC",
"[  c #738DEA",
"{  c #7094E2",
"}  c #7B95E2",
"|  c #6787F4",
" . c #628DF3",
".. c #6086FF",
"X. c #658AFD",
"o. c #6A91F0",
"O. c #6594FF",
"+. c #6D93FE",
"@. c #619EFF",
"#. c #8D9FB3",
"$. c #98A6B3",
"%. c #A0ACBA",
"&. c #ACB9C9",
"*. c #A8B8D9",
"=. c #B8C9D0",
"-. c #B8C7DA",
";. c #C1CCDE",
":. c #ECE4E2",
">. c #ECECEC",
",. c #F4EEEC",
"<. c #E8F1EC",
"1. c #F7F5E9",
"2. c #E7F3F3",
"3. c #EEF2F5",
"4. c #E6F4FF",
"5. c #EAF4FC",
"6. c #EFFBFE",
"7. c #F6F3F2",
"8. c #FFFCF6",
"9. c #F4F6FB",
"0. c #F9F6FF",
"q. c #F5FDFF",
"w. c #FEFEFE",
/* pixels */
"/ / / / / / / / / / / / / / / / / / / / / / / / / / / / ~ / / / / / / / / / / / / / / ",
"/ / / / / / / / / / / / / / / / / / / / / / / / / / / / / / / R / / / / / / / / / / / ",
"/ / / / / / / / / / / / / / / / R / / / / / / / / / / / / / / / / / ~ / ~ / ~ ~ ~ / ~ ",
"/ / / / / / / / / / / / / / / / / / / / / / / / / / / / / / / / / / ~ ~ ~ ^ ~ ~ W W W ",
"/ / / / / / / / / / / / / / / / / / / / / / / / / / / / / / / / / / ~ ~ ~ ^ ~ / W W W ",
"/ / / / / / / / / / / / / / / / / / / / / / / / / / / / / / / ~ ^ / ~ ~ ~ ~ ~ W ~ W ! ",
"/ / / / / / / / / / / / / / R / / / / / / / / / / / / / / / / ~ / ~ ~ ~ ~ ~ / W / W W ",
"/ / / / / / / / / / / / / / ~ / / / / / / / / / / / / / / / / ~ ~ / ~ ~ ~ ~ / W / W R ",
"/ / / / / / / / / / / / / / / / / / / / / / / / / / / / / / / / ~ ~ ~ W ! / ! T W / / ",
"/ / / / / / / / / / / / / / / / / / / / / / / / / / / / / / / ~ ~ ( W / ! ! / T Y E / ",
"/ / / / / / / / / / / / / / / / / / / / / / R / / / / / / / / ~ ~ / / ! ! ! ! T E R / ",
"/ / / R / / / / / / / / / / / / / / / / / / ~ / / / / / / / / ~ / W ! ! U T T Y ) / c ",
"/ / / / / / / / / / / / / / / / / / / / / / / / / / / / / / / ~ W / ! U U T T ! Y ( / ",
"/ / / / / / / / / / / / / / / / / / / / / / / / / / / / / / ~ ~ / / ! ! P T E ( c ^ ( ",
"/ / / / / / / / / / / / / / / / / / / / / / / / / / / / / / / / / / T T P T / / / ~ W ",
"/ / / / / / / / / / / / / / / / / / / / / / / / / / / / / / / ~ / ! ! T T ! / R ^ ^ j ",
"/ / / / / / / / / / / / / / / / / / / / / / / / / / / / / / / / / T ! T T ! / ~ B ^ N ",
"/ / / / / / / / / / / R / / / / / / / / / / / / / / / / / / / / / / T P T / / ( b B X.",
"/ / / / / / / / / / / ~ / / / / / / / / / / / / / / / / / / / ~ / W P P T E E R ..V | ",
"/ / / / / / / / / / / / / / / / / / / / / / / / / / / / / / ~ ~ W W U P P E E / b X.g ",
"/ / R / / / / / / / / / / / / / / / / / / / / / / / / / / / ~ ~ ^ W U U T E E n +.z G ",
"/ / / / / / / / / / / / / / / / / / / / / / / / / / / / / / ~ B ~ Q U U P E R ..^ x 9 ",
"/ / / / / / / / / / / / / / / / / / / / / / / / / / / / / / ~ ~ ~ ! U P T E ~ m Q F @ ",
"/ / / / / / / / / / / / / / / / / / / / / / ~ R / / / / / / / ~ ~ U U P T E ~ B g t o ",
"/ / / / / / / / / / / / / / / / / / / / / / / / / / / / / / ~ R / ! U ! ! ~ V +.i > 6 ",
"/ / / / / / / / / / / / / / / / / / / / / / / / / / / / / / ~ / R ! ! W W ^ Q d u X =.",
"/ / / / / / / / / / / / / / / / / / / / / / / / / / ~ / / / R R E E / ~ W Q D S , % q.",
"/ / / / / / / / / / / / / / / / / / / / / / / / / / / / / / / K @.m ~ B N ' A e X $.5.",
"/ / / / / / / / / / / / / / / / R / / / / / / / / / / / / / / ! T c ~ ^ +.i 7   5 q.q.",
"/ / / / / / / / / / / / / / / / / / / / / / / / / / / / / / T P ! / ~ ..s @ o & 2.9.w.",
"R / ~ / / / / / / / / / / / / / / / / / / / / / / / / / / / / P P ( B N [ ; #.q.<.w.w.",
"/ / / / / / / / / / / / / / / / / / / / / / / / / / / / / / E P L O...x } O &.q.w.>.0.",
"/ / / / / / / / / / / / / / / / / / / / / / / / / / / / / / / ! _ l z G t . q.3.>.w.w.",
"/ / / / / / / / / / / R / / / / / / / / / / / / / / / / / / / k _ h ] p > : q.w.w.w.7.",
"/ / / / / / / / / / / ~ / / / / / / / W / / ~ / / / / W / ~ / ( L I J 1 + ;.q.w.w.7.w.",
"/ / / / / / / / / / / / / / / R / / W ! ! ~ ~ / R E ) ! Y / W v ] J q o %.w.8.w.w.w.w.",
"/ / / / / / / / / / / / / / / R R / U ! W ~ / / E E T T ! ( ^ +.a y - 8 3.w.1.8.w.w.w.",
"/ / / / / / / / / / / / / / / E / ! W ^ ^ ~ ~ R ) E Y ! ) / Q f { 3 # q.w.7.8.8.w.w.w.",
"/ / / / / / / / / / / / / / / / / / ~ ~ ~ ~ ~ R E ) T ! ^ W Q Z r @ *.q.w.8.8.w.w.w.w.",
"/ / / / / / / / / / / / / / / ! ! / ~ V ~ ~ R E E E E ) W ! ' p - w 5.w.w.8.8.w.w.w.w.",
"/ / / / / / / / / / / / / / R ! ! ~ ~ ~ ~ ~ / _ E E R W Q Q D 4 $ 4.q.w.,.w.,.w.w.w.w.",
"/ / / / / / / / / / / / / / / ! / ~ ~ ~ ~ W ! ) R / / Y  .J 0 . -.q.w.w.w.:.8.w.w.w.w.",
"/ / / / / / / / / / / / / / / / / ~ / / W ! ! ! Y / ( M o.C , < q.q.7.w.8.0.0.w.w.w.w."
};
