/* XPM */
static char *tile1231719244612[] = {
/* columns rows colors chars-per-pixel */
"43 43 199 2 ",
"   c #000014",
".  c #000B1A",
"X  c #000424",
"o  c #000A2B",
"O  c #000727",
"+  c #05172F",
"@  c #111E2A",
"#  c #000233",
"$  c #000A33",
"%  c #00033D",
"&  c #000C3A",
"*  c #0A0F36",
"=  c #001235",
"-  c #00183B",
";  c #081A32",
":  c #21293E",
">  c #000045",
",  c #000D46",
"<  c #000C4F",
"1  c #021B4B",
"2  c #041B44",
"3  c #000D51",
"4  c #000352",
"5  c #011957",
"6  c #002144",
"7  c #092348",
"8  c #1E2841",
"9  c #132C4A",
"0  c #1A2547",
"q  c #052C57",
"w  c #122051",
"e  c #1B2B5F",
"r  c #1D3050",
"t  c #13325E",
"y  c #283944",
"u  c #313552",
"i  c #000B62",
"p  c #051B64",
"a  c #0B2968",
"s  c #0C306C",
"d  c #1D3A65",
"f  c #1A346C",
"g  c #1F386E",
"h  c #162779",
"j  c #1B3371",
"k  c #20366F",
"l  c #203A6D",
"z  c #283879",
"x  c #2B455D",
"c  c #33445D",
"v  c #3A475F",
"b  c #234163",
"n  c #234479",
"m  c #384C7E",
"M  c #465153",
"N  c #454662",
"B  c #525A6F",
"V  c #4F616D",
"C  c #586575",
"Z  c gray50",
"A  c #264486",
"S  c #2C4496",
"D  c #3F5797",
"F  c #305896",
"G  c #38579A",
"H  c #3E619B",
"J  c #2B5FB5",
"K  c #445E97",
"L  c #5D6B88",
"P  c #5C7287",
"I  c #456097",
"U  c #4C6890",
"Y  c #536B9E",
"T  c #5C6B92",
"R  c #637083",
"E  c #4A5CB2",
"W  c #4C60A9",
"Q  c #5572AC",
"!  c #4B69B0",
"~  c #5671B7",
"^  c #5877B0",
"/  c #466DC8",
"(  c #4F79CF",
")  c #4776C4",
"_  c #5777C2",
"`  c #5D7DC5",
"'  c #5576CB",
"]  c #537ACA",
"[  c #5A7DC8",
"{  c #547BC6",
"}  c #4979D8",
"|  c #577AD8",
" . c #617CCD",
".. c #4D7DE3",
"X. c #4B7FED",
"o. c #557DE3",
"O. c #587EE1",
"+. c #567FE8",
"@. c #4E7EF2",
"#. c #427AFD",
"$. c #567FF9",
"%. c #6280B4",
"&. c #5A84CB",
"*. c #5E81C1",
"=. c #5D83D6",
"-. c #5B84DB",
";. c #5989DD",
":. c #5282D8",
">. c #6A8ACD",
",. c #6688C2",
"<. c #6E92C6",
"1. c #6384D4",
"2. c #658DD6",
"3. c #6A8DD0",
"4. c #6285DA",
"5. c #658BDB",
"6. c #688CDA",
"7. c #708BDA",
"8. c #6990DF",
"9. c #4A85E4",
"0. c #4C84ED",
"q. c #4E88EB",
"w. c #5383E2",
"e. c #5B82E1",
"r. c #5584EC",
"t. c #5B86ED",
"y. c #5289ED",
"u. c #5D8AEE",
"i. c #5B88E3",
"p. c #4D8BF4",
"a. c #4682FA",
"s. c #4D86FE",
"d. c #4D8AFC",
"f. c #4982F3",
"g. c #5485F4",
"h. c #5B84F4",
"j. c #5489F5",
"k. c #5C88F3",
"l. c #5486FD",
"z. c #5A83FC",
"x. c #5188FE",
"c. c #5B8BFE",
"v. c #5790FF",
"b. c #5B93FE",
"n. c #5998FF",
"m. c #6286ED",
"M. c #638EEB",
"N. c #6A8EEC",
"B. c #678DE5",
"V. c #748CE6",
"C. c #6C94E6",
"Z. c #6392EF",
"A. c #6299E9",
"S. c #6188F1",
"D. c #6492F1",
"F. c #6090FF",
"G. c #6899FF",
"H. c #87919D",
"J. c #8A95A3",
"K. c #9394AC",
"L. c #8989AB",
"P. c #8EA3BE",
"I. c #98A5B5",
"U. c #ADB5B8",
"Y. c #99A8CF",
"T. c #9CA7C3",
"R. c #83A2E2",
"E. c #A9BFF8",
"W. c #B3C4D6",
"Q. c #B3CDEE",
"!. c #D1DCE2",
"~. c #CDDEF0",
"^. c #D8DFF2",
"/. c #E1DFE4",
"(. c #D8E0F5",
"). c #E5E3E6",
"_. c #EEEEE6",
"`. c #EDECEC",
"'. c #F7EEEF",
"]. c #E9F0E9",
"[. c #F3F3ED",
"{. c #F3FCED",
"}. c #FDFCED",
"|. c #F9F5EA",
" X c #E5E4F3",
".X c #EAEEFC",
"XX c #E9EDF6",
"oX c #F9ECF3",
"OX c #E6F2FE",
"+X c #ECF5FE",
"@X c #EDF8F2",
"#X c #F4F4F3",
"$X c #FCF6F4",
"%X c #F5FEF4",
"&X c #FEFEF4",
"*X c #F5F4FC",
"=X c #FDF5FA",
"-X c #F5FEFD",
";X c #FEFEFE",
/* pixels */
";X;X;X;X;X;X;X;X;X;X;X;X;X;X;X;X;X;X;X;X;X;X;X;X;X;X;X;X;X;X;X;X%X;X*X;X;X#X: a 4.O.r.",
";X;X;X;X;X;X;X;X;X;X;X;X;X;X;X;X;X;X;X;X;X;X;X;X;X;X;X;X;X;X;X;X;X*X$X;X#XZ   ~ N.o.F.",
";X;X;X;X;X;X;X;X;X;X;X;X;X;X;X;X;X;X;X;X;X;X;X;X;X;X;X;X;X;X;X;X;X`.;X;XH.  T 1.t.g.l.",
";X;X;X;X;X;X;X;X;X;X;X;X;X;X;X;X;X;X;X;X;X;X&X&X&X;X;X;X;X;X;X[.;X#X-XR X m ,.-.y.g.l.",
";X;X;X;X;X;X;X;X;X;X;X;X;X;X;X;X;X;X;X;X;X;X;X}.&X-X;X;X=X;X;X;X#X%X@ = K 1.M.y.p.j.l.",
";X;X;X;X;X;X;X;X;X;X;X;X;X;X;X;X;X;X;X;X;X;X;X&X;X;X;X;X;X;X&X&X&XM O Y 1.u.@.s.d.l.z.",
";X;X;X;X;X;X;X;X;X;X;X;X;X;X;X;X;X;X;X;X;X;X;X;X;X&X;X-X-X&X&X{.&Xy 9 R.( z.$.s.s.l.h.",
";X;X;X;X;X;X;X;X;X;X;X;X;X;X;X;X;X;X;X;X;X;X;X;X&X;X;X;X;X&X&X&X@XV 7 ` t.G.#.s.s.z.$.",
";X;X;X;X;X;X;X;X;X;X;X;X;X;X;X;X;X;X;X;X;X;X;X;X&X;X;X;X;X=X&X;X;XC 2 3.S.c.#.s.l.z.h.",
";X;X;X;X;X;X;X;X;X;X;X;X;X;X;X;X;X;X;X;X;X;X&X}.}.&X&X;X;X;X;X=X;X^.X K &.| G.h.z.h.z.",
";X;X;X;X;X;X;X;X;X;X;X;X;X;X;X;X;X;X;X;X;X;X&X}.}.&X&X;X=X;X;X;X*X;Xv # ^ 3.&.t.k.h.k.",
";X;X;X;X;X;X;X;X;X;X;X;X;X;X;X;X;X;X;X;X;X;X;X}.}.&X;X#X;XoX=XoX;X;X X8 o U >.1.N...n.",
";X;X;X;X;X;X;X;X;X;X;X;X;X;X;X;X;X;X;X;X;X;X;X;X_.;X;X;X/.=X;X;X=X;X;X.Xc = & p i } 0.",
";X;X;X;X;X;X;X;X;X;X;X;X;X;X;X;X;X;X;X;X;X;X;X`.;X;X*X*X;X).;X'.`.*X;X-XOXY.% 3 4 J 9.",
";X;X;X;X;X;X;X;X;X;X;X;X;X;X;X;X;X;X;X;X;X;X;X;X X;X-X+X-X-XOX-XXXB 8 $ $ # f G 3.:.A.",
";X;X;X;X;X;X;X;X;X;X;X;X;X;X;X;X;X;X;X;X;X;X;X;X=X*X-X~.P x 9 - # 1 k K ~ 7.[ 5.2.) 2.",
";X;X;X;X;X;X;X;X;X;X;X;X;X;X;X;X;X;X;X;X;X;X;X).;X;XJ.X 6 q A F F 2.B.| / M.i.-.;.C.,.",
";X;X;X;X;X;X;X;X;X;X;X;X;X;X;X;X;X;X;X;X;X;X;X&X;XU.. b %.&.;.9.k.l.j.g.b.0.r.y.D.] , ",
";X;X;X;X;X;X;X;X;X;X;X&X;X;X;X;X;X;X;X;X;X;X;X&X[.@ 9 <.&.Z.p.p.s.s.a.x.c.d.j.p.} ` $ ",
";X;X;X;X;X;X;X;X;X&X&X&X;X;X;X;X;X-X&X&X;X=X;X-XI.o ^ =.k.x.d.d.x.x.j.g.j.j.x.j.Z.n = ",
";X;X;X;X;X;X;X;X;X&X&X&X=X;X;X;X-X%X{.&X'.;X*X*Xr l [ M.g.s.x.x.x.j.j.j.j.l.l.c.-.d : ",
";X;X;X;X;X;X;X;X;X&X&X&X&X;X;X;X-X&X{.&X#X=X;XT.O Q 4.D.f.s.x.x.x.j.j.j.j.l.h.h.| d v ",
";X;X;X;X;X;X;X;X;X&X&X&X;X;X;X=X;X&X&X&X;X*X*Xw k 3.=.k.x.s.d.x.x.j.j.j.j.l.h.S.1.# P.",
";X;X;X;X;X;X;X;X;X&X&X&X=X;X;X*X;X%X&X[.;X;XL.# >.4.e.g.x.s.s.x.x.j.j.h.l.l.z.' ! # Q.",
";X;X;X;X;X;X;X;X;X&X&X&X;X;X;X;X;X}.&X&X*X;X* A V.-.u.x.f.d.x.d.j.j.j.l.l.l.h.V.3 Y d ",
";X;X;X;X;X;X;X;X;X;X-X&X;X;X=X;X&X&X}.;X*XK.%  .O.r.c.x.a.x.d.d.x.j.j.j.l.l.h.E % E.% ",
";X;X;X;X;X;X;X;X;X&X&X&X;X;X;X;X$X&X|.*X;X* z  .$.g.c.a.a.n.a.d.j.j.j.l.l.l.h.h z j s ",
";X;X;X;X;X;X;X;X;X&X-X;X&X;X;X*X&X|.&X;X^.# W m.z.l.x.d.d.d.d.p.j.l.h.l.l.l.h.h < > { ",
";X;X;X;X;X;X;X;X;X;X&X&X;X;X;X=X;X$X$X;XL , 7.k.l.l.x.d.d.d.d.d.l.l.j.l.l.x.h.S 5 S ( ",
";X;X;X;X;X;X;X;X;X&X%X-X-X;X;X;X$X&X@X-X= z N.z.l.x.x.d.d.d.d.x.x.l.z.l.l.x.j.' S 4.} ",
";X;X;X;X;X;X;X;X;X*X-X-X-X;X;X;X'.&X*XW.# _ O.z.l.x.x.d.x.d.x.x.l.z.z.l.x.x.j.C.4.S.t.",
";X;X;X;X;X;X;X;X;X&X&X-X-X-X;X;X#X;X;Xc 5 C.t.l.l.l.x.d.p.x.l.x.l.z.l.l.x.p.j.w.D...g.",
";X;X;X;X;X;X;X=X;X&X-X-X-X;X;X;X;X*X+XX I i.j.l.l.l.j.j.p.x.x.l.z.z.l.l.x.p.p.9.y.f.l.",
";X;X;X;X;X;X;X;X&X;X-X-X-X-X;X;X;X#XH.- 3.w.g.l.j.j.j.p.j.x.j.l.z.l.z.l.x.p.p.d.p.c.c.",
";X;X;X;X;X;X;X;X;X;X-X-X-X;X;X*X;X-X; f 2.h.x.l.l.x.j.p.l.l.l.l.l.l.l.l.x.p.d.d.d.s.x.",
";X;X;X;X;X;X;X;X=X&X-X;X;X;X=X&X].W.$ { +.g.z.l.l.x.x.x.x.x.l.x.l.l.x.l.x.d.p.s.d.d.x.",
";X;X;X;X;X;X;X=X;X*X-X;X;X;X=X$X-Xx s u.F.$.z.l.x.x.x.x.x.x.x.x.l.x.x.s.x.x.x.l.x.x.x.",
";X;X;X;X;X;X;X;X;X-X-X;X;X=X=X|.!.O ! k.$.z.c.l.x.x.x.x.x.x.x.x.l.x.x.x.x.x.x.x.x.x.x.",
";X;X;X;X;X;X;X;X&X&X-X-X;X;X;X;XC 7 B.r.$.z.z.x.x.x.x.x.x.x.s.x.s.x.x.x.x.x.x.x.x.x.x.",
";X;X;X;X;X;X;X;X;X%X-X-X;X;X=X.XX D B.l.b.x.0.x.x.x.x.x.x.x.x.x.x.x.x.x.x.x.x.x.x.x.x.",
";X;X;X;X;X;X;X;X&X%X%X%X-X;X;XK.X  .m.x.x.g.j.d.x.x.x.x.x.x.x.x.x.x.x.x.x.x.x.x.x.x.x.",
";X;X;X;X;X;X;X;X;X%X%X%X-X;X;XN w 6.k.x.#.p.b.x.x.x.x.x.x.x.x.x.l.x.x.x.x.s.x.x.s.l.x.",
";X;X;X;X;X;X;X;X&X%X{.%X-X;X=Xu e | g.s.d.n.0.p.x.x.x.x.x.x.x.x.s.x.x.x.x.x.x.x.x.x.x."
};
