/* XPM */
static char *tile1241719244612[] = {
/* columns rows colors chars-per-pixel */
"43 43 144 2 ",
"   c #00101E",
".  c #000123",
"X  c #000A21",
"o  c #00012A",
"O  c #030C2E",
"+  c #000034",
"@  c #000D33",
"#  c #02063A",
"$  c #000E3F",
"%  c #110F3E",
"&  c #0C1535",
"*  c #001A33",
"=  c #00103A",
"-  c #111E3E",
";  c #000B41",
":  c #00054D",
">  c #010B48",
",  c #001245",
"<  c #01144A",
"1  c #001A48",
"2  c #000A54",
"3  c #060F5A",
"4  c #383E54",
"5  c #141E65",
"6  c #192964",
"7  c #3B3D64",
"8  c #223B7E",
"9  c #363B75",
"0  c #2D404F",
"q  c #3D435D",
"w  c #3E4C67",
"e  c #28497F",
"r  c #324F7B",
"t  c #414167",
"y  c #274585",
"u  c #3C4280",
"i  c #365180",
"p  c #37479E",
"a  c #36509A",
"s  c #38628A",
"d  c #2E55A2",
"f  c #4D5B80",
"g  c #595882",
"h  c #6C7586",
"j  c #4357AE",
"k  c #495FAA",
"l  c #5669AD",
"z  c #5176AD",
"x  c #6E7DA8",
"c  c #6070BB",
"v  c #5374C1",
"b  c #5279C4",
"n  c #467ADF",
"m  c #5E78D9",
"M  c #6F77C2",
"N  c #687FCB",
"B  c #6875D3",
"V  c #617CD4",
"C  c #4E79E2",
"Z  c #477FEC",
"A  c #437DF4",
"S  c #4B7CF2",
"D  c #4C7CFF",
"F  c #517EF1",
"G  c #557DFF",
"H  c #587EFF",
"J  c #677EEE",
"K  c #5E82BC",
"L  c #6380BA",
"P  c #5D87C3",
"I  c #5382CC",
"U  c #5B85CD",
"Y  c #4D85DC",
"T  c #4588DF",
"R  c #5581D8",
"E  c #5C87DF",
"W  c #558BDB",
"Q  c #6089C7",
"!  c #688ECC",
"~  c #6193CE",
"^  c #6389D4",
"/  c #6780DD",
"(  c #628ADF",
")  c #728DDE",
"_  c #6690D8",
"`  c #4586E2",
"'  c #4882E6",
"]  c #4E83EB",
"[  c #4D8DEA",
"{  c #5C82E7",
"}  c #5788E4",
"|  c #5A88E4",
" . c #5583EC",
".. c #538AEE",
"X. c #5988EA",
"o. c #4F90EE",
"O. c #5494EC",
"+. c #4485F5",
"@. c #4D83F7",
"#. c #478FF4",
"$. c #4D8BF5",
"%. c #4D86FE",
"&. c #468EFD",
"*. c #4D89FD",
"=. c #5485F4",
"-. c #5887F1",
";. c #5289F3",
":. c #5B8EF2",
">. c #5386FE",
",. c #5B84FB",
"<. c #5188FF",
"1. c #5B8CFE",
"2. c #4F92FD",
"3. c #5091F5",
"4. c #5A91F5",
"5. c #5593FD",
"6. c #5B92FD",
"7. c #6384ED",
"8. c #628AEC",
"9. c #688FEA",
"0. c #778CE7",
"q. c #6693ED",
"w. c #6283F7",
"e. c #6887F3",
"r. c #638BFF",
"t. c #659BF5",
"y. c #6E96FF",
"u. c #649BFF",
"i. c #8A8FAC",
"p. c #8899AD",
"a. c #9199A4",
"s. c #979BB6",
"d. c #979BC0",
"f. c #C1C8E5",
"g. c #CAC8E0",
"h. c #CBD7E3",
"j. c #D1D8EA",
"k. c #DFE9F2",
"l. c #E5E4FD",
"z. c #EFEEFC",
"x. c #F4F3FF",
"c. c #F8F6FF",
"v. c #F5F8FD",
"b. c #FDFDFF",
/* pixels */
"1.>.%.<.;.;.;.;.,.>.>.>.<.<.<.<.<.<.<.<.<.<.<.<.<.<.<.<.<.<.<.<.<.<.<.<.<.<.<.<.<.<.<.",
">.<.%.@.;.;.-.:.=.>.>.>.<.<.<.<.<.<.<.<.<.<.<.<.<.<.<.<.<.<.<.<.<.<.<.<.<.<.<.<.<.<.<.",
"@.5.@.@.=.-.X.X.{ -.>.>.>.<.<.<.<.<.<.<.<.<.<.<.<.<.<.<.<.<.<.<.<.<.<.<.<.<.<.<.<.<.<.",
">.@.<.>.>.1.R I _ | w.G >.<.<.<.<.<.<.<.<.<.<.<.<.<.<.<.<.<.<.<.<.<.<.<.<.<.<.<.<.<.<.",
">.<.<.<.S C ^ K < 2 w.H >.<.<.<.<.<.<.<.<.<.<.<.<.<.<.<.<.<.<.<.<.<.<.<.<.<.<.<.<.<.<.",
">.;.%.%.=.q.y ; , : y.G >.<.<.<.<.<.<.<.<.<.<.<.<.<.<.<.<.<.<.<.<.<.<.<.<.<.<.<.<.<.<.",
",.>.*.*...d # x < a  .1.<.<.<.<.<.<.<.<.<.<.<.<.<.<.<.<.<.<.<.<.<.<.<.<.<.<.<.<.<.<.>.",
",.>.%.#.W < f d.+ Q C *.<.<.<.<.<.<.<.<.<.<.<.<.<.<.<.<.<.<.<.<.<.<.<.<.<.<.<.<.<.<.%.",
",.>.%...~ @ f.. r 0.:.+.*.<.<.<.<.<.<.<.<.<.<.<.<.<.<.<.<.<.<.<.<.<.<.<.<.<.<.<.<.<.<.",
">.>.] W s X i.% M B ..5.%.<.<.<.<.>.<.<.<.<.<.<.<.<.<.<.<.<.<.<.<.<.<.<.<.<.<.<.<.<.<.",
">.=.} Q * 4 O 9 B e.] 5.;.<.<.<.<.<.<.<.<.<.<.<.<.<.<.<.<.<.<.<.<.<.<.<.<.<.<.<.<.<.<.",
"@...b r   h.o c J r.=.;.<.<.<.<.<.<.<.<.<.<.<.<.<.<.<.<.<.<.<.<.<.<.<.<.<.<.<.<.<.<.<.",
"6.q.L . a.h ; V r.H F =.;.<.<.<.<.<.<.<.<.<.<.<.<.<.<.<.<.<.<.<.<.<.<.<.<.<.<.<.<.<.<.",
"Y U = q b.& 8 8.1.D ,.-.>.<.<.<.<.<.<.<.<.<.<.<.<.<.<.<.<.<.<.<.<.<.<.<.<.<.<.<.<.<.<.",
"I e & l.g.. v :.%.%.r.,.>.<.<.<.<.<.<.<.<.<.<.<.<.<.<.<.<.<.<.<.<.<.<.<.<.>.<.<.<.<.<.",
"z o s.b.w 6 ( ;.A %.>.,.>.<.<.<.<.<.<.<.<.<.<.<.<.<.<.<.<.<.<.<.<.<.<.<.<.%.<.<.<.<.<.",
"= t x.l.+ k W $.3.5.S >.>.<.<.<.<.<.<.<.<.<.<.<.<.<.<.<.<.<.<.<.<.<.<.<.<.<.<.<.<.<.<.",
"- b.b.t 5 V | O.O...@.>.>.<.<.<.<.<.<.<.<.<.<.<.<.<.<.<.<.<.<.<.<.<.<.<.<.<.<.<.<.<.<.",
"j.c.x.# j { 4.[ T ` 1.<.>.<.<.<.<.<.<.<.<.<.<.<.<.<.<.<.<.<.<.<.<.<.<.<.<.<.<.<.<.<.<.",
"v.b.g 3 7.>.*.&.#.$.,.1.>.<.<.<.<.<.<.<.<.<.<.<.<.<.<.<.<.<.<.<.<.<.<.<.<.<.<.<.<.<.<.",
"b.x.# p w.<.&.&.#.$.,.,.>.>.<.<.<.<.<.<.<.<.<.<.<.<.<.<.<.<.<.<.<.<.<.<.<.<.<.<.<.<.<.",
"l.0 ; 0.,.<.&.&.#.$.>.,.>.<.<.<.<.<.<.<.<.<.<.%.<.<.<.<.<.<.<.<.<.<.<.<.<.<.<.<.<.<.<.",
"p.O l V ,.%.*.#.2.;.>.,.>.<.<.<.<.<.<.<.<.<.<.>.<.<.<.<.<.<.<.<.<.<.<.<.<.<.<.<.<.<.<.",
". i ) 7.,.<.*.$.#.;.<.>.<.<.<.<.<.<.<.<.<.<.<.<.<.<.<.<.<.<.<.<.<.<.<.<.<.<.<.<.<.<.<.",
"1 ! 9. .>.>.;.;.3.*.<.<.<.<.<.<.<.<.<.<.<.<.<.<.<.<.<.<.<.<.<.<.<.<.<.<.<.<.<.<.<.<.<.",
"P I ..>.>.>.;.;.;.;.%.%.<.<.<.<.<.<.<.<.<.<.<.<.<.<.<.<.<.<.<.<.<.<.<.<.<.<.<.<.<.<.<.",
"I t.' %.<.>.;.;.;.;.%.%.<.<.<.<.<.<.<.<.<.<.<.<.<.<.<.<.<.<.<.<.<.<.<.<.<.%.<.<.<.<.<.",
"} ' *.*.<.<.....;.%.%.%.%.<.<.<.<.<.<.<.<.<.<.<.<.<.<.<.<.<.<.<.<.<.<.<.<.>.<.<.<.<.<.",
"..5.+.*.%.;.;...;.<.%.%.%.<.<.<.<.<.<.<.<.<.<.<.<.<.<.<.<.<.<.<.<.<.<.<.<.<.<.<.<.<.<.",
"6.<.A *.*.*.;.;.;.@.%.%.<.<.<.<.<.<.<.<.<.<.<.<.<.<.<.<.<.<.<.<.<.<.<.<.<.<.<.<.<.<.<.",
"6.A 6.%.@.*.$.;.>.*.>.%.<.<.<.<.<.<.<.<.<.<.<.<.<.<.>.%.<.<.<.<.<.<.<.<.<.<.<.<.<.<.<.",
">.A u.*.*.$.$.@.>.%.>.>.<.<.<.<.<.<.<.<.<.<.<.<.<.<.<.<.<.<.<.<.<.<.<.<.<.<.<.<.<.<.<.",
"=.1.>.>.*.$.*.*.*.>.>.>.>.<.<.<.<.<.<.<.<.<.<.<.<.<.<.<.<.<.<.<.<.<.<.<.<.<.<.<.>.%.<.",
">.r.S ;.$.$.*.*.%.%.>.>.>.>.<.<.<.<.<.<.<.<.<.<.<.<.<.<.<.<.<.<.<.<.<.<.<.<.<.<.<.<.<.",
"1.>.>.r.;.*.*.*.%.<.;.>.>.<.<.<.<.<.<.<.<.<.<.<.<.<.<.<.<.<.<.<.<.<.<.<.<.<.<.<.<.<.<.",
">.>.>.<.<.%.%.<.<.<.<.>.<.<.<.<.<.<.<.<.<.<.>.%.<.<.<.<.<.<.<.<.<.<.<.<.<.<.<.<.<.<.<.",
">.>.<.<.<.<.<.<.<.<.<.<.<.<.<.<.<.<.<.<.<.<.<.<.<.<.<.<.<.<.<.<.<.<.<.<.<.<.<.<.<.<.<.",
"<.%.<.<.<.<.<.<.<.<.<.<.<.<.<.<.<.<.<.<.<.<.<.<.<.<.<.<.<.<.<.<.<.<.<.<.<.<.<.<.<.<.<.",
"<.<.<.<.<.<.<.<.<.<.<.<.<.<.<.<.<.<.<.<.<.<.<.<.<.<.<.<.<.<.<.<.<.<.<.<.<.<.<.<.<.<.<.",
"<.<.<.<.<.<.<.<.<.<.<.<.<.<.<.<.<.<.<.<.<.<.<.<.<.<.<.<.<.<.<.<.<.<.<.<.<.<.<.<.<.<.<.",
"<.<.<.<.<.<.<.<.<.<.<.<.<.<.<.<.<.<.<.<.<.<.<.<.<.<.<.<.<.<.<.<.<.<.<.<.<.<.<.<.<.<.<.",
"<.<.<.<.<.<.<.<.<.<.<.<.<.<.<.<.<.<.<.<.>.<.<.<.<.<.<.<.<.<.<.<.<.<.<.<.<.<.<.<.<.<.<.",
"<.<.<.<.<.<.<.<.<.<.<.<.<.<.>.<.<.<.<.<.<.<.<.<.<.<.<.<.<.<.<.<.<.<.<.<.<.<.<.<.<.<.<."
};
