/* XPM */
static char *tile1311719244612[] = {
/* columns rows colors chars-per-pixel */
"43 43 165 2 ",
"   c #000116",
".  c #000225",
"X  c #020C22",
"o  c #00012B",
"O  c #00092F",
"+  c #001C22",
"@  c #00122C",
"#  c #000334",
"$  c #000239",
"%  c #000D3D",
"&  c #001432",
"*  c #001338",
"=  c #09103E",
"-  c #041B3A",
";  c #121A31",
":  c #1D2437",
">  c #18213E",
",  c #000142",
"<  c #000944",
"1  c #00154C",
"2  c #09164A",
"3  c #001B57",
"4  c #0E1E53",
"5  c #051D5B",
"6  c #082F4E",
"7  c #182343",
"8  c #1D294F",
"9  c #0D215E",
"0  c #1D2E5A",
"q  c #1E3159",
"w  c #293148",
"e  c #2F3559",
"r  c #26325A",
"t  c #1D3170",
"y  c #23356C",
"u  c #243771",
"i  c #243C74",
"p  c #203D7F",
"a  c #454A68",
"s  c #4F556F",
"d  c #585F7B",
"f  c #586877",
"g  c #64697F",
"h  c #233E83",
"j  c #34518B",
"k  c #2F498F",
"l  c #3C5CA5",
"z  c #415788",
"x  c #4D6293",
"c  c #697585",
"v  c #70768C",
"b  c #657194",
"n  c #425DA2",
"m  c #4960A4",
"M  c #4569A7",
"N  c #4462A8",
"B  c #536CAE",
"V  c #547CB0",
"C  c #687AA8",
"Z  c #3E7DEF",
"A  c #3A7FF6",
"S  c #5B74C4",
"D  c #5778C7",
"F  c #587AC2",
"G  c #5979CC",
"H  c #4E79DF",
"J  c #597ED3",
"K  c #607ED6",
"L  c #4F7EE6",
"P  c #447AE9",
"I  c #497EEB",
"U  c #567AEA",
"Y  c #4677F0",
"T  c #487EFC",
"R  c #4D75F1",
"E  c #607DE3",
"W  c #3F84F9",
"Q  c #5E80CA",
"!  c #5781D7",
"~  c #5D87DD",
"^  c #5E88DE",
"/  c #5D83D6",
"(  c #6585D7",
")  c #6A83D5",
"_  c #6289D6",
"`  c #6385DB",
"'  c #648BDD",
"]  c #6B8EDE",
"[  c #698BD3",
"{  c #6491D4",
"}  c #4782E8",
"|  c #4D84ED",
" . c #4E84E4",
".. c #5684E3",
"X. c #5B83E1",
"o. c #5388E4",
"O. c #5B88E3",
"+. c #5484EB",
"@. c #5C86EA",
"#. c #538BEC",
"$. c #598AED",
"%. c #4380F5",
"&. c #4B84F3",
"*. c #4D8BF5",
"=. c #4586FC",
"-. c #4D86FE",
";. c #4D8AFC",
":. c #5386F3",
">. c #5B84F1",
",. c #528AF4",
"<. c #598DF7",
"1. c #5386FE",
"2. c #5A84FD",
"3. c #5188FF",
"4. c #5A8EFA",
"5. c #5391F6",
"6. c #5892F6",
"7. c #5494FE",
"8. c #5A93FF",
"9. c #638AE3",
"0. c #698FE4",
"q. c #6183ED",
"w. c #638FEE",
"e. c #6490E7",
"r. c #6890E8",
"t. c #6484F3",
"y. c #6197FF",
"u. c #6398FF",
"i. c #6C93FC",
"p. c #98A2AE",
"a. c #9AA9BE",
"s. c #A5AABD",
"d. c #AAB0BC",
"f. c #ADAEC0",
"g. c #A9B0CA",
"h. c #A9B8CB",
"j. c #BDBDC9",
"k. c #ADAEDA",
"l. c #AEC1C7",
"z. c #B3C2C7",
"x. c #B2C7CA",
"c. c #BEC3D6",
"v. c #C8C6D4",
"b. c #C9D8EF",
"n. c #D4DBEE",
"m. c #EFECE5",
"M. c #E1E4EB",
"N. c #E4EEEA",
"B. c #F4EFED",
"V. c #EEF1EA",
"C. c #F4F5EE",
"Z. c #FBF4EF",
"A. c #F1FCEE",
"S. c #EBEEF5",
"D. c #EAE7F8",
"F. c #F1EFF2",
"G. c #EFFBFF",
"H. c #F4F4F5",
"J. c #FDF6F5",
"K. c #F6FCF4",
"L. c #FCFDF5",
"P. c #F5F6FE",
"I. c #FCF6FD",
"U. c #F6FEFB",
"Y. c #FEFEFE",
/* pixels */
"3.3.3.3.3.3.3.3.3.3.3.3.3.3.3.-.-.2.1.1.:.#.#.;.T 1.2.U G $ X z.N.Y.J.Z.L.Y.I.Y.Y.U.Y.",
"3.3.3.3.3.3.3.3.3.3.3.3.3.3.1.-.T 2.1.:.#.o.#.Z i.T 2.E h - z.N.L.L.Y.J.J.Y.I.Y.I.Y.U.",
"3.3.3.3.3.3.3.3.3.3.3.3.3.3.1.-.1.3.,.:.#.#.#.y.Y R t.S # h.U.U.L.L.L.L.J.J.Y.Y.Y.U.Y.",
"3.3.3.3.3.3.3.3.3.3.3.3.3.3.-.1.-.3.*.:.#.:.,.I :.i.K t 8 Y.Y.L.C.Z.Y.Y.I.L.I.Y.U.U.U.",
"3.3.3.3.3.3.3.3.3.3.3.3.3.3.3.3.1.3.1.:.1.,.:.:.w._ j # n.I.B.Y.Y.L.Y.I.Y.Y.J.Y.U.U.U.",
"3.3.-.3.3.3.3.3.3.3.3.3.3.3.3.3.1.1.3.1.1.1.1.+.' V & f P.Y.I.Y.Y.Y.I.I.Y.Y.Y.U.U.U.U.",
"3.3.3.3.3.3.3.3.3.3.3.3.3.3.3.*.,.,.3.1.T 2.2...{ 6 + U.J.I.I.I.Y.Y.I.I.I.Y.Y.L.U.K.U.",
"3.3.3.3.3.3.3.3.3.3.3.3.3.3.1.,.,.1.3.-.1.T 2.L M @ x.K.Y.J.I.Y.Y.Y.Y.I.I.Y.Y.U.K.U.U.",
"3.3.3.3.3.3.3.3.3.3.3.3.3.3.3.2.1.1.;.;.;.,.O.( 9 r Y.I.Y.K.Y.Y.Y.Y.Y.Y.Y.Y.Y.Y.Y.Y.Y.",
"3.3.3.3.3.3.3.3.3.3.3.3.3.3.1.2.2.;.;.;.*.#.' S < k.I.Y.Y.K.A.Y.Y.Y.Y.Y.Y.Y.Y.Y.Y.Y.Y.",
"3.3.3.3.3.3.3.3.3.3.3.3.3.3.3.2.1.3.;.=.*.#.` m # Y.P.Y.L.L.A.Y.Y.Y.Y.Y.Y.Y.Y.Y.Y.Y.Y.",
"3.3.3.3.3.-.1.3.3.3.3.3.3.3.1.1.1.3.-.;.,.o.( k = I.Y.I.C.L.A.Y.Y.Y.Y.Y.Y.Y.Y.Y.Y.Y.Y.",
"3.3.3.3.3.3.3.3.3.3.3.3.3.3.3.,.1.;.-.;.,.@.) y e D.Y.L.L.A.Y.Y.Y.Y.Y.Y.Y.Y.Y.Y.Y.Y.Y.",
"3.3.3.3.3.3.3.3.3.3.3.3.3.3.1.1.;.-.-.-.1.q.) 4 a I.C.L.L.V.L.Y.Y.Y.Y.Y.Y.Y.Y.Y.Y.Y.Y.",
"3.3.3.3.3.3.3.3.3.-.3.3.3.3.3.;.;.-.-.3.1.q.) 2 s Y.m.L.L.C.Y.Y.Y.Y.Y.Y.Y.Y.Y.Y.Y.Y.Y.",
"3.3.3.3.3.3.3.3.3.3.3.3.3.3.-.*.;.-.-.1.2.q.) 4 d S.J.L.C.Y.Y.Y.Y.Y.Y.Y.Y.Y.Y.Y.Y.Y.Y.",
"3.3.3.3.3.3.3.3.3.3.3.3.3.3.3.*.;.;.-.-.2.>.) u 7 P.P.Y.K.Y.I.Y.Y.Y.Y.Y.Y.Y.Y.Y.Y.Y.Y.",
"3.3.3.3.3.3.3.3.3.3.3.3.3.3.-.;.*.;.-.3.2.@.K B o a.U.H.L.Y.H.Y.Y.Y.Y.Y.Y.Y.Y.Y.Y.Y.Y.",
"-.3.3.3.3.3.3.3.3.3.3.3.3.3.3.*.;.-.-.1.1.>.O.G p * b.U.Y.F.Y.Y.Y.Y.Y.Y.Y.Y.Y.Y.Y.Y.Y.",
"3.3.3.3.3.3.3.3.3.3.3.3.3.3.;.-.;.-.-.3.1.,.@.! [ 1 r G.Y.F.Y.Y.Y.Y.Y.Y.Y.Y.Y.Y.Y.Y.Y.",
"3.3.3.3.3.3.3.3.3.3.3.3.3.3.3.-.-.;.1.*.-.:.,.$.e.F $ b U.Y.J.Y.Y.Y.Y.Y.Y.Y.Y.Y.Y.Y.Y.",
"3.3.3.3.3.3.3.3.3.3.3.3.3.3.3.1.1.1.-.*.*.&.*.,.+.9.N $ g.P.Y.Y.Y.Y.Y.Y.Y.Y.Y.Y.Y.Y.Y.",
"3.3.3.3.3.3.3.3.3.3.3.3.3.3.3.1.1.,.*.*.*.*.=.=.3.H ] i > I.Y.Y.Y.Y.Y.Y.Y.Y.Y.Y.Y.Y.Y.",
"3.3.3.3.3.3.3.3.3.3.3.3.3.3.3.3.-.*.*.*.;.;.;.%.y.| 9.n o P.Y.Y.Y.Y.Y.Y.Y.Y.Y.Y.Y.Y.Y.",
"3.3.3.3.3.3.3.3.3.3.3.3.3.3.3.3.3.;.*.;.3.1.3.:.y.| <.r., b Y.Y.U.I.Y.Y.Y.Y.Y.Y.Y.Y.Y.",
"3.3.3.3.3.3.3.3.3.3.3.3.3.3.3.3.3.;.;.;.3.2.2.:.I 7.4.$.k % s.Y.Y.Y.Y.Y.Y.Y.Y.Y.Y.Y.Y.",
"1.-.3.3.3.3.3.3.3.3.3.3.3.3.3.1.3.;.*.;.3.2.1.<.| ;.7.L ( 0 : P.Y.Y.P.Y.Y.Y.Y.Y.Y.Y.Y.",
"3.3.3.3.3.3.3.3.3.3.3.3.3.3.3.3.3.*.*.*.3.1.2.1.8.=.=.+.' C   M.H.Y.Y.Y.Y.Y.L.Y.Y.Y.Y.",
"3.3.3.3.3.3.3.3.3.3.3.3.3.3.3.1.3.*.*.;.1.3.4.I ;.7.Z 4.J x ; M.H.Y.Y.I.Y.Y.L.Y.Y.Y.Y.",
"3.3.3.3.3.3.3.3.3.3.3.3.3.3.1.1.3.5.*.*.1.3.1.,.;.;.=.| ' z X P.Y.Y.Y.L.Y.Y.Y.Y.Y.Y.Y.",
"3.3.3.3.3.3.3.3.3.3.3.3.3.3.1.1.5.*.*.;.3.3.3.3.;.W 7.I e.x   Y.Y.Y.Y.Y.Y.Y.Y.Y.Y.Y.Y.",
"3.3.-.1.3.3.3.3.3.3.3.3.3.3.3.3.,.*.*.*.3.3.3.7.;.W ;.<.J y w Y.I.L.Y.Y.Y.Y.Y.Y.Y.Y.Y.",
"3.3.3.3.3.3.3.3.3.3.3.3.3.3.1.2.,.,.*.;.;.3.3.*.7.W =.,.' * v Y.Y.Y.Y.Y.Y.Y.Y.Y.Y.Y.Y.",
"3.3.3.3.3.3.3.3.3.-.3.3.3.3.3.1.,.,.*.*.3.3.3.&.7.;.3.+.D # c.Y.Y.Y.Y.Y.Y.Y.Y.Y.Y.Y.Y.",
"3.3.3.3.3.3.3.3.3.3.3.3.3.3.1.1.4.*.*.;.;.3.3.&.*.;.7.o.l o Y.Y.Y.Y.Y.Y.Y.Y.Y.Y.Y.Y.Y.",
"3.3.3.3.3.3.3.3.3.3.3.3.3.3.1.1.3.*.*.;.3.3.1.<.&.*.,.O.h ; Y.Y.Y.Y.Y.Y.Y.Y.Y.Y.Y.Y.Y.",
"3.3.3.3.3.3.3.3.3.3.3.3.3.3.1.1.1.,.*.;.3.1.3.,.} *.#.~ 3 c J.Y.Y.Y.Y.Y.Y.Y.Y.Y.Y.Y.Y.",
"3.3.-.1.3.3.3.3.3.3.3.3.3.3.3.2.1.*.*.;.;.1.1.#.5.5. ./ $ s.L.Y.Y.Y.Y.Y.Y.Y.Y.Y.Y.Y.Y.",
"3.3.3.3.3.3.3.3.3.3.3.3.3.3.3.2.3.3.;.;.;.1.1. .6.#.o._ # v.Y.Y.Y.Y.Y.Y.Y.Y.Y.Y.Y.Y.Y.",
"3.3.3.3.3.3.3.3.3.1.3.3.3.3.3.3.1.;.;.;.3.1.1.:.6.} #.] $ j.Z.Y.Y.Y.Y.Y.Y.Y.Y.Y.Y.Y.Y.",
"3.3.3.3.3.3.3.3.3.3.3.3.3.3.1.2.1.,.*.*.3.,.1.L ,.3.4.9.$ d.L.Y.Y.Y.Y.Y.Y.Y.Y.Y.Y.Y.Y.",
"3.3.3.3.3.3.3.3.3.3.3.3.3.3.1.1.3.:.*.*.:.1.<.1.3.=.4.X.< p.L.Y.Y.Y.Y.Y.Y.Y.Y.Y.Y.Y.Y.",
"3.3.3.3.3.3.3.3.3.3.3.3.-.1.3.1.3.*.5.,.,.1.4.3.8.=.1.! 3 c C.I.Y.Y.Y.Y.Y.Y.Y.Y.Y.Y.Y."
};
