/* XPM */
static char *tile1481719244611[] = {
/* columns rows colors chars-per-pixel */
"43 43 68 1 ",
"  c white",
". c #FFFFFD",
"X c #FEFFFA",
"o c #FEFEFE",
"O c #FFFEFF",
"+ c #FEFEFF",
"@ c #FFFDFF",
"# c #FEFDFF",
"$ c #FEFFFF",
"% c #FEFFFB",
"& c #FFFDFE",
"* c #FDFFF7",
"= c #FFFEFC",
"- c #FFFFF7",
"; c #FEFFF3",
": c #FDFFF5",
"> c #FFFFFB",
", c #FFFEFA",
"< c #FFFDFC",
"1 c #FFFEF9",
"2 c #FFFFF3",
"3 c #FEFFF5",
"4 c #FFFCFF",
"5 c #FFFAFF",
"6 c #FFFBFF",
"7 c #FFFCFE",
"8 c #FFFCFC",
"9 c gray98",
"0 c #F6EDE8",
"q c #FFFDF8",
"w c #FFFEFD",
"e c #F0F0EE",
"r c #FFFFF8",
"t c #FFFBF5",
"y c #FCF3EC",
"u c #F2F2F4",
"i c #FFFBFA",
"p c #FFFDFA",
"a c #FAF2EF",
"s c #FAF5F9",
"d c #FFFBF8",
"f c #F9F7FA",
"g c #FCF6FF",
"h c #F0F1F5",
"j c #FCFFFF",
"k c #F9F3FF",
"l c #FCFAFF",
"z c #F1F5F8",
"x c #FAFFFE",
"c c #FBFFFF",
"v c #F2FBF6",
"b c #FAF9FF",
"n c #F9FFF9",
"m c #FEFFFD",
"M c #F3F4F9",
"N c #F9FEFA",
"B c #FCFFFB",
"V c #F9FFFF",
"C c #F5F7F4",
"Z c #F6FFFF",
"A c #ECF0EF",
"S c #F8F7F5",
"D c #F2FFFF",
"F c #F7FDFB",
"G c #FFF8FD",
"H c #D0E4EB",
"J c #FFF9FF",
"K c #FFF5FE",
/* pixels */
"                                           ",
"                                           ",
"                                           ",
"                                           ",
"                                           ",
"                                           ",
"                                           ",
"                                           ",
"                                           ",
"                                           ",
"                                           ",
"                                           ",
".                                          ",
"XoOO                                       ",
"X+@@                                       ",
"o#OO                                       ",
"##OO                                       ",
"##OO                                       ",
"##OO                                       ",
"##$$                                       ",
"@o%%.                                      ",
"&X**.                                      ",
"=-;:>                                      ",
",-;;>                                      ",
"<123>                                      ",
"4=--.                                      ",
"44<,.                                      ",
"544&                                       ",
"6678O                                      ",
"9,0qw                                      ",
"ertyw                                      ",
"uipa.                                      ",
"4swd.                                      ",
"4@f.                                       ",
"g4hj                                       ",
"klzx$                                      ",
"g@cv$                                      ",
"b+cnm                                      ",
"M$NBm                                      ",
"VjC>.                                      ",
"ZASwO                                      ",
"DF@GO                                      ",
"HcJK@                                      "
};
