/* XPM */
static char *tile1541719244611[] = {
/* columns rows colors chars-per-pixel */
"43 43 46 1 ",
"  c white",
". c #FFFFFD",
"X c #FFFEFF",
"o c #FDFEFF",
"O c #FEFEFF",
"+ c #FFFEFA",
"@ c #FFFEF7",
"# c #FFFDF9",
"$ c #FFFCFC",
"% c #FFFCFF",
"& c #FEFDFF",
"* c #FFFEF9",
"= c #FFFEF5",
"- c #FFFDF7",
"; c #FFFBFF",
": c #FDFBFF",
"> c #FEFFF9",
", c #FFFFF5",
"< c #FAF8FF",
"1 c #FEFFFA",
"2 c #FFFFF7",
"3 c #FFFDFC",
"4 c #FFFAFF",
"5 c #FEFFF7",
"6 c #FDFFFC",
"7 c #FFFEFC",
"8 c #FDFFF9",
"9 c #FEFEFC",
"0 c #FFF5F9",
"q c #FBFFF9",
"w c #FBFFFA",
"e c #FFFDFF",
"r c #FFFCFD",
"t c #FFF8F9",
"y c #FAFFFC",
"u c #FBFFFE",
"i c #FCF2F3",
"p c #FAFFFA",
"a c #F8FFFC",
"s c #FAFFFE",
"d c #FFF7F8",
"f c #FFFDFE",
"g c #F8FFFF",
"h c #FBFFFF",
"j c #FFFCFE",
"k c #FFFBFB",
/* pixels */
"                                           ",
"                                           ",
"                                           ",
"                                           ",
"                                           ",
"                                           ",
"                                           ",
"                                           ",
"                                           ",
"                                           ",
"                                           ",
"                                           ",
"                                           ",
"                                           ",
"                                           ",
"                                           ",
"                                           ",
"                                           ",
"                                           ",
"                                           ",
"                                           ",
"                                           ",
"                                           ",
"                                           ",
"                                           ",
"                                           ",
"                                           ",
"                                           ",
"                                    ...XXXX",
"                                  oO+@#$%%O",
"                                  o&*=-$;;&",
"                                  o&*=-$;;:",
"                                  oo>,@$%;<",
"                                  oo12*3;;4",
"                                  oo15*3;4;",
"                                  &&6>>7%;4",
"                                  &&6889%;0",
"                                  %&6qw6e;r",
"                                  %&6qw6e%t",
"                                  ee6wyu&%i",
"                                 X%e6paso%d",
"                                 X%f6pagher",
"                                 X%j9pagh&k"
};
