/* XPM */
static char *tile1551719244611[] = {
/* columns rows colors chars-per-pixel */
"43 43 165 2 ",
"   c #000325",
".  c #000C26",
"X  c #00032B",
"o  c #000536",
"O  c #000D32",
"+  c #00093B",
"@  c #001133",
"#  c #0E1D32",
"$  c #001139",
"%  c #071B3C",
"&  c #0C1939",
"*  c #162D3F",
"=  c #000942",
"-  c #001145",
";  c #041A43",
":  c #01154A",
">  c #071D4E",
",  c #0B1C4B",
"<  c #09204C",
"1  c #052055",
"2  c #112759",
"3  c #1A375F",
"4  c #26395A",
"5  c #2E3C59",
"6  c #263C54",
"7  c #002264",
"8  c #132469",
"9  c #1C2F7C",
"0  c #253D69",
"q  c #213B74",
"w  c #35435E",
"e  c #49586B",
"r  c #4B5976",
"t  c #515D77",
"y  c #56647E",
"u  c #334C8C",
"i  c #3D538F",
"p  c #385A8A",
"a  c #304390",
"s  c #3E5C9C",
"d  c #274986",
"f  c #475B8E",
"g  c #455998",
"h  c #576582",
"j  c #446296",
"k  c #4A6A99",
"l  c #63728F",
"z  c #70788F",
"x  c #647A91",
"c  c #6F7899",
"v  c #6A7392",
"b  c #767B98",
"n  c #465CA8",
"m  c #456AAE",
"M  c #4268B1",
"N  c #5C79B1",
"B  c #5372BA",
"V  c #5B71BD",
"C  c #5F7FBA",
"Z  c #657FB8",
"A  c #5B75C0",
"S  c #5376CA",
"D  c #567DCC",
"F  c #587FCC",
"G  c #4975D4",
"H  c #537DD1",
"J  c #5A7ED6",
"K  c #567FDB",
"L  c #597DDA",
"P  c #607CC5",
"I  c #667DCB",
"U  c #437AEE",
"Y  c #4C7EED",
"T  c #537CE8",
"R  c #4277F7",
"E  c #4B77F4",
"W  c #437FF7",
"Q  c #4A7DF5",
"!  c #4B7BFC",
"~  c #7E8B9C",
"^  c #5C83DE",
"/  c #5D8ADF",
"(  c #5C85D5",
")  c #678AC2",
"_  c #6586CB",
"`  c #6A85CB",
"'  c #6289CA",
"]  c #6481D3",
"[  c #678CD3",
"{  c #6C8AD2",
"}  c #6083DD",
"|  c #6389DB",
" . c #6D93D4",
".. c #7395D5",
"X. c #4683ED",
"o. c #4B8FEE",
"O. c #5B86E5",
"+. c #5689E5",
"@. c #5584EB",
"#. c #5B84EC",
"$. c #5F8BE9",
"%. c #4785F6",
"&. c #4A85F4",
"*. c #4D8CF4",
"=. c #4D85FA",
"-. c #4D8AFD",
";. c #5484F4",
":. c #5C85F2",
">. c #548AF6",
",. c #5C8CF3",
"<. c #5386FE",
"1. c #5A84FC",
"2. c #5188FF",
"3. c #5A8CFE",
"4. c #4D91F4",
"5. c #5594FC",
"6. c #5995FF",
"7. c #6387E5",
"8. c #6983E4",
"9. c #678AE6",
"0. c #6C8CE6",
"q. c #6283EC",
"w. c #638BEA",
"e. c #6E91E5",
"r. c #6E98E4",
"t. c #6785F2",
"y. c #6884F2",
"u. c #628BF1",
"i. c #618CFD",
"p. c #8F9DAA",
"a. c #9DAAB2",
"s. c #B3BFD9",
"d. c #B6C2CE",
"f. c #BFCDD6",
"g. c #BDCADD",
"h. c #ACC0E3",
"j. c #C0D6ED",
"k. c #DEE4FA",
"l. c #D8EBF9",
"z. c #E4EEE5",
"x. c #EDEEEB",
"c. c #F7EFED",
"v. c #F3ECE2",
"b. c #F2F2E6",
"n. c #F5F2EC",
"m. c #FAF2EF",
"M. c #F4FCEC",
"N. c #E7E7F1",
"B. c #ECEFF6",
"V. c #E2E7FF",
"C. c #EBEDFF",
"Z. c #F1EFF2",
"A. c #F1EFFA",
"S. c #E5F0F6",
"D. c #EFF5F3",
"F. c #E6F3FD",
"G. c #EBF3FC",
"H. c #F3F5F4",
"J. c #FCF6F4",
"K. c #F6FCF2",
"L. c #FBFDF4",
"P. c #F3F5FD",
"I. c #FDF7FF",
"U. c #F5FCFE",
"Y. c #FEFEFE",
/* pixels */
"Y.Y.Y.Y.Y.Y.Y.L.K.U.Y.Y.H.Y.U.+ u 9.i.=.2.2.*.2.2.2.2.2.2.2.2.2.2.2.2.=.2.2.2.2.2.2.2.",
"Y.Y.Y.Y.Y.Y.Y.K.L.H.H.Y.P.U.d.o B w.3.;.%.*.4.-.2.2.2.2.2.2.2.2.2.2.2.2.2.2.2.2.2.2.2.",
"Y.Y.Y.Y.Y.Y.L.M.L.K.x.Y.Y.U.h : { O.;.2.%.4.*.-.2.-.2.2.2.2.2.2.2.2.2.2.2.2.2.2.2.2.2.",
"Y.Y.Y.Y.Y.Y.Y.M.L.K.D.Y.Y.U.w > { 7.;.<.%.5.*.;.2.2.2.2.2.2.2.2.2.<.-.2.2.2.2.2.2.2.2.",
"Y.Y.Y.Y.Y.Y.Y.L.L.L.Y.Y.D.Y.e % ` 7.:.3.=.6.X.-.2.2.2.2.2.2.2.2.<.2.2.2.2.2.2.2.2.2.2.",
"Y.Y.Y.Y.Y.Y.Y.Y.K.Y.L.I.Y.D.f.  N J @.3.Q 2.>.2.2.2.2.2.2.-.2.2.2.-.2.2.2.2.2.2.-.<.2.",
"Y.Y.Y.Y.Y.Y.Y.Y.J.Y.L.Y.x.L.G.6 - e.:.1.<.3.3.2.2.-.2.2.2.2.2.2.2.<.2.2.2.2.-.<.2.2.<.",
"Y.Y.Y.Y.Y.Y.Y.L.I.L.I.Y.Y.H.U.j.o S T 1.<.E 2.2.2.<.2.2.2.2.2.2.-.<.2.2.<.-.2.2.<.-.2.",
"Y.Y.Y.Y.Y.Y.Y.L.Y.I.I.Y.I.Y.a.@ : ^ i.E 1.2.6.2.2.2.2.2.2.<.2.2.2.2.2.2.2.2.2.2.2.2.2.",
"Y.Y.Y.Y.Y.Y.Y.Y.H.I.I.Y.N.U.# 0 _ q.1.! 3.<.;.2.2.2.2.2.2.-.2.2.2.2.-.<.2.2.<.2.2.<.-.",
"Y.Y.Y.Y.Y.Y.Y.K.Y.Y.A.I.Y.z O Z | #.3.3.R U 2.2.2.2.<.<.-.2.2.2.2.2.<.-.2.<.-.-.2.2.2.",
"Y.Y.Y.Y.Y.Y.Y.M.L.Y.P.U.V.  f ` L i.! =.3.6.>.2.<.-.-.2.<.2.2.2.2.2.2.2.2.2.2.<.2.2.2.",
"Y.Y.Y.Y.Y.Y.Y.U.z.D.U.Y.c = ` 8.T 2.<.2.-.&.Q 2.2.2.2.2.2.<.-.2.2.2.<.<.2.2.2.2.2.-.<.",
"Y.Y.Y.Y.Y.Y.Y.Y.U.K.L.U.r 8 8.1.1.2.*.*.*.2.2.2.2.2.2.<.2.2.-.<.<.-.-.2.2.2.2.<.2.2.2.",
"Y.Y.Y.Y.Y.Y.Y.Y.Y.M.L.U.5 9 t.1.-.4.4.o.*.<.<.=.2.<.2.-.2.2.<.2.2.2.2.2.-.<.<.-.2.2.2.",
"Y.Y.Y.Y.Y.Y.Y.P.Y.K.M.Y.& a t.1.-.-.o.o.*.2.<.<.2.-.2.2.2.2.2.2.2.2.2.2.2.2.2.-.<.2.2.",
"Y.Y.Y.Y.Y.Y.Y.I.Y.L.L.U.  n t.1.-.=.*.o.*.2.<.<.2.2.2.2.2.2.2.2.2.2.2.2.2.2.2.2.2.2.2.",
"Y.Y.Y.Y.Y.Y.Y.I.Y.L.L.S.X V q.1.<.-.*.o.*.2.2.2.2.2.2.2.-.<.2.2.2.2.2.2.2.=.2.2.2.2.2.",
"Y.Y.Y.Y.Y.Y.Y.L.L.L.Y.d.$ I q.1.<.*.*.*.=.2.2.2.2.2.2.2.-.<.2.2.-.<.2.2.2.2.2.2.2.2.2.",
"Y.Y.Y.Y.Y.Y.Y.Y.J.L.Y.~ , I q.1.<.-.*.*.*.2.-.2.2.2.2.2.2.2.-.<.2.2.2.2.2.2.2.2.2.2.2.",
"Y.Y.Y.Y.Y.Y.Y.Y.m.I.Y.y 2 ] u.1.<.2.*.*.-.2.2.2.2.-.2.2.<.2.2.2.<.-.2.2.2.2.-.2.2.2.<.",
"Y.Y.Y.Y.Y.Y.Y.Y.m.L.U.4 q 0.t.<.<.;.*.>.2.-.2.2.<.<.2.2.2.2.<.-.-.<.<.2.2.2.<.2.2.2.2.",
"Y.Y.Y.Y.Y.Y.Y.J.Y.Y.F.; s ^ #.1.<.<.2.>.>.-.-.2.-.<.-.<.2.2.2.2.2.2.-.2.2.2.2.2.2.2.<.",
"Y.Y.Y.Y.Y.Y.Y.n.Y.G.U.+ B K @.>.<.<.>.2.-.-.-.2.2.2.2.2.2.2.2.2.2.2.<.2.2.2.2.<.<.-.-.",
"Y.Y.Y.Y.Y.Y.Y.L.I.U.h.= D +.>.<.<.<.<.;.>.-.-.>.2.2.2.2.2.-.2.<.2.2.2.2.2.-.-.2.2.2.<.",
"Y.Y.Y.Y.Y.Y.Y.Y.B.F.< 7 / ,.>.<.3.<.<.<.;.>.-.2.2.2.2.2.2.<.2.-.2.2.2.2.2.<.<.2.-.2.2.",
"Y.Y.Y.Y.Y.Y.Y.L.Y.l o m $.>.*.<.<.<.<.<.2.2.2.2.2.-.<.2.2.2.<.2.<.2.<.-.2.2.2.-.<.2.2.",
"Y.Y.Y.Y.Y.Y.Y.P.F.  j r.+.>.&.<.<.<.2.>.2.>.-.2.2.2.2.2.2.<.-.2.-.2.2.<.2.2.2.<.2.2.-.",
"Y.Y.Y.Y.Y.Y.Y.Y.p.@ ) | +.<.=.2.<.<.<.;.2.>.-.;.2.2.<.2.2.2.2.2.2.2.-.2.2.2.-.<.2.2.2.",
"Y.U.L.L.Y.L.U.U.< 3 ..( ;.1.<.2.<.3.>.<.>.2.-.2.2.2.2.-.2.2.-.2.2.2.<.2.2.<.2.2.2.2.2.",
"Y.L.L.M.L.Y.G.l.. k [ O.;.1.<.<.<.<.3.;.2.-.-.2.-.<.2.<.2.2.<.2.2.2.2.<.2.2.<.-.2.2.2.",
"U.U.L.M.H.Y.Y.x $ ) F ,.1.=.3.<.<.<.,.<.;.2.-.2.2.2.-.<.2.2.2.2.2.2.2.-.2.2.2.2.2.<.-.",
"H.Y.b.L.L.I.k.  p ' D >.1.2.3.<.<.>.>.<.<.2.2.2.2.2.2.2.2.2.2.2.-.2.<.-.2.2.<.<.-.2.-.",
"H.L.M.L.U.Y.v +  .| O.>.<.<.2.<.<.<.3.>.2.2.2.2.2.2.2.2.2.2.2.2.<.2.<.2.2.2.-.2.2.<.2.",
"Y.b.L.L.H.C.X s ( w.+.>.-.3.=.2.;.<.>.<.<.2.2.2.2.2.2.2.2.2.2.2.2.2.2.-.-.<.2.2.2.2.2.",
"L.b.L.L.G.b + ] G ,.&.-.-.-.-.2.>.3.1.<.<.2.2.2.2.2.2.-.2.2.2.2.2.2.2.<.2.2.2.2.2.2.2.",
"L.J.b.Y.G.  g L ,.3.2.-.-.W 2.-.;.<.<.3.2.<.<.2.2.2.2.2.2.2.2.2.2.2.<.-.2.<.2.2.2.2.2.",
"L.v.Y.F.t , A #.<.2.2.-.-.-.-.2.>.<.<.<.<.<.-.2.2.2.2.2.2.2.2.2.2.2.2.2.2.-.2.2.2.2.2.",
"L.L.L.Y.O i } :.<.2.-.-.-.-.-.;.1.2.<.<.<.=.<.=.2.2.2.2.2.2.2.2.2.2.2.2.<.2.2.<.2.2.2.",
"I.L.I.g.X P 9.1.<.2.-.-.-.-.-.2.2.2.1.1.2.-.-.2.2.2.2.2.-.2.2.2.-.<.2.2.2.2.2.-.=.2.<.",
"L.L.P.r 1 | O.>.<.2.-.-.-.-.2.2.<.1.<.<.<.-.-.<.2.-.2.2.2.2.2.2.2.2.2.2.2.2.2.2.2.2.2.",
"c.Y.G.% d u.T <.<.<.2.-.*.-.2.<.<.1.<.<.<.-.-.2.2.2.2.2.2.2.2.2.<.2.2.2.2.2.2.2.2.2.2.",
"Y.J.G.O M #.<.<.<.<.>.*.*.2.2.<.<.1.1.<.-.-.-.2.2.2.2.2.2.2.2.2.-.<.2.2.2.2.2.2.2.2.2."
};
