/* XPM */
static char *tile1701719244610[] = {
/* columns rows colors chars-per-pixel */
"43 43 134 2 ",
"   c #00090F",
".  c #000510",
"X  c #000619",
"o  c #000B1B",
"O  c #000220",
"+  c #000C21",
"@  c #00032B",
"#  c #00092B",
"$  c #001122",
"%  c #01152E",
"&  c #021B2B",
"*  c #000C3D",
"=  c #001533",
"-  c #041D37",
";  c #021A39",
":  c #11283A",
">  c #2A3C3C",
",  c #000740",
"<  c #001241",
"1  c #122840",
"2  c #1E2D4C",
"3  c #162657",
"4  c #192851",
"5  c #162A5D",
"6  c #1B305B",
"7  c #293446",
"8  c #112A63",
"9  c #122368",
"0  c #163665",
"q  c #183766",
"w  c #1B356A",
"e  c #3A4255",
"r  c #2D456B",
"t  c #45595A",
"y  c #505A64",
"u  c #5C6668",
"i  c #657A7F",
"p  c #3D5C88",
"a  c #314E90",
"s  c #345193",
"d  c #3F5495",
"f  c #455B97",
"g  c #425A9A",
"h  c #5F7489",
"j  c #4458AF",
"k  c #4A6CAC",
"l  c #566FA5",
"z  c #536BB1",
"x  c #5172B5",
"c  c #5670BB",
"v  c #5178B9",
"b  c #5D7FE3",
"n  c #5579EB",
"m  c #5D7DEA",
"M  c #4A71F4",
"N  c #4E7EFA",
"B  c #5777F2",
"V  c #537BF6",
"C  c #5577FF",
"Z  c #5A7CFD",
"A  c #71858E",
"S  c #79828B",
"D  c #7984A4",
"F  c #5E85D2",
"G  c #5A85DA",
"H  c #5A88DE",
"J  c #6686D4",
"K  c #6B85D3",
"L  c #638AD7",
"P  c #6583DD",
"I  c #7188D6",
"U  c #7896D2",
"Y  c #4B8CE4",
"T  c #4983EE",
"R  c #4E8DED",
"E  c #5B88E5",
"W  c #5F87E9",
"Q  c #508CEE",
"!  c #5B89EB",
"~  c #5294EC",
"^  c #4C84F6",
"/  c #4E8BF3",
"(  c #4F85FC",
")  c #4E8AF8",
"_  c #5485F5",
"`  c #5B87F2",
"'  c #5189F7",
"]  c #5A88F5",
"[  c #5286FC",
"{  c #5C85FE",
"}  c #5189FC",
"|  c #5A8BFE",
" . c #5691F5",
".. c #6283E2",
"X. c #6A8DE1",
"o. c #6485EB",
"O. c #6D86EA",
"+. c #7089E6",
"@. c #6380F5",
"#. c #6B86F1",
"$. c #6189FF",
"%. c #6B8CFF",
"&. c #6A91FA",
"*. c #869AA3",
"=. c #99A0B0",
"-. c #B0BCB8",
";. c #A2B1C4",
":. c #BCC8C6",
">. c #C3CCD5",
",. c #C5D9D0",
"<. c #D7E0DD",
"1. c #DEE3E6",
"2. c #D6E7F7",
"3. c #E7EAEF",
"4. c #E7F1E9",
"5. c #EDF4EC",
"6. c #EFFBEF",
"7. c #F2F6EB",
"8. c #F2FDEA",
"9. c #FAFFED",
"0. c #E3EBF6",
"q. c #EDEAF1",
"w. c #EBEEFF",
"e. c #F2EFF8",
"r. c #FDEFFF",
"t. c #EFF6FF",
"y. c #ECFFFB",
"u. c #F5F4F3",
"i. c #F5FDF5",
"p. c #FDFEF5",
"a. c #F4F5FF",
"s. c #FDF5FF",
"d. c #F5FEFC",
"f. c #FFFFFF",
/* pixels */
"f.f.f.f.f.f.f.f.f.f.f.f.f.f.f.f.f.f.f.f.f.f.f.f.f.f.f.f.f.f.f.f.f.f.f.s.p.f.d.d.f.f.u.",
"f.f.f.f.f.f.f.f.f.f.f.f.f.f.f.f.f.f.f.f.f.f.f.f.f.f.f.f.f.f.f.f.f.f.f.f.p.i.d.d.f.f.f.",
"f.f.f.f.f.f.f.f.f.f.f.f.f.f.f.f.f.f.f.f.f.f.f.f.f.f.f.f.f.f.f.f.f.f.f.d.f.i.d.f.f.s.s.",
"f.f.f.f.f.f.f.f.f.f.f.f.f.f.f.f.f.f.f.f.f.f.f.f.f.f.f.f.f.f.f.f.f.f.f.f.d.d.f.d.f.f.s.",
"f.f.f.f.f.f.f.f.f.f.f.f.f.f.f.f.f.f.f.f.f.f.f.f.f.f.f.f.f.f.f.f.f.f.f.d.d.f.f.d.f.f.s.",
"f.f.f.f.f.f.f.f.f.f.f.f.f.f.f.f.f.f.f.f.f.f.f.f.f.f.f.f.f.f.f.f.f.f.f.f.f.d.f.f.f.f.f.",
"f.f.f.f.f.f.f.f.f.f.f.f.f.f.f.f.f.f.f.f.f.f.f.f.f.f.f.f.f.f.f.f.f.f.i.f.f.f.d.f.f.f.3.",
"f.f.f.f.f.f.f.f.f.f.f.f.f.f.f.f.f.f.f.f.f.f.f.f.f.f.f.f.f.f.f.f.f.f.f.f.f.d.f.f.p.f.d.",
"f.f.f.f.f.f.f.f.f.f.f.f.f.f.f.f.f.f.f.f.f.f.f.f.f.f.f.f.f.f.f.f.f.f.p.p.s.f.f.f.i.d.d.",
"f.f.f.f.f.f.f.f.f.f.f.f.f.f.f.f.f.f.f.f.f.f.f.f.f.f.f.f.f.f.f.f.f.f.p.f.f.f.f.i.i.d.A ",
"f.f.f.f.f.f.f.f.f.f.f.f.f.f.f.f.f.f.f.f.f.f.f.f.f.f.f.f.f.f.f.f.f.f.f.p.s.q.f.i.6.d.& ",
"f.f.f.f.f.f.f.f.f.f.f.f.f.f.f.f.f.f.f.f.f.f.f.f.f.f.f.f.f.f.f.f.f.f.u.f.e.f.e.f.d.*.= ",
"f.f.f.f.f.f.f.f.f.f.f.f.f.f.f.f.f.f.f.f.f.f.f.f.f.f.f.f.f.f.f.f.f.f.f.f.f.f.u.d.d.1 q ",
"f.f.f.f.f.f.f.f.f.f.f.f.f.f.f.f.f.f.f.f.f.f.f.f.f.f.f.f.f.f.f.f.f.f.f.s.f.u.f.d.;.# x ",
"f.f.f.f.f.f.f.f.f.f.f.f.f.f.f.f.f.f.f.f.f.f.f.f.f.f.f.f.f.f.f.f.f.f.f.f.u.p.u.f.4 w X.",
"f.f.f.f.f.f.f.f.f.f.f.f.f.f.f.f.f.f.f.f.f.f.f.f.f.f.f.f.f.f.f.f.f.f.s.f.f.p.p.>.@ z b ",
"f.f.f.f.f.f.f.f.f.f.f.f.f.f.f.f.f.f.f.f.f.f.f.f.f.f.f.f.f.f.f.f.f.f.f.a.p.p.7.y 3 K n ",
"f.f.f.f.f.f.f.f.f.f.f.f.f.f.f.f.f.f.f.f.f.f.f.f.f.f.f.f.f.f.f.f.f.f.s.s.5.i.:.+ g ..$.",
"f.f.f.f.f.f.f.f.f.f.f.f.f.f.f.f.f.f.f.f.f.f.f.f.f.f.f.f.f.f.f.f.f.f.s.s.7.d.& 0 ..V [ ",
"f.f.f.f.f.f.f.f.f.f.f.f.f.f.f.f.f.f.f.f.f.f.f.f.f.f.f.f.f.f.f.f.f.f.r.s.f.t ; v ] { [ ",
"f.f.f.f.f.f.f.f.f.f.f.f.f.f.f.f.f.f.f.f.f.f.f.f.f.f.f.f.f.f.f.f.f.f.s.s.1.. p L ] [ ( ",
"f.f.f.f.f.f.f.f.f.f.f.f.f.f.f.f.f.f.f.f.f.f.f.f.f.f.f.f.f.f.f.f.f.f.f.e.S % U G { ( } ",
"f.f.f.f.f.f.f.f.f.f.f.f.f.f.f.f.f.f.f.f.f.f.f.f.f.f.f.f.f.f.f.f.f.f.p.f.7 6 J &.N | ' ",
"f.f.f.f.f.f.f.f.f.f.f.f.f.f.f.f.f.f.f.f.f.f.f.f.f.f.f.f.f.f.f.f.f.f.7.f.O f ..@.N [ / ",
"f.f.f.f.f.f.f.f.f.f.f.f.f.f.f.f.f.f.f.f.f.f.f.f.f.f.f.f.f.f.f.f.f.p.8.-.@ I %.M [ ^ Q ",
"f.f.f.f.f.f.f.f.f.f.f.f.f.f.f.f.f.f.f.f.f.f.f.f.f.f.f.f.f.f.f.f.p.f.i.> 5 +.C { [ } Q ",
"f.f.f.f.f.f.f.f.f.f.f.f.f.f.f.f.f.f.f.f.f.f.f.f.f.f.f.f.f.f.f.f.f.i.i.  d #.C { [ } Q ",
"f.f.f.f.f.f.f.f.f.f.f.f.f.f.f.f.f.f.f.f.f.f.f.f.f.f.i.f.s.i.f.f.f.f.,.$ c @.Z [ ^ _ Q ",
"f.f.f.f.f.f.f.f.f.f.f.f.f.f.f.f.f.f.f.f.f.f.f.f.f.f.f.f.f.u.f.f.u.d.h - P B { [ / / R ",
"f.f.f.f.f.f.f.f.f.f.f.f.f.f.f.f.f.f.f.f.f.f.f.f.f.f.f.f.f.i.f.f.f.f.: q O.V { ( / R / ",
"f.f.f.f.f.f.f.f.f.f.f.f.f.f.f.f.f.f.f.f.f.f.f.f.f.f.f.u.f.f.f.u.f.0.# k o.{ [ ^ R Y / ",
"f.f.f.f.f.f.f.f.f.f.f.f.f.f.f.f.f.f.f.f.f.f.f.f.f.f.f.u.f.f.f.u.f.=.* J n $.( T ~ Y / ",
"f.f.f.f.f.f.f.f.f.f.f.f.f.f.f.f.f.f.f.f.f.f.f.f.f.f.f.f.f.f.d.e.p.e 8 ..n { ' ~ ~ Y ) ",
"f.f.f.f.f.f.f.f.f.f.f.f.f.f.f.f.f.f.f.f.f.f.f.f.p.f.u.f.s.f.f.f.f.+ s W $.N | ' Y R } ",
"f.f.f.f.f.f.f.f.f.f.f.f.f.f.f.f.f.p.p.f.f.f.f.d.p.p.p.f.r.f.f.a.<.X F _ _ } ' ' ' ' } ",
"f.f.f.f.f.f.f.f.f.f.f.f.f.f.f.f.f.f.p.p.f.f.d.f.p.p.p.f.f.s.e.w.u - G / ' ' ' } } | } ",
"f.f.f.f.f.f.f.f.f.f.f.f.f.f.f.f.f.f.p.p.f.d.f.d.p.p.p.p.f.s.f.d.o r H / } ' ) } } } } ",
"f.f.f.f.f.f.f.f.f.f.f.f.f.f.f.f.f.f.p.p.f.f.f.f.p.p.p.p.p.f.t.t.X l W ' } } ' } ( ( } ",
"f.f.f.f.f.f.f.f.f.f.f.f.f.f.f.f.f.f.f.f.f.f.f.d.f.p.p.p.p.u.d.D , I W } ' ' } ( ( ( } ",
"f.f.f.f.f.f.f.f.f.f.f.f.f.f.f.f.f.f.i.f.f.f.f.d.f.f.p.p.p.3.d.4 9 b ! } } } ( } ( ( } ",
"f.f.f.f.f.f.f.f.f.f.f.f.f.f.f.f.f.f.f.f.f.f.d.f.f.f.p.9.9.8.2.< j m ] } } ( ( } } } } ",
"f.f.f.f.f.f.f.f.f.f.f.f.f.f.f.f.f.f.f.f.f.f.f.f.f.f.p.p.9.d.h , O.%.[ } } } } ( } ( } ",
"f.f.f.f.f.f.f.f.f.f.f.f.f.f.f.f.f.f.s.f.i.p.f.f.f.f.p.p.6.y.; a m { [ } } } } } } } } "
};
