/* XPM */
static char *tile1711719244610[] = {
/* columns rows colors chars-per-pixel */
"43 43 187 2 ",
"   c #FFFDFD",
".  c #F1F1F1",
"X  c #97A3B1",
"o  c #001840",
"O  c #5C84CC",
"+  c #4A7FE9",
"@  c #548CFF",
"#  c #5487FC",
"$  c #5587F8",
"%  c #5488F6",
"&  c #5189F6",
"*  c #508AF6",
"=  c #4E8BF6",
"-  c #5089FA",
";  c #5387FD",
":  c #5486FF",
">  c #5585FF",
",  c #5784FF",
"<  c #5387FF",
"1  c #5089FD",
"2  c #4D8BFA",
"3  c #5188FF",
"4  c #F0EBF1",
"5  c #FEFFFF",
"6  c #1B283B",
"7  c #1A3665",
"8  c #5D89D4",
"9  c #4D82F2",
"0  c #4983FF",
"q  c #5488F8",
"w  c #5388F8",
"e  c #508AF8",
"r  c #5188FC",
"t  c #4E8AFC",
"y  c #FEF7FF",
"u  c #F2F4FF",
"i  c #0A1832",
"p  c #375587",
"a  c #5F8AD9",
"s  c #5388FA",
"d  c #4E87FF",
"f  c #5187FF",
"g  c #5188FD",
"h  c #FFFBFF",
"j  c #DEE0F5",
"k  c #000A2B",
"l  c #5473AA",
"z  c #648EE2",
"x  c #497EF2",
"c  c #4D86FF",
"v  c #5088FF",
"b  c #E8E7F9",
"n  c #646A82",
"m  c #001036",
"M  c #6180C0",
"N  c #5C88E1",
"B  c #558CFF",
"V  c #518CFF",
"C  c #FBFEFF",
"Z  c #091231",
"A  c #2E4274",
"S  c #688AD2",
"D  c #5684E2",
"F  c #558EFF",
"G  c #4B87FF",
"H  c #ECF3FF",
"J  c #00062D",
"K  c #4F67A3",
"L  c #678BDF",
"P  c #5989EF",
"I  c #4782F6",
"U  c #4886FF",
"Y  c #566278",
"T  c #021444",
"R  c #627EC7",
"E  c #577EDD",
"W  c #5386F3",
"Q  c #538EFF",
"!  c #4A88FF",
"~  c #000F28",
"^  c #334C85",
"/  c #7494E7",
"(  c #5580E9",
")  c #4D80F5",
"_  c #5592FF",
"`  c #4684FB",
"'  c #001132",
"]  c #5D7CBF",
"[  c #5D84E3",
"{  c #5E8CFC",
"}  c #4F86FD",
"|  c #4481F6",
" . c #4D8CFE",
".. c #355480",
"X. c #5477C8",
"o. c #5883EC",
"O. c #5D8EFF",
"+. c #4E86FF",
"@. c #4380F3",
"#. c #5391FF",
"$. c #476AA4",
"%. c #6992EC",
"&. c #5684F4",
"*. c #4F82FF",
"=. c #5289FF",
"-. c #4E89FD",
";. c #4F8BFD",
":. c #597FC8",
">. c #6E9BFF",
",. c #5184FA",
"<. c #497FFD",
"1. c #548BFF",
"2. c #538CFF",
"3. c #4E87F8",
"4. c #5D86E0",
"5. c #5989F8",
"6. c #4E82FC",
"7. c #5087FF",
"8. c #528AFF",
"9. c #4F86FA",
"0. c #5189FA",
"q. c #5A85EE",
"w. c #4C7FF5",
"e. c #4D84FF",
"r. c #558DFF",
"t. c #4F84F4",
"y. c #558AFA",
"u. c #5683FA",
"i. c #5487FF",
"p. c #508AFF",
"a. c #4F8AFF",
"s. c #518AFD",
"d. c #5589F7",
"f. c #5481FF",
"g. c #568BFF",
"h. c #528BFF",
"j. c #4B86FC",
"k. c #598DFB",
"l. c #5789F8",
"z. c #4F7EFF",
"x. c #4C83FF",
"c. c #4C87FD",
"v. c #4E85F9",
"b. c #568AFA",
"n. c #578BFB",
"m. c #5086FF",
"M. c #4F87FE",
"N. c #4F87FF",
"B. c #5087FE",
"V. c #5087FB",
"C. c #4F88FB",
"Z. c #4F88FC",
"A. c #5088F9",
"S. c #4F88F9",
"D. c #5087FC",
"F. c #5088F7",
"G. c #4F89F5",
"H. c #5285FF",
"J. c #5088F5",
"K. c #4F8AF2",
"L. c #5089F4",
"P. c #4F8AF0",
"I. c #5284FF",
"U. c #5288F5",
"Y. c #5288F4",
"T. c #4F8AEE",
"R. c #5287FB",
"E. c #5288F2",
"W. c #508BF1",
"Q. c #5386FF",
"!. c #5485FF",
"~. c #5389F5",
"^. c #518AF3",
"/. c #5488F5",
"(. c #5388FC",
"). c #5584FF",
"_. c #5484FF",
"`. c #5586FF",
"'. c #5587FA",
"]. c #5583FF",
"[. c #5785FF",
"{. c #5586FC",
"}. c #5785FD",
"|. c #5586FD",
" X c #5487FD",
".X c #5483FF",
"XX c white",
/* pixels */
"  . X o O + @ # $ % & * = - ; : > , > < 1 2 2 1 3 3 3 3 3 3 3 3 3 3 3 3 3 3 3 3 3 3 3 ",
"4 5 6 7 8 9 0 ; q w & e e r ; : : > : < 1 t t 1 3 3 3 3 3 3 3 3 3 3 3 3 3 3 3 3 3 3 3 ",
"y u i p a s d f ; g r g g g 3 < < < < 3 3 1 1 3 3 3 3 3 3 3 3 3 3 3 3 3 3 3 3 3 3 3 3 ",
"h j k l z x c v 3 3 3 3 3 3 3 3 3 3 3 3 3 3 3 3 3 3 3 3 3 3 3 3 3 3 3 3 3 3 3 3 3 3 3 ",
"b n m M N B V v 3 3 3 3 3 3 3 3 3 3 3 3 3 3 3 3 3 3 3 3 3 3 3 3 3 3 3 3 3 3 3 3 3 3 3 ",
"C Z A S D F G v 3 3 3 3 3 3 3 3 3 3 3 3 3 3 3 3 3 3 3 3 3 3 3 3 3 3 3 3 3 3 3 3 3 3 3 ",
"H J K L P I U v 3 3 3 3 3 3 3 3 3 3 3 3 3 3 3 3 3 3 3 3 3 3 3 3 3 3 3 3 3 3 3 3 3 3 3 ",
"Y T R E W Q ! v 3 3 3 3 3 3 3 3 3 3 3 3 3 3 3 3 3 3 3 3 3 3 3 3 3 3 3 3 3 3 3 3 3 3 3 ",
"~ ^ / ( ) _ ` v 3 3 3 3 3 3 3 3 3 3 3 3 3 3 3 3 3 3 3 3 3 3 3 3 3 3 3 3 3 3 3 3 3 3 3 ",
"' ] [ { } |  .v 3 3 3 3 3 3 3 3 3 3 3 3 3 3 3 3 3 3 3 3 3 3 3 3 3 3 3 3 3 3 3 3 3 3 3 ",
"..X.o.O.+.@.#.1 3 3 3 3 3 3 3 3 3 3 3 3 3 3 3 3 3 3 3 3 3 3 3 3 3 3 3 3 3 3 3 3 3 3 3 ",
"$.%.&.*.=.-.;.1 3 3 3 3 3 3 3 3 3 3 3 3 3 3 3 3 3 3 3 3 3 3 3 3 3 3 3 3 3 3 3 3 3 3 3 ",
":.>.,.<.1.2.3.g 3 3 3 3 3 3 3 3 3 3 3 3 3 3 3 3 3 3 3 3 3 3 3 3 3 3 3 3 3 3 3 3 3 3 3 ",
"4.5.6.7.8.9.0.g 3 3 3 3 3 3 3 3 3 3 3 3 3 3 3 3 3 3 3 3 3 3 3 3 3 3 3 3 3 3 3 3 3 3 3 ",
"q.w.e.r.v t.y.g 3 3 3 3 3 3 3 3 3 3 3 3 3 3 3 3 3 3 3 3 3 3 3 3 3 3 3 3 3 3 3 3 3 3 3 ",
"u.i.p.a.s.y.d.; 3 3 3 3 3 3 3 3 3 3 3 3 3 3 3 3 3 3 3 3 3 3 3 3 3 3 3 3 3 3 3 3 3 3 3 ",
"f.g.h.j.- k.l.; 3 3 3 3 3 3 3 3 3 3 3 3 3 3 3 3 3 3 3 3 3 3 3 3 3 3 3 3 3 3 3 3 3 3 3 ",
"z.x.p.c.v.b.n.; 3 3 3 3 3 3 3 3 3 3 3 3 3 3 3 3 3 3 3 3 3 3 3 3 3 3 3 3 3 3 3 3 3 3 3 ",
"m.M.M.N.B.V.V.g 3 3 3 3 3 3 3 3 3 3 3 3 3 3 3 3 3 3 3 3 3 3 3 3 3 3 3 3 3 3 3 3 3 3 3 ",
"M.C.C.m.m.Z.C.g 3 3 3 3 3 3 3 3 3 3 3 3 3 3 3 3 3 3 3 3 3 3 3 3 3 3 3 3 3 3 3 3 3 3 3 ",
"Z.A.V.m.m.V.A.g 3 3 3 3 3 3 3 3 3 3 3 3 3 3 3 3 3 3 3 3 3 3 3 3 3 3 3 3 3 3 3 3 3 3 3 ",
"S.A.D.m.m.V.F.g 3 3 3 3 3 3 3 3 3 3 3 3 3 3 3 3 3 3 3 3 3 3 3 3 3 3 3 3 3 3 3 3 3 3 3 ",
"G.A.B.H.H.A.J.r 3 3 3 3 3 3 3 3 3 3 3 3 3 3 3 3 3 3 3 3 3 3 3 3 3 3 3 3 3 3 3 3 3 3 3 ",
"K.A.m.H.H.F.L.r 3 3 3 3 3 3 3 3 3 3 3 3 3 3 3 3 3 3 3 3 3 3 3 3 3 3 3 3 3 3 3 3 3 3 3 ",
"P.A.H.I.H.U.Y.r 3 3 3 3 3 3 3 3 3 3 3 3 3 3 3 3 3 3 3 3 3 3 3 3 3 3 3 3 3 3 3 3 3 3 3 ",
"T.R.H.I.H.U.E.r 3 3 3 3 3 3 3 3 3 3 3 3 3 3 3 3 3 3 3 3 3 3 3 3 3 3 3 3 3 3 3 3 3 3 3 ",
"W.; Q.!.: % ~.r 3 3 3 3 3 3 3 3 3 3 3 3 3 3 3 3 3 3 3 3 3 3 3 3 3 3 3 3 3 3 3 3 3 3 3 ",
"^.< Q.!.: q /.(.3 3 3 3 3 3 3 3 3 3 3 3 3 3 3 3 3 3 3 3 3 3 3 3 3 3 3 3 3 3 3 3 3 3 3 ",
"& Q.!.).> $ % (.3 3 3 3 3 3 3 3 3 3 3 3 3 3 3 3 3 3 3 3 3 3 3 3 3 3 3 3 3 3 3 3 3 3 3 ",
"0.Q._.> `.'.q ; 3 3 3 3 3 3 3 3 3 3 3 3 3 3 3 3 3 3 3 3 3 3 3 3 3 3 3 3 3 3 3 3 3 3 3 ",
"g !.]., [.{.# ; 3 3 3 3 3 3 3 3 3 3 3 3 3 3 3 3 3 3 3 3 3 3 3 3 3 3 3 3 3 3 3 3 3 3 3 ",
"f _.]., }.|. X< 3 3 3 3 3 3 3 3 3 3 3 3 3 3 3 3 3 3 3 3 3 3 3 3 3 3 3 3 3 3 3 3 3 3 3 ",
"f .X]., }.`.: < 3 3 3 3 3 3 3 3 3 3 3 3 3 3 3 3 3 3 3 3 3 3 3 3 3 3 3 3 3 3 3 3 3 3 3 ",
"f _._.> `.: : < 3 3 3 3 3 3 3 3 3 3 3 3 3 3 3 3 3 3 3 3 3 3 3 3 3 3 3 3 3 3 3 3 3 3 3 ",
"f Q.Q.Q.< Q.Q.f 3 3 3 3 3 3 3 3 3 3 3 3 3 3 3 3 3 3 3 3 3 3 3 3 3 3 3 3 3 3 3 3 3 3 3 ",
"3 f f f f f f f 3 3 3 3 3 3 3 3 3 3 3 3 3 3 3 3 3 3 3 3 3 3 3 3 3 3 3 3 3 3 3 3 3 3 3 ",
"3 f f f f f f f 3 3 3 3 3 3 3 3 3 3 3 3 3 3 3 3 3 3 3 3 3 3 3 3 3 3 3 3 3 3 3 3 3 3 3 ",
"3 f f f f f f f 3 3 3 3 3 3 3 3 3 3 3 3 3 3 3 3 3 3 3 3 3 3 3 3 3 3 3 3 3 3 3 3 3 3 3 ",
"3 f f f f f f f 3 3 3 3 3 3 3 3 3 3 3 3 3 3 3 3 3 3 3 3 3 3 3 3 3 3 3 3 3 3 3 3 3 3 3 ",
"3 f f f f f f 3 3 3 3 3 3 3 3 3 3 3 3 3 3 3 3 3 3 3 3 3 3 3 3 3 3 3 3 3 3 3 3 3 3 3 3 ",
"3 3 3 f f f f 3 3 3 3 3 3 3 3 3 3 3 3 3 3 3 3 3 3 3 3 3 3 3 3 3 3 3 3 3 3 3 3 3 3 3 3 ",
"3 3 3 f f f f 3 3 3 3 3 3 3 3 3 3 3 3 3 3 3 3 3 3 3 3 3 3 3 3 3 3 3 3 3 3 3 3 3 3 3 3 ",
"g 3 3 3 3 3 3 3 3 3 3 3 3 3 3 3 3 3 3 3 3 3 3 3 3 3 3 3 3 3 3 3 3 3 3 3 3 3 3 3 3 3 3 "
};
