/* XPM */
static char *tile1791719244610[] = {
/* columns rows colors chars-per-pixel */
"43 43 27 1 ",
"  c #5188FF",
". c #5188FD",
"X c #5387FD",
"o c #5388FC",
"O c #5187FF",
"+ c #5387FF",
"@ c #5488F8",
"# c #5488F6",
"$ c #5388FA",
"% c #5088FF",
"& c #5386FF",
"* c #5485FF",
"= c #5585FF",
"- c #5785FF",
"; c #5785FD",
": c #5786FC",
"> c #5488F5",
", c #5186FF",
"< c #5784FF",
"1 c #5884FF",
"2 c #5885FC",
"3 c #5885FA",
"4 c #5487FA",
"5 c #5486FF",
"6 c #5586FD",
"7 c #5487FD",
"8 c white",
/* pixels */
"                                           ",
"                                           ",
"                                           ",
"                                           ",
"                                           ",
"                                           ",
"                                           ",
"                                           ",
"                                           ",
"                                           ",
"                                           ",
"                                           ",
"                                           ",
"                                           ",
"                                           ",
"                                           ",
"                                           ",
"                                           ",
"                                           ",
"                                           ",
"                                           ",
"                                           ",
"                                           ",
"                                           ",
"                                           ",
"                                           ",
"                                           ",
"                                           ",
"                                           ",
"                                           ",
"                                           ",
"                                           ",
"                                           ",
"                                           ",
"                                           ",
"                                           ",
"                                           ",
"                                           ",
"                              .Xo. OOO++++X",
"                              o@#$ %O&*=-;:",
"                              o#>$.%,&*<123",
"                              X@#$.%O&*=-;:",
"                              .44oXOOO&5567"
};
