/* XPM */
static char *tile1801719244610[] = {
/* columns rows colors chars-per-pixel */
"43 43 184 2 ",
"   c #000316",
".  c #00091F",
"X  c #000224",
"o  c #000A23",
"O  c #010529",
"+  c #000C2A",
"@  c #000231",
"#  c #000B36",
"$  c #00043B",
"%  c #000D3B",
"&  c #081631",
"*  c #01133B",
"=  c #01183A",
"-  c #0D263C",
";  c #18293B",
":  c #000E43",
">  c #001244",
",  c #031948",
"<  c #0C1B4A",
"1  c #101E45",
"2  c #001251",
"3  c #162648",
"4  c #132344",
"5  c #15304D",
"6  c #112256",
"7  c #333C41",
"8  c #212E51",
"9  c #263459",
"0  c #0F2C66",
"q  c #1E3374",
"w  c #203670",
"e  c #3D4552",
"r  c #35476F",
"t  c #3C4B68",
"y  c #4B5368",
"u  c #44567A",
"i  c #535875",
"p  c #5E6776",
"a  c #636A7C",
"s  c #657479",
"d  c #273B82",
"f  c #3B4C82",
"g  c #3D508B",
"h  c #334494",
"j  c #3E5B9F",
"k  c #31569C",
"l  c #3458A2",
"z  c #385AB1",
"x  c #415788",
"c  c #616281",
"v  c #6B7E85",
"b  c #687393",
"n  c #4866A6",
"m  c #4E66B0",
"M  c #4A6CB4",
"N  c #5277BE",
"B  c #5978B8",
"V  c #5678B6",
"C  c #6176BE",
"Z  c #3F7CE7",
"A  c #506FC2",
"S  c #5F79C6",
"D  c #5075CD",
"F  c #5F75C8",
"G  c #5E76D6",
"H  c #517ED2",
"J  c #507DD8",
"K  c #5B79D1",
"L  c #4679D4",
"P  c #657FC9",
"I  c #677FC2",
"U  c #607BD2",
"Y  c #467AE7",
"T  c #417BEB",
"R  c #5377EF",
"E  c #547EEB",
"W  c #5A7DE9",
"Q  c #5A7BE4",
"!  c #457DF3",
"~  c #4A7DF5",
"^  c #4C7FFE",
"/  c #577FFC",
"(  c #788990",
")  c #5C80B0",
"_  c #7F8AA8",
"`  c #7D89A3",
"'  c #6383B2",
"]  c #5E86D2",
"[  c #5C81DC",
"{  c #5F89DF",
"}  c #6188C9",
"|  c #6C84CE",
" . c #7587C9",
".. c #778CCF",
"X. c #6285D7",
"o. c #698FD6",
"O. c #6284DC",
"+. c #6C8CDA",
"@. c #678CDC",
"#. c #758AD2",
"$. c #708BDC",
"%. c #6990DD",
"&. c #7490D9",
"*. c #4C83E4",
"=. c #4A85EE",
"-. c #4888E9",
";. c #5583E3",
":. c #5F8DE6",
">. c #5485EC",
",. c #548BED",
"<. c #5B8CEC",
"1. c #5985EE",
"2. c #4B83F3",
"3. c #4788F0",
"4. c #4D8AF4",
"5. c #4680FE",
"6. c #4C84FC",
"7. c #4C89FC",
"8. c #5386F5",
"9. c #5C83F3",
"0. c #5289F4",
"q. c #5A8CF3",
"w. c #5286FD",
"e. c #5B83FD",
"r. c #5188FE",
"t. c #5A8CFE",
"y. c #4E91F3",
"u. c #5093F5",
"i. c #5491FD",
"p. c #5A92FE",
"a. c #5E96F3",
"s. c #6482E4",
"d. c #668CE5",
"f. c #6E8AE5",
"g. c #628DEC",
"h. c #6E88E9",
"j. c #6285ED",
"k. c #6493EB",
"l. c #7596E7",
"z. c #6182F3",
"x. c #628BF6",
"c. c #6689FF",
"v. c #708FF9",
"b. c #6090F2",
"n. c #6091FF",
"m. c #6C9AF2",
"M. c #99A49E",
"N. c #9194A3",
"B. c #9DADB5",
"V. c #9DA5BA",
"C. c #A7B5B6",
"Z. c #AEB3C7",
"A. c #B4BFC3",
"S. c #D5DFD6",
"D. c #EEF6DF",
"F. c #DAE2EF",
"G. c #D7E5F0",
"H. c #DCE7F0",
"J. c #DFE8F7",
"K. c #E3E7E8",
"L. c #E7E7E8",
"P. c #F1E7EF",
"I. c #F7EDEB",
"U. c #EEF3EF",
"Y. c #F5F5ED",
"T. c #FDFEED",
"R. c #F2FAEF",
"E. c #E1E7FD",
"W. c #E2E8FE",
"Q. c #E9E8F8",
"!. c #EDEAF5",
"~. c #F2EBF5",
"^. c #F7EFFC",
"/. c #ECF3F5",
"(. c #EFF5FC",
"). c #EBFDFF",
"_. c #F5F5F4",
"`. c #FAF6F3",
"'. c #F5FDF3",
"]. c #FDFEF4",
"[. c #F5F4FC",
"{. c #FBF5FC",
"}. c #F4FDFF",
"|. c #FFFFFF",
/* pixels */
"r.r.r.r.w.4.6.7.7.7.6.>.@.0 3 E.|.].I.|.].|.|.|.|.|.|.|.|.|.|.|.|.|.|.|.|.|.|.|.|.|.|.",
"r.r.r.r.r.w.7.7.7.7.7.1.O.n < (.}.].`.].|.|.|.|.|.|.|.|.|.|.|.|.|.|.|.|.|.|.|.|.|.|.|.",
"r.r.r.r.r.r.7.4.4.4.w.9.O.| @ V.|.].I.].|.|.|.|.|.|.|.|.|.|.|.|.|.|.|.|.|.|.|.|.|.|.|.",
"r.r.6.r.r.w.4.4.4.4.w.9.s.I % a |.Y.|.|.|.|.|.|.|.|.|.|.|.|.|.|.|.|.|.|.|.|.|.|.|.|.|.",
"r.r.r.r.w.w.0.4.0.0.e.9.h.#.9 e /.Y.].].|.|.|.|.|.|.|.|.|.|.|.|.|.|.|.|.|.|.|.|.|.|.|.",
"r.r.r.r.8.8.2.,.0.8.e.9.U  .+ 7 '.].F.|.|.|.|.|.|.|.|.|.|.|.|.|.|.|.|.|.|.|.|.|.|.|.|.",
"r.r.r.r.w.w.0.0.9.8.W W d $   L.].|.|.|.|.|.|.|.|.|.|.|.|.|.|.|.|.|.|.|.|.|.|.|.|.|.|.",
"6.r.6.r.2.p.0.=.q.Q f.I $ c ~.`.].`.|.(.|.|.|.|.|.|.|.|.|.|.|.|.|.|.|.|.|.|.|.|.|.|.|.",
"r.r.r.r.p.6.6.t.*.:.#.f O ^.|.`.|.]._.}.|.|.|.|.|.|.|.|.|.|.|.|.|.|.|.|.|.|.|.|.|.|.|.",
"r.r.r.r.7.6.w.t.;.d.l @ i |.P.{.].'.'.|.|.|.|.|.|.|.|.|.|.|.|.|.|.|.|.|.|.|.|.|.|.|.|.",
"6.r.r.r.! t.r.~ x.D 2 r E.!.{.|.|.`.].'.|.|.|.|.|.|.|.|.|.|.|.|.|.|.|.|.|.|.|.|.|.|.|.",
"r.r.r.r.p.6.t./ z.z $ ).|.~.|.P.{.|.'.].].|.|.|.|.|.|.|.|.|.|.|.|.|.|.|.|.|.|.|.|.|.|.",
"r.r.r.r.i.T p.e.W A # }././.^.^.{.|.`.].|.|.|.|.|.|.|.|.|.|.|.|.|.|.|.|.|.|.|.|.|.|.|.",
"r.r.r.r.=.~ t./ z.$.O B.].`.~.|.|.|.T.D.].|.|.|.|.|.|.|.|.|.|.|.|.|.|.|.|.|.|.|.|.|.|.",
"r.r.r.r.4.p.~ / v.| X C.'.T.|.{.{.|.T.T.].|.|.|.|.|.|.|.|.|.|.|.|.|.|.|.|.|.|.|.|.|.|.",
"r.r.r.6.T p.t.R s.#.o M.].].|.{.|.|.T.T.].|.|.|.|.|.|.|.|.|.|.|.|.|.|.|.|.|.|.|.|.|.|.",
"r.r.r.r.4.=.e.9.h.g   S.T.].|.|.|.|.].T.|.|.|.|.|.|.|.|.|.|.|.|.|.|.|.|.|.|.|.|.|.|.|.",
"r.r.r.7.i.4.8.j.F < p ].T.`.|.}.|.{.].T.].|.|.|.|.|.|.|.|.|.|.|.|.|.|.|.|.|.|.|.|.|.|.",
"r.r.r.r.7.i.>.d.d * H.].].].|.|.|.|.].].].|.|.|.|.|.|.|.|.|.|.|.|.|.|.|.|.|.|.|.|.|.|.",
"r.r.7.7.6.3.>.] : b |.].T.].].|.|.|.].|.|.|.|.|.|.|.|.|.|.|.|.|.|.|.|.|.|.|.|.|.|.|.|.",
"r.r.r.7.i.Z <.M @ }.(.].].].|.|.|.|.|.{.|.|.|.|.|.|.|.|.|.|.|.|.|.|.|.|.|.|.|.|.|.|.|.",
"6.r.r.7.i.4.:.M @ }.}.`.].].|.|.|.{.|.|.|.|.|.|.|.|.|.|.|.|.|.|.|.|.|.|.|.|.|.|.|.|.|.",
"r.r.r.r.6.r.[ o.> t |.[.].].|.].|.|.|.{.|.|.|.|.|.|.|.|.|.|.|.|.|.|.|.|.|.|.|.|.|.|.|.",
"r.r.r.r.! 0.u.g.l > u }.|.P._.|.]._.|.|.|.|.|.|.|.|.|.|.|.|.|.|.|.|.|.|.|.|.|.|.|.|.|.",
"r.r.r.r.t.8.Y <.:.k > X y |._.].`._.|.|.|.|.|.|.|.|.|.|.|.|.|.|.|.|.|.|.|.|.|.|.|.|.|.",
"r.r.r.r.! w.8.,.m.l.B g X Z.|._.].]._.|.|.|.|.|.|.|.|.|.|.|.|.|.|.|.|.|.|.|.|.|.|.|.|.",
"r.r.6.r.6.r.t.*.L ] X.C 6 X N.|.|.].`.|.|.|.|.|.|.|.|.|.|.|.|.|.|.|.|.|.|.|.|.|.|.|.|.",
"r.r.r.r.w.6.0.a.a.k.g.O.m > o |._.|.|.}.|.|.|.|.|.|.|.|.|.|.|.|.|.|.|.|.|.|.|.|.|.|.|.",
"r.r.r.6.t.r.i.,.-.*.t.x.l.C X A.].'.|.[.|.|.|.|.|.|.|.|.|.|.|.|.|.|.|.|.|.|.|.|.|.|.|.",
"r.r.r.r.e.6.=.-.3.i.t.w.Q +.= s ].'.}.|.|.|.|.|.|.|.|.|.|.|.|.|.|.|.|.|.|.|.|.|.|.|.|.",
"r.r.r.r.6.e.4.y.u.7.5.e.c.U # ( '.].|.|.|.|.|.|.|.|.|.|.|.|.|.|.|.|.|.|.|.|.|.|.|.|.|.",
"r.r.r.7.e.6.3.y.u.7.r.e.z.K > v ].'._.|.|.|.|.|.|.|.|.|.|.|.|.|.|.|.|.|.|.|.|.|.|.|.|.",
"r.6.r.r.e.r.r.4.3.4.r.e./ l.O B.'.'.|.|.|.|.|.|.|.|.|.|.|.|.|.|.|.|.|.|.|.|.|.|.|.|.|.",
"r.r.r.r.r.t.0.3.4.i.w.e.Q S X G.'.].|.`.|.|.|.|.|.|.|.|.|.|.|.|.|.|.|.|.|.|.|.|.|.|.|.",
"6.w.r.r.r.w.4.=.i.p.8.1.f.q 4 }.|.'.].].|.|.|.|.|.|.|.|.|.|.|.|.|.|.|.|.|.|.|.|.|.|.|.",
"r.r.r.r.e.w.8.0.0.>.;.O.} $ ` }.`.T._.].|.|.|.|.|.|.|.|.|.|.|.|.|.|.|.|.|.|.|.|.|.|.|.",
"r.r.r.r.w.w.t.t.>.;.d.+.w , E.[.|.].T.].].|.|.|.|.|.|.|.|.|.|.|.|.|.|.|.|.|.|.|.|.|.|.",
"r.r.r.r.w.~ p.t.E d.@.n % N.|.|.].].].T.|.|.|.|.|.|.|.|.|.|.|.|.|.|.|.|.|.|.|.|.|.|.|.",
"r.7.r.r.t.~ 8.1.J @.V , 5 |.Q.|.].~.].].|.|.|.|.|.|.|.|.|.|.|.|.|.|.|.|.|.|.|.|.|.|.|.",
"8.e.7.7.5.r.>.k.} ' * & |.{.|.{.|.|.|.].|.|.|.|.|.|.|.|.|.|.|.|.|.|.|.|.|.|.|.|.|.|.|.",
"8.8.7.7.6.r.b.] ) + ; G.|.|.{.|.|.|.|.|.|.|.|.|.|.|.|.|.|.|.|.|.|.|.|.|.|.|.|.|.|.|.|.",
"w.r.r.r.r.q.J B * - G.}.|.|.|.{.|.|.].].|.|.|.|.|.|.|.|.|.|.|.|.|.|.|.|.|.|.|.|.|.|.|.",
"t.r.7.r.1.G N > 5 ).}._.|.{.|.|.|.|.].'.|.|.|.|.|.|.|.|.|.|.|.|.|.|.|.|.|.|.|.|.|.|.|."
};
