/* XPM */
static char *tile0191719244617[] = {
/* columns rows colors chars-per-pixel */
"43 43 121 2 ",
"   c #5384FF",
".  c #5185FF",
"X  c #4E87FF",
"o  c #4D89FF",
"O  c #4D8AFD",
"+  c #4E8AF8",
"@  c #518AF1",
"#  c #5A90F2",
"$  c #588DED",
"%  c #598BEC",
"&  c #5A8CEF",
"*  c #598DF3",
"=  c #558BF7",
"-  c #508AF8",
";  c #5387F7",
":  c #5E7DF1",
">  c #5D76EA",
",  c #6381F3",
"<  c #5D7EEF",
"1  c #577FF0",
"2  c #5482F1",
"3  c #4A7CEB",
"4  c #598FFC",
"5  c #5088F9",
"6  c #4F88F9",
"7  c #4F88FC",
"8  c #5087FC",
"9  c #5086FF",
"0  c #5286FF",
"q  c #5385FF",
"w  c #5387FF",
"e  c #5188FD",
"r  c #5188FF",
"t  c #5187FF",
"y  c #5783FF",
"u  c #5087FF",
"i  c #4E89FF",
"p  c #4D8BFC",
"a  c #4D8CF6",
"s  c #4E8CF1",
"d  c #518BEF",
"f  c #4C83E8",
"g  c #4D82EA",
"h  c #5288F4",
"j  c #4883F9",
"k  c #4987FF",
"l  c #568DFF",
"z  c #537EFF",
"x  c #6186FF",
"c  c #668DFF",
"v  c #5780FE",
"b  c #5B87FF",
"n  c #5788FF",
"m  c #4F82F7",
"M  c #5186F8",
"N  c #5285FF",
"B  c #5884FF",
"V  c #5585FF",
"C  c #5089FC",
"Z  c #4D8BFA",
"A  c #4D8BF8",
"S  c #4E8BF5",
"D  c #568FFA",
"F  c #5E94FF",
"G  c #578CFE",
"H  c #4D87FF",
"J  c #4A87FF",
"K  c #4782FF",
"L  c #5184FF",
"P  c #5182FF",
"I  c #4D7FFC",
"U  c #4A7CF7",
"Y  c #5486FF",
"T  c #5185FB",
"R  c #5589FF",
"E  c #5087FE",
"W  c #5A85F5",
"Q  c #5787F5",
"!  c #5389F6",
"~  c #5189FA",
"^  c #4E8AFA",
"/  c #4E8AFC",
"(  c #4178EC",
")  c #4E83F7",
"_  c #5487FC",
"`  c #538CFF",
"'  c #528EFF",
"]  c #4B89F6",
"[  c #5493FA",
"{  c #5492F7",
"}  c #4D8BF2",
"|  c #5390FA",
" . c #4F87F6",
".. c #4D84F8",
"X. c #558BFF",
"o. c #5286FE",
"O. c #5087FB",
"+. c #5188FC",
"@. c #5887F1",
"#. c #5588F3",
"$. c #5089FD",
"%. c #5088FF",
"&. c #568CFF",
"*. c #578BFF",
"=. c #5789FF",
"-. c #578AFF",
";. c #5388FC",
":. c #4F87F8",
">. c #4E88F6",
",. c #4F8CF6",
"<. c #4A8AEC",
"1. c #4F91EF",
"2. c #4B8BED",
"3. c #5795FC",
"4. c #4C86F4",
"5. c #538AFF",
"6. c #4B81FD",
"7. c #4F89F7",
"8. c #5487FA",
"9. c #5089FA",
"0. c white",
/* pixels */
"  . X o O + @ # $ % & * = - ; : > , < 1 2 3 4 5 6 7 8 9 0 q q w e e e e e r r r r t t ",
"y q u i p a s d f g h 5 j k l z x c v b n m M 5 5 8 8 9 9 N N r e e e e e r r t t t t ",
"B V r C Z A S D F F G 7 H J K L P I U Y Y T R 8 8 8 E E E 9 E e e e e e e r r t t t t ",
"W Q ! ~ ^ / / ( ) _ m ) ` ' ] [ { } |  ...E X.N N 0 o.8 O.6 6 +.+.e e e e r r t t t t ",
"@.#.! ~ C $.%.&.*.=.-.;.:.>.,.<.1.2.3.4.` 5.6.N N 0 o.8 5 7.7.+.e e e e e r r t t t t ",
"8.;.+.e e r r r r w w e e e C 9.- 9.C e e r t t t r r r e e e e r r r r r r r r r r r ",
"r r r r r r r r r r r r r r r r r r r r r r r r r r r r r r r r r r r r r r r r r r r ",
"r r r r r r r r r r r r r r r r r r r r r r r r r r r r r r r r r r r r r r r r r r r ",
"r r r r r r r r r r r r r r r r r r r r r r r r r r r r r r r r r r r r r r r r r r r ",
"r r r r r r r r r r r r r r r r r r r r r r r r r r r r r r r r r r r r r r r r r r r ",
"r r r r r r r r r r r r r r r r r r r r r r r r r r r r r r r r r r r r r r r r r r r ",
"r r r r r r r r r r r r r r r r r r r r r r r r r r r r r r r r r r r r r r r r r r r ",
"r r r r r r r r r r r r r r r r r r r r r r r r r r r r r r r r r r r r r r r r r r r ",
"r r r r r r r r r r r r r r r r r r r r r r r r r r r r r r r r r r r r r r r r r r r ",
"r r r r r r r r r r r r r r r r r r r r r r r r r r r r r r r r r r r r r r r r r r r ",
"r r r r r r r r r r r r r r r r r r r r r r r r r r r r r r r r r r r r r r r r r r r ",
"r r r r r r r r r r r r r r r r r r r r r r r r r r r r r r r r r r r r r r r r r r r ",
"r r r r r r r r r r r r r r r r r r r r r r r r r r r r r r r r r r r r r r r r r r r ",
"r r r r r r r r r r r r r r r r r r r r r r r r r r r r r r r r r r r r r r r r r r r ",
"r r r r r r r r r r r r r r r r r r r r r r r r r r r r r r r r r r r r r r r r r r r ",
"r r r r r r r r r r r r r r r r r r r r r r r r r r r r r r r r r r r r r r r r r r r ",
"r r r r r r r r r r r r r r r r r r r r r r r r r r r r r r r r r r r r r r r r r r r ",
"r r r r r r r r r r r r r r r r r r r r r r r r r r r r r r r r r r r r r r r r r r r ",
"r r r r r r r r r r r r r r r r r r r r r r r r r r r r r r r r r r r r r r r r r r r ",
"r r r r r r r r r r r r r r r r r r r r r r r r r r r r r r r r r r r r r r r r r r r ",
"r r r r r r r r r r r r r r r r r r r r r r r r r r r r r r r r r r r r r r r r r r r ",
"r r r r r r r r r r r r r r r r r r r r r r r r r r r r r r r r r r r r r r r r r r r ",
"r r r r r r r r r r r r r r r r r r r r r r r r r r r r r r r r r r r r r r r r r r r ",
"r r r r r r r r r r r r r r r r r r r r r r r r r r r r r r r r r r r r r r r r r r r ",
"r r r r r r r r r r r r r r r r r r r r r r r r r r r r r r r r r r r r r r r r r r r ",
"r r r r r r r r r r r r r r r r r r r r r r r r r r r r r r r r r r r r r r r r r r r ",
"r r r r r r r r r r r r r r r r r r r r r r r r r r r r r r r r r r r r r r r r r r r ",
"r r r r r r r r r r r r r r r r r r r r r r r r r r r r r r r r r r r r r r r r r r r ",
"r r r r r r r r r r r r r r r r r r r r r r r r r r r r r r r r r r r r r r r r r r r ",
"r r r r r r r r r r r r r r r r r r r r r r r r r r r r r r r r r r r r r r r r r r r ",
"r r r r r r r r r r r r r r r r r r r r r r r r r r r r r r r r r r r r r r r r r r r ",
"r r r r r r r r r r r r r r r r r r r r r r r r r r r r r r r r r r r r r r r r r r r ",
"r r r r r r r r r r r r r r r r r r r r r r r r r r r r r r r r r r r r r r r r r r r ",
"r r r r r r r r r r r r r r r r r r r r r r r r r r r r r r r r r r r r r r r r r r r ",
"r r r r r r r r r r r r r r r r r r r r r r r r r r r r r r r r r r r r r r r r r r r ",
"r r r r r r r r r r r r r r r r r r r r r r r r r r r r r r r r r r r r r r r r r r r ",
"r r r r r r r r r r r r r r r r r r r r r r r r r r r r r r r r r r r r r r r r r r r ",
"r r r r r r r r r r r r r r r r r r r r r r r r r r r r r r r r r r r r r r r r r r r "
};
