/* XPM */
static char *tile1961719244609[] = {
/* columns rows colors chars-per-pixel */
"43 43 204 2 ",
"   c #5188FF",
".  c #5187FF",
"X  c #5587F6",
"o  c #5980DB",
"O  c #7191DA",
"+  c #001A52",
"@  c #0F294E",
"#  c #EEFFFF",
"$  c #F1FFFF",
"%  c #F9FFFF",
"&  c #F7FAF3",
"*  c #FFFEFA",
"=  c #FFFDFA",
"-  c #FFFDFE",
";  c #FEFEFC",
":  c #FDFFF9",
">  c #FBFFF5",
",  c #FEFFFB",
"<  c white",
"1  c #5387FF",
"2  c #5A86F1",
"3  c #7090DD",
"4  c #324881",
"5  c #00012C",
"6  c #DEEFFF",
"7  c #F3FFFF",
"8  c #F8FFFF",
"9  c #E4EAE0",
"0  c #FFFFF6",
"q  c #FFFEF5",
"w  c #FFFEF7",
"e  c #FEFFFA",
"r  c #FBFFF7",
"t  c #5487FD",
"y  c #5586FC",
"u  c #5E85EA",
"i  c #5A71B4",
"p  c #00032F",
"a  c #909BB9",
"s  c #F7FFFF",
"d  c #F5FDFF",
"f  c #F9FEF8",
"g  c #F6F8EB",
"h  c #FFFDF0",
"j  c #FFFFF3",
"k  c #FFFEF9",
"l  c #FBFFF9",
"z  c #FEFFFD",
"x  c #5487FC",
"c  c #5786F8",
"v  c #5A85F6",
"b  c #6384E1",
"n  c #28376E",
"m  c #141939",
"M  c #F9FEFF",
"N  c #F8FCFF",
"B  c #FEFFFF",
"V  c #F7F8F2",
"C  c #FFFFF4",
"Z  c #F7F5E8",
"A  c #FFFEF3",
"S  c #FFFDF7",
"D  c #FFFEFC",
"F  c #FBFFFA",
"G  c #4779E8",
"H  c #5581EC",
"J  c #6A91F8",
"K  c #5670C4",
"L  c #00002B",
"P  c #B7B7CF",
"I  c #EFEEFF",
"U  c #FAF8FF",
"Y  c #FFFEFF",
"T  c #FEFAF7",
"R  c #F6F3EC",
"E  c #FFFDF9",
"W  c #FFFDFC",
"Q  c #FEFEFE",
"!  c #FBFFFE",
"~  c #5D8EF5",
"^  c #678FEF",
"/  c #5072CB",
"(  c #203479",
")  c #383C61",
"_  c #E5E1F2",
"`  c #FFFCFF",
"'  c #F9F6FF",
"]  c #F6F1F5",
"[  c #FFFEFB",
"{  c #FEFEFF",
"}  c #FDFEFF",
"|  c #FBFFFF",
" . c #5D89E8",
".. c #6589DD",
"X. c #4A64AE",
"o. c #000035",
"O. c #B0B1CD",
"+. c #FFF9FF",
"@. c #FDF7FF",
"#. c #FEF9FF",
"$. c #FFFDFF",
"%. c #FFFBFA",
"&. c #FEFDFF",
"*. c #5680D4",
"=. c #6485CA",
"-. c #192E67",
";. c #2E375E",
":. c #FAFBFF",
">. c #F3EEF5",
",. c #FEFCFF",
"<. c #FCFAFF",
"1. c #FDFBFE",
"2. c #FBF9FA",
"3. c #678FD7",
"4. c #4E6CA2",
"5. c #000027",
"6. c #B9BFD7",
"7. c GhostWhite",
"8. c #FCFBFF",
"9. c #F4F3F8",
"0. c #F5F4F9",
"q. c #FBFBFD",
"w. c #6A90D1",
"e. c #061E4A",
"r. c #434F69",
"t. c #FBFCFE",
"y. c #F5F5F3",
"u. c #F3F6FB",
"i. c #FCFFFF",
"p. c #FDFFFC",
"a. c #FDFFFA",
"s. c #4B6FA9",
"d. c #000325",
"f. c #D0D7E7",
"g. c #EBEEE7",
"h. c #F2F4F1",
"j. c #F9FDFC",
"k. c #F6FBFF",
"l. c #FAFFFE",
"z. c #FDFFF7",
"x. c #FEFFF7",
"c. c #FEFFF9",
"v. c #2E4D84",
"b. c #152644",
"n. c #FBFEFF",
"m. c #F9FAF4",
"M. c #F9FBF6",
"N. c #EFF3F2",
"B. c #F9FDFF",
"V. c #F6FAF9",
"C. c #FBFFFC",
"Z. c #0B255E",
"A. c #35405C",
"S. c #FEF3ED",
"D. c #FFFFFD",
"F. c #0E2559",
"G. c #3D4460",
"H. c #FFF8FD",
"J. c #FAEFE9",
"K. c #000F39",
"L. c #232941",
"P. c #FFFCFD",
"I. c #03132D",
"U. c #E0E7F9",
"Y. c #EBE6EC",
"T. c #F3FDFF",
"R. c #F4FBFF",
"E. c #F1F3FF",
"W. c #E6EBEE",
"Q. c #FFFFFA",
"!. c #F8FCFB",
"~. c #F3FEFF",
"^. c #E9F4FA",
"/. c #EFFEFB",
"(. c #F5FFFF",
"). c #FFFCF4",
"_. c #FAFDF4",
"`. c #F4FFF7",
"'. c #F0FFF6",
"]. c #FCFFFD",
"[. c #FFFDF8",
"{. c #FEFFF5",
"}. c #F2FFEE",
"|. c #F2FFF1",
" X c #FCFFFB",
".X c #F8F9F1",
"XX c #F1FDE9",
"oX c #F5FFF0",
"OX c #FBF5F9",
"+X c #F8F7F2",
"@X c #FBFFF0",
"#X c #F7FEEC",
"$X c #F4F2F7",
"%X c #F8F8EC",
"&X c #FFFFFB",
"*X c #FFFCF8",
"=X c #FFFCF6",
"-X c #FBF0F4",
";X c #F5F8FF",
":X c #FBF2F7",
">X c #FFF8FB",
",X c #FFFBFF",
"<X c #FCFEF9",
"1X c #FEFCFD",
/* pixels */
"  . . X o O + @ # $ % & * = - - ; : > > , < < < < < < < < < < < < < < < < < < < < < < ",
"  1 1 2 3 4 5 6 7 8 9 0 q w = * e r > > , < < < < < < < < < < < < < < < < < < < < < < ",
"1 t y u i p a s d f g h j q k * e l r r z < < < < < < < < < < < < < < < < < < < < < < ",
"x c v b n m M N B V C Z A S = D ; F F F z < < < < < < < < < < < < < < < < < < < < < < ",
"G H J K L P I U Y T R 0 S E W - Q ! ! ! B < < < < < < < < < < < < < < < < < < < < < < ",
"~ ^ / ( ) _ ` ' ] W [ E E = - { { } | | B < < < < < < < < < < < < < < < < < < < < < < ",
" ...X.o.O.+.@.#.$.$.Y %.W D - { &.} } } < < < < < < < < < < < < < < < < < < < < < < < ",
"*.=.-.;.:.$.>.,.Y <.1.2.D ; Q { &.&.&.&.< < < < < < < < < < < < < < < < < < < < < < < ",
"3.4.5.6.7.Y Y 8.9.0.Y q.Q ; ; ; Q { &.&.< < < < < < < < < < < < < < < < < < < < < < < ",
"w.e.r.| t.y.< B } u.B i.p.a.a.e ; Q $.$.< < < < < < < < < < < < < < < < < < < < < < < ",
"s.d.f.} , g.h.j.i.k.N l.F l z.x.c.* W - < < < < < < < < < < < < < < < < < < < < < < < ",
"v.b.n.T m.M.z N.B.B.i.V.C.l : c.c.* D D < < < < < < < < < < < < < < < < < < < < < < < ",
"Z.A.$.S.[ D.< B B B B B B z D.D.D.D.< < < < < < < < < < < < < < < < < < < < < < < < < ",
"F.G.H.J.[ < < < < < < < < < < < < < < < < < < < < < < < < < < < < < < < < < < < < < < ",
"K.L.$.P.Y < < < < < < < < < < < < < < < < < < < < < < < < < < < < < < < < < < < < < < ",
"I.U.$.Y.Y < < < < < < < < < < < < < < < < < < < < < < < < < < < < < < < < < < < < < < ",
"T.R.E.{ Y < < < < < < < < < < < < < < < < < < < < < < < < < < < < < < < < < < < < < < ",
"W.| % N B < < < < < < < < < < < < < < < < < < < < < < < < < < < < < < < < < < < < < < ",
"Q.!.~.^.i.< < < < < < < < < < < < < < < < < < < < < < < < < < < < < < < < < < < < < < ",
"0 F /.(.i.< < < < < < < < < < < < < < < < < < < < < < < < < < < < < < < < < < < < < < ",
")._.`.'.].< < < < < < < < < < < < < < < < < < < < < < < < < < < < < < < < < < < < < < ",
"[.{.}.|. X< < < < < < < < < < < < < < < < < < < < < < < < < < < < < < < < < < < < < < ",
"P..XXXoX, < < < < < < < < < < < < < < < < < < < < < < < < < < < < < < < < < < < < < < ",
"OX+X@X#X, < < < < < < < < < < < < < < < < < < < < < < < < < < < < < < < < < < < < < < ",
"$XD.C %X&X< < < < < < < < < < < < < < < < < < < < < < < < < < < < < < < < < < < < < < ",
"8.$.*X=XD.< < < < < < < < < < < < < < < < < < < < < < < < < < < < < < < < < < < < < < ",
"{ ` -XP.Y < < < < < < < < < < < < < < < < < < < < < < < < < < < < < < < < < < < < < < ",
";X$.:X>XY < < < < < < < < < < < < < < < < < < < < < < < < < < < < < < < < < < < < < < ",
"n.} &.{ < < < < < < < < < < < < < < < < < < < < < < < < < < < < < < < < < < < < < < < ",
"n.n.| ! < < < < < < < < < < < < < < < < < < < < < < < < < < < < < < < < < < < < < < < ",
"n.| ! ! < < < < < < < < < < < < < < < < < < < < < < < < < < < < < < < < < < < < < < < ",
"n.| ! C.< < < < < < < < < < < < < < < < < < < < < < < < < < < < < < < < < < < < < < < ",
"n.| C.F D.< < < < < < < < < < < < < < < < < < < < < < < < < < < < < < < < < < < < < < ",
"| ! F : D.< < < < < < < < < < < < < < < < < < < < < < < < < < < < < < < < < < < < < < ",
"| C.: : D.< < < < < < < < < < < < < < < < < < < < < < < < < < < < < < < < < < < < < < ",
"| C.z.x.D.< < < < < < < < < < < < < < < < < < < < < < < < < < < < < < < < < < < < < < ",
"i., Q.Q.D.< < < < < < < < < < < < < < < < < < < < < < < < < < < < < < < < < < < < < < ",
"i., Q.Q.D.< < < < < < < < < < < < < < < < < < < < < < < < < < < < < < < < < < < < < < ",
"].z &X&XD.< < < < < < < < < < < < < < < < < < < < < < < < < < < < < < < < < < < < < < ",
"p.; W W Y < < < < < < < < < < < < < < < < < < < < < < < < < < < < < < < < < < < < < < ",
"p.D ` ` Y < < < < < < < < < < < < < < < < < < < < < < < < < < < < < < < < < < < < < < ",
"a.- ,X,XY < < < < < < < < < < < < < < < < < < < < < < < < < < < < < < < < < < < < < < ",
"<X1X+.+.Y < < < < < < < < < < < < < < < < < < < < < < < < < < < < < < < < < < < < < < "
};
