/* XPM */
static char *tile0021719244618[] = {
/* columns rows colors chars-per-pixel */
"43 43 175 2 ",
"   c #010302",
".  c #020A01",
"X  c #01000D",
"o  c #0F1E09",
"O  c #040415",
"+  c #00011C",
"@  c #100E1B",
"#  c #192019",
"$  c #000427",
"%  c #00022D",
"&  c #020C2C",
"*  c #000E36",
"=  c #000539",
"-  c #031533",
";  c #0A1738",
":  c #111133",
">  c #262231",
",  c #000541",
"<  c #040A45",
"1  c #001040",
"2  c #001049",
"3  c #091A53",
"4  c #162944",
"5  c #07245E",
"6  c #1D2D5E",
"7  c #143058",
"8  c #32384E",
"9  c #3B3C40",
"0  c #2E3E5F",
"q  c #0D1C6D",
"w  c #112C6F",
"e  c #193066",
"r  c #1C376C",
"t  c #182A77",
"y  c #203972",
"u  c #304153",
"i  c #3A475A",
"p  c #2C4E7C",
"a  c #4B5167",
"s  c #516775",
"d  c #203681",
"f  c #3E4885",
"g  c #2F4993",
"h  c #314C93",
"j  c #345894",
"k  c #3D64A5",
"l  c #797D9B",
"z  c #425EAE",
"x  c #456AAB",
"c  c #4367B1",
"v  c #4E70B8",
"b  c #5B78BA",
"n  c #6879B8",
"m  c #3F7DEA",
"M  c #4D6BCB",
"N  c #516FC9",
"B  c #5575C3",
"V  c #5D70CF",
"C  c #517CC0",
"Z  c #4A7ADC",
"A  c #5879DC",
"S  c #407FE9",
"D  c #4276EC",
"F  c #5077EE",
"G  c #587EED",
"H  c #4878F4",
"J  c #4E7FF8",
"K  c #427AF1",
"L  c #537DFC",
"P  c #637DF4",
"I  c #7C8B86",
"U  c #74899A",
"Y  c #6988BF",
"T  c #5283CF",
"R  c #5384D6",
"E  c #5684DB",
"W  c #5C85DA",
"Q  c #5589DC",
"!  c #6280C9",
"~  c #638AD4",
"^  c #6587DE",
"/  c #6B89DD",
"(  c #6487DA",
")  c #6F96D1",
"_  c #4980E5",
"`  c #468AE5",
"'  c #4882EE",
"]  c #488BEC",
"[  c #4586E4",
"{  c #568CE5",
"}  c #588EE4",
"|  c #5782EC",
" . c #5C85EC",
".. c #5789EE",
"X. c #5D8BEA",
"o. c #5A85E4",
"O. c #5F90ED",
"+. c #4B84F1",
"@. c #4188F2",
"#. c #4D8AF2",
"$. c #4C86FE",
"%. c #4D89FE",
"&. c #5587F5",
"*. c #5986F3",
"=. c #5289F4",
"-. c #5486FD",
";. c #5A85FB",
":. c #5188FF",
">. c #5A8DFC",
",. c #4D92F4",
"<. c #5C93F4",
"1. c #5493FB",
"2. c #5A90FF",
"3. c #648DE1",
"4. c #6088EA",
"5. c #6A8EEF",
"6. c #6787E1",
"7. c #718AEF",
"8. c #7885ED",
"9. c #6C8CF2",
"0. c #648CFE",
"q. c #6888F9",
"w. c #6B99FF",
"e. c #7295FD",
"r. c #8499AE",
"t. c #9198AA",
"y. c #9A93BC",
"u. c #94A0AC",
"i. c #9BA2B8",
"p. c #A1ADAB",
"a. c #B2B4AE",
"s. c #A3B4B5",
"d. c #A7B1BD",
"f. c #B3BCB3",
"g. c #BEBCB6",
"h. c #B8B7BC",
"j. c #B3B9BB",
"k. c #BABDBB",
"l. c #B6B4B6",
"z. c #C2B5B5",
"x. c #C2BDB5",
"c. c #C1B3BB",
"v. c #C6BDBE",
"b. c #BEC1B9",
"n. c #C2C3BF",
"m. c #9C99C4",
"M. c #BFAEC1",
"N. c #B7B4C3",
"B. c #B5BBC4",
"V. c #BCBCC3",
"C. c #B3BDC9",
"Z. c #C6B9C0",
"A. c #CBBCC5",
"S. c #C7BDC8",
"D. c #C1BAD4",
"F. c #A8C3CE",
"G. c #BFC0C2",
"H. c #BFCEC7",
"J. c #BBC4CA",
"K. c #B7C2C4",
"L. c #BFD3DA",
"P. c #C5C6C3",
"I. c #C9C3C4",
"U. c #C5CAC6",
"Y. c #CACAC7",
"T. c #C2C3CA",
"R. c #C9CEC8",
"E. c #CEC4CC",
"W. c #D4C9CD",
"Q. c #CCD0CF",
"!. c #C9C9D6",
"~. c #D0CBD1",
"^. c #C7D2D8",
"/. c #D0D5DB",
"(. c #D5C7E0",
/* pixels */
":.:.:.:.:.:.:.:.:.%.%.%.%.-.;.;.-.L >.K ..W ! u O     . . o I J.B.T.b.> : Y 8.P F >.-.",
":.:.:.:.:.:.:.:.:.%.%.%.:.=.;.;.-.-.$.:.>.R Y ; O       . . p.J.B.V.b.G.O f V 9.w.J -.",
":.:.:.:.:.:.:.:.:.:.%.%.:.-.*.;.-.:.$.:.>.E C % + O X   . # j.C.!.V.g.Y.8 6 8. ._ ] %.",
":.:.:.:.:.:.:.:.$.%.%.$.-.-.;.-.-.:.%.$.&.O.~ < $ & O @   Q./.h.V.h.n.a.i.& v } [ 1.%.",
":.:.:.:.:.:.:.:.:.:.%.%.:.-.-.;.-.-.%.$.+.<.3.h 2 % + > h.a.j.T.v.P.x.R.C.& x } ,.,.%.",
":.:.:.:.:.:.:.:.:.$.$.%.:.-.;.;.-.$.%.1.%.=.o.~ d = l !.h.n.U.Y.l.v.x.n.d.$ x E ] @.%.",
":.:.:.:.:.:.:.:.:.:.%.%.-.-.-.=.-.$.$.1.:.=.| 5.N t - G.U.b.f.a.z.W.g.I.T.- 5 R <.$.#.",
":.:.:.:.:.:.:.:.:.:.:.%.-.:.-.=.-.$.:.:.$.:.>.| e.z $ u.s.U.f.R.v.l.z.A.S.y.= c Z 2.:.",
":.:.:.:.:.:.:.:.:.-.:.$.:.:.-.:.-.:.%.%.%.:.=.>.*.6.e O U L.s.K.T.S.c.A.E.N.4 y ^ | -.",
":.:.:.:.:.:.:.:.:.:.:.:.:.:.-.:.%.:.%.%.%.:.:.-.;. .V r - & 4 u a D.(.M.Z.~.t.$ b A *.",
":.:.:.:.:.:.:.:.:.:.:.:.:.:.:.:.:.%.:.:.:.:.:.-.-.;.9.^ b j p 7 % % m.D.E.l.V.i 3 / *.",
":.:.:.:.:.:.:.:.:.-.:.:.#.:.:.:.:.:.:.-.:.-.:.-.:.-.;.G X.R T ) n 3 < m.N.k.f.d.= z *.",
":.:.:.:.:.:.:.:.:.-.:.:.:.#.%.%.:.:.-.-.-.-.-.-.:.:.L ;.>.<.R R / B q , l ^.s.s = ^ *.",
":.:.:.:.:.:.:.:.:.$.#.-.:.%.%.%.%.:.-.-.-.-.-.-.:.:.0.-.D +.<.{ { X.7.t % r.F.- g A *.",
":.:.:.:.:.:.:.:.:.-.#.#.:.%.%.%.:.-.-.;.-.;.=.-.$.:.H -.1.1.` ` #.;.q.9.w % & 1 M q.-.",
":.:.:.:.:.:.:.:.:.-.=.=.=.%.%.%.-.-.-.-.;.-.-.=.%.-.-.-.+.S ,.,.m >.L ;.W k k ~ 0.L -.",
":.:.:.:.:.:.:.:.:.-.:.:.:.$.:.:.:.-.-.:.-.-.:.:.:.-.-.:.:.-.$.#.:.:.-.-.*.....&.-.-.-.",
":.:.:.:.:.:.:.:.:.:.:.:.:.-.:.:.:.:.:.$.:.:.:.:.:.:.:.:.:.:.:.:.:.:.:.:.:.:.:.:.:.:.:.",
":.:.:.:.:.:.:.:.:.:.:.:.:.:.:.:.:.:.:.:.:.:.:.:.:.:.:.:.:.:.:.:.:.:.:.:.:.:.:.:.:.:.:.",
":.:.:.:.:.:.:.:.:.:.:.:.:.:.:.:.:.:.:.:.:.:.:.:.:.:.:.:.:.:.:.:.:.:.:.:.:.:.:.:.:.:.:.",
":.:.:.:.:.:.:.:.:.:.:.:.:.:.:.:.:.:.:.:.:.:.:.:.:.:.:.:.:.:.:.:.:.:.:.:.:.:.:.:.:.:.:.",
":.:.:.:.:.:.:.:.:.:.:.:.:.:.:.:.:.:.:.:.:.:.:.:.:.:.:.:.:.:.:.:.:.:.:.:.:.:.:.:.:.:.:.",
":.:.-.:.:.:.:.:.:.:.:.:.:.:.:.:.:.:.:.:.:.:.:.:.:.:.:.:.:.:.:.:.:.:.:.:.:.:.:.:.:.:.:.",
":.:.:.:.:.:.:.:.:.:.:.:.:.:.:.:.:.:.:.:.:.:.:.:.:.:.:.:.:.:.:.:.:.:.:.:.:.:.:.:.:.:.:.",
":.:.:.:.:.:.:.-.:.:.:.:.:.:.:.:.:.:.:.:.:.:.:.:.:.:.:.:.:.:.:.:.:.:.:.:.:.:.:.:.:.:.:.",
":.:.:.:.:.:.:.$.:.:.:.:.:.:.:.:.:.:.:.:.:.:.:.:.:.:.:.:.:.:.:.:.:.:.:.:.:.:.:.:.:.:.:.",
":.:.:.:.:.:.:.:.:.:.:.:.:.:.:.:.:.:.:.:.-.:.:.:.:.:.:.:.:.:.:.:.:.:.:.:.:.:.:.:.:.:.:.",
":.:.:.:.:.:.:.:.:.:.:.:.:.:.:.:.:.:.:.:.:.:.:.:.:.:.:.:.:.:.:.:.:.:.:.:.:.:.:.:.:.:.:.",
":.:.:.:.:.:.:.:.:.:.:.:.:.:.:.:.:.:.:.:.:.:.:.:.:.:.:.:.:.:.:.:.:.:.:.:.:.:.:.:.:.:.:.",
":.:.:.:.:.:.:.:.:.:.:.:.:.:.:.:.:.:.:.:.:.:.:.:.:.:.:.:.:.:.:.:.:.:.:.:.:.:.:.:.:.:.:.",
":.:.:.:.:.:.:.:.-.$.:.:.:.:.:.:.:.:.:.-.:.:.:.:.:.:.:.:.:.:.:.:.:.:.:.:.:.:.:.:.:.:.:.",
":.:.:.:.:.:.:.:.:.:.:.:.:.:.:.:.:.:.:.:.:.:.:.:.:.:.:.:.:.:.:.:.:.:.:.:.:.:.:.:.:.:.:.",
":.:.:.:.:.:.:.:.:.:.:.:.:.$.:.:.:.:.:.:.:.:.:.:.:.:.:.:.:.:.:.:.:.:.:.:.:.:.:.:.:.:.' ",
":.:.:.:.:.:.:.:.:.:.:.:.:.-.:.:.:.:.:.:.:.-.:.:.:.:.:.:.:.:.:.:.:.:.:.:.:.:.:.:.:.-.=.",
":.:.:.:.:.:.:.:.:.:.:.:.:.:.:.:.:.:.:.:.:.:.:.:.:.:.:.:.:.:.:.:.:.:.:.:.:.:.:.:.:.:.:.",
":.:.:.:.-.:.:.:.:.:.:.:.:.:.:.:.:.:.:.:.:.:.:.:.-.:.:.:.:.:.:.:.:.:.:.:.:.:.:.$.:.:.$.",
":.:.:.:.:.:.:.:.:.:.:.:.:.:.:.:.:.:.:.:.:.:.:.:.$.:.:.:.:.:.:.:.:.:.:.:.:.:.:.-.:.:.%.",
":.:.:.:.:.:.:.:.:.:.:.:.:.:.:.:.:.:.:.:.:.:.:.:.:.:.:.:.:.:.:.:.:.-.:.:.:.:.:.:.:.:.%.",
":.:.-.:.:.:.:.:.:.:.:.:.:.:.:.:.:.:.:.:.:.:.:.:.:.:.:.:.:.:.:.:.:.:.:.:.:.:.:.:.:.%.#.",
":.:.:.:.:.:.:.:.:.:.:.:.:.:.:.:.-.:.:.:.:.:.:.:.:.:.:.:.:.:.:.:.:.:.:.:.:.:.:.:.:.=.] ",
":.:.:.:.:.:.:.:.:.:.:.:.:.:.:.:.:.:.:.:.:.:.:.:.:.:.:.:.:.:.:.$.:.:.:.:.:.:.:.:.:.%.#.",
":.:.:.:.:.:.:.:.:.:.:.:.:.:.:.:.:.:.:.:.:.:.:.:.:.:.:.:.:.:.:.-.:.:.:.:.:.:.:.:.:.:.-.",
":.:.:.:.:.:.:.:.:.:.:.:.:.:.:.-.:.:.:.:.:.:.:.:.:.:.:.:.:.:.:.:.:.:.:.:.:.:.:.:.:.:.:."
};
