/* XPM */
static char *tile0201719244617[] = {
/* columns rows colors chars-per-pixel */
"43 43 134 2 ",
"   c #5187FF",
".  c #4F85FF",
"X  c #5184FF",
"o  c #5782FF",
"O  c #5983FC",
"+  c #5686F2",
"@  c #5489EF",
"#  c #4D8DF1",
"$  c #4C8DF5",
"%  c #4480EE",
"&  c #5B90FA",
"*  c #5782DE",
"=  c #698FE2",
"-  c #6690E2",
";  c #6394F1",
":  c #4783FF",
">  c #4B89FF",
",  c #4E88FF",
"<  c #5188FF",
"1  c #5384FF",
"2  c #5788F1",
"3  c #538BEA",
"4  c #4D90EB",
"5  c #4A90EF",
"6  c #4A8AF6",
"7  c #558DFE",
"8  c #5C86F4",
"9  c #5E85EE",
"0  c #5983E7",
"q  c #497AE3",
"w  c #5C98FF",
"e  c #407FFF",
"r  c #5086FF",
"t  c #5385FF",
"y  c #5883FF",
"u  c #5884FD",
"i  c #5588F1",
"p  c #518CEA",
"a  c #4990E8",
"s  c #4790EF",
"d  c #5092FF",
"f  c #477EFC",
"g  c #5F88FF",
"h  c #698DFF",
"j  c #5C84F5",
"k  c #5585F3",
"l  c #4E8BFF",
"z  c #4788FF",
"x  c #4E89FF",
"c  c #5289FD",
"v  c #5489FB",
"b  c #5785FF",
"n  c #5785FD",
"m  c #5489F3",
"M  c #4E8DEE",
"N  c #4790EE",
"B  c #468FF6",
"V  c #4384FF",
"C  c #578CFF",
"Z  c #567CFF",
"A  c #4B6DF5",
"S  c #577BF3",
"D  c #6B9AFF",
"F  c #4C87EF",
"G  c #4C8CF6",
"H  c #5089FC",
"J  c #518AFB",
"K  c #528AF9",
"L  c #5687FE",
"P  c #5586FD",
"I  c #5389F6",
"U  c #4E8CF3",
"Y  c #488DF2",
"T  c #468CFB",
"R  c #4887FF",
"E  c #5287FF",
"W  c #4E78FF",
"Q  c #6186FF",
"!  c #638BFF",
"~  c #4F7FED",
"^  c #4C87ED",
"/  c #518FF6",
"(  c #5188FD",
")  c #5387FD",
"_  c #5387FF",
"`  c #5188FC",
"'  c #4E8AFC",
"]  c #4E89FD",
"[  c #5386FF",
"{  c #5486FF",
"}  c #5388FC",
"|  c #5189FA",
" . c #5388FA",
".. c #5388F8",
"X. c #5487FC",
"o. c #5189F8",
"O. c #5586FF",
"+. c #5585FF",
"@. c #5485FF",
"#. c #5088FF",
"$. c #4D89FF",
"%. c #5786FC",
"&. c #4C8AFF",
"*. c #5586FC",
"=. c #5786FA",
"-. c #5885FC",
";. c #4A8AFF",
":. c #5487FA",
">. c #5587F8",
",. c #5587FA",
"<. c #4C89FF",
"1. c #5488F8",
"2. c #5087FF",
"3. c #5089FD",
"4. c #5089FA",
"5. c #4E8AFA",
"6. c #4D8AFD",
"7. c #4D8BFC",
"8. c #4A8BFF",
"9. c #4C8BFC",
"0. c #498CFF",
"q. c #4A8CFD",
"w. c #5285FF",
"e. c #5087FC",
"r. c #4E8BF6",
"t. c #5286FE",
"y. c #518AF5",
"u. c #5189F6",
"i. c #5385FE",
"p. c #5389F5",
"a. c #5386FC",
"s. c #5389F3",
"d. c #5286FF",
"f. c white",
/* pixels */
"        . X o O + @ # $ % & * = - ; : > , < < < < < < < < < < < < < < < < < < < < < < ",
"        . 1 o O 2 3 4 5 6 7 8 9 0 q w e , < < < < < < < < < < < < < < < < < < < < < < ",
"        r t y u i p a s d f g h j k l z x < < < < < < < < < < < < < < < < < < < < < < ",
"        c v b n m M N B V C Z A S D F G H < < < < < < < < < < < < < < < < < < < < < < ",
"      < J K L P I U Y T R E W Q ! ~ ^ / H < < < < < < < < < < < < < < < ( ( ) _ _     ",
"      < ( ( _ _ ` H ' ] ,   [ { { } | H ( < < < < < < < < < < < < < < (  ...X.{ { [   ",
"< < < < < < < < < < < < < < < < < < < < < < < < < < < < < < < < < < < ( o...X.O.+.@.  ",
"< < < < < < < < < < < < < < < < < < < < < < < < < < < < < < < < < < < ( | o.X.{ +.{ [ ",
"< < < < < < < < < < < < < < < < < < < < < < < < < < < < < < < < < < < ( H H ) { +.+.{ ",
"< < < < < < < < < < < < < < < < < < < < < < < < < < < < < < < < < < < #.] ] < _ O.b O.",
"< < < < < < < < < < < < < < < < < < < < < < < < < < < < < < < < < < < #.$.$.#._ P %.n ",
"< < < < < < < < < < < < < < < < < < < < < < < < < < < < < < < < < < < #.&.&.x ( *.=.-.",
"< < < < < < < < < < < < < < < < < < < < < < < < < < < < < < < < < < < x &.;.x ( *.=.=.",
"< < < < < < < < < < < < < < < < < < < < < < < < < < < < < < < < < < < x &.;.x ( :.>.,.",
"< < < < < < < < < < < < < < < < < < < < < < < < < < < < < < < < < < < #.<.&.x ( :.1.:.",
"< < < < < < < < < < < < < < < < < < < < < < < < < < < < < < < < < < < #.$.$.x `  . .} ",
"< < < < < < < < < < < < < < < < < < < < < < < < < < < < < < < < < < < #.2., #.` | | 3.",
"< < < < < < < < < < < < < < < < < < < < < < < < < < < < < < < < < < <       ( ` 4.5.6.",
"< < < < < < < < < < < < < < < < < < < < < < < < < < < < < < < < < < < < _ { ) | 4.7.8.",
"< < < < < < < < < < < < < < < < < < < < < < < < < < < < < < < < < < < _ { O.X.| 5.9.0.",
"< < < < < < < < < < < < < < < < < < < < < < < < < < < < < < < < < < < _ { O.{ ( 3.6.q.",
"< < < < < < < < < < < < < < < < < < < < < < < < < < < < < < < < < < < < _ { 1 w.w.e.r.",
"< < < < < < < < < < < < < < < < < < < < < < < < < < < < < < < < < < < ( ) _ 1 1 1 t.y.",
"< < < < < < < < < < < < < < < < < < < < < < < < < < < < < < < < < < < (  .} t 1 1 t.u.",
"< < < < < < < < < < < < < < < < < < < < < < < < < < < < < < < < < < < ` ....i.t t t.o.",
"< < < < < < < < < < < < < < < < < < < < < < < < < < < < < < < < < < < ` p.p.a.t t t.| ",
"< < < < < < < < < < < < < < < < < < < < < < < < < < < < < < < < < < < ` s.p.a.t t d.` ",
"< < < < < < < < < < < < < < < < < < < < < < < < < < < < < < < < < < < ` p.p.a.t 1 d.` ",
"< < < < < < < < < < < < < < < < < < < < < < < < < < < < < < < < < < < ` I I i.1 1 d.| ",
"< < < < < < < < < < < < < < < < < < < < < < < < < < < < < < < < < < < ( .. .{ @.@._ | ",
"< < < < < < < < < < < < < < < < < < < < < < < < < < < < < < < < < < < (  .} { @.@._ o.",
"< < < < < < < < < < < < < < < < < < < < < < < < < < < < < < < < < < < (  .) @.@.@._ o.",
"< < < < < < < < < < < < < < < < < < < < < < < < < < < < < < < < < < < (  .) @.@.@._ o.",
"< < < < < < < < < < < < < < < < < < < < < < < < < < < < < < < < < < < (  .} { @.@._ o.",
"< < < < < < < < < < < < < < < < < < < < < < < < < < < < < < < < < < < ( ....{ @.@._ | ",
"< < < < < < < < < < < < < < < < < < < < < < < < < < < < < < < < < < < ` I I { { { _ | ",
"< < < < < < < < < < < < < < < < < < < < < < < < < < < < < < < < < < < ` ....) _ { _ ` ",
"< < < < < < < < < < < < < < < < < < < < < < < < < < < < < < < < < < < ( ( ( < < _ < ( ",
"< < < < < < < < < < < < < < < < < < < < < < < < < < < < < < < < < < < < < < < < < < < ",
"< < < < < < < < < < < < < < < < < < < < < < < < < < < < < < < < < < < < < < < < < < < ",
"< < < < < < < < < < < < < < < < < < < < < < < < < < < < < < < < < < < < < < < < < < < ",
"< < < < < < < < < < < < < < < < < < < < < < < < < < < < < < < < < < < < < < < < < < < ",
"< < < < < < < < < < < < < < < < < < < < < < < < < < < < < < < < < < < < < < < < < < < "
};
