/* XPM */
static char *tile2011719244609[] = {
/* columns rows colors chars-per-pixel */
"43 43 24 1 ",
"  c white",
". c #FFFFFD",
"X c #FFFEFF",
"o c #FFFFFB",
"O c gray99",
"+ c #F6F6F6",
"@ c #FBFBFB",
"# c gray94",
"$ c gray97",
"% c #F8F8F8",
"& c #FEFEFE",
"* c #EEEEF0",
"= c #FCFCFE",
"- c gray96",
"; c #F9F9F9",
": c #F6F6F8",
"> c #FEFDFF",
", c #F5F4F9",
"< c #FDFDFD",
"1 c #FBFBFD",
"2 c #F7F6FB",
"3 c #FCFBFF",
"4 c #FAFAFC",
"5 c #FBFAFF",
/* pixels */
"                                           ",
"                                           ",
"                                           ",
"                                           ",
"                                           ",
"                                           ",
"                                           ",
"                                           ",
"                                           ",
"                                           ",
"                                           ",
"                                           ",
"                                           ",
"                                           ",
"                                           ",
"                                           ",
"                                           ",
"                                           ",
"                                           ",
"                                           ",
"                                           ",
"                                           ",
"                                           ",
"                                           ",
"                                           ",
"                                           ",
"                                           ",
"                                          .",
"                               X       ...o",
"                             XXXX      ..oo",
"                             XXXX      ..oo",
"                              XXX      ..oo",
"                                       ....",
"                                       ....",
"                                           ",
"                                           ",
"                                      O+   ",
"                                     @  #$ ",
"                             ......  %& *= ",
"                             ......   -==  ",
"                             .ooo..   ;: >,",
"                            ..ooo..  < 1 23",
"                            ..ooo..  ;  45X"
};
