/* XPM */
static char *tile2021719244609[] = {
/* columns rows colors chars-per-pixel */
"43 43 159 2 ",
"   c #00051C",
".  c #00081E",
"X  c #000226",
"o  c #010B26",
"O  c #00002C",
"+  c #00102D",
"@  c #031424",
"#  c #000433",
"$  c #000C35",
"%  c #00063A",
"&  c #000C3E",
"*  c #031336",
"=  c #011C37",
"-  c #00193B",
";  c #0D213A",
":  c #010E4D",
">  c #001442",
",  c #00144C",
"<  c #0B1C50",
"1  c #192C45",
"2  c #1F2D4A",
"3  c #0F2A57",
"4  c #032058",
"5  c #122D5A",
"6  c #1F3656",
"7  c #263246",
"8  c #25304E",
"9  c #333E5E",
"0  c #102F65",
"q  c #13266A",
"w  c #1F3566",
"e  c #18356F",
"r  c #173573",
"t  c #21366F",
"y  c #263A6F",
"u  c #1F4375",
"i  c #374560",
"p  c #3F5260",
"a  c #204071",
"s  c #5E6D70",
"d  c #5C6F7D",
"f  c #254487",
"g  c #35438A",
"h  c #3C5887",
"j  c #3A4E95",
"k  c #305697",
"l  c #4B5D81",
"z  c #476599",
"x  c #6B7688",
"c  c #727D8F",
"v  c #6C7D97",
"b  c #647C94",
"n  c #4160A1",
"m  c #4F66AC",
"M  c #4C69AB",
"N  c #4C6BA4",
"B  c #5064AD",
"V  c #4F73BF",
"C  c #5D77B2",
"Z  c #5C74BE",
"A  c #5371C4",
"S  c #5E7AC3",
"D  c #517CD3",
"F  c #5C7FD0",
"G  c #517FDD",
"H  c #5E7ADB",
"J  c #617CC9",
"K  c #6376D2",
"L  c #537DE3",
"P  c #5E7EE1",
"I  c #527CEA",
"U  c #477BF1",
"Y  c #497FFD",
"T  c #5076F5",
"R  c #537FF3",
"E  c #798196",
"W  c #5B82B9",
"Q  c #5C81C6",
"!  c #5E83D3",
"~  c #5681DD",
"^  c #5A82DC",
"/  c #6786C6",
"(  c #6189C4",
")  c #6482C8",
"_  c #6C8CC9",
"`  c #6C84D5",
"'  c #648CD7",
"]  c #6C8ED5",
"[  c #6485DE",
"{  c #6B87DB",
"}  c #6388DA",
"|  c #698CD8",
" . c #4482E7",
".. c #4F88ED",
"X. c #5080E6",
"o. c #5C82E5",
"O. c #5384EB",
"+. c #5A85EB",
"@. c #528BEF",
"#. c #5888EC",
"$. c #4C84F5",
"%. c #4E8CF3",
"&. c #4E86FE",
"*. c #4E89FC",
"=. c #5485F6",
"-. c #5A85F3",
";. c #528AF5",
":. c #5C89F4",
">. c #5386FE",
",. c #5B86FD",
"<. c #5188FF",
"1. c #5A8BFE",
"2. c #5691F5",
"3. c #5790FF",
"4. c #5A90FE",
"5. c #6385E4",
"6. c #658AE4",
"7. c #658CEC",
"8. c #7186EF",
"9. c #6287F1",
"0. c #638BF2",
"q. c #6785FF",
"w. c #628BFD",
"e. c #6D8CFC",
"r. c #6191F7",
"t. c #919AAC",
"y. c #939CBB",
"u. c #A8AFBF",
"i. c #98A8C2",
"p. c #B0C0C0",
"a. c #DBE8DF",
"s. c #CCDAE3",
"d. c #D3DCE5",
"f. c #D7DFF2",
"g. c #D2E6F1",
"h. c #DAEFFF",
"j. c #EAEEEF",
"k. c #F5EEE6",
"l. c #F6EEEC",
"z. c #EEF2EC",
"x. c #F0F0E4",
"c. c #F1F7ED",
"v. c #F6FCED",
"b. c #FCFEEC",
"n. c #E9EDF9",
"m. c #F6EDF0",
"M. c #FBEFF3",
"N. c #EDF6F5",
"B. c #EFF8F6",
"V. c #EBF3FE",
"C. c #EDFAFE",
"Z. c #F3F3F4",
"A. c #FBF4F2",
"S. c #F5FCF4",
"D. c #FCFEF4",
"F. c #F4F7FC",
"G. c #FCF6FC",
"H. c #F5FEFD",
"J. c #FDFEFD",
/* pixels */
"J.J.J.J.H.D.J.J.J.G.G.J.k.z.H.i < J o.%.;.;.;.<.4.$.*.<.<.<.<.<.<.<.<.<.<.&.<.<.<.<.<.",
"J.J.J.J.H.D.J.J.J.G.G.A.b.D.s.X B 6.#.;.;.*.$.;.3.<.=.;.<.<.<.<.<.<.<.<.<.<.<.<.<.<.<.",
"J.J.J.J.J.D.J.J.J.G.J.l.v.S.p 3 A P ;.<.1.*.*.<.<.<.;.<.*.=.<.<.<.<.<.<.<.<.<.<.<.<.<.",
"J.J.H.H.J.J.J.J.G.G.G.D.v.a.. N +.w.<.$.$.;.;.<.$.<.<.<.<.<.<.<.<.<.<.<.<.<.<.<.<.<.<.",
"J.J.H.H.H.D.J.J.G.G.J.A.c.s = Q -.,.<.<.<.=.*.<.<.<.<.*.<.<.<.<.<.<.<.<.<.<.<.<.<.<.<.",
"J.J.S.D.H.H.J.J.G.J.m.D.J.@ h } R ,.<.=.<.*.=.;.<.<.<.=.<.<.*.<.<.&.<.<.<.<.<.<.<.<.<.",
"J.J.H.H.J.J.J.J.J.J.D.F.u.X / ~ >.Y <.<.<.<.<.*.$.<.<.;.<.<.=.*.<.=.<.<.<.<.<.<.<.<.<.",
"J.J.D.D.J.J.G.J.J.D.J.J.8 y { H 1.&.<.<.<.<.<.<.<.<.<.<.<.<.<.<.<.<.<.<.<.<.&.<.<.<.<.",
"J.J.D.D.J.J.J.J.D.D.z.n.O B 7.R ;.3.<.<.<.<.&.<.<.<.<.<.<.<.;.=.<.<.<.<.<.<.<.<.<.<.<.",
"J.D.b.D.J.J.J.J.D.v.J.x , K e.w.;.*.<.<.<.<.<.<.<.<.<.<.<.<.<.*.<.&.<.<.<.<.<.<.<.<.<.",
"J.J.b.b.J.J.J.J.b.v.H.  g 8.q.,.1. .&.<.<.<.<.<.<.<.<.<.<.<.<.<.<.=.<.<.<.<.<.<.<.<.<.",
"J.D.b.b.J.G.G.D.b.S.p.X K e.T ,.@.2.=.<.<.<.<.<.<.<.<.<.=.<.<.<.<.<.<.<.<.<.<.<.<.<.<.",
"J.J.S.J.F.J.M.J.D.H.1 0 7.=.&.&.@.@.;.<.<.<.<.<.<.<.<.<.*.<.<.<.<.<.<.<.<.<.<.<.<.&.<.",
"J.J.H.H.G.G.G.G.J.V.- k #.*.&.*.@.@.<.<.<.<.<.<.<.<.<.<.<.<.<.<.<.<.<.<.>.<.<.<.<.<.<.",
"J.J.J.N.J.J.J.G.G.t.* S X.1.&.*.@.2.<.<.<.<.<.<.<.<.<.<.<.<.<.<.<.<.<.<.<.<.<.<.<.<.<.",
"J.J.B.H.J.J.M.J.H.7 5 ] O.1.&.*.%.@.<.<.<.<.<.<.<.<.<.*.<.<.<.<.<.<.<.&.<.<.<.<.<.<.<.",
"J.J.J.H.J.J.m.J.n.o z ! -.<.&.<.;.=.=.<.<.<.<.<.<.<.<.<.<.<.<.<.<.<.<.<.<.<.<.<.<.<.<.",
"J.J.H.S.z.J.G.F.t.$ _ D 4.&.&.<.<.;.<.<.<.<.<.<.<.<.<.<.<.<.<.<.<.<.<.<.<.<.<.<.<.<.<.",
"J.J.D.S.Z.J.J.V.2 w ] ~ 1.&.<.<.<.<.<.<.<.<.<.<.<.<.<.<.<.<.<.<.<.<.<.<.<.<.<.<.<.<.>.",
"J.J.H.D.J.j.H.H.X C F 7.<.&.<.*.$.<.<.<.<.&.<.<.<.<.<.<.<.<.<.<.&.>.<.<.<.<.<.<.<.<.&.",
"J.J.D.H.D.J.C.v > ) 5.-.<.&.&.&.*.&.<.<.<.<.<.<.<.<.<.<.<.<.<.<.<.<.<.<.<.<.<.<.<.<.<.",
"J.J.D.D.N.C.C.6 e } #.-.,.<.*.*.*.&.<.<.<.<.<.<.<.<.<.<.<.&.<.<.<.<.<.<.<.<.&.<.<.<.<.",
"J.J.J.J.S.H.h.$ M ^ -.<.<.<.*.<.&.<.<.<.<.<.<.<.<.>.<.<.<.<.<.<.<.<.<.<.<.<.>.<.<.<.<.",
"J.J.G.J.N.H.b $ ' o.>.,.*.=.*.*.<.&.<.<.<.<.<.<.<.&.<.<.<.<.<.<.<.<.<.<.<.<.<.<.<.<.<.",
"J.J.J.J.F.C.= u ^ :.>.<.<.&.*.*.*.&.>.<.<.<.<.<.<.<.<.<.<.<.<.<.<.<.<.<.<.<.<.<.<.<.<.",
"J.J.J.G.J.g.+ W D 1.,.&.&.<.;.<.*.&.>.<.&.<.<.<.<.<.<.<.<.<.<.<.<.<.<.&.<.<.<.<.<.&.>.",
"J.J.J.G.H.d = ( ~ >.<.*.*.<.;.%.*.*.<.<.<.<.<.<.<.<.<.<.>.<.<.<.<.<.<.<.<.<.<.<.<.<.<.",
"J.J.A.J.H.; e ' w.U &.*.<.$.*.<.*.<.<.<.<.<.<.<.<.<.<.<.&.<.<.<.<.<.<.<.<.<.<.<.<.<.<.",
"J.D.D.D.H.% A o.=.<.*.*.&.<.&.<.<.<.<.<.<.<.<.<.<.<.<.<.<.<.<.<.<.<.<.<.<.<.<.<.<.<.<.",
"J.D.b.v.y.: K ,.$.3.*.*.<.<.<.,.,.<.<.<.<.<.<.<.<.<.<.<.<.<.<.<.<.<.<.<.<.<.<.<.<.<.<.",
"J.D.b.H.9 q 5.w.>.<.*.*.<.*.<.<.>.>.<.<.<.<.<.&.<.<.<.<.<.<.<.<.<.<.<.<.<.>.<.<.<.<.<.",
"D.J.D.J.* j P w.>.*.%.*.<.<.<.,.=.>.<.<.<.<.<.>.<.<.<.<.<.<.<.<.<.<.<.<.<.&.<.<.<.<.<.",
"J.J.D.d.O Z o.,.>.<.*.*.*.<.<.,.<.>.<.<.<.<.<.<.<.<.<.<.<.<.<.&.<.<.<.<.<.<.<.<.<.<.<.",
"J.J.H.c & ` 0.-.$.1.*.*.<.<.<.<.;.<.=.<.<.<.<.<.<.<.<.<.<.<.<.<.<.<.<.<.<.<.<.<.<.<.<.",
"J.J.H.1 t { 9.,.<.*.*.;.>.<.>.<.<.;.<.*.<.<.<.<.<.<.<.<.<.<.<.<.<.<.<.<.<.<.<.<.<.<.<.",
"J.J.H.X B [ I 1.4.$.*.*.<.>.>.>.;.;.<.<.<.<.<.<.<.<.<.<.<.<.<.<.<.<.<.<.<.<.<.<.<.&.<.",
"J.F.i.> S 7.I 1.$.<.*.<.>.>.>.>.<.;.<.<.<.<.<.<.<.<.<.<.<.<.<.<.<.<.<.<.<.<.<.<.<.<.<.",
"Z.H.l < F 7.R 1.<.*.;.<.>.>.>.<.;.%.<.<.<.<.<.<.<.&.<.<.<.<.<.<.<.<.<.<.<.<.<.<.<.<.<.",
"Z.J.> f 5.0.R >.>.<.<.<.>.>.>.<.%.;.<.<.<.*.<.<.<.<.<.<.<.<.<.<.<.<.<.<.<.<.<.<.<.<.<.",
"F.g.# A 7.:.=.&.*.<.=.>.>.>.>.<.%.%.<.<.<.<.<.<.<.<.<.<.<.<.<.<.<.<.<.<.>.&.<.<.<.<.<.",
"J.E , | o.-.1.*...<.;.<.,.>.>.<.%.%.*.<.<.<.<.<.<.<.<.<.<.<.<.<.<.<.<.<.<.<.<.<.<.<.<.",
"J.7 r o.L >.4.<.$.<.<.<.<.>.,.&.%...<.<.<.<.<.<.<.<.<.<.<.<.<.<.<.<.<.<.<.<.<.<.<.>.&.",
"Z.o n o.-.=.,.<.$.*.;.<.>.<.<.&.*...*.<.<.<.<.<.<.<.<.<.<.<.<.<.<.<.<.<.<.<.<.<.<.<.<."
};
