/* XPM */
static char *tile0211719244617[] = {
/* columns rows colors chars-per-pixel */
"43 43 201 2 ",
"   c #000004",
".  c #050A04",
"X  c #080611",
"o  c #000A17",
"O  c #00151D",
"+  c #000124",
"@  c #000B23",
"#  c #00012C",
"$  c #00092C",
"%  c #0A0E29",
"&  c #0D142E",
"*  c #000434",
"=  c #00023C",
"-  c #000C3D",
";  c #000A33",
":  c #00193F",
">  c #061738",
",  c #121838",
"<  c #2A2F29",
"1  c #253238",
"2  c #000D44",
"3  c #000249",
"4  c #00094B",
"5  c #000544",
"6  c #001144",
"7  c #00154C",
"8  c #031C4B",
"9  c #0B1C4B",
"0  c #000553",
"q  c #001855",
"w  c #001558",
"e  c #001F59",
"r  c #091F58",
"t  c #0F2944",
"y  c #1B2848",
"u  c #132742",
"i  c #16334D",
"p  c #0C205D",
"a  c #172552",
"s  c #22384D",
"d  c #283D5A",
"f  c #303457",
"g  c #000F66",
"h  c #001864",
"j  c #002C60",
"k  c #002266",
"l  c #123164",
"z  c #092274",
"x  c #183472",
"c  c #27366A",
"v  c #26377A",
"b  c #383C69",
"n  c #3E4357",
"m  c #22416F",
"M  c #304064",
"N  c #325165",
"B  c #41485A",
"V  c #62645D",
"C  c #485F67",
"Z  c #46506B",
"A  c #555B67",
"S  c #6B6D7C",
"D  c #1D3E81",
"F  c #254286",
"G  c #305589",
"H  c #254C98",
"J  c #364C95",
"K  c #385498",
"L  c #3657A6",
"P  c #3655B2",
"I  c #45629A",
"U  c #626F8F",
"Y  c #727993",
"T  c #445EA8",
"R  c #466AA7",
"E  c #476CB8",
"W  c #506AB7",
"Q  c #4171B1",
"!  c #5F7ABF",
"~  c #5773B8",
"^  c #6D7BA0",
"/  c #617ABA",
"(  c #717EB3",
")  c #3B5EC6",
"_  c #4967C0",
"`  c #577BCC",
"'  c #407FDE",
"]  c #4D78D4",
"[  c #537DD5",
"{  c #557EDB",
"}  c #5A7EDA",
"|  c #5A7ED2",
" . c #4A79E1",
".. c #487AE7",
"X. c #5274E5",
"o. c #527DE3",
"O. c #5C7CE5",
"+. c #557DEC",
"@. c #437BF3",
"#. c #4B7DF2",
"$. c #4C7FFF",
"%. c #4976F5",
"&. c #597DF3",
"*. c #547CFD",
"=. c #7B8094",
"-. c #7C8687",
";. c #6585BE",
":. c #5F80CD",
">. c #5886D9",
",. c #688AC7",
"<. c #6386CD",
"1. c #6E8CCA",
"2. c #798DC0",
"3. c #6282D4",
"4. c #648BD5",
"5. c #6987D6",
"6. c #4F85E7",
"7. c #4D8BEE",
"8. c #4581E8",
"9. c #5684E3",
"0. c #5E85E5",
"q. c #5E8BE1",
"w. c #5583EC",
"e. c #5C85ED",
"r. c #5289EE",
"t. c #5C8AE9",
"y. c #538AE4",
"u. c #4B84F4",
"i. c #4D8BF5",
"p. c #4584FF",
"a. c #4D85FC",
"s. c #478CFF",
"d. c #4D89FD",
"f. c #4683F6",
"g. c #5485F5",
"h. c #5985F4",
"j. c #5189F4",
"k. c #5A8BF3",
"l. c #5486FE",
"z. c #5984FE",
"x. c #5188FF",
"c. c #5A8BFD",
"v. c #5390FE",
"b. c #5B92FD",
"n. c #5F9FFF",
"m. c #6383E4",
"M. c #6088E0",
"N. c #648CEA",
"B. c #6D8FEB",
"V. c #6789E8",
"C. c #6592E4",
"Z. c #6292ED",
"A. c #6E91E2",
"S. c #7091E0",
"D. c #719BE7",
"F. c #658DF6",
"G. c #638DFC",
"H. c #688DFF",
"J. c #6688F5",
"K. c #6191F7",
"L. c #6494FF",
"P. c #6A94F6",
"I. c #7598FF",
"U. c #8186A3",
"Y. c #9596A7",
"T. c #8A98AE",
"R. c #B5B4AF",
"E. c #ABACBB",
"W. c #ABAEB3",
"Q. c #B3AFB0",
"!. c #AAB7B7",
"~. c #B1BEB7",
"^. c #BDBBBA",
"/. c #B8B6BA",
"(. c #C0B6BD",
"). c #C0BABE",
"_. c #BDC0B7",
"`. c #B8C2BC",
"'. c #809AD5",
"]. c #ABB9C9",
"[. c #A9BAC2",
"{. c #B5BAC1",
"}. c #BDBAC7",
"|. c #B2B4C3",
" X c #B1BCD2",
".X c #C2BAC5",
"XX c #BFC4CD",
"oX c #B2C0C9",
"OX c #BDC0D1",
"+X c #B8C1E0",
"@X c #C4C0C5",
"#X c #C2C8C5",
"$X c #C1C2CE",
"%X c #CBC4CD",
"&X c #C7C7C9",
"*X c #D1CDCE",
"=X c #C5CADA",
"-X c #CEC2D0",
";X c #D3C9D1",
":X c #CAD5D5",
">X c #C6CDEA",
/* pixels */
"x.x.x.x.x.x.x.x.x.x.x.x.x.x.x.x.x.x.x.x.x.x.x.x.x.x.x.x.x.x.x.x.x.x.x.x.x.l.x.x.x.x.x.",
"x.x.x.x.x.x.x.x.x.x.x.x.x.x.x.x.x.x.x.x.x.x.x.x.x.x.x.x.x.x.x.x.x.x.x.x.x.x.x.x.a.x.x.",
"x.x.x.x.x.x.x.x.x.x.x.x.x.x.x.x.x.x.x.x.x.x.x.x.x.x.x.x.x.x.x.x.x.x.x.x.x.x.x.x.x.x.x.",
"x.x.x.x.x.x.x.x.x.x.x.x.x.x.x.x.x.x.a.l.x.x.x.x.x.x.x.x.x.x.x.x.x.x.x.x.x.x.x.x.x.x.x.",
"x.d.a.d.a.x.x.l.l.x.x.x.x.x.x.x.x.x.x.x.x.x.x.x.x.x.x.x.x.x.x.x.x.x.x.x.x.x.x.x.x.x.x.",
"a.d.d.i.i.j.g.z.l.i.x.x.d.x.x.x.a.x.x.x.x.d.d.d.a.x.x.x.x.x.x.x.x.x.x.x.x.x.l.x.x.x.x.",
"x.d.d.i.i.g.g.z.g.x.d.d.x.x.i.x.x.c.a.a.x.x.x.d.x.x.x.x.x.a.x.x.a.x.x.x.x.x.x.x.x.x.x.",
"x.d.s.i.d.x.x.j.c.x.x.j.x.j.x.j.j.x.c.j.x.l.x.l.x.x.x.x.x.l.x.x.x.x.x.x.x.x.x.x.x.x.x.",
"x.j.d.d.d.d.x.l.x.x.j.x.x.j.g.x.j.z.c.x.l.l.l.l.l.l.x.x.x.x.x.x.x.x.a.x.x.x.x.x.x.x.x.",
"l.x.d.d.d.d.a.x.x.g.j.j.i.z.j.z.x.z.l.x.z.l.z.z.z.x.x.x.x.x.x.x.x.x.x.x.x.x.x.x.x.x.x.",
"l.x.a.a.d.a.a.x.a.x.j.j.j.x.x.j.x.z.l.z.z.l.z.z.l.x.x.x.x.x.x.x.x.x.x.x.x.x.x.x.x.x.x.",
"z.x.x.d.d.a.d.x.x.x.x.x.j.x.x.x.x.x.l.l.l.z.z.z.z.l.x.x.x.x.x.x.x.x.x.x.x.x.x.x.x.l.x.",
"z.j.x.a.d.x.a.x.j.x.j.x.x.a.a.x.x.x.x.x.l.l.l.l.z.x.x.x.x.x.x.x.x.x.l.x.x.x.x.x.x.x.x.",
"l.l.x.a.a.x.k.g.k.c.z.a.b.x.a.b.a.d.a.a.i.x.c.j.c.l.x.x.x.x.x.x.x.x.x.x.x.x.x.x.x.x.x.",
"j.l.c.c.u.g.K.{ O.h.g.L.#.#.b.@.a.d.d.d.d.j.i.g.i.a.x.x.x.x.x.x.x.x.x.x.x.x.x.x.x.x.x.",
"x.a.a.@.L.o.[ A.` { X.+.k.L.c.x.i.f.a.d.d.a.i.i.x.x.x.x.x.x.x.x.x.x.x.x.x.x.a.x.x.x.x.",
"x.d.x.a.k.N.S.K 4 0 } B.>.t.{ r.c.u.i.i.a.u.d.j.d.x.x.x.x.x.x.x.x.x.x.x.x.x.x.x.x.x.x.",
"d.x.a.L.9.| K - b 6 p ~ 1.:.V.q.t.j.g.i.f.a.x.x.a.x.x.x.x.x.x.x.x.x.x.x.x.x.x.x.x.x.x.",
"s.d.@.j.P.L = ^ +XT.> a 2.'.<.3.>.t.k.c.g.a.x.x.a.x.x.x.x.x.x.x.x.x.x.x.x.x.l.x.x.x.a.",
"s.s.v.u.N.K 6 >X|. XY.& + 9 7 D ` [ t.c.l.l.l.l.x.x.x.x.x.x.x.x.x.x.x.x.x.x.x.x.x.x.x.",
"s.s.f.b.[ ~ = U =X$X{.|.U.Z d a 4 E [ t.e.w.z.l.l.l.x.x.x.x.x.x.x.a.x.x.x.x.x.x.x.x.x.",
"i.6.n.8.y.C.x - i ].$X}..X%X.X].t p ,.R 4 H >.l.l.l.x.x.x.x.x.x.x.x.x.x.x.x.x.x.x.x.x.",
"7.' 7.r.r.N.D.R $ C &X|..X-X/.:Xs : ;.8 4 e 4.+.l.l.x.x.l.x.x.x.x.x.x.x.x.l.x.x.x.x.x.",
"i.b.8.j.b. .4.4.m O `..X.X-X}. X; F 5.h 5 k >.t.x.x.x.x.x.x.x.x.x.x.x.x.x.x.x.x.x.x.x.",
"i.v.x.f.x.h.J.3.I O :X^.(.*X.Xa r 5.0.P g H >.6.c.d.x.x.x.x.x.x.x.x.x.x.x.a.x.x.x.x.x.",
"i.i.x.$.l.G.J.m.! @ U.).(.(.S o / m.&.X.) ] Z...j.x.x.x.x.x.x.x.x.x.x.x.x.x.x.x.x.x.x.",
"s.v.d.a.z.*.&.+.T + A %X@XR.A > 1.m.J.&.G.F.t.j.v.d.x.x.x.x.x.x.x.x.x.x.x.x.x.x.x.x.x.",
"i.d.d.x.$.*.I.J.z 2 U.E.*X).Q.o G >.w.z.z.z.@.x.d.d.x.x.x.x.x.x.x.x.l.x.x.x.x.x.x.x.x.",
"i.d.d.a.c.*.X.O.| b + Y.^._.`.N 8 C...L.z.%.L.p.d.x.x.x.x.x.x.x.x.x.x.x.x.x.a.x.x.x.x.",
"x.i.x.x.l.+.+.3.R ( f X R.`.!.i j >.r.l.l.*.x.d.d.a.x.x.x.x.x.x.x.x.x.x.x.x.x.x.x.x.l.",
"i.7.u.f.x.G.N.P 3 - Y   V `.T.: Q y.i.l.l.l.d.d.d.d.x.x.x.x.x.x.x.x.x.x.x.x.x.x.x.x.x.",
"i.i.u.i.c.t.Z.W 6 @ o . V ~.> q C.g.a.l.l.l.j.i.i.i.x.x.x.x.x.x.x.x.x.x.x.x.x.x.x.x.x.",
"i.v.v.b.c.] N.:.l t 1 < ^.B # :.w.j.d.l.l.l.g.7.7.j.x.x.x.x.x.x.x.x.x.x.x.x.x.x.x.a.x.",
"i.i.u.i.c.h.N.E 5 d oX#XW., v B.z.i.a.x.l.l.x.r.7.x.x.x.x.x.x.x.x.x.x.x.x.x.x.x.x.x.x.",
"i.j.f.d.c.h.e._ w # ].{.=Xb v O.#.g.i.j.z.z.l.g.i.x.x.x.x.x.x.x.x.x.x.x.x.x.x.x.x.x.x.",
"x.v.d.a.c.*.h.m.W 5 $ n % * 0 F.L.7.7.r.g.z.*.z.x.x.x.x.x.x.x.x.x.x.l.x.l.x.x.x.x.x.x.",
"x.d.d.d.x.z.h.J.m.J l 9 c J W h.#.7.7.r.g.z.*.l.l.x.x.x.l.x.x.x.x.x.x.x.x.x.x.x.x.x.x.",
"x.x.x.x.x.l.x.z.h.h.e.0.0.e.h.z.c.x.j.x.x.l.l.l.x.x.x.x.x.x.x.a.x.x.x.x.x.x.x.x.x.x.x.",
"x.x.x.x.x.x.x.x.x.x.x.x.x.x.x.x.x.x.x.x.x.x.x.x.x.x.x.x.x.x.x.x.x.a.x.x.x.x.x.x.x.x.x.",
"x.x.x.x.x.x.x.x.x.x.x.x.x.x.x.x.x.x.x.x.x.x.a.x.x.x.x.x.x.x.x.x.x.x.x.x.x.x.x.x.x.x.x.",
"x.x.x.x.x.x.x.x.x.x.x.x.x.x.x.x.x.x.x.x.x.x.x.x.x.x.x.x.x.x.x.x.x.x.x.x.x.x.x.x.x.x.x.",
"x.x.x.x.x.x.x.x.x.x.x.x.x.x.x.x.x.x.x.x.l.x.x.x.x.x.x.x.x.a.x.x.x.x.x.x.x.x.x.x.x.x.l.",
"x.x.x.x.x.x.x.x.x.x.x.x.x.x.x.x.x.x.x.x.x.x.x.x.x.x.x.x.x.x.x.x.x.x.x.x.x.a.x.x.x.x.x."
};
