/* XPM */
static char *tile2181719244608[] = {
/* columns rows colors chars-per-pixel */
"43 43 105 2 ",
"   c #C5C9D5",
".  c #000025",
"X  c #5F83CF",
"o  c #5986EB",
"O  c #6090FE",
"+  c #4F82F7",
"@  c #4980F7",
"#  c #5189FF",
"$  c #4982F5",
"%  c #518AFB",
"&  c #5188FC",
"*  c #5387FF",
"=  c #5386FF",
"-  c #5187FF",
";  c #5088FF",
":  c #4E8BF6",
">  c #4E8BF5",
",  c #5089FC",
"<  c #5188FF",
"1  c #3D4A6A",
"2  c #001952",
"3  c #5C87E5",
"4  c #5488F8",
"5  c #5388FC",
"6  c #5387FD",
"7  c #5188FD",
"8  c #0E1F4B",
"9  c #2D4992",
"0  c #5A86EF",
"q  c #000032",
"w  c #5976C4",
"e  c #5887F1",
"r  c #000C46",
"t  c #6483D5",
"y  c #5887F3",
"u  c #2D4283",
"i  c #6484DB",
"p  c #5886F5",
"a  c #4F66AC",
"s  c #6889E6",
"d  c #5787F5",
"f  c #607CC6",
"g  c #6488E8",
"h  c #5787F6",
"j  c #7494E1",
"k  c #567EE0",
"l  c #5587F8",
"z  c #476BB9",
"x  c #5E8AED",
"c  c #6187D8",
"v  c #4D7AE1",
"b  c #5487FA",
"n  c #5F89DF",
"m  c #6192FB",
"M  c #5388FA",
"N  c #628FEA",
"B  c #4579E7",
"V  c #4E7EE0",
"C  c #568BFF",
"Z  c #5384ED",
"A  c #568CFF",
"S  c #6395FF",
"D  c #3D73F1",
"F  c #4377E5",
"G  c #5B93FF",
"H  c #518BEF",
"J  c #518FF6",
"K  c #518DEF",
"L  c #4484E5",
"P  c #5089FA",
"I  c #5B96FA",
"U  c #508EF1",
"Y  c #538CF5",
"T  c #4A82EF",
"R  c #4D8AF5",
"E  c #4A82F3",
"W  c #5791FF",
"Q  c #497EF2",
"!  c #568EFF",
"~  c #5589FF",
"^  c #548BFF",
"/  c #5587FF",
"(  c #5084FA",
")  c #5789FF",
"_  c #5184FA",
"`  c #598CFF",
"'  c #5285FB",
"]  c #5285FA",
"[  c #588BFE",
"{  c #5486F9",
"}  c #5587FA",
"|  c #5183F2",
" . c #5786F8",
".. c #4D81F1",
"X. c #5586FC",
"o. c #5186FF",
"O. c #5089FD",
"+. c #508AF8",
"@. c #508AF6",
"#. c #508AF5",
"$. c #4E8CF3",
"%. c #4D8BF2",
"&. c #4D89F7",
"*. c #4D8AF4",
"=. c white",
/* pixels */
"  . X o O + @ # $ % & * = = - ; : > , < < < < < < < < < < < < < < < < < < < < < < < < ",
"1 2 3 4 5 6 < < 7 7 7 < - - - < , , 7 < < < < < < < < < < < < < < < < < < < < < < < < ",
"8 9 0 < < < < < < < < < < < < < < < < < < < < < < < < < < < < < < < < < < < < < < < < ",
"q w e < < < < < < < < < < < < < < < < < < < < < < < < < < < < < < < < < < < < < < < < ",
"r t y < < < < < < < < < < < < < < < < < < < < < < < < < < < < < < < < < < < < < < < < ",
"u i p < < < < < < < < < < < < < < < < < < < < < < < < < < < < < < < < < < < < < < < < ",
"a s d < < < < < < < < < < < < < < < < < < < < < < < < < < < < < < < < < < < < < < < < ",
"f g h < < < < < < < < < < < < < < < < < < < < < < < < < < < < < < < < < < < < < < < < ",
"j k l < < < < < < < < < < < < < < < < < < < < < < < < < < < < < < < < < < < < < < < < ",
"z x l < < < < < < < < < < < < < < < < < < < < < < < < < < < < < < < < < < < < < < < < ",
"c v b < < < < < < < < < < < < < < < < < < < < < < < < < < < < < < < < < < < < < < < < ",
"n m M < < < < < < < < < < < < < < < < < < < < < < < < < < < < < < < < < < < < < < < < ",
"N B 5 < < < < < < < < < < < < < < < < < < < < < < < < < < < < < < < < < < < < < < < < ",
"V C 7 < < < < < < < < < < < < < < < < < < < < < < < < < < < < < < < < < < < < < < < < ",
"Z A < < < < < < < < < < < < < < < < < < < < < < < < < < < < < < < < < < < < < < < < < ",
"S D - < < < < < < < < < < < < < < < < < < < < < < < < < < < < < < < < < < < < < < < < ",
"F G < < < < < < < < < < < < < < < < < < < < < < < < < < < < < < < < < < < < < < < < < ",
"H J , < < < < < < < < < < < < < < < < < < < < < < < < < < < < < < < < < < < < < < < < ",
"K L P < < < < < < < < < < < < < < < < < < < < < < < < < < < < < < < < < < < < < < < < ",
"I U P < < < < < < < < < < < < < < < < < < < < < < < < < < < < < < < < < < < < < < < < ",
"Y J , < < < < < < < < < < < < < < < < < < < < < < < < < < < < < < < < < < < < < < < < ",
"T R , < < < < < < < < < < < < < < < < < < < < < < < < < < < < < < < < < < < < < < < < ",
"E W 7 < < < < < < < < < < < < < < < < < < < < < < < < < < < < < < < < < < < < < < < < ",
"Q ! 7 < < < < < < < < < < < < < < < < < < < < < < < < < < < < < < < < < < < < < < < < ",
"~ ^ 7 < < < < < < < < < < < < < < < < < < < < < < < < < < < < < < < < < < < < < < < < ",
"/ ( < < < < < < < < < < < < < < < < < < < < < < < < < < < < < < < < < < < < < < < < < ",
") _ * < < < < < < < < < < < < < < < < < < < < < < < < < < < < < < < < < < < < < < < < ",
"` ' * < < < < < < < < < < < < < < < < < < < < < < < < < < < < < < < < < < < < < < < < ",
"` ] 6 < < < < < < < < < < < < < < < < < < < < < < < < < < < < < < < < < < < < < < < < ",
"[ { 6 < < < < < < < < < < < < < < < < < < < < < < < < < < < < < < < < < < < < < < < < ",
"l } 6 < < < < < < < < < < < < < < < < < < < < < < < < < < < < < < < < < < < < < < < < ",
"|  .6 < < < < < < < < < < < < < < < < < < < < < < < < < < < < < < < < < < < < < < < < ",
"..X.6 < < < < < < < < < < < < < < < < < < < < < < < < < < < < < < < < < < < < < < < < ",
"7 = - < < < < < < < < < < < < < < < < < < < < < < < < < < < < < < < < < < < < < < < < ",
"< o.- < < < < < < < < < < < < < < < < < < < < < < < < < < < < < < < < < < < < < < < < ",
"< - - < < < < < < < < < < < < < < < < < < < < < < < < < < < < < < < < < < < < < < < < ",
"O.< < < < < < < < < < < < < < < < < < < < < < < < < < < < < < < < < < < < < < < < < < ",
"P , 7 < < < < < < < < < < < < < < < < < < < < < < < < < < < < < < < < < < < < < < < < ",
"+.@.7 < < < < < < < < < < < < < < < < < < < < < < < < < < < < < < < < < < < < < < < < ",
"+.#.& < < < < < < < < < < < < < < < < < < < < < < < < < < < < < < < < < < < < < < < < ",
": $., < < < < < < < < < < < < < < < < < < < < < < < < < < < < < < < < < < < < < < < < ",
"R %., < < < < < < < < < < < < < < < < < < < < < < < < < < < < < < < < < < < < < < < < ",
"&.*., < < < < < < < < < < < < < < < < < < < < < < < < < < < < < < < < < < < < < < < < "
};
