/* XPM */
static char *tile2261719244608[] = {
/* columns rows colors chars-per-pixel */
"43 43 176 2 ",
"   c #000002",
".  c #04080B",
"X  c #000213",
"o  c #060C14",
"O  c #00001D",
"+  c #000223",
"@  c #00032E",
"#  c #00092E",
"$  c #00112F",
"%  c #0A142D",
"&  c #101825",
"*  c #13132B",
"=  c #010737",
"-  c #000A35",
";  c #000539",
":  c #0B1731",
">  c #061238",
",  c #17213A",
"<  c #1B223F",
"1  c #000546",
"2  c #000649",
"3  c #00094D",
"4  c #001345",
"5  c #001D41",
"6  c #081A4C",
"7  c #001454",
"8  c #001952",
"9  c #162755",
"0  c #2E2F41",
"q  c #243352",
"w  c #273558",
"e  c #333752",
"r  c #001A64",
"t  c #082366",
"y  c #0E2B6F",
"u  c #14286D",
"i  c #1C3B7E",
"p  c #2A3D68",
"a  c #313960",
"s  c #374164",
"d  c #28497F",
"f  c #37467F",
"g  c #3C497E",
"h  c #424669",
"j  c #4B547B",
"k  c #4D616C",
"l  c #676A79",
"z  c #1D3D88",
"x  c #203D8B",
"c  c #304F86",
"v  c #2A4191",
"b  c #314B94",
"n  c #345491",
"m  c #445E97",
"M  c #495D9A",
"N  c #546787",
"B  c #616885",
"V  c #787C88",
"C  c #777E90",
"Z  c #677695",
"A  c #455DA7",
"S  c #4D6DB8",
"D  c #5776B9",
"F  c #3D74E8",
"G  c #4F73CB",
"H  c #5876CE",
"J  c #5777C9",
"K  c #4F75D8",
"L  c #557CD7",
"P  c #577EDD",
"I  c #5F7ED8",
"U  c #5D7BD3",
"Y  c #6A7BC1",
"T  c #607ED6",
"R  c #477BE8",
"E  c #497FE9",
"W  c #537DE3",
"Q  c #587EE1",
"!  c #537FEF",
"~  c #597DEA",
"^  c #5277EC",
"/  c #457CF2",
"(  c #4A7CF4",
")  c #427CF9",
"_  c #577EF1",
"`  c #778898",
"'  c #74849E",
"]  c #7086B5",
"[  c #7484BC",
"{  c #5A80CB",
"}  c #5E84D6",
"|  c #6485D4",
" . c #678FD7",
".. c #6485DB",
"X. c #6989D2",
"o. c #7590D3",
"O. c #4683E5",
"+. c #4185E8",
"@. c #4D87EC",
"#. c #4E8CEB",
"$. c #5480E1",
"%. c #5B85E5",
"&. c #5D8CE5",
"*. c #5587EC",
"=. c #5A84EA",
"-. c #558AEE",
";. c #5D89EB",
":. c #4B83F4",
">. c #4E8BF6",
",. c #4C86FD",
"<. c #4E89FE",
"1. c #5585F4",
"2. c #5985F3",
"3. c #5289F5",
"4. c #5B8AF3",
"5. c #5386FE",
"6. c #5B86FF",
"7. c #5188FF",
"8. c #5B8CFD",
"9. c #4F92FB",
"0. c #5B94F3",
"q. c #5691FF",
"w. c #5A92FD",
"e. c #6387E4",
"r. c #638AE5",
"t. c #6484EC",
"y. c #6989E7",
"u. c #6E91E5",
"i. c #7195ED",
"p. c #6091FF",
"a. c #6798FE",
"s. c #6B94FE",
"d. c #88878F",
"f. c #8D909F",
"g. c #898DA6",
"h. c #8E92AF",
"j. c #8A93A4",
"k. c #808BB8",
"l. c #8C97B5",
"z. c #8F9EB3",
"x. c #B1ACB0",
"c. c #A9AECE",
"v. c #A3ACC7",
"b. c #B3B8CB",
"n. c #AAB7DA",
"m. c #D7DCD6",
"M. c #CAC5C9",
"N. c #C0C7E3",
"B. c #DADEE7",
"V. c #DCDFEE",
"C. c #CBD5F3",
"Z. c #D7DEFB",
"A. c #ECEEE6",
"S. c #E4E4ED",
"D. c #E8EDE9",
"F. c #ECF1EB",
"G. c #FBFFE7",
"H. c #F5F5ED",
"J. c #F5FAEC",
"K. c #FBFDED",
"L. c #ECEEF2",
"P. c #E0E5FF",
"I. c #E7EAFB",
"U. c #E9EEFF",
"Y. c #FAEFF7",
"T. c #EDF2F1",
"R. c #EDF2FD",
"E. c #EDFFFF",
"W. c #F3F5F3",
"Q. c #F9F2F2",
"!. c #F4FAF4",
"~. c #FDFEF5",
"^. c #F4F5FD",
"/. c #FCF5FE",
"(. c #F5FCFD",
"). c #FDFEFE",
/* pixels */
"7.7.7.7.7.7.7.7.7.7.7.7.7.7.7.7.7.7.7.7.7.7.7.7.7.7.<.3.7.5.5.5.3.>.<.3.3.=.A - ).).).",
"7.7.7.7.7.7.7.7.7.7.7.7.7.7.7.7.7.7.,.5.,.5.7.7.7.7.3.<.5.5.5.5.7.>.>.7.3.%.A = ).).).",
"7.7.7.7.7.7.7.7.7.5.7.7.7.5.7.7.7.7.7.7.7.7.7.7.7.<.7.7.5.5.6.5.3.>.<.>.5.%.A - ).).).",
"7.7.7.7.7.7.7.7.7.7.7.7.7.7.7.7.7.7.7.7.7.7.7.7.7.7.3.<.5.5.5.5.7.>.>.3.4.%.A - ).).).",
"7.7.7.7.7.7.7.7.7.7.7.7.7.7.,.5.7.7.7.7.7.7.7.7.7.7.7.3.5.5.5.5.3.<.>.3.1.%.A = ).).).",
"7.7.7.7.7.7.7.7.7.7.7.7.7.7.7.7.7.7.7.7.7.7.7.7.7.7.<.7.7.7.7.5.7.<.3.*.%.| M - ).).).",
"7.7.7.7.7.7.7.7.7.7.7.7.7.7.7.7.7.7.7.7.7.7.7.7.7.7.7.5.#.+.3.<.) 8.%.| m p q % R.(.).",
"7.7.7.7.7.7.7.7.7.7.7.7.7.7.7.7.7.7.7.7.7.7.5.7.7.7.7.( w.#.+.>.8.@.u.7 + , X X (.(.).",
"7.7.7.7.7.7.7.7.7.5.7.7.7.7.7.7.7.7.7.7.7.7.7.7.7.5.( 6.3.#.#.O.a.L y 6 C.R.V.^.!.(.).",
"7.5.7.7.7.7.7.7.7.7.7.7.7.7.7.7.7.7.7.7.7.7.7.7.7.5.5.8.E *.0.&.} i = n.U.).).D.).D.).",
"7.7.7.7.7.7.7.7.7.7.7.7.7.7.7.7.7.7.7.7.7.7.7.7.7.5.5.5.1.2.&. .d - v.).)./.Q.~.).).).",
"7.7.7.7.7.5.7.7.7.7.7.7.5.7.7.7.7.7.7.7.7.7.7.7.7.5.8.:.6.=.r.n $ ' (.)./.)./.~.A.~.).",
"7.5.7.7.7.7.7.7.7.7.7.7.7.7.7.7.7.7.7.7.7.7.7.7.7.7.5.1.6.^ G 4 k (.).).Y.Q.).~.H.).).",
"7.,.7.7.7.7.7.7.,.5.7.7.7.7.7.7.7.7.7.7.7.7.7.7.7.7.3.7.5._ x # (.J.~.Q./.).H.~.).H.).",
"7.7.7.7.7.7.7.7.7.7.7.7.7.7.7.7.7.7.7.5.7.7.7.7.7.<.q.F 6.~ r N !.K.K.~.).).~.!.).).).",
"7.7.7.7.7.7.7.7.7.7.7.7.7.7.7.7.7.7.7.7.7.7.7.7.7.7.:.p._ t.7 ' J.G.~./.).).).~.(.).).",
"7.7.7.7.7.7.7.7.7.7.7.7.7.7.7.7.7.7.7.7.7.7.7.7.7.7.:.8.%...; z.~.J.K.~.).).).(.).).).",
"7.7.7.7.7.7.7.7.7.7.7.7.7.7.7.7.7.7.7.7.7.7.7.7.7.7.3.W i.o.@ j.).K.~.).).).(.(.(.).).",
"7.7.7.7.7.7.7.7.7.7.7.7.7.7.7.7.7.7.5.,.7.7.7.7.7.5.=.r.D ] % V ).).).~.(.(.).(.).).).",
"7.7.7.7.7.7.7.7.7.7.7.7.7.7.7.7.7.7.7.7.7.7.7.7.7.5.~ T 4 q & d./.).).).).(.).).~.).).",
"7.7.7.7.7.7.7.7.7.7.7.7.7.7.7.7.7.7.7.7.7.7.7.7.7.6.t.v - X . x.)./.).).!.).).).~.~.).",
"7.7.7.5.7.7.7.7.7.7.7.7.5.5.5.5.5.7.7.,.7.7.7.<.5.=.y.2 Z o   M.)./.).).).~.).).~.~.).",
"7.7.7.7.7.7.7.7.7.7.7.7.5.5.5.5.5.5.7.,.,.w./ 8.3.r.Y = B X . ^.).).).).).).).).).).).",
"7.7.7.7.7.7.7.7.7.7.7.7.5.5.5.5.5.5.7.,.,.q.:.w.2...[ + e X B.T.).W.).).).).).).).).).",
"7.7.7.7.7.7.7.5.7.7.<.7.7.5.5.8.5.7.<.<.:.7.3.8.*.} g O g.).R.(.).~.).).).).).).).).).",
"7.7.7.7.7.7.7.,.7.7.<.<.7.5.3.5.5.7.,.<.,.>.8.4.%.U @ l.).(.).(.F.).).).).).).).).).).",
"7.7.7.7.7.7.7.7.<.<.<.<.7.7.5.5.5.7.:.7.<.<.3.;.&.S - (.I.(.T.).).H.).).).).).).).).).",
"7.5.7.7.7.7.7.7.<.<.<.<.<.7.5.5.5.7.<.7.>.3.-.%.e.b > R.(.).).!.J.~.).).).).).).).).).",
"7.7.7.7.7.7.7.7.7.7.<.<.<.<.7.7.5.7.<.<.3.3.*.%...t s R.).T.m.(.~.~.).).).).).).).).).",
"7.5.7.7.7.7.7.7.7.7.<.<.<.7.3.3.3.7.<.:.3.3.=.r.} 2 l.(.S.).).J.~.~.~.).).).).).).).).",
"7.7.7.7.7.7.7.7.7.<.<.<.<.7.7.7.7.7.7.:.>.4.%.r.e.2 C.).T.T.).J.~.~.).).).).).).).).).",
"7.7.7.7.7.7.7.7.7.<.<.<.7.7.7.3.7.<.7.3.3.3.$...| 2 N.).).).A.J.~.~.).).).).).).).).).",
"7.7.7.7.7.7.7.7.7.,.,.<.7.7.5.7.,.7.<.<.3.1.$.e.| 2 Z.^.L.).).~.H.).).).).).).).).).).",
"7.7.5.7.5.7.7.7.7.7.7.7.3.7.5.5.7.<.<.7.>.1.=.y...1 U.).).).~.).~.).).).).).).).).).).",
"7.7.,.7.7.7.7.7.7.7.7.7.5.5.5.5.7.<.,.q.<.1.;.r.U 1 P.S.R./.~.W.).~.).).).).).).).).).",
"7.7.7.7.7.7.7.7.7.7.5.5.5.5.5.5.,.<.<.7.:.3.4.e.H 3 c.).).L.).).!.).).).).).).).).).).",
"7.7.7.7.7.7.7.7.7.7.5.5.5.5.5.5.5.<.,.7.,.4.4.P T u h /././.).).^.).).).).).).).).).).",
"7.7.7.7.7.7.7.7.7.3.5.3.3.8.5.5.5.7.<.7.,.6.8.Q y.b = * 0 ).(.!.).!.).).).).).).).).).",
"7.7.7.7.7.7.7.7.7.7.3.>.5.5.5.5.( 5.3.w.3./ 6.6.K | c e + R.).).Q.~.~.).).).).).).).).",
"7.7.7.7.7.7.7.5.7.3.3.3.3.5._ 5.5.,.-.@.3.8.5.2.y.X.Y k.+ v.).(.~.~.~.~.).).).).).).).",
"7.7.7.7.7.7.7.7.7.<.3.>.3.7.5.5.5.3.@.-.8.8._ =.{ c 9 j < C ).^.~.H.~.~.).).).(.).).).",
"7.7.7.7.7.7.7.7.7.7.<.7.3.7.5.7.7.>.0.@.O.3.s.G 8 # w O X f.).~.~.~.)./.).).).).).(.).",
"7.7.7.7.7.7.7.7.7.7.<.7.7.3.5.,.3.<.#.#.p.4.Q z 5 E.(.b.l ).)./.).Q.)./.).).).).).).)."
};
