/* XPM */
static char *tile0251719244617[] = {
/* columns rows colors chars-per-pixel */
"43 43 51 1 ",
"  c #5188FF",
". c #5387FF",
"X c #5188FD",
"o c #5089FD",
"O c #5187FF",
"+ c #5188FC",
"@ c #5388FC",
"# c #5486FF",
"$ c #5387FD",
"% c #5089FC",
"& c #4E8AFC",
"* c #5586FD",
"= c #5785FF",
"- c #5485FF",
"; c #5386FF",
": c #5186FF",
"> c #5087FF",
", c #5088FF",
"< c #5287F7",
"1 c #5288F5",
"2 c #5387F5",
"3 c #5088F9",
"4 c #4D89F9",
"5 c #5189FA",
"6 c #5089FA",
"7 c #4E8AFA",
"8 c #5586FC",
"9 c #5785FD",
"0 c #5288F4",
"q c #5387F4",
"w c #5088F7",
"e c #4E89FD",
"r c #5488F8",
"t c #4E89FF",
"y c #508AF8",
"u c #4D89FB",
"i c #5189F6",
"p c #5189F8",
"a c #5087FB",
"s c #4F88FB",
"d c #4E8AF8",
"f c #4E8BF5",
"g c #4E8BF6",
"h c #4D8CF6",
"j c #4D8BF8",
"k c #5087FC",
"l c #4D8BFA",
"z c #4D8CF5",
"x c #4D8CF3",
"c c #4F87FE",
"v c white",
/* pixels */
"                                           ",
"                                           ",
"                                           ",
"                                           ",
"                                           ",
"                                           ",
"                                           ",
"                                           ",
"                                           ",
"                                           ",
"                                           ",
"                                           ",
"                                           ",
"                                           ",
"                                           ",
"                                           ",
"                                           ",
"                                           ",
"                                           ",
"                                           ",
"                                           ",
"                                           ",
"                                           ",
"                                           ",
"                                           ",
"                                           ",
"                                           ",
"                                           ",
"                                           ",
"                                           ",
"                                           ",
"                                           ",
"                                           ",
"                                           ",
"                                           ",
"                                           ",
"               .    XXXXXXoXX...OOO XX+@XXo",
"             ..#.$$$@++%%%&%+*=-;:>,+<12<34",
"             ####$$@@556677&+89#;>>o60qq1w4",
"             ####$$@@++%%%%e%rr$ ,t&y101<3u",
"             .###$$$@X+ooooe%iip6&&&6w1<3as",
"             $$$$$$XX X  ,,,odffghj7&s333ak",
"             $$$$$$    O ,,,,lhzxzg&eccs33a"
};
