/* XPM */
static char *tile0261719244617[] = {
/* columns rows colors chars-per-pixel */
"43 43 189 2 ",
"   c #00020C",
".  c #010513",
"X  c #010B15",
"o  c #02041C",
"O  c #000A1C",
"+  c #000224",
"@  c #020C24",
"#  c #00052D",
"$  c #000A28",
"%  c #071822",
"&  c #061625",
"*  c #000332",
"=  c #000A31",
"-  c #00043D",
";  c #000B3D",
":  c #001539",
">  c #071533",
",  c #0C253C",
"<  c #1B273D",
"1  c #000B41",
"2  c #00094B",
"3  c #00184B",
"4  c #09194A",
"5  c #00095F",
"6  c #132441",
"7  c #182641",
"8  c #12254D",
"9  c #0F2755",
"0  c #1B2C52",
"q  c #152959",
"w  c #222C46",
"e  c #2C3848",
"r  c #26344E",
"t  c #2F3A56",
"y  c #001669",
"u  c #0E3167",
"i  c #1E3466",
"p  c #092F70",
"a  c #193171",
"s  c #243A6C",
"d  c #273B70",
"f  c #37435D",
"g  c #2D437A",
"h  c #2F4173",
"j  c #395177",
"k  c #65666A",
"l  c #2E4C84",
"z  c #2E428A",
"x  c #3B4F8C",
"c  c #2D5588",
"v  c #2E4893",
"b  c #375498",
"n  c #3F66A7",
"m  c #3564BE",
"M  c #435499",
"N  c #4C668B",
"B  c #576981",
"V  c #5D6981",
"C  c #48629F",
"Z  c #4C6B97",
"A  c #687482",
"S  c #727A8F",
"D  c #495CAB",
"F  c #5E71AB",
"G  c #516DB9",
"H  c #5877BA",
"J  c #577EBF",
"K  c #5E79BC",
"L  c #667DAF",
"P  c #3D71D9",
"I  c #3A6BE2",
"U  c #406AC0",
"Y  c #4D72C0",
"T  c #5C7CC5",
"R  c #5078CF",
"E  c #5878C8",
"W  c #4977DE",
"Q  c #5E7DD9",
"!  c #657DCD",
"~  c #637DD8",
"^  c #4977E6",
"/  c #4C7DE4",
"(  c #4B7DE8",
")  c #4A76EC",
"_  c #537CE4",
"`  c #5C7EE4",
"'  c #537DEF",
"]  c #4A7DF5",
"[  c #497FF9",
"{  c #5B7EF4",
"}  c #7C88A0",
"|  c #5D81CF",
" . c #5681DF",
".. c #5A87D6",
"X. c #6C84C6",
"o. c #6985CC",
"O. c #7590C5",
"+. c #6484D1",
"@. c #6987D3",
"#. c #6085DE",
"$. c #6880DA",
"%. c #688BD7",
"&. c #7D9CD3",
"*. c #4E81EE",
"=. c #5C84E4",
"-. c #5281ED",
";. c #5D84EC",
":. c #5E8AEC",
">. c #588AE4",
",. c #4C82F3",
"<. c #4B8BF5",
"1. c #4783F9",
"2. c #4D85FD",
"3. c #468DF9",
"4. c #4D8AFC",
"5. c #5285F5",
"6. c #5B84F4",
"7. c #5589F2",
"8. c #5386FE",
"9. c #5188FF",
"0. c #598CFE",
"q. c #5986F5",
"w. c #4F90F8",
"e. c #5C92FE",
"r. c #6385E3",
"t. c #6886E6",
"y. c #6589E6",
"u. c #6585EE",
"i. c #688CEA",
"p. c #6D92EC",
"a. c #6B91E4",
"s. c #7896E9",
"d. c #6082F0",
"f. c #688FF4",
"g. c #608CFE",
"h. c #688FF8",
"j. c #6388F3",
"k. c #6393FF",
"l. c #6D95FF",
"z. c #8794AF",
"x. c #939BA6",
"c. c #8F9DB7",
"v. c #97A1AD",
"b. c #9BA8B1",
"n. c #A1A4B7",
"m. c #B0B8BA",
"M. c #A5BACA",
"N. c #B7C3C3",
"B. c #BED1E0",
"V. c #D0D7CF",
"C. c #C7CEDE",
"Z. c #CFD9D8",
"A. c #C9D5D7",
"S. c #CCE0DE",
"D. c #D8E8DE",
"F. c #EAEDDA",
"G. c #EDF0DD",
"H. c #C0C7E3",
"J. c #DBD5E3",
"K. c #DFE4E0",
"L. c #D1E8FF",
"P. c #DCE7F7",
"I. c #EFE6E7",
"U. c #E8EAE7",
"Y. c #E7E7E9",
"T. c #E6E9EE",
"R. c #F1EBED",
"E. c #ECF3EB",
"W. c #F2F6E2",
"Q. c #F9F0E7",
"!. c #F1F4EC",
"~. c #FEF6EA",
"^. c #F6FAEE",
"/. c #FBFEEC",
"(. c #F5FDE6",
"). c #ECEDF3",
"_. c #EDEEFB",
"`. c #F1EFF4",
"'. c #ECF3F3",
"]. c #EDF4FD",
"[. c #EDFCFF",
"{. c #F3F5F4",
"}. c #FAF5F5",
"|. c #F5FBF3",
" X c #FCFDF4",
".X c #F3F4FD",
"XX c #FBF5FE",
"oX c #F5FCFE",
"OX c #FEFFFE",
/* pixels */
"9.9.4.<.9.4.9.9.8.9.[ 0.8.5.*.7.7.m 2 3 * : h x G r.' 5.' p.1 }  X~.OXOXOXOXOXOXOXOXOX",
"9.4.9.4.4.9.4.9.9.9.0.9.5.5.-.k.P 5 &.L.z.B t > - G y.=.f.| 1 H.OX~.OXOXOXOXOXOXOXOXOX",
"9.9.4.4.4.4.4.4.9.9.0.5.8.q.*.e.W y : 6 OXOXOX.Xt 1 +.#.y.E 1 _.R. X XOXOXOXOXOXOXOXOX",
"9.9.4.<.4.4.9.4.9.2.2.0.8.5.5.7.7.U - = n..XOXOXoX: l @.Q b ; oXI. X XOXOXOXOXOXOXOXOX",
"9.9.4.4.4.4.4.9.9.9.[ k.5.( e.5.*.>.o.q w oX X XXXS * L O.9 6 oXOXQ. X XOXOXOXOXOXOXOX",
"9.9.9.9.9.9.9.9.9.9.9.9.9.8.8.9.7.-.>.n $ B.oXOXXXOX+ o   X Z.E. X XOXOXOXOXOXOXOXOXOX",
"9.9.9.9.9.9.9.9.9.9.9.9.9.9.9.9.9.9. ...c $ b.OXOXOXJ.k k V. XOXOX{.OXOXOXOXOXOXOXOXOX",
"9.9.9.9.9.9.9.9.9.9.9.9.9.9.9.9.9.9.e.>.J j o C.OXXX).OX'.OX|. XU.OXOXOXOXOXOXOXOXOXOX",
"9.9.9.9.9.9.9.9.9.9.9.9.9.9.9.9.9.9.w.*.| X.8 w OX.XOXOXOXoX'.OXOX XOXOXOXOXOXOXOXOXOX",
"9.9.9.9.9.9.9.9.9.9.9.9.9.9.9.9.9.9.e.P :.+.g = @ . OXT..XOX.XOXOXR.OXOXOXOXOXOXOXOXOX",
"9.9.9.9.9.9.9.9.9.9.9.9.9.9.9.9.9.4.1.e.k.i.v 1 7   m.OXOX_.OXOXY.OXOXOXOXOXOXOXOXOXOX",
"9.9.9.9.9.9.9.9.9.9.9.9.9.9.9.9.9.9.1.e.I 6.i.X.j % Z.!.].oXOXOX!.OXOXOXOXOXOXOXOXOXOX",
"9.9.9.9.9.4.9.9.9.9.9.2.9.9.9.9.9.2.4.2.8.g.` @.N X [. XOX.X.XOXOX XOXOXOXOXOXOXOXOXOX",
"9.9.9.9.9.9.9.9.9.9.9.9.9.9.9.9.9.9.1.9.9.8.d.%.Z X S.|.OXoXoXOX XOXOXOXOXOXOXOXOXOXOX",
"9.9.9.9.9.9.9.9.9.9.9.9.9.9.9.9.9.9.9.3.2.2.0.R u , [.D.E.OX XOXOX!.OXOXOXOXOXOXOXOXOX",
"9.9.9.9.9.9.9.9.9.9.9.9.9.9.9.9.9.9.9.4.2.] k.=.p = M.oX^.^.OX X|. XOXOXOXOXOXOXOXOXOX",
"9.9.9.9.9.9.9.9.9.9.9.9.9.9.9.9.9.9.*.w.2.9.5.:.Y 3 , .X|./. X^.{.OXOXOXOXOXOXOXOXOXOX",
"8.9.9.9.9.9.9.9.9.9.9.9.9.9.9.9.9.9.5.7.2.e.9.' p.H # A E. X/.!.OXoXOXOXOXOXOXOXOXOXOX",
"2.9.9.9.9.9.9.9.9.9.9.9.9.9.9.9.9.8.0.9.0.,.0.0._ s.d $ OXW././.OX].OXOXOXOXOXOXOXOXOX",
"9.9.9.9.9.9.9.9.9.9.9.9.9.9.9.9.9.9.7.0.8.) 0.k.) Q M + OXG./. XOXXXOXOXOXOXOXOXOXOXOX",
"9.9.9.9.9.9.9.9.9.9.9.9.9.9.9.9.9.8.8.0.5.e.[ ] l.u.D * P. X X|.XXoXOXOXOXOXOXOXOXOXOX",
"9.9.9.9.9.9.9.9.9.9.9.9.9.9.9.9.9.9.5.<.<.4.4.9.8.d.~ - z.OXOX XOXOXOXOXOXOXOXOXOXOXOX",
"9.9.9.9.9.9.9.9.9.9.9.9.9.9.9.9.9.9.4.4.<.<.4.2.8.{ t.z = ].{.}.OX.XOXOXOXOXOXOXOXOXOX",
"9.9.9.9.9.9.9.9.9.9.9.2.2.9.9.9.9.9.9.2.4.<.<.4.8.6.` ! 4 f OX{.OXOXOXOXOXOXOXOXOXOXOX",
"9.9.2.9.9.9.9.9.9.9.9.9.9.9.9.9.9.8.8.8.4.<.<.<.8.8.j.~ F + x.OXOX{.OXOXOXOXOXOXOXOXOX",
"9.9.9.9.9.9.9.9.9.9.9.9.9.9.9.9.9.8.8.8.<.<.<.3.9.8.g.t.! w e '.OX XOXOXOXOXOXOXOXOXOX",
"9.9.9.9.9.9.9.9.9.9.9.9.9.9.9.9.9.8.8.8.4.<.3.<.4.4.[ u.o.q < .X{.OXOXOXOXOXOXOXOXOXOX",
"9.9.9.9.9.9.9.9.9.9.9.9.9.9.9.9.9.8.8.8.9.<.3.3.4.2.0.W @.i r oX X^.OXOXOXOXOXOXOXOXOX",
"9.9.9.9.9.9.9.9.9.9.9.9.9.9.9.9.9.8.8.{ 5.<.<.3.4.2.8.f.+.- c.].|.OXOXOXOXOXOXOXOXOXOX",
"9.9.9.9.9.9.9.9.9.9.9.9.9.4.9.9.9.8.8.8.9.w.<.3.3.4.8._ T # P.OX{.OXOXOXOXOXOXOXOXOXOX",
"9.9.9.9.9.9.9.9.9.9.9.9.9.9.0.9.8.8.8.8.9.<.3.3.4.4.^  .b = oXoXOXD.OXOXOXOXOXOXOXOXOX",
"9.9.9.9.9.9.9.9.9.9.9.9.9.9.8.8.8.8.8.8.9.4.4.4.9.8.=.s.g 6 [.'.].OXOXOXOXOXOXOXOXOXOX",
"9.2.9.9.9.9.9.9.9.9.9.9.9.9.9.9.9.9.9.9.2.4.4.9.8.q.r.K 0 % [.oXOX).OXOXOXOXOXOXOXOXOX",
"9.9.9.9.9.9.9.9.9.2.9.9.9.9.9.9.9.9.5.4.4.9.9.8.q.;.+.q O N. XOX].oXOXOXOXOXOXOXOXOXOX",
"9.9.9.9.9.9.9.9.9.9.9.9.9.9.9.9.9.9.4.4.4.4.9.8.{ ` z + A.|.^. XOXXXOXOXOXOXOXOXOXOXOX",
"9.9.9.9.9.9.9.9.9.9.9.9.9.9.9.9.9.9.<.4.4.9.9.8.{ ~ a t OX(.W. X_.OXOXOXOXOXOXOXOXOXOX",
"9.2.9.9.9.9.9.9.9.9.9.9.9.9.9.9.9.9.<.<.4.9.8.6.` ! * C.^.G. XOX.XOXOXOXOXOXOXOXOXOXOX",
"4.4.9.9.9.9.9.9.9.9.2.9.9.9.9.9.9.4.<.w.2.8.0.6.@.s > oXOX}.OX}.OXOXOXOXOXOXOXOXOXOXOX",
"<.4.9.9.9.9.9.9.9.9.9.9.9.9.9.9.9.9.<.<.[ k.' p.C + v.OXOXOXXXXX XOXOXOXOXOXOXOXOXOXOX",
"4.<.2.9.9.9.9.9.9.9.9.9.9.9.9.9.9.9.7.<.9.0.:.| * B OXXXXXXXXXOX{. XOXOXOXOXOXOXOXOXOX",
"2.4.2.9.9.9.9.9.9.9.9.9.9.9.9.9.9.9.0.9.7.( a.a : [.XX`.OXXXXXOX X XOXOXOXOXOXOXOXOXOX",
"9.2.9.9.9.9.9.9.9.9.9.9.9.9.9.9.4.9.2.8.( i.| * M.oX.XOXOXOXXXOX|. XOXOXOXOXOXOXOXOXOX",
"9.2.9.9.9.9.9.9.9.9.9.9.9.9.9.9.9.9.0.] 6.a.l $ [.'.OXOX.XXXOX`.|. XOXOXOXOXOXOXOXOXOX"
};
