/* XPM */
static char *tile2641719244607[] = {
/* columns rows colors chars-per-pixel */
"43 43 127 2 ",
"   c #000010",
".  c #00061E",
"X  c #090C1F",
"o  c #000523",
"O  c #000A24",
"+  c #00062A",
"@  c #010C2B",
"#  c #12142D",
"$  c #000333",
"%  c #000E32",
"&  c #001435",
"*  c #06143B",
"=  c #0E1E38",
"-  c #172937",
";  c #1D223F",
":  c #000941",
">  c #011341",
",  c #021942",
"<  c #001C4E",
"1  c #0C214E",
"2  c #182A4E",
"3  c #0F2355",
"4  c #142B55",
"5  c #262B48",
"6  c #2F3F4F",
"7  c #2F3855",
"8  c #152467",
"9  c #1A3B66",
"0  c #1F3C68",
"q  c #3D4258",
"w  c #364765",
"e  c #28427B",
"r  c #3C4F7A",
"t  c #40465C",
"y  c #4C5059",
"u  c #445775",
"i  c #2C3D85",
"p  c #38558F",
"a  c #3E5C8E",
"s  c #3F5890",
"d  c #41588E",
"f  c #576A8B",
"g  c #6B7787",
"h  c #787E8C",
"j  c #4C5FAB",
"k  c #4D75A9",
"l  c #5473AC",
"z  c #5476BD",
"x  c #5C7ABA",
"c  c #4E7BD0",
"v  c #567ED6",
"b  c #647BC9",
"n  c #487DE3",
"m  c #4B7FF7",
"M  c #5A81BC",
"N  c #5581C0",
"B  c #5182CF",
"V  c #5D81CD",
"C  c #5C82D7",
"Z  c #5C8CD6",
"A  c #5D85DD",
"S  c #6E8AC9",
"D  c #6185D5",
"F  c #6B8CD3",
"G  c #668CDF",
"H  c #6C8CD9",
"J  c #6491D5",
"K  c #7594D5",
"L  c #7492DA",
"P  c #4E82E8",
"I  c #5984E2",
"U  c #548AE0",
"Y  c #5A8AE3",
"T  c #5D87EB",
"R  c #578CEB",
"E  c #5A8BED",
"W  c #4682F0",
"Q  c #4E86F5",
"!  c #4E88F4",
"~  c #4785FE",
"^  c #4D85FC",
"/  c #4E8BFE",
"(  c #548AF3",
")  c #588DF3",
"_  c #5386FE",
"`  c #5188FF",
"'  c #5D8CFA",
"]  c #5B90F6",
"[  c #5593FF",
"{  c #5990FF",
"}  c #608CE4",
"|  c #6491EE",
" . c #638EF7",
".. c #6D98F7",
"X. c #84919A",
"o. c #8E929D",
"O. c #8F97A4",
"+. c #8595AE",
"@. c #9DA7B1",
"#. c #A3A9C3",
"$. c #B5B9C5",
"%. c #ABBFD8",
"&. c #BBC2CC",
"*. c #BED2ED",
"=. c #CCCADF",
"-. c #DADEEA",
";. c #CCDCF6",
":. c #D9E2E9",
">. c #D6E7FF",
",. c #EDF9EB",
"<. c #F3F3ED",
"1. c #F4FAED",
"2. c #F8FAED",
"3. c #EAE7F8",
"4. c #F3EFF0",
"5. c #E7F2F6",
"6. c #E5F2FF",
"7. c #EEF5FC",
"8. c #EFFDFF",
"9. c #F4F4F3",
"0. c #FBF5F4",
"q. c #F5FDF4",
"w. c #FCFEF5",
"e. c #F4F5FC",
"r. c #FBF6FB",
"t. c #F5FCFD",
"y. c #FFFFFF",
/* pixels */
"y.y.y.y.y.y.y.y.y.y.y.y.y.y.y.y.y.y.y.y.y.y.y.y.y.y.y.y.y.y.y.y.y.y.y.y.y.y.y.y.y.y.r.",
"y.y.y.y.y.y.y.y.y.y.y.y.y.y.y.y.y.y.y.y.y.y.y.y.y.y.y.y.y.y.y.y.y.y.y.y.y.y.y.y.y.y.q.",
"y.y.y.y.y.y.y.y.y.y.y.y.y.y.y.y.y.y.y.y.y.y.y.y.y.y.y.y.y.y.y.y.y.y.y.y.y.y.y.y.e.y.y.",
"y.y.y.y.y.y.y.y.y.y.y.y.y.y.y.y.y.y.y.y.y.y.y.y.y.y.y.y.y.y.y.y.y.y.y.y.y.y.y.y.e.y.w.",
"y.y.y.y.y.y.y.y.y.y.y.y.y.y.y.y.y.y.y.y.y.y.y.y.y.y.y.y.y.y.y.y.y.y.y.y.y.y.y.y.y.y.t.",
"y.y.y.y.y.y.y.y.y.y.y.y.y.y.y.y.y.y.y.y.y.y.y.y.y.y.y.y.y.y.y.y.y.y.y.y.y.y.y.y.y.e.y.",
"y.y.y.y.y.y.y.y.y.y.y.y.y.y.y.y.y.y.y.y.y.y.y.y.y.y.y.y.y.y.y.y.y.y.y.y.y.y.y.y.y.w.t.",
"y.y.y.y.y.y.y.y.y.y.y.y.y.y.y.y.y.y.y.y.y.y.y.y.y.y.y.y.y.y.y.y.y.y.y.y.y.y.y.w.q.y.6.",
"y.y.y.y.y.y.y.y.y.y.y.y.y.y.y.y.y.y.y.y.y.y.y.y.y.y.y.y.y.y.y.y.y.y.y.y.y.y.y.y.w.y.6.",
"y.y.y.y.y.y.y.y.y.y.y.y.y.y.y.y.y.y.y.y.y.y.y.y.y.y.y.y.y.y.y.y.y.y.y.y.y.y.y.y.q.t.+.",
"y.y.y.y.y.y.y.y.y.y.y.y.y.y.y.y.y.y.y.y.y.y.y.y.y.y.y.y.y.y.y.y.y.y.y.y.y.y.y.y.w.y.w ",
"y.y.y.y.y.y.y.y.y.y.y.y.y.y.y.y.y.y.y.y.y.y.y.y.y.y.y.y.y.y.y.y.y.y.y.y.y.y.y.y.w.t.2 ",
"y.y.y.y.y.y.y.y.y.y.y.y.y.y.y.y.y.y.y.y.y.y.y.y.y.y.y.y.y.y.y.y.y.y.y.y.y.y.y.y.w.t.* ",
"y.y.y.y.y.y.y.y.y.y.y.y.y.y.y.y.y.y.y.y.y.y.y.y.y.y.y.y.y.y.y.y.y.y.y.y.y.y.y.y.y.7.$ ",
"y.y.y.y.y.y.y.y.y.y.y.y.y.y.y.y.y.y.y.y.y.y.y.y.y.y.y.y.y.y.y.y.y.y.y.y.y.y.y.y.y.$.$ ",
"y.y.y.y.y.y.y.y.y.y.y.y.y.y.y.y.y.y.y.y.y.y.y.y.y.y.y.y.y.y.y.y.y.y.y.y.y.y.y.y.q.h : ",
"y.y.y.y.y.y.y.y.y.y.y.y.y.y.y.y.y.y.y.y.y.y.y.y.y.y.y.r.w.q.w.w.<.y.4.y.y.y.7.q.t.q 8 ",
"y.y.y.y.y.y.y.y.y.y.y.y.y.y.y.y.y.y.y.y.y.y.y.y.y.r.y.w.w.q.q.q.q.y.r.y.e.y.y.y.y.; i ",
"y.y.y.y.y.y.y.y.y.y.y.y.y.y.y.y.y.y.y.y.y.y.y.y.r.y.y.w.w.q.w.w.y.9.y.y.9.y.y.t.7.o j ",
"y.y.y.y.y.y.y.y.y.y.y.y.y.y.y.y.y.y.y.y.y.y.y.y.y.y.r.y.y.w.w.y.y.4.0.y.r.y.9.t.@.+ b ",
"y.y.y.y.y.y.y.y.y.y.y.y.y.y.y.y.y.y.y.y.y.y.y.y.w.y.w.w.q.q.y.y.y.r.r.r.y.r.q.t.6 4 H ",
"y.y.y.y.y.y.y.y.y.y.y.y.y.y.y.y.y.y.y.y.y.y.y.y.y.y.y.y.y.y.y.y.r.r.y.r.y.9.y.5.. a G ",
"y.y.y.y.y.y.y.y.y.y.y.y.y.y.y.y.y.y.y.y.y.y.y.y.w.w.w.y.y.t.y.y.r.y.y.y.w.r.y.X.& M } ",
"y.y.y.y.y.y.y.y.y.y.y.y.y.y.y.y.y.y.y.y.y.y.y.y.w.w.w.y.y.y.y.y.y.r.0.y.0.y.e.- 9 J Y ",
"y.y.y.y.y.y.y.y.y.y.y.y.y.y.y.y.y.y.y.y.y.y.y.y.w.w.w.w.y.y.y.y.y.y.0.4.r.y.:.O k B E ",
"y.y.y.y.y.y.y.y.y.y.y.y.y.y.y.y.y.y.y.y.y.y.y.w.2.w.w.y.y.t.y.y.r.9.y.y.e.7.g & N U ) ",
"y.y.y.y.y.y.y.y.y.y.y.y.y.y.y.y.y.y.y.y.y.y.y.y.w.w.y.y.y.t.y.y.y.<.y.y.t.t.= 0 Z E ( ",
"y.y.y.y.y.y.y.y.y.y.y.y.y.y.y.y.y.y.y.y.y.y.y.y.w.w.y.y.y.y.y.t.y.w.<.y.t.;.+ l Y ( Q ",
"y.y.y.y.y.y.y.y.y.y.y.y.y.y.y.y.y.y.y.y.y.y.y.y.w.w.y.t.t.y.y.w.2.y.w.t.8.f * F R ! Q ",
"y.y.y.y.y.y.y.y.y.y.y.y.y.y.y.y.y.y.y.y.y.y.y.y.y.y.y.y.y.t.y.t.2.1.w.t.8., e D ( ! ! ",
"y.y.y.y.y.y.y.y.y.y.y.y.y.y.y.y.y.y.y.y.y.y.y.y.y.y.y.y.y.y.y.q.w.1.t.t.&.> x C ( / ` ",
"y.y.y.y.y.y.y.y.y.y.y.y.y.y.y.y.y.y.y.y.y.y.y.y.r.w.y.y.t.t.y.w.q.w.q.t.u < H I _ ` _ ",
"y.y.y.y.y.y.y.y.y.y.y.y.y.y.y.y.y.y.y.y.y.y.y.y.r.y.<.w.,.q.w.y.0.0.<.y.@ p A ' _ _ ` ",
"y.y.y.y.y.y.y.y.y.y.y.y.y.y.y.y.y.y.y.y.y.y.y.y.r.y.2.q.q.q.q.y.y.y.y.$.% x T _ _ ` _ ",
"y.y.y.y.y.y.y.y.y.y.y.y.y.y.y.y.y.y.y.y.y.y.y.y.r.y.w.q.q.q.e.t.r.r.y.q 1 F  ._ ` ` ` ",
"y.y.y.y.y.y.y.y.y.y.y.y.y.y.y.y.y.y.y.y.y.y.y.y.r.y.y.q.q.t.e.y.r.e.t.@ d C ' _ _ ` ` ",
"y.y.y.y.y.y.y.y.y.y.y.y.y.y.y.y.y.y.y.y.y.y.y.y.y.r.y.q.q.t.y.y.3.=.#.$ x v _ ' _ / ` ",
"y.y.y.y.y.y.y.y.y.y.y.y.y.y.y.y.y.y.y.y.y.y.y.y.y.r.y.y.t.t.t.-.  # $ 3 L ..^ ~ / _ ` ",
"y.y.y.y.y.y.y.y.y.y.y.y.y.y.y.y.y.y.y.y.y.y.y.y.r.r.y.y.q.t.y.o.O 5 * d V E ^ ` _ _ ` ",
"y.y.y.y.y.y.y.y.y.y.y.y.y.y.y.y.y.y.y.y.y.y.y.y.y.y.r.y.q.y.t.y   7 u S G P ` / _ / ` ",
"y.y.y.y.y.y.y.y.y.y.y.y.y.y.y.y.y.y.y.y.y.y.y.y.y.w.w.y.y.y.y.y.O.O $ K c ] / ~ / _ _ ",
"y.y.y.y.y.y.y.y.y.y.y.y.y.y.y.y.y.y.y.y.y.y.y.y.w.w.y.w.w.w.w.y.8.>.$ z } n [ / / _ / ",
"y.y.y.y.y.y.y.y.y.y.y.y.y.y.y.y.y.y.y.y.y.y.y.y.w.w.y.y.w.y.y.w.t.*.$ V | ( W / / _ _ "
};
