/* XPM */
static char *tile0271719244617[] = {
/* columns rows colors chars-per-pixel */
"43 43 175 2 ",
"   c #000107",
".  c #01020B",
"X  c #000312",
"o  c #02011B",
"O  c #010C1E",
"+  c #0D0D15",
"@  c #021019",
"#  c #000325",
"$  c #000B22",
"%  c #000229",
"&  c #000C29",
"*  c #00102C",
"=  c #0E192F",
"-  c #071624",
";  c #000230",
":  c #000933",
">  c #00123F",
",  c #081538",
"<  c #121631",
"1  c #121933",
"2  c #1F2636",
"3  c #2B283B",
"4  c #000443",
"5  c #031644",
"6  c #03124A",
"7  c #081F4B",
"8  c #0F2348",
"9  c #102844",
"0  c #14264A",
"q  c #0D235F",
"w  c #072559",
"e  c #252D42",
"r  c #29334E",
"t  c #333C43",
"y  c #041A63",
"u  c #052063",
"i  c #0F2860",
"p  c #0D2D6A",
"a  c #172C6D",
"s  c #263D6F",
"d  c #293A64",
"f  c #313F64",
"g  c #254474",
"h  c #2E4676",
"j  c #2B4B7E",
"k  c #475369",
"l  c #576071",
"z  c #596271",
"x  c #54667E",
"c  c #5B6A7D",
"v  c #636969",
"b  c #767B7F",
"n  c #33508A",
"m  c #39588F",
"M  c #2A4789",
"N  c #4E648D",
"B  c #5D6D86",
"V  c #55609E",
"C  c #656C86",
"Z  c #697281",
"A  c #63718E",
"S  c #69758F",
"D  c #697C9C",
"F  c #707690",
"G  c #7D7E9C",
"H  c #5366A8",
"J  c #4366BA",
"K  c #4F70B3",
"L  c #5A7DBF",
"P  c #627CB6",
"I  c #3A61C8",
"U  c #4A6ECC",
"Y  c #5B7CC6",
"T  c #426BD4",
"R  c #567BD3",
"E  c #627ECC",
"W  c #697ECF",
"Q  c #647AC6",
"!  c #587EE1",
"~  c #5378EA",
"^  c #4578F7",
"/  c #4D7DFB",
"(  c #467EF7",
")  c #7C8396",
"_  c #6B81A6",
"`  c #7C8DB7",
"'  c #4E81C3",
"]  c #4E80C9",
"[  c #5E80C0",
"{  c #5F84CB",
"}  c #4D86DD",
"|  c #5D85DC",
" . c #5989DB",
".. c #5C88D3",
"X. c #6B87C6",
"o. c #6383CD",
"O. c #6886CC",
"+. c #6B8BC4",
"@. c #758CC2",
"#. c #6982D3",
"$. c #638AD7",
"%. c #6C8CD2",
"&. c #6385DD",
"*. c #6489DA",
"=. c #4D85ED",
"-. c #5B83E3",
";. c #508DE6",
":. c #5D88E7",
">. c #5484EC",
",. c #5985EB",
"<. c #5F8DEA",
"1. c #5482E4",
"2. c #5493E3",
"3. c #4D84F3",
"4. c #4688F6",
"5. c #4E8BF6",
"6. c #4781FC",
"7. c #4D84FD",
"8. c #4D89FD",
"9. c #4482F3",
"0. c #5385F4",
"q. c #5B85F3",
"w. c #5489F6",
"e. c #5286FD",
"r. c #5885FD",
"t. c #5288FD",
"y. c #5A8CFD",
"u. c #4E90F1",
"i. c #5292FE",
"p. c #5A93FF",
"a. c #5999FD",
"s. c #6486E8",
"d. c #618BED",
"f. c #6789E6",
"g. c #6791E5",
"h. c #638BF7",
"j. c #6C96F8",
"k. c #6591F4",
"l. c #9BA4A4",
"z. c #B1B8BE",
"x. c #909092",
"c. c #ACB9E5",
"v. c #B1C2D4",
"b. c #C5CACE",
"n. c #CFCED6",
"m. c #CED2D3",
"M. c #DCDBD9",
"N. c #CDD0E1",
"B. c #D6DDE3",
"V. c #DDDDE9",
"C. c #D3DEF0",
"Z. c #D3DEFA",
"A. c #D6E6F5",
"S. c #D6E3FB",
"D. c #E5E7E6",
"F. c #E9EDE2",
"G. c #EBEDEE",
"H. c #E3E6ED",
"J. c #F0ECE9",
"K. c #EEF1ED",
"L. c #F3F4EC",
"P. c #FAFBEF",
"I. c #EAECF0",
"U. c #F3EDFC",
"Y. c #EEF4F5",
"T. c #ECF3FD",
"R. c #EEF8FE",
"E. c #F3F4F5",
"W. c #F8F7F5",
"Q. c #F6FAF4",
"!. c #FEFFF5",
"~. c #F4F5FD",
"^. c #FAF4FB",
"/. c #F6FCFE",
"(. c #FFFFFF",
/* pixels */
"(.(.(.^././.(./././.(.(.(.(.(.L.J.L.(.x.. + o h %.{ <.w.8.p.6.7.7.w.w.r.e.e.e.t.8.t.t.",
"(.(.(.(.(.(.(.(./.(.(./.(.(.(.^.(.!.^.n.. 3 F 8 g Y g.>.3.p.7.e.e.w.w.w.t.e.7.t.t.e.t.",
"(.(.^.(.(.(.(.(.(.(.(.(.(.(.(.(.M.(.W.(.V.o o * # +.$.:.e.t.7.7.t.t.0.w.r.e.7.t.e.t.8.",
"(.(.(.(.^.(.(./.(.!.!.!.Q.(.!.L.!.!.Q./.T.n.C v.9 g o.j.r.^ y.e.7.r.t.0.w.e.e.t.8.t.e.",
"(.^.(.(.(.^.(.(.!.!.P.P.P.!.!.!.!.F.P.(.(.~.(./.B : [  .w.t.t.e.e.r.e.r.w.t.3.t.t.t.8.",
"(.(.(.(.(.(.(.(.!.(.(.(.(.(.(.(.!.(.(.(.(.(.(.U.) # m ..} a.9.8.e.r.r.r.w.5.w.t.t.e.e.",
"(.(.(.(.(.(.(.(.(.(.(.(.(.(.(.(.(.(.(.(.(.(.(.~.# : M ' 2.u.4.8.e.r.r.y.w.w.5.t.t.t.t.",
"(.(.(.(.(.(.(.(.(.(.(.(.(.(.(.(.(.(.(.(.(.(.(.U.o : w ] ;.i.8.8.e.r.r.q.w.5.5.e.8.e.t.",
"(.(.(.(.(.(.(.(.(.(.(.(.(.(.(.(.(.(.(.(.(.(.(.U.< : p  .=.i.8.8.e.e.r.y.r.5.5.t.e.t.t.",
"(.(.(.(.(.(.(.(.(.(.(.(.(.(.(.(.(.(.(.(.(.(.(.(.1 > K d.w.6.8.8.e.t.w.w.w.t.8.t.t.8.e.",
"(.(.(.(.(.(.(.(.(.(.(.(.(.(.(.(.(.(.(.(.(.(.(./.k 5 O.k.7.6.8.8.7.y.y.w.w.t.8.t.t.t.t.",
"(.(.(.(.(.(.(.(.(.(.(.(.(.(.(.(.(.(.(.(.(.(.(.T.c 7 Y d./ y.6.7.t.w.w.w.t.8.8.t.e.8.t.",
"(.(.(.(.(.(.(.(.(.(.(.(.(.(.(.(.(.(.(.(.(.(.(./.- d O.! r.e.7.e.t.t.w.w.t.8.8.t.t.8.t.",
"(.(.(.(.(.(.(.(.(.(.(.(.(.(.(.(.(.(.(.(.(.(.(.l.o D X.k.~ r./ e.y.w.=.=.y.y.t.t.t.e.e.",
"(.(.(.(.(.(.(.(.(.(.(.(.(.(.(.(.(.(.(.(.(.(.(.l.O D @.#.s.h./ r.w.w.w.w.5.8.7.t.e.8.t.",
"(.(.(.(.(.(.(.(.(.(.(.(.(.(.(.(.(.(.(.(.(.(.(./.. $ : a W s.! d.w.w.p.w.t.7.7.t.t.t.t.",
"(.(.(.(.(.(.(.(.(.(.(.(.(.(.(.(.(.(.(.(.(.(.(.W.z.l A 5 i Q | :.,.0.t.t.3.e.y.8.e.t.7.",
"(.(.(.(.(.(.(.(.(.(.(.(.(.(.(.(.(.(.(.(.(.(.(.(./.(./.S.: i %.&.-.0.w.8.7.0.w.t.t.t.t.",
"(.(.(.(.(.(.(.(.(.(.(.(.(.(.(.(.(.(.(.(.(.(.(.^.(./.I./.S.# n *.d.y.y.y.y.t.3.t.8.t.t.",
"(.(.(.(.(.(.(.(.(.(.(.(.(.(.(.(.(.(.(.(.(.(.(.W.(.L.W.(.(.x w o.-.q.( 7.p.y.=.8.t.t.t.",
"(.(.(.(.(.(.(.(.(.(.(.(.(.(.(.(.(.(.(.(.(.(.(.(.J.!.!.K./.A.# L R U I T q.f.>.e.e.t.t.",
"(.(.(.(.(.(.(.(.(.(.(.(.(.(.(.(.(.(.(.(.(.(.(.(.(./.!.(.Y./.X h ` 4 4 y Q #.! r.7.y.0.",
"(.(.(.(.(.(.(.(.(.(.(.(.(.(.(.(.(.(.(.(.(.(.(.(.!.(.K././.T.3 3 C , c.; 6 V W q.e.r.=.",
"(.(.(.(.(.(.(.(.(.(.(.(.(.(.(.(.(.(.(.(.(.(.(.Q.Q.L.(.(.Q.B.. l O r (.T.f ; H -.y.r.=.",
"(.(.(.(.(.(.(.(.(.(.(.(.(.(.(.(.(.(.(.(.(.(.(.(.(.(.G.(.~.b   . . T./.R.R.S % J ,.,.>.",
"(.(.(.(.(.(.(.(.(.(.(.(.(.(.(.(.(.(.(.(.(.(.(.(.(.E.(.Y.Y.m.v l./.H.R./././.& M R -.1.",
"(.(.(.(.(.(.(.(.(.(.(.(.(.(.(.(.(.(.(.(.(.(.(.~.(.(.I.(.(.G.(.K.(.E./.(.G.(.- s o.*.-.",
"(.(.(.(.(.(.(.(.(.(.(.(.(.(.(.(.(.(.(.(.(.(.(.(.(./.(.E.D.(.Q.(.L.!.!.F./.Q.t 0 P %.&.",
"(.(.(.(.(.(.(.(.(.(.(.(.(.(.(.(.(.(.(.(.(.(.(.(.^.(.(.(.Q./.(.!.(.(.L.(.L.(.b.o N P o.",
"(.(.(.(.(.(.(.(.(.(.(.(.(.(.(.(.(.(.(.(.(.(.(.(.(.(.(.(.(.(.(.(.^.(.(.(.(.(.(.Z o 5 u ",
"(.(.(.(.(.(.(.(.(.(.(.(.(.(.(.(.(.(.(.(.(.(.(.(.(.!.(.(.(.(.(.(.(.(.(.(.(.(.(.~.C.` 6 ",
"(.(.(.(.(.(.(.(.(.(.(.(.(.(.(.(.(.(.(.(.(.(.(.!.!.(.(.(.(.(.(.(.(.(.^.(.^.(.(.(./.Z.; ",
"(.(.(.(.(.(.(.(.(.(.(.(.(.(.(.(.(.(.(.(.(.(.(.!.!.!.(.(.(.(.(.(.(.^.(.(.(.(.(.~.~.) # ",
"(.(.(.(.(.(.(.(.(.(.(.(.(.(.(.(.(.(.(.(.(.(.(.(.!.(.!.(.(.(.(.(.(.(.^.(.(.(.(.(./.(.= ",
"(.(.(.(.(.(.(.(.(.(.(.(.(.(.(.(.(.(.(.(.(.(.(.!.!.(.(.(.(.(.(.(.(.(.(.(.(.!.(.W.(./.T.",
"(.(.(.(.(.(.(.(.(.(.(.(.(.(.(.(.(.(.(.(.(.(.(.(.(.!.(.(.(.(.(.(.(.(.!./.!.Q.!.!.(.I./.",
"(.(.(.(.(.(.(.(.(.(.(.(.(.(.(.(.(.(.(.(.(.(.(.(.(.(.(.(.(.(.(.(.(.!./.!.!.!.!.!.^.(.(.",
"(.(.(.(.(.(.(.(.(.(.(.(.(.(.(.(.(.(.(.(.(.(.(.(.(.(.(.(.(.(.(.(.(.(.(.(.(.!.(.!.Q.^.H.",
"(.(.(.(.(.(.(.(.(.(.(.(.(.(.(.(.(.(.(.(.(.(.(.(.(.(.(.(.(.(.(.(.(.(.(.(.(.(.(.W.(.^.(.",
"(.(.(.(.(.(.(.(.(.(.(.(.(.(.(.(.(.(.(.(.(.(.(.(.(.(.(.(.(.(.(.(.(.(.(.(.(.(.(.!.!.(.^.",
"(.(.(.(.(.(.(.(.(.(.(.(.(.(.(.(.(.(.(.(.(.(.(.(.(.(.(.(.(.(.(.(.(.(.(.(.(.(.!.!.L.(.G.",
"(.(.(.(.(.(.(.(.(.(.(.(.(.(.(.(.(.(.(.(.(.(.(.(.(.(.(.(.(.(.(.(.(.(.(.(.(.(.(.L.P.(.^.",
"(.(.(.(.(.(.(.(.(.(.(.(.(.(.(.(.(.(.(.(.(.(.(.(.(.(.(.(.(.(.(.(.(.(.(.(.(.(.(.P.!.!.!."
};
