/* XPM */
static char *tile0281719244617[] = {
/* columns rows colors chars-per-pixel */
"43 43 208 2 ",
"   c #5188FF",
".  c #5189FA",
"X  c #5188FC",
"o  c #5187FF",
"O  c #5188FD",
"+  c #558CF3",
"@  c #588FF4",
"#  c #5188EF",
"$  c #5187F4",
"%  c #5286FC",
"&  c #5285FF",
"*  c #5085FF",
"=  c #5086FF",
"-  c #5189F6",
";  c #5087EB",
":  c #568EEF",
">  c #538DF1",
",  c #558EF9",
"<  c #5087FC",
"1  c #518AF5",
"2  c #5287ED",
"3  c #518CF4",
"4  c #508AF8",
"5  c #4F88FC",
"6  c #4F87FF",
"7  c #4F86FF",
"8  c #5389F6",
"9  c #578CF4",
"0  c #538CF7",
"q  c #4D89F7",
"w  c #4785F6",
"e  c #4C89FE",
"r  c #4C88FF",
"t  c #4D87FF",
"y  c #5388FC",
"u  c #5488F8",
"i  c #5387FD",
"p  c #588BF6",
"a  c #528AF9",
"s  c #508BFF",
"d  c #4786FA",
"f  c #498AFF",
"g  c #4B8AFE",
"h  c #4D88FC",
"j  c #5388FA",
"k  c #5587FA",
"l  c #5586FC",
"z  c #5B8AF4",
"x  c #5186F8",
"c  c #518CFF",
"v  c #4687FF",
"b  c #488BFF",
"n  c #488BFE",
"m  c #498BFB",
"M  c #4C8AF9",
"N  c #5487FA",
"B  c #5586FD",
"V  c #5387FF",
"C  c #618CF4",
"Z  c #5083F6",
"A  c #4585FF",
"S  c #468BFF",
"D  c #468CFC",
"F  c #498CF7",
"G  c #4C8BF5",
"H  c #5189F8",
"J  c #5785FD",
"K  c #5785FF",
"L  c #658DEF",
"P  c #5484F3",
"I  c #548CFF",
"U  c #4886FF",
"Y  c #468CFB",
"T  c #498CF5",
"R  c #4C8BF4",
"E  c #5784FF",
"W  c #4366C0",
"Q  c #5B86EF",
"!  c #4B86FC",
"~  c #4A8CFD",
"^  c #4A8CFA",
"/  c #4A8DF6",
"(  c #4D8CF5",
")  c #5586FF",
"_  c #5585FF",
"`  c #001B6B",
"'  c #6B92F1",
"]  c #5786F2",
"[  c #5C91FF",
"{  c #4E8AFA",
"}  c #4D8BFA",
"|  c #4D8CF6",
" . c #4E8BF6",
".. c #5486FF",
"X. c #2A4385",
"o. c #6383D6",
"O. c #6890F0",
"+. c #4879E0",
"@. c #5389F5",
"#. c #5089FA",
"$. c #5A6FA4",
"%. c #6784C8",
"&. c #5E82D6",
"*. c #648FEE",
"=. c #5887F1",
"-. c #5488F6",
";. c #000B31",
":. c #566DA3",
">. c #5D7BC3",
",. c #5C80D8",
"<. c #5C86EC",
"1. c #5886F6",
"2. c #5089FD",
"3. c #4B5974",
"4. c #00012C",
"5. c #223A78",
"6. c #6C8BDD",
"7. c #6184E8",
"8. c #5C84F5",
"9. c #4E89FD",
"0. c #4D8BF8",
"q. c #F5FFFF",
"w. c #4E5D7E",
"e. c #00053D",
"r. c #708AD5",
"t. c #6583E5",
"y. c #5F83F5",
"u. c #5A83FF",
"i. c #4C8CF6",
"p. c #5089FC",
"a. c #E9EFFD",
"s. c #E8F2FF",
"d. c #000B36",
"f. c #405594",
"g. c #6883DA",
"h. c #6283EC",
"j. c #5B83FD",
"k. c #5386FF",
"l. c #5088FF",
"z. c #4E8AF8",
"x. c #FEFDFF",
"c. c #F6FBFF",
"v. c #505C76",
"b. c #00123C",
"n. c #5A76B5",
"m. c #7093E7",
"M. c #4C74E3",
"N. c #5A86FF",
"B. c #5786FF",
"V. c #5485FF",
"C. c #5B90FF",
"Z. c #4D82F4",
"A. c #F2EEFC",
"S. c #F1F3FF",
"D. c #EDF9FF",
"F. c #112540",
"G. c #193565",
"H. c #5F83CD",
"J. c #577EE5",
"K. c #5B87FF",
"L. c #527EFF",
"P. c #4C7BFD",
"I. c #5889FF",
"U. c #5285F8",
"Y. c #FCF9FF",
"T. c #F5F8FF",
"R. c #5F738B",
"E. c #000834",
"W. c #5C81C7",
"Q. c #638BED",
"!. c #5B88FD",
"~. c #5181FF",
"^. c #4E80FD",
"/. c #578AFD",
"(. c #588CFC",
"). c #FFFEFF",
"_. c #FCFFFF",
"`. c #CFDCE4",
"'. c #B0C5D8",
"]. c #000C34",
"[. c #688BCD",
"{. c #638BEA",
"}. c #5583F3",
"|. c #5789FF",
" X c #568AFA",
".X c #578DFA",
"XX c #F9F7F8",
"oX c #F3FEFF",
"OX c #C9DCEB",
"+X c #001136",
"@X c #678BC9",
"#X c #5B84DE",
"$X c #537FEC",
"%X c #5B8CFF",
"&X c #5487FC",
"*X c #4E82EF",
"=X c #558BF7",
"-X c #F0EEEF",
";X c #F7FFFF",
":X c #CADDEB",
">X c #00092B",
",X c #6183C0",
"<X c #5C84DC",
"1X c #5985F2",
"2X c #4E81F6",
"3X c #4C80ED",
"4X c #588EFA",
"5X c white",
/* pixels */
"                                                                                      ",
"                                                                                      ",
"                                                                                      ",
"                                                                                      ",
"                                                                                      ",
"                                                                                      ",
"                                                                                      ",
"                                                                                      ",
"                                                                                      ",
"                                                                                      ",
"                                                                                      ",
"                                                                                      ",
"                                                                                      ",
"                                                                                      ",
"                                                                                      ",
"                                                                                      ",
"                                                                                      ",
"                                                                                      ",
"                                                                                      ",
"                                                                                      ",
". . . X   o o o   O X X O                                                             ",
"+ @ # $ % & * = o X - - X                                                             ",
"; : > , < = * * o X 1 1 X                                                             ",
"2 > 3 4 5 6 7 7   X 8 8 X                                                             ",
"9 0 q w e r t 6 O y u u i                                                             ",
"p a s d f f g h X j k l i                                                             ",
"z x c v b n m M . N l B V                                                             ",
"C Z s A S D F G H N J K V                                                             ",
"L P I U n Y T R 4 N K E V                                                             ",
"W Q Z ! ~ ^ / ( 4 j ) _ V                                                             ",
"` ' ] [ { } |  .4 j ....V                                                             ",
"X.o.O.+.@.4 4 #.. X i V                                                               ",
"$.%.&.*.=.-.j X X X X X                                                               ",
";.:.>.,.<.1.l V   2.{ { O                                                             ",
"3.4.5.6.7.8.J ..o 9.0.0.2.                                                            ",
"q.w.e.r.t.y.u._ o 9.i.| p.                                                            ",
"a.s.d.f.g.h.j.E k.l.z. .2.                                                            ",
"x.c.v.b.n.m.M.N.B.V.C.Z.O                                                             ",
"A.S.D.F.G.H.J.K.L.P.I.U.i                                                             ",
"Y.T.q.R.E.W.Q.!.~.^./.(.i                                                             ",
")._.`.'.].[.{.}.I.|. X.Xy                                                             ",
"XX_.oXOX+X@X#X$X%X&X*X=Xy                                                             ",
"-X_.;X:X>X,X<X1X%X2X3X4XX                                                             "
};
