/* XPM */
static char *tile2801719244606[] = {
/* columns rows colors chars-per-pixel */
"43 43 164 2 ",
"   c #000109",
".  c #000524",
"X  c #000C23",
"o  c #00022D",
"O  c #000C2E",
"+  c #001825",
"@  c #00152D",
"#  c #000331",
"$  c #000B33",
"%  c #00043A",
"&  c #000F39",
"*  c #00133B",
"=  c #031939",
"-  c #0D223D",
";  c #1A2B3F",
":  c #232D36",
">  c #000541",
",  c #001345",
"<  c #011945",
"1  c #00174F",
"2  c #081D4A",
"3  c #001356",
"4  c #041958",
"5  c #08204C",
"6  c #142544",
"7  c #172C4B",
"8  c #1C3249",
"9  c #07215A",
"0  c #203354",
"q  c #27355A",
"w  c #152767",
"e  c #152F60",
"r  c #18366C",
"t  c #1D3571",
"y  c #314256",
"u  c #3D4959",
"i  c #284265",
"p  c #344966",
"a  c #274172",
"s  c #23417F",
"d  c #414E57",
"f  c #435675",
"g  c #586B7C",
"h  c #213A8A",
"j  c #2B4786",
"k  c #37488D",
"l  c #39568E",
"z  c #324D90",
"x  c #3B5992",
"c  c #5D628A",
"v  c #606C82",
"b  c #445FA4",
"n  c #4F6EAA",
"m  c #5A78AE",
"M  c #516FB5",
"N  c #546EB9",
"B  c #586FBB",
"V  c #5979BC",
"C  c #5573B1",
"Z  c #4B71C4",
"A  c #5D7BC3",
"S  c #5C79C8",
"D  c #4A75DB",
"F  c #577AD4",
"G  c #5E7ED3",
"H  c #587DDA",
"J  c #637ECF",
"K  c #4572EF",
"L  c #497BEB",
"P  c #5C7EE4",
"I  c #597FEC",
"U  c #517CE4",
"Y  c #4C7CFC",
"T  c #4479FB",
"R  c #537CF2",
"E  c #567FFF",
"W  c #758394",
"Q  c #7A8895",
"!  c #7E909E",
"~  c #7887A4",
"^  c #6885BD",
"/  c #6381BD",
"(  c #5C83DD",
")  c #6687CC",
"_  c #6987CD",
"`  c #6585D5",
"'  c #6885D1",
"]  c #6283DC",
"[  c #668ADB",
"{  c #6B8CDE",
"}  c #678BD4",
"|  c #7492D0",
" . c #7694DD",
".. c #4680EC",
"X. c #4C8CEF",
"o. c #5783E6",
"O. c #5B83E3",
"+. c #5E8AE4",
"@. c #5582EB",
"#. c #5B83EE",
"$. c #538BEE",
"%. c #5888EA",
"&. c #4781F6",
"*. c #4C84F5",
"=. c #4D8CF4",
"-. c #4680FB",
";. c #4D85FE",
":. c #4D89FC",
">. c #5684F5",
",. c #5B85F3",
"<. c #518AF5",
"1. c #5C8CF4",
"2. c #5486FE",
"3. c #5A85FD",
"4. c #5188FE",
"5. c #5C8BFE",
"6. c #5290F5",
"7. c #5591FC",
"8. c #5B91FD",
"9. c #6386E3",
"0. c #6B8DE6",
"q. c #6787EA",
"w. c #628BED",
"e. c #688AEB",
"r. c #668AE2",
"t. c #6891ED",
"y. c #6185F5",
"u. c #6A8CF2",
"i. c #638BFE",
"p. c #6C90F1",
"a. c #6593FD",
"s. c #6C93FF",
"d. c #808F96",
"f. c #91949D",
"g. c #888BAE",
"h. c #8091A5",
"j. c #AEBFC9",
"k. c #B5BEDB",
"l. c #BFC8D7",
"z. c #CBCAD0",
"x. c #C7CBE8",
"c. c #CFD7EA",
"v. c #C3D4E8",
"b. c #D4DEEE",
"n. c #F0EAEC",
"m. c #EAF0E2",
"M. c #EFF4EE",
"N. c #F1F5E7",
"B. c #F5F3EA",
"V. c #F9F6EF",
"C. c #F5FDEE",
"Z. c #F3EFFE",
"A. c #EEF7F6",
"S. c #E6F3FF",
"D. c #EFF2FC",
"F. c #EFFBFA",
"G. c #F3F2F3",
"H. c #FAF7F4",
"J. c #F4FBF5",
"K. c #FDFEF6",
"L. c #F5F5FC",
"P. c #FAF5FD",
"I. c #F5FEFD",
"U. c #FEFEFE",
/* pixels */
"U.U.U.U.U.U.U.U.U.U.U.U.U.U.U.U.U.U.U.U.U.U.U.U.K.K.U.U.K.K.K.U.I.f 4 ` D 8...7.4.4.4.",
"U.U.U.U.U.U.U.U.U.U.U.U.U.U.U.U.U.U.U.U.U.U.U.U.K.K.U.U.U.P.K.U.I.0 j F @.1.7.<.4.4.4.",
"U.U.U.U.U.U.U.U.U.U.U.U.U.U.U.U.U.U.U.U.U.U.U.U.K.K.U.P.U.U.U.U.S.$ b H s.2.<.*.4.4.4.",
"U.U.U.U.U.U.U.U.U.U.U.U.U.U.U.U.U.U.U.U.U.U.U.U.I.I.U.U.P.P.U.U.c.. J q.>.>.>.5.4.4.:.",
"U.U.U.U.U.U.U.U.U.U.U.U.U.U.U.U.U.U.U.U.U.U.U.U.I.I.U.U.P.U.P.U.v 2 J u.R 5.2.4.4.4.4.",
"U.U.U.U.U.U.U.U.U.U.U.U.U.U.U.U.U.U.U.U.U.U.U.U.K.P.U.P.P.P.U.I.6 a J y.3.2.7.<.4.4.4.",
"U.U.U.U.U.U.U.U.U.U.U.U.U.U.U.U.U.U.U.U.U.U.U.U.U.U.U.P.U.P.U.I.@ l ] ,.E ;.7.:.4.4.4.",
"U.U.U.U.U.U.U.U.U.U.U.U.U.U.U.U.U.U.U.U.U.U.U.U.K.U.P.U.U.U.I.b.O C e.E 2.4.4.*.4.4.;.",
"U.U.U.U.U.U.U.U.U.U.U.U.U.U.U.U.U.U.U.U.U.U.U.U.H.U.U.U.U.L.U.W * _ w.3.2.;.=.=.;.4.4.",
"U.U.U.U.U.U.U.U.U.U.U.U.U.U.U.U.U.U.U.U.U.U.U.U.P.U.U.H.K.G.I.; e { I 3.2.;.*.=.4.4.4.",
"U.U.U.U.U.U.U.U.U.U.U.U.U.U.U.U.U.U.U.U.U.U.U.U.U.U.U.V.U.U.I.@ x 9.R 3.2.;.X.6.<.4.4.",
"U.U.U.U.U.U.U.U.U.U.U.U.U.U.U.U.U.U.U.U.U.U.U.U.U.P.U.H.K.I.j.= V P 3.Y 4.:.=.=.*.4.4.",
"U.U.U.U.U.U.U.U.U.U.U.U.U.U.U.U.U.U.U.U.U.U.U.U.U.P.K.K.C.J.g * [ U 8.;.;.;.7.X.4.4.4.",
"U.U.U.U.U.U.U.U.U.U.U.U.U.U.U.U.U.U.U.U.U.U.U.U.P.U.U.K.J.I.. x 9.,.4.;.;.:.=.<.4.4.4.",
"U.U.U.U.U.U.U.U.U.U.U.U.U.U.U.U.U.U.U.U.U.U.U.U.U.U.G.A.I.! & A %.<.:.;.;.;.=.<.4.4.4.",
"U.U.U.U.U.U.U.U.U.U.U.U.U.U.U.U.U.U.U.U.U.U.U.U.P.U.J.A.I.- r [ ,.:.:.;.:.:.2.4.4.4.4.",
"U.U.U.U.U.U.U.U.U.U.U.U.U.U.U.U.U.U.U.U.U.U.U.U.U.U.I.I.v.o N ( >.4.:.:.:.:.;.3.4.4.4.",
"U.U.U.U.U.U.U.U.U.U.U.U.U.U.U.U.U.U.U.U.U.U.U.U.I.U.I.I.f 1 { #.2.:.:.=.=.4.2.2.2.;.4.",
"U.U.U.U.U.U.U.U.U.U.U.U.U.U.U.U.U.U.U.U.U.U.U.U.J.U.I.S.$ z P 3.4.:.=.6.=.2.3.E 2.;.4.",
"U.U.U.U.U.U.U.U.U.U.U.U.U.U.U.U.U.U.U.U.U.U.U.U.L.I.I.! , A P 3.;.:.=.X.<.2.3.E 2.4.4.",
"U.U.U.U.U.U.U.U.U.U.U.U.U.U.U.U.U.U.U.U.U.U.U.U.I.F.I.@ t ] i.3.;.:.=.X.$.2.3.2.4.4.4.",
"U.U.U.U.U.U.U.U.U.U.U.K.K.K.U.U.I.I.I.J.K.K.Z.U.I.I.8 , ' P ,.Y 4.:.:.=.<.2.2.2.2.4.4.",
"U.U.U.U.U.U.U.U.U.U.U.K.K.K.U.U.U.I.J.K.K.K.U.L.Q + O n 0.#.i.Y 4.:.=.:.<.4.2.4.4.4.4.",
"U.U.U.U.U.U.U.U.U.U.K.K.K.U.U.P.U.I.K.C.K.U.U.D.X i m ' u.3.K 8.4.:.:.=.<.<.2.2.2.4.4.",
"U.U.U.U.U.U.U.U.U.U.U.K.K.K.U.U.U.J.K.m.U.U.Z.x.o ^  .P y.R 3.3.4.:.:.=.<.2.2.2.2.4.4.",
"U.U.U.U.U.U.U.U.U.U.K.K.K.U.U.U.U.K.K.N.K.U.U.c 4 G F #.i.Y a.T 4.:.<.<.<.<.3.<.4.;.4.",
"U.U.U.U.U.U.U.U.U.U.K.K.K.U.U.U.U.U.B.K.G.U.P.# h e.s.R 3.2.Y 4.:.:.4.<.<.2.2.2.2.4.4.",
"U.U.U.U.U.U.U.U.U.U.U.K.K.K.U.P.P.K.B.K.P.I.g.> ] D >.3.2.2.4.4.4.4.<.<.2.2.2.2.4.4.4.",
"U.U.U.U.U.U.U.U.U.P.K.K.K.U.U.U.U.K.K.B.I.U.# k 9.a.2.>.3.2.4.;.;.4.<.<.>.2.2.2.2.4.4.",
"U.U.U.U.U.U.U.U.U.U.U.K.K.U.U.P.U.n.K.H.U.k.% B %.<.<.2.4.;.4.<.<.<.<.2.4.2.2.2.2.4.4.",
"U.U.U.U.U.U.U.U.U.U.K.I.I.U.U.U.U.U.V.U.I.q w ` %.<.<.<.<.<.<.<.<.<.2.4.2.4.2.2.4.4.4.",
"U.U.U.U.U.U.U.U.U.U.U.K.K.U.U.U.n.U.B.U.S.# N ( %.=.X.<.<.<.<.<.>.<.2.4.2.3.2.2.4.4.4.",
"U.U.U.U.U.U.U.U.U.U.U.K.I.I.U.U.U.U.H.D.~ , [ o.X.=.=.<.<.<.<.<.<.2.<.3.2.2.2.2.4.4.4.",
"U.U.U.U.U.U.U.U.P.U.K.K.I.I.I.U.U.P.U.L.2 j H 5.<.=.=.=.<.<.,.2.3.2.2.2.2.2.4.4.4.4.4.",
"U.U.U.U.U.U.U.U.K.U.K.K.I.I.U.U.G.U.I.z.. V 1.*.:.:.<.<.<.<.2.2.3.3.3.2.2.2.*.2.4.4.4.",
"U.U.U.U.U.U.U.U.U.H.K.K.I.I.I.U.U.P.L.u < } 5.&.:.:.4.4.<.2.3.3.3.3.3.2.2.4.<.<.4.4.4.",
"U.U.U.U.U.U.U.U.U.K.K.P.U.I.U.U.z.f.b.X n r.L 4.:.:.;.4.2.2.2.3.2.3.3.2.4.2.<.<.4.4.4.",
"U.U.U.U.U.U.U.U.K.U.I.U.U.U.U.U.  X o 3 ( 8.4.4.:.4.4.4.4.2.4.4.4.;.4.4.4.4.4.4.4.4.4.",
"U.U.U.U.U.U.U.I.I.J.U.U.P.U.K.K.: p / Z a.*.&.&.4.4.4.4.4.4.4.4.4.2.;.4.4.4.4.4.4.4.;.",
"U.U.U.U.U.U.U.U.I.I.U.U.U.U.K.U.d 7 | ( %.*.4.:.4.4.4.4.4.4.4.4.4.4.4.4.;.4.4.4.4.4.4.",
"U.U.U.U.U.U.U.K.K.I.U.U.U.U.U.U.Q O V F @.4.7.:.4.4.4.4.4.4.4.4.4.4.4.4.4.4.4.4.4.4.4.",
"U.U.U.U.U.U.U.U.I.K.U.U.U.P.U.I.W * ) t.@.2.4.-.4.4.4.;.4.4.4.4.4.4.4.4.4.4.4.4.4.4.4.",
"U.U.U.U.U.U.U.U.K.I.U.U.U.U.U.I.y 5 } w.L 4.7.*.4.4.4.4.4.4.4.4.4.4.;.4.4.4.4.4.4.;.4."
};
