/* XPM */
static char *tile2921719244606[] = {
/* columns rows colors chars-per-pixel */
"43 43 31 1 ",
"  c white",
". c #FFFEFF",
"X c #FFFEFD",
"o c #FFFDFC",
"O c #FFFDFE",
"+ c #FFFDFF",
"@ c #FEFEFF",
"# c #FEFFFF",
"$ c #FFFFFD",
"% c #FFFFFB",
"& c #FDFDFF",
"* c #FFFCFF",
"= c #FFF5FD",
"- c #FFFBFF",
"; c #F4F2F5",
": c #FEFFFD",
"> c #F8FAF5",
", c #FEFFF8",
"< c #FBFEF3",
"1 c #FEFFF4",
"2 c #F9FCF1",
"3 c #FEFFFB",
"4 c #FDFFFE",
"5 c #FBFFFE",
"6 c #FBFFFC",
"7 c #FDFFFC",
"8 c #FDFFFA",
"9 c #FEFFFA",
"0 c #FEFFF9",
"q c #FFFEF9",
"w c #FFFEFA",
/* pixels */
"                                           ",
"                                           ",
"                                           ",
"                                           ",
"                                           ",
"                                           ",
"                                           ",
"                                           ",
"                                           ",
"                                           ",
"                                           ",
"                                           ",
"                                           ",
"                                           ",
"                                           ",
"                                           ",
"                                           ",
"                                           ",
"                                           ",
"                                           ",
"                                           ",
"                                           ",
"                                           ",
"                                           ",
"                                           ",
"  ..                                       ",
" .Xo.                                      ",
"..Xo.                                      ",
"...O.                                      ",
" ..O                                       ",
"  .+                                       ",
"  .+                                       ",
"  .@                                       ",
"  .@                                       ",
"  ##                                       ",
"  ##                                       ",
"  ##                                       ",
"  ##                                       ",
"  ##                                       ",
"  ##                                       ",
"                                           ",
" .+.  $$%%%$$     .  ####  $ $$$$$$$       ",
"&*=-;:>,<12,3$ ....$45666778789900qw$      "
};
