/* XPM */
static char *tile2961719244606[] = {
/* columns rows colors chars-per-pixel */
"43 43 175 2 ",
"   c #000100",
".  c #00060F",
"X  c #000613",
"o  c #00011E",
"O  c #0E1316",
"+  c #000224",
"@  c #000B23",
"#  c #00032E",
"$  c #020C2F",
"%  c #03112B",
"&  c #151E2D",
"*  c #000635",
"=  c #000B35",
"-  c #00023D",
";  c #000C3D",
":  c #001332",
">  c #041830",
",  c #001338",
"<  c #15273B",
"1  c #000444",
"2  c #000649",
"3  c #001746",
"4  c #0A1C46",
"5  c #001149",
"6  c #101646",
"7  c #1A1D46",
"8  c #172446",
"9  c #142842",
"0  c #0D275B",
"q  c #0B295D",
"w  c #1A2B5C",
"e  c #183052",
"r  c #30384D",
"t  c #273550",
"y  c #323B51",
"u  c #333E5C",
"i  c #0D346F",
"p  c #1C376C",
"a  c #1E3674",
"s  c #203F75",
"d  c #22367D",
"f  c #2D3F7D",
"g  c #21406C",
"h  c #2E4A7A",
"j  c #4D4D4F",
"k  c #404362",
"l  c #41576F",
"z  c #5F6478",
"x  c #334982",
"c  c #2E4C92",
"v  c #3B5A92",
"b  c #264A88",
"n  c #475D82",
"m  c #425DA2",
"M  c #4E64A0",
"N  c #4163A3",
"B  c #5776AD",
"V  c #4964B5",
"C  c #4E75BA",
"Z  c #5573B2",
"A  c #5A79B3",
"S  c #5177B8",
"D  c #5C7CB9",
"F  c #4C73CE",
"G  c #5270C6",
"H  c #5D7EC1",
"J  c #5078CF",
"K  c #5A7FCD",
"L  c #4972D4",
"P  c #4D7EDD",
"I  c #5A7ED3",
"U  c #517ED9",
"Y  c #587FDA",
"T  c #446DE3",
"R  c #4B7CEA",
"E  c #437BEA",
"W  c #507EEE",
"Q  c #4D7EF3",
"!  c #4E7CFF",
"~  c #447CF3",
"^  c #517EF5",
"/  c #517DFF",
"(  c #6C8196",
")  c #3D84EC",
"_  c #5E83CA",
"`  c #5E84D5",
"'  c #5E86DD",
"]  c #5D8BDE",
"[  c #5583D9",
"{  c #6385CC",
"}  c #6087D2",
"|  c #6987D0",
" . c #668BD5",
".. c #6486DC",
"X. c #6189DB",
"o. c #698BD2",
"O. c #7593DC",
"+. c #4887E6",
"@. c #4684EC",
"#. c #4A84EB",
"$. c #5C83E6",
"%. c #5189E6",
"&. c #5A89E4",
"*. c #5182EA",
"=. c #5B85ED",
"-. c #5489EC",
";. c #5C8BE8",
":. c #4584F4",
">. c #4B83F3",
",. c #478CF4",
"<. c #4E8BF4",
"1. c #4E85FC",
"2. c #478CFD",
"3. c #4D8AFE",
"4. c #5283F3",
"5. c #5B85F3",
"6. c #518AF4",
"7. c #5386FE",
"8. c #5C84FC",
"9. c #5188FF",
"0. c #5B8AFB",
"q. c #5A8BF4",
"w. c #4F90F6",
"e. c #4E95FF",
"r. c #5191F3",
"t. c #5495FD",
"y. c #5D91FD",
"u. c #6289E5",
"i. c #6184E8",
"p. c #618EED",
"a. c #6592E7",
"s. c #6C91E4",
"d. c #6592ED",
"f. c #6182F6",
"g. c #628CFD",
"h. c #6492F4",
"j. c #6290FF",
"k. c #6892FE",
"l. c #639CFF",
"z. c #6999FD",
"x. c #8288A0",
"c. c #8A9AA7",
"v. c #A3A4B6",
"b. c #ACB4B7",
"n. c #ADB9C5",
"m. c #AEBFD1",
"M. c #B9C1D4",
"N. c #CDD4DE",
"B. c #EAEBDD",
"V. c #CBD2E2",
"C. c gray93",
"Z. c #E3E7EE",
"A. c #F4EBE4",
"S. c #F1EDEE",
"D. c #EFF1E6",
"F. c #F7F3E8",
"G. c #FAF4EF",
"H. c #FCFCEF",
"J. c #E5ECF6",
"K. c #EFEDF0",
"L. c #E3E8FF",
"P. c #EDEFFC",
"I. c #E4E5FA",
"U. c #F3EEF2",
"Y. c #EEF2F1",
"T. c #EDF4FB",
"R. c #EBF8FF",
"E. c #F4F4F4",
"W. c #FBF5F3",
"Q. c #F5F9F4",
"!. c #FDFCF5",
"~. c #F2F4FB",
"^. c #FEF7FA",
"/. c #F5FDFF",
"(. c #FEFEFE",
/* pixels */
"(.(.(.(.(.(.(.(.!.(.(.(.^.(././.< h ..=.>.7.9.<.9.9.9.9.9.9.9.9.9.3.7.9.9.9.9.9.9.9.9.",
"(.(.(.(.(.(.(.(././.(.(.(.(.(./.> v K g.0.1.>.9.7.9.9.9.9.9.9.9.9.9.9.9.9.9.9.9.9.9.7.",
"(.(.(.(.(.(.(.(.(.!.(.^.(.(.J.R.+ A Y 5.7.1.9.6.7.9.9.9.9.9.9.9.9.9.3.9.9.7.9.9.9.9.3.",
"(.(.(.(.(.(.(.(.(./.E.(.E.^./.M.= _ $.8.0.3.9.<.7.3.9.9.9.9.9.9.9.7.7.9.7.3.9.9.9.9.7.",
"(.(.(.(.(.(.(.(.(.^.C.(.E.Q.(.( 3 _ 5.8.7.7.9.<.9.9.9.9.9.3.7.9.9.9.9.9.9.9.9.9.9.9.7.",
"(.(.(.(.(.(.(.(.(.(.(.(.(.Q.R.h q ` 5.7.1.7.t.<.7.9.9.9.9.9.9.9.9.9.9.9.9.9.9.7.9.9.7.",
"(.(.(.(.(.(.(.(.^.(.(.~.(././.9 g } 5.7.! 9.6.6.3.9.9.9.3.7.9.9.9.9.9.9.9.9.7.3.9.9.9.",
"(.(.(.(.(.(.(.(.Q.(.E.(.~././.+ v &.^ 7.! 3.<.6.6.9.9.9.7.9.9.9.7.3.7.9.9.9.9.9.9.9.3.",
"(.(.(.(.(.(.(.(.^.(.U.(././.c.> A u.^ 7.1.9.<.6.7.9.9.9.9.9.9.9.9.9.9.3.7.9.9.9.3.7.9.",
"(.(.(.(.(.(.(.(.(.(.^.(.(.(.> p } h.Q 8.9.3.@.r.3.9.9.9.9.9.9.7.9.9.9.9.9.7.9.9.7.9.9.",
"(.(.(.(.(.(.(.(./.(.W.!.Q.V.# C $.0.7.7.7.3.2.2.3.7.9.9.9.9.9.9.9.9.7.3.9.3.7.9.9.9.9.",
"(.(.(.(.(.(.(.(.R.Y.(.!.(.y q ] 6.3.7.7.0.9.2.2.3.9.9.9.9.7.3.9.9.9.9.7.9.9.9.9.9.9.9.",
"(.(.(.(.(.(.(.(.(.(.(.!.Z.o Z [ 6.7.7.7.7.7.2.2.3.7.9.9.9.9.9.9.9.9.9.9.9.9.9.7.9.9.9.",
"(.(.(.(.(.(.(.(.Y.(.W.(.z =  .;.7.3.7.7.6.7.2.3.3.3.7.9.9.9.7.9.9.9.9.9.9.9.9.3.9.9.9.",
"(.(.(.(.(.(.(.(.!.Q.E.~.$ x } h.3.3.6.0.7.7.3.3.7.9.9.9.9.9.3.7.9.9.7.3.9.9.9.9.9.9.9.",
"(.(.(.(.(.(.(.(.!.D.(.( ; { i.>.3.3.<.6.6.7.7.3.7.9.9.9.9.9.9.9.9.9.9.7.9.9.9.9.7.7.3.",
"(.(.(.(.(.(.(.(.B.H.(.8 a I *.<.3.3.<.6.5.7.7.7.7.9.9.9.9.9.9.9.9.9.9.9.7.3.9.9.9.9.9.",
"(.(.(.(.(.(.(.(.!.(.m.* | h.R 9.3.<.<.6.6.7.7.7.7.9.9.9.9.9.9.9.9.9.9.9.9.7.9.9.1.9.9.",
"E.(.(.(.(.E.Q.(.G.(.t q X.q.1.3.3.<.3.6.7.7.7.7.7.9.9.9.9.9.9.9.9.9.7.3.9.9.9.9.9.9.9.",
"(.(.^.Q.Q.(.(.(.(.N.+ N ;.0.~ 9.9.<.7.6.7.7.7.7.7.9.9.9.9.9.9.9.9.9.9.7.9.9.9.9.9.9.9.",
"(.C.(.(.(.E.E.E.E.r 0 } -.>.9.1.9.0.9.3.7.9.7.7.7.9.9.9.9.9.7.9.9.9.9.9.9.9.9.9.9.9.9.",
"(.E.(.(.(.(.(.(.v.+ A ] <.:.l.>.7.7.7.9.3.3.7.6.9.9.9.7.9.9.9.9.9.9.9.9.9.9.9.9.9.9.9.",
"Q.(.(.C.(.(.E.P.k w { ;.t.:.1.0.5.8.7.1.3.3.3.6.9.3.3.7.9.9.9.9.3.7.9.9.9.3.9.9.9.9.9.",
"E.(.Q.(.(.E.E.(.7 h ` %.,.t.E g.f.8.8.7.3.3.<.6.9.7.9.9.9.9.9.9.9.9.9.9.7.7.9.7.9.9.9.",
"(.(.C.(.Q.E.(.~.6 d a.+.) t.<.0.f./ 7.7.3.2.,.r.7.3.9.9.9.9.3.9.9.9.9.7.9.9.7.3.9.9.7.",
"Q.(.H.(.E.(.J.u 1 G P t.w.:.q.W f.8.8.7.3.2.<.<.7.9.9.9.9.9.9.9.9.9.7.3.9.9.9.9.3.9.9.",
"^.^.A.!.Q.n.: 5 F R 0.t.3.2.1.7.8.7.7.9.9.3.9.7.7.9.9.9.9.9.9.9.9.9.9.9.9.9.9.9.7.9.9.",
"^.^.H.F.b.@ p s.*.9.7.9.1.1.1.7.9.7.9.9.9.7.9.1.3.7.9.9.9.9.9.9.9.7.3.9.9.9.9.9.9.9.7.",
"^.W.W.(.r w O.L 6.9.9.9.9.9.9.9.9.9.9.9.9.9.9.9.9.9.9.9.9.9.9.9.3.7.9.9.9.9.9.9.9.9.9.",
"^.^.A.(.+ M u.=.0.7.7.9.9.9.9.9.9.9.9.9.9.9.9.9.9.9.9.9.9.9.9.9.9.9.7.9.7.9.9.9.9.9.9.",
"^.W.F./.= m $.8.7.3.7.9.9.9.9.9.9.9.9.9.9.9.9.7.9.9.9.9.9.9.9.9.9.9.9.9.3.7.9.9.9.7.9.",
"W.(.j & 4 c L 7.7.3.7.9.9.9.7.1.9.9.9.9.9.9.9.3.7.9.7.3.7.9.9.9.9.9.9.9.9.9.9.9.9.3.7.",
"^.Q.  X e b ;.0.7.9.9.9.9.9.3.1.9.9.9.9.9.9.9.9.9.9.9.9.3.7.9.9.9.9.9.9.9.9.9.9.9.9.9.",
"W.^.O X , i ' 4.7.9.9.9.9.9.7.9.9.9.9.9.3.9.7.3.9.9.7.9.7.9.9.9.9.9.9.9.7.3.9.9.9.9.9.",
"(.~.. < # S h.R 7.9.9.9.9.9.9.9.7.9.9.9.7.9.9.9.9.9.3.7.9.9.9.9.9.9.9.9.9.7.9.9.3.9.9.",
"I.(.% n B K h.4.7.<.9.9.9.9.9.9.3.7.9.9.9.7.9.9.9.9.9.9.9.9.9.7.9.7.3.7.9.9.9.9.7.9.7.",
"L.4 * A } i.T g.9.9.9.9.9.9.9.9.9.9.9.9.9.7.9.9.9.9.9.9.9.9.9.3.9.9.9.9.9.9.9.9.9.9.7.",
"- 2 Z  .Y k.g.0.7.9.9.9.9.9.9.9.9.9.9.9.9.3.9.7.9.9.9.9.9.9.9.9.9.9.9.9.9.9.9.9.9.9.9.",
"V s.J P z.^ / ! 7.9.9.9.9.9.9.9.7.9.9.9.9.9.9.9.9.7.3.9.9.7.9.9.9.9.9.9.9.9.9.9.9.9.3.",
"i.=.h.-.R y.7.! 7.9.9.9.9.9.9.9.3.7.9.9.9.9.7.3.9.9.7.9.9.3.7.9.9.9.9.1.9.9.9.9.9.9.9.",
"R y.<.w.w.+.Q 6.9.9.9.9.9.9.9.9.9.9.9.3.7.9.9.9.9.7.9.9.9.9.9.9.9.9.9.9.7.9.9.9.9.7.9.",
"7.1.,.<.w.#.9.1.9.9.9.9.9.9.9.9.9.9.9.7.9.9.9.9.9.9.9.9.9.9.9.9.9.9.9.9.3.9.9.9.7.3.9.",
"7.9.3.3.3.<.9.9.9.9.9.9.7.9.9.9.9.9.9.9.9.9.9.9.9.9.9.9.9.9.9.9.9.3.9.9.7.9.9.9.9.9.9."
};
