/* XPM */
static char *tile0031719244618[] = {
/* columns rows colors chars-per-pixel */
"43 43 162 2 ",
"   c #000624",
".  c #00072E",
"X  c #000C2C",
"o  c #000C35",
"O  c #00033B",
"+  c #000F39",
"@  c #010334",
"#  c #001432",
"$  c #051836",
"%  c #0F103C",
"&  c #0A183F",
"*  c #0C213C",
"=  c #000341",
"-  c #000F42",
";  c #00044B",
":  c #061441",
">  c #051B44",
",  c #000B59",
"<  c #00105C",
"1  c #132347",
"2  c #152D58",
"3  c #10315E",
"4  c #242B48",
"5  c #24394C",
"6  c #000167",
"7  c #00106E",
"8  c #00196A",
"9  c #0D2C6C",
"0  c #192169",
"q  c #14396E",
"w  c #183770",
"e  c #1E3C7B",
"r  c #2F346B",
"t  c #2B4053",
"y  c #24457B",
"u  c #4C576D",
"i  c #63747B",
"p  c #002381",
"a  c #2E418E",
"s  c #2D4C8B",
"d  c #2A419E",
"f  c #394B9D",
"g  c #355093",
"h  c #3A5B90",
"j  c #3155A1",
"k  c #3F5BA5",
"l  c #43559D",
"z  c #557294",
"x  c #636F85",
"c  c #767698",
"v  c #7A7A9C",
"b  c #445FA6",
"n  c #435CB0",
"m  c #5671A6",
"M  c #5074A8",
"N  c #456BBA",
"B  c #4E6FBE",
"V  c #5264B6",
"C  c #3A61C0",
"Z  c #3F7BED",
"A  c #3E7BF0",
"S  c #446EC0",
"D  c #4B69C1",
"F  c #4A6ECC",
"G  c #5270C8",
"H  c #4C78DB",
"J  c #5579D7",
"K  c #5076D9",
"L  c #687ADE",
"P  c #437BEF",
"I  c #4A7CEB",
"U  c #517DE5",
"Y  c #537FED",
"T  c #5A7AEB",
"R  c #4975F0",
"E  c #497BF8",
"W  c #4579F3",
"Q  c #5D7DF6",
"!  c #577CFF",
"~  c #667EE0",
"^  c #5C80CC",
"/  c #4B80DE",
"(  c #5281D4",
")  c #5983D7",
"_  c #5B8BD7",
"`  c #5C85DA",
"'  c #5E8ADD",
"]  c #608AD4",
"[  c #6586DD",
"{  c #658EDD",
"}  c #6F88DC",
"|  c #6D82DD",
" . c #6E94D3",
".. c #4688E6",
"X. c #4480EC",
"o. c #4B82EF",
"O. c #5482E4",
"+. c #5C87E5",
"@. c #5687EE",
"#. c #5A8DEA",
"$. c #5F91E8",
"%. c #4583F0",
"&. c #4C83F5",
"*. c #4D8CF5",
"=. c #4081F9",
"-. c #4E86FD",
";. c #4E89FC",
":. c #5386F5",
">. c #5A85F3",
",. c #5389F5",
"<. c #5B8AF3",
"1. c #5286FE",
"2. c #5188FF",
"3. c #5B8DFE",
"4. c #5C83F8",
"5. c #5090F2",
"6. c #5693FD",
"7. c #5B92FF",
"8. c #5D9AFF",
"9. c #6D88E3",
"0. c #6384EB",
"q. c #6088EA",
"w. c #658AE3",
"e. c #768FE1",
"r. c #6A94EB",
"t. c #6881F5",
"y. c #618EF3",
"u. c #638BFF",
"i. c #6896F4",
"p. c #6292FF",
"a. c #6A92FF",
"s. c #629BFF",
"d. c #6591F4",
"f. c #75A0FF",
"g. c #87989F",
"h. c #9FADB8",
"j. c #A4B5BC",
"k. c #B5B0B6",
"l. c #BFB9BD",
"z. c #B4B3B9",
"x. c #ABA7C0",
"c. c #AABAC7",
"v. c #B0B2C1",
"b. c #B2BBC0",
"n. c #BFBCC3",
"m. c #AFB1D7",
"M. c #BEBCD1",
"N. c #C3BEC2",
"B. c #C3BFD0",
"V. c #BDC8CA",
"C. c #BBC2CA",
"Z. c #B8C3D7",
"A. c #B0C5D8",
"S. c #B5C9E2",
"D. c #C1C0CE",
"F. c #CCC5CD",
"G. c #C4C9CF",
"H. c #C8C9CB",
"J. c #C7CBD4",
"K. c #C7C7DF",
"L. c #C9CDD9",
"P. c #CAC3D3",
/* pixels */
"2.2.2.2.2.2.2.2.2.2.2.2.2.2.2.2.2.2.2.2.2.2.2.2.2.2.2.2.2.2.2.2.2.2.2.2.2.2.2.2.2.2.2.",
"2.2.2.2.2.2.2.2.2.2.2.2.2.2.2.2.2.2.2.2.2.2.2.2.2.2.-.2.2.2.2.2.2.2.2.2.2.2.-.1.2.2.2.",
"2.2.2.2.2.2.2.2.2.2.2.2.2.1.-.2.2.2.2.2.2.2.2.-.2.2.2.2.2.2.2.2.2.2.2.2.2.2.2.2.2.2.2.",
"2.2.2.2.2.2.2.2.2.2.2.2.2.2.2.2.2.2.2.2.2.2.2.2.2.2.2.1.2.2.2.2.2.2.2.2.2.2.2.2.2.2.2.",
"2.2.2.2.2.2.2.2.2.2.2.2.2.2.2.2.2.2.2.2.2.2.2.2.2.2.2.2.2.2.2.2.2.2.2.2.2.2.2.2.2.2.2.",
"2.2.2.2.2.2.2.2.2.2.2.2.2.2.2.2.2.2.2.2.2.2.2.2.2.2.2.2.2.2.2.2.2.-.2.2.2.2.2.2.2.2.2.",
"2.2.2.2.2.2.2.2.1.-.2.2.2.2.2.2.-.2.2.2.2.2.2.2.2.2.2.2.2.2.2.2.2.2.2.2.2.2.2.2.2.2.2.",
"2.2.2.2.2.2.2.-.2.2.2.2.2.2.2.2.2.2.2.2.2.2.1.2.2.2.2.2.2.-.1.2.2.2.2.2.2.2.2.2.2.2.2.",
"2.2.2.2.2.2.2.2.2.2.2.2.2.2.2.2.2.2.2.2.2.2.2.2.2.2.2.2.2.2.2.2.2.-.2.2.2.2.2.2.2.2.2.",
"2.2.2.2.2.2.2.2.2.2.2.2.2.2.2.2.2.2.2.2.2.2.2.2.2.2.-.1.2.2.2.2.2.2.2.2.2.2.2.2.2.2.2.",
"2.2.2.2.2.2.1.2.2.2.2.2.2.2.2.2.2.-.2.2.2.2.2.2.2.2.2.2.2.2.2.2.2.2.2.2.2.2.2.2.2.2.;.",
"2.2.2.2.2.-.2.2.2.2.2.2.-.1.2.2.2.2.2.2.2.2.2.2.2.2.2.2.2.2.2.2.2.2.2.2.2.2.2.2.2.2.;.",
"2.2.2.2.2.2.2.2.2.2.2.2.2.2.2.2.2.2.2.2.2.2.2.-.2.2.2.2.2.2.2.2.2.2.2.2.2.2.2.2.2.2.2.",
"2.2.2.2.2.2.2.2.1.2.2.2.2.2.2.2.2.2.2.2.2.2.2.1.2.2.2.2.2.2.2.2.2.2.2.2.2.2.2.2.2.2.2.",
"2.2.-.2.2.2.2.2.-.2.2.2.2.2.2.2.2.2.2.2.2.2.2.2.2.2.2.2.-.1.2.2.2.2.2.2.2.2.2.2.2.2.2.",
"2.2.2.2.2.2.2.2.2.2.2.2.2.2.2.2.2.2.2.2.2.2.2.2.2.2.2.2.2.2.2.2.:.2.2.2.2.2.2.2.2.2.2.",
"2.2.2.2.2.2.2.2.2.2.2.2.2.2.2.2.1.2.2.2.2.2.2.2.2.2.2.2.2.2.2.&.;.,.;.2.1.1.1.1.1.1.1.",
"2.2.1.2.2.2.2.2.2.2.2.2.2.2.2.2.2.2.2.2.2.2.2.2.1.2.2.2.2.2.2.,.,.;.,.2.1.1.1.1.1.1.1.",
"-.2.2.2.2.2.2.2.2.2.2.2.2.2.2.2.2.2.2.-.2.2.2.2.-.2.2.2.2.2.2.,.:.,.:.2.1.2.2.1.1.1.1.",
"2.2.2.2.2.2.2.-.2.2.2.2.2.2.2.2.2.2.2.2.2.2.2.2.2.2.2.2.2.2.2.2.2.2.2.2.2.2.2.,.2.1.1.",
"2.2.2.2.2.2.2.2.2.-.2.2.2.2.2.2.2.2.2.2.2.2.2.2.2.2.2.2.2.2.2.2.1.1.1.2.,.;.;.;.,.*.*.",
"2.2.2.2.2.2.2.2.2.2.2.2.2.2.2.2.2.2.2.2.2.1.2.2.2.2.2.2.2.2.2.2.1.1.3.2.,.;.*.*.*.*.*.",
"2.2.2.2.1.2.2.2.2.2.2.2.-.2.2.2.2.2.2.2.2.2.2.2.2.2.2.2.2.1.1.1.1.1.2.2.;.;.*.*.*.*.*.",
"2.2.2.2.2.2.2.2.2.2.2.2.2.2.2.2.2.2.2.2.2.-.2.2.2.2.2.2.2.1.1.1.1.1.2.;.,.;.*.*.*.;.*.",
"2.2.2.2.2.2.2.2.2.2.2.2.2.2.2.2.2.2.2.2.-.2.2.2.2.2.2.2.2.2.1.1.1.1.1.2.2.;.;.6.;.Z 6.",
"2.2.2.2.2.2.2.2.2.2.2.2.2.2.2.2.2.2.2.2.2.2.2.2.2.2.2.2.2.2.1.1.:.1.1.,.,.;.;.Z 8.;.P ",
"2.2.1.2.2.2.2.2.2.2.2.2.2.2.2.2.2.2.2.2.2.2.2.2.2.2.2.2.2.2.1.:.2.1.2.2.2.;.2.7.&.I :.",
"2.2.-.2.2.2.2.2.2.2.2.2.2.2.2.2.2.2.2.2.2.2.2.2.2.2.2.2.2.1.1.:.,.,.,.2.;.2.2.P 7.p.f.",
"2.2.2.2.2.2.2.2.2.2.2.2.2.2.2.2.2.2.2.2.2.2.2.2.2.2.2.2.2.2.2.,.;.,.2.;.1.1.1.1.I 6 8 ",
"2.2.2.2.2.2.2.2.2.2.2.2.2.2.2.2.2.2.2.2.2.2.2.2.2.2.2.2.2.2.2.,.,.,.,.;.2.1.1.>.U 7 8 ",
"2.2.2.2.2.2.2.1.2.2.2.2.2.2.-.2.2.2.2.2.2.2.2.2.2.2.2.2.2.2.2.,.;.2.2.2.2.1.1.<.q.D p ",
"2.2.2.1.1.1.:.:.@.,.,.:.2.;.;.,.;.,.-.2.2.2.2.2.2.2.2.2.2.2.2.;.,.2.2.2.1.1.1.u.H r. .",
"7.&.1.p.:.>.O.) { ' ( #.5.=.;.*...5.,.X.-.2.-.1.1.1.1.-.-.;.,.2.,.2.2.2.2.2.:.:.2.@.O.",
"X.&.1.:.>.C , 9 h M  ._ / s.A *.8.&.X.8.2.&.3.2.1.1.1.-.:.-.&.2.2.2.2.2.2.2.2.2.6.2.-.",
"&.3.1.Y +.j O 2 # X . w B H a.-.W E 3.3.3.1.3.-.:.2.1.-.2.1.1.1.2.2.2.2.2.,.:.-.:.2.6.",
";.7.I <.[ s 2 S.c.h.x & = a L Q ! u.u.R :.7.&.:.-.-.-.1.2.1.1.1.2.2.2.2.2.2.;.2.&.&.6.",
"-.-.I y.[ e + Z.J.H.z.M.c @ 0 L t.T T a.<.I 2.,.-.-.2.2.2.1.1.1.2.2.2.2.2.2.2.3.,.-.;.",
"%.6.,.U [ b - 4 B.N.l.F.P.j.% = f } [ J O.$.2.2.,.-.-.-.1.1.1.1.2.2.2.;.;.:.2.&.2.2.:.",
"*.6.,.I q.9.l O v B.F.l.z.n.L.u X > m  .` O.o.:.-.-.;.2.1.:.:.1.,.2.2.:.2.2.2.%.-.2.1.",
"6.X.*.3.@.0.L ; r m.K.v.J.V.z.D.g.5 . y ] i.o.;.-.-.-.-.:.:.:.1.;.2.2.2.2.2.:.2.2.2.2.",
"*.;.;.2.1.4.0.d < @ & 1 $ * t i j.A.z O N $.:.-.-.-.-.:.:.,.,.:.,.2.2.2.2.2.2.2.2.2.2.",
";.;.-.-.1.4.>.0.G k g s y q 3 X   o - ; S O.@.;.;.-.-.2.1.>.1.1.2.2.2.,.2.2.2.2.2.2.2.",
"2.-.-.;.2.,.,.O.+.` ) +.r.$.( e.V n D F d.:.7.;.-.-.2.2.1.1.1.1.2.2.:.2.2.2.2.2.2.1.2."
};
