/* XPM */
static char *tile3071719244605[] = {
/* columns rows colors chars-per-pixel */
"43 41 133 2 ",
"   c #5188FF",
".  c #5387FF",
"X  c #4E7BFA",
"o  c #5985FF",
"O  c #5E89FC",
"+  c #5885EC",
"@  c #5886DE",
"#  c #5F8BD4",
"$  c #5E89C0",
"%  c #577EA9",
"&  c #234463",
"*  c #000B20",
"=  c #93A4B4",
"-  c #E9F3FD",
";  c #5388FC",
":  c #5487F4",
">  c #598AF3",
",  c #5A89F3",
"<  c #5887EF",
"1  c #5B88ED",
"2  c #608BEA",
"3  c #648BE6",
"4  c #658ADA",
"5  c #6987CD",
"6  c #2F4982",
"7  c #000732",
"8  c #9DABC8",
"9  c #5388F8",
"0  c #578DEF",
"q  c #5489E7",
"w  c #5185EA",
"e  c #5383EF",
"r  c #5381F1",
"t  c #537EF1",
"y  c #567DF2",
"u  c #5C80F0",
"i  c #6787EC",
"p  c #617CD3",
"a  c #2A4185",
"s  c #00093B",
"d  c #5189F8",
"f  c #578FEC",
"g  c #538AE4",
"h  c #5389EB",
"j  c #568AF8",
"k  c #5787FF",
"l  c #5581FF",
"z  c #5781FF",
"x  c #5F85FF",
"c  c #5376F6",
"v  c #6989FA",
"b  c #627CD9",
"n  c #2C448A",
"m  c #548EEF",
"M  c #518CE8",
"N  c #5089F0",
"B  c #5088F9",
"V  c #5083FF",
"C  c #4C7DFF",
"Z  c #4C79FF",
"A  c #4F79FF",
"S  c #5D84FF",
"D  c #7397FF",
"F  c #4E6FDA",
"G  c #6A8ADF",
"H  c #5188FC",
"J  c #4A84F0",
"K  c #4C86F1",
"L  c #4E87F8",
"P  c #4D85FC",
"I  c #4E85FF",
"U  c #5086FF",
"Y  c #5385FF",
"T  c #5383FF",
"R  c #4975F8",
"E  c #456FE8",
"W  c #7199FF",
"Q  c #6086E7",
"!  c #5088FF",
"~  c #4C87FB",
"^  c #508BFF",
"/  c #4F8AFF",
"(  c #4A85FD",
")  c #4A84FF",
"_  c #4D87FF",
"`  c #4F86FF",
"'  c #4C82FE",
"]  c #6192FF",
"[  c #4674E3",
"{  c #5D89F2",
"}  c #4E88FF",
"|  c #4D89FF",
" . c #4E89FF",
".. c #4E89FD",
"X. c #5089FC",
"o. c #5389F6",
"O. c #5589F6",
"+. c #5689F4",
"@. c #4D8AFF",
"#. c #4D8AFD",
"$. c #4E8AFC",
"%. c #4E8AFA",
"&. c #4F89F7",
"*. c #508AF8",
"=. c #528AF9",
"-. c #5489F9",
";. c #5089FD",
":. c #4D8BFA",
">. c #4D8BFC",
",. c #4F88FC",
"<. c #5188FD",
"1. c #5489FD",
"2. c #4E8BF6",
"3. c #4D8CF5",
"4. c #4D8CF6",
"5. c #4E86FF",
"6. c #5187FF",
"7. c #4E8BF5",
"8. c #4E8CF3",
"9. c #4E8AF8",
"0. c #5085FF",
"q. c #5285FF",
"w. c #5486FF",
"e. c #5089FA",
"r. c #5386FF",
"t. c #5485FF",
"y. c #5387FD",
"u. c #5587FF",
"i. c #5686FF",
"p. c #5585FF",
"a. c #5487FD",
"s. c #5688FF",
"d. c white",
/* pixels */
"                                                            . X o O + @ # $ % & * = - ",
"                                                            ; : > , < 1 2 3 4 5 6 7 8 ",
"                                                            9 0 q w e r t y u i p a s ",
"                                                            d f g h j k l z x c v b n ",
"                                                            d m M N B V C Z A S D F G ",
"                                                            H J K L P I U Y T R E W Q ",
"                                                            ! ~ ^ / ( ) _ ` ' . ] [ { ",
"                                                            ! } | | | |  ...X.d o.O.+.",
"                                                            !  .| | @.#.#.$.%.&.*.=.-.",
"                                                            ;.%.:.:.>.#.#. . .,.,.<.1.",
"                                                            X.2.3.4.:.>. . .! 5.U 6.. ",
"                                                            X.7.8.2.9...! ! 6.0.q.q.w.",
"                                                            H *.2.9.e.;.  6.r.r.t.t.w.",
"                                                            <.;.X.;.;.<.y.. w.u.i.p.p.",
"                                                              ! ! !   <.y.y.a.s.u.w.w.",
"                                                                            . . . . . ",
"                                                                                      ",
"                                                                                      ",
"                                                                                      ",
"                                                                                      ",
"                                                                                      ",
"                                                                                      ",
"                                                                                      ",
"                                                                                      ",
"                                                                                      ",
"                                                                                      ",
"                                                                                      ",
"                                                                                      ",
"                                                                                      ",
"                                                                                      ",
"                                                                                      ",
"                                                                                      ",
"                                                                                      ",
"                                                                                      ",
"                                                                                      ",
"                                                                                      ",
"                                                                                      ",
"                                                                                      ",
"                                                                                      ",
"                                                                                      ",
"                                                                                      "
};
