/* XPM */
static char *tile3081719244605[] = {
/* columns rows colors chars-per-pixel */
"43 41 177 2 ",
"   c #000302",
".  c #00080A",
"X  c #000313",
"o  c #040911",
"O  c #00031E",
"+  c #0A1614",
"@  c #000423",
"#  c #020825",
"$  c #00052C",
"%  c #000B2D",
"&  c #00132D",
"*  c #0A142D",
"=  c #181425",
"-  c #000333",
";  c #000932",
":  c #00093C",
">  c #0F1E3B",
",  c #191F3F",
"<  c #201E34",
"1  c #1D2228",
"2  c #0B2B36",
"3  c #2E332D",
"4  c #292931",
"5  c #000740",
"6  c #000841",
"7  c #001545",
"8  c #0E1F4D",
"9  c #001E50",
"0  c #041450",
"q  c #0E254F",
"w  c #092753",
"e  c #142B5A",
"r  c #142948",
"t  c #252D44",
"y  c #293740",
"u  c #30324B",
"i  c #3C3E4D",
"p  c #233750",
"a  c #383C55",
"s  c #1B2970",
"d  c #193675",
"f  c #273B6E",
"g  c #273A75",
"h  c #31405D",
"j  c #3B5856",
"k  c #1F4671",
"l  c #304A6F",
"z  c #31487C",
"x  c #515C4E",
"c  c #43495F",
"v  c #535854",
"b  c #405475",
"n  c #595E72",
"m  c #2E598E",
"M  c #3A5082",
"N  c #2D5495",
"B  c #3D5C99",
"V  c #394899",
"C  c #395BA3",
"Z  c #46589A",
"A  c #5C6C86",
"S  c #4B6294",
"D  c #566D9F",
"F  c #707281",
"G  c #717693",
"H  c #4462A2",
"J  c #5B73A7",
"K  c #5C76B1",
"L  c #4877BB",
"P  c #607FB8",
"I  c #3E7DE7",
"U  c #5868C0",
"Y  c #5D7CCC",
"T  c #567ACE",
"R  c #557BD6",
"E  c #5C7ED7",
"W  c #5E7FDE",
"Q  c #527DDC",
"!  c #627FCD",
"~  c #697BC3",
"^  c #607FD2",
"/  c #697CD8",
"(  c #4679EF",
")  c #597FE4",
"_  c #597DEF",
"`  c #4D7CF5",
"'  c #4A7BFA",
"]  c #537DF3",
"[  c #547EFB",
"{  c #597FFA",
"}  c #677FED",
"|  c #617DF8",
" . c #637CF2",
".. c #7D948C",
"X. c #7D8590",
"o. c #7B8AA7",
"O. c #5F83CD",
"+. c #5F88D7",
"@. c #5484DC",
"#. c #5D82D7",
"$. c #5D90DF",
"%. c #6483CD",
"&. c #6886CC",
"*. c #6688CF",
"=. c #6787C6",
"-. c #6D87DE",
";. c #698BD6",
":. c #708DDB",
">. c #4E86ED",
",. c #4C8AE9",
"<. c #4B81E5",
"1. c #5B86E5",
"2. c #5D89E3",
"3. c #5583EC",
"4. c #5987ED",
"5. c #518BEF",
"6. c #5A88E8",
"7. c #548AE4",
"8. c #5894EC",
"9. c #4D81F4",
"0. c #4E85FD",
"q. c #4F88FB",
"w. c #5385F5",
"e. c #5A86F4",
"r. c #5189F5",
"t. c #5D8FF0",
"y. c #5386FE",
"u. c #5A86FD",
"i. c #5188FF",
"p. c #5B8CFD",
"a. c #5692FF",
"s. c #5992FF",
"d. c #6385E3",
"f. c #6088E7",
"g. c #678FEF",
"h. c #6787E7",
"j. c #6891ED",
"k. c #7891EE",
"l. c #6386F4",
"z. c #638CF7",
"x. c #6686FF",
"c. c #638BFF",
"v. c #6091FD",
"b. c #619AFF",
"n. c #92909B",
"m. c #9295A8",
"M. c #8998B3",
"N. c #B6BBB4",
"B. c #B9C3C2",
"V. c #B5C5DE",
"C. c #C2D2DE",
"Z. c #C4C5D7",
"A. c #CBDBEB",
"S. c #CFDEF5",
"D. c #D9DEF4",
"F. c #D7EDEA",
"G. c #DEF2E7",
"H. c #ECECEA",
"J. c #E6E6E6",
"K. c #ECF6EE",
"L. c #EBFDED",
"P. c #F3FDE6",
"I. c #FEFFE4",
"U. c #F1F5ED",
"Y. c #F6FBED",
"T. c #FDFFEB",
"R. c #ECF5F3",
"E. c #E5F1FF",
"W. c #EDF5FF",
"Q. c #EBFCFF",
"!. c #F3F3F2",
"~. c #F6F8F3",
"^. c #FDFEF5",
"/. c #F3F4FE",
"(. c #FCF5FC",
"). c #F5FCFE",
"_. c #FEFEFE",
/* pixels */
"_./.(._._.R.H._.Y.^.T.^._._._._._._._._._._.)._.)._._._._.^._.^._.^._.^._._._._._._._.",
")._._.H._._._._.K.^.Y.U.^._._._._._._._._._._._._._._._._._._._._._._._._._._._._._._.",
"M.).R._.)./.R._._.^.Y.^._._._._._._._._._._._._._._._._._._._._._._._._._._._._._._._.",
": p C.)./._._.R.^.Y.Y.^.^._._.^._.^.^.^._._._._._._._._._._._._._._._._._._._._._._._.",
"H e # X . 3 N.^.U.U._.J._._._._.^.T.I.T._._._._._._._._._._._._._._._._._._._._._._._.",
"T *.=.; o     v _._.J._.(._._._.^.T.I.I.^._._._._._._._._._._._._._._._._._._._._._._.",
"6.2.R d O o 1 o 4 n.(.(._.(._.(.^.T.I.T.^._.^._._.^._.^._._._._._._._._._._._._._._._.",
"e.e._ E : # # u < X = _.(._.(._._._.^.^.^._._.^._._._._.^.~._._._._._._._._._._._._._.",
"r.w.w.) ~ - - $ a i   /._._.(._.(._._._._._.^.^.^.^._._._.^._.~.U.U.^._._._._._._._._.",
"r.y.w.3.Y Z : o.X + x P.T.^.^._._._._._.~./._._._._.).~.^._._.^._._._.!._._._._._._._.",
"i.r.w.3.h.&.6 l Q.F.K.Y.P.Y.^._._././.W._.).).)././._._._._._.^.!.!.(._._._._._._._._.",
"i.u.w.r.@.+.N 7 & 2 j ..G.K.Q.).).).).).W.).).)._.).)._././._._._._._._._._._._._._._.",
"u.i.y.r.t.7.$.L m k w # @ # > a A M.V.S.E.W.).).W.W.W._._._.).(.(._._._._._._._._._._.",
"u.u.u.i.a.I s.<.6.j.W k./ K V s 0 : ; % O O O # * t c n m.Z./._._._._.(._._._._._._._.",
"y.y.y.i.0.q.0.0.v.] { x.{  . .h.-.*.=.P J J D S M f e 8 $ % $ r G D._./._._._._._._._.",
"y.y.y.0.0.0.q.q.i.i.u.u.{ u.u.e.e.e.4.1.1.1.1.1.1.1.1.1.#.Y C s 7 $ b A.K.^.~.R._._._.",
"q.i.i.i.i.i.y.i.i.i.i.i.i.i.i.i.i.i.i.i.r.r.w.q.0.y.y.y.u.v.f.;.*.S 9 # y B._.)._.W._.",
"i.i.i.i.i.i.q.i.i.i.i.i.i.i.i.i.u.q.i.i.r.5.w.q.q.0.0.y.9.w.7.R #.-.&.K q @ o.E.).~.!.",
"i.i.i.i.i.i.i.i.i.i.i.i.y.i.i.i.i.i.i.r.r.r.r.q.q.i.y.i.u.w.u.z.h.d.d.^ Y B - r C._._.",
"i.i.i.i.i.i.i.i.i.i.i.i.q.i.i.q.i.i.i.i.w.r.r.r.q.q.q.0.p.( ] p._ _ l.l.4.f.! 9 % X.!.",
"i.i.i.i.i.i.i.i.i.i.i.i.i.i.i.i.i.i.i.i.r.w.r.w.q.i.q.q.q.y.s.c.[ [ c.u.` e.Q %.z & F ",
"i.y.i.i.i.i.i.i.i.i.i.i.i.i.i.i.i.i.i.i.y.y.y.q.r.q.q.q.q.0.y.' [ c.u.' p.0.3.g.:.g $ ",
"i.i.i.q.i.i.i.i.i.i.i.y.i.i.i.q.i.i.i.q.u.y.y.r.i.q.q.q.r.i.i.i.' y.y.p.q.' y.3.d.%.5 ",
"i.i.i.i.i.i.i.i.i.i.i.q.i.i.i.y.y.q.i.y.y.y.y.y.i.r.r.r.r.r.i.i.y.y.y.y.0.i.y.>.e.j.C ",
"i.i.i.y.q.i.i.i.i.i.i.i.i.i.i.i.i.i.q.y.y.y.y.y.i.r.r.q.r.q.r.q.i.i.i.i.y.u.y.] >.8.@.",
"i.i.i.i.i.i.i.i.i.i.i.i.i.i.i.i.i.i.i.i.y.y.y.q.i.i.r.r.r.r.r.r.q.i.i.i.[ [ p.p.5.,.8.",
"i.i.i.i.i.i.i.i.i.i.i.i.i.i.i.i.i.i.i.y.y.y.q.y.r.i.r.r.r.q.r.r.r.q.r.i.u.[ u.p.5.,.,.",
"i.i.i.i.i.i.i.i.i.q.y.i.i.i.i.i.i.i.i.i.i.y.y.i.i.i.i.i.i.q.a.q.r.i.i.y.p.u.y.5.>.5.p.",
"i.i.i.i.i.i.i.i.i.i.i.i.i.i.y.i.i.i.i.i.i.r.i.i.i.q.y.i.i.i.i.i.i.i.y.i.y.u.p.r.` i.p.",
"i.i.i.i.i.i.i.i.i.i.i.i.i.i.q.i.i.i.i.q.i.i.i.i.y.i.u.y.i.u.y.u.y.y.y.y.0.q.a.p.0.[ y.",
"i.i.i.i.i.q.i.i.i.i.i.i.i.i.i.i.i.i.i.i.r.q.i.r.y.i.y.y.y.y.y.y.y.y.y.q.a.q.0.i.[ y.u.",
"i.i.i.i.i.y.i.i.i.i.i.i.i.i.i.i.i.i.i.i.i.i.i.i.i.i.y.i.y.y.y.y.y.q.y.y.q.q.0.y.y.y.y.",
"i.i.q.i.i.i.i.i.i.i.i.i.i.i.i.i.i.i.i.i.i.i.i.i.i.i.i.i.i.i.i.i.q.i.i.i.i.i.i.i.i.i.i.",
"i.i.i.i.i.i.i.i.y.i.i.i.i.i.i.i.i.i.i.i.i.y.i.i.i.i.i.i.i.i.i.i.i.i.i.i.i.i.i.i.y.i.i.",
"i.i.y.i.i.i.i.i.q.i.i.i.q.i.i.i.q.i.i.i.i.i.i.i.i.i.i.i.i.i.i.i.i.i.y.i.i.i.i.i.q.i.i.",
"i.i.i.i.i.i.i.i.i.i.i.i.y.i.i.i.i.i.i.i.q.i.i.i.y.i.i.i.i.i.i.i.q.i.i.i.i.i.i.i.i.i.i.",
"i.i.i.i.i.i.i.i.i.i.i.i.i.i.i.i.i.i.i.i.i.i.i.i.q.i.i.i.i.i.i.i.i.i.i.i.i.i.i.i.i.i.i.",
"q.i.i.i.i.i.i.i.i.i.i.i.i.i.i.i.i.i.i.i.i.i.i.i.i.i.i.i.i.i.q.y.i.i.i.i.i.i.i.i.i.i.i.",
"i.i.i.i.i.q.i.i.y.q.i.i.i.i.i.i.y.q.i.i.i.i.i.i.i.i.i.i.i.i.i.i.i.i.i.i.i.i.i.i.i.i.i.",
"i.i.i.i.i.y.i.i.i.i.i.i.i.q.i.i.i.i.i.i.i.i.i.i.i.i.i.i.i.i.i.i.i.i.i.i.y.q.i.i.i.i.i.",
"i.i.i.i.i.i.i.i.i.i.i.i.i.i.i.i.i.y.q.i.i.i.i.i.i.i.i.i.i.i.i.i.i.i.i.y.i.i.i.i.i.i.q."
};
