/* XPM */
static char *tile3091719244605[] = {
/* columns rows colors chars-per-pixel */
"43 41 163 2 ",
"   c #000524",
".  c #000927",
"X  c #00022C",
"o  c #000A2A",
"O  c #09142A",
"+  c #000532",
"@  c #000D34",
"#  c #000739",
"$  c #000B3D",
"%  c #091430",
"&  c #05173F",
"*  c #041334",
"=  c #000C4C",
"-  c #031542",
";  c #00134B",
":  c #051A51",
">  c #1C2743",
",  c #002254",
"<  c #0A205A",
"1  c #17295B",
"2  c #253255",
"3  c #082B65",
"4  c #0D2669",
"5  c #0D286B",
"6  c #0D2565",
"7  c #18367E",
"8  c #233968",
"9  c #293B6D",
"0  c #293F7B",
"q  c #374258",
"w  c #2A4864",
"e  c #3C4A67",
"r  c #345066",
"t  c #2D4372",
"y  c #40485D",
"u  c #4F5669",
"i  c #404E71",
"p  c #545C71",
"a  c #60667C",
"s  c #3B528C",
"d  c #2B4A9A",
"f  c #275497",
"g  c #3F589A",
"h  c #3969AB",
"j  c #4F5F81",
"k  c #485A8C",
"l  c #405894",
"z  c #475F9D",
"x  c #606F8E",
"c  c #737B92",
"v  c #4F68AA",
"b  c #5671A6",
"n  c #4568BC",
"m  c #4C6CB5",
"M  c #5972B5",
"N  c #5D75BD",
"B  c #6074AF",
"V  c #627DBD",
"C  c #3A78E7",
"Z  c #3877E9",
"A  c #467AC5",
"S  c #4D75CA",
"D  c #5078D0",
"F  c #587DD8",
"G  c #617CC4",
"H  c #627DCA",
"J  c #467CE6",
"K  c #4F7CE3",
"L  c #4A7EEB",
"P  c #537FE2",
"I  c #447EF4",
"U  c #4D7EF3",
"Y  c #517EFD",
"T  c #5E7FFF",
"R  c #607FFE",
"E  c #7788A2",
"W  c #5E86DE",
"Q  c #6781CB",
"!  c #6A84CE",
"~  c #6B89CC",
"^  c #7386C0",
"/  c #7889C1",
"(  c #6D87D1",
")  c #6688D0",
"_  c #6988D2",
"`  c #6386DD",
"'  c #6588DC",
"]  c #6B8ADA",
"[  c #7193DD",
"{  c #4B87E7",
"}  c #5C84E3",
"|  c #5681EA",
" . c #5B86EC",
".. c #5D8AED",
"X. c #558DEC",
"o. c #5D96E7",
"O. c #4C84F5",
"+. c #4D89F7",
"@. c #4585FD",
"#. c #4C86FE",
"$. c #4789FE",
"%. c #4D8AFD",
"&. c #5485F4",
"*. c #5986F3",
"=. c #558AF5",
"-. c #5C89F4",
";. c #5386FE",
":. c #5B82FD",
">. c #5189FE",
",. c #5B8DFD",
"<. c #4F90FF",
"1. c #5392FF",
"2. c #5A94FF",
"3. c #6087E4",
"4. c #648BE3",
"5. c #6088EA",
"6. c #618FFC",
"7. c #6090FF",
"8. c #629AFF",
"9. c #699EFF",
"0. c #808B9F",
"q. c #858DA4",
"w. c #8595B6",
"e. c #8A9ABE",
"r. c #909AB3",
"t. c #959EBB",
"y. c #9AA2B9",
"u. c #AFBFD6",
"i. c #BEC5D5",
"p. c #BDC9E3",
"a. c #C9D1DE",
"s. c #C8DBE9",
"d. c #CCD4E1",
"f. c #DDDFEB",
"g. c #DFEBFF",
"h. c #DCE1F4",
"j. c #DAF2FE",
"k. c #E8E8E6",
"l. c #E4EFE9",
"z. c #EEEDE9",
"x. c #E2E5EC",
"c. c #F1EEE9",
"v. c #E5F1ED",
"b. c #ECF2E6",
"n. c #F5F2EE",
"m. c #FDF4EF",
"M. c #F5FBED",
"N. c #FCFDEE",
"B. c #F1F3E5",
"V. c #EAEBF0",
"C. c #E3ECFD",
"Z. c #EEF9F3",
"A. c #E6F2FF",
"S. c #EDF3FB",
"D. c #ECFAFD",
"F. c #F4F4F3",
"G. c #F9F6F2",
"H. c #F5FCF4",
"J. c #FDFEF5",
"K. c #F3F6FF",
"L. c #FAF6FD",
"P. c #F5FEFD",
"I. c #FEFEFE",
/* pixels */
"I.I.I.I.I.I.I.I.I.I.I.I.I.I.I.I.I.I.I.I.I.I.I.I.I.I.I.I.I.I.I.I.I.I.I.I.I.I.I.I.I.I.I.",
"I.I.I.I.I.I.I.I.I.I.I.I.I.I.I.I.I.I.I.I.I.I.I.I.I.I.I.I.I.I.I.I.I.I.I.I.I.I.I.I.I.I.I.",
"I.I.I.I.I.I.I.I.I.I.I.I.I.I.I.I.I.I.I.I.I.I.I.I.I.I.I.I.I.I.I.I.I.I.I.I.I.I.I.I.I.I.I.",
"I.I.I.I.I.I.I.I.I.I.I.I.I.I.I.I.I.I.I.I.I.I.I.I.I.I.I.I.I.I.I.I.I.I.I.I.I.I.I.I.I.I.I.",
"I.I.I.I.I.I.I.I.I.I.I.I.I.I.I.I.I.I.I.I.I.I.I.I.I.I.I.I.I.I.I.I.I.I.I.I.I.I.I.I.I.I.I.",
"I.I.I.I.I.I.I.I.I.I.I.I.I.I.I.I.I.I.I.I.I.I.I.I.I.I.I.I.I.I.I.I.I.I.I.I.I.I.I.I.I.I.I.",
"I.I.I.I.I.I.I.I.I.I.I.I.I.I.I.I.I.I.I.I.I.I.I.I.I.I.I.I.I.I.I.I.I.I.I.I.I.I.I.I.I.I.I.",
"I.I.I.I.I.I.I.I.I.I.I.I.I.I.I.I.I.I.I.I.I.I.I.I.I.I.I.I.I.I.I.I.I.I.I.I.I.I.I.I.I.I.I.",
"I.I.I.I.I.I.I.I.I.I.I.I.I.I.I.I.I.I.I.I.I.I.I.I.I.I.I.I.I.I.I.I.I.I.I.I.I.I.I.I.I.I.I.",
"I.I.I.I.I.I.I.I.I.I.I.I.I.I.I.I.I.I.I.I.I.I.I.I.I.I.I.I.I.I.I.I.I.I.I.I.I.I.I.I.I.I.I.",
"I.I.I.I.I.I.I.I.I.I.I.I.I.I.I.I.I.I.I.I.I.I.I.I.I.I.I.I.I.I.I.I.I.I.I.I.I.I.I.I.I.I.I.",
"I.I.I.I.I.I.I.I.I.I.I.I.I.I.I.I.I.I.I.I.I.I.I.I.I.I.I.I.I.I.I.I.I.I.I.I.I.I.I.I.I.I.I.",
"I.I.I.I.I.I.I.I.I.I.I.I.I.I.I.I.I.I.I.I.I.I.I.I.I.I.I.I.I.I.I.I.I.I.I.I.I.I.I.I.I.I.I.",
"I.I.I.I.I.I.I.I.I.I.I.I.I.I.I.I.I.I.I.I.I.I.I.I.I.I.I.I.I.I.I.I.I.I.I.I.I.I.I.I.I.I.I.",
"I.I.I.P.I.P.I.I.I.I.I.I.I.I.I.I.I.I.I.I.I.I.I.I.I.I.I.I.I.I.I.I.I.I.J.I.I.I.I.I.I.I.I.",
"P.P.J.J.J.J.I.I.I.I.P.I.P.I.I.I.P.J.I.J.I.I.I.I.I.I.I.J.J.J.J.J.J.J.J.I.I.I.P.I.I.L.L.",
"F.P.G.J.J.J.I.I.I.P.I.P.P.I.P.L.I.P.J.J.J.I.I.I.I.I.J.I.J.J.J.J.J.J.J.J.I.I.I.I.I.I.K.",
"J.J.I.J.P.I.P.P.P.J.I.I.I.I.I.I.I.J.J.I.I.J.I.I.L.I.I.L.I.J.J.J.I.J.J.I.I.I.L.I.I.K.P.",
"G.J.L.I.I.I.P.P.J.I.J.I.I.I.I.I.I.I.I.I.I.I.J.I.J.I.I.I.I.I.I.I.I.I.I.I.I.I.I.I.I.Z.P.",
"G.G.G.L.I.I.I.P.H.J.J.I.I.I.I.I.I.I.I.I.I.J.I.I.J.I.I.I.I.I.I.I.L.I.I.I.I.J.I.J.J.J.P.",
"I.L.m.J.J.I.I.P.P.J.J.J.J.I.I.I.I.I.I.I.I.I.J.J.J.J.I.I.L.I.I.L.I.L.I.I.I.I.J.J.J.H.H.",
"K.L.N.N.N.J.I.P.I.I.J.I.I.J.L.I.I.L.I.L.I.I.I.J.J.I.J.I.I.I.I.I.I.I.I.L.I.J.J.J.J.J.J.",
"p P.P.J.N.J.I.I.I.I.J.I.J.I.I.I.I.L.I.I.I.I.I.N.J.J.P.I.I.I.I.I.I.L.I.I.J.J.N.J.J.J.J.",
"- w j.P.l.J.I.L.I.I.I.G.I.I.c.I.L.L.L.I.I.I.I.J.M.J.J.I.J.J.L.L.L.n.I.J.I.J.N.J.J.J.J.",
"h : @ r s.P.S.I.L.I.x.I.I.I.n.n.I.L.L.L.L.P.J.M.M.J.J.H.I.I.I.I.I.I.n.J.I.J.I.b.J.c.I.",
"o.A f 3 - o p f.L.C.P.K.I.I.J.I.I.I.I.L.L.L.I.J.J.J.J.J.J.M.M.m.G.z.I.n.G.H.Z.P.P.I.V.",
"{ X...S m s &   O t.A.P.V.P.J.J.c.L.I.I.I.I.I.I.H.J.H.J.J.I.I.J.I.I.k.I.P.S.P.A.D.a.q.",
"+.+.,. .} ] ~ b t X 2 C.P.P.M.N.J.I.I.L.I.L.P.G.H.P.P.P.P.J.G.J.G.H.L.S.P.P.P.i.o   + ",
";.;.Y &.*.{ W ' ! M & e A.v.J.J.B.I.I.L.L.I.I.P.I.I.I.P.I.I.I.I.I.P.I.K.C.P.w.X 9 V [ ",
"Y Y 6.,.&.,.,.O. .H k o D.D.M.J.N.J.I.I.I.I.L.F.F.P.P.L.P.I.I.I.I.I.I.S.p.i X 9 V 4.P ",
":.:.U ;.;.+.+.#.2.( / X E P.Z.P.I.P.L.L.P.S.h.a.i.y.r.q.c a u y q > * $ # ; l ( ` *.,.",
">.;.;.;.;.;.;.#.*.H ^ 1 X e.x o % . o o o + X + + # # - - : < 6 5 7 d n F }  .-.*.;.;.",
">.>.>.#.>.>.;.>.&.` _ N 4 = = t s s g z v M G H ! ~ ~ ! _ _ ' 4.} } ..6.7.,.;.;.;.>.>.",
">.;.>.>.;.%.%.;.;.,.|  . .} 3.5.D W W W }  ...-.5.4.' ' ` } } }  ...*.*.O.=.&.>.,.>.>.",
";.%.;.>.>.;.>.>.;.I >.O.>.>.=.L 9.=.=.=.&.+.O.O.U  .} |  ...-.-.-.=.=.+.+.+.>.+.%.>.;.",
">.;.>.>.>.>.;.#.>.$.1.%.<.I 2.%.C %.+.%.%.<.%.<.1.;.;.:.:.;.=.;.>.,.>.>.=.1.1.+.+.#.>.",
">.;.;.>.>.;.>.>.>.$.$.$.<.C +.1.1.>.+.<.%.$.@.@.@.#.;.;.#.;.#.#.+.+.+.+.+.+.<.+.%.>.;.",
";.%.>.>.;.%.;.%.>.1.>.O.2.8.,.J =.=.=.=.=.=.%.>.>.#.#.#.#.#.%.>.%.1.1.>.>.$.+.%.%.%.>.",
">.;.>.>.>.%.;.;.;.&.,.,.=.| =.-...*.*.*.=.&.&.;.>.#.#.#.%.#.%.%.%.@.#.%.%.>.>.>.>.>.%.",
";.%.>.#.>.;.>.>.;.;.:.:.:.:.:.:.:.:.:.:.:.:.T T :.>.%.%.#.>.;.>.%.;.;.#.>.;.>.;.;.>.;.",
"%.;.;.%.>.>.;.;.;.:.:.R :.R R R T T R T T :.6.T :.;.%.>.>.#.>.;.>.;.;.;.;.;.;.;.;.;.>."
};
