/* XPM */
static char *tile3101719244605[] = {
/* columns rows colors chars-per-pixel */
"43 41 175 2 ",
"   c #000120",
".  c #000B25",
"X  c #00032C",
"o  c #000B2B",
"O  c #04162E",
"+  c #000535",
"@  c #000B32",
"#  c #000B3E",
"$  c #001333",
"%  c #03143A",
"&  c #0D1E3A",
"*  c #101936",
"=  c #000A43",
"-  c #021242",
";  c #091C45",
":  c #00104D",
">  c #031B4C",
",  c #071D57",
"<  c #091F51",
"1  c #1E2D4E",
"2  c #14234C",
"3  c #1E3048",
"4  c #0D2153",
"5  c #0E225D",
"6  c #102157",
"7  c #122D5A",
"8  c #1F355A",
"9  c #25344B",
"0  c #303548",
"q  c #303B4F",
"w  c #2F3859",
"e  c #2D3953",
"r  c #072966",
"t  c #0E2D63",
"y  c #132E65",
"u  c #1D3774",
"i  c #1C397B",
"p  c #243968",
"a  c #324259",
"s  c #3D4A5A",
"d  c #22477E",
"f  c #404C58",
"g  c #485679",
"h  c #4B5873",
"j  c #273D88",
"k  c #2F4D8B",
"l  c #364F88",
"z  c #335185",
"x  c #3E58A2",
"c  c #4A5F9E",
"v  c #466091",
"b  c #435EA5",
"n  c #4F63A0",
"m  c #4062A9",
"M  c #4A6BAB",
"N  c #506EA4",
"B  c #4168B5",
"V  c #4F6FBC",
"C  c #506BB2",
"Z  c #4F73B1",
"A  c #5A75BA",
"S  c #5A73B5",
"D  c #5A7CC6",
"F  c #5576C3",
"G  c #5E78D5",
"H  c #5374DF",
"J  c #5D7BDB",
"K  c #527ADA",
"L  c #647BCB",
"P  c #4D7EE7",
"I  c #527EE7",
"U  c #5C7EEA",
"Y  c #477EF3",
"T  c #4C7DF5",
"R  c #407BF9",
"E  c #4E7FFE",
"W  c #537FFB",
"Q  c #7C8896",
"!  c #7C89A9",
"~  c #5B82C5",
"^  c #5785D3",
"/  c #5D82D5",
"(  c #5D89D0",
")  c #5583DA",
"_  c #5B84DD",
"`  c #6384C2",
"'  c #6388CF",
"]  c #6782D3",
"[  c #668DD7",
"{  c #6585D8",
"}  c #6887D9",
"|  c #608BDA",
" . c #6F8CDD",
".. c #4580E6",
"X. c #4683EB",
"o. c #4E82E9",
"O. c #5483E6",
"+. c #5D84E2",
"@. c #558AE5",
"#. c #5C8BE3",
"$. c #5583EC",
"%. c #5A86ED",
"&. c #528BEF",
"*. c #5E88EA",
"=. c #5C91EF",
"-. c #4382F3",
";. c #4A85F4",
":. c #4D8AF3",
">. c #4B84FD",
",. c #4788FC",
"<. c #4D8AFD",
"1. c #4586FC",
"2. c #5485F5",
"3. c #5986F5",
"4. c #548AF6",
"5. c #5C8BF6",
"6. c #5486FD",
"7. c #5984FB",
"8. c #5188FF",
"9. c #5C8BFD",
"0. c #5B92F5",
"q. c #5492FE",
"w. c #5A91FC",
"e. c #5798FF",
"r. c #5A9AFC",
"t. c #6286E5",
"y. c #668CEC",
"u. c #6F8EE8",
"i. c #698DE5",
"p. c #6D91E5",
"a. c #6189F4",
"s. c #6B8CF7",
"d. c #6086FB",
"f. c #638AFD",
"g. c #698DFD",
"h. c #8397AF",
"j. c #8A99AC",
"k. c #A1B7C2",
"l. c #ABB2C2",
"z. c #AFBBD3",
"x. c #B8BDD3",
"c. c #B5C1CD",
"v. c #BBC1D1",
"b. c #B9CBE1",
"n. c #C3CDD6",
"m. c #CCD6DF",
"M. c #CAD2D5",
"N. c #ECEDDD",
"B. c #D2D6E2",
"V. c #D0D7F1",
"C. c #D7E3F1",
"Z. c #DCE8F8",
"A. c #E0E7E0",
"S. c #EBEDEC",
"D. c #F2EDE9",
"F. c #ECF2EE",
"G. c #F5F1E5",
"H. c #F3F4EC",
"J. c #F2F8EA",
"K. c #FCFAEE",
"L. c #EEEEF2",
"P. c #ECEFFE",
"I. c #ECF2F1",
"U. c #EFF9F1",
"Y. c #E7F3FF",
"T. c #EBF4FA",
"R. c #EFFCFF",
"E. c #F3F5F4",
"W. c #FEF6F4",
"Q. c #F5F9F4",
"!. c #FDFEF5",
"~. c #F5F5FA",
"^. c #FAF6FD",
"/. c #F6FDFE",
"(. c #FEFEFE",
/* pixels */
"(.(.(.(.(.(.(.(.(.(.(.(.(.(.(.^.(.(.!.!.K.!.!.!.!.!.!.(.(.(.(.(.(.(.(.(.(.!.(.!.!.(.!.",
"(.(.(.(.(.(.(.(.(.(.(.(.(.(.(.(.(.(.!.(.(.(.!.(.(.(.(.(.(.(.(.!.!.!.(.!.!.(.~.~././.^.",
"(.(.(.(.(.(.(.(.(.(.(.(.(.(.(.(.^.(.(.(.(.(.(.(.(.(.(./.(.(.!.!.!.!.!.!.(.(./.(.(.(.^.",
"(.(.(.(.(.(.(.(.(.(.(.(.(.(.(.(.(.(.(.(.(.(.(.^.(./././././.(.(.(.(.(.(.(.(.(.(.(.^.^.",
"(.(.(.(.(.(.(.(.(.(.(.(.(.(.(.(.(.(.(.(.^.(.(.(.(./././././.(.(.(.(.(.(.(.(.(.^.~.(.(.",
"(.(.(.(.(.(.(.(.(.(.(.(.(.(.!.(.^.(.(.(.(.(.(.(.(.(.(.(./.!.(.!.!.(.!.(.(.(.(./.(.^.T.",
"(.(.(.(.(.(.(.(.(.(.(.(.(.(.(.(.(.(.(.(.(.(.^.(.(.(.!.!.!.!.!.!.(.!.(.(././.Z.j.a $ . ",
"(.(.(.(.(.(.(.(.(.(.(.(.(.(.(.F.^.(.Q.(.(.^.(.W.!.!.K.!.K.N.K.J././.T.Q 9 $ X = t k M ",
"(.(.(.(.(.(.(.(.(.(.(.(.(.(.F.(.(.Q.(.(.H.(.(.!.!.!.!.!.!.(.(./.n.f   o p l A D J t.%.",
"(.(.(.(.(.(.(.(.(.(.(.(.(.(./.I.S.E.!.!.!.!.!.(.(.S.(.(.S.~.! 2 + 6 n A ] u.y.a.5.9.6.",
"(.(.(.(.(.(.(.(.(.(.(.(.(.(.I.~./.(.H.Q.(.D.Q.~.(.^.(.V.h X : j L  .G J s.f.W 6.E >.E ",
"(.(.(.(.(.(.(.(.(.(.(.(.(.(.(.(.F.F.(.E.E.(.(.R.Y.! ; + , x J H U g.7.f.f.W 7.7.6.6.<.",
"(.(.(.(.(.(.(.(.(.(.(.(.(.(.~.(.E.(.(.E.(.(.C.h @ # i F / K 5.9.2.9.T 6.6.6.E E 6.<.6.",
"(.(.(.(.(.(.(.(.(.(.(.(.(.(.(.(.S.(.(.^.M.f . ; z D #.O.2.9.4.&...q.4.9.Y 6.6.6.6.9.6.",
"(.(.(.(.(.(.(.(.(.(.(.(.(.(.^.(.^.(.v.q . % v ` ( _ 5.9.<.,.X.r.:.:.-.9.T 9.6.6.6.6.9.",
"(.(.Q.(.(.Q.~.(.(.(.(.(.G.!.(.P.x.w + 5 m { t.%.2.4.4.4.<.<.<.8.4.<.<.6.<.<.<.6.6.6.<.",
"~./.(.(.!.(.(.^.~./.I.~.(.Q.l.e X 4 S { +.a.7.6.6.<.<.6.:.<.6.<.6.<.6.<.6.6.6.6.<.6.6.",
"(.(.(.E.S.H.D.(.(.(./.Z.z.1 o 7 N ` [ _ %.9.6.6.6.6.6.<.6.4.6.6.<.6.<.6.6.<.>.6.6.<.<.",
"/.~.(.^.(.(.!.!.(.R.v.8 > r Z ~ [ ^ ) O.4.9.6.6.<.<.6.6.4.4.6.<.<.6.<.6.<.6.6.<.6.<.6.",
"U./.(.W.!.W.!.(.m.3 + r B _ #.@.@.0.0.4.;.>.<.<.6.6.6.7.2.7.6.6.6.<.6.6.6.<.<.6.6.6.<.",
"J.(.(.G.(.^.~.0   > C _ @.0...q.;.;.-.q.e.,.<.<.<.6.4.7.2.7.8.8.6.<.6.<.6.<.<.6.<.6.<.",
"J.!.J.K.(.B.* - v p.i.@.o.;.8.q.-.e.<.1.,.<.<.<.6.<.9.7.7.6.7.8.<.6.<.6.<.6.6.<.6.<.6.",
"J.K.Q.(.c.& 4 C u.+.O.w.w.:.1.9.R q.,.<.q.,.<.<.<.6.6.6.6.6.8.8.<.6.<.6.6.<.<.6.<.6.6.",
"(.A./.k.o 7 ' +.%.2.2.6.4.8.8.7.<.<.<.8.<.<.4.<.<.6.6.6.6.6.8.8.6.<.6.6.<.6.6.<.6.<.<.",
"I./.h.@ k ( _ &.4.6.6.6.6.6.7.7.6.6.6.4.4.6.6.:.6.<.6.<.6.6.6.<.6.<.6.6.<.6.6.6.6.<.<.",
"/.g + m ) =.&.:.<.4.6.6.7.7.W 7.7.3.7.4.2.2.4.4.<.6.<.6.6.>.6.6.<.6.<.6.6.<.<.6.<.6.6.",
"% = V y.P w.:.<.,.<.6.6.7.W 7.d.7.7.3.7.2.7.7.6.6.<.6.<.<.6.<.6.<.6.<.6.<.6.6.<.6.<.6.",
"u D t.3.9.-.<.<.:.6.6.6.7.7.7.7.7.7.7.7.6.7.6.6.6.4.<.6.6.<.6.<.6.<.6.<.6.<.<.6.>.6.<.",
"p.+.%.3.4.6.6.4.6.6.6.6.6.6.6.6.7.7.6.6.6.6.6.6.6.6.6.6.6.<.6.<.6.<.6.6.6.<.<.6.6.6.6.",
"O.O.O.3.2.9.6.6.6.6.6.<.6.<.6.<.6.8.<.6.6.6.6.6.6.6.4.:.4.6.<.6.<.6.<.6.<.6.6.<.6.<.<.",
"2.9.3.o.3.W 7.6.6.6.6.6.6.<.6.<.<.<.<.6.6.6.6.6.6.6.6.4.4.6.6.6.<.6.<.6.6.<.<.6.6.<.6.",
"6.4.4.8.4.6.6.6.6.6.<.<.6.<.>.<.6.6.<.6.<.6.<.6.6.<.6.6.6.<.6.<.6.<.6.<.6.6.6.<.6.6.<.",
"<.6.<.6.6.<.6.<.6.6.6.<.6.6.<.6.6.6.<.6.<.6.<.6.<.6.6.<.<.6.<.<.6.<.6.<.<.6.<.6.6.<.6.",
"6.<.6.<.<.6.<.6.6.<.<.6.6.<.6.<.<.6.6.<.6.<.6.<.6.<.<.6.6.<.6.6.<.6.6.6.6.<.6.<.<.6.<.",
"6.<.6.<.<.6.<.6.<.6.6.<.6.<.6.<.6.<.<.6.6.<.6.6.<.6.6.<.6.6.6.<.<.6.<.6.6.6.6.<.6.6.<.",
"6.6.<.6.6.<.6.6.6.<.<.6.<.6.<.6.<.6.6.<.<.6.<.6.6.<.6.6.<.6.<.6.6.<.6.<.<.6.<.6.<.6.6.",
"<.6.6.6.<.6.6.<.6.<.<.6.6.6.<.6.6.6.<.6.6.<.6.<.<.6.<.6.<.6.6.<.6.<.<.6.6.<.<.6.6.<.<.",
"6.<.<.6.6.<.<.6.<.6.6.<.6.<.6.<.<.6.6.<.6.6.<.6.6.<.6.6.6.<.6.6.<.6.6.<.<.6.6.<.<.6.6.",
"<.6.6.<.<.6.6.<.6.<.<.6.6.<.6.<.6.<.<.6.<.6.<.6.6.<.6.<.6.<.6.>.6.6.<.6.6.6.<.6.6.<.6.",
"6.<.<.6.6.<.<.6.>.6.6.6.<.6.<.6.<.6.6.<.6.<.6.<.<.6.<.6.<.6.<.6.<.6.6.<.<.6.6.<.6.6.<.",
"6.<.6.<.6.6.<.6.6.6.<.6.6.<.6.<.6.<.6.6.<.6.<.6.<.6.<.6.6.<.6.<.6.<.6.6.<.6.<.6.<.6.<."
};
