/* XPM */
static char *tile0041719244618[] = {
/* columns rows colors chars-per-pixel */
"43 43 186 2 ",
"   c #000324",
".  c #000D22",
"X  c #00042B",
"o  c #000D2D",
"O  c #0B152E",
"+  c #121328",
"@  c #000233",
"#  c #00043A",
"$  c #000C38",
"%  c #050C37",
"&  c #02153E",
"*  c #051734",
"=  c #131730",
"-  c #231D3F",
";  c #182A3B",
":  c #21283B",
">  c #282F3F",
",  c #000145",
"<  c #000B42",
"1  c #001440",
"2  c #041A4C",
"3  c #001551",
"4  c #011F51",
"5  c #081E50",
"6  c #071B5A",
"7  c #002145",
"8  c #0C2641",
"9  c #112A40",
"0  c #19274E",
"q  c #172859",
"w  c #242B4E",
"e  c #23224A",
"r  c #001E65",
"t  c #1A276D",
"y  c #073066",
"u  c #163568",
"i  c #103875",
"p  c #2D405E",
"a  c #36415F",
"s  c #3B4356",
"d  c #334077",
"f  c #364969",
"g  c #434C5B",
"h  c #49545A",
"j  c #485D6E",
"k  c #505666",
"l  c #4E6064",
"z  c #66757C",
"x  c #26448D",
"c  c #35548B",
"v  c #304F92",
"b  c #3D4F97",
"n  c #385A99",
"m  c #294CA0",
"M  c #3857A9",
"N  c #2F5DB5",
"B  c #40509D",
"V  c #435A9D",
"C  c #50599E",
"Z  c #757794",
"A  c #4658A4",
"S  c #4262A4",
"D  c #4D6DAA",
"F  c #586CA6",
"G  c #5369B5",
"H  c #4475B0",
"J  c #5174B4",
"K  c #647DB6",
"L  c #3E70DF",
"P  c #3C7AE7",
"I  c #3F7DF4",
"U  c #5C7AC4",
"Y  c #4879D8",
"T  c #4E7BD6",
"R  c #5479DC",
"E  c #587AD6",
"W  c #4A7AC6",
"Q  c #6275C4",
"!  c #4F7FE5",
"~  c #447AED",
"^  c #567CE2",
"/  c #5C7DE1",
"(  c #557AEB",
")  c #4279F7",
"_  c #4C7EF3",
"`  c #4D7DFF",
"'  c #537BF3",
"]  c #547EFD",
"[  c #597DFC",
"{  c #77819C",
"}  c #6583BF",
"|  c #3A84ED",
" . c #4F86C6",
".. c #5F81C0",
"X. c #5F84CA",
"o. c #5788D6",
"O. c #6685CB",
"+. c #6984CB",
"@. c #6A83D6",
"#. c #6688D7",
"$. c #7289D8",
"%. c #7691DE",
"&. c #4F86EC",
"*. c #4D89E9",
"=. c #5C82E3",
"-. c #568BE3",
";. c #5B83EC",
":. c #548CEF",
">. c #5D8FEC",
",. c #5887E7",
"<. c #5290E7",
"1. c #4485F4",
"2. c #4C83F3",
"3. c #448DF4",
"4. c #4C8BF5",
"5. c #4585FB",
"6. c #4C85FD",
"7. c #4689FB",
"8. c #4D8BFC",
"9. c #5486F5",
"0. c #5B86F3",
"q. c #5389F4",
"w. c #5C8BF4",
"e. c #5385FE",
"r. c #5B84FC",
"t. c #5188FF",
"y. c #5B8BFD",
"u. c #4B92FD",
"i. c #5291FF",
"p. c #5C92FE",
"a. c #5F9AFF",
"s. c #529DFF",
"d. c #6384E4",
"f. c #628BEB",
"g. c #6887E8",
"h. c #728EE4",
"j. c #6F90E1",
"k. c #6B91EE",
"l. c #6C8DF2",
"z. c #6088FF",
"x. c #6287F1",
"c. c #708CF7",
"v. c #6792F2",
"b. c #659DFF",
"n. c #6A90FB",
"m. c #9694A1",
"M. c #97A6B9",
"N. c #ACAEAB",
"B. c #B3B0A7",
"V. c #B3B4AC",
"C. c #BABAAE",
"Z. c #ACACB8",
"A. c #B9AFB8",
"S. c #A4B2BF",
"D. c #BDB3B7",
"F. c #B4BBB3",
"G. c #BEB7BE",
"H. c #B9BBB6",
"J. c #C4BCBD",
"K. c #BFC2B7",
"L. c #B6C1BD",
"P. c #C9C3BC",
"I. c #C8CABE",
"U. c #A5A7CD",
"Y. c #ABB2C5",
"T. c #BCBBC9",
"R. c #B3B5C3",
"E. c #BCBCD4",
"W. c #B5B5D3",
"Q. c #C1B3C3",
"!. c #C2BAC4",
"~. c #CBBDC7",
"^. c #C5B9CB",
"/. c #C3BFD3",
"(. c #C3BFE2",
"). c #B7C5C8",
"_. c #A6C1D2",
"`. c #B4C0DA",
"'. c #C2C3C4",
"]. c #C9C1C2",
"[. c #C4C6C9",
"{. c #C5CBC8",
"}. c #D3C9CC",
"|. c #C2C5D1",
" X c #C8C5D7",
".X c #D1C7D0",
/* pixels */
"t.t.t.t.t.t.t.t.t.t.t.t.t.t.t.t.t.t.t.t.t.t.t.t.t.t.t.6.t.t.t.t.t.t.t.t.t.t.t.t.t.t.e.",
"t.t.t.t.t.t.t.t.t.t.t.t.t.t.t.t.t.t.t.t.t.t.t.t.t.t.t.t.t.t.t.t.t.t.t.t.t.t.t.t.t.t.t.",
"t.t.t.t.t.t.t.t.t.t.t.t.t.t.t.t.t.t.t.t.t.t.t.t.t.t.t.t.t.t.t.t.t.t.t.t.t.t.t.t.t.t.t.",
"t.t.t.t.t.t.t.t.t.t.t.t.t.t.t.t.t.t.t.t.t.t.t.t.t.t.t.t.t.t.t.t.t.t.t.6.t.t.t.t.t.t.t.",
"t.t.t.t.t.t.t.t.t.t.t.t.t.t.t.t.t.t.t.t.t.t.t.t.t.t.t.t.t.t.t.t.t.t.t.t.t.t.t.t.t.t.t.",
"t.t.t.t.t.t.t.t.t.t.t.t.t.t.t.t.6.e.t.t.t.t.t.t.t.t.t.t.t.t.t.t.t.t.t.t.t.t.t.t.t.6.t.",
"t.t.t.t.t.t.t.t.t.t.6.t.t.t.t.t.t.t.t.t.t.t.t.t.t.t.t.t.t.t.t.t.t.t.t.t.t.t.t.t.t.t.t.",
"t.t.t.6.t.t.t.t.t.t.t.t.t.t.t.t.t.t.t.t.t.t.t.t.t.6.t.e.t.t.t.t.t.t.t.t.t.t.t.t.t.t.t.",
"t.t.t.t.t.6.t.t.t.t.t.t.t.t.t.t.t.t.t.t.t.t.t.t.t.t.t.t.t.t.t.t.t.t.t.t.t.t.t.t.t.t.t.",
"t.t.t.t.t.t.t.t.t.t.t.t.t.t.t.t.t.t.t.t.t.t.t.t.t.t.t.t.t.t.t.t.t.t.t.t.t.t.t.t.t.t.t.",
"t.t.t.t.t.t.t.t.t.t.t.t.t.t.t.t.t.t.e.t.t.t.t.t.t.t.t.t.t.t.t.t.e.6.t.t.t.t.t.t.t.t.t.",
"t.t.t.t.t.t.t.t.t.t.t.t.t.t.t.t.t.t.t.t.t.t.t.t.t.t.t.t.t.t.t.t.t.t.t.t.t.t.t.t.t.t.6.",
"t.t.t.t.t.t.t.t.t.t.t.t.t.t.t.t.t.t.t.t.t.t.t.t.t.t.t.t.t.t.t.t.t.t.t.t.t.t.t.t.t.t.t.",
"t.t.t.t.t.t.t.t.t.t.t.t.9.t.t.t.t.t.t.t.t.t.t.t.t.t.t.t.t.t.t.t.t.t.t.t.t.t.t.t.t.t.t.",
"t.t.t.t.t.t.t.t.t.t.t.t.8.t.t.t.t.t.t.t.t.t.t.t.t.t.t.t.t.t.t.t.t.t.t.t.t.t.t.t.t.t.t.",
"t.t.e.t.e.6.t.9.t.t.t.t.t.t.8.q.9.9.e.e.t.t.t.t.t.t.t.6.e.t.t.t.t.t.t.t.t.t.t.t.t.t.t.",
"e.e.t.t.t.8.q.4.:.4.t.t.5.8.:.*.*.:.r.y.e.t.t.t.t.t.t.t.t.t.t.t.t.t.t.t.t.t.t.t.t.t.t.",
"e.e.t.t.) 6.w.w.q.y.e.6.7.4.4.q.q.q.r.r.e.t.t.t.t.t.t.t.t.t.t.t.t.t.t.t.t.t.t.t.t.t.t.",
"t.t.t.t.8.e.e.9._ ] ] ` e.t.8.t.e.6.` e.t.t.t.t.t.t.t.t.t.t.t.t.t.t.t.t.t.t.t.t.t.t.t.",
"t.t.8.8.p.t.6.e.y.z.r.r.] e.6.t.t.6.6.6.t.t.t.t.t.t.t.t.t.t.t.t.t.6.t.t.t.t.t.t.t.t.t.",
"4.4.4.4.4.2.6.y.z.[ [ [ [ y.r.6.6.5.8.7.t.t.t.t.t.t.t.t.t.t.t.t.t.t.t.t.t.t.t.t.t.t.e.",
"4.4.4.4.4.4.t.e.[ ( ( g.d.d.0.r.e.6.7.5.t.t.t.t.t.t.t.t.t.t.t.t.e.t.t.t.t.t.t.t.t.t.t.",
"u.4.u.4.4.4.8.9.y.l.#.Q n v M R p.t.7.7.8.t.t.t.t.t.t.t.t.t.t.t.t.t.t.t.t.t.t.t.t.t.t.",
"4.8.8.8.4.u.8.2.0.#.c & * X 3 M f.w.4.u.t.t.t.t.t.t.t.t.t.t.t.t.t.t.t.t.t.t.t.t.t.t.t.",
"5.6.t.7.7.u.5.&.v.X.X ; ).S.0 6 h.,.q.8.t.t.t.t.t.t.6.t.t.t.t.t.t.t.t.t.t.t.t.t.t.t.t.",
"y.p._ y.6.) a.2.k...8 l F.).Z # Q g.r.r.t.t.t.t.t.t.e.t.t.t.t.t.t.t.t.t.t.t.t.t.t.t.t.",
"0.;.( w.t.t.~ ( d.} o h F.'./.X M g.[ e.t.t.t.t.t.t.t.t.t.t.t.t.t.t.t.t.t.t.t.t.t.t.t.",
"^ f.k.=.( ;.n.k.U F   |.J.D. Xe t h.' e.e.t.t.t.t.t.t.t.t.t.t.t.t.t.t.t.6.t.t.t.t.t.t.",
"m U +.$.h.@.@.+.F @ w /.~.J.Q.Z # E x.r.t.t.t.t.t.t.t.t.t.t.t.t.t.t.t.t.t.t.t.t.t.t.t.",
", < 7 q d q @ % 1 w W./.R.}.!.R.X S f.q.t.t.t.t.t.t.t.t.t.t.t.t.t.t.t.t.t.t.t.t.t.t.t.",
"< q p ; = + k g s E.(.Q.Q.~.].[.9 u o.*.6.t.t.t.t.t.t.t.t.t.t.t.t.t.t.t.t.t.t.t.t.t.e.",
"D 4 @ f Y.|.T.T.^.W.^.Q.~.J.[.).l 7  .<.9.t.t.t.t.t.t.t.t.t.t.t.t.t.t.t.t.t.t.t.t.t.6.",
"f.>.N r $ a U.(.E.!.{.V.P.].A.T.`.o H -.q.t.t.t.t.t.t.t.t.t.t.t.t.t.t.t.t.t.t.t.t.t.t.",
"t.w.4.Y v 2 @ @ - m.V.I.P.F..XT.W.1 n -.q.t.t.t.t.t.t.t.t.t.t.t.t.t.t.t.t.t.t.t.t.t.t.",
"t.2.t.b.o.$.Q C % : L.K.K.C.].J. X1 x l.q.t.t.t.t.t.t.t.t.t.t.t.t.t.t.t.t.t.t.t.t.t.t.",
"t.2.2.&.>.T d.$.F   : ).{.H.P.}.Z.X G ^ r.t.t.t.t.t.t.t.t.t.t.t.t.t.t.t.t.t.t.t.t.t.t.",
"w.i.t.q.4.p.;.d.%.K & * M.R.B.P.[.O A / e.t.t.t.t.t.t.t.t.t.t.t.t.t.t.t.t.t.t.t.t.t.6.",
"8.t.t.8.u.| 9.0.T j.O.u @ { '.C.N.O b l.0.t.t.t.8.t.t.t.t.t.t.t.t.t.t.t.t.t.t.t.t.t.t.",
"9.6.6.4.u.| b.L 0.x.R d.M # > {.{.. V / 0.t.t.t.t.t.t.t.t.t.t.t.t.t.t.6.t.t.t.t.t.t.e.",
"8.t.e.t.| s.| b.r.' z.[ c.G   z ).. S ,.9.t.t.t.t.t.t.t.t.t.t.t.t.t.t.t.t.t.t.t.t.t.t.",
"t.t.t.8.4.3.q.e.e.e.] ] r.E u * _.o M w.9.8.t.t.t.t.t.t.t.t.t.t.t.t.t.t.t.t.t.t.t.t.t.",
"t.t.t.8.7.7.9.e.[ e.e.e.r.;.G 1 X y ,.2.t.t.t.t.t.t.t.t.t.t.t.t.t.t.t.t.t.t.t.t.t.t.t.",
"t.t.t.t.8.8.t.e.9.9.t.8.w.&.#.J i W ~ t.6.t.t.t.t.t.t.t.t.t.t.t.t.t.t.t.t.t.t.t.t.t.t."
};
