/* XPM */
static char *tile0401719244617[] = {
/* columns rows colors chars-per-pixel */
"43 43 40 1 ",
"  c #5188FF",
". c #5188FD",
"X c #5386FF",
"o c #5187FF",
"O c #5088FF",
"+ c #5387FF",
"@ c #5485FF",
"# c #5584FF",
"$ c #5784FF",
"% c #5486FF",
"& c #5783FF",
"* c #5585FF",
"= c #5586FF",
"- c #5487FC",
"; c #5387FD",
": c #5189F8",
"> c #4E8AFC",
", c #4E8CF3",
"< c #4D8AFD",
"1 c #4C8CFA",
"2 c #4D8DF1",
"3 c #4C89FE",
"4 c #4A8CFA",
"5 c #4C8EEF",
"6 c #4C88FF",
"7 c #4B8AFB",
"8 c #4C86FF",
"9 c #4C8CF0",
"0 c #4E84FF",
"q c #4F86FF",
"w c #4F8AF2",
"e c #5182FF",
"r c #5183FF",
"t c #5088F5",
"y c #5184FF",
"u c #5287F9",
"i c #4F88FC",
"p c #4F87FE",
"a c #5087FE",
"s c white",
/* pixels */
"                                           ",
"                                           ",
"                                           ",
"                                           ",
"                                           ",
"                                           ",
"                                           ",
"                                           ",
"                                           ",
"                                           ",
"                                        ...",
"                                        ...",
"                                        ...",
"                                        ...",
"                                        ...",
"                                        ...",
"                                        ...",
"                                        ...",
"                                        ...",
"                                        ...",
"                                        ...",
"                                        ...",
"                                        ...",
"                                        ...",
"                                        ...",
"                                          .",
"                                        XoO",
"                                       oXX ",
"                                       +@@+",
"                                       +#$%",
"                                       +&$*",
"                                       +*$=",
"                                       +%%-",
"                                        +;:",
"                                        O>,",
"                                       O<12",
"                                       O345",
"                                       O675",
"                                       O839",
"                                       o0qw",
"                                       oert",
"                                       oryu",
"                                        ipa"
};
