/* XPM */
static char *tile0411719244616[] = {
/* columns rows colors chars-per-pixel */
"43 43 221 2 ",
"   c #020405",
".  c #00030E",
"X  c #000314",
"o  c #00031D",
"O  c #010B1C",
"+  c #080F15",
"@  c #021019",
"#  c #000223",
"$  c #020D23",
"%  c #00022C",
"&  c #010B2A",
"*  c #001624",
"=  c #01132B",
"-  c #0A142B",
";  c #000332",
":  c #000D36",
">  c #00033A",
",  c #000D3C",
"<  c #01143A",
"1  c #121B24",
"2  c #12212D",
"3  c #162436",
"4  c #242C3C",
"5  c #2B333A",
"6  c #000242",
"7  c #000943",
"8  c #000D4A",
"9  c #00054B",
"0  c #001245",
"q  c #00154D",
"w  c #0A1945",
"e  c #000D54",
"r  c #001456",
"t  c #192A46",
"y  c #0C2656",
"u  c #132558",
"i  c #1C3146",
"p  c #2D3746",
"a  c #353D4B",
"s  c #283753",
"d  c #323C5F",
"f  c #001B64",
"g  c #082766",
"h  c #112D6C",
"j  c #1D3776",
"k  c #0C3073",
"l  c #25396C",
"z  c #223E7D",
"x  c #344458",
"c  c #28405C",
"v  c #26456A",
"b  c #3C4A68",
"n  c #2B477A",
"m  c #414F58",
"M  c #404D60",
"N  c #4D5E76",
"B  c #525A6C",
"V  c #50626E",
"C  c #586477",
"Z  c #636F6F",
"A  c #70777C",
"S  c #61807B",
"D  c #143387",
"F  c #164499",
"G  c #2B4688",
"H  c #33528B",
"J  c #2D5092",
"K  c #35529C",
"L  c #3959A7",
"P  c #345FBD",
"I  c #3C61B1",
"U  c #475C87",
"Y  c #485998",
"T  c #4A608F",
"R  c #536C87",
"E  c #4E629F",
"W  c #5A6D92",
"Q  c #435FB2",
"!  c #4C6AA8",
"~  c #5369A8",
"^  c #4E69B1",
"/  c #4563B9",
"(  c #526CBC",
")  c #597CBD",
"_  c #5970A4",
"`  c #6879A9",
"'  c #757AA8",
"]  c #6B79BB",
"[  c #3F7EEF",
"{  c #3F76F7",
"}  c #4F79C1",
"|  c #587ACA",
" . c #496DDF",
".. c #4973D3",
"X. c #4C7CDD",
"o. c #557CDC",
"O. c #5B7DDC",
"+. c #577AD3",
"@. c #4769C8",
"#. c #627FC5",
"$. c #677FDF",
"%. c #4B7CE5",
"&. c #4B7AEA",
"*. c #4678EA",
"=. c #5B7CE3",
"-. c #537CEE",
";. c #577CE6",
":. c #457BF4",
">. c #4B7DF4",
",. c #4D7DFB",
"<. c #467BFB",
"1. c #557DF5",
"2. c #557FFD",
"3. c #5A7DF3",
"4. c #768487",
"5. c #6988BB",
"6. c #3F80F8",
"7. c #5F82C6",
"8. c #4D82DE",
"9. c #5481D7",
"0. c #5C84D3",
"q. c #5C84DC",
"w. c #5C8ADD",
"e. c #5383DC",
"r. c #6283CE",
"t. c #6686C9",
"y. c #708ECE",
"u. c #6283D2",
"i. c #618BD3",
"p. c #6383DC",
"a. c #6C8FDD",
"s. c #6787D9",
"d. c #6892DB",
"f. c #7790D9",
"g. c #4F85E5",
"h. c #4584EC",
"j. c #4C84EB",
"k. c #4C8DEE",
"l. c #5383E3",
"z. c #5A84E3",
"x. c #5F89E3",
"c. c #5384ED",
"v. c #5A84EB",
"b. c #538AEE",
"n. c #5C8DEA",
"m. c #5788E5",
"M. c #5E91E2",
"N. c #4584F4",
"B. c #4D85F4",
"V. c #4D8CF4",
"C. c #4584FE",
"Z. c #4D85FD",
"A. c #478DFD",
"S. c #4D8AFC",
"D. c #5285F4",
"F. c #5B84F3",
"G. c #538AF5",
"H. c #5B8CF3",
"J. c #5386FE",
"K. c #5A84FD",
"L. c #5189FE",
"P. c #5A8CFD",
"I. c #4A91FF",
"U. c #5591F5",
"Y. c #5C92F4",
"T. c #5491FE",
"R. c #5C92FD",
"E. c #5A9AFF",
"W. c #6383E0",
"Q. c #638BE5",
"!. c #6A8CE4",
"~. c #658BEB",
"^. c #6688EA",
"/. c #6591E6",
"(. c #7699EE",
"). c #7795E8",
"_. c #6286F3",
"`. c #648DF5",
"'. c #6A8CF4",
"]. c #6287FD",
"[. c #628CFE",
"{. c #6C8EFB",
"}. c #6393FE",
"|. c #6994F9",
" X c #8A8DA0",
".X c #9296B3",
"XX c #9DAAB9",
"oX c #8EA3A4",
"OX c #A6B0B3",
"+X c #ABC1BF",
"@X c #9CAAC4",
"#X c #ABB5D2",
"$X c #85A2E6",
"%X c #AFB1E1",
"&X c #B8CAD3",
"*X c #CFD6D9",
"=X c #D1D6F0",
"-X c #DCE5EA",
";X c #DFF0F8",
":X c #D3E4FE",
">X c #E3EAEC",
",X c #E7E9E9",
"<X c #FDEFEF",
"1X c #EDF3EB",
"2X c #EAF5EE",
"3X c #F6F5EB",
"4X c #FAFFEF",
"5X c #F6F2EB",
"6X c #E9ECF7",
"7X c #F5EAF8",
"8X c #ECF3FD",
"9X c #EDFDFF",
"0X c #E6F4F7",
"qX c #F3F3F2",
"wX c #F6FDF3",
"eX c #FCFEF4",
"rX c #F2F3FE",
"tX c #FEF5FC",
"yX c #F5FEFD",
"uX c #FDFDFE",
"iX c #FAF0F1",
/* pixels */
"L.L.L.L.L.L.L.L.L.Z.L.L.L.J.L.J.J.L.J.L.L.J.L.Z.L.J.L.J.Z.S.S.S.V.V.V.L.L.Z.S.S.Z.G.J.",
"L.L.L.L.Z.L.L.L.L.L.L.L.L.L.L.J.L.L.L.L.L.L.J.L.J.L.L.L.L.Z.S.S.G.G.G.L.L.Z.Z.Z.S.V.B.",
"L.Z.L.L.L.L.L.L.L.L.L.Z.L.Z.L.S.L.L.L.L.L.J.P.L.<.Z.L.Z.L.L.S.B.R.b.&.[.J.Z.Z.S.V.V.G.",
"L.L.L.L.L.L.Z.L.L.L.L.J.J.J.G.J.J.L.L.L.L.C.Z.J.P.R.P.J.J.C.Z.P.m.'.v.1.K.Z.Z.S.V.k.G.",
"L.L.L.L.L.L.L.L.L.L.L.L.L.L.G.L.Z.L.L.Z.L.L.L.J.J.P.G.j.P.P.D.o.o.s.Q.&.[.J.S.S.V.V.b.",
"L.L.L.Z.J.Z.L.L.Z.L.L.L.L.L.S.S.L.L.L.L.J.J.L.J.D.L.L.G.R.&.|.I J j u.{.1.Z.Z.S.V.k.k.",
"L.Z.L.J.L.L.L.L.L.L.L.L.J.V.S.L.Z.S.L.L.L.>.J.L.j.D.b.j.g.Q.L > y % 9 $.].2.Z.V.k.k.k.",
"L.L.L.L.L.Z.L.L.L.L.L.L.S.L.S.L.L.L.L.L.L.Z.P.J.j.c.H.Y.n.i.j y 9X:X, ( ;.K.S.V.k.k.V.",
"L.L.L.J.L.L.L.L.L.Z.L.L.L.S.S.L.S.Z.L.L.L.J.G.B.G.Y.j.8.w.7.v * 9X&Xo ~ ^.K.S.V.k.k.V.",
"L.L.L.Z.S.L.L.L.L.L.L.L.L.S.S.S.L.L.L.L.S.L.Z.S.R.X.F g q v s   yXOX- Y s.v.L.V.V.V.V.",
"Z.L.L.L.J.L.L.L.L.L.L.L.S.S.S.Z.L.J.J.L.S.S.S.T.D.p.8 < m 4     uXtX4 u #.~.H.B.S.I.S.",
"L.L.L.L.L.J.S.L.L.Z.J.L.S.S.S.L.L.K.J.Z.S.S.S.C.D.(.u $ uXuXeXuX,XuX#X; ] W.H.Z.Z.S.P.",
"L.L.L.L.L.J.L.J.L.L.S.J.L.V.S.L.J.K.J.L.L.T.[ P.F.} l a uXyXuXuX2X8XyX0 g q.G.S.C.C.L.",
"L.L.L.J.J.S.L.Z.J.L.L.J.S.S.S.J.J.K.K.H.G.S.L.T.-.$.8 B uXuX-XuXuXyX0XU q 9.V.S.A.C.S.",
"J.L.L.S.L.S.J.L.Z.L.L.L.L.S.L.L.K.J.K.D.L.Z.L.D.;.(.e R 8XyX-XyX1X>XyX= n w.D.L.L.C.V.",
"Z.J.L.J.L.L.L.G.J.L.S.J.L.S.L.L.J.K.K.G.G.L.>.J._.s.l b 9X6XuXuXeXyXZ o 5.d.c.P.P.B.H.",
"L.L.S.J.L.L.L.L.L.L.L.S.S.L.L.L.J.K.J.J.G.S.R.J.3.~.G , 9XuXrX6XuXeXOXO l r.z.K.K.3.~.",
"L.L.J.L.L.L.L.L.L.L.L.S.L.L.Z.Z.J.J.J.L.L.S.N.P.J.~.| > : # .XuXuXuXwX@X> ( ;.].F.=.!.",
"Z.L.L.L.L.B.L.J.Z.J.L.P.L.L.P.{ C.Z.R.Z.N.S.L.L.K.`.O.L j l % # 3 $ o E 6 D ].].&.{.W.",
"L.L.L.L.L.Z.J.L.S.J.P.L.Z.:.Z.L.P.Z.P.N.T.L.L.C.<.D.H.w.( r.$X~ n T y y k -.D.J.K.F.^.",
"L.V.L.L.L.P.S.Z.L.P.L.L.S.R.L.P.Z.<.L.h.V.B.S.L.,.L.P.Y.n.8.8.d.0.0.0.q.Y.S.C.T.P.*.F.",
"L.J.J.L.S.P.L.L.L.L.Z.Z.L.%.%.D.P.J.J.G.j.h.J.J.L.Z.B.B.h.E.h.U.`.%.Y.G.L.L.I.C.C.Z.}.",
"S.J.J.S.L.Z.L.B.Z.Z.N.J.P.~.~.F.}.P.%.Y.b.c.G.J.,.Z.Z.V.U.6.I.6.L.J.P.:.Z.6.V.C.E.}.X.",
"L.L.L.J.L.B.L.L.J.S.P.J.P.~.+.;.v.v.X.n.8.n.G.J.2.Z.S.I.I.A.I.N.E.>.,.P.Z.T.T.j.g...q.",
"J.L.L.L.L.Z.P.P.J.L.R.L.%.L J $.^.n.M.M./.z.v.K.J.J.L.Z.N.6.E.V.P.K.K.1.[.F.m.M./.| f.",
"L.S.S.L.L.Z.P.L.2.J.L.%.P e 6 E D 9 r k ) w.v.1.2.J.Z.L.V.U.k.U.J.K.].^.O.!.r.t.E y > ",
"S.V.V.V.S.S.S.P.>.-.'.p.g , % ` U # C @ v w.%.K.K.<.L.L.b.k.h.S.P.:._.( Y #.] U $ i XX",
"S.V.V.V.V.Z.:.J.D.{.p.#.q # & ' d X oXS * i._.,.,.J.P.j.Y.g.G.R.Z.D...6 , > ' & V 9XyX",
"J.V.G.V.S.R.P.[._.$.t._ # #X- # o A 9XOXX 5.u.].K.J.P.%.U.}.V.S.C.J.@.q #Xw % - ;X9X0X",
"J.L.G.G.G.D.&.;.p.r 0 & a 8X*XX p tXyXyXO v h / _.3.D.c.H.j.V.L.Z.|.W.y u %X# 4 yXyXyX",
"L.G.G.G.F.[._.p.L > N V *X8XuXuX6XtXuX>X1 * w 9 +.`.P.}.*.P.L.L.>.K.(.` # =XrX8X0X-XuX",
"L.D.G.J.K.-.'.s.8 W yXwXyXuXqXuXuXtXuXuX>X6XyX7 G O.v.R.c.P.D.L.P.F.| W X =XyXyXyXyXyX",
"G.G.J.K.K.K.=.t.> =XyXwXeXuXeX5XuXuX7XuXtXqXyXx q !._.G.B.*.P.J.2.`.r.t 4 uXrXuX2XuXuX",
"G.G.L.J.K.].=.^ ; yXyXuXeXyXeX4X3XuXuX7XuXeX3XOX% a.v.c.P.J.R.Z.>.`.^ X ,XuXuXeXeXyXwX",
"V.V.G.L.2.].o.^ ; yX8XuXuXuXyXeXeXuXuXtXtXeX4X2X* L z.G.>.P.:.P.R...G 2 wXuXuXeXwXyXyX",
"j.V.Z.J.2.K.=.t.% x uXuXuXuXyXeXyXuXuXuXuX5XeXuXV q p.b.G.B.[.B.>.`.n 3 uXuXuX4X4XwXuX",
"k.k.S.L.J.K.=.y.W O 5 uXuXuXuXwXyXyXyXuXuXeXeX1XXX% d.n.G.D.}.:.D./.H 2 wXtXtXeXeXwXuX",
"k.k.S.L.J.2.o.5.d O + rXuXuXuXyXyXyXyXuXuXtXeXeX>X= H 9.H.D.P.S.R.o.y p 3XuXuXeXwXyXuX",
"k.k.G.J.2.].^., * 4.,XtX7XuXyXuXwXyXyXuXuXtXiXuXuX3 : r.z.%.H.G.g.x.7 m eXuXtXeX4XyXyX",
"k.k.G.J.K. .).% &X2XuXuXuXuXeXyXyXyXyXuXuXuXiX<XuX5 # f.q.m.j.H.g.!.H @ 1XuXuXeXwXwXuX",
"b.b.D.K.2.{.^ : 9XwXeXuX7XtXeXtXeXwXwXeXuXtXtXtXeXA $ E 0.M.g.c.H.9._ . ,XuXuXeXeXyXuX",
"G.b.J.K.].;.Q & ;XeX4XtXtXtXeXuXyXwXwXeXuXtXuX<XeXuXa , n ) d.0.i.! : a uXuXuXuXeXyXuX",
"J.D.K.K.2.3.@.> 9X2XeXtXtXtXuXuXuXuXeXuXuXqXuXuXtXuXuX X- # i b 3 X B *XuXuXuXuXuXuXuX"
};
