/* XPM */
static char *tile0421719244616[] = {
/* columns rows colors chars-per-pixel */
"43 43 190 2 ",
"   c #000308",
".  c #00011B",
"X  c #06081F",
"o  c #030615",
"O  c #081D1E",
"+  c #000324",
"@  c #00022C",
"#  c #000B2C",
"$  c #001427",
"%  c #0E1728",
"&  c #09192D",
"*  c #14132C",
"=  c #000536",
"-  c #000A35",
";  c #00053E",
":  c #000B3B",
">  c #021235",
",  c #0F1B35",
"<  c #131C3B",
"1  c #162A2B",
"2  c #030C42",
"3  c #02084B",
"4  c #011443",
"5  c #001847",
"6  c #00154F",
"7  c #001C4B",
"8  c #052148",
"9  c #0E274F",
"0  c #1B2147",
"q  c #1D324F",
"w  c #012258",
"e  c #0A2655",
"r  c #142F54",
"t  c #163055",
"y  c #1D3655",
"u  c #2B3E45",
"i  c #383B44",
"p  c #203D5B",
"a  c #182E60",
"s  c #142C72",
"d  c #1D3D7A",
"f  c #203B68",
"g  c #283C6F",
"h  c #212D77",
"j  c #223E70",
"k  c #3C406D",
"l  c #2E4072",
"z  c #2F4B7B",
"x  c #44555F",
"c  c #404D60",
"v  c #415160",
"b  c #445A68",
"n  c #506568",
"m  c #5D6773",
"M  c #5B7071",
"N  c #666674",
"B  c #617077",
"V  c #234489",
"C  c #30428A",
"Z  c #2E4996",
"A  c #3A4B91",
"S  c #325692",
"D  c #3F5CA2",
"F  c #3D64B3",
"G  c #405D95",
"H  c #565A8A",
"J  c #637080",
"K  c #6E7780",
"L  c #69758F",
"P  c #70769A",
"I  c #5C7AAC",
"U  c #5975BB",
"Y  c #4768B0",
"T  c #637DB8",
"R  c #3D77DA",
"E  c #3E7CED",
"W  c #4D78C7",
"Q  c #4E78CC",
"!  c #5476C0",
"~  c #5D7CDC",
"^  c #527AD5",
"/  c #497AD6",
"(  c #6471C5",
")  c #6B79C4",
"_  c #667CD2",
"`  c #467AE7",
"'  c #4F7FE3",
"]  c #457EEF",
"[  c #487AED",
"{  c #5F7BE8",
"}  c #457CF1",
"|  c #4D7EFF",
" . c #4777F6",
".. c #537DF9",
"X. c #5D7EF6",
"o. c #6581B0",
"O. c #6788BD",
"+. c #4582DD",
"@. c #5B87D5",
"#. c #6986C7",
"$. c #6188CA",
"%. c #6385CD",
"&. c #6285DC",
"*. c #658BDC",
"=. c #6285D6",
"-. c #7388D7",
";. c #6591D8",
":. c #4C8DE6",
">. c #4D83EE",
",. c #4D8DEB",
"<. c #4582E7",
"1. c #5C83E0",
"2. c #5787EB",
"3. c #5B87EA",
"4. c #518DEE",
"5. c #598EEE",
"6. c #5B8BE3",
"7. c #5393EB",
"8. c #478BF3",
"9. c #4C8AF1",
"0. c #4683FA",
"q. c #4E85FD",
"w. c #478BF8",
"e. c #4A89FD",
"r. c #4881F3",
"t. c #5385F5",
"y. c #528AF5",
"u. c #598AF6",
"i. c #5386FE",
"p. c #5B85FC",
"a. c #5188FF",
"s. c #598CFF",
"d. c #5B83F2",
"f. c #4C90F5",
"g. c #5692FD",
"h. c #5992FD",
"j. c #5F9AFF",
"k. c #5795F3",
"l. c #6E86E6",
"z. c #6989E2",
"x. c #6981EF",
"c. c #648AE8",
"v. c #738DE6",
"b. c #7184E0",
"n. c #6993EE",
"m. c #7593EC",
"M. c #668CF4",
"N. c #6085F8",
"B. c #648FFF",
"V. c #6990F5",
"C. c #6698FB",
"Z. c #9CA2BC",
"A. c #97A9AB",
"S. c #A9A8AE",
"D. c #A3ACBD",
"F. c #9BA1C1",
"G. c #AEBAC8",
"H. c #B8B7C7",
"J. c #BCBACF",
"K. c #B9C2E7",
"L. c #C9CCDD",
"P. c #CFD0D5",
"I. c #D4D5D7",
"U. c #D7D5E2",
"Y. c #D5DFE9",
"T. c #DEEFFF",
"R. c #E1E8EE",
"E. c #F6EDEE",
"W. c #EFF1EE",
"Q. c #F0F7E5",
"!. c #F1FAE7",
"~. c #F4F5E9",
"^. c #F9F4EC",
"/. c #F5FDED",
"(. c #FCFDEE",
"). c #EDEDF7",
"_. c #E8EEFA",
"`. c #E7ECF7",
"'. c #F5EFF3",
"]. c #F8EFF2",
"[. c #E3F3FF",
"{. c #EEF6FF",
"}. c #F4F4F4",
"|. c #FBF6F4",
" X c #F5FEF3",
".X c #FDFEF4",
"XX c #F5F4FD",
"oX c #FBF6FD",
"OX c #F6FEFE",
"+X c #FEFFFF",
/* pixels */
"i.i.a.a.a.a.a.a.a.a.a.a.a.a.a.a.a.i.s...V.%.8 b OX X+X|.XXXX+X}..X.X+X+X+X+X+X+X+X+X+X",
"i.i.i.a.a.a.a.a.a.a.a.a.a.q.a.a.a.a.| B.1.#.# A. X!..X~.+XoXXXoX+X~.+X+X+X+X+X+X+X+X+X",
"i.i.i.a.a.a.a.a.a.a.a.q.a.a.a.a.i.i.i. .n.G $ OX!.(..X+X+X+X+X+X.X.X+X+X+X+X+X+X+X+X+X",
"y.i.i.i.a.a.a.a.a.a.a.a.a.a.a.a.a.i.i.p.@.l &  X.X(.+X+XOXOX+XOX+X+X+X+X+X+X+X+X+X+X+X",
"y.p.i.a.a.a.a.a.a.a.a.a.a.a.a.a.a.i.q.p.z.e c +X.X^..X+X+XOX+XOX+X+X+X+X+X+X+X+X+X+X+X",
"i.i.i.a.a.a.a.a.a.a.a.a.a.a.a.a.a.i.a.r.*.5 J OX.X^.+X+XOX+X.X+XoX+X+X+X+X+X+X+X+X+X+X",
"i.p.i.a.a.a.a.a.a.a.a.a.a.a.a.a.q.q.g.t.@.7 v +XoX+X+X+X X.X XOX+X+X+X+X+X+X+X+X+X+X+X",
"i.i.a.a.q.a.a.a.q.i.a.a.a.a.a.a.a.a.0.g.@.z , +XoX+X+XOX X X/.+X+X+X+X+X+X+X+X+X+X+X+X",
"i...i.a.a.a.a.a.a.a.a.a.a.a.a.a.a.a.0.,.;.I # J.+XoX+XoX X/. X.X+XoX+X+X+X+X+X+X+X+X+X",
"..i.i.i.a.a.a.a.a.i.i.i.i.a.a.a.a.q.g.R ;.o.o N +XoX+X+X X X X.X+X+X+X+X+X+X+X+X+X+X+X",
"q.i.q.s.q.h.y.} s.p.i.i.i.y.y.s.a.a.] C.$.t * S.oX+X+XOXOX X+X.X+XoX+X+X+X+X+X+X+X+X+X",
"i.s.q. .} y.h.h.q.q.i.i.y.y.9.y.a.a.s.Q Y > B +X+XoXoX+XOXOX X+XoX+X+X+X+X+X+X+X+X+X+X",
"s.y.h.a.j.<.+.k.,.k.,.,.,.,.,.y.a.a.u.@.w q `..XE.+X+XOXOXOX+X+X+X.X+X+X+X+X+X+X+X+X+X",
"y.>.` >.k.4.4.7.:.:.:.:.:.:.9.y.a.y.' F : [.OX+X+X].+XoXOXOX+X.XoXoX+X+X+X+X+X+X+X+X+X",
"5.6.C.y.` s.h.<.8.8.8.8.e.e.e.a.i.t.n.V @ [.+X(.|.+X+X+XOX X.X+X+X+X+X+X+X+X+X+X+X+X+X",
"c.W Q n.3.u.r.r.g.8.w.e.e.e.a.a.y.3.@.T + m }..XoX|.+X+XOX+X X+X+X+X+X+X+X+X+X+X+X+X+X",
"! d 2 S *.c.t.s.g.E w.e.q.i.i.2.@.$.#.l & R.+X(.^.+XoX+X+X.X+X.X+X+X+X+X+X+X+X+X+X+X+X",
"D = 9 f U z.M.p.[ s.q.i.i.i.d.@.$.#.g @ D.+X~.(..XoX+X+XOX+X.X+X+X+X+X+X+X+X+X+X+X+X+X",
"Z 6 [.= A l.X.{ N.B.p...p.X.{ m.U a - Z.OX|.(.(.(.+X+XoX+X+X.X+X+X+X+X+X+X+X+X+X+X+X+X",
"Y 3 K.P ; s ( v.*.&.m.~ { l._ C 4 # K.oX+X^.(..X|.|.+X+X+X.X.X.X+X+X+X+X+X+X+X+X+X+X+X",
"c.s < `.Z.0 + > p p + 9 t 5 - > L OXoX+XoX~.(.(.|.+X+X+X.X.X.X+XOX+X+X+X+X+X+X+X+X+X+X",
"M.U + N OX_.Y.B 1 O M n u v G.XX{.oXXXXX.X.X.X!..X+X+X+X.X.X.X.X+XOX+X+X+X+X+X+X+X+X+X",
"~ -.g * +XXX+XOXOXOXOXOX XOXOXOXXX+X+X+X+X.X(..XOXoXOX+X.X.X.X.XOX+X+X+X+X+X+X+X+X+X+X",
"v.) H * H.+X+X+XOXOX+X|..X.X+XXX+X+XXXXX/././..XOXXX+X+X+X.X.X.X+X+X+X+X+X+X+X+X+X+X+X",
") 3 0 X i +X}.+X+XXXoX+X|..X.X.XOXXXoX+X+X.X/./.OXOXOX+X+X.X.X.X+XOX+X+X+X+X+X+X+X+X+X",
"2 @ . o   +XW.}.+X+X+X+X.X^..X.X}.+X+X+X X!. X+XOXOX+X+X.X.X.X.X+X+X+X+X+X+X+X+X+X+X+X",
"L.U.'.P.I.oX+X}.}.+X+X+X+X+X+X.X+X+X+X+X+X+X+X+X+X+X+X+X+X+X+X+X+X+X+X+X+X+X+X+X+X+X+X",
"].+X+X).}.+X+X+XoX+X+X+X+X+X+X+X+X+X+X+X+X+X+X+X+X+X+X+X+X+X+X+X+X+X+X+X+X+X+X+X+X+X+X",
"+X^.+X+X+X+XoX+X+X+X+X+X+X+X+X+X+X+X+X+X+X+X+X+X+X+X+X+X+X+X+X+X+X+X+X+X+X+X+X+X+X+X+X",
"}.+X}.oX+X+X}.+X+X+X+X+X+X+X+X+X+X+X+X+X+X+X+X+X+X+X+X+X+X+X+X+X+X+X+X+X+X+X+X+X+X+X+X",
"|.|.+X+X+X+X|.+X+XoX+X+X+X+X+X+X+X+X+X+X+X+X+X+X+X+X+X+X+X+X+X+X+X+X+X+X+X+X+X+X+X+X+X",
"+X+X+X}. X+X+X+X+X+X+X+X+X+X+X+X+X+X+X+X+X+X+X+X+X+X+X+X+X+X+X+X+X+X+X+X+X+X+X+X+X+X+X",
"'.oXoX|.oX+X+X+X+X+X+X+X+X+X+X+X+X+X+X+X+X+X+X+X+X+X+X+X+X+X+X+X+X+X+X+X+X+X+X+X+X+X+X",
"oX+X+X+X+X+X X+X+X}.+X+X+X+X+X+X+X+X+X+X+X+X+X+X+X+X+X+X+X+X+X+X+X+X+X+X+X+X+X+X+X+X+X",
"oX+X+X+X+X+X+X+X+X+X+X+X+X+X+X+X+X+X+X+X+X+X+X+X+X+X+X+X+X+X+X+X+X+X+X+X+X+X+X+X+X+X+X",
"+XoX+X+X+X+X+X+X+X+X+X+X+X+X+X+X+X+X+X+X+X+X+X+X+X+X+X+X+X+X+X+X+X+X+X+X+X+X+X+X+X+X+X",
"oXoX+X+X+X+X+X+X+X+X+X+X+X+X+X+X+X+X+X+X+X+X+X+X+X+X+X+X+X+X+X+X+X+X+X+X+X+X+X+X+X+X+X",
"oX+X+X+X+X+X+X+X+X+X+X+X+X+X+X+X+X+X+X+X+X+X+X+X+X+X+X+X+X+X+X+X+X+X+X+X+X+X+X+X+X+X+X",
"+X+X+X+X+X+X+X+X+X+X+X+X+X+X+X+X+X+X+X+X+X+X+X+X+X+X+X+X+X+X+X+X+X+X+X+X+X+X+X+X+X+X+X",
"+XoX+X+X+X+X+X+X+X+X+X+X+X+X+X+X+X+X+X+X+X+X+X+X+X+X+X+X+X+X+X+X+X+X+X+X+X+X+X+X+X+X+X",
"+X+X+X+X+X+X+X+X+X+X+X+X+X+X+X+X+X+X+X+X+X+X+X+X+X+X+X+X+X+X+X+X+X+X+X+X+X+X+X+X+X+X+X",
"oX+X+X+X+X+X+X+X+X+X+X+X+X+X+X+X+X+X+X+X+X+X+X+X+X+X+X+X+X+X+X+X+X+X+X+X+X+X+X+X+X+X+X",
"+X+X+X+X+X+X+X+X+X+X+X+X+X+X+X+X+X+X+X+X+X+X+X+X+X+X+X+X+X+X+X+X+X+X+X+X+X+X+X+X+X+X+X"
};
