/* XPM */
static char *tile0431719244616[] = {
/* columns rows colors chars-per-pixel */
"43 43 66 1 ",
"  c white",
". c #FFFFFB",
"X c #FEFFF6",
"o c #F9FBF0",
"O c #FFFFFA",
"+ c #F9F8F6",
"@ c #FFFFFD",
"# c #FCFFF6",
"$ c #F5F8EF",
"% c #FCFAFB",
"& c #FEFFFB",
"* c #FDFFFA",
"= c #F8F6FB",
"- c #FEFFFF",
"; c #FAFFFB",
": c #FDFFFE",
"> c #FFFEFF",
", c #F6F3FA",
"< c #F9FDFC",
"1 c #F9FDFE",
"2 c #F7F4FD",
"3 c #F7FBFA",
"4 c #FBF8FF",
"5 c #FEFFFD",
"6 c #FCFFFB",
"7 c #F6FBF7",
"8 c #FBFFF9",
"9 c #F8FDF6",
"0 c #F7FFF4",
"q c #FBFFF8",
"w c #FBFDF8",
"e c #FEFFFA",
"r c #F5FBED",
"t c #FCFFF4",
"y c #FAFCF9",
"u c #F9F9F9",
"i c #FEFFF0",
"p c #FEFFF2",
"a c #FEFDFF",
"s c #FEFCFF",
"d c ivory",
"f c #FFFFF3",
"g c #FFFFF5",
"h c #FFFFF7",
"j c #FFFEFA",
"k c #FFFEFC",
"l c #FEFEFF",
"z c #FEFEFE",
"x c #FEFEFC",
"c c #FEFFF5",
"v c #FDFFF5",
"b c #FDFFEE",
"n c #FDFFF2",
"m c #FDFFE9",
"M c #FFFDFF",
"N c #FCFFE2",
"B c #FDFFEC",
"V c #FFFDFE",
"C c #FEFFEE",
"Z c #FCFFE6",
"A c #FEFFF3",
"S c #FDFFED",
"D c #FEFFF7",
"F c #FFFCFF",
"G c #FDFEF8",
"H c #FDFEF9",
/* pixels */
"                                      .XoO+",
"                                      @#$@%",
"                                      @&* =",
"                                      -;:>,",
"                                      -<1>2",
"                                      -;3>4",
"                                      567->",
"                                      589: ",
"                                      50qwe",
"                                      &rtyu",
"                                      Oipas",
"                                      Odfas",
"                                      .ghas",
"                                      @jkla",
"                                       aazx",
"                                       saec",
"                                      >savb",
"                                      >sanm",
"                                      >MabN",
"                                      >MlBN",
"                                       MzBN",
"                                       MVCZ",
"                                       MMAS",
"                                       MMDn",
"                                       MFxG",
"                                       MFzH",
"                                          @",
"                                           ",
"                                           ",
"                                           ",
"                                           ",
"                                           ",
"                                           ",
"                                           ",
"                                           ",
"                                           ",
"                                           ",
"                                           ",
"                                           ",
"                                           ",
"                                           ",
"                                           ",
"                                           "
};
