/* XPM */
static char *tile0441719244616[] = {
/* columns rows colors chars-per-pixel */
"43 43 174 2 ",
"   c #000407",
".  c #00041D",
"X  c #000322",
"o  c #00032C",
"O  c #000B2B",
"+  c #061326",
"@  c #111E2F",
"#  c #000233",
"$  c #000C36",
"%  c #00043D",
"&  c #010E3A",
"*  c #001136",
"=  c #01163B",
"-  c #051A35",
";  c #0B203B",
":  c #3B453D",
">  c #000B41",
",  c #000D49",
"<  c #011F45",
"1  c #001048",
"2  c #02194D",
"3  c #001350",
"4  c #001758",
"5  c #0F264F",
"6  c #1C2A4D",
"7  c #132853",
"8  c #1C315E",
"9  c #2C364F",
"0  c #243456",
"q  c #153367",
"w  c #1F2E73",
"e  c #1F3E7E",
"r  c #243C62",
"t  c #223B71",
"y  c #3A475A",
"u  c #26407B",
"i  c #4F5666",
"p  c #49586B",
"a  c #44546D",
"s  c #47567D",
"d  c #586576",
"f  c #536879",
"g  c #1B3B86",
"h  c #34529B",
"j  c #3E59A6",
"k  c #3E5EA9",
"l  c #3B62AD",
"z  c #425F87",
"x  c #576781",
"c  c #416099",
"v  c #546C9A",
"b  c #657585",
"n  c #627190",
"m  c #60769D",
"M  c #445CA6",
"N  c #525FAE",
"B  c #4167A5",
"V  c #566CA6",
"C  c #5774AC",
"Z  c #4D6BB3",
"A  c #5F7EBE",
"S  c #5574B5",
"D  c #607BB0",
"F  c #607DBF",
"G  c #4D70C4",
"H  c #5C71C4",
"J  c #5679DF",
"K  c #5A7EDF",
"L  c #5978D9",
"P  c #697ED8",
"I  c #707FD4",
"U  c #447CEC",
"Y  c #4A7CEA",
"T  c #4E7DE5",
"R  c #557FE1",
"E  c #5E7FE6",
"W  c #587AE9",
"Q  c #4B7EF5",
"!  c #4C7EFF",
"~  c #447EF7",
"^  c #547EF3",
"/  c #627BE9",
"(  c #798DA5",
")  c #6082BF",
"_  c #5C83DD",
"`  c #5E8ADE",
"'  c #6484C3",
"]  c #6987C4",
"[  c #6485CB",
"{  c #6788CF",
"}  c #6C8BCB",
"|  c #6E84D0",
" . c #6688D2",
".. c #6386DB",
"X. c #6B8ADD",
"o. c #6B8DD8",
"O. c #7A99DA",
"+. c #4B80EC",
"@. c #5383E7",
"#. c #5C83E3",
"$. c #5587E8",
"%. c #5A87EA",
"&. c #5489ED",
"*. c #5E89EB",
"=. c #4782F6",
"-. c #4C84F5",
";. c #4D8AF6",
":. c #4783FF",
">. c #4D85FD",
",. c #4D8AFC",
"<. c #5585F4",
"1. c #5B86F2",
"2. c #5389F4",
"3. c #5E89F3",
"4. c #5386FD",
"5. c #5985F9",
"6. c #5188FE",
"7. c #5A8CFD",
"8. c #5F90F7",
"9. c #5790FF",
"0. c #5A93FF",
"q. c #5F99FF",
"w. c #6086E4",
"e. c #648AE3",
"r. c #6A8DE6",
"t. c #658AE9",
"y. c #6B86E1",
"u. c #6891E3",
"i. c #6490EF",
"p. c #618DFB",
"a. c #6B91F3",
"s. c #6494FF",
"d. c #9399A9",
"f. c #8799A7",
"g. c #9AA6B6",
"h. c #A0A8B5",
"j. c #A3AFBB",
"k. c #B5BDBF",
"l. c #A4B5C7",
"z. c #BDC1CC",
"x. c #AFC0D2",
"c. c #B5C7D5",
"v. c #BFC9D5",
"b. c #CFD4D0",
"n. c #CEDAE6",
"m. c #CCD4E1",
"M. c #D4DDEC",
"N. c #D6E2EE",
"B. c #DBE4EB",
"V. c #DCEAF5",
"C. c #EBE7E4",
"Z. c #E3EDEF",
"A. c #EBEDED",
"S. c #E8EBE2",
"D. c #E6F5EE",
"F. c #F0F4E6",
"G. c #FDFFE5",
"H. c #F4F4ED",
"J. c #F7F9EC",
"K. c #FCFEED",
"L. c #E2EDFF",
"P. c #F1EAF2",
"I. c #E8F0F2",
"U. c #E5F1FF",
"Y. c #ECF3FD",
"T. c #ECFFFF",
"R. c #F6F7F4",
"E. c #F9F7F5",
"W. c #F6FDF3",
"Q. c #FDFFF4",
"!. c #F3F5FD",
"~. c #FCF5FE",
"^. c #F5FEFF",
"/. c #FEFEFE",
/* pixels */
"/./.Z.c.o ) e.3.7.<.<.7.-.6.6.6.6.6.6.,.6.6.6.6.6.6.6.6.6.6.6.6.6.6.6.6.6.6.6.6.6.6.6.",
"/.!.^.f.* ' #.<.4.6.6.<.6.6.6.6.6.6.6.6.6.6.>.6.6.6.6.6.6.6.6.6.6.6.6.6.6.6.6.>.6.6.6.",
"/.~.^.b $ O.t.^ 4.! 6.-.6.6.6.6.6.6.6.6.6.6.6.6.6.6.6.6.6.6.6.6.6.6.6.6.6.6.6.4.6.6.6.",
"/./.^.p 5 A K ^ 7.6.7.7.6.6.6.6.6.6.6.6.6.6.6.6.6.6.6.6.6.6.6.6.6.6.6.6.6.6.6.6.6.6.6.",
"~./.Y.y 7 A a.5.4.! ! >.6.6.6.6.6.6.6.6.6.6.6.6.6.6.6.6.6.6.6.6.6.6.6.6.6.6.6.6.6.6.6.",
"~./.Y.d = ' t.^ 4.>.6.7.6.6.6.6.6.6.6.6.6.6.6.6.6.6.6.6.6.6.6.6.6.6.6.6.6.>.6.6.6.6.6.",
"!./.^.g.* ] L 1.4.>.:.9.6.6.6.6.6.6.6.6.6.6.6.6.6.6.>.6.6.6.6.6.6.6.6.6.6.6.6.6.6.6.6.",
"~.Q./.B.X C r.7.Q 6.2.U 6.6.6.6.6.6.6.6.6.6.6.6.6.6.6.6.6.6.6.6.6.6.6.6.6.6.6.6.6.6.6.",
"/.Q./.^.; q ..1.Q 7.q.;.,.6.6.6.6.6.6.6.6.6.6.6.6.6.6.6.6.6.6.6.6.6.6.6.6.6.6.6.6.6.6.",
"/./.W.^.l.$ k #.7.Q -.,.2.6.6.6.6.6.6.6.6.6.6.6.6.6.6.6.6.6.6.6.6.6.6.6.6.6.6.6.6.6.6.",
"/././.Q.^.a 3 y.W 4.~ ,.6.6.6.6.6.6.6.6.6.6.6.6.6.6.6.6.6.6.6.6.6.6.6.6.6.6.6.6.6.6.6.",
"/./.Q.Q.R.v.o | E s.>.:.>.6.6.6.6.6.6.-.6.6.6.6.6.6.6.6.6.6.6.6.6.6.6.6.6.6.6.6.6.6.6.",
"/./.Q.Q./.B.O V ..3.Y s.,.6.6.6.6.6.6.2.6.6.6.2.6.2.6.6.6.6.6.6.6.6.6.6.6.6.6.6.6.6.6.",
"/.~.Q.Q.S.k.+ m } u.$.+.2.6.2.6.6.6.6.6.6.6.6.6.6.6.6.6.6.6.6.6.6.6.6.6.6.6.6.6.6.6.6.",
"/.Q./.Q.Q.b.  f z B ` &.2.6.6.6.6.>.6.6.6.6.-.2.6.6.6.6.6.6.>.6.6.6.6.6.6.6.6.6.6.6.6.",
"Q.Q.Q./.Q.E.:   . & l R 2.6.6.6.6.2.6.6.6.6.6.6.6.6.6.6.6.6.6.6.6.6.>.6.6.6.6.6.6.6.6.",
"G.Q./././.H.W.D.T.5 g a.<.6.6.6.6.6.6.2.2.6.6.6.6.2.6.6.-.6.6.6.6.6.6.6.6.6.6.6.6.6.6.",
"G.Q.~./.P./.F.W.T.o j J <.6.6.6.6.6.6.6.6.6.6.6.6.>.6.6.6.6.6.6.6.6.6.6.6.6.6.6.6.6.6.",
"G.K.~././.~.J.Q.N.* H W 1.6.>.6.6.>.6.6.6.6.6.6.6.6.6.6.6.6.6.6.6.6.6.6.6.6.6.6.6.6.6.",
"G.Q././.~.~./.W.n.o P / 5.2.2.6.6.2.6.6.6.6.6.6.6.6.6.2.6.6.6.6.6.6.6.6.6.6.6.6.6.6.6.",
"G.Q././.~.~.Q./.M.o I / 5.6.6.6.6.6.6.6.6.6.6.6.6.2.6.6.6.6.6.6.6.6.6.6.6.6.6.6.6.6.6.",
"G.Q./.~./.~.~./.Y.& N L 1.6.6.6.6.6.>.2.6.6.-.2.6.6.6.6.6.6.6.6.6.>.6.6.6.6.6.6.6.>.6.",
"E.Q././././.H./.^.6 w P 1.6.6.6.2.6.6.6.2.6.6.6.6.6.6.6.6.6.6.6.6.6.6.6.6.6.6.6.6.6.6.",
"Q.Q././.~./.J./.^.x , X.%.6.6.6.6.6.6.6.6.6.6.6.6.-.6.6.6.6.6.6.6.6.6.6.6.6.6.6.6.6.6.",
"Q./././././.K.Q.^.c.$ Z %.6.6.6.6.6.2.6.6.6.6.2.6.6.6.6.6.6.6.6.6.6.6.6.6.6.6.6.6.6.6.",
"/././././.E.J.J.^.^.O t ` <.5.4.6.6.,.,.6.6.6.6.2.2.6.>.6.6.6.6.6.6.6.6.6.6.6.6.6.6.6.",
"/././././.R.Q.^.A.^.l.X c e.*.5.5.9.;.,.>.6.4.2.2.&.6.4.6.6.6.6.6.6.6.6.6.6.6.6.6.6.6.",
"/./././././././.E./.H.p $ [ w.5.-.6.,.6.,.6.4.2.&.&.<.>.6.6.6.6.6.6.>.6.6.6.6.6.6.6.6.",
"/./././././././.R././.g.o } E 1.2.;.;.6.>.6.6.<.&.&.6.! 6.6.6.6.6.6.6.6.6.6.6.6.6.6.6.",
"/././././././././././.b.$ A r.i.1.2.9.=.6.6.6.<.&.<.4.4.4.>.6.6.6.6.6.6.6.6.6.6.6.6.6.",
"/././././././././././.!.o u o.#.T 2.q.U >.6.6.2.&.2.4.4.6.6.6.6.6.6.6.6.6.6.6.6.6.6.6.",
"/././././.~.R././././.^.n 2 h e.$.+.6.,.-.6.6.2.2.<.6.4.6.6.6.6.6.6.6.6.6.6.6.>.4.6.6.",
"/./././././././.R.^./.^.L.8 4 X.i.+.+.6.,.>.2.2.2.3.6.6.6.6.6.6.6.6.6.6.6.6.6.6.6.6.6.",
"/./././././././.Q././.^.^.s > { _ i.2.>.>.,.4.2.4.4.6.4.6.6.6.6.6.6.6.6.6.6.6.6.6.6.6.",
"/./././././././././././.^.0 7 ] _ @.0.-.6.,.6.2.6.5.4.6.6.6.6.6.6.6.6.6.6.6.6.6.6.6.6.",
"/./././././././././././.!.9 0 D X.%.U >.6.2.4.4.4.4.6.4.6.6.6.6.6.6.6.6.6.6.6.6.6.6.6.",
"/./././././././././././.~.d.X v  .%.<.-.6.2.4.4.4.4.4.5.6.6.6.6.6.6.6.6.6.6.6.6.6.6.6.",
"/./././././././././././././.@ r [ #.s.Q 2.2.2.6.4.4.4.4.6.6.6.6.6.6.6.6.6.6.6.6.6.6.6.",
"/./././././././././././.E./.j.X S _ 2.6.6.2.4.6.4.4.4.4.6.6.6.6.6.6.6.6.6.6.6.6.6.6.6.",
"/./././././././././././.~./.T.- e t.Y 7.2.;.2.6.7.4.4.5.6.6.6.6.6.6.6.6.6.6.6.6.6.6.6.",
"/./././././././././././././.A.( , w.5.<.2.2.2.6.4.4.4.2.6.6.6.6.6.6.6.6.6.6.6.6.6.6.6.",
"/././././././././././././.C.^.U.% G p.Q ;.,.;.,.4.4.4.6.6.6.6.6.6.6.6.6.6.6.6.6.6.6.6.",
"/././././././././././././.Q././.# M %.2.,.,.,.,.5.4.4.6.6.6.6.6.6.6.6.6.6.6.>.6.6.6.6."
};
