/* XPM */
static char *tile0561719244616[] = {
/* columns rows colors chars-per-pixel */
"43 43 211 2 ",
"   c #5188FF",
".  c #5089FD",
"X  c #4D89F9",
"o  c #4D89FB",
"O  c #4F87FF",
"+  c #5188FD",
"@  c #4F88FB",
"#  c #4F88FC",
"$  c #5086FF",
"%  c #5087FB",
"&  c #5286FE",
"*  c #5088F9",
"=  c #5287F7",
"-  c #5287FB",
";  c #5288F5",
":  c #5387F5",
">  c #5188FC",
",  c #5389F6",
"<  c #5489F3",
"1  c #5588F3",
"2  c #5388FC",
"3  c #5488F6",
"4  c #5588F1",
"5  c #5387FD",
"6  c #5488F8",
"7  c #5588F5",
"8  c #5487FA",
"9  c #5587F6",
"0  c #5387FF",
"q  c #5486FF",
"w  c #5586FC",
"e  c #5586FF",
"r  c #5587F8",
"t  c #5485FF",
"y  c #5585FF",
"u  c #5187FF",
"i  c #5186FF",
"p  c #5386FF",
"a  c #5088FF",
"s  c #4E8BFF",
"d  c #4D8BFA",
"f  c #508BEF",
"g  c #4C8BFD",
"h  c #4C8CF8",
"j  c #4D88FF",
"k  c #4D88FC",
"l  c #4E86FF",
"z  c #4F86FD",
"x  c #5386FC",
"c  c #5185FD",
"v  c #5484FF",
"b  c #5683FF",
"n  c #5389F5",
"m  c #5784FF",
"M  c #5189FA",
"N  c #528BF2",
"B  c #538AF1",
"V  c #5785FD",
"C  c #4D89EB",
"Z  c #4882E5",
"A  c #5E90FF",
"S  c #5089FA",
"D  c #4F8BED",
"F  c #5F9AF8",
"G  c #4A7EE4",
"H  c #548FF5",
"J  c #4B85E6",
"K  c #5C8FEB",
"L  c #4A84F0",
"P  c #5B93F4",
"I  c #5383D8",
"U  c #4D85F6",
"Y  c #5387EC",
"T  c #608BDA",
"R  c #5E91FF",
"E  c #5A8AF0",
"W  c #678DD6",
"Q  c #4D7EF7",
"!  c #5780E9",
"~  c #6C8DD0",
"^  c #5D86EF",
"/  c #4B6BC0",
"(  c #0B265B",
")  c #5089FC",
"_  c #538CFF",
"`  c #4C83F8",
"'  c #578CFC",
"]  c #568CF9",
"[  c #548AF4",
"{  c #608DE8",
"}  c #5C7AB8",
"|  c #000F38",
" . c #081935",
".. c #5189F8",
"X. c #508AF8",
"o. c #558CFF",
"O. c #4E85F9",
"+. c #5287F9",
"@. c #558BF7",
"#. c #558AF2",
"$. c #568CEE",
"%. c #5C87D5",
"&. c #162D56",
"*. c #0D1A2D",
"=. c #F1FEFF",
"-. c #548BFF",
";. c #5186FA",
":. c #5286F6",
">. c #558AF4",
",. c #5488ED",
"<. c #598BEA",
"1. c #4B72BD",
"2. c #00062D",
"3. c #B9C4D6",
"4. c #EBF4FF",
"5. c #5289FF",
"6. c #5589FF",
"7. c #5285FB",
"8. c #5284F5",
"9. c #598AF3",
"0. c #5688EB",
"q. c #5889E5",
"w. c #2A5097",
"e. c #000F35",
"r. c #F7FFFF",
"t. c #E7EFFC",
"y. c #5588FF",
"u. c #5385FF",
"i. c #5283FA",
"p. c #5382F4",
"a. c #5C8BF3",
"s. c #5A88E8",
"d. c #5987DF",
"f. c #062B6F",
"g. c #405072",
"h. c #DEE4F2",
"j. c #FBFFFF",
"k. c #5388FA",
"l. c #5282FF",
"z. c #5583FB",
"x. c #5482F2",
"c. c #5E89F1",
"v. c #5C87E5",
"b. c #5C89DE",
"n. c #001151",
"m. c #7885A5",
"M. c #E6E9F2",
"N. c #5384FF",
"B. c #5A86FF",
"V. c #5681F2",
"C. c #5C86EC",
"Z. c #5B84E0",
"A. c #648DDF",
"S. c #000845",
"D. c #828DAD",
"F. c #FEFDFF",
"G. c #FEFEFF",
"H. c #5281FF",
"J. c #5582FF",
"K. c #5E8AFF",
"L. c #5780F2",
"P. c #5882E8",
"I. c #5982DE",
"U. c #6B91E4",
"Y. c #000846",
"T. c #A4ADCE",
"R. c #EDECF4",
"E. c #5A89FF",
"W. c #5986FF",
"Q. c #4F7BF6",
"!. c #5F88FA",
"~. c #5A83EC",
"^. c #628BE7",
"/. c #547ACF",
"(. c #000E4E",
"). c #353E5F",
"_. c #F9F8FF",
"`. c #5182FF",
"'. c #5686FF",
"]. c #5581FC",
"[. c #638EFF",
"{. c #5A83ED",
"}. c #5E86E6",
"|. c #6C94EC",
" X c #3F5EA1",
".X c #00072B",
"XX c #E6E5F5",
"oX c #F5F5FF",
"OX c #5082FF",
"+X c #5888FF",
"@X c #5482FC",
"#X c #5F8CFF",
"$X c #5781EF",
"%X c #527CE2",
"&X c #6B96F5",
"*X c #6D8DD8",
"=X c #08143C",
"-X c #9FA2B3",
";X c #F8FAFF",
":X c #5286FF",
">X c #588AFF",
",X c #4E7EFA",
"<X c #5886FE",
"1X c #5A88F8",
"2X c #527EE9",
"3X c #5C87EF",
"4X c #6487D8",
"5X c #0A1944",
"6X c #2F3448",
"7X c #FBFEFF",
"8X c white",
/* pixels */
"                                                                              . X o O ",
"                                                                              . X o O ",
"                                                                              + @ # $ ",
"                                                                              + @ # $ ",
"                                                                              + % % & ",
"                                                                              + * = - ",
"                                                                              + = ; : ",
"                                                                              > , < 1 ",
"                                                                              2 3 < 4 ",
"                                                                              5 6 7 4 ",
"                                                                              5 8 9 1 ",
"                                                                              0 q w 7 ",
"                                                                              0 q e r ",
"                                                                              0 t y w ",
"                                                                              u i p 6 ",
"                                                                              a s d f ",
"                                                                              a g h f ",
"                                                                              a j k ; ",
"                                                                                l z x ",
"                                                                                z c v ",
"                                                                              + - x b ",
"                                                                              > n 3 m ",
"                                                                              M N B V ",
"                                                                              M C Z A ",
"                                                                              S D F G ",
"                                                                              S H J K ",
"                                                                              > L P I ",
"                                                                              + U Y T ",
"                                                                                R E W ",
"                                                                              0 Q ! ~ ",
"                                                u       + + + +       + + > > 9 ^ / ( ",
"                                              u p 0 0 5 > M S ) . _ ` % ' ] [ { } |  .",
"                                              u p q 0 2 M ..X.S . o.O.+.@.#.$.%.&.*.=.",
"                                                0 0 5 2 M M S ) + -.;.:.>.,.<.1.2.3.4.",
"                                                0 0 2 2 M > ) + 5.6.7.8.9.0.q.w.e.r.t.",
"                                                5 2 > M > >   u y.u.i.p.a.s.d.f.g.h.j.",
"                                              + 2 k.M M > + u p e l.z.x.c.v.b.n.m.j.M.",
"                                              + M ....M >   p p N.l.B.V.C.Z.A.S.D.F.G.",
"                                              + M ....M >   p p H.J.K.L.P.I.U.Y.T.F.R.",
"                                              + > M M M >   0 p E.W.Q.!.~.^./.(.).F._.",
"                                              + > > M > > + 0 p `.'.].[.{.}.|. X.XXXoX",
"                                                5 5 > > > >   0 OX+X@X#X$X%X&X*X=X-X;X",
"                                                0 0 + > M M >   :X>X,X<X1X2X3X4X5X6X7X"
};
