/* XPM */
static char *tile0571719244616[] = {
/* columns rows colors chars-per-pixel */
"43 43 209 2 ",
"   c #010004",
".  c #070408",
"X  c #0C110D",
"o  c #010214",
"O  c #00051B",
"+  c #070916",
"@  c #131413",
"#  c #0A171D",
"$  c #000221",
"%  c #000B25",
"&  c #0F0D22",
"*  c #00032B",
"=  c #000D2C",
"-  c #011123",
";  c #091221",
":  c #1E1D25",
">  c #000433",
",  c #000A33",
"<  c #00023A",
"1  c #000B3C",
"2  c #001235",
"3  c #08212F",
"4  c #132529",
"5  c #032236",
"6  c #272827",
"7  c #232A3B",
"8  c #313038",
"9  c #313131",
"0  c #000442",
"q  c #000E49",
"w  c #07174A",
"e  c #000E55",
"r  c #001657",
"t  c #0C2244",
"y  c #032042",
"u  c #052359",
"i  c #0E2F58",
"p  c #183957",
"a  c #172444",
"s  c #2E2A47",
"d  c #333849",
"f  c #2B3751",
"g  c #303751",
"h  c #35395A",
"j  c #072E69",
"k  c #172C6D",
"l  c #0F3268",
"z  c #0F2C78",
"x  c #262E6D",
"c  c #213C64",
"v  c #353B65",
"b  c #273073",
"n  c #354441",
"m  c #39425D",
"M  c #26446E",
"N  c #2F4665",
"B  c #2F4A79",
"V  c #394F74",
"C  c #32517D",
"Z  c #414048",
"A  c #475258",
"S  c gray34",
"D  c #60675F",
"F  c #4C5367",
"G  c #565D65",
"H  c #4C5E76",
"J  c #454869",
"K  c #546575",
"L  c #666973",
"P  c #706F7D",
"I  c #3B518D",
"U  c #3C5C94",
"Y  c #376FAC",
"T  c #3B60B0",
"R  c #43579C",
"E  c #567182",
"W  c #4B6190",
"Q  c #5F729D",
"!  c #5A679C",
"~  c #6F6F93",
"^  c #6F7994",
"/  c #757493",
"(  c #6B7787",
")  c #5062AA",
"_  c #4C76AD",
"`  c #5C74A5",
"'  c #5575AE",
"]  c #506BB2",
"[  c #547EBE",
"{  c #5579B8",
"}  c #466AA6",
"|  c #6A7AA8",
" . c #3657C2",
".. c #4D76CE",
"X. c #577FC7",
"o. c #5979CE",
"O. c #4B76D8",
"+. c #5B7BDC",
"@. c #5777D5",
"#. c #6A7DDA",
"$. c #697EDB",
"%. c #4C7CE7",
"&. c #437BE3",
"*. c #5D7EE4",
"=. c #5A79E5",
"-. c #4271F4",
";. c #487BF8",
":. c #557CF5",
">. c #677AE1",
",. c #7B8294",
"<. c #7A84A2",
"1. c #7788BA",
"2. c #5581CC",
"3. c #4383DD",
"4. c #5689DC",
"5. c #5C93D6",
"6. c #6B85C0",
"7. c #778DC8",
"8. c #638AD1",
"9. c #6785D8",
"0. c #758BD6",
"q. c #7D8EDC",
"w. c #6B90D6",
"e. c #7393DB",
"r. c #7797DA",
"t. c #4B89EB",
"y. c #4982E8",
"u. c #5686E2",
"i. c #5B86E5",
"p. c #5583EC",
"a. c #548AEC",
"s. c #5889E7",
"d. c #4782F4",
"f. c #4D8AF5",
"g. c #4C85FC",
"h. c #4E8AFD",
"j. c #4981F2",
"k. c #5586F5",
"l. c #5C86F7",
"z. c #5488F5",
"x. c #5485FC",
"c. c #5A83FD",
"v. c #5289FC",
"b. c #5C8BFF",
"n. c #5C88F5",
"m. c #5491F4",
"M. c #5591FD",
"N. c #5B94FD",
"B. c #5997E2",
"V. c #6589E7",
"C. c #748AE7",
"Z. c #6593E5",
"A. c #6A85F5",
"S. c #6287FF",
"D. c #6289FD",
"F. c #688AFA",
"G. c #6594FF",
"H. c #6495FA",
"J. c #7294F6",
"K. c #63A0FB",
"L. c #8A8A8B",
"P. c #83818F",
"I. c #97969E",
"U. c #8589A2",
"Y. c #8A94A7",
"T. c #9694A1",
"R. c #8B91B3",
"E. c #92ACAB",
"W. c #93AABC",
"Q. c #A9A8AC",
"!. c #A4A9B8",
"~. c #B1B1B1",
"^. c #BBBCC1",
"/. c #C0BECC",
"(. c #BCD6FB",
"). c #C9C8CA",
"_. c #CBD5CD",
"`. c #D3DBDD",
"'. c #E0DFDD",
"]. c #CFDFEE",
"[. c #DBE6E2",
"{. c #DBE1F7",
"}. c #E5EBE4",
"|. c #EEE9E3",
" X c #E5E5E9",
".X c #EBEBEC",
"XX c #E9E0E1",
"oX c #F8EDEB",
"OX c #E7F5E7",
"+X c #F4F3ED",
"@X c #FEFFED",
"#X c #EEEDF3",
"$X c #E5ECFB",
"%X c #EEEFFA",
"&X c #F0EEFB",
"*X c #EDF5F3",
"=X c #EBFBF3",
"-X c #E3F4FF",
";X c #EDF6FE",
":X c #EFFDFF",
">X c #E4F9FE",
",X c #F4F4F4",
"<X c #F9F5F6",
"1X c #F5FFF7",
"2X c #FDFEF4",
"3X c #F4F5FA",
"4X c #FBF6FC",
"5X c #F6FDFD",
"6X c #FEFEFE",
/* pixels */
"x.x.x.c.c.S.+.q W.5X@X4X6X6X4X6X6X6X6X5X6X6X2X<X,X3X6X4X*XL.9 @ S ~.4X6X.X6X6X6X6X6X6X",
"x.x.x.l.l.:.+.u E OX@XXX4X4X6X4X6X6X6X2X6X2X5X6X6X6X4X6X6X6X,X3X6X6X<X6X6X6X6X6X6X6X6X",
"g.x.v.x.l.l.V.l 5 =XOX6X4X6X4X4X6X6X6X6X6X6X6X6X6X6X6X4X.X3X6X6X,X6X6X6X,X6X6X6X6X6X6X",
"x.x.x.x.k.k.u._ = E.5XOX3X6X6X6X4X6X6X6X6X2X6X6X<X,X6X6X6X6X6X4X<X6X5X<X6X6X6X6X6X6X6X",
"x.x.x.k.k.G.O.[ p 5 >X;X5X6X6X6X6X6X4X2X6X2X2X6X6X6X4X3X3X4X2X6X6X6X6X1X6X6X6X6X6X6X6X",
"x.k.x.v.x.&.H.Z._ , p -X5X3X6X6X6X6X5X5X6X6X5X4X6X6X6X6X6X5X6X6X6X6X6X6X,X6X6X6X6X6X6X",
"k.x.v.v.f.v.y.4.2.} w > v $X3X6X6X6X6X6X6X5X6X6X6X6X6X6X6X6X4X6X6X4X6X6X6X6X6X6X6X6X6X",
"k.k.x.v.v.;.N.k.s.9.e.I w . T.4X4X6X.X6X5X2X2X6X6X6X6X6X6X6X6X6X6X6X6X6X6X6X6X6X6X6X6X",
"z.v.v.x.h.v.g.;.b.p.$.0.7.J   Z  X#X6X,X6X6X2X6X6X6X6X6X6X6X6X6X6X6X6X6X6X6X6X6X6X6X6X",
"z.z.x.h.h.g.d.v.b.D.=.0.| U.8   ).6X6X.X6X6X6X6X6X6X6X6X6X6X6X6X6X6X6X6X6X6X6X6X6X6X6X",
"z.v.x.v.h.h.g.v.;.S.S.#.` O . :  X6X.X6X6X6X6X6X2X6X6X6X6X6X6X6X6X6X6X6X6X6X6X6X6X6X6X",
"z.x.x.h.h.f.M.v.-.:.F.z > a Q.6X6X3X6X6X<X6X6X6X6X6X6X2X6X6X6X6X6X6X6X6X6X6X6X6X6X6X6X",
"k.x.v.h.f.M.y.g.G.S. .r V 3X6X6X4X3X6X6X,X6X2X2X6X6X6X6X6X6X6X6X6X6X6X6X6X6X6X6X6X6X6X",
"x.x.x.v.f.t.N.g.-.:.J.R O ,.%X4X#X4X3X,X6X6X6X6X2X2X6X6X6X6X6X6X6X6X6X6X6X6X6X6X6X6X6X",
"z.z.x.v.v.M.t.j.G.D.@.r.W $ g {.6X5X6X4X<X6X2X6X6X6X6X6X6X6X6X6X6X6X6X6X6X6X6X6X6X6X6X",
"a.z.z.x.g.h.g.f.%.F.i.A.$.] u * t Y.>X6X,X2X6X6X6X6X5X6X6X6X6X6X6X6X6X6X6X6X6X6X6X6X6X",
"a.a.k.x.h.M.t.m.B.i.@.#.C.o.w.' c % $X3X6X2X2X6X6X6X6X6X5X6X6X6X6X6X6X6X6X6X6X6X6X6X6X",
"k.k.l.x.h.d.t.t.5.q 0 k ) 9.X.7.7.O ( 6X1X6X2X2X2X2X5X2X5X2X6X6X6X6X6X6X6X6X6X6X6X6X6X",
"x.c.x.x.v.M.3.5.Y 1 i w > R 0.7.1.a F 5X,X2X2X2X2X2X2X2X2X2X6X6X6X6X6X6X6X6X6X6X6X6X6X",
"c.c.c.x.z.y.K.4.5.{ = K | < e ! | f d ;X6X2X5X2X2X2X2X@X2X6X6X6X6X6X6X6X6X6X6X6X6X6X6X",
"c.c.c.x.x.G.y.y.4.e.B % ;X$Xv * ^ # L 5X*X6X6X6X4X2X2X2X2X6X6X6X6X6X6X6X6X6X6X6X6X6X6X",
":.c.:.x.x.d.M.N.n.+.0.* R.%X!.O G   [.5X5X5X6X6X6X6X6X6X2X6X6X6X6X6X6X6X6X6X6X6X6X6X6X",
"c.:.c.x.g.N.-.x.S.A.#.x v 4X6 @ X D 1X1X5X5X6X5X6X6X4X6X6X6X6X6X6X6X6X6X6X6X6X6X6X6X6X",
"b.c.b.l.k.z.x.F.:.A.#.b h #X  . 6 2X2X=X5X6X5X6X6X6X6X6X6X6X6X6X6X6X6X6X6X6X6X6X6X6X6X",
"O.F.O...Z.u.p.=.p.>.q.w J ^.. . ~.}.6X6X*X5X5X6X6X6X2X6X2X6X6X6X6X6X6X6X6X6X6X6X6X6X6X",
"Z.T e 0 j [ 8.8.e.6.^ = R.L & + I.6X*X*X6X5X6X6X2X4X2X@X2X2X6X6X6X6X6X6X6X6X6X6X6X6X6X",
"X.0 ` (.y 2 M C c N O # 3Xs s d o %X5X5X6X6X6X2X2X2X2X@X@X6X6X6X6X6X6X6X6X6X6X6X6X6X6X",
"U 2 >X5X:XK O - 4 4 n _.3XO ~ / & P 6X6X6X6X6X2X2X2X@X@X@X2X6X6X6X6X6X6X6X6X6X6X6X6X6X",
"M - 4X6X X6X5X5X6X=X[.2X^.o <.h o *X6X*X6X2X6X6X6X2X2X2X2X6X6X6X6X6X6X6X6X6X6X6X6X6X6X",
"2 A 2X|.2X4X6X6X6X5X4X6XP.O m . !.3X4X5X6X6X6X6X6X6X6X5X6X6X6X6X6X6X6X6X6X6X6X6X6X6X6X",
"% `.2X2XoX6X<X6X<X2X6X6XT.o d 7 6X6X2X2X4X2X6X6X6X6X6X6X6X6X6X6X6X6X6X6X6X6X6X6X6X6X6X",
"].5X,X6X<X4X6X6X4X6X6X,X'.X   L 6X6X6X6X4X6X6X6X6X6X6X6X6X6X6X6X6X6X6X6X6X6X6X6X6X6X6X",
">X6X*X3X6X5X6X6X4X6X2X2X+X).L..X4X6X6X5X6X6X6X6X6X6X6X6X6X6X6X6X6X6X6X6X6X6X6X6X6X6X6X",
"6X;X5X6X6X4X6X6X6X6X6X6X2X6X.X6X6X+X6X6X6X6X6X6X6X6X6X6X6X6X6X6X6X6X6X6X6X6X6X6X6X6X6X",
"6X5X6X1X6X6X6X6X4X4X2X2X2X<X6X<X6X,X6X6X,X6X6X6X6X6X6X6X6X6X6X6X6X6X6X6X6X6X6X6X6X6X6X",
"6X3X6X6X4X4X6X6X6X4X6X2X5X6X.X6X.X6X6X<X6X6X6X6X6X6X6X6X6X6X6X6X6X6X6X6X6X6X6X6X6X6X6X",
"3X*X6X6X<X6X4X6X6X6X6X2X2X,X<X,X,X6X6X5X6X6X6X6X6X6X6X6X6X6X6X6X6X6X6X6X6X6X6X6X6X6X6X",
"#X6X2X.X2X6X6X6X6X6X6X6X6X<X6X}.6X6X6X6X,X6X6X6X6X6X6X6X6X6X6X6X6X6X6X6X6X6X6X6X6X6X6X",
"6X2X2X2X2X6X6X6X6X6X6X5X6X6X,X6X.X6X6X6X6X6X6X6X6X6X6X6X6X6X6X6X6X6X6X6X6X6X6X6X6X6X6X",
"6X2X6X2X2X6X6X6X6X6X6X2X6X6X6X6X6X6X6X6X6X6X6X6X6X6X6X6X6X6X6X6X6X6X6X6X6X6X6X6X6X6X6X",
"6X5X<X2X+X+X<X6X6X6X6X6X5X6X6X6X6X6X6X6X6X6X6X6X6X6X6X6X6X6X6X6X6X6X6X6X6X6X6X6X6X6X6X",
"6X6X2X2X2X6X2X6X6X<X,X4X6X6X6X6X6X6X6X6X6X6X6X6X6X6X6X6X6X6X6X6X6X6X6X6X6X6X6X6X6X6X6X",
"6X*X2X2X2X6X<X,X4X6X6X6X,X6X6X6X6X6X6X6X6X6X6X6X6X6X6X6X6X6X6X6X6X6X6X6X6X6X6X6X6X6X6X"
};
