/* XPM */
static char *tile0601719244616[] = {
/* columns rows colors chars-per-pixel */
"43 43 146 2 ",
"   c #000419",
".  c #000623",
"X  c #00022A",
"o  c #000D2A",
"O  c #001427",
"+  c #010532",
"@  c #010B34",
"#  c #000A3A",
"$  c #001032",
"%  c #081D30",
"&  c #00113B",
"*  c #0B1B3F",
"=  c #10153D",
"-  c #111F39",
";  c #000C42",
":  c #001447",
">  c #021A40",
",  c #0A2246",
"<  c #06214C",
"1  c #1C2046",
"2  c #10224A",
"3  c #0C255D",
"4  c #122351",
"5  c #213047",
"6  c #2B3E4D",
"7  c #272B50",
"8  c #2C3C56",
"9  c #21395F",
"0  c #303555",
"q  c #363A57",
"w  c #1F3A67",
"e  c #14346D",
"r  c #1A336B",
"t  c #113373",
"y  c #1C3B7E",
"u  c #223466",
"i  c #23376C",
"p  c #283B75",
"a  c #3A4056",
"s  c #36455A",
"d  c #3D505F",
"f  c #2E4674",
"g  c #2E427F",
"h  c #364B78",
"j  c #464A63",
"k  c #5A5C71",
"l  c #2F4984",
"z  c #374B8A",
"x  c #3A5487",
"c  c #2E4C94",
"v  c #2C5293",
"b  c #315090",
"n  c #3E5493",
"m  c #3C5F99",
"M  c #465C9E",
"N  c #5C6B88",
"B  c #6C6F80",
"V  c #65718B",
"C  c #697D88",
"Z  c #4C63A2",
"A  c #4565AE",
"S  c #4F6BAA",
"D  c #5771AE",
"F  c #5475B3",
"G  c #5D7CBE",
"H  c #557CC7",
"J  c #5A7AC7",
"K  c #4B7DEE",
"L  c #507EED",
"P  c #447FFF",
"I  c #4D7DF9",
"U  c #547FF2",
"Y  c #5A7FF1",
"T  c #5D81BF",
"R  c #5D82CD",
"E  c #5480D7",
"W  c #5D83D5",
"Q  c #5385DE",
"!  c #5C86DD",
"~  c #5688DF",
"^  c #5B89DE",
"/  c #6486C6",
"(  c #6186CA",
")  c #658BCD",
"_  c #6484D7",
"`  c #658AD0",
"'  c #6385DD",
"]  c #628BDB",
"[  c #6888DF",
"{  c #7D9CD5",
"}  c #4581EF",
"|  c #4D84EB",
" . c #5187E7",
".. c #5E87E2",
"X. c #5589E5",
"o. c #5A8CE4",
"O. c #5A80ED",
"+. c #5489EE",
"@. c #5D8EE9",
"#. c #4D85F3",
"$. c #4E89F6",
"%. c #4484FE",
"&. c #4C86FD",
"*. c #478DFF",
"=. c #4C8AFC",
"-. c #5686F1",
";. c #5B83F3",
":. c #5289F4",
">. c #5888F3",
",. c #5386FD",
"<. c #5A85FB",
"1. c #5188FF",
"2. c #5B8BFE",
"3. c #5D91F7",
"4. c #5592FF",
"5. c #5A95FF",
"6. c #6084E2",
"7. c #6789E3",
"8. c #688AE4",
"9. c #678EED",
"0. c #6794E7",
"q. c #658AF3",
"w. c #698CF2",
"e. c #898D99",
"r. c #828FA2",
"t. c #8296A1",
"y. c #8B93A8",
"u. c #BABDCC",
"i. c #C0C2CE",
"p. c #C3D6DC",
"a. c #D0DBED",
"s. c #D3D9F1",
"d. c #F0EEE2",
"f. c #EFF8E7",
"g. c #F4F1E8",
"h. c #F4FAEF",
"j. c #FBFCEF",
"k. c #ECFCFE",
"l. c #F4F3F5",
"z. c #F9F6F4",
"x. c #F5FCF3",
"c. c #FBFDF4",
"v. c #F5F6FD",
"b. c #F9F7FE",
"n. c #F4FCFD",
"m. c #FEFFFF",
/* pixels */
"m.m.m.m.m.m.m.m.m.m.m.m.m.c.m.b.+ M Y  .*.*.=.:.:.:.,.1.1.1.1.1.=.1.1.1.1.1.1.1.1.=.1.",
"m.m.m.m.m.m.m.m.m.m.m.m.m.c.b.m.@ M 6.| *.*.=.:.:.2.1.1.,.1.1.1.,.1.,.1.1.1.1.1.,.1.1.",
"m.m.m.m.m.m.m.m.m.m.m.m.m.m.m.b.= z ' :.=.*.=.:.:.,.,.1.,.1.=.,.1.1.1.1.1.=.,.1.1.1.,.",
"m.m.m.m.m.m.m.m.m.m.m.m.m.m.m.b.1 g ! +.*.*.=.:.:.,.,.1.1.1.1.1.1.1.1.1.1.1.1.1.1.1.1.",
"m.m.m.m.m.m.m.m.m.m.m.m.m.m.m.b.7 p W +.*.*.=.:.:.,.,.1.,.1.,.1.,.1.1.1.1.,.1.1.1.1.1.",
"m.m.m.m.m.m.m.m.m.m.m.m.b.m.m.m.0 i W +.=.*.=.,.<.,.=.,.=.1.1.1.1.1.1.1.1.=.1.1.1.1.=.",
"m.m.m.m.m.m.m.m.m.m.m.m.c.m.m.b.q u R  .$.=.=.,.:.<.1.=.1.1.1.1.=.1.1.1.1.1.1.1.1.1.1.",
"m.m.m.m.m.m.m.m.m.m.m.m.m.n.l.m.j 4 R X.$.*.,.,.,.,.1.&.1.1.1.1.,.1.1.1.1.1.,.1.1.1.,.",
"m.m.m.m.m.m.m.m.m.m.m.m.m.n.m.b.k , ) X.=.&.&.,.>.,.1.&.1.1.1.1.=.1.1.1.1.1.1.1.1.,.1.",
"m.m.m.m.m.m.m.m.m.m.m.m.m.b.m.l.B * ) E :.&.&.,.,.2.:.=.1.1.1.1.,.1.,.1.1.1.,.=.1.=.1.",
"m.m.m.m.m.m.m.m.m.m.m.m.n.m.z.m.e.$ R ^ :.=.,.,.,.,.:.=.1.1.1.1.1.1.1.1.1.1.1.1.1.1.,.",
"m.m.m.m.m.m.m.m.m.m.m.m.b.m.z.m.i.. F @.:.=.I ,.,.>.1.=.=.1.1.1.1.1.1.1.1.1.1.1.1.1.1.",
"m.m.m.m.m.m.m.m.m.m.m.m.m.m.z.z.v.o m o.:.=.,.,.2.,.&.$.1.1.1.1.=.,.1.1.1.1.1.1.1.1.1.",
"m.m.m.m.m.m.m.m.m.m.m.m.m.n.c.h.m.8 e ^ -.&.,.,.,.,.:.$.1.1.1.1.1.1.1.1.1.1.1.1.1.1.1.",
"m.m.m.m.m.m.m.m.m.m.m.m.n.m.z.m.b.V : ] -.,.,.,.,.,.=.=.=.1.1.1.1.1.1.1.1.=.1.1.=.,.1.",
"m.m.m.m.m.m.m.m.m.m.m.m.n.n.m.m.b.s.+ G ..-.,.&.,.,.:.$.,.1.1.1.,.1.1.1.1.,.,.1.1.1.1.",
"m.m.m.m.m.m.m.m.m.m.m.m.m.c.z.b.m.v.+ Z ' -.,.&.*.$.$.:.:.1.=.1.1.1.1.1.1.1.1.1.1.1.1.",
"m.m.m.m.m.m.m.m.m.m.m.m.n.c.m.l.m.m.X M ' -.=.&.&.&.:.:.1.1.1.1.1.,.1.1.1.1.1.1.1.1.1.",
"m.m.m.m.m.m.m.m.m.m.m.m.h.x.c.c.m.n.X S ! -.$.&.=.$.| >.:.1.1.1.1.=.,.1.1.=.1.1.1.&.1.",
"m.m.m.m.m.m.m.m.m.m.m.m.c.j.j.c.m.a.@ F ^ :.&.*.*.,.+.-.,.1.1.1.1.1.1.1.1.,.1.,.1.1.1.",
"m.m.m.m.m.m.m.m.m.m.m.m.c.j.c.m.n.t.& R ^ +.*.*.=.:.+.>.,.1.1.1.1.=.,.1.,.1.1.1.1.1.1.",
"m.m.m.m.m.m.m.m.m.m.m.m.z.c.c.c.v.s < ) X.$.=.*.=.,.+.>.,.1.1.1.1.1.1.1.=.1.1.1.1.1.1.",
"m.m.m.m.m.m.m.m.m.m.m.m.m.c.c.l.n.5 w ` o.$.*.*.=.1.-.>.1.1.1.1.1.1.1.1.1.1.1.1.1.1.1.",
"m.m.m.m.m.m.m.m.m.m.m.m.m.v.m.l.n.- f ( @.4.%.%.2.&.#.>.,.1.1.1.1.1.1.1.1.,.1.1.1.1.1.",
"m.m.m.m.m.m.m.m.m.m.m.m.b.m.l.m.m.. h / ~ | 4.&.%.2.,.2.,.1.1.1.1.1.1.1.1.1.1.1.1.1.1.",
"m.m.m.m.m.m.m.m.m.m.m.m.m.m.b.b.m.q @ { ] | 4.%.%.4.,.,.,.1.1.1.1.1.1.1.1.1.1.1.1.1.,.",
"m.m.m.m.m.m.m.m.m.m.m.m.m.v.m.b.m.u.. x R @.$.&.1.&.,.1.1.,.1.1.&.1.1.1.1.1.1.1.1.1.1.",
"m.m.m.m.m.m.m.m.m.m.m.m.m.v.m.m.l.m.y.X b 0.| $.5.&.,.2.1.1.1.1.1.1.1.1.1.,.=.,.1.1.1.",
"m.m.m.m.m.m.m.m.m.m.m.m.n.n.m.c.c.m.c.N : H o.} =.#.2.1.1.1.1.1.1.1.1.1.1.1.1.,.1.1.=.",
"m.m.m.m.m.m.m.m.m.m.m.m.n.n.c.d.c.g.m.n.@ v ^ +.} =.*.=.1.1.=.,.1.1.1.1.1.1.1.=.1.1.,.",
"m.m.m.m.m.m.m.m.m.m.m.m.m.n.z.c.j.c.m.k.u t H 3.#.5.$.2.1.1.1.1.1.,.1.1.1.1.1.1.1.1.1.",
"m.m.m.m.m.m.m.m.m.m.m.m.m.n.b.m.c.j.x.k.< y w.K 2.$.1.1.1.1.1.,.1.=.,.1.1.1.1.1.,.1.1.",
"m.m.m.m.m.m.m.m.m.m.m.m.c.b.m.m.m.j.j.n.> c w.U ,.,.,.,.1.1.1.1.,.1.=.,.1.1.1.1.,.=.1.",
"m.m.m.m.m.m.m.m.m.m.m.m.c.m.m.m.c.h.x.k.$ A q.Y ,.,.2.,.,.=.1.1.1.1.1.1.1.1.1.1.1.1.1.",
"m.m.m.m.m.m.m.m.m.m.m.m.j.m.b.m.m.h.c.p.+ J q.2.,.:.1.1.1.1.1.1.1.1.1.1.1.1.1.1.1.1.1.",
"m.m.m.m.m.m.m.m.m.m.m.m.x.m.b.b.m.x.n.t.# _ ;.2.,.1.1.=.1.1.1.1.1.1.1.1.1.,.=.1.,.1.1.",
"m.m.m.m.m.m.m.m.m.m.m.m.j.c.b.m.m.n.x.d 3 7.q.<.,.1.=.$.,.1.1.1.1.1.1.1.1.1.1.1.1.1.1.",
"m.m.m.m.m.m.m.m.m.m.m.m.x.c.m.m.b.n.k.% l 8.Y I ,.:.$.:.1.1.,.1.1.1.1.1.1.1.,.1.1.1.1.",
"m.m.m.m.m.m.m.m.m.m.m.c.x.x.m.m.n.m.n.  Z 8.Y I 2.$.$.4.1.1.,.1.,.1.1.1.1.,.1.1.&.1.1.",
"m.m.m.m.m.m.m.m.m.m.m.m.h.c.n.v.n.m.n.  D 6.<.2.&.1.$.=.1.1.=.1.=.1.,.1.1.=.1.1.1.1.1.",
"m.m.m.m.m.m.m.m.m.m.m.c.j.m.m.b.n.m.k.O n ' ;.2.,.1.:.$.1.1.1.1.1.1.1.1.1.,.1.,.1.1.1.",
"m.m.m.m.m.m.m.m.m.m.m.m.x.c.n.m.m.m.k.6 r _ Y 2.,.=.1.,.1.1.1.1.1.1.1.1.1.=.1.1.1.1.1.",
"m.m.m.m.m.m.m.m.m.m.m.m.c.c.b.m.m.c.x.C : [ O.2.5.,.1.=.1.1.1.1.,.=.1.1.1.1.1.1.1.1.1."
};
