/* XPM */
static char *tile0711719244615[] = {
/* columns rows colors chars-per-pixel */
"43 43 192 2 ",
"   c #5188FF",
".  c #5187FF",
"X  c #4F87FE",
"o  c #4F87FF",
"O  c #5086FF",
"+  c #5285FF",
"@  c #4F88FC",
"#  c #4D88FE",
"$  c #5188FD",
"%  c #4F88FB",
"&  c #5087FE",
"*  c #4F88F9",
"=  c #5087FB",
"-  c #5088F9",
";  c #5088F7",
":  c #4F89F5",
">  c #5088F5",
",  c #4F89F4",
"<  c #4F8AF2",
"1  c #4D8BF2",
"2  c #5287FB",
"3  c #5287F9",
"4  c #4D8BF0",
"5  c #5286FC",
"6  c #4D8AF4",
"7  c #5286FE",
"8  c #5087FC",
"9  c #4D89F7",
"0  c #4D8AF5",
"q  c #4C8BF5",
"w  c #5385FF",
"e  c #5286FF",
"r  c #4D89FB",
"t  c #4C8AFB",
"y  c #4C8AF9",
"u  c #4C89FE",
"i  c #4C89FC",
"p  c #5385FE",
"a  c #4D88FF",
"s  c #4C88FF",
"d  c #5386FC",
"f  c #4D87FF",
"g  c #5287F7",
"h  c #5188FC",
"j  c #5288F5",
"k  c #5288F4",
"l  c #5089FD",
"z  c #5089FC",
"x  c #4E8AFC",
"c  c #4E89FD",
"v  c #5088FF",
"b  c #5387FF",
"n  c #5387FD",
"m  c #5388FA",
"M  c #5387F4",
"N  c #5388F2",
"B  c #4D88FC",
"V  c #4D8DF7",
"C  c #498EF5",
"Z  c #4A8DF8",
"A  c #4C8CFA",
"S  c #5184FF",
"D  c #5284FF",
"F  c #5A8AFF",
"G  c #5384FD",
"H  c #5283FC",
"J  c #5889FF",
"K  c #5A8BFF",
"L  c #5486F9",
"P  c #5084F4",
"I  c #5284F5",
"U  c #5A8AF9",
"Y  c #5386F3",
"T  c #4F84EC",
"R  c #568FF6",
"E  c #4B86EE",
"W  c #5591FF",
"Q  c #4A82F9",
"!  c #568AFF",
"~  c #4A8EF3",
"^  c #498FF1",
"/  c #4A8DF5",
"(  c #5788FF",
")  c #5788FE",
"_  c #5284F7",
"`  c #5385F8",
"'  c #598BFE",
"]  c #5B8DFF",
"[  c #4C7BED",
"{  c #6797FF",
"}  c #5489F3",
"|  c #4E87F0",
" . c #4781ED",
".. c #5089FA",
"X. c #5084FA",
"o. c #5786FC",
"O. c #4E8BF5",
"+. c #4D8CF3",
"@. c #4E8BF6",
"#. c #5388FC",
"$. c #588CFC",
"%. c #588CFA",
"&. c #5387F5",
"*. c #4E81F4",
"=. c #4D80F6",
"-. c #4F81FC",
";. c #5182FB",
":. c #5786FA",
">. c #5584F6",
",. c #4C7FF2",
"<. c #6296FF",
"1. c #5288FF",
"2. c #608FFF",
"3. c #587FE6",
"4. c #5189F8",
"5. c #5189F6",
"6. c #5189FA",
"7. c #528AF9",
"8. c #4E86F3",
"9. c #5389F5",
"0. c #5C92FF",
"q. c #5B8FFF",
"w. c #5285FA",
"e. c #5E8DFF",
"r. c #628EFB",
"t. c #5682ED",
"y. c #5082F1",
"u. c #5A8CFF",
"i. c #4F80FF",
"p. c #5982F4",
"a. c #6183DC",
"s. c #5485FE",
"d. c #5485FC",
"f. c #5386FB",
"g. c #508AF8",
"h. c #538DFB",
"j. c #5488F8",
"k. c #5385F6",
"l. c #5383F2",
"z. c #5480E9",
"x. c #5D84DF",
"c. c #638CE4",
"v. c #5F8DEF",
"b. c #4476E7",
"n. c #5485FF",
"m. c #5B8AFF",
"M. c #5179E8",
"N. c #7491DD",
"B. c #5484FF",
"V. c #5683FF",
"C. c #5386F9",
"Z. c #518AF5",
"A. c #508BF3",
"S. c #4D86F7",
"D. c #568FFF",
"F. c #578CFE",
"G. c #4E80F1",
"H. c #5483ED",
"J. c #648FF5",
"K. c #628DEB",
"L. c #587ED1",
"P. c #6B8CCF",
"I. c #4062A2",
"U. c #4670BC",
"Y. c #5583E3",
"T. c #6191FF",
"R. c #5E8EFF",
"E. c #5379E6",
"W. c #4462AA",
"Q. c #5386FF",
"!. c #5282FF",
"~. c #5283FF",
"^. c #508BF1",
"/. c #4E8CEF",
"(. c #4E8CF3",
"). c #4E8AF8",
"_. c #487FF4",
"`. c #4F83FB",
"'. c #5988FE",
"]. c #608AFA",
"[. c #6187E8",
"{. c #5C81D2",
"}. c #5477B9",
"|. c #506EA0",
" X c #001237",
".X c #001032",
"XX c #000935",
"oX c #083579",
"OX c #4878E4",
"+X c #5F89F7",
"@X c #3253A0",
"#X c white",
/* pixels */
"                                                                                      ",
"                                                                                      ",
"                                                                                      ",
"                                                                                      ",
"                                                                                      ",
"                                                                                      ",
"                                                                                      ",
"                                                                                      ",
"                                                                                      ",
"                                                                                      ",
"                                                                                      ",
"                                                                                      ",
"                                                                                      ",
"                                                                                      ",
"                                                                                      ",
"                                                                                      ",
"                                                                                      ",
"                                                                                      ",
"                                                                                      ",
"                                                                            . . . . . ",
"                                                                      X X o o O O + + ",
"                                                                      @ # o o O O + + ",
"                                                                    $ % % @ @ & & O O ",
"                                                                    $ % * * * = = = = ",
"                                                                    $ - ; ; ; : : : : ",
"                                                                    $ - ; ; > , < < 1 ",
"                                                                    $ 2 3 ; > , < 1 4 ",
"                                                                      5 2 - ; : 6 1 1 ",
"                                                                      7 7 8 = * 9 0 q ",
"                                                                      w e 7 X @ r t y ",
"                                                                      w e e o X # u i ",
"                                                                      p 7 7 o o a s s ",
"                                                                    $ d 2 5 X o f s s ",
"                                                                    $ 3 g = @ o f s a ",
"                                                                    h j k ; % X a a # ",
"                                    l z x c l v   . b b b b b n n n m M N k > * B a X ",
"                                    x V C Z A B o S D F G H J K L P I U Y T R E W Q ! ",
"                                    x ~ ^ / A B o S D H ( ) _ ` ' ] ' [ { } |  ...X.o.",
"                                    z O.+.@.x X O O 7 #.$.%.&.*.=.-.;.:.>.,.<.1.e 2.3.",
"                                    $ 4.5.6.= 8 & 8 = 7.8.9.0.q.w.G e.r.t.y.u.D i.p.a.",
"                                    b s.d.f.3 g 4.g.g.h.g.; g j.k.l.z.x.c.v.b.n.m.M.N.",
"                                    b B.V.s.C.Z.A.O.@.S.D.F.G.H.J.K.L.P.I.U.Y.T.R.E.W.",
"                                    Q.!.~.e ; ^./.(.)._.`.'.].[.{.}.|. X.XXXoXOXG +X@X"
};
