/* XPM */
static char *tile0721719244615[] = {
/* columns rows colors chars-per-pixel */
"43 43 228 2 ",
"   c #000702",
".  c #00110A",
"X  c #000316",
"o  c #000B13",
"O  c #00031C",
"+  c #000C1B",
"@  c #02121E",
"#  c #000125",
"$  c #000B23",
"%  c #00032C",
"&  c #010C2D",
"*  c #080A2C",
"=  c #001224",
"-  c #00152E",
";  c #071527",
":  c #11132C",
">  c #000332",
",  c #000C34",
"<  c #00043B",
"1  c #010D3A",
"2  c #02123C",
"3  c #03183A",
"4  c #0C1B3A",
"5  c #061533",
"6  c #1A213D",
"7  c #1E3239",
"8  c #2B393B",
"9  c #202539",
"0  c #000B43",
"q  c #000242",
"w  c #001343",
"e  c #00124A",
"r  c #0B1D45",
"t  c #001C55",
"y  c #141F55",
"u  c #192647",
"i  c #162456",
"p  c #1C305B",
"a  c #0E2149",
"s  c #232D49",
"d  c #2B3847",
"f  c #2D3956",
"g  c #323457",
"h  c #0D2963",
"j  c #1A346A",
"k  c #152E74",
"l  c #1C2E70",
"z  c #162F71",
"x  c #253167",
"c  c #233B73",
"v  c #253879",
"b  c #30425A",
"n  c #1B4963",
"m  c #2A447A",
"M  c #344777",
"N  c #3E557F",
"B  c #2D4A6C",
"V  c #40494E",
"C  c #414F50",
"Z  c #475A58",
"A  c #556759",
"S  c #4C576A",
"D  c #565F6E",
"F  c #495873",
"G  c #565C76",
"H  c #566563",
"J  c #707A7B",
"K  c #293E81",
"L  c #1C4289",
"P  c #3D5A8D",
"I  c #3C5291",
"U  c #395799",
"Y  c #304989",
"T  c #3A6494",
"R  c #3A5DA8",
"E  c #3F5EB1",
"W  c #3F61A1",
"Q  c #475C88",
"!  c #465993",
"~  c #48609D",
"^  c #677588",
"/  c #6D7191",
"(  c #455DA1",
")  c #4F6CAF",
"_  c #4866A8",
"`  c #576BA5",
"'  c #4F6AB3",
"]  c #4460B3",
"[  c #5D7BBC",
"{  c #5772BA",
"}  c #5B77A7",
"|  c #6D7FAD",
" . c #6579BC",
".. c #3B76DE",
"X. c #3E79EF",
"o. c #516BC0",
"O. c #567AC9",
"+. c #4E74DC",
"@. c #4A79D6",
"#. c #567DD6",
"$. c #4B6ED6",
"%. c #657DC9",
"&. c #4B7BED",
"*. c #457AE6",
"=. c #567CE3",
"-. c #547CEA",
";. c #5A7FE9",
":. c #4377F4",
">. c #467CF4",
",. c #4A7EF2",
"<. c #4C7EFA",
"1. c #4579FC",
"2. c #527BF0",
"3. c #517EFC",
"4. c #73908C",
"5. c #748894",
"6. c #7D84B8",
"7. c #3F80F4",
"8. c #5C88CC",
"9. c #5E84D6",
"0. c #5C81DB",
"q. c #5D8ADD",
"w. c #5486D7",
"e. c #4985CF",
"r. c #6A84C7",
"t. c #6A84CD",
"y. c #6C8ACB",
"u. c #6484C7",
"i. c #7188CE",
"p. c #6387D4",
"a. c #6384DD",
"s. c #648BDC",
"d. c #6A8CDD",
"f. c #6C84D6",
"g. c #6D91D8",
"h. c #6EA1CE",
"j. c #4C84EC",
"k. c #4E8CEF",
"l. c #4685E7",
"z. c #5582E4",
"x. c #5D86E3",
"c. c #5584EC",
"v. c #5B84EC",
"b. c #538AEC",
"n. c #5C8BEC",
"m. c #5E8BE6",
"M. c #4B83F5",
"N. c #4C8AF5",
"B. c #4685FC",
"V. c #4D85FC",
"C. c #4D89FC",
"Z. c #4684F8",
"A. c #5384F5",
"S. c #5A85F3",
"D. c #5289F5",
"F. c #5A8AF2",
"G. c #5386FE",
"H. c #5A84FC",
"J. c #5289FE",
"K. c #5A8CFD",
"L. c #5692FF",
"P. c #5A92FF",
"I. c #5C99FF",
"U. c #5899F7",
"Y. c #5794E5",
"T. c #6486E3",
"R. c #6689E6",
"E. c #708FE7",
"W. c #6592EE",
"Q. c #6D91EC",
"!. c #6795E8",
"~. c #7492E4",
"^. c #648BF4",
"/. c #628BFD",
"(. c #658BF2",
"). c #6493FC",
"_. c #6B9CFF",
"`. c #70A2FF",
"'. c #838A9C",
"]. c #87919A",
"[. c #82828A",
"{. c #88A39E",
"}. c #8B8FAC",
"|. c #8F97AB",
" X c #93A2BF",
".X c #A2A7B6",
"XX c #8495C0",
"oX c #9CADC6",
"OX c #A2ADC1",
"+X c #ADB4CE",
"@X c #B4BEE1",
"#X c #B6C7C9",
"$X c #BCC5D4",
"%X c #BDCCE3",
"&X c gray81",
"*X c #CBD3D3",
"=X c #D7E4DD",
"-X c #E1EDDF",
";X c #CBD5EA",
":X c #D7DEF0",
">X c #CECBE7",
",X c #DFE2F5",
"<X c #D0E6E4",
"1X c #ECEDED",
"2X c #E7E9E6",
"3X c #F4ECE7",
"4X c #ECF2ED",
"5X c #ECFBEB",
"6X c #F2F4EC",
"7X c #FAF4ED",
"8X c #F3FDEC",
"9X c #FCFDED",
"0X c #FBFAE5",
"qX c #EEE4F7",
"wX c #ECE5FF",
"eX c #EAEBF9",
"rX c #F7ECF6",
"tX c #ECF3FF",
"yX c #EDFAFC",
"uX c #E6F6F6",
"iX c #F4F4F4",
"pX c #FFF4F6",
"aX c #F4FEF3",
"sX c #FCFEF4",
"dX c #F3F3FD",
"fX c #FCF5FD",
"gX c #F5FEFE",
"hX c #FEFEFE",
/* pixels */
"J.J.J.V.J.J.J.J.J.J.J.J.J.J.J.J.J.J.J.V.J.J.J.J.G.G.G.G.D.D.J.J.M.K.V.G.K.H.S.0.Q O hX",
"J.J.J.J.J.J.J.J.J.J.J.V.J.J.J.V.J.J.J.J.J.V.J.J.G.G.G.G.D.D.D.C.M.L.K.G.G.K.G.R.! O ;X",
"J.J.J.J.J.J.V.J.G.V.J.J.J.J.J.J.V.G.J.J.J.J.J.J.J.G.J.J.D.D.N.D.J.J.J.G.<.G.G.R.c 5 gX",
"J.V.J.J.J.J.J.J.J.J.J.J.G.V.J.G.J.J.J.J.J.J.C.C.G.G.G.J.G.D.D.N.J.M.G.J.G.J.J.S.%.%  X",
"G.J.J.J.J.J.J.J.J.D.J.J.G.G.G.J.G.J.M.D.V.Z.L.C.B.J.G.H.H.H.V.V.C.J.D.F.K.J.B.B.R.k % ",
"V.J.J.J.V.J.J.J.J.J.J.J.G.G.G.J.J.K.V.D.I.C.j.Z.B.1.,././.H.V.B.C.M.c.n.F.C.C.C./.E 0 ",
"J.J.V.J.J.J.J.G.J.G.G.J.J.J.C.D.M.V.L.G.*.V.K.P.L.K.K.S.,.H.J.C.J.C.M.n.D.D.V.J.+.f.M ",
"J.J.J.J.J.J.J.V.G.G.G.D.D.D.L.C.V.K.V.J.J.K.K.&.z.n.F.c.H.K.J.V.C.C.D.P.F.A.A.b.Q.r.w ",
"J.J.J.J.J.J.J.J.G.G.H.A.k.k.k.N.M.I.1.G._.2.S.(.#.9.x.c.K.J.:.P.V.V.N.C.D.c.v.R. .P O ",
"J.V.J.J.J.J.J.G.G.G.G.D.k.k.k.N.V.G.G.H.-.;.Q.] h Y p.n.A.J.>.K.J.C.C.N.F.n.T.%.F = ].",
"J.J.J.J.V.J.J.J.H.G.D.D.k.N.N.C.L.:././.T.E.U 0 1 > R !.A.L.J.,.J.L.N.Z.D.m.' M = H gX",
"J.J.V.J.G.J.J.G.G.H.G.D.N.N.C.V.<.J./.$.~.( > ^ dXs j s.j.M.K.J.V.C.C.N.Y.O.K # #XgX4X",
"J.J.J.J.J.J.J.G.G.H.A.M.J.C.V.G.1./.+.E.~ # ^ gXhXtX1 R n.J.M.K.J.D.P.j.#.g.% }.gXgXhX",
"V.G.J.J.G.J.J.J.K.G.G.G.K.J.G.G.K.;.E.( % ^ 5X8XiXgXa v x.M.J.G.,.P...Y.!.c * ;XgXhXhX",
"J.J.J.V.V.J.J.G.K.G.G.J.J.G.G.H.v.T.' 1 S aX9X9X7XhXu j q.c.P.G.V.D.b.9.P % }.iXhXsXhX",
"J.J.J.J.J.J.J.J.K.G.G.J.J.3.3.(.R._ > F gXsX9X0X9XhX& M d.v.A.J.L.*.W.8.< F hXiXsXsXsX",
"J.V.G.J.V.J.J.D.J.V.J.G.3.H.^.s. .% f gXhXsXsXsXsXgX+ M t.x.,.G.V.F.O._ $ eXhXhXsX9XsX",
"J.J.J.J.J.J.J.J.C.V.J.H.3.^.T.' 2 d gXaXhXpXhXhXhXgXS r ) a.K.J.M.).s.i s gX4XsXsXhXsX",
"J.J.J.J.J.J.J.C.C.Z.G.G.2.^.{ j - gX8X8XsXhXfXfXgXgX$X# I T./.V.G.n.t.# '.2XaXhXhXhXhX",
"J.G.J.J.J.J.G.C.J.V.J.G.3.R.U % uX5X5XsXhXqXfXfXhXtXgX% v T.&.J.G.x.c 4 hXhXiXhXhXhXhX",
"G.G.G.G.G.A.D.D.j.K.L.B.P.=.0 oXyXA . 8 yXgXfXfXhXgX%X& O.v.A.G.=.i.% .XsXsX2XhXhXhXhX",
"G.V.G.G.G.D.D.A.H.M.Z.7.P.^.< b C   7 o <XgXfXhXhX:X4 h q.F./.2.;.l 6 hXsX6XsXhXhXhXhX",
"J.V.G.V.G.D.M.F.J.D.l.I.&.=.( < ; D / + $XhX2XfXqX& t y.#.F.2.^.{ < +XhX6X9XhX4XhXhXhX",
"G.J.V.A.D.N.D.D.J.N.U.l.v.Q. .6./ G s + uX=XhXdXf w [ s.W.c.v.T.k x gXiXsXsX6XhXhXhXhX",
"N.M.N.C.D.C.C.J.V.J.l.e.!.y.` i % % * OXgXgXeXg < y.p.#.).n.0._ > @XdXhXhXsXsXhXhXhXhX",
"N.N.N.C.C.V.C.V.V.M.Y.e.y.P # g >XwXhXgXyXdX.X% ) T.z.).c.v.9.h M gXdXfXfXhXsX4XhXhXhX",
"N.N.N.C.C.C.V.V.P.1.w.h.n 3 ^ dXwXfXdXhXgXgXu v 9.`.F.&.^.#.8.# ;XdXfXfXhXiX6XhXhXhXhX",
"N.N.N.C.C.V.V.J.1.).8.n @ 4.gXhXfXhXfXeXgXtX> { Y.M.J.H.v.s.P - gXhXrXhXhXhXsXaXhXhXhX",
"C.N.C.C.<.J.P.V.<.-.T o {.gX2XhXhXfXhXhXhX|.> t.)...J.H.T.o.p ; gXhXhXhXhXhXsXsXhXhXhX",
"L.C.C.P.P.V.>.<.S.s.& 4.gX-XsXdXhXfXhXhXaX]., t.@._.S.+.R 0 u *XhXsXhXhXhXgXhXaXhXhXhX",
"Z.L.C.>.G.A.H./.!.L = aX5XhXhXfXfXfXfXhX8XJ - r.(.c.=.O.q XXyXgXsXsXhXhXhXhXaXhXhXhXhX",
"C.K.A.M.F.K.F.#.[ 3 Z 8X6XhXdXgXhXhXhXhX7XH 5 r.#.v.O.k p yXhXiXhXfXhXhXhXhXhXhXhXhXhX",
"C.M.P.).c.z.W.g.} + &XsXhXrXhXdXgXgXhXhXsXV r i.f.E.i.1 OXtXhXhXhXhXhXhXgXhXhXhXhXhXhX",
"Z.M.D.z.w.!.9.R % d 6X3XpXfXhXgXgXgXhXhXhX8 i i.~.%.x # dXhXfXpXhXhXhXhXhXhXgXgXhXhXhX",
"J.P.@.w.!.9.L w M hXfXpXhXrX1XyXaX8XsXhXhX6 h %.%.! 4 ].hXsX3XhXfXfXhXhXsXhXhXhXhXhXhX",
"M.K.z.0.{ t e 6.gXdXhXpXrXhXgXaXaXsXsXfXhX: y  .x 2 G gXsXsXfXhXhXhXhXhXhXhXgXgXhXhXhX",
"G.v.E.I # f wXfXhXhXhXhXhXhXhXhXhXsXiXhXfX[.; X s .XgXhXhXhXhXhXhXhXhXhXhXhXhXhXhXhXhX",
"=.R.K 1 / wXqXhXhXhXhXhXhXhXhXhXiXhXdXsXhX3X&X&X6XfXhXiXhXhXiXhXhXhXhXhXhXhXhXhXhXhXhX",
"~.! % |.fXhXhXsXhXhXhXhXhXhXhXhXhXhXhXiXiXhXhXhXhXhXiXiXhXhXiXhXhXhXhXhXhXhXhXhXhXhXhX",
"` O }.hXdXgXaX8XhXhXhXhXhXhXhXhXhXiXhXhXhXiXiXiX1XfXiXfXhXhXhXhXhXhXhXhXhXhXhXhXhXhXhX",
"3 8 hX1XhXhX5X8XhXhXhXhXhXhXhXhXhXiXiXhXhXhXhXhXhXhXhXiXhXhXhXiXhXhXhXhXhXhXhXhXhXhXhX",
"X sX3X7XhXiXaX8XhXhXhXhXhXhXhXhXhXhXhXiXiXhXhXhXiXiXhXhXhXhXhXiXhXhXhXhXhXhXhXhXhXhXhX",
"= hXsXfXqXfXgX8XhXhXhXhXhXhXhXhXhXhXhXiXhXhXhXiXhXhXhXhXiXiXhXhXhXhXhXhXhXhXhXhXhXhXhX"
};
