/* XPM */
static char *tile0731719244615[] = {
/* columns rows colors chars-per-pixel */
"43 43 103 2 ",
"   c #000302",
".  c #010A00",
"X  c #00010D",
"o  c #040C0A",
"O  c #080D09",
"+  c #061005",
"@  c #010310",
"#  c #040914",
"$  c #0A0D16",
"%  c #01031C",
"&  c #000C19",
"*  c #0C0F18",
"=  c #0E121C",
"-  c #10141C",
";  c #131D1C",
":  c #000422",
">  c #000528",
",  c #011121",
"<  c #0D192B",
"1  c #141622",
"2  c #1A1D25",
"3  c #1D1F2B",
"4  c #000436",
"5  c #000A34",
"6  c #0F1434",
"7  c #0A1B35",
"8  c #1E2132",
"9  c #262B25",
"0  c #22252E",
"q  c #2A2D32",
"w  c #2A2C39",
"e  c #000F42",
"r  c #041A4B",
"t  c #1C2546",
"y  c #1C2D58",
"u  c #2D3245",
"i  c #2F3F4E",
"p  c #3B3D49",
"a  c #263353",
"s  c #25345D",
"d  c #34437A",
"f  c #454445",
"g  c #42454E",
"h  c #454754",
"j  c #464A56",
"k  c #484B54",
"l  c #515459",
"z  c #5C6248",
"x  c #575F62",
"c  c #435677",
"v  c #4E5B7E",
"b  c #555F7A",
"n  c #6F7279",
"m  c #747476",
"M  c #3D5699",
"N  c #425081",
"B  c #566495",
"V  c #657189",
"C  c #6D7EB6",
"Z  c #6579C2",
"A  c #687CC3",
"S  c #7A8194",
"D  c #6D81BC",
"F  c #7485B1",
"G  c #7082C2",
"H  c #7888C6",
"J  c #7688C8",
"K  c #728AD0",
"L  c #888785",
"P  c #88898E",
"I  c #899088",
"U  c #868B9E",
"Y  c #8F929B",
"T  c #9FA19C",
"R  c #818EA1",
"E  c #979AA1",
"W  c #A6AAAB",
"Q  c #B4B8B9",
"!  c #CDD2D5",
"~  c #DEDDEA",
"^  c #DDE7E8",
"/  c #EBEBE5",
"(  c #E6EAED",
")  c #EBEDEC",
"_  c #F0EDE4",
"`  c #ECF1ED",
"'  c #F4F3ED",
"]  c #FBF9EB",
"[  c #EBEBF5",
"{  c #E6EEFB",
"}  c #E9EFFF",
"|  c #F4EEF8",
" . c #EDF2F3",
".. c #E7F0FF",
"X. c #ECF5FA",
"o. c #F4F4F5",
"O. c #FBF7F4",
"+. c #F6F9F5",
"@. c #FCFEF4",
"#. c #F4F5FB",
"$. c #FAF5FB",
"%. c #F6FBFB",
"&. c #FFFFFF",
/* pixels */
"X.&./ / @.@.&.&.&.$.o.$.&.&.&.&.&.&.&.&.&.&.&.&.&.&.&.&.&.&.&.&.&.&.&.&.&.&.&.&.&.&.&.",
"#.X.%.&.o.+.@.&.&.&.&.&.&.&.&.&.&.&.&.&.&.&.&.&.&.&.&.&.&.&.&.&.&.&.&.&.&.&.&.&.&.&.&.",
"%.X.  9 &.@.&.$.$.$.&.&.&.&.&.&.&.&.&.&.&.&.&.&.&.&.&.&.&.&.&.&.&.&.&.&.&.&.&.&.&.&.&.",
"X.; + . I  .&...R 8 2 P &.&.&.&.&.&.&.&.&.&.&.&.&.&.&.&.&.&.&.&.&.&.&.&.&.&.&.&.&.&.&.",
"& . . . . i c 4 e y a @ x &.&.O.&.@.+.@.+.&.&.&.&.&.&.&.&.&.&.&.&.&.&.&.&.&.&.&.&.&.&.",
",   z . o 7 r M K D F V X 2 ) [ ` %.&.&.&.@.@.&.&.&.&.&.&.&.&.&.&.&.&.&.&.&.&.&.&.&.&.",
": ! @.T # v C A Z G B t u = o W %. .&.@.&.&.@.&.&.&.&.$.&.&.&.&.&.&.&.&.&.&.&.&.&.&.&.",
"b [ $.%.j : N H J d 5 6 & X q   Q &. .&.&.@.&.&.&.&.&.&.&.&.&.&.&.&.&.&.&.&.&.&.&.&.&.",
"..&.@.) &.S % 5 s > % &.#.3 0 2 l ( &.%.&.@.&.&.&.&.&.&.&.&.&.&.&.&.&.&.&.&.&.&.&.&.&.",
"%.' ' O.&.%.} S 7 < 1 n &.Y # k = &.) #.&.&.&.&.&.&.&.&.$.&.&.&.&.&.&.&.&.&.&.&.&.&.&.",
"$.@.&.' +.&. .&.^     f $.[ # p $ #.&.%.#.&.&.&.&.&.&.&.&.&.&.&.&.&.&.&.&.&.&.&.&.&.&.",
"&.$.$.&.$.&.%.( &.O   L o.#.X h = %.&.%.&.&.&.&.&.&.&.&.&.&.&.&.&.&.&.&.&.&.&.&.&.&.&.",
"&.$.&.$.&.$.&.o.&.m f | $.[ X w 2 &.X.&.%.&.&.&.&.&.&.$.$.&.&.&.&.&.&.&.&.&.&.&.&.&.&.",
"&.$.$.$.$.&.$.o.&.&.$.$.$.~ X 1 g %.&.&.o.&.&.&.&.&.&.&.&.&.&.&.&.&.&.&.&.&.&.&.&.&.&.",
"&.&.$.&.&.&.&.@./ &.&.) &.~ X $ E %.&. .&.&.&.&.&.&.&.&.&.&.&.&.&.&.&.&.&.&.&.&.&.&.&.",
"@.&.&.&.&.O.@.@.] ' O.&.o.&.X - X.&.%.&.&.@.&.&.&.&.&.&.&.&.&.&.&.&.&.&.&.&.&.&.&.&.&.",
"@.+.+.@.@.] ] ] ] ] ' @.`  .&. .&.o.&.o.+.&.@.&.&.&.&.&.&.&.&.&.&.&.&.&.&.&.&.&.&.&.&.",
"@.@.@.@.@.@.@.@.@./ / ' @.&. .#.&.#.o.&.+.&.&.&.&.&.&.&.$.&.&.&.&.&.&.&.&.&.&.&.&.&.&.",
"%.%.%.&.@.@.o.$.$.&.&.$.&.&. .&.&.%.` @.&.@.@.&.@.&.&.&.&.&.&.&.&.&.&.&.&.&.&.&.&.&.&.",
"&.%.%.%.&.&.&.&.&.#.[ &.X.&.@.&. .&.@.&.&.@.&.&.&.&.&.&.&.&.&.&.&.&.&.&.&.&.&.&.&.&.&.",
"&.&.&.&.&.&.&.&.&.&.&.&.&.&.&.&.&.&.&.&.@.&.&.&.&.&.&.&.&.&.&.&.&.&.&.&.&.&.&.&.&.&.&.",
"&.&.&.&.&.&.&.&.&.&.&.&.&.&.&.&.&.&.&.&.&.&.&.&.&.&.&.&.&.&.&.&.&.&.&.&.&.&.&.&.&.&.&.",
"&.&.&.&.&.&.&.&.&.&.&.&.&.&.&.&.&.&.&.&.&.&.&.&.&.&.&.&.&.&.&.&.&.&.&.&.&.&.&.&.&.&.&.",
"&.&.&.&.&.&.&.&.&.&.&.&.&.&.&.&.&.&.&.&.&.&.&.&.&.&.&.&.&.&.&.&.&.&.&.&.&.&.&.&.&.&.&.",
"&.&.&.&.&.&.&.&.&.&.&.&.&.&.&.&.&.&.&.&.&.&.&.&.&.&.&.&.&.&.&.&.&.&.&.&.&.&.&.&.&.&.&.",
"&.&.&.&.&.&.&.&.&.&.&.&.&.&.&.&.&.&.&.&.&.&.&.&.&.&.&.&.&.&.&.&.&.&.&.&.&.&.&.&.&.&.&.",
"&.&.&.&.&.&.&.&.&.&.&.&.&.&.&.&.&.&.&.&.&.&.&.&.&.&.&.&.&.&.&.&.&.&.&.&.&.&.&.&.&.&.&.",
"&.&.&.&.&.&.&.&.&.&.&.&.&.&.&.&.&.&.&.&.&.&.&.&.&.&.&.&.&.&.&.&.&.&.&.&.&.&.&.&.&.&.&.",
"&.&.&.&.&.&.&.&.&.&.&.&.&.&.&.&.&.&.&.&.&.&.&.&.&.&.&.&.&.&.&.&.&.&.&.&.&.&.&.&.&.&.&.",
"&.&.&.&.&.&.&.&.&.&.&.&.&.&.&.&.&.&.&.&.&.&.&.&.&.&.&.&.&.&.&.&.&.&.&.&.&.&.&.&.&.&.&.",
"&.&.&.&.&.&.&.&.&.&.&.&.&.&.&.&.&.&.&.&.&.&.&.&.&.&.&.&.&.&.&.&.&.&.&.&.&.&.&.&.&.&.&.",
"&.&.&.&.&.&.&.&.&.&.&.&.&.&.&.&.&.&.&.&.&.&.&.&.&.&.&.&.&.&.&.&.&.&.&.&.&.&.&.&.&.&.&.",
"&.&.&.&.&.&.&.&.&.&.&.&.&.&.&.&.&.&.&.&.&.&.&.&.&.&.&.&.&.&.&.&.&.&.&.&.&.&.&.&.&.&.&.",
"&.&.&.&.&.&.&.&.&.&.&.&.&.&.&.&.&.&.&.&.&.&.&.&.&.&.&.&.&.&.&.&.&.&.&.&.&.&.&.&.&.&.&.",
"&.&.&.&.&.&.&.&.&.&.&.&.&.&.&.&.&.&.&.&.&.&.&.&.&.&.&.&.&.&.&.&.&.&.&.&.&.&.&.&.&.&.&.",
"&.&.&.&.&.&.&.&.&.&.&.&.&.&.&.&.&.&.&.&.&.&.&.&.&.&.&.&.&.&.&.&.&.&.&.&.&.&.&.&.&.&.&.",
"&.&.&.&.&.&.&.&.&.&.&.&.&.&.&.&.&.&.&.&.&.&.&.&.&.&.&.&.&.&.&.&.&.&.&.&.&.&.&.&.&.&.&.",
"&.&.&.&.&.&.&.&.&.&.&.&.&.&.&.&.&.&.&.&.&.&.&.&.&.&.&.&.&.&.&.&.&.&.&.&.&.&.&.&.&.&.&.",
"&.&.&.&.&.&.&.&.&.&.&.&.&.&.&.&.&.&.&.&.&.&.&.&.&.&.&.&.&.&.&.&.&.&.&.&.&.&.&.&.&.&.&.",
"&.&.&.&.&.&.&.&.&.&.&.&.&.&.&.&.&.&.&.&.&.&.&.&.&.&.&.&.&.&.&.&.&.&.&.&.&.&.&.&.&.&.&.",
"&.&.&.&.&.&.&.&.&.&.&.&.&.&.&.&.&.&.&.&.&.&.&.&.&.&.&.&.&.&.&.&.&.&.&.&.&.&.&.&.&.&.&.",
"&.&.&.&.&.&.&.&.&.&.&.&.&.&.&.&.&.&.&.&.&.&.&.&.&.&.&.&.&.&.&.&.&.&.&.&.&.&.&.&.&.&.&.",
"&.&.&.&.&.&.&.&.&.&.&.&.&.&.&.&.&.&.&.&.&.&.&.&.&.&.&.&.&.&.&.&.&.&.&.&.&.&.&.&.&.&.&."
};
