/* XPM */
static char *tile0761719244615[] = {
/* columns rows colors chars-per-pixel */
"43 43 165 2 ",
"   c #000217",
".  c #000A17",
"X  c #00011A",
"o  c #000322",
"O  c #000E20",
"+  c #00042B",
"@  c #00092B",
"#  c #021921",
"$  c #091929",
"%  c #06152C",
"&  c #000335",
"*  c #000932",
"=  c #000139",
"-  c #0C1C35",
";  c #000742",
":  c #000B44",
">  c #00084A",
",  c #001446",
"<  c #00124A",
"1  c #000F50",
"2  c #04195A",
"3  c #0C214C",
"4  c #17224F",
"5  c #082454",
"6  c #102250",
"7  c #1C2B5D",
"8  c #1C2B56",
"9  c #223351",
"0  c #293454",
"q  c #14306F",
"w  c #1F3A69",
"e  c #1C3877",
"r  c #1E397E",
"t  c #263262",
"y  c #2F4054",
"u  c #28486F",
"i  c #30466F",
"p  c #38486C",
"a  c #274079",
"s  c #404972",
"d  c #526176",
"f  c #60757A",
"g  c #244588",
"h  c #31539A",
"j  c #3D5591",
"k  c #3956A4",
"l  c #3E64AB",
"z  c #41599F",
"x  c #455E94",
"c  c #59738E",
"v  c #4A6B9E",
"b  c #4A6B96",
"n  c #7C7B8D",
"m  c #606C92",
"M  c #4D6CAB",
"N  c #5171AC",
"B  c #5473BE",
"V  c #637DB6",
"C  c #697CB7",
"Z  c #3D71E1",
"A  c #4D75CD",
"S  c #5370C2",
"D  c #5C77C6",
"F  c #5E7DCC",
"G  c #5B7CC3",
"H  c #4B76DE",
"J  c #457BDB",
"K  c #537AD4",
"L  c #5C7FD3",
"P  c #537EDD",
"I  c #437BEB",
"U  c #527EE4",
"Y  c #527DEE",
"T  c #4677F0",
"R  c #457EF1",
"E  c #4C7BF3",
"W  c #417FF8",
"Q  c #507CF5",
"!  c #76809B",
"~  c #7C88A0",
"^  c #5D84DA",
"/  c #6482CD",
"(  c #6C83CF",
")  c #7085C8",
"_  c #7391CF",
"`  c #6485D3",
"'  c #6689D1",
"]  c #6486DF",
"[  c #628BDC",
"{  c #728ED7",
"}  c #4F85EE",
"|  c #5682E3",
" . c #5B84E4",
".. c #5783EB",
"X. c #5C84EC",
"o. c #5E8CE4",
"O. c #4C83F3",
"+. c #4786FA",
"@. c #4D85FC",
"#. c #4788FC",
"$. c #4E8AFB",
"%. c #5583F5",
"&. c #5886F2",
"*. c #538AF4",
"=. c #5B8CF4",
"-. c #5386FD",
";. c #5983FF",
":. c #5188FE",
">. c #5B8BFE",
",. c #5790F9",
"<. c #5D93FD",
"1. c #5C9AFF",
"2. c #6185E2",
"3. c #698DE5",
"4. c #6286EC",
"5. c #6489EC",
"6. c #6C8FEB",
"7. c #648CE4",
"8. c #6D93E6",
"9. c #799EEC",
"0. c #7291EB",
"q. c #618CFC",
"w. c #6194F0",
"e. c #6292FE",
"r. c #6299FF",
"t. c #6A9BFF",
"y. c #6B95FB",
"u. c #759FFF",
"i. c #918F9A",
"p. c #9797A3",
"a. c #929BAC",
"s. c #8997B0",
"d. c #9EABB4",
"f. c #A3ADB6",
"g. c #A7BAC0",
"h. c #AEBCD6",
"j. c #D8E1DE",
"k. c #CBD4F5",
"l. c #D0E4E5",
"z. c #DAEEEF",
"x. c #CCE1FC",
"c. c #D8E6FF",
"v. c #EEEFE1",
"b. c #E4E4E4",
"n. c #EBF1ED",
"m. c #F1F5E6",
"M. c #F4F5EC",
"N. c #FEF5EE",
"B. c #F6FFEE",
"V. c #FCFCEE",
"C. c #E5EAFF",
"Z. c #ECEDF1",
"A. c #F4EEF0",
"S. c #ECF4F6",
"D. c #ECF5FC",
"F. c #E7FAF8",
"G. c #ECFCFD",
"H. c #F5F5F4",
"J. c #FFF5F4",
"K. c #F4FAF5",
"L. c #FDFFF5",
"P. c #F3F5FD",
"I. c #FDF6FD",
"U. c #F5FEFE",
"Y. c #FEFFFE",
/* pixels */
"Y.Y.Y.Y.Y.Y.Y.Y.Y.Y.Y.Y.L.Y.I.Y.Y.L.L.g.* ' 4.;.>.@.:.$.-.:.$.-.:.$.-.:.$.-.:.:.:.:.:.",
"Y.Y.Y.Y.Y.Y.Y.Y.Y.Y.Y.Y.L.Y.Y.Y.K.L.K.l.+ / 4.;.-.@.-.:.:.:.:.:.:.:.:.:.:.:.:.:.:.:.:.",
"Y.Y.Y.Y.Y.Y.Y.Y.Y.Y.Y.Y.Y.Y.Y.I.L.V.B.F.+ B 5.%.%.>.@.-.$.:.:.$.$.-.:.:.:.:.:.:.:.$.:.",
"Y.Y.Y.Y.Y.Y.Y.Y.Y.Y.Y.Y.K.Y.I.I.Y.Y.B.U.@ N 5.%.Q >.@.@.-.:.:.-.:.:.-.$.$.-.:.@.:.-.:.",
"Y.Y.Y.Y.Y.Y.Y.Y.Y.Y.Y.Y.Y.Y.I.I.I.I.L.Y.O v 5.Q @.@.>.$.:.@.:.:.:.:.-.-.-.:.-.:.-.$.$.",
"Y.Y.Y.Y.Y.Y.Y.Y.Y.Y.Y.Y.U.Y.I.I.I.I.L.U.. b A Q e.:.I ,.:.:.:.:.$.-.$.:.$.:.$.:.-.:.-.",
"Y.Y.Y.Y.Y.Y.Y.Y.Y.Y.Y.Y.L.U.I.I.I.I.L.K.# u 8.Y -.>.O.*.:.:.:.:.$.:.$.-.:.:.$.-.$.-.$.",
"Y.Y.Y.Y.Y.Y.Y.Y.Y.Y.Y.L.L.L.Y.I.I.I.L.L.f @ 9.U T >.,.} :.:.:.:.-.:.:.:.$.-.:.:.:.:.:.",
"Y.Y.Y.Y.Y.Y.Y.Y.Y.Y.Y.Y.L.B.Y.I.I.L.V.L.z.o h X.>.@.*.*.$.:.:.-.:.-.:.-.:.:.-.:.$.-.-.",
"Y.Y.Y.Y.Y.Y.Y.Y.Y.Y.Y.Y.B.L.Y.I.Y.L.V.B.U.c 1 2.q.E } ,.:.$.$.:.$.-.$.:.-.$.$.:.:.:.$.",
"Y.Y.Y.Y.Y.Y.Y.Y.Y.Y.Y.Y.L.L.Y.I.Y.Y.L.L.G.x.; K ..%.*.>.:.-.-.:.:.:.$.-.:.:.$.:.:.-.:.",
"Y.Y.Y.Y.Y.Y.Y.Y.Y.Y.Y.L.L.L.Y.Y.Y.Y.L.L.U.G.: S X.>.%.O.:.$.:.:.$.-.:.:.:.:.-.:.:.$.:.",
"Y.Y.Y.Y.Y.Y.Y.Y.Y.Y.Y.Y.Y.L.Y.Y.Y.Y.L.Y.Y.c.; S 4.*.*.@.:.:.:.:.-.$.:.:.:.:.:.:.-.$.-.",
"Y.Y.Y.Y.Y.Y.Y.Y.Y.Y.Y.Y.Y.Y.Y.Y.I.Y.Y.Y.U.n & ( ] q.@.-.$.-.$.:.:.:.-.$.:.-.$.:.:.:.:.",
"Y.Y.Y.Y.Y.Y.Y.Y.Y.Y.Y.Y.Y.Y.Y.Y.Y.Y.Y.Y.p.X t ) 0.H -.+.:.:.-.:.:.:.:.:.@.:.-.:.:.-.:.",
"Y.Y.Y.Y.Y.Y.Y.Y.Y.Y.Y.Y.Y.Y.U.Y.Y.Y.Y.Y.i.X s C ` u.Z r.:.@.:.:.:.:.:.:.:.:.$.:.:.$.:.",
"Y.Y.Y.Y.Y.Y.Y.Y.Y.Y.Y.Y.Y.Y.Y.Y.U.Y.Y.Y.Y.n o 7 { K } O.@.:.:.:.:.:.:.:.-.$.:.:.:.-.$.",
"Y.Y.Y.Y.Y.Y.Y.Y.Y.Y.Y.Y.Y.Y.Y.Y.U.Y.L.Y.I.Y.C.* q [ r.$.$.:.$.-.:.:.:.:.-.:.:.:.:.:.:.",
"Y.Y.Y.Y.Y.Y.Y.Y.Y.Y.Y.Y.Y.U.U.U.Y.L.L.Y.Y.I.U.s.< [ J O.$.-.:.:.:.:.:.:.$.:.:.:.-.:.-.",
"Y.Y.Y.Y.Y.Y.Y.Y.Y.Y.Y.Y.I.Y.Y.Y.L.U.L.L.L.I.Y.U.& l w.*.:.:.$.-.:.:.$.:.-.-.:.-.-.:.$.",
"Y.Y.Y.Y.Y.Y.Y.Y.Y.Y.Y.Y.Y.L.Y.U.U.K.L.L.V.Y.H.P.6 g o.*.:.:.:.*.$.$.*.:.-.;.-.;.-.:.:.",
"Y.Y.Y.Y.Y.Y.Y.Y.Y.Y.Y.Y.Y.I.I.U.U.U.L.L.V.L.I.Y.8 e ^ ..&.:.*.$.$.} :.>.;.;.;.;.-.:.$.",
"Y.Y.Y.Y.Y.Y.Y.Y.Y.Y.Y.Y.Y.L.Y.Y.U.U.U.L.V.L.I.I.m < ` ^ *.-.-.$.$.$.:.*.-.;.;.;.-.-.$.",
"Y.Y.Y.Y.Y.Y.Y.Y.Y.Y.Y.Y.L.Y.U.Y.U.U.Y.L.N.L.I.P.k.* M [ &.-.-.$.$.$.-.:.-.;.-.;.-.>.$.",
"Y.Y.Y.Y.Y.Y.Y.Y.Y.Y.Y.Y.Y.L.U.U.U.U.Y.Y.J.L.Y.P.Y.p 5 ' ..-.-.:.$.$.$.$.:.>.-.;.-.-.:.",
"Y.Y.Y.Y.Y.Y.Y.Y.Y.Y.Y.Y.L.Y.Y.U.U.Y.Y.Y.J.Y.J.Y.U.h.o N ..%.-.:.$.$.$.$.:.:.>.%.-.:.-.",
"Y.Y.Y.Y.Y.Y.Y.Y.Y.Y.Y.Y.Y.Y.Y.Y.Y.Y.Y.Y.I.L.J.I.P.U.y w L %.&.-.:.$.$.$.:.:.*.-.>.-.:.",
"Y.Y.Y.Y.Y.Y.Y.Y.Y.Y.Y.Y.Y.L.Y.U.U.Y.Y.Y.I.I.Y.A.Y.Y.d.@ L U %.*.:.$.$.$.*.:.-.-.-.-.@.",
"Y.Y.Y.Y.Y.Y.Y.Y.Y.Y.Y.Y.L.Y.L.U.Y.Y.Y.Y.I.I.Y.Y.H.Y.S.- r 2. ...>.$.+.$.-.*.*.-.-.:.-.",
"Y.Y.Y.Y.Y.Y.Y.Y.Y.Y.Y.Y.Y.L.Y.Y.Y.Y.Y.Y.I.J.L.I.Y.Y.Y.a.= F 3.P <.Z 1.*.$.:.-.-.:.@.@.",
"Y.Y.Y.Y.Y.Y.Y.Y.Y.Y.Y.Y.L.Y.Y.Y.Y.Y.I.Y.Y.Y.Y.I.Y.M.Y.P.* j G ] | <.Z >.@.:.*.-.-.$.-.",
"Y.Y.Y.Y.Y.Y.Y.Y.Y.Y.Y.Y.Y.L.L.Y.L.Y.Y.I.Y.Y.Y.H.L.Y.K.Y.~ + V '  .=.R @.$.-.:.:.:.-.$.",
"Y.Y.Y.Y.Y.Y.Y.Y.Y.Y.Y.Y.Y.Y.Y.L.L.L.Y.Y.Y.H.Y.Y.U.Y.Y.I.P.% u _ ^ ..e.@.-.$.:.:.:.:.@.",
"Y.Y.Y.Y.Y.Y.Y.Y.Y.Y.Y.Y.Y.Y.Y.L.L.L.L.L.Y.n.K.U.P.Y.Y.Y.Y.f.X x L y.>.Q @.-.-.$.:.$.$.",
"Y.Y.Y.Y.Y.Y.Y.Y.Y.Y.Y.Y.Y.Y.L.L.L.L.L.L.K.K.G.Y.P.I.I.Y.M.U.d , S 4.-.Q -.@.:.:.*.$.@.",
"Y.Y.Y.Y.Y.Y.Y.Y.Y.Y.Y.Y.Y.Y.L.Y.L.L.L.L.n.Y.S.P.U.Y.I.L.L.K.U.9 < L ..>.-.@.$.$.$.:.-.",
"Y.Y.Y.Y.Y.Y.Y.Y.Y.Y.Y.Y.Y.Y.Y.Y.Y.Y.Y.Y.Y.Y.Y.Y.Y.Y.Y.Y.Y.M.L.S.$ 3 (  .-.:.#.+.+.O.t.",
"Y.Y.Y.Y.Y.Y.Y.Y.Y.Y.Y.Y.Y.Y.Y.Y.Y.Y.Y.Y.Y.Y.Y.Y.Y.Y.Y.Y.I.Y.v.L.j.X r ] =.@.W #.1.O.E ",
"Y.Y.Y.Y.Y.Y.Y.Y.Y.Y.Y.Y.Y.Y.Y.Y.Y.Y.Y.Y.Y.Y.Y.Y.Y.Y.Y.Y.Y.b.L.m.U.s., S U Q @.$.,.$.E ",
"Y.Y.Y.Y.Y.Y.Y.Y.Y.Y.Y.Y.Y.Y.Y.Y.Y.Y.Y.Y.Y.Y.Y.Y.Y.Y.Y.Y.Z.Y.L.L.L.D.o z 6.=.*.>.} :.>.",
"Y.Y.Y.Y.Y.Y.Y.Y.Y.Y.Y.Y.Y.Y.Y.Y.Y.Y.Y.Y.Y.Y.Y.Y.Y.Y.Y.Y.Y.H.L.B.Y.U.0 = D 7...=.} O.,.",
"Y.Y.Y.Y.Y.Y.Y.Y.Y.Y.Y.Y.Y.Y.Y.Y.Y.Y.Y.Y.Y.Y.Y.Y.Y.Y.Y.Y.Y.U.M.m.M.Y.C.4 > k 7.| <.O.$.",
"Y.Y.Y.Y.Y.Y.Y.Y.Y.Y.Y.Y.Y.Y.Y.Y.Y.Y.Y.Y.Y.Y.Y.Y.Y.Y.Y.Y.U.Y.Y.V.V.Y.Y.P.7 2 L K =.*.$."
};
