/* XPM */
static char *tile0861719244615[] = {
/* columns rows colors chars-per-pixel */
"43 43 207 2 ",
"   c #000200",
".  c #000109",
"X  c #00021A",
"o  c #080719",
"O  c #070D1C",
"+  c #04111B",
"@  c #0F1A1C",
"#  c #000325",
"$  c #000A25",
"%  c #00032D",
"&  c #070A2D",
"*  c #07192C",
"=  c #191A29",
"-  c #000233",
";  c #020B34",
":  c #00033C",
">  c #000C3C",
",  c #001232",
"<  c #06143B",
"1  c #0D153D",
"2  c #091C3A",
"3  c #112A31",
"4  c #273036",
"5  c #000C45",
"6  c #000548",
"7  c #001141",
"8  c #021C43",
"9  c #00184F",
"0  c #0F1D4A",
"q  c #171B4D",
"w  c #041B5B",
"e  c #0F2243",
"r  c #17224B",
"t  c #0B2A59",
"y  c #242749",
"u  c #2B364B",
"i  c #383B4B",
"p  c #253451",
"a  c #3A3C59",
"s  c #011963",
"d  c #091F72",
"f  c #0A2962",
"g  c #152A6B",
"h  c #1A3866",
"j  c #1B2F74",
"k  c #143578",
"l  c #28396B",
"z  c #363869",
"x  c #33445D",
"c  c #294167",
"v  c #22457B",
"b  c #33567E",
"n  c #4C474E",
"m  c #414465",
"M  c #4F5C6D",
"N  c #4B547F",
"B  c #575874",
"V  c #6A7372",
"C  c #707674",
"Z  c #7F867E",
"A  c #254A85",
"S  c #354B95",
"D  c #2F5794",
"F  c #3A5893",
"G  c #304E93",
"H  c #2F4FA2",
"J  c #2C55AF",
"K  c #3D5EBD",
"L  c #485E8F",
"P  c #4D579C",
"I  c #505D92",
"U  c #5F608C",
"Y  c #616B84",
"T  c #6B768C",
"R  c #4A63A6",
"E  c #4570A7",
"W  c #5474AF",
"Q  c #4A6ABA",
"!  c #4F74B8",
"~  c #587AB6",
"^  c #6B70AA",
"/  c #7074B1",
"(  c #687DB6",
")  c #3A7DE6",
"_  c #3C71F5",
"`  c #486EC1",
"'  c #4E77CB",
"]  c #5372CC",
"[  c #516DD1",
"{  c #4C76D5",
"}  c #537DD4",
"|  c #567CDD",
" . c #5578D7",
".. c #6679C5",
"X. c #627BD6",
"o. c #447AE6",
"O. c #4F79E7",
"+. c #4D7EEC",
"@. c #4977E5",
"#. c #547CE3",
"$. c #5A7EE7",
"%. c #427DF5",
"&. c #4F7CF4",
"*. c #467CFC",
"=. c #4C7DFD",
"-. c #4C77F7",
";. c #527DFC",
":. c #507FF1",
">. c #6C8184",
",. c #5983BF",
"<. c #7988A5",
"1. c #7188BC",
"2. c #5F89C8",
"3. c #5D84D3",
"4. c #5D85DC",
"5. c #5888D8",
"6. c #6C8CCE",
"7. c #7188CE",
"8. c #7191CA",
"9. c #6489D5",
"0. c #6084DA",
"q. c #688EDF",
"w. c #648BDC",
"e. c #768ED7",
"r. c #6F93DD",
"t. c #4E84EB",
"y. c #5B85E4",
"u. c #5D8BE7",
"i. c #5485EC",
"p. c #5A85EC",
"a. c #528AEE",
"s. c #5C8AEC",
"d. c #5486E7",
"f. c #5B94ED",
"g. c #4D84F4",
"h. c #4E8BF5",
"j. c #4487FC",
"k. c #4D86FF",
"l. c #478DFC",
"z. c #4D8AFC",
"x. c #5586F5",
"c. c #5B84F2",
"v. c #518AF5",
"b. c #5C8BF4",
"n. c #5386FE",
"m. c #5A84FD",
"M. c #5188FF",
"N. c #5A8BFE",
"B. c #4F94FF",
"V. c #5091FF",
"C. c #5E93FE",
"Z. c #5C97F9",
"A. c #6484E3",
"S. c #628AE4",
"D. c #668AEA",
"F. c #6B8CEB",
"G. c #6986E6",
"H. c #6392E4",
"J. c #618DF2",
"K. c #628DFC",
"L. c #668BF6",
"P. c #6393FD",
"I. c #6891F8",
"U. c #7495F4",
"Y. c #9B9C9E",
"T. c #83969A",
"R. c #838EBB",
"E. c #8687BD",
"W. c #969FBE",
"Q. c #90A5B6",
"!. c #A0A4B0",
"~. c #B3ADB7",
"^. c #ADB1BA",
"/. c #B3B5C1",
"(. c #C0BFCF",
"). c #B9C4D7",
"_. c #CFD3DE",
"`. c #ECEADE",
"'. c #CBD4E5",
"]. c #D4DDE4",
"[. c #CDD7F0",
"{. c #DBEBF9",
"}. c #EFE8E0",
"|. c #EAEFEC",
" X c #F5EEEB",
".X c #FDEFEF",
"XX c #F7EAE8",
"oX c #EBF5E8",
"OX c #FFF3EF",
"+X c #F7FFEA",
"@X c #FCFCED",
"#X c #F5F5EB",
"$X c #E7EFF8",
"%X c #EBECF5",
"&X c #FBEBFF",
"*X c #E9F6F2",
"=X c #EBF4FF",
"-X c #EEF9FE",
";X c #EAF6F1",
":X c #F5F1F3",
">X c #FEF2F1",
",X c #F4FFF5",
"<X c #FCFDF3",
"1X c #F3F4FC",
"2X c #FDF5FD",
"3X c #F4FDFE",
"4X c #FDFEFE",
/* pixels */
"M.M.M.M.M.M.M.M.M.M.M.M.M.M.M.M.M.M.M.M.M.M.M.M.M.M.M.M.M.M.M.M.M.M.M.M.M.M.M.M.M.M.M.",
"M.M.M.M.M.M.M.M.M.M.M.M.M.M.M.M.M.M.M.M.M.k.M.M.M.M.M.M.M.M.M.M.M.M.M.M.M.M.M.M.M.M.M.",
"M.M.M.M.M.M.M.M.M.M.M.M.M.M.M.M.M.M.M.M.M.n.M.M.M.M.M.M.M.M.M.M.M.M.M.M.M.M.M.M.M.M.M.",
"M.M.M.M.M.M.M.M.M.M.M.M.M.M.M.M.M.M.M.M.M.M.M.M.M.M.M.M.M.M.M.M.M.M.M.M.M.M.M.M.M.M.M.",
"M.M.M.M.M.M.M.M.M.M.M.M.M.M.M.M.M.M.M.M.M.M.M.M.M.n.M.M.M.M.M.M.M.M.M.M.M.M.M.M.M.M.M.",
"M.M.M.M.M.M.M.M.M.M.M.M.M.M.M.M.M.M.M.M.M.M.M.M.M.M.M.M.M.M.M.M.M.M.M.M.M.M.M.M.M.M.M.",
"M.M.M.M.M.M.M.M.M.M.M.M.M.M.M.M.M.M.M.M.M.M.M.M.M.M.M.M.M.M.M.M.M.M.M.M.M.M.M.M.M.M.M.",
"M.M.M.M.M.M.M.M.k.n.M.M.M.M.M.M.M.n.M.M.M.M.M.M.M.M.M.M.M.M.M.M.M.M.M.M.M.M.M.M.M.M.M.",
"M.M.M.M.M.M.M.M.M.M.M.M.M.M.M.M.M.M.M.M.M.M.M.M.M.M.M.M.M.M.n.g.M.M.M.M.M.M.M.M.M.M.M.",
"M.M.M.M.M.M.M.M.M.M.M.M.M.M.M.M.M.M.M.M.M.M.M.M.M.M.M.M.M.M.h.v.h.M.M.M.n.n.n.n.n.n.M.",
"M.M.M.M.M.M.M.M.M.M.M.M.M.M.M.M.M.M.M.n.M.M.M.M.M.M.M.M.M.M.v.h.h.M.M.M.M.n.n.M.n.M.M.",
"M.M.M.M.M.M.M.n.M.M.M.M.M.M.M.M.M.M.M.M.M.M.M.M.M.M.M.M.M.M.v.h.v.M.M.M.M.M.M.n.v.v.v.",
"M.M.M.M.M.M.M.M.M.n.M.M.M.M.M.M.M.M.M.M.M.M.M.M.M.M.M.M.M.M.v.k.M.M.M.M.M.M.v.v.v.v.h.",
"M.M.M.M.M.M.M.M.M.k.M.M.M.M.M.M.M.M.M.M.M.M.M.M.M.M.M.M.M.M.M.M.M.M.M.k.v.z.v.h.v.h.h.",
"M.M.M.M.M.M.M.M.M.M.M.M.M.M.M.M.M.M.M.M.M.M.n.M.M.M.M.M.M.M.M.M.M.M.M.M.v.v.v.v.h.h.h.",
"M.M.M.M.M.M.M.M.M.M.M.M.M.M.M.M.M.M.M.M.M.M.M.M.M.M.M.M.M.M.M.n.M.M.z.k.h.h.h.z.h.z.v.",
"M.M.M.M.M.M.M.M.M.M.M.M.M.M.M.M.M.M.n.k.M.M.M.M.M.M.M.M.M.k.M.n.M.M.z.v.h.h.h.z.z.z.M.",
"M.M.M.M.M.M.M.M.M.M.M.M.M.M.M.M.M.M.M.M.M.M.M.M.M.M.M.M.M.n.n.n.M.v.v.h.h.z.N.%.N.k.=.",
"M.M.M.M.M.M.M.M.M.M.M.M.M.M.M.M.M.M.M.M.M.M.M.M.M.M.M.M.M.M.n.M.M.v.v.h.h.z.k.C._ =.P.",
"M.M.M.M.M.M.M.M.M.M.M.M.M.M.M.M.M.M.M.M.M.M.M.M.M.n.M.M.M.M.n.n.v.v.v.h.z.k.*.M.N.n.;.",
"n.M.M.M.M.M.M.M.M.M.M.M.M.M.M.M.M.M.M.M.M.M.M.M.M.M.M.M.M.M.n.M.v.v.h.h.z.M.n.=.N.m.m.",
"M.M.M.M.M.M.M.M.M.M.M.M.M.M.M.M.M.M.M.M.M.M.M.M.M.M.M.M.M.M.M.v.v.v.h.h.v.M.n.n.-.m.$.",
"M.M.M.M.M.M.M.M.M.M.M.M.M.M.M.M.M.M.M.M.M.M.M.M.M.M.M.M.M.M.M.M.v.z.h.h.v.M.n.n.m.L.S.",
"M.M.M.M.M.M.M.M.M.M.M.M.M.M.M.M.M.M.M.M.M.M.M.M.M.M.M.M.M.M.M.M.v.v.h.h.z.M.n.m.c.| r.",
"k.M.M.M.k.k.k.z.z.k.k.k.M.M.M.v.M.M.v.M.n.n.M.M.n.M.k.k.M.g.k.k.M.n.v.z.v.v.n.x.F.X.w ",
"z.k.k.M.k.z.l.l.l.l.l.l.z.z.M.M.v.v.v.m.n.n.;.m.n.x.C.h.j.B.j.B.k.m.m.{ C.t.+.p.F.j , ",
"z.k.n.M.k.k.z.l.B.l.l.k.M.M.M.M.v.x.a.x.;.m.n.;.N.N.o.h.Z.j.B.B.n.;.x.b.v.x.C.p.e.> T ",
"M.n.n.;.n.n.M.k.k.M.M.n.n.n.k.k.h.v.a.x.v.m.N.P.v.i.Z.M.j.z.) Z.K.O.L.c.N.+.x.| F X 3X",
"m.m.m.m.m.n.n.n.n.n.n.n.m.n.k.k.z.h.a.h.n.v.N.o.i.f.d.a.K.x.f.5.y.D.D.p.b.N.N.S.p 4 <X",
"m.x.m.m.m.m.x.x.M.v.x.N.m.m.n.z.h.h.h.z.M.k.k.+.u.H.3.2.3.` D A S R S G.p.N.O.} - '.,X",
"v.v.x.x.x.v.x.v.h.v.x.v.x.x.z.n.z.v.z.k.M.n.N.P.5.! ,.h % > , e - - 5 6 ` y.K.J : p 4 ",
"k.g.x.v.x.v.v.h.h.h.z.v.v.m.m.m.x.x.v.M.k.n.&.s.2.b * 3 T.3X4X4X&X2X4X< v 5.y.#.Q l X ",
"h.z.v.a.a.a.v.h.h.h.z.v.v.x.c.L.p.s.x.x.m.v.$.w.h $ >.;X4X#X<XOX2X&X2XY % 2.5.b.A...N ",
"k.x.b.p.p.s.i.x.g.N.b.x.x.c.$.[ ] Q q.w.4.3.9.f , ).;X4X X<X<X@XXX2X2X$X# E 4.p.G...1 ",
"i.y.' H H 0.0.F.y.{ | F.A.] d w 6 5 8 R 6.6.F % <.O Y. X4X.X`. X4X4X4XM 8 2.S.L.X.P & ",
"R g 5 % > - : w R 7.e.W g 6 l ).-X{.$ c 1.( 6 0 X O n >X2X<X4X3X%X4X=X# F 9.#.U.S # (.",
"5 < [.3X4X'.W.1 # r q # y ).4X*X;X3X+ x R.I - q m o ~.4X&X4X{.3X3X$X* , W 3. .K 6 <.4X",
"u 4X<X#X`.4X2X1X).i i /.1X4X<X+X+XoX@ u R.^ / E.y = 4X#X4X2X3X3X-X$X+ 2 8.0.I.{ s - X ",
"3X1X@X@X@X@X<X<X4X:X1X4X:X<X@X@X@X<XV X ; z q U m = 4X4X4X<X-X-X4X4X^.* t 9.O.#.X...L ",
"-X3X3X<X@X@X4X4X3X4X4X4X4X3X4X4X4X4X1X!.B a y X .   oXoX|.4X4X<X4X.X2X].# v I.x.m.L.0.",
"<.3X3X4X<X<X4X4X4X4X4X1X4X4X2X%X4X4X4X1X3X4X4X_.C Z ,X<X4X<X4X<XOXOX4X|.Q.> } b.n.-.J.",
"x 3X-X4X4X4X4X4X2X4X4X4X4X4X4X4X4X4X4X4X4X4X4X4X4X4X4X4X4X4X,X,X@X<X@X4X3X8 k S.s.O.b.",
"T =X3X3X2X:X4X4X4X4X4X4X4X4X4X4X4X4X4X4X4X4X4X4X4X4X4X4X4X4X3X,X@X<X<X4X4XW.> ! ' u.} "
};
