/* XPM */
static char *tile0871719244614[] = {
/* columns rows colors chars-per-pixel */
"43 43 214 2 ",
"   c #000104",
".  c #00030B",
"X  c #000213",
"o  c #000816",
"O  c #00001D",
"+  c #01091F",
"@  c #0A131B",
"#  c #03111E",
"$  c #15171C",
"%  c #000225",
"&  c #000A23",
"*  c #00052D",
"=  c #010A2B",
"-  c #001228",
";  c #021C2E",
":  c #161B26",
">  c #000333",
",  c #000E32",
"<  c #000539",
"1  c #0B163B",
"2  c #07183B",
"3  c #082129",
"4  c #33342F",
"5  c #222B32",
"6  c #2B343D",
"7  c #313630",
"8  c #3F423B",
"9  c #000746",
"0  c #021D4B",
"q  c #051A45",
"w  c #031651",
"e  c #192348",
"r  c #082453",
"t  c #172359",
"y  c #222D4D",
"u  c #243243",
"i  c #2E3442",
"p  c #303440",
"a  c #2D3C59",
"s  c #2C3458",
"d  c #393F59",
"f  c #0F2D6D",
"g  c #132A66",
"h  c #1C286A",
"j  c #1B366A",
"k  c #293579",
"l  c #3D4456",
"z  c #3C4A6D",
"x  c #26457E",
"c  c #384D7C",
"v  c #2C567C",
"b  c #454C5E",
"n  c #565F5A",
"m  c #4A5468",
"M  c #475676",
"N  c #565C74",
"B  c #4E697C",
"V  c #59677A",
"C  c #60636A",
"Z  c #656F7C",
"A  c #6A6F75",
"S  c #747474",
"D  c #294285",
"F  c #344D86",
"G  c #365A8E",
"H  c #2D4B93",
"J  c #3E4F97",
"K  c #3D559F",
"L  c #395A9F",
"P  c #3B59A9",
"I  c #3D63B8",
"U  c #465193",
"Y  c #4F668F",
"T  c #526A90",
"R  c #646D8C",
"E  c #6C7787",
"W  c #7C7B80",
"Q  c #606A9F",
"!  c #4761A7",
"~  c #5160A1",
"^  c #4F76AF",
"/  c #4E6BB9",
"(  c #586BB4",
")  c #4F72B4",
"_  c #3F7FE9",
"`  c #486ECF",
"'  c #576EC8",
"]  c #4E73C6",
"[  c #597ACD",
"{  c #5578DA",
"}  c #4C78D9",
"|  c #657CCA",
" . c #647ADD",
".. c #697CD4",
"X. c #4974EC",
"o. c #547CE4",
"O. c #5878E7",
"+. c #5479E7",
"@. c #4B7DF4",
"#. c #547CFC",
"$. c #597DFF",
"%. c #507DF0",
"&. c #637AE2",
"*. c #7E8892",
"=. c #5D90C9",
"-. c #4984DE",
";. c #5E83DD",
":. c #5B8ED1",
">. c #6886CC",
",. c #748EC1",
"<. c #6290C1",
"1. c #7490CF",
"2. c #6C8BD4",
"3. c #6687DB",
"4. c #7987DC",
"5. c #6793DA",
"6. c #438AE2",
"7. c #4B8BED",
"8. c #4587E9",
"9. c #5D8CE3",
"0. c #5C8AEF",
"q. c #5884E9",
"w. c #4D93EB",
"e. c #4C84F4",
"r. c #468AF3",
"t. c #4D8BF3",
"y. c #4784FA",
"u. c #4D85FD",
"i. c #4E89FD",
"p. c #4585F7",
"a. c #5384F5",
"s. c #5B85F2",
"d. c #518BF5",
"f. c #5D8AF2",
"g. c #5385FD",
"h. c #5C84FE",
"j. c #5188FE",
"k. c #5C8CFF",
"l. c #5291F6",
"z. c #5E90F5",
"x. c #5493FE",
"c. c #5C91FF",
"v. c #5B9CFA",
"b. c #5799ED",
"n. c #6585E2",
"m. c #6489E3",
"M. c #658CEB",
"N. c #6C89E7",
"B. c #738BE4",
"V. c #6E93EE",
"C. c #789AE8",
"Z. c #628CF4",
"A. c #658CFA",
"S. c #6B8BFC",
"D. c #6986F7",
"F. c #748FFA",
"G. c #6493FF",
"H. c #6890F2",
"J. c #9F9F9F",
"K. c #9D9CA1",
"L. c #8A93AD",
"P. c #95A2AB",
"I. c #9CA7BB",
"U. c #93B0BE",
"Y. c #B0B4B7",
"T. c #A5A9CE",
"R. c #B2BBCA",
"E. c #839BFD",
"W. c #BEC8D4",
"Q. c #B8C1C8",
"!. c #C7CBC8",
"~. c #D4D3CF",
"^. c #DBDCDA",
"/. c #C6D6D5",
"(. c #C4E0D4",
"). c #E8E8DE",
"_. c #E6F3DF",
"`. c #FFFFDE",
"'. c #F5F5DC",
"]. c #CCCFE2",
"[. c #CFDDE7",
"{. c #D0D9E8",
"}. c #D6E2EE",
"|. c #D9F2EF",
" X c #DDE4F4",
".X c #D8F0F0",
"XX c #E6E6EA",
"oX c #EAEBEB",
"OX c #E7E9EB",
"+X c #F3EFE9",
"@X c #EEF1ED",
"#X c #EAF8E5",
"$X c #FCFFE4",
"%X c #F3F5EC",
"&X c #F9F6ED",
"*X c #FBFDEC",
"=X c #F4F9EB",
"-X c #EBEDF2",
";X c #E6E9F0",
":X c #F6EDFF",
">X c #FDEDFF",
",X c #F1EBF7",
"<X c #EDF4F3",
"1X c #EDF5FF",
"2X c #EDFDFD",
"3X c #E5F8F8",
"4X c #F4F4F4",
"5X c #FAF4F5",
"6X c #F5FCF5",
"7X c #FCFDF5",
"8X c #F4F4FC",
"9X c #FDF5FE",
"0X c #F5FDFD",
"qX c #FFFFFE",
/* pixels */
"j.j.j.j.j.j.u.j.j.j.g.j.j.j.j.j.j.j.g.u.u.j.u.d.t.t.j.k.X.+.H./ f * & l {.B 0 9.c.a.I ",
"j.j.j.j.j.j.j.j.j.j.u.j.j.j.j.j.j.j.j.u.y.i.p.x.u.j.a.%.Z.n.! q e I.0XqXqXS - 5.f.@.0.",
"j.j.j.j.j.j.j.j.j.j.j.j.j.j.j.j.j.j.j.8.t.v.u.u.g.G.h.q.3.! > M 1XqXqX9X5X!.o ^ H.a.s.",
"j.j.j.j.j.j.j.j.j.j.j.j.j.j.j.j.j.j.t.v.6._ y.G.h.#.O.B.F % E 0X5X9XqX>X>XqX: j ] A.o.",
"j.j.j.j.j.j.j.j.j.j.j.j.j.j.j.j.j.j.d.6.b.f.p.g.h.D.B.g = P.qX4X7X5X9X9X9XqXQ.* j [ n.",
"j.j.j.j.j.j.j.j.j.j.j.j.j.j.j.j.j.j.d.7.-.z.Z.o.V.' w 2 R.qX=X=XqXqX8X8X8XqX0X!.= < D ",
"j.j.j.j.j.j.j.j.u.j.j.j.j.j.j.j.j.j.j.d.Z.} 3.2.k < a  X<X4XqXqX9X7X0X0X0XqX7X7XqXI.q ",
"j.j.j.j.j.j.u.g.j.j.j.j.j.j.j.j.g.u.g.h.X.H.2.0 ; *.<XqXqXqX8X8XqX0X0X.X|.6X=X'.*X7X8X",
"j.j.j.g.g.g.g.j.d.i.i.i.j.j.j.j.d.a.s.{ E.K * y /.7X#X7X5X8XqXqXqXqX<X2X0X6X*X$X`.'.[.",
"g.u.g.h.$.@.j.d.t.7.x.y.j.y.a.A.H.] H t = O E 8XqX6XqXqXqXqXqXqXqXqX7X:XqX8X*X=X_.3X; ",
"j.j.g.$.h.k.k.d.r.r.r.y.j.k.s.{ [ f > b K.XXqXqX0X4XqXqXqXqXqXqXqX7XqX9X>XqX6X#X(.3 2 ",
"j.d.j.a.k.j.j.i.j.i.i.j.X.s.3.1.,.* & C ,XqX4XqXqXqX9XqXqXqXqXqXqXqXqX9X9XqXqX2X; r ^ ",
"t.d.d.l.7.7.u.u.j.k.$.$.D.3.>.c a i .   W qXqXOX9XqXqXqXqXqX7XqX7XqX7X*XqXXX0XY 0 [ B.",
"t.t.7.w.6.t.x.j.g.g.$.$.3.( > & 6 4 8 P.qX4X8XqX4XqXqXqXqXqXqXqXqXqX7X*X7X0X1X< ( ' F.",
"t.t.t.w.6.l.x.u.#.S.F.B.k * d ;XqX&X*X&X,XqXqXoXqXqX5XqXqXqXqX7XqXqX7X*X_.1Xb h 4.&.&.",
"j.d.d.d.7.d.d.{ m.3.( t * L.8XqX+X&XqX7XqX@X@XqX0XqX4XqXqXqXqXqXqXqXqX#X6X}.* U 4...>.",
"j.g.a.d.7.q.9.>.1.T 1 1 ].qXqXqX5XqXoX7X7X9XqXqX6XqXqXqXqXqXqXqXqXqXqX7XoX6 y Q k h 9 ",
"j.g.g.g.A.;.P 0 = X 5 qXqXqX9XqXqX7X7XqXqXqXqXqXqXqXqXqXqXqXqXqXqXqXqX6X;X. m O 1 s E ",
"g.A.A.S. .K < M @ n qX7X9XqXqX8X0XqXqXqXqXqXqXqXqXqXqXqXqXqXqXqXqXqXqXqXA @ 6 p qX1XqX",
"h.s.{ | J < L.qX6X=X7XqXqX9XqX0XqX7X6XqXqXqXqXqXqXqXqXqXqXqXqXqXqXqXqX0X: $   !.7XqX7X",
"s.` C.~ > R 1X6X7X*XqXqXqXqX9XqXqX6X6X7XqXqXqXqXqXqXqXqXqXqXqXqXqXqXqXqXC   4 qX%XXX7X",
"m.C.~ < N 1X0XqX7X4X5XqXqXqXqXqXqX6X7XqX7XqX7XqXqXqXqXqXqXqXqXqXqXqXqX0X6X^.7X7X7X+XqX",
"=.G - u qX0X6X4X7XqXqXqXqXqXqXqXqX0X7XqXqXqXqXqXqXqXqXqXqXqXqXqXqXqXqXqX6X7X4X@X%XqX5X",
"x & R 0XqX0XqXqXqXoXqXqX7X7XqXqXqXqXqXqXqX7X7XqXqXqXqXqXqXqXqXqXqXqXqX6X7X4XqXqXOX0XqX",
"q U.2X0X@XqXqXXXqXqX4XqX7X7X7XqXqXqXqXqXqXqXqXqXqXqXqXqXqXqXqXqXqXqXqXqX6X7X<X;XqXqXqX",
"[.3X0XqXqXqXqXqXqXqXqXqX7XqXqXqXqXqXqXqXqXqXqXqXqXqXqXqXqXqXqXqXqXqXqXqXqXqXqXqXqXqXqX",
"qX<X6XqXqXqXqXqXqXqXqXqXqXqXqXqXqXqXqXqXqXqXqXqXqXqXqXqXqXqXqXqXqXqXqXqXqXqXqXqXqXqXqX",
"@XqX9XqXqXqXqXqXqXqXqXqXqXqXqXqXqXqXqXqXqXqXqXqXqXqXqXqXqXqXqXqXqXqXqXqXqXqXqXqXqXqXqX",
"7X9X>XqXqXqXqXqXqXqXqXqXqXqXqXqXqXqXqXqXqXqXqXqXqXqXqXqXqXqXqXqXqXqXqXqXqXqXqXqXqXqXqX",
"*X>XqXqXqXqXqXqXqXqXqXqXqXqXqXqXqXqXqXqXqXqXqXqXqXqXqXqXqXqXqXqXqXqXqXqXqXqXqXqXqXqXqX",
"~.qX,XqXqXqXqXqXqXqXqXqXqXqXqXqXqXqXqXqXqXqXqXqXqXqXqXqXqXqXqXqXqXqXqXqXqXqXqXqXqXqXqX",
": qXqXqXqXqXqXqXqXqXqXqXqXqXqXqXqXqXqXqXqXqXqXqXqXqXqXqXqXqXqXqXqXqXqXqXqXqXqXqXqXqXqX",
"X qX6XqXqXqXqXqXqXqXqXqXqXqXqXqXqXqXqXqXqXqXqXqXqXqXqXqXqXqXqXqXqXqXqXqXqXqXqXqXqXqXqX",
"b 4X7X6XqXqXqXqXqXqXqXqXqXqXqXqXqXqXqXqXqXqXqXqXqXqXqXqXqXqXqXqXqXqXqXqXqXqXqXqXqXqXqX",
":XqX0XqX4XqXqX9X4XqX9XqXqXqXqXqXqXqXqXqXqXqXqXqXqXqXqXqXqXqXqXqXqXqXqXqXqXqXqXqXqXqXqX",
"qX:XqXqX6X9X6X4XqXqX7XqXqXqXqXqXqXqXqXqXqXqXqXqXqXqXqXqXqXqXqXqXqXqXqXqXqXqXqXqXqXqXqX",
"qX:X:X0X0XqXqXqX6X9XqXqXqXqXqXqXqXqXqXqXqXqXqXqXqXqXqXqXqXqXqXqXqXqXqXqXqXqXqXqXqXqXqX",
"% e T.8XqXqX4XqXqX4XqXqXqXqXqXqXqXqXqXqXqXqXqXqXqXqXqXqXqXqXqXqXqXqXqXqXqXqXqXqXqXqXqX",
"Y r 2 *.XXqX5XqXqXqXqXqXqXqXqXqXqXqXqXqXqXqXqXqXqXqXqXqXqXqXqXqXqXqXqXqXqXqXqXqXqXqXqX",
">.=.v + S ^.qXqX9XqXqXqXqXqXqXqXqXqXqXqXqXqXqXqXqXqXqXqXqXqXqXqXqXqXqXqXqXqXqXqXqXqXqX",
"9.:.<.V   : Y.qX7X0XqXqXqXqXqXqXqXqXqXqXqXqXqXqXqXqXqXqXqXqXqXqXqXqXqXqXqXqXqXqXqXqXqX",
"q.;.P M E : o qX0X8XqXqXqXqXqXqX9XqXqXqXqXqXqXqXqXqXqXqXqXqXqXqXqXqXqXqXqXqXqXqXqXqXqX",
"V.P 9 % X V X Z 0X0X<XqXqX7XqXqXqXqXqXqXqXqXqXqXqXqXqXqXqXqXqXqXqXqXqXqXqXqXqXqXqXqXqX"
};
