/* XPM */
static char *tile0881719244614[] = {
/* columns rows colors chars-per-pixel */
"43 43 128 2 ",
"   c #00040D",
".  c #000212",
"X  c #010915",
"o  c #00021E",
"O  c #000C1F",
"+  c #000C22",
"@  c #00052A",
"#  c #000D2A",
"$  c #00102F",
"%  c #09132C",
"&  c #000437",
"*  c #021A34",
"=  c #00133A",
"-  c #1D293F",
";  c #212830",
":  c #30373F",
">  c #000442",
",  c #000C40",
"<  c #000749",
"1  c #001244",
"2  c #0F1F41",
"3  c #101E41",
"4  c #001858",
"5  c #162A43",
"6  c #19295D",
"7  c #163353",
"8  c #3A3C48",
"9  c #243551",
"0  c #213955",
"q  c #393B52",
"w  c #061F73",
"e  c #0E3169",
"r  c #34414A",
"t  c #3F4754",
"y  c #25467B",
"u  c #2C4679",
"i  c #41484E",
"p  c #475653",
"a  c #59636F",
"s  c #51667B",
"d  c #626A75",
"f  c #666E79",
"g  c #717076",
"h  c #707579",
"j  c #74787B",
"k  c #3A5582",
"l  c #2E489F",
"z  c #365395",
"x  c #5A6980",
"c  c #486A9A",
"v  c #637194",
"b  c #5773A2",
"n  c #4562B2",
"m  c #5A7DB5",
"M  c #5775BE",
"N  c #6178BC",
"B  c #4A6AC1",
"V  c #5A78C1",
"C  c #4D6FDB",
"Z  c #5F76D3",
"A  c #5479D2",
"S  c #677ECA",
"D  c #647FD6",
"F  c #617EDC",
"G  c #4970E9",
"H  c #5B7DE3",
"J  c #5575EB",
"K  c #577DEA",
"L  c #547BF0",
"P  c #5B7EF3",
"I  c #5B7EFC",
"U  c #70828C",
"Y  c #7E8BAB",
"T  c #6F86BA",
"R  c #6688B8",
"E  c #5E84C3",
"W  c #5B82CC",
"Q  c #5E84DB",
"!  c #6481CD",
"~  c #6A86CD",
"^  c #648CCA",
"/  c #7587CF",
"(  c #6D91CF",
")  c #6188D3",
"_  c #6A8AD3",
"`  c #6480DC",
"'  c #6990DB",
"]  c #5B82E1",
"[  c #5D80F4",
"{  c #5E83FD",
"}  c #6484E4",
"|  c #6483EF",
" . c #6A87ED",
".. c #6B8BEE",
"X. c #6385F3",
"o. c #6886F4",
"O. c #6D8DF4",
"+. c #668AFE",
"@. c #708FFB",
"#. c #6991F3",
"$. c #83859C",
"%. c #8292AB",
"&. c #ABBDD3",
"*. c #B4BFDF",
"=. c #CBC5DF",
"-. c #D4E0EE",
";. c #DDE2E8",
":. c #D8E1F0",
">. c #E7E7E7",
",. c #ECEEEE",
"<. c #F1F1EF",
"1. c #F4FBE9",
"2. c #F9FEEE",
"3. c #E7EEF6",
"4. c #E8EFF7",
"5. c #E7EEF8",
"6. c #F8EEF6",
"7. c #F4EAFF",
"8. c #EFF5F5",
"9. c #E6F9F7",
"0. c #ECF5FB",
"q. c #F3F4F5",
"w. c #F7FEF4",
"e. c #FCFEF3",
"r. c #F0F3F8",
"t. c #FDF5FD",
"y. c #F5FCFE",
"u. c #FFFFFF",
/* pixels */
"# p u.t.t.t.u.u.u.u.u.u.u.u.u.u.t.u.u.u.u.u.e.u.q.e.u.u.u.u.u.,.u.u.u.u.u.u.u.u.u.u.u.",
"c X h t.t.t.t.u.e.u.u.u.u.u.u.u.u.u.u.u.u.u.u.u.u.u.u.u.u.u.u.u.u.u.u.u.u.u.u.u.u.u.u.",
"E 7 . 8 =.7.u.t.u.u.u.u.u.u.u.u.u.u.u.u.u.u.u.u.u.u.u.u.u.u.u.u.u.u.u.u.u.u.u.u.u.u.u.",
") R 0 + $.t.6.u.u.u.u.u.u.u.u.u.u.u.u.u.u.u.u.u.u.u.u.u.u.u.u.u.u.u.u.u.u.u.u.u.u.u.u.",
"W ( b @ *.q f e.u.u.u.u.t.y.u.u.u.u.u.u.u.u.u.u.u.u.u.u.u.u.u.u.u.u.u.u.u.u.u.u.u.u.u.",
"V _ ~ > & - . j u.u.u.t.u.u.e.u.u.u.u.u.u.u.u.u.u.u.u.u.u.u.u.u.u.u.u.u.u.u.u.u.u.u.u.",
"> n ` B ~ T 9 8 u.y.u.u.u.u.u.u.u.u.u.u.u.u.u.u.u.u.u.u.u.u.u.u.u.u.u.u.u.u.u.u.u.u.u.",
", w o.J ..! k + y.q.u.u.u.u.u.u.u.u.u.u.u.u.u.u.u.u.u.u.u.u.u.u.u.u.u.u.u.u.u.u.u.u.u.",
"1 l P { X.Q m $ 0.y.u.u.u.u.u.u.u.u.u.u.u.u.u.u.u.u.u.u.u.u.u.u.u.u.u.u.u.u.u.u.u.u.u.",
"e A +.{ X.` ^ = x u.5.y.u.8.u.q.u.e.u.u.u.u.u.u.u.u.u.u.u.u.u.u.u.u.u.u.u.u.u.u.u.u.u.",
"W #.L G J ] ' u o :.y.y.u.y.t.e.e.u.u.u.t.u.u.u.u.u.u.u.u.u.u.u.u.u.u.u.u.u.u.u.u.u.u.",
"} [ I +.+.C H ~ 2 X d 3.y.>.u.<.u.u.u.u.u.u.u.u.u.u.u.u.u.u.u.u.u.u.u.u.u.u.u.u.u.u.u.",
"H [ [ J X.@. .S v t X : q.y.u.u.e.e.u.u.u.u.u.u.u.u.u.u.u.u.u.u.u.u.u.u.u.u.u.u.u.u.u.",
"| X.#.} F F D / Y f X t u.u.q.u.u.u.u.u.u.u.u.t.u.u.u.u.u.u.u.u.u.u.u.u.u.u.u.u.u.u.u.",
"` ` M z 4 > < 6 %   ; ;.u.8.u.u.u.e.u.e.u.u.u.u.u.u.u.u.u.u.u.u.u.u.u.u.u.u.u.u.u.u.u.",
"N u @ * s &.%.5 a 4.y.u.y.u.>.u.u.u.u.u.u.u.u.u.u.u.u.u.u.u.u.u.u.u.u.u.u.u.u.u.u.u.u.",
"@ 5 U 9.y.y.y.u.y.0.u.0.t.y.u.e.u.e.u.u.u.u.u.u.u.u.u.u.u.u.u.u.u.u.u.u.u.u.u.u.u.u.u.",
"-.0.e.w.1.2.w.e.u.u.y.u.u.u.u.u.u.u.u.u.u.u.y.u.u.u.u.u.u.u.u.u.u.u.u.u.u.u.u.u.u.u.u.",
"8.e.e.e.2.e.e.e.u.y.u.y.u.u.u.u.u.u.u.u.u.u.u.y.u.u.u.u.u.u.u.u.u.u.u.u.u.u.u.u.u.u.u.",
"u.u.u.t.t.u.u.t.u.u.y.u.u.u.t.u.u.u.u.u.u.u.u.u.u.u.u.u.u.u.u.u.u.u.u.u.u.u.u.u.u.u.u.",
"e.u.t.t.t.u.t.t.u.y.u.e.u.u.u.e.u.u.u.u.u.u.u.y.u.u.u.u.u.u.u.u.u.u.u.u.u.u.u.u.u.u.u.",
"t.u.u.t.t.t.u.t.u.y.u.u.u.u.t.u.u.t.u.u.u.u.u.u.u.u.u.u.u.u.u.u.u.u.u.u.u.u.u.u.u.u.u.",
"e.u.u.u.t.u.y.u.u.u.y.e.u.u.u.u.u.u.u.u.u.u.y.y.u.u.u.u.u.u.u.u.u.u.u.u.u.u.u.u.u.u.u.",
"u.e.2.w.w.w.w.y.e.y.u.e.u.u.u.u.u.u.u.u.y.u.u.e.u.u.u.u.u.u.u.u.u.u.u.u.u.u.u.u.u.u.u.",
"u.2.2.2.2.2.w.e.u.e.e.u.u.u.u.t.u.u.u.u.u.u.u.u.u.u.u.u.u.u.u.u.u.u.u.u.u.u.u.u.u.u.u.",
"u.u.u.e.u.u.u.u.u.u.u.u.u.u.u.u.u.u.u.u.u.u.u.u.u.u.u.u.u.u.u.u.u.u.u.u.u.u.u.u.u.u.u.",
"u.u.u.u.u.u.u.u.u.u.u.u.u.u.u.u.u.u.u.u.u.u.u.u.u.u.u.u.u.u.u.u.u.u.u.u.u.u.u.u.u.u.u.",
"u.u.u.u.u.u.u.u.u.u.u.u.u.u.u.u.u.u.u.u.u.u.u.u.u.u.u.u.u.u.u.u.u.u.u.u.u.u.u.u.u.u.u.",
"u.u.u.u.u.u.u.u.u.u.u.u.u.u.u.u.u.u.u.u.u.u.u.u.u.u.u.u.u.u.u.u.u.u.u.u.u.u.u.u.u.u.u.",
"u.u.u.u.u.u.u.u.u.u.u.u.u.u.u.u.u.u.u.u.u.u.u.u.u.u.u.u.u.u.u.u.u.u.u.u.u.u.u.u.u.u.u.",
"u.u.u.u.u.u.u.u.u.u.u.u.u.u.u.u.u.u.u.u.u.u.u.u.u.u.u.u.u.u.u.u.u.u.u.u.u.u.u.u.u.u.u.",
"u.u.u.u.u.u.u.u.u.u.u.u.u.u.u.u.u.u.u.u.u.u.u.u.u.u.u.u.u.u.u.u.u.u.u.u.u.u.u.u.u.u.u.",
"u.u.u.u.u.u.u.u.u.u.u.u.u.u.u.u.u.u.u.u.u.u.u.u.u.u.u.u.u.u.u.u.u.u.u.u.u.u.u.u.u.u.u.",
"u.u.u.u.u.u.u.u.u.u.u.u.u.u.u.u.u.u.u.u.u.u.u.u.u.u.u.u.u.u.u.u.u.u.u.u.u.u.u.u.u.u.u.",
"u.u.u.u.u.u.u.u.u.u.u.u.u.u.u.u.u.u.u.u.u.u.u.u.u.u.u.u.u.u.u.u.u.u.u.u.u.u.u.u.u.u.u.",
"u.u.u.u.u.u.u.u.u.u.u.u.u.u.u.u.u.u.u.u.u.u.u.u.u.u.u.u.u.u.u.u.u.u.u.u.u.u.u.u.u.u.u.",
"u.u.u.u.u.u.u.u.u.u.u.u.u.u.u.u.u.u.u.u.u.u.u.u.u.u.u.u.u.u.u.u.u.u.u.u.u.u.u.u.u.u.u.",
"u.u.u.u.u.u.u.u.u.u.u.u.u.u.u.u.u.u.u.u.u.u.u.u.u.u.u.u.u.u.u.u.u.u.u.u.u.u.u.u.u.u.u.",
"u.u.u.u.u.u.u.u.u.u.u.u.u.u.u.u.u.u.u.u.u.u.u.u.u.u.u.u.u.u.u.u.u.u.u.u.u.u.u.u.u.u.u.",
"u.u.u.u.u.u.u.u.u.u.u.u.u.u.u.u.u.u.u.u.u.u.u.u.u.u.u.u.u.u.u.u.u.u.u.u.u.u.u.u.u.u.u.",
"u.u.u.u.u.u.u.u.u.u.u.u.u.u.u.u.u.u.u.u.u.u.u.u.u.u.u.u.u.u.u.u.u.u.u.u.u.u.u.u.u.u.u.",
"u.u.u.u.u.u.u.u.u.u.u.u.u.u.u.u.u.u.u.u.u.u.u.u.u.u.u.u.u.u.u.u.u.u.u.u.u.u.u.u.u.u.u.",
"u.u.u.u.u.u.u.u.u.u.u.u.u.u.u.u.u.u.u.u.u.u.u.u.u.u.u.u.u.u.u.u.u.u.u.u.u.u.u.u.u.u.u."
};
