/* XPM */
static char *tile0911719244614[] = {
/* columns rows colors chars-per-pixel */
"43 43 163 2 ",
"   c #000309",
".  c #00051C",
"X  c #000323",
"o  c #00032C",
"O  c #000E2A",
"+  c #0B0F2A",
"@  c #001025",
"#  c #01132D",
"$  c #000B34",
"%  c #00073E",
"&  c #000A3C",
"*  c #0A1236",
"=  c #06113F",
"-  c #061F3D",
";  c #0F253D",
":  c #112236",
">  c #212A2F",
",  c #001343",
"<  c #021B45",
"1  c #061A4F",
"2  c #0D1E49",
"3  c #132B47",
"4  c #18214C",
"5  c #1C3249",
"6  c #0F2356",
"7  c #2E2E4A",
"8  c #192964",
"9  c #1C3A6E",
"0  c #313E6B",
"q  c #3C474D",
"w  c #3C4959",
"e  c #3C516C",
"r  c #31467F",
"t  c #314B7C",
"y  c #415065",
"u  c #4A5A67",
"i  c #4B5169",
"p  c #53556E",
"a  c #5A6B7D",
"s  c #69767C",
"d  c #2F4581",
"f  c #254880",
"g  c #2E4E81",
"h  c #2F5387",
"j  c #355387",
"k  c #365A98",
"l  c #3A529A",
"z  c #44558D",
"x  c #535D80",
"c  c #415997",
"v  c #415594",
"b  c #436497",
"n  c #4560A5",
"m  c #4568AC",
"M  c #4664AD",
"N  c #536AB0",
"B  c #5474BF",
"V  c #597CBB",
"C  c #5B7BB6",
"Z  c #3E7AE8",
"A  c #576FC5",
"S  c #4F70C1",
"D  c #5E77C7",
"F  c #577CC3",
"G  c #5D7DCA",
"H  c #517FD4",
"J  c #5F7FD4",
"K  c #647FC6",
"L  c #607ED6",
"P  c #607FDA",
"I  c #427BEE",
"U  c #4A79EB",
"Y  c #527CED",
"T  c #4D7CF4",
"R  c #477DFF",
"E  c #4F7EFA",
"W  c #738498",
"Q  c #738496",
"!  c #3F84FF",
"~  c #5D86D5",
"^  c #5C85DF",
"/  c #5789DE",
"(  c #5E88DE",
")  c #6685C5",
"_  c #6485CE",
"`  c #698CCE",
"'  c #708CCD",
"]  c #658AD0",
"[  c #6882D9",
"{  c #6589DF",
"}  c #6888DB",
"|  c #708DDB",
" . c #7C91D0",
".. c #4282ED",
"X. c #5282E5",
"o. c #5883E2",
"O. c #5C8AE3",
"+. c #5387EC",
"@. c #5A83EC",
"#. c #538AED",
"$. c #5A89ED",
"%. c #4783F1",
"&. c #4C84F4",
"*. c #4789F7",
"=. c #4C89F5",
"-. c #4382FF",
";. c #4B84FC",
":. c #468AFF",
">. c #4D8AFD",
",. c #5786F2",
"<. c #5B85F4",
"1. c #5489F5",
"2. c #5B8AF3",
"3. c #5486FD",
"4. c #5B86FC",
"5. c #528AFD",
"6. c #598DFD",
"7. c #5492FE",
"8. c #5991FF",
"9. c #6082E3",
"0. c #618FE6",
"q. c #6C8DE5",
"w. c #638CEC",
"e. c #6B8DEE",
"r. c #6492E7",
"t. c #6E94E9",
"y. c #6591EA",
"u. c #6284F4",
"i. c #608CF7",
"p. c #6A8EF2",
"a. c #6085FA",
"s. c #628DFF",
"d. c #6090FF",
"f. c #8894AE",
"g. c #A29FB4",
"h. c #99A6AF",
"j. c #97A0BF",
"k. c #B0B9C8",
"l. c #B7C0C5",
"z. c #E9E7DB",
"x. c #D3DFEF",
"c. c #D0E2F0",
"v. c #DCE2FA",
"b. c #EDEBEC",
"n. c #F1E8ED",
"m. c #EFF6EE",
"M. c #FFF7ED",
"N. c #F2FAEC",
"B. c #FCFDED",
"V. c #F2F3ED",
"C. c #E2EDFE",
"Z. c #F4EEF4",
"A. c #ECF6FF",
"S. c #ECFCFF",
"D. c #EBF3F6",
"F. c #F1F6F0",
"G. c #FAF4F4",
"H. c #F5FCF4",
"J. c #FCFEF4",
"K. c #F5F3FC",
"L. c #FBF6FD",
"P. c #F5FDFD",
"I. c #FFFFFF",
/* pixels */
"I.I.I.I.I.I.I.I.I.I.I.I.I.I.I.I.I.I.I.I.I.I.I.I.I.I.I.I.I.I.I.I.I.I.I.I.I.I.I.I.I.I.I.",
"I.I.I.I.I.I.I.I.I.I.I.I.I.I.I.I.I.I.I.I.I.I.I.I.I.I.I.I.I.I.I.I.I.I.I.I.I.I.I.I.I.I.I.",
"I.I.I.I.I.I.I.I.I.I.I.I.I.I.I.I.I.I.I.I.I.I.I.I.I.I.I.I.I.I.I.I.I.I.I.I.I.I.I.I.I.I.I.",
"I.I.I.I.I.I.I.I.I.I.I.I.I.I.I.I.I.I.I.I.I.I.I.I.I.I.I.I.I.I.I.I.I.I.I.I.I.I.I.I.I.I.I.",
"I.I.I.I.I.I.I.I.I.I.I.I.I.I.I.I.I.I.I.I.I.I.I.I.I.I.I.I.I.I.I.I.I.I.I.I.I.I.I.I.I.I.I.",
"I.I.I.I.I.I.I.I.I.I.I.I.I.I.I.I.I.I.I.I.I.I.I.I.I.I.I.I.I.I.I.I.I.I.I.I.I.I.I.I.I.I.I.",
"I.I.I.I.I.I.I.I.I.I.I.I.I.I.I.I.I.I.I.I.I.I.I.I.I.I.I.I.I.I.I.I.I.I.I.I.I.I.I.I.I.I.I.",
"I.I.I.I.I.I.I.I.I.I.I.I.I.I.I.I.I.I.I.I.I.I.I.I.I.I.I.I.I.I.I.I.I.I.I.I.I.I.I.I.I.I.I.",
"I.I.I.I.I.I.I.I.I.I.I.I.I.I.I.I.I.I.I.I.I.I.I.I.I.I.I.I.I.J.I.I.I.I.I.I.I.I.I.J.J.I.I.",
"I.I.I.I.I.I.I.I.I.I.I.I.I.I.I.I.I.I.I.I.I.I.J.L.I.J.J.I.P.P.P.L.I.Z.G.I.G.G.L.B.G.J.G.",
"I.I.I.I.I.I.I.I.I.I.I.I.I.I.I.I.I.I.I.I.I.I.I.I.L.J.P.P.P.P.J.L.K.I.I.n.L.I.G.G.J.G.I.",
"I.I.I.I.I.I.I.I.I.I.I.I.I.I.I.I.I.I.I.I.I.I.I.I.L.P.I.P.P.P.J.I.J.b.K.I.I.L.P.I.I.I.K.",
"I.I.I.I.I.I.I.I.I.I.I.I.I.I.I.I.I.I.I.I.I.I.I.I.I.P.I.I.I.I.P.I.P.I.I.P.S.P.A.P.P.C.x ",
"I.I.I.I.I.I.I.I.I.I.I.I.I.I.I.I.I.I.I.I.I.I.I.I.I.I.I.P.J.P.P.P.A.x.y @ ; . - $ , % 1 ",
"I.I.I.I.I.I.I.I.I.I.I.I.I.I.I.I.I.I.I.I.I.I.I.L.I.I.J.J.J.I.I.P.f.$ < t j b r k m M K ",
"I.I.I.I.I.I.I.I.I.I.I.I.I.I.I.I.I.I.I.I.I.I.I.H.J.B.B.J.J.I.A.j.o r ` S t.9.0.H r.^ 9.",
"I.I.I.I.I.I.I.I.I.I.I.I.I.I.I.I.I.I.I.I.I.I.J.J.J.B.B.B.J.K.v.o v } 9.@.E U 6.#.#.$.^ ",
"I.I.I.I.I.I.I.I.I.I.I.I.I.I.I.I.I.I.I.I.I.I.I.J.N.J.B.z.I.K.* 8 D e.Y 4.4.E 8.7...5.2.",
"I.I.I.I.I.I.I.I.I.I.I.I.I.I.I.I.I.I.I.I.I.I.I.I.H.V.J.I.L.p = N q.i.E 5.5.R >.:.>.>.8.",
"I.I.I.I.I.I.I.I.I.I.I.I.I.I.I.I.I.I.I.I.I.I.I.P.I.K.L.I.g.X z | w.T ;.5.>.;.3.*.>.5.5.",
"I.I.I.I.I.I.I.I.I.I.I.I.I.I.I.I.I.I.I.I.I.I.I.L.I.I.L.K.7 4  .} X.&.:.:.*.1.1.7...7.1.",
"I.I.I.I.I.I.I.I.I.I.I.I.I.I.I.I.I.I.I.I.I.I.I.P.L.L.I.L.+ 0 ` ^ +.7.7.*.=.#.#.7.Z 8.3.",
"I.I.I.I.I.I.I.I.I.I.I.I.I.I.I.I.I.I.I.I.I.I.I.I.L.L.I.I.i 2 ) 0.=.:.:.:.5.w.X.1.=.3.d.",
"I.I.I.I.I.I.I.I.I.I.I.I.I.I.I.I.I.I.I.I.I.I.I.J.J.J.J.I.k.o V O.=.! -.:.5.2.@.2.6.&.s.",
"I.I.I.I.I.I.I.I.I.I.I.I.I.I.I.I.I.I.I.I.I.I.P.B.J.B.G.I.P.X j / =.:.:.5.;.+.i.1.4.E 4.",
"I.I.I.I.I.I.I.I.I.I.I.I.I.I.I.I.I.I.I.I.I.I.J.N.J.K.K.I.K.u < ~ 6.;.-.>.3.T 4.3.3.3.3.",
"I.I.I.I.I.I.I.I.I.I.I.I.I.I.I.I.I.I.I.I.I.I.J.J.H.L.I.K.P.s O _ ,.;.:.>.7.3.6.>.>.3.3.",
"I.I.I.I.I.I.I.I.I.I.I.I.I.I.I.I.I.I.I.I.I.I.I.J.N.K.I.Z.I.q 3 ] +.;.;.>.>.5.1.:.>.3.6.",
"I.I.I.I.I.I.I.I.I.I.I.I.I.I.I.I.I.I.I.I.I.I.J.N.L.K.I.L.I.  e ` $.3.>.>.>.6.&.3.5.3.1.",
"I.I.I.I.I.I.I.I.I.I.I.I.I.I.I.I.I.I.I.I.I.I.I.H.J.K.L.I.K.> 5 C y.6.3.>.>.8.=.>.=.1.1.",
"I.I.I.I.I.I.I.I.I.I.I.I.I.I.I.I.I.I.I.I.I.I.I.P.F.L.L.I.I.l.@ g } ,.>.3.>.6.5.=.=.1.3.",
"I.I.I.I.I.I.I.I.I.I.I.I.I.I.I.I.I.I.I.I.I.I.I.J.F.I.L.I.I.P.a < F @.&.5.;.3.=.3.=.5.1.",
"I.I.I.I.I.I.I.I.I.I.I.I.I.I.I.I.I.I.I.I.I.I.I.H.J.I.K.I.L.D.S.o V w.,.8.>.3.=.>.>.3.3.",
"I.I.I.I.I.I.I.I.I.I.I.I.I.I.I.I.I.I.I.I.I.I.I.P.P.I.I.I.I.I.P.# 9 q.@.4.6.%.6.3.3.>.>.",
"I.I.I.I.I.I.I.I.I.I.I.I.I.I.I.I.I.I.I.I.I.I.I.I.I.I.I.I.I.P.P.W , B p.4.3.5.*.3.3.>.>.",
"I.I.I.I.I.I.I.I.I.I.I.I.I.I.I.I.I.I.I.I.I.I.I.I.I.J.I.L.I.I.P.C.X n e.4.3.5.=.3.3.>.>.",
"I.I.I.I.I.I.I.I.I.I.I.I.I.I.I.I.I.I.I.I.I.I.I.I.I.I.I.I.I.I.I.P.@ c P 4.3.%.7.3.3.3.>.",
"I.I.I.I.I.I.I.I.I.I.I.I.I.I.I.I.I.I.I.I.I.I.I.I.I.L.J.I.I.I.P.P.: d L 4.4.%.5.3.3.>.>.",
"I.I.I.I.I.I.I.I.I.I.I.I.I.I.I.I.I.I.I.I.I.I.I.I.I.J.I.I.I.P.I.P.w 6 [ a.3.5.*.3.3.>.:.",
"I.I.I.I.I.I.I.I.I.I.I.I.I.I.I.I.I.I.I.I.I.I.I.I.I.J.J.I.L.I.I.J.h.& D <.4.>.=.1.3.>.:.",
"I.I.I.I.I.I.I.I.I.I.I.I.I.I.I.I.I.I.I.I.I.I.I.I.I.I.I.I.I.I.J.J.P.o l u.4.I 8.3.3.5.:.",
"I.I.I.I.I.I.I.I.I.I.I.I.I.I.I.I.I.I.I.I.I.I.I.J.J.I.L.L.L.I.J.B.H.Q = L <.3.3.3.3.3.>.",
"I.I.I.I.I.I.I.I.I.I.I.I.I.I.I.I.I.I.I.I.I.I.J.J.J.L.L.L.L.I.J.B.H.c.& G @.T 6.3.>.3.3."
};
