/* XPM */
static char *tile0921719244614[] = {
/* columns rows colors chars-per-pixel */
"43 43 203 2 ",
"   c #000215",
".  c #00041C",
"X  c #000425",
"o  c #010C25",
"O  c #00032D",
"+  c #010C2C",
"@  c #01132C",
"#  c #081624",
"$  c #000133",
"%  c #000835",
"&  c #000639",
"*  c #000C3B",
"=  c #01113B",
"-  c #001336",
";  c #142038",
":  c #000E48",
">  c #000945",
",  c #001443",
"<  c #00124B",
"1  c #091E46",
"2  c #011A57",
"3  c #0D2048",
"4  c #1B2B42",
"5  c #1F3240",
"6  c #0C2359",
"7  c #102658",
"8  c #1C2B5B",
"9  c #142E5F",
"0  c #1D3A5A",
"q  c #283345",
"w  c #273758",
"e  c #253350",
"r  c #363D59",
"t  c #0F2966",
"y  c #122B67",
"u  c #0A2F73",
"i  c #1B3775",
"p  c #223869",
"a  c #323E68",
"s  c #1C4271",
"d  c #2C427B",
"f  c #374F7F",
"g  c #364E74",
"h  c #4C4E5A",
"j  c #45536B",
"k  c #4F5E73",
"l  c #5E707C",
"z  c #6C7379",
"x  c #1C3788",
"c  c #2B4684",
"v  c #2E4D86",
"b  c #274988",
"n  c #324B8B",
"m  c #33508C",
"M  c #3A5595",
"N  c #3A609F",
"B  c #3559AA",
"V  c #455682",
"C  c #405C9D",
"Z  c #4C648A",
"A  c #586586",
"S  c #52679E",
"D  c #486897",
"F  c #667689",
"G  c #6C7B92",
"H  c #717A97",
"J  c #4E67A7",
"K  c #4562AC",
"L  c #4C66AC",
"P  c #4C6EB8",
"I  c #5A6BBB",
"U  c #5B74BD",
"Y  c #5C78B5",
"T  c #6A7FB8",
"R  c #3C7DFF",
"E  c #4368C1",
"W  c #5E79C1",
"Q  c #5B7CCE",
"!  c #587AC4",
"~  c #4976D4",
"^  c #597BD7",
"/  c #667AC8",
"(  c #4A7AE6",
")  c #457BEC",
"_  c #4A7DEA",
"`  c #547CE5",
"'  c #557CED",
"]  c #5B7DE3",
"[  c #467EFE",
"{  c #497CF9",
"}  c #5C7FFF",
"|  c #627FE5",
" . c #708099",
".. c #7F8C9C",
"X. c #7080A2",
"o. c #5481DC",
"O. c #5D84DC",
"+. c #5E89DC",
"@. c #5881D6",
"#. c #6483C4",
"$. c #6483CB",
"%. c #6B88CF",
"&. c #6991CC",
"*. c #6482D4",
"=. c #6B8CD5",
"-. c #6183DB",
";. c #678ADB",
":. c #6689D5",
">. c #718BDB",
",. c #6591DC",
"<. c #7897DA",
"1. c #4885E5",
"2. c #4E84EB",
"3. c #4E8EE8",
"4. c #5686E2",
"5. c #5C83E3",
"6. c #538BE6",
"7. c #5683EC",
"8. c #5489EE",
"9. c #5B8AEB",
"0. c #5B86E8",
"q. c #4580F6",
"w. c #4C84F5",
"e. c #4E8CF6",
"r. c #4687FF",
"t. c #4C84FB",
"y. c #4D8AFD",
"u. c #5585F5",
"i. c #5A84F6",
"p. c #5289F5",
"a. c #5C8AF3",
"s. c #5486FD",
"d. c #5A84FD",
"f. c #5289FC",
"g. c #5B8BFD",
"h. c #5291F6",
"j. c #5090FF",
"k. c #5C92FF",
"l. c #5E95F6",
"z. c #6284E3",
"x. c #658AE4",
"c. c #6384EB",
"v. c #608AED",
"b. c #6B8FE8",
"n. c #628AF4",
"m. c #638AFF",
"M. c #6886F7",
"N. c #6090F6",
"B. c #6092FF",
"V. c #6E92F2",
"C. c #7199E9",
"Z. c #8291A4",
"A. c #989FAF",
"S. c #8997B7",
"D. c #969FB0",
"F. c #8FA0BC",
"G. c #9FA1B6",
"H. c #A8BABA",
"J. c #95A4C1",
"K. c #A3A9C1",
"L. c #A8B3D3",
"P. c #AAB5CB",
"I. c #BBC5CF",
"U. c #BDCBD5",
"Y. c #C9CDD6",
"T. c #D3D8DE",
"R. c #E3E9DF",
"E. c #C2CBEB",
"W. c #CCD2EC",
"Q. c #D6E6EA",
"!. c #DBE6F9",
"~. c #DBEBFA",
"^. c #DEE3F7",
"/. c #E5E5E4",
"(. c #EDEEE5",
"). c #E7E7E9",
"_. c #EDECEE",
"`. c #F5EDEA",
"'. c #E6F0E7",
"]. c #EFF6E6",
"[. c #EBF1EA",
"{. c #F3F3ED",
"}. c #FAF3EF",
"|. c #F5FAEB",
" X c #FCFEED",
".X c #E5EBF2",
"XX c #EBE9F2",
"oX c #E4EEFC",
"OX c #ECEEFC",
"+X c #FAEFF7",
"@X c #F4EFF6",
"#X c #EDF3F3",
"$X c #EDF5FD",
"%X c #EEFCFF",
"&X c #E3F1FF",
"*X c #F4F6F3",
"=X c #FBF6F5",
"-X c #F4FBF4",
";X c #FDFDF5",
":X c #F4F5FC",
">X c #FEF6FE",
",X c #F5FEFD",
"<X c #FEFEFE",
/* pixels */
"<X<X<X<X<X<X<X<X<X<X<X<X<X<X<X<X<X<X<X<X<X<X<X<X<X<X<X<X,X<X/.;X;X{.<X,XOX$ M ^ a.p.y.",
"<X<X<X<X<X<X<X<X<X<X<X<X<X<X<X<X<X<X<X<X<X<X<X<X<X<X<X<X<X,X<X<X;X;X;X<X,Xa y -.n.u.y.",
"<X<X<X<X<X<X<X<X<X<X<X<X<X<X<X<X<X<X<X<X<X<X<X<X<X<X<X<X<X,X<X<X;X;X;X<X:XS.: / 5.k.y.",
"<X<X<X<X<X<X<X<X<X<X<X<X<X<X<X<X<X<X<X<X<X<X<X<X<X<X<X<X<X<X,X<X<X;X;X;X>XW.$ %.5.B.r.",
"<X<X<X<X<X<X<X<X<X<X<X<X<X<X<X<X<X<X<X<X<X<X<X<X<X<X<X<X<X<X<X<X<X;X;X;X<X.X& / 5.g.w.",
"<X<X<X<X<X<X<X<X<X<X<X<X<X<X<X<X<X<X<X<X<X<X<X<X<X<X<X<X;X<X<X<X,X<X;X X<X,X$ U c.u.y.",
"<X<X<X<X<X<X<X<X<X<X<X<X<X<X<X<X<X<X<X<X<X<X<X<X<X<X<X<X<X<X<X<X<X<X X;X*X<X$ I c.i.p.",
"<X<X<X<X<X<X<X<X<X<X<X<X<X<X<X<X<X<X<X<X<X<X<X<X<X<X<X<X;X>X<X<X,X,X-X-X*XD.* / | i.s.",
"<X<X<X;X<X<X<X<X<X<X<X<X<X<X<X<X<X<X<X<X<X<X<X<X<X<X<X<X<X<X<X<X<X,X;X;X<Xo 8 >.5.g.w.",
"<X-X;X|.;X;X>X<X<X;X X X<X<X<X<X<X<X<X<X<X<X<X<X<X<X<X<X;X<X>X<X<X>X;X{.%X# d *.a.i.w.",
",X<X;X;X;X<X<X>X<X;X X X;X<X<X<X<X<X<X<X<X<X<X<X<X<X<X<X|.,X<X>X>X>X;X;X,Xo v O.a.f.t.",
",X,X<XR.<X<X>X>X<X;X X X<X<X<X<X<X<X<X<X<X<X<X<X<X<X<X<X-X<X<X>X>X<X=X<XI.o U +.` j.f.",
". q Y.<X<X<X>X<X<X<X;X;X<X<X<X<X<X<X<X<X<X<X<X<X<X<X<X<X-X-X<X<X>X<X`.<X..O <.x.( f.f.",
"V X # ,X<X<X>X>X>X<X;X-X<X<X<X<X<X<X<X<X<X<X<X<X<X<X<X<X-X-X=X>X<X<X=X,XG * $.9.i.y.q.",
"X.V ; :X<X<X>X>X>X<X,X<X<X<X<X<X<X<X<X<X<X<X<X<X<X<X<X<X-X;X<X<X=X>X<X:Xw 6 Q 5.g.f.y.",
"Q S % ,X<X>X>X>X<X<X,X,X,X<X<X<X<X<X<X<X<X<X<X<X<X<X<X<X-X<X-X;X<X<X,XP.O C x.7.s.t.f.",
"b.S X ,X<X;X>X>X<X,X,X,X<X<X<X<X<X<X<X<X<X<X<X<X<X<X<X<X-X;X(.;X;X<X$XA 2 >.5.7.g.t.t.",
"O.U O ,X<X;X=X<X<X,X#X-X<X<X<X<X<X<X<X<X<X<X<X<X<X<X<X<X=X<X[.|.<X.X%X1 n Q a.' s.s.t.",
"` P , ~.#X;X;X`._.<X,X-X,X<X<X<X<X<X<X<X<X<X<X<X<X<X<X<X=X;X;X;X{.,X&X$ L z.a.u.g.f.t.",
"4.B , %X,X}.=X;X<X<X<X[.<X<X<X<X<X<X<X<X<X<X<X<X<X<X<X<X<X<X X;X<X,XH < / n.i.w.g.s.{ ",
"7.B $ %X:X;X;X=X_.-X<X<X<X<X<X<X<X<X<X<X<X<X<X<X<X<X<X<X<X<X|. X,X%X- c x.i.i.t.j.s.w.",
"i.E < S.,X,X<X;X<X<X*X-X<X<X<X<X<X<X<X<X<X<X<X<X<X<X<X<X<X:X<X|.'.,X% K c.d.s.f.j.f.w.",
"u.5.M + U.#X<X=X:X<X<X<X<X<X<X<X<X<X<X<X<X<X<X<X<X<X<X<X:X<X;X].-XQ.$ ! c.d.s.f.s.p.p.",
"i.c.$.*   z _.<X@X<X<X).<X<X<X<X<X<X<X<X<X<X<X<X<X<X<X<X>X<X].|.<Xl , *.} d.g.f.p.s.s.",
"m.` -.#.g   h ).<X*X<X<X<X<X<X<X<X<X<X<X<X<X<X<X<X<X<X<X<XXX*X<XQ.# d 5.i.d.d.t.w.i.g.",
"d.d.p.0.=.v   <X<X<X,X:X<X<X<X<X<X<X<X<X<X<X<X<X<X<X<X<X>X>X#X,XF - #.6.d.s.s.s.f.f.s.",
"s.t.y.y.o.m X <X}.;X,X,X<X>X<X>X<X<X<X<X<X<X<X<X<X<X<X<X>X>X,X~.@ s C.4.d.s.s.s.f.s.f.",
"s.s.y.p.@.y r <X;X;X,X,X<X<X<X<X<X<X<X<X<X<X<X<X<X<X<X<X>X<X,Xj 1 &.o.p.s.s.s.s.f.s.f.",
"p.f.y.p.+.< H XX<X X<X-X<X<X<X<X<X<X<X<X<X<X<X<X<X<X<X<X:X@X!.O v :.o.N.s.s.f.d.d.s.s.",
"p.f.p.8.+.2 A OX*X;X;X-X<X<X<X<X<X<X<X<X<X<X<X<X;X<X;X<X<X,Xe 7 :.x.N.) f.f.s.s.f.y.y.",
"p.f.p.8.O.i 3 <X<X=X|.<X,X<X<X<X<X<X<X=X<X;X<X<X<X<X<X<X*XU.O J x.` ) k.f.s.s.f.t.s.f.",
"p.p.p.p.5.K * L.<X<X[.<X<X<X<X,X<X,X<X<X<X<X;X;X<X;X<X,X-Xq p ;.` i.k.) p.y.t.f.s.s.y.",
"f.p.p.p.9.;.i * E.<X<X*X<X<X,X<X<X;X<X;X<X;X;X<X<X<X<X<XH.. Y -.m.{ s.f.e.p.s.s.f.t.f.",
"y.f.p.i.` V./ 2 * K.<X<X,X<X,X<X<X<X;X<X<X;X<X/.<X<X-X,X# w $.5.d.g.t.y.y.p.t.f.s.f.y.",
"y.f.s.i.i.' ^ >.d + Y.<X<X,X<X<X;X<X;X<X;X<X_.<X<X<X,X$X@ D ;.` d.t.t.y.e.p.y.f.s.s.y.",
"y.f.s.s.d.i.u.V./ O G.:X<X<X,X<X<X<X<X;X;X<X<X<X,X.X,XZ.O &.x.7.g.t.y.y.y.y.p.f.s.y.s.",
"y.y.s.u.d.d.s.7.C.< F <X,X,X<X<X<X<X;X;X=X<X<X:X:X,XoXS.: ;.5.8.s.t.y.r.y.p.f.f.d.p.y.",
"y.y.p.d.s.s.t.g.b.2 j :X<X<X<X<X;X<X<X<X<X*X,X,X,XoX,X3 x ] 0.a.2.y.j.w.y.f.d.p.p.s.s.",
"y.e.p.u.s.t.t.q.5.b 4 ,X<X<X<X<X<X=X<X<X<X<X,X:X,X,X5 $ ^ ' n.9.1.p.h.r.f.s.s.p.s.u.s.",
"y.e.p.p.s.r.j.y.l.M . T.:X;X<X<X;X=X=X<X<X).<X,X~.k @ T M.} n.7.6.3.h.r.y.s.u.i.p.i.d.",
"y.y.i.u.t.k.R r.8.,.9 @ .X:X,X<X<X=X;X<X+X<X:X$XJ.. Z #.i.d.u.2.l.1.h.t.f.f.f.i.p.u.s.",
"f.y.y.f.f.s.j.y.w.l.~ u X U.,X:X<X+X=X;X+X<X:XE.% M #.+.i.d.f.f.f.y.y.f.s.f.f.s.s.f.s.",
"f.y.f.f.f.t.f.f.) f.k.~ i @  .A.).<X<X;X>XOX<X8 t *.z.8.u.f.f.f.f.f.t.f.y.s.f.t.f.f.f."
};
