/* XPM */
static char *tile0931719244614[] = {
/* columns rows colors chars-per-pixel */
"43 43 35 1 ",
"  c #4E8CFF",
". c #5088FF",
"X c #5188FF",
"o c #4889FF",
"O c #4E89FF",
"+ c #4B8CFF",
"@ c #4C8DFF",
"# c #4D8CFF",
"$ c #4D8CFE",
"% c #4E8BFE",
"& c #4D8BFC",
"* c #5089FD",
"= c #4B89FA",
"- c #5391FF",
"; c #4D8AFD",
": c #4683F8",
"> c #518CFF",
", c #4F87FF",
"< c #5189FF",
"1 c #5187FF",
"2 c #5A90FF",
"3 c #5389FF",
"4 c #5286FE",
"5 c #5488FF",
"6 c #568AFF",
"7 c #5487FC",
"8 c #5387FD",
"9 c #5184F7",
"0 c #5184F9",
"q c #5387FF",
"w c #5089FC",
"e c #5188FD",
"r c #5188FC",
"t c #5486FF",
"y c white",
/* pixels */
" .XXXXXXXXXXXXXXXXXXXXXXXXXXXXXXXXXXXXXXXXX",
"oOXXXXXXXXXXXXXXXXXXXXXXXXXXXXXXXXXXXXXXXXX",
"+OXXXXXXXXXXXXXXXXXXXXXXXXXXXXXXXXXXXXXXXXX",
"@OXXXXXXXXXXXXXXXXXXXXXXXXXXXXXXXXXXXXXXXXX",
"+OXXXXXXXXXXXXXXXXXXXXXXXXXXXXXXXXXXXXXXXXX",
"#.XXXXXXXXXXXXXXXXXXXXXXXXXXXXXXXXXXXXXXXXX",
"$.XXXXXXXXXXXXXXXXXXXXXXXXXXXXXXXXXXXXXXXXX",
"%.XXXXXXXXXXXXXXXXXXXXXXXXXXXXXXXXXXXXXXXXX",
"&*XXXXXXXXXXXXXXXXXXXXXXXXXXXXXXXXXXXXXXXXX",
"=*XXXXXXXXXXXXXXXXXXXXXXXXXXXXXXXXXXXXXXXXX",
"-*XXXXXXXXXXXXXXXXXXXXXXXXXXXXXXXXXXXXXXXXX",
";.XXXXXXXXXXXXXXXXXXXXXXXXXXXXXXXXXXXXXXXXX",
":.XXXXXXXXXXXXXXXXXXXXXXXXXXXXXXXXXXXXXXXXX",
"O.XXXXXXXXXXXXXXXXXXXXXXXXXXXXXXXXXXXXXXXXX",
">.XXXXXXXXXXXXXXXXXXXXXXXXXXXXXXXXXXXXXXXXX",
",XXXXXXXXXXXXXXXXXXXXXXXXXXXXXXXXXXXXXXXXXX",
"<1XXXXXXXXXXXXXXXXXXXXXXXXXXXXXXXXXXXXXXXXX",
"21XXXXXXXXXXXXXXXXXXXXXXXXXXXXXXXXXXXXXXXXX",
"3XXXXXXXXXXXXXXXXXXXXXXXXXXXXXXXXXXXXXXXXXX",
"4XXXXXXXXXXXXXXXXXXXXXXXXXXXXXXXXXXXXXXXXXX",
"5XXXXXXXXXXXXXXXXXXXXXXXXXXXXXXXXXXXXXXXXXX",
"6XXXXXXXXXXXXXXXXXXXXXXXXXXXXXXXXXXXXXXXXXX",
"78XXXXXXXXXXXXXXXXXXXXXXXXXXXXXXXXXXXXXXXXX",
"98XXXXXXXXXXXXXXXXXXXXXXXXXXXXXXXXXXXXXXXXX",
"08XXXXXXXXXXXXXXXXXXXXXXXXXXXXXXXXXXXXXXXXX",
"qXXXXXXXXXXXXXXXXXXXXXXXXXXXXXXXXXXXXXXXXXX",
"qXXXXXXXXXXXXXXXXXXXXXXXXXXXXXXXXXXXXXXXXXX",
"XXXXXXXXXXXXXXXXXXXXXXXXXXXXXXXXXXXXXXXXXXX",
"XXXXXXXXXXXXXXXXXXXXXXXXXXXXXXXXXXXXXXXXXXX",
"*XXXXXXXXXXXXXXXXXXXXXXXXXXXXXXXXXXXXXXXXXX",
"weXXXXXXXXXXXXXXXXXXXXXXXXXXXXXXXXXXXXXXXXX",
"weXXXXXXXXXXXXXXXXXXXXXXXXXXXXXXXXXXXXXXXXX",
"weXXXXXXXXXXXXXXXXXXXXXXXXXXXXXXXXXXXXXXXXX",
"weXXXXXXXXXXXXXXXXXXXXXXXXXXXXXXXXXXXXXXXXX",
"weXXXXXXXXXXXXXXXXXXXXXXXXXXXXXXXXXXXXXXXXX",
"reXXXXXXXXXXXXXXXXXXXXXXXXXXXXXXXXXXXXXXXXX",
"eXXXXXXXXXXXXXXXXXXXXXXXXXXXXXXXXXXXXXXXXXX",
"qXXXXXXXXXXXXXXXXXXXXXXXXXXXXXXXXXXXXXXXXXX",
"qXXXXXXXXXXXXXXXXXXXXXXXXXXXXXXXXXXXXXXXXXX",
"tqXXXXXXXXXXXXXXXXXXXXXXXXXXXXXXXXXXXXXXXXX",
"tqXXXXXXXXXXXXXXXXXXXXXXXXXXXXXXXXXXXXXXXXX",
"qXXXXXXXXXXXXXXXXXXXXXXXXXXXXXXXXXXXXXXXXXX",
"XXXXXXXXXXXXXXXXXXXXXXXXXXXXXXXXXXXXXXXXXXX"
};
