/* XPM */
static char *tile106_ezgif_com_overlay__5_1719300972[] = {
/* columns rows colors chars-per-pixel */
"43 43 256 2 ",
"   c black",
".  c #010101",
"X  c #020202",
"o  c gray1",
"O  c #040404",
"+  c gray2",
"@  c #060606",
"#  c #070707",
"$  c gray3",
"%  c #090909",
"&  c gray4",
"*  c #0B0B0B",
"=  c #0C0C0C",
"-  c gray5",
";  c #0E0E0E",
":  c gray6",
">  c #101010",
",  c #111111",
"<  c gray7",
"1  c #131313",
"2  c gray8",
"3  c #151515",
"4  c #161616",
"5  c gray9",
"6  c #181818",
"7  c #191919",
"8  c gray10",
"9  c #1B1B1B",
"0  c gray11",
"q  c #1D1D1D",
"w  c #1E1E1E",
"e  c gray12",
"r  c #202020",
"t  c gray13",
"y  c #222222",
"u  c #232323",
"i  c gray14",
"p  c #252525",
"a  c gray15",
"s  c #272727",
"d  c #282828",
"f  c gray16",
"g  c #2A2A2A",
"h  c gray17",
"j  c #2C2C2C",
"k  c #2D2D2D",
"l  c gray18",
"z  c #2F2F2F",
"x  c gray19",
"c  c #313131",
"v  c #323232",
"b  c gray20",
"n  c #343434",
"m  c #353535",
"M  c gray21",
"N  c #373737",
"B  c gray22",
"V  c #393939",
"C  c #3A3A3A",
"Z  c gray23",
"A  c #3C3C3C",
"S  c gray24",
"D  c #3E3E3E",
"F  c #3F3F3F",
"G  c gray25",
"H  c #414141",
"J  c gray26",
"K  c #434343",
"L  c #444444",
"P  c gray27",
"I  c #464646",
"U  c gray28",
"Y  c #484848",
"T  c #494949",
"R  c gray29",
"E  c #4B4B4B",
"W  c #4C4C4C",
"Q  c gray30",
"!  c #4E4E4E",
"~  c gray31",
"^  c #505050",
"/  c #515151",
"(  c gray32",
")  c #535353",
"_  c gray33",
"`  c #555555",
"'  c #565656",
"]  c gray34",
"[  c #585858",
"{  c gray35",
"}  c #5A5A5A",
"|  c #5B5B5B",
" . c gray36",
".. c #5D5D5D",
"X. c gray37",
"o. c #5F5F5F",
"O. c #606060",
"+. c gray38",
"@. c #626262",
"#. c gray39",
"$. c #646464",
"%. c #656565",
"&. c gray40",
"*. c #676767",
"=. c #686868",
"-. c DimGray",
";. c #6A6A6A",
":. c gray42",
">. c #6C6C6C",
",. c #6D6D6D",
"<. c gray43",
"1. c #6F6F6F",
"2. c gray44",
"3. c #717171",
"4. c #727272",
"5. c gray45",
"6. c #747474",
"7. c gray46",
"8. c #767676",
"9. c #777777",
"0. c gray47",
"q. c #797979",
"w. c gray48",
"e. c #7B7B7B",
"r. c #7C7C7C",
"t. c gray49",
"y. c #7E7E7E",
"u. c gray50",
"i. c #808080",
"p. c #818181",
"a. c gray51",
"s. c #838383",
"d. c #848484",
"f. c gray52",
"g. c #868686",
"h. c gray53",
"j. c #888888",
"k. c #898989",
"l. c gray54",
"z. c #8B8B8B",
"x. c gray55",
"c. c #8D8D8D",
"v. c #8E8E8E",
"b. c gray56",
"n. c #909090",
"m. c gray57",
"M. c #929292",
"N. c #939393",
"B. c gray58",
"V. c #959595",
"C. c gray59",
"Z. c #979797",
"A. c #989898",
"S. c gray60",
"D. c #9A9A9A",
"F. c #9B9B9B",
"G. c gray61",
"H. c #9D9D9D",
"J. c gray62",
"K. c #9F9F9F",
"L. c #A0A0A0",
"P. c gray63",
"I. c #A2A2A2",
"U. c gray64",
"Y. c #A4A4A4",
"T. c #A5A5A5",
"R. c gray65",
"E. c #A7A7A7",
"W. c gray66",
"Q. c #A9A9A9",
"!. c #AAAAAA",
"~. c gray67",
"^. c #ACACAC",
"/. c gray68",
"(. c #AEAEAE",
"). c #AFAFAF",
"_. c gray69",
"`. c #B1B1B1",
"'. c #B2B2B2",
"]. c gray70",
"[. c #B4B4B4",
"{. c gray71",
"}. c #B6B6B6",
"|. c #B7B7B7",
" X c gray72",
".X c #B9B9B9",
"XX c gray73",
"oX c #BBBBBB",
"OX c #BCBCBC",
"+X c gray74",
"@X c gray",
"#X c gray75",
"$X c #C0C0C0",
"%X c #C1C1C1",
"&X c gray76",
"*X c #C3C3C3",
"=X c gray77",
"-X c #C5C5C5",
";X c #C6C6C6",
":X c gray78",
">X c #C8C8C8",
",X c gray79",
"<X c #CACACA",
"1X c #CBCBCB",
"2X c gray80",
"3X c #CDCDCD",
"4X c #CECECE",
"5X c gray81",
"6X c #D0D0D0",
"7X c gray82",
"8X c #D2D2D2",
"9X c LightGray",
"0X c gray83",
"qX c #D5D5D5",
"wX c gray84",
"eX c #D7D7D7",
"rX c #D8D8D8",
"tX c gray85",
"yX c #DADADA",
"uX c gray86",
"iX c gainsboro",
"pX c #DDDDDD",
"aX c gray87",
"sX c #DFDFDF",
"dX c gray88",
"fX c #E1E1E1",
"gX c #E2E2E2",
"hX c gray89",
"jX c #E4E4E4",
"kX c gray90",
"lX c #E6E6E6",
"zX c #E7E7E7",
"xX c gray91",
"cX c #E9E9E9",
"vX c #EAEAEA",
"bX c gray92",
"nX c #ECECEC",
"mX c gray93",
"MX c #EEEEEE",
"NX c #EFEFEF",
"BX c gray94",
"VX c #F1F1F1",
"CX c gray95",
"ZX c #F3F3F3",
"AX c #F4F4F4",
"SX c gray96",
"DX c #F6F6F6",
"FX c gray97",
"GX c #F8F8F8",
"HX c #F9F9F9",
"JX c gray98",
"KX c #FBFBFB",
"LX c gray99",
"PX c #FDFDFD",
"IX c #FEFEFE",
"UX c white",
/* pixels */
"UXUXUXUXUXUXUXUXUXUXUXUXUXUXUXUXUXUXUXUXUXUXUXUXUXUXUXUXUXUXUXUXUXUXUXUXUXUXUXUXUXUXUX",
"UXUXUXUXUXUXUXUXUXUXUXUXUXUXUXUXUXUXUXUXUXUXUXUXUXUXUXUXUXUXUXUXUXUXUXUXUXUXUXUXUXUXUX",
"UXUXUXUXUXUXUXUXUXUXUXUXUXUXUXUXUXUXUXUXUXUXUXUXUXUXUXUXUXUXUXUXUXUXUXUXUXUXUXUXUXUXUX",
"UXUXUXUXUXUXUXUXUXUXUXUXUXUXUXUXUXUXUXUXUXUXUXUXUXUXUXUXUXUXUXUXUXUXUXUXUXUXUXUXUXUXUX",
"UXUXUXUXUXUXUXUXUXUXUXUXUXUXUXUXUXUXUXUXUXUXUXUXUXUXUXUXUXUXUXUXUXUXUXUXUXUXUXUXUXUXUX",
"UXUXUXUXUXUXUXUXUXUXUXUXUXUXUXUXUXUXUXUXUXUXUXUXUXUXUXUXUXUXUXUXUXUXUXUXUXUXUXUXUXUXUX",
"UXUXUXUXUXUXUXUXUXUXUXUXUXUXUXUXUXUXUXUXUXUXUXUXUXUXUXUXUXUXUXUXUXUXUXUXUXUXUXUXUXUXUX",
"UXUXUXUXUXUXUXUXUXUXUXUXUXUXUXUXUXUXUXUXUXUXUXUXUXUXUXUXUXUXUXUXUXUXUXUXUXUXUXUXUXUXUX",
"UXUXUXUXUXUXUXUXUXUXUXUXUXUXUXUXUXUXUXUXUXUXUXUXUXUXUXUXUXUXUXUXUXUXUXUXUXUXUXUXUXUXUX",
"UXUXUXUXUXUXUXUXUXUXUXUXUXUXUXUXUXUXUXUXUXUXUXUXUXUXUXUXUXUXUXUXUXUXUXUXUXUXUXUXUXUXUX",
"UXUXUXUXUXUXUXUXUXUXUXUXUXUXUXUXUXUXUXUXUXUXUXUXUXUXUXUXUXUXUXUXUXUXUXUXUXUXUXUXUXUXUX",
"UXUXUXUXUXUXUXUXUXUXUXUXUXUXUXUXUXUXUXUXUXUXUXUXUXUXUXUXUXUXUXUXUXUXUXUXUXUXUXUXUXUXUX",
"UXUXUXUXUXUXUXUXUXUXUXUXUXUXUXUXUXUXUXUXUXUXUXUXUXUXUXUXUXUXUXUXUXUXUXUXUXUXUXUXUXUXUX",
"UXUXUXUXUXUXUXUXUXUXUXUXUXUXUXUXUXUXUXUXUXUXUXUXUXUXUXUXUXUXUXUXUXUXUXUXUXUXUXUXUXUXUX",
"UXUXUXUXUXUXUXUXUXUXUXUXUXUXUXUXUXUXUXUXUXUXUXUXUXUXUXUXUXUXUXUXUXUXUXUXUXUXUXUXUXUXUX",
"UXUXUXUXUXUXUXUXUXUXUXUXUXUXUXUXUXUXUXUXUXUXUXUXUXUXUXUXUXUXUXUXUXUXUXUXUXUXUXUXUXUXUX",
"UXUXUXUXUXUXUXUXUXUXUXUXUXUXUXUXUXUXUXUXUXUXUXUXUXUXUXUXUXUXUXUXUXUXUXUXUXUXUXUXUXUXUX",
"UXUXUXUXUXUXUXUXUXUXUXUXUXUXUXPXfXlXIXUXUXUXUXUXUXUXUXUXUXUXUXUXUXUXUXUXUXUXUXUXUXUXUX",
"UXUXUXUXUXUXUXUXUXUXUXUXUXUXUX4Xg.A.qXUXUXUXUXUXUXUXUXUXUXUXUXUXUXUXUXUXUXUXUXUXUXUXUX",
"UXUXUXUXUXUXUXUXUXUXUXUXUXLX@X5...*.l.sXUXUXUXUXUXUXUXUXUXUXUXUXUXUXUXUXUXUXUXUXUXUXUX",
"mXMXVXZXSXSXFXFXFXFXDXFXAXE.} X...X.0.J.fXGXFXFXFXSXCXvXuX>X{.U.n.h.f.u.p.f.h.h.p.d.j.",
"#.%.:.w.4.2.7.w.0.t.d.r.w._  .;.X.#.:.6.9.b.m.B.V.N.h.w.&. .( Q L T ^ ] ] ] ..) T K n ",
"= - : > , < 2 q m ` $.X...{  .#.@.+.@.,.3.;.<.4.@.W S A A D J R ~ _ +.%.` ^ / E E / ^ ",
"X . X o O # * 8 n U R L H G R ' { } X.*.8.&. .} o.] x 9 7 7 8 9 0 0 w i f x V J Q _ { ",
"O + # $ $ % = - ; ; > , , < 2 5 8 q w e i t r y t i i i p p p p p s d d f g h k l x v ",
"> < 2 4 5 6 6 8 9 0 q q q q q w w w r e e r a h g g k l k j h g s s s s d d d g k k l ",
"b M V V C S D D D G K K J J K P P K K P U U U Y Y Y R E R R T I J G D S S S S Z S G G ",
"o... .X.| } }  . ...X...| | ..X.O.@.@.@.@.#.#.$.%.$.%.$.%.&.*.%.#.#.+.O.+.$.=.*.=.=.&.",
"y.w.w.u.t.t.t.w.0.e.7.4.2.2.4.8.0.q.0.5.7.9.0.r.r.9.8.9.0.7.7.6.9.w.0.7.7.7.5.6.q.e.e.",
"R.R.T.T.T.Y.Y.U.Y.I.J.J.K.H.K.P.I.P.K.G.F.D.S.S.A.A.S.A.Z.Z.A.C.C.V.V.B.M.v.j.x.M.m.b.",
" X|. X X.X{.}.}.[.^.E.L.M.v.V.~./._.{.{.'.{.[.(.)._.'.].~.H.K.E.Q.W.E.!.~.^.^.!.~.W.I.",
"`.{.oX%X:X:X%XOX.X%X<X-X].oX|.1X6X6XwXeX0XqX8X8X8XqX0X5X^.b.z.Z.].%X*X-X%X&XOX`._.[.].",
"0.w.l.M.u.T.].].!.%XhXlXzXlXzXxXxXxXzXhXpXtXiXwX,X1XpX&X].&X*X}.]. XoXXX`.OXT./.OX@X+X",
"-.| p.n.g.I.K.^.l.J.[.-X4XqXrXpXrXeXtXwXqXeXyX7X X(.<X'.A.R.R.W.H.A.K.G.H.R.^.U.oXOX'.",
"e.z.G.I.I.u.J ` 3.9.i.3.s.k.z.y.,.x.m.I.E.L.S.I.W.b.g.c.x.C.V.E./.K.C.a.l.V.^.^.v.=.e.",
"K.U.L.P.L.&.E ! 9.r.y.i.g.j.d.9.q.j.g.f.n.c.f.f.N.j.p.u.s.f.t.M.v.x.x.v.d.h.A.L.j.8.f.",
"~.^.H.J.r.M M U ;.X.>.v.b.N.A.N.N.D.N.d.m.x.N.x.n.Z.P.J.L.x.5.a.5.<.r.A.v.<.:.6.-.#.] ",
"/.)./.U.j.{ V _ O.Q ..t.b.H.U.H.D.I.W.K.J.B.b.C.N.G.!.Y.J.l.r.C.~.E.2.b.U.V.i.u.x.F.J.",
"@XXXoX~.K.n.w.d.d.0.7.t.z.d.j.n.l.P.^.4XtX8X=X'.&X=X Xm.Z.M.>.r.l.Y.M.l.Q.'.F.B./.E._.",
"P.N.3.=.0.k.z.n.b.D.F.A.a.s.y.*.*.@...s.D.~./.:.e.e.F.m./.OXY.].}.}._.^.XXoX|..XXX@X&X",
"u.2.L J ` 3.>.,.:.y.5.7.q.w.l.t.9.r.g.z.n.n.-./ [ ) X.&.F..X#XXXXX@X%X|.[.$X#X%X$X;X}.",
",.{ ....' |  .&.&.e.s.2.+.;.a.C.V.V.R.K.K.3.Q G | o.^ ) q.}.oXoXOX+X@X{._.{..XoX+XoXL.",
"k.a.s.p.9.3.;.o.*.f.N.3.~ / #.f.S.^.]. X`.@.S m L W W ~ 9.XX X$X%X+X.XoXOX|.OX=X-X&X1X"
};
