/* XPM */
static char *tile106_ezgif_com_overlay__1_1719300972[] = {
/* columns rows colors chars-per-pixel */
"43 43 256 2 ",
"   c black",
".  c #010101",
"X  c #020202",
"o  c gray1",
"O  c #040404",
"+  c gray2",
"@  c #060606",
"#  c #070707",
"$  c gray3",
"%  c #090909",
"&  c gray4",
"*  c #0B0B0B",
"=  c #0C0C0C",
"-  c gray5",
";  c #0E0E0E",
":  c gray6",
">  c #101010",
",  c #111111",
"<  c gray7",
"1  c #131313",
"2  c gray8",
"3  c #151515",
"4  c #161616",
"5  c gray9",
"6  c #181818",
"7  c #191919",
"8  c gray10",
"9  c #1B1B1B",
"0  c gray11",
"q  c #1D1D1D",
"w  c #1E1E1E",
"e  c gray12",
"r  c #202020",
"t  c gray13",
"y  c #222222",
"u  c #232323",
"i  c gray14",
"p  c #252525",
"a  c gray15",
"s  c #272727",
"d  c #282828",
"f  c gray16",
"g  c #2A2A2A",
"h  c gray17",
"j  c #2C2C2C",
"k  c #2D2D2D",
"l  c gray18",
"z  c #2F2F2F",
"x  c gray19",
"c  c #313131",
"v  c #323232",
"b  c gray20",
"n  c #343434",
"m  c #353535",
"M  c gray21",
"N  c #373737",
"B  c gray22",
"V  c #393939",
"C  c #3A3A3A",
"Z  c gray23",
"A  c #3C3C3C",
"S  c gray24",
"D  c #3E3E3E",
"F  c #3F3F3F",
"G  c gray25",
"H  c #414141",
"J  c gray26",
"K  c #434343",
"L  c #444444",
"P  c gray27",
"I  c #464646",
"U  c gray28",
"Y  c #484848",
"T  c #494949",
"R  c gray29",
"E  c #4B4B4B",
"W  c #4C4C4C",
"Q  c gray30",
"!  c #4E4E4E",
"~  c gray31",
"^  c #505050",
"/  c #515151",
"(  c gray32",
")  c #535353",
"_  c gray33",
"`  c #555555",
"'  c #565656",
"]  c gray34",
"[  c #585858",
"{  c gray35",
"}  c #5A5A5A",
"|  c #5B5B5B",
" . c gray36",
".. c #5D5D5D",
"X. c gray37",
"o. c #5F5F5F",
"O. c #606060",
"+. c gray38",
"@. c #626262",
"#. c gray39",
"$. c #646464",
"%. c #656565",
"&. c gray40",
"*. c #676767",
"=. c #686868",
"-. c DimGray",
";. c #6A6A6A",
":. c gray42",
">. c #6C6C6C",
",. c #6D6D6D",
"<. c gray43",
"1. c #6F6F6F",
"2. c gray44",
"3. c #717171",
"4. c #727272",
"5. c gray45",
"6. c #747474",
"7. c gray46",
"8. c #767676",
"9. c #777777",
"0. c gray47",
"q. c #797979",
"w. c gray48",
"e. c #7B7B7B",
"r. c #7C7C7C",
"t. c gray49",
"y. c #7E7E7E",
"u. c gray50",
"i. c #808080",
"p. c #818181",
"a. c gray51",
"s. c #838383",
"d. c #848484",
"f. c gray52",
"g. c #868686",
"h. c gray53",
"j. c #888888",
"k. c #898989",
"l. c gray54",
"z. c #8B8B8B",
"x. c gray55",
"c. c #8D8D8D",
"v. c #8E8E8E",
"b. c gray56",
"n. c #909090",
"m. c gray57",
"M. c #929292",
"N. c #939393",
"B. c gray58",
"V. c #959595",
"C. c gray59",
"Z. c #979797",
"A. c #989898",
"S. c gray60",
"D. c #9A9A9A",
"F. c #9B9B9B",
"G. c gray61",
"H. c #9D9D9D",
"J. c gray62",
"K. c #9F9F9F",
"L. c #A0A0A0",
"P. c gray63",
"I. c #A2A2A2",
"U. c gray64",
"Y. c #A4A4A4",
"T. c #A5A5A5",
"R. c gray65",
"E. c #A7A7A7",
"W. c gray66",
"Q. c #A9A9A9",
"!. c #AAAAAA",
"~. c gray67",
"^. c #ACACAC",
"/. c gray68",
"(. c #AEAEAE",
"). c #AFAFAF",
"_. c gray69",
"`. c #B1B1B1",
"'. c #B2B2B2",
"]. c gray70",
"[. c #B4B4B4",
"{. c gray71",
"}. c #B6B6B6",
"|. c #B7B7B7",
" X c gray72",
".X c #B9B9B9",
"XX c gray73",
"oX c #BBBBBB",
"OX c #BCBCBC",
"+X c gray74",
"@X c gray",
"#X c gray75",
"$X c #C0C0C0",
"%X c #C1C1C1",
"&X c gray76",
"*X c #C3C3C3",
"=X c gray77",
"-X c #C5C5C5",
";X c #C6C6C6",
":X c gray78",
">X c #C8C8C8",
",X c gray79",
"<X c #CACACA",
"1X c #CBCBCB",
"2X c gray80",
"3X c #CDCDCD",
"4X c #CECECE",
"5X c gray81",
"6X c #D0D0D0",
"7X c gray82",
"8X c #D2D2D2",
"9X c LightGray",
"0X c gray83",
"qX c #D5D5D5",
"wX c gray84",
"eX c #D7D7D7",
"rX c #D8D8D8",
"tX c gray85",
"yX c #DADADA",
"uX c gray86",
"iX c gainsboro",
"pX c #DDDDDD",
"aX c gray87",
"sX c #DFDFDF",
"dX c gray88",
"fX c #E1E1E1",
"gX c #E2E2E2",
"hX c gray89",
"jX c #E4E4E4",
"kX c gray90",
"lX c #E6E6E6",
"zX c #E7E7E7",
"xX c gray91",
"cX c #E9E9E9",
"vX c #EAEAEA",
"bX c gray92",
"nX c #ECECEC",
"mX c gray93",
"MX c #EEEEEE",
"NX c #EFEFEF",
"BX c gray94",
"VX c #F1F1F1",
"CX c gray95",
"ZX c #F3F3F3",
"AX c #F4F4F4",
"SX c gray96",
"DX c #F6F6F6",
"FX c gray97",
"GX c #F8F8F8",
"HX c #F9F9F9",
"JX c gray98",
"KX c #FBFBFB",
"LX c gray99",
"PX c #FDFDFD",
"IX c #FEFEFE",
"UX c white",
/* pixels */
"UXUXUXUXUXUXUXUXUXUXUXUXUXUXUXUXUXUXUXUXUXUXUXUXUXUXUXUXUXUXUXUXUXUXUXUXUXUXUXUXUXUXUX",
"UXUXUXSXJXUXUXUXUXUXUXUXUXUXUXUXUXUXUXUXUXUXUXUXUXUXUXUXUXUXUXUXUXUXUXUXUXUXUXUXUXUXUX",
"UXUXUXqXbXUXUXUXLXPXUXUXUXUXUXUXUXUXUXUXUXUXUXUXUXUXUXUXUXUXUXUXUXUXUXUXUXUXUXUXUXUXUX",
"UXUXUXkXFXUXUXLXqXzXUXUXUXUXUXUXUXUXUXUXUXUXUXUXUXUXKXlXLXUXUXUXUXUXUXUXUXUXUXUXUXUXUX",
"UXUXIXnXPXUXUXUXjXSXUXUXUXUXUXUXUXUXUXUXUXUXUXUXUXUXLXgXKXUXUXUXUXUXUXUXUXUXUXUXUXUXUX",
"UXUXLXcXUXUXAXuX%XeXPXUXUXUXUXUXUXUXUXUXUXUXUXUXUXUXUXeXiXSXUXUXUXUXUXUXUXUXUXUXUXUXUX",
"UXUXJXzXUXFX~.S.N.o.D.FXUXUXUXUXUXUXUXUXUXUXUXUXUXIXGX'.C.!.jXUXUXUXUXUXUXUXUXUXUXUXUX",
"UXUXSXxXSXoX9.W ! G M _.UXUXUXUXUXUXUXUXUXUXUXUXPXnX2Xq.! ! =.kXUXUXUXUXUXUXUXUXUXUXUX",
"UXUXMXNXqXV.I. .p.| m 7.LXUXUXUXUXUXUXUXUXUXUXUXCXY.S.K.{ X.Y p.UXUXUXUXUXUXUXUXUXUXUX",
"UXUXnXdX!.].].) B.$.) w.GXUXUXUXUXUXUXUXUXUXUXUXrXS.].4X:.9.#.0.NXUXUXUXUXUXUXUXUXUXUX",
"UXUXNXE.+.P.R.e.H.O.+.d.DXUXUXUXUXUXUXUXUXUXUXUXwXl.M.:Xa.g.e.*.n.fXUXUXUXUXUXUXUXUXUX",
"UXUXgXg.o.' &.1.7.O.>.h.ZXUXUXUXUXUXUXUXUXUXUXUXDXJ.q.1.w.h.y.1.e.@XUXUXUXUXUXUXUXUXUX",
"UXPXwXa.[ U ..O.@.$.4.q.MXUXUXUXUXUXJXIXUXUXUXUXJXH.5._ o.>.;.*.5.Z.JXUXUXUXUXUXUXUXUX",
"UXHXrX+Xx.b.j.l.W.Q./.N.nXUXUXUXUXUX.XfXUXUXUXUXvXT.T.F.!.C.D.Q.U..XPXUXUXUXUXUXUXUXUX",
"UXZXwX2X!.A.>.n.C.R.>XN.iXUXUXUXUXqX;.W.DXUXUXUX@X|.:X$XC.2.m.(.$X7XKXUXUXUXUXUXUXUXUX",
"UXNX5X`.Z.F.M./.k.G..Xq.2XUXUXKX}._ #.z.I.hXUXUX_.;XOX[.T.C.W.C.[.-XCXUXUXUXUXUXUXUXUX",
"UXnX#XC.>.v.j.6.r._.W.#.%XUX,Xp.( 4.F.(.F.v.W.hX|.&XH.l.C.c.r.d.|.G.5XUXUXUXUXUXUXUXUX",
"UXbX4X].` T ;.-.*.U.@Xf.yXUXoX6.V.i.T @.P.Y.f.dXiX6X.XM. .-.w.;.L.`.1XUXUXUXUXUXUXUXUX",
"UXkX2X(.Q m R U G n.%XV.NXUX+Xc.I.&.F X.v.F.M.8XCXuX#XJ.~ ! <.I z._.*XLXUXUXUXUXUXUXUX",
"IXpX<XW.T Z O.T ' Y.*Xz.jX`.*.L.>Xr.:.r.U.%Xc.=.%X7X&X~.( ! a.Y H. X$XFXUXUXUXUXUXUXUX",
"KXrX%XD.U S ;.E %./.OX1.=.T 9.'.6Xf.;.1.K.1XG.%.f.m./.Q.} R m.Q Y.}.[.NXUXUXUXUXUXUXUX",
"FXeX<XG.P S 3.Y 2.].:X0.S %.A.@X5XN.t.0.s.{.Q.w.{.N./..X$.K N.) Y.}.+XvXUXUXUXUXUXUXUX",
"CX0X<XN. .@.y.=.s.(.5Xt.^ ,.N.|.*X'.G.K.).#X^.h.*X-X&X=Xt.;.M.9.D.E.%XkXUXUXUXUXUXUXUX",
"mXqX-Xm.1.3.2.w.d.R.3Xe.P } z.b.C.D.P.E.U.J.m.s.k.I.'.>XL.e.q.8.0.z.OXpXUXUXUXUXUXUXUX",
"mXtX-XN.s.S.7.Y.oXOX2Xu.o.8.Q./.%X$XR.F.N.;X$X~.a.+X:X;X_.R.F.p.).{.+X9XPXUXUXUXUXUXUX",
"vX6X+Xv.J.{.b.'.;X$X:Xw.%.a.|._.+X@XU.d.U.%X@X}.g.=X,X$X`._.~.D. X#XoX-XCXUXUXUXUXUXUX",
"qXz.y.o.g.v.c.l.j.m.c.] ..s.OXA.4.g.w.t.p.5.G.}.j.OXP.j.8.q.s.h.d.g.x.j.P.PXUXUXUXUXUX",
"2Xk.q.R =.,.:.<.1.b.G.+.} y.!.w.^ @.&.` :.! g.D.f.[.}.P.j.#.f.h.h.l.b.L.P.GXUXUXUXUXUX",
"-X.X/.h.S.q.u.J..X;X<Xw.+.0.F.8.V | ( ! %.G h.Z.i.[.0X*X{.S.P.k.B.~.$X*X.XZXUXUXUXUXUX",
"oX#X^.z.9.Z.}.%X:X2X1Xr.%.2.J.a.V %.| ( 2.S A. Xx.!.tX:X@XA.l.~..X;X:X>X$XvXUXUXUXUXUX",
"K.&XR.9.n.{.I.6X5X3X2Xw.#.<.L.s.F 1.+.' e.H G. Xm.(.iX<X<XM.G.oX(.9X4X;X$XfXUXIXGXDXDX",
"D.-XH.8.E.XX(.7X1X<X<X0.$.5.).z.D 1.#./ u.F S.oXC.~.aX3X4XF.K.,X{.0X7X=X=XeXUXMX`.!.R.",
"^.-XV.7.^.|.`.7X3X3X:X5.@.2.^.S.| x.6.e.k.;.Y.OXF.Y.sX7X5XY.D.1X`.6X9X;X:X6XUX0Xn.`.N.",
"/.%Xx.7.(.'.`.2X3X5X=X5.$.3.).{.F.T.D.Y.D.K.K.`.J.K.sXqX7X!.N.,X_.5X0X2X,X,XUX@XW.pXJ.",
"].#Xj.0.'.~./.1X4X2X$X3.%.<.I.XX|.}.{.{.].].'._.m.D.fXyX8X).M.*X^.=XqX4X>X=XHXQ.:XaXqX",
"oX+Xs.r.}.-X*X3X2X,X@X,.&.-.2.9.r.t.y.y.t.i.u.q.3.v.iXuX<X_.x.@X3X5XqX3X#X].wXB.rXxXVX",
"F.V.3.u.).XXXXoX].I.Z.-.+.,.K.`.XX}.XXXXXXoX+X XP.t./._.N.g.r.H.T.Y.U.H.v.g.5.m.mXxXCX",
"t.r.] 8.d.g.f.f.v.B.N.1.Q { w.u.i.y.i.u.i.p.s.s.r.;.l.F.F.A.q.Z.D.V.D.I.Q.!.).<XnXkXbX",
"#X[.8.V.H.D.S.S..X1X<XN. .=.Y. X XXX X}..XXX#X#X'.a.R.7X5X=XZ.G.H.S.S.}.3X<X0XtXvXzXlX",
":X].e.9.m.k.V.H.@X1X2Xm...&.!.7X7X&XU.V.P.|.2X8X:Xb.C.:X3X:XC.J.`.L.%X8X4X,X4XgXcXkXzX",
"*X^.r.g.E.=.T.2X1X1X3Xb. .%.'.0X.X9._ ^ X.i.^.<X<XV.S.7X4X1XD.I.Q.w.@XtX1X>X1XtXlXgXhX",
"f.| ~ q.).1./.-X2X1X1Xc.| *.OX3Xg.E B m B o.N._.7XG.D.wX8X5XJ.F.;XA.5XwX4X<X<XT.2XBXaX",
"` f 9 O.R.p.=X3X5X3X3Xx.| &.oX@X>.Z h p f ( Z.H.2XJ.A.9X0X0XU.C.2XF.3XqX4X3X2XW.OXZX3X"
};
