/* XPM */
static char *tile106_ezgif_com_overlay1719300972[] = {
/* columns rows colors chars-per-pixel */
"43 43 256 2 ",
"   c black",
".  c #010101",
"X  c #020202",
"o  c gray1",
"O  c #040404",
"+  c gray2",
"@  c #060606",
"#  c #070707",
"$  c gray3",
"%  c #090909",
"&  c gray4",
"*  c #0B0B0B",
"=  c #0C0C0C",
"-  c gray5",
";  c #0E0E0E",
":  c gray6",
">  c #101010",
",  c #111111",
"<  c gray7",
"1  c #131313",
"2  c gray8",
"3  c #151515",
"4  c #161616",
"5  c gray9",
"6  c #181818",
"7  c #191919",
"8  c gray10",
"9  c #1B1B1B",
"0  c gray11",
"q  c #1D1D1D",
"w  c #1E1E1E",
"e  c gray12",
"r  c #202020",
"t  c gray13",
"y  c #222222",
"u  c #232323",
"i  c gray14",
"p  c #252525",
"a  c gray15",
"s  c #272727",
"d  c #282828",
"f  c gray16",
"g  c #2A2A2A",
"h  c gray17",
"j  c #2C2C2C",
"k  c #2D2D2D",
"l  c gray18",
"z  c #2F2F2F",
"x  c gray19",
"c  c #313131",
"v  c #323232",
"b  c gray20",
"n  c #343434",
"m  c #353535",
"M  c gray21",
"N  c #373737",
"B  c gray22",
"V  c #393939",
"C  c #3A3A3A",
"Z  c gray23",
"A  c #3C3C3C",
"S  c gray24",
"D  c #3E3E3E",
"F  c #3F3F3F",
"G  c gray25",
"H  c #414141",
"J  c gray26",
"K  c #434343",
"L  c #444444",
"P  c gray27",
"I  c #464646",
"U  c gray28",
"Y  c #484848",
"T  c #494949",
"R  c gray29",
"E  c #4B4B4B",
"W  c #4C4C4C",
"Q  c gray30",
"!  c #4E4E4E",
"~  c gray31",
"^  c #505050",
"/  c #515151",
"(  c gray32",
")  c #535353",
"_  c gray33",
"`  c #555555",
"'  c #565656",
"]  c gray34",
"[  c #585858",
"{  c gray35",
"}  c #5A5A5A",
"|  c #5B5B5B",
" . c gray36",
".. c #5D5D5D",
"X. c gray37",
"o. c #5F5F5F",
"O. c #606060",
"+. c gray38",
"@. c #626262",
"#. c gray39",
"$. c #646464",
"%. c #656565",
"&. c gray40",
"*. c #676767",
"=. c #686868",
"-. c DimGray",
";. c #6A6A6A",
":. c gray42",
">. c #6C6C6C",
",. c #6D6D6D",
"<. c gray43",
"1. c #6F6F6F",
"2. c gray44",
"3. c #717171",
"4. c #727272",
"5. c gray45",
"6. c #747474",
"7. c gray46",
"8. c #767676",
"9. c #777777",
"0. c gray47",
"q. c #797979",
"w. c gray48",
"e. c #7B7B7B",
"r. c #7C7C7C",
"t. c gray49",
"y. c #7E7E7E",
"u. c gray50",
"i. c #808080",
"p. c #818181",
"a. c gray51",
"s. c #838383",
"d. c #848484",
"f. c gray52",
"g. c #868686",
"h. c gray53",
"j. c #888888",
"k. c #898989",
"l. c gray54",
"z. c #8B8B8B",
"x. c gray55",
"c. c #8D8D8D",
"v. c #8E8E8E",
"b. c gray56",
"n. c #909090",
"m. c gray57",
"M. c #929292",
"N. c #939393",
"B. c gray58",
"V. c #959595",
"C. c gray59",
"Z. c #979797",
"A. c #989898",
"S. c gray60",
"D. c #9A9A9A",
"F. c #9B9B9B",
"G. c gray61",
"H. c #9D9D9D",
"J. c gray62",
"K. c #9F9F9F",
"L. c #A0A0A0",
"P. c gray63",
"I. c #A2A2A2",
"U. c gray64",
"Y. c #A4A4A4",
"T. c #A5A5A5",
"R. c gray65",
"E. c #A7A7A7",
"W. c gray66",
"Q. c #A9A9A9",
"!. c #AAAAAA",
"~. c gray67",
"^. c #ACACAC",
"/. c gray68",
"(. c #AEAEAE",
"). c #AFAFAF",
"_. c gray69",
"`. c #B1B1B1",
"'. c #B2B2B2",
"]. c gray70",
"[. c #B4B4B4",
"{. c gray71",
"}. c #B6B6B6",
"|. c #B7B7B7",
" X c gray72",
".X c #B9B9B9",
"XX c gray73",
"oX c #BBBBBB",
"OX c #BCBCBC",
"+X c gray74",
"@X c gray",
"#X c gray75",
"$X c #C0C0C0",
"%X c #C1C1C1",
"&X c gray76",
"*X c #C3C3C3",
"=X c gray77",
"-X c #C5C5C5",
";X c #C6C6C6",
":X c gray78",
">X c #C8C8C8",
",X c gray79",
"<X c #CACACA",
"1X c #CBCBCB",
"2X c gray80",
"3X c #CDCDCD",
"4X c #CECECE",
"5X c gray81",
"6X c #D0D0D0",
"7X c gray82",
"8X c #D2D2D2",
"9X c LightGray",
"0X c gray83",
"qX c #D5D5D5",
"wX c gray84",
"eX c #D7D7D7",
"rX c #D8D8D8",
"tX c gray85",
"yX c #DADADA",
"uX c gray86",
"iX c gainsboro",
"pX c #DDDDDD",
"aX c gray87",
"sX c #DFDFDF",
"dX c gray88",
"fX c #E1E1E1",
"gX c #E2E2E2",
"hX c gray89",
"jX c #E4E4E4",
"kX c gray90",
"lX c #E6E6E6",
"zX c #E7E7E7",
"xX c gray91",
"cX c #E9E9E9",
"vX c #EAEAEA",
"bX c gray92",
"nX c #ECECEC",
"mX c gray93",
"MX c #EEEEEE",
"NX c #EFEFEF",
"BX c gray94",
"VX c #F1F1F1",
"CX c gray95",
"ZX c #F3F3F3",
"AX c #F4F4F4",
"SX c gray96",
"DX c #F6F6F6",
"FX c gray97",
"GX c #F8F8F8",
"HX c #F9F9F9",
"JX c gray98",
"KX c #FBFBFB",
"LX c gray99",
"PX c #FDFDFD",
"IX c #FEFEFE",
"UX c white",
/* pixels */
"( s.x.=.m.V.q.o.w.p._ o.+.U S m | d.-.C.2XAXFXzX[.s 6.+X_.aXBXvXQ.,.O.E F J I @. .^ I ",
"=.} } _ _ >.i.v.).g.g.j.X.#.2.) C C I z.P.hXAXJXOXn 5.E.].zXyX7Xv.9.6.Q ~ | | ..o.[ T ",
"!.x.X.U ~ $.h.P.U.S.u.p.O.#.2.G.M.+.g H 7.~.0XmX&XG W 8.).hXpX[.q.t.8.m / | ` P Y Y U ",
"~.s.a...g.T } w.j.-.V J U W r.I.z.6._ x K u.z.'.b.L } B. XtXpXL.k.x.o.Z 6.[ / } | ) I ",
"a.$XP.$.| ^ U I Y ) :.%.E _ O.X.y.K.6.@.C 2.8Xj.9.T 6.F. X&XtX`.l.,.L / *.:.( >.r.8.' ",
"+.y. .@.Q W G v H 6..X/.X.V L ) w.A.B.~.u.M k.A.7.B ( s.z.s.K.<.:.} 4.F ( <.D.1.+.O.E ",
"H A 3.C.X.Q ^ L n Q e.p.P Z c C @.<.g.OXB.T B &.*.~ [ H F ^ 5.%.W @.*.J G p.8Xs.#.{ { ",
"Z Q k.5.` J ) T d f / ) C V ` F [ <.Y.8.G b j a U l.h.8.F.3.U / R p.*.K e.Q.yX~.x. .;.",
"! f.g.q.( T Z J n h n H E ~ q.m C X.2.z b U j 4 A z.e.0.2X,X#.H Y { ( oXUXFXVX;X{.2.W ",
"! <.2.) W Y J L B n c C C ~ $.D g C z ;.c.X.G k ^ { X.2.j.a. .v s N $.!.DXUXZX;X&Xt.n ",
"Q E ( F b b G T S S B Z / ^ I F m A X.H.D.%.U P %.[ Q @.X.>.J i _ p.m.|.pXGXyX/.Q.f.H ",
"Y R J A b j H b D ` L %.;.:.^ v U @.t.1.%.*.I G ..=.K K *.O.k ^ m.oX[.|..XiX;XS.J.w.R ",
"N h p f x h k z a s V U K ) J P W / 9.m.b.t.^ G #.+.` K O.! L ;.8.N.H.v.d.y.e._.m.7.o.",
"N v I V l D v H P b a h g g C / X.}  .s.k.$._ R O.) w...` U R t.h.&X8Xh.8.T.V.'.F.3.K ",
"M.s.7.L V L J / } S ` ,.1.o.%.Q E ] ( ! T J W ^ I ] ,.( ! =.6.<.r.XXV.O.8./.v.t.f.E M ",
"|.0.Q / ^ ) / <.@.1.~.-Xf.^.0X!.n.3.Y N G ) R D ^ E _ W T  .:.l.a.q.R O.,.:.=.5.+.n g ",
"r.} +.k.l.d.z.>.g.l.Y.I.8.G.a.d.R.(.| K I C D K n.&.c I R L F J P M x } 9.8.| @.W K %.",
"7.-.5.y.j.E.A.g.hXY.;.,.8.8.' } 4.G.c.,.T m J z :.[ t H ` ! ~ j s G [ <.m.s.H c X.~ *.",
"6.j.g.S.oXOX_.Z.9XoX=.-.#.T Q / w.H.qXL.y.d.W 3 p k 5 v _ a.Q.1. .v.j.i.Z.3.B L ..E U ",
"%.i.d.p.-.r.R.%X!.J.0.,.` U F G T @.Y.*X).R.O.7 t g 5 y y..XC.X.l.F.T.P.3. .;.O.X.] D ",
"S Q #.V.g.&.8.w.] $.-./ I ~ P n k b S {.$Xc.5.y t g 4 a  X%X%.F h.{._.4.x ..( I R ` H ",
"5.e.s.].E.S.D.m.P c Y D U =.^ H J Q B / ].j.q.h f h 3 L W.;.[ ~ ;.F.i.*.A V G J T ' G ",
"H.-./ ! 4.a./ +.e.p.-.&.3.Q F G P J v 5 [ f.d.D D n 3 z U U ( ~ ( | ' ( n m B G 2.0.U ",
"R =.M.p.] ! .._.W.8.X.L.xXX._ Y F F v z u 9.s.K ^ j 5 c D n J K J A Z X.:.7.a.7.:.k.X.",
"| m.!.T.q.` I ` s.,.%.`.cXK.P _ ! _ S o.R 6.7.S U a w L U m A D B D l.:XH.t.$X,XL.i.<.",
":.} ( ( ( ~ H S ( J X.0.L.{.2.Z D  .) i.s.z.;.N K j q J R U W E K F ^.0X!.L.:XzX+Xa.2.",
"^.k.] E W Q ` U H n V Z ` ' R F F { { 3.p.p.` F { N t C _ <.` ) ! D (.@X1X-X XjX@XB.r.",
"1XF.z.1.R H { ~ D H x l ~ ..X.K n X.4.' ,.,.} O.u.W f ~ W +.P C W R @X+X|.+X#XuXtXY.0.",
"<X7X6Xb. .X.N K W F S m l C U z a Q $.( $...X.s.x.! g { P V h g B b ! @.,.n.}.%X[.6.~ ",
"mXCXpXXX1.A.T D ! ~ s.8.! F &.a.$.H K ^ &.[ %.c.5.S l $.~ d e 9 i k h L ) <.m.q.2.*.1.",
"PXjXL.;.d.~.x.L.L.%.( >.B.n.:.w.#.P P &.8.=.6.v.+.j x ( L i 4 6 d j C ,.X.T { ` ! j.rX",
"FX<X=._ <.w.F.T.K.d.o./ q.P.P.b.N C E R P ( g.j./ e l S m d 7 , j u z m z _ | x.f.d.A.",
"5XG.o.] Q p.oXD.=.2.u.c.9X5X}.5.G J Y Y b +.M.7.F q p b z f y 7 f e < , m f.`.1XH.o.R ",
"H.5.:.~ T R ] _ / ^ T 6XUXPX>X%.K | -.p.3.s.0.o.c 7 p n k k d x p t w +.Z.+X&.$.9.W J ",
"%._ | U S G / { R x B <XMXKXKXXX-.o.*.#.;.y.;.^ A f c k g k d f r y %.5X| Q P Z v v [ ",
"' / / Q S ^ o.+.F v L =.,.7XGXwXP.H.B.=.7.3.+.E K S J J G K E I P v I 7.N c z l ` X.7.",
"-.5.p.H i ` 2.5.R R [ <.;.h.R.I.2XyX;X#X3X_.x.1.@.} >.3.%.-.2.2.e.' T u.x.<.F | C.D.3.",
"#.X.X.b n #.0.w.=.` ~ ] } >.s.W.fXkX1XuXlX6X~.d.>.} >.p.0.w.h.v.v.+.E j.%X'.1.5.K.T.y.",
"J Y ) O.*.p.m.j.u.1..._ ) ] ..Z.jXxX0XsXzX6XY.p.6._ %.t.0.a.m.A.B.=.Z I ! @.#.W E ` ' ",
"2.q.i.a.e.0.7.,.&.o.] ] | U.[.=XzXbXyXwX9X`.n.s.j.%.=.0.w.t.g.z.f.e.[ #.:.y.d.U p f k ",
"| [ ^ T U L G G U W ^ ) o.1XsXyXhXfX&X|.Y.F.C.x.v.p.0.t.h.x.V.G.x.z.j.B.G.U.V.~ N L ! ",
"d g k c c c M D I ) @.4.M.aXxXhXdX9X%X}.S.c.s.i.u.8.,.>.9.u.d.k.t.h.c.T.[.OX!.f.r.p.p.",
"f l C L T E / ) ` } #.2.a.S.Q.]..X/.Q.`.H.Z.l.j.d.s.i.i.s.p.q.q.8.7.0.d.w.9.-.+.{ ^ U "
};
