/* XPM */
static char *test_ezgif_com_resize__1_1719234434[] = {
/* columns rows colors chars-per-pixel */
"10 10 52 1 ",
"  c None",
". c #0D4912",
"X c #0C4A13",
"o c #0E4A13",
"O c #104C16",
"+ c #114C16",
"@ c #124C17",
"# c #154E1A",
"$ c #144F1A",
"% c #164F1C",
"& c #254616",
"* c #264616",
"= c #264716",
"- c #284817",
"; c #1C5421",
": c #1E5423",
"> c #BA1B17",
", c #BD1B17",
"< c #CD1A19",
"1 c #C81C1A",
"2 c #CE1D1C",
"3 c #DA1318",
"4 c #E7121A",
"5 c #ED1019",
"6 c #EF1019",
"7 c #ED111A",
"8 c #ED131C",
"9 c #EF131D",
"0 c #ED141D",
"q c #ED161E",
"w c #ED1E26",
"e c #E3242B",
"r c #EE383F",
"t c #DA7170",
"y c #EC676D",
"u c #EE6B71",
"i c #ED6C71",
"p c #F16F73",
"a c #5D8261",
"s c #628767",
"d c #638767",
"f c #768B6E",
"g c #DFDFDF",
"h c #E0DFE0",
"j c gray88",
"k c #E1E0E1",
"l c #E1E1E1",
"z c #ECECEC",
"x c gray93",
"c c #EFEFEF",
"v c #EEF0F0",
"b c #EFF0F0",
/* pixels */
"          ",
"  by7qrp  ",
" cbi6q8we ",
" cbu69843 ",
" cbt<21,> ",
" zcf*-**= ",
" llsooo@@ ",
" gjso@@$: ",
"  lao@%:  ",
"          "
};
