/* XPM */
static char *mignons_petits_bonds_a_queue_d_anneau_catta_au_citron_exotique_illustration_vectorielle_de_style_dessin_anime_et_plat_2cw0btw_ezgif_com_resize1719259666[] = {
/* columns rows colors chars-per-pixel */
"43 43 210 2 ",
"   c black",
".  c #010101",
"X  c #020202",
"o  c #070707",
"O  c #090909",
"+  c gray4",
"@  c #0B0B0B",
"#  c gray5",
"$  c #0E0E0E",
"%  c #131313",
"&  c gray8",
"*  c #151515",
"=  c #161616",
"-  c #181818",
";  c gray11",
":  c #1E1E1E",
">  c #202020",
",  c gray13",
"<  c #232323",
"1  c gray15",
"2  c #272727",
"3  c #2D2D2D",
"4  c #2F2F2F",
"5  c #323232",
"6  c gray20",
"7  c #343434",
"8  c gray22",
"9  c #393939",
"0  c #3A3A3A",
"q  c gray23",
"w  c #3C3C3C",
"e  c #3F3F3F",
"r  c gray25",
"t  c gray26",
"y  c #434343",
"u  c #444444",
"i  c gray27",
"p  c gray28",
"a  c #484848",
"s  c #494949",
"d  c gray29",
"f  c #4B4B4B",
"g  c #4C4C4C",
"h  c gray30",
"j  c #4E4E4E",
"k  c gray31",
"l  c #505050",
"z  c #515151",
"x  c gray32",
"c  c #535353",
"v  c gray33",
"b  c #555555",
"n  c #565656",
"m  c gray34",
"M  c #585858",
"N  c gray35",
"B  c #5A5A5A",
"V  c #5B5B5B",
"C  c gray36",
"Z  c #5D5D5D",
"A  c gray37",
"S  c #5F5F5F",
"D  c #606060",
"F  c gray38",
"G  c #626262",
"H  c gray39",
"J  c #646464",
"K  c #656565",
"L  c gray40",
"P  c #686868",
"I  c DimGray",
"U  c #6A6A6A",
"Y  c gray42",
"T  c #6D6D6D",
"R  c gray43",
"E  c #6F6F6F",
"W  c gray44",
"Q  c #727272",
"!  c gray45",
"~  c gray46",
"^  c #767676",
"/  c #777777",
"(  c gray47",
")  c #797979",
"_  c gray48",
"`  c #7B7B7B",
"'  c gray49",
"]  c #7E7E7E",
"[  c #808080",
"{  c #818181",
"}  c gray51",
"|  c #838383",
" . c #848484",
".. c gray52",
"X. c gray53",
"o. c #888888",
"O. c #898989",
"+. c gray54",
"@. c #8B8B8B",
"#. c gray55",
"$. c #8D8D8D",
"%. c #8E8E8E",
"&. c gray56",
"*. c #909090",
"=. c gray57",
"-. c #929292",
";. c #939393",
":. c gray58",
">. c #959595",
",. c gray59",
"<. c #979797",
"1. c #989898",
"2. c #9A9A9A",
"3. c #9B9B9B",
"4. c gray61",
"5. c #9D9D9D",
"6. c gray62",
"7. c #9F9F9F",
"8. c #A0A0A0",
"9. c gray63",
"0. c #A2A2A2",
"q. c gray64",
"w. c #A4A4A4",
"e. c #A5A5A5",
"r. c gray65",
"t. c #A7A7A7",
"y. c gray66",
"u. c #A9A9A9",
"i. c #AAAAAA",
"p. c gray67",
"a. c #ACACAC",
"s. c gray68",
"d. c #AEAEAE",
"f. c #AFAFAF",
"g. c #B1B1B1",
"h. c gray70",
"j. c gray71",
"k. c #B6B6B6",
"l. c #B7B7B7",
"z. c gray72",
"x. c #B9B9B9",
"c. c gray73",
"v. c #BBBBBB",
"b. c #BCBCBC",
"n. c gray74",
"m. c gray",
"M. c gray75",
"N. c #C1C1C1",
"B. c gray76",
"V. c #C3C3C3",
"C. c gray77",
"Z. c #C5C5C5",
"A. c #C6C6C6",
"S. c gray78",
"D. c #C8C8C8",
"F. c gray79",
"G. c #CACACA",
"H. c #CBCBCB",
"J. c gray80",
"K. c #CDCDCD",
"L. c #CECECE",
"P. c gray81",
"I. c #D0D0D0",
"U. c gray82",
"Y. c #D2D2D2",
"T. c LightGray",
"R. c gray83",
"E. c #D5D5D5",
"W. c gray84",
"Q. c #D7D7D7",
"!. c #D8D8D8",
"~. c gray85",
"^. c #DADADA",
"/. c gray86",
"(. c gainsboro",
"). c #DDDDDD",
"_. c gray87",
"`. c #DFDFDF",
"'. c gray88",
"]. c #E1E1E1",
"[. c #E2E2E2",
"{. c gray89",
"}. c #E4E4E4",
"|. c gray90",
" X c #E6E6E6",
".X c #E7E7E7",
"XX c gray91",
"oX c #E9E9E9",
"OX c #EAEAEA",
"+X c gray92",
"@X c #ECECEC",
"#X c gray93",
"$X c #EEEEEE",
"%X c #EFEFEF",
"&X c gray94",
"*X c #F1F1F1",
"=X c gray95",
"-X c #F3F3F3",
";X c #F4F4F4",
":X c gray96",
">X c #F6F6F6",
",X c gray97",
"<X c #F8F8F8",
"1X c #F9F9F9",
"2X c gray98",
"3X c #FBFBFB",
"4X c gray99",
"5X c #FDFDFD",
"6X c #FEFEFE",
"7X c white",
/* pixels */
"7X7X2X7X2X>X7X7X7X7X7X2X7X7X7X7X7X7X7X>X7X7X7X7X7X7X7X7X7X7X7X7X7X7X7X7X7X7X7X7X7X7X7X",
"7X7X7X7X7X7X7X>X>X>X2X7X2X>X>X7X>X2X2X7X7X=X7X7X7X7X7X7X7X7X7X7X7X7X7X7X7X7X7X7X7X7X7X",
">X7X7X7X2X>X2X2X7X7X7X2X7X7X=X X7X7X7X7X7XoX7X7X7X7X7X7X7X7X7X7X7X7X7X7X7X7X7X7X7X7X7X",
"7X7X7X7X7X>X2X7X7X7X#X>X7X>XoX^.7X7X#X7X7X>X7X>X7X7X7X7X7X7X7X7X7X7X7X7X7X7X7X7X7X7X7X",
"7X2X=X2X7X7X7X7X7X7X7X7XT.~ S V P.A.z.7X>X7X7X2X7X7X7X7X7X7X7X7X7X7X7X7X7X7X7X7X7X7X7X",
"=X7X7X7X2X7X7X>X>X>X=X#Xu.' +.S +.Q =.7X7X7X>X7X7X7X7X7X7X7X7X7X7X7X7X7X7X7X7X7X7X7X7X",
"7X>X>X7X7X7X7X7X7XE.h.l.$.q.#Xn.~ I A.7X7X7X>X7X7X7X7X7X7X7X7X7X7X7X7X7X7X7X7X7X7X7X7X",
"7Xw.' N.7X7X=X7X} 1 t A.f.$.^.^.<.4.7X2X2X2X7X>X7X7X7X7X7X7X7X7X7X7X7X7X7X7X7X7X7X7X7X",
"2X~ q - S 7X#X7XH.V f z. X_._.^.^.7X2X7X7XoX7X7X7X7X7X=X7X7X7X>X7X2X7X=X7X7X=X7X7X7X7X",
"7X7XP.q @ f.7X>X7X=XT.f.P.^.A.z.7X>X#X>X7X7X7X=X7XoX7X7X X=X7X7X2X7X7X7X2X7X#X7X7X7X7X",
"7X=X XN.I G {.7X7X7XH.=.T.f.V V _.oX7X7X=X7X7X2X7X7X7X7X7X7X2XoX=X7X7X=X7X7X7X=X7X7X7X",
"7X=X7X7Xu.q u.7X_.h.~ <.#Xq.f K 2X7X=X2X7XoXP.{.7X>X7XoX#X=X7X7X7X7X7X7X7X=X7X=X7X7X7X",
"7X7X7X7XP.V n Q c n c z._.=.c c A.7X=X7X7Xn # K >X7X=X7X7X7XoX^.7XA.>X>X>X7X>X7X7X7X7X",
"7X>X#X>X7XN.I n K n +.>X XX.n k w._.7XoXq # f.oX2X7XoX7X#X{.q.& n.& q.R ^.2X>X7X7X7X7X",
"=X7X7X>X>X7X>X{.H.I z.E.T.Q k G V _.h.k k R h.2X7XoX7X2Xt 5 n.X w.& ~ 3 <.+.7X2X7X7X7X",
"7X7XoX7X2X7X7X>Xu.S 7XT.{.+.f n f K k f h.7X2X7X7X7X>XN.w.o P.T.{.{.f.<.4 @ {.7X7X7X7X",
"2X7X7X=X7X7X7X=XS n._.E._._ c K +.t n l.=X>X7XoX7X=XK X w.=X#X7X7X7X7XoX$.q.c z.7X7X7X",
"2X7X7X>X7X7X2XP.R A.{.E._._ c R =XT.T.7X7X7X7X7X7X Xl.q w.=X>X>X7X2X2X7X7X4 o c 2X7X2X",
"7X7X7X>X7X7X2X1.X.E.{.E._._ k R 2X7X7X7X2X7X X7X7X& 4 ^.7X7X7X7X7X7X7X X7Xh.' N.7X7X7X",
"7X2X7X2X7X7X7X_ u._.^.T.{.' k I  X7X#X7X7X7X7X7X7X_ 4 P.2X>X=X>X7XoX7X7X>XA., e 2X2X7X",
"7X7X7X7X2X7X7XQ n.{.T.P.oX} f K 7X7X>X7X7X=X7XoXt 4.oX7X=X7X7X7X7X7X2X=X7X_ - f 7X2X2X",
"7X7X7X7X2X7X7XQ N.{.P.P. X_ k Q 7X7X7X7X7XoX7XA.X X =X7X7X>X7X7X>X7X7X#X=Xq X X.7X7X7X",
"7X7X>X7X7X2X7X~ l._.^.E.^.I c 1.2X>X7X2X7X2Xw.' N.h.>XP.7X7X=X7X7XoX2X7X=.X X #X2X7X7X",
"7X7X>X7X7X2X7X~ w._._.^.P.V V l.7X>X7X=X7X=X, X X.2X7X7X7X2X7X=X=X7X=X7X7 X u.#X7X2X7X",
"#X7X7X2X7X7X2X+.' =XT._.1.V G 4.+.{. X2XV G f.1 E.#X7X7X7X7X7X7X>X7X7X#XH.A. X7X7X7X7X",
"7X7X X7X=X7X7XI S ^.T.n.n f } ~ X u.X f., X N.7X#X7X7X7X7X7X7X7X7X7X7X2X>X>X7X7X7X7X7X",
"7X=X7X7X>X7Xw.n S n $.G Q e $.f.<.H.@ <.l.X. X7X7X7X7X7X7X7X7X7X7X2X2X7X7X7X7X2X7X7X7X",
"7XoX7X>X7Xl.c K S V ~ n K R t h.=X=X2X#X7XoX7X2X7X7X7X2X7X7X7X7X7X2X7X2X2X2X7X7X7X7X7X",
"2X7X=X7XP.c G S f z.7XK S S k S >X2X X7X7X7X7X7X7X2X2X7X7X7X7X7X7X7X7X7X2X2X7X7X7X7X7X",
"7X7X2X=XQ f G t $.7X7X{.S n S k f.7X=X7X#X=X#X7X7X7X7X7X7X7X7X2X7X7X7X7X7X7X7X7X7X7X7X",
"7X=X7Xl.p K n } 7X7X>X7XH.S n n I =X7X=X7X7X=X2X7X7X7X7X7X2X2X7X7X2X2X7X7X7X7X2X7X7X7X",
">X7XoXI V c ' 7X2X>X7X2X7XT.k G n  X X7X7X7X7X7X7X>X2X7X7X2X7X7X7X7X7X7X>X>X7X7X7X7X7X",
">X7X{.V V G #X2X2X7X2X7X7X#XE.k n 4.7X7X>X2X7X=X7X7X7X7X7X7X7X7X7X7X7X7X7X7X7X7X7X7X7X",
"7X7X#XG S R 7X7X7X7X>X7X2X7XoXK p _ 2X7X7X2X7X7X7X7X7X7X7X7X7X7X7X7X7X7X7X7X7X7X7X7X7X",
"7X2X7XQ f n T.2X7X7X2X2X>X7X>X' n I 2X7X7X7X7X2X7X7X7X7X7X7X7X7X7X7X7X7X7X7X7X7X7X7X7X",
"7X>X7Xq.k V h.2X>X7X2X7X7X7X=X<.k p _. X7X7X7X7X7X7X7X7X7X7X7X7X7X7X7X7X7X7X7X7X7X7X7X",
"2X7X7XP.c c +.7X2X2X7X7X7X7X=XN.V k  X=X2X7X7X2X7X7X7X7X7X7X7X7X7X7X7X7X7X7X7X7X7X7X7X",
"7X7X2X#XR f ~ 7X7X2X2X7X7X2X2X>XS n _.7X7X2X7X7X7X7X7X7X7X7X7X7X7X7X7X7X7X7X7X7X7X7X7X",
">X7X>X7Xh.n _ 7X7X7X7X7X7X7X7X7X7 & } 7X2X7X7X7X7X7X7X7X7X7X7X7X7X7X7X7X7X7X7X7X7X7X7X",
"7X7X>X7XH.: 5 f.2X7X7X2X2X7X7X#XK % c >X7X7X2X2X7X7X7X7X7X7X7X7X7X7X7X7X7X7X7X7X7X7X7X",
">X7X7X7X XX n u.7X7X7X7X7X7X7X2XP.e 5 7X2X7X#X7X7X7X7X7X7X7X7X7X7X7X7X7X7X7X7X7X7X7X7X",
"7XoXoX2X7Xn : _.2X7X7X7X7X7X7X7XoXX.X.2X7X2X>X2X7X7X7X7X7X7X7X7X7X7X7X7X7X7X7X7X7X7X7X",
"7X7X7X2X#X#XQ H.7X7X7X7X7X7X2X7X7X_.#X7X7X>X7X7X7X7X7X7X7X7X7X7X7X7X7X7X7X7X7X7X7X7X7X"
};
