/* XPM */
static char *ceaf6d761a114b23f478aab13dda1fb8TbsKBkIrNRHlWS7v[] = {
/* columns rows colors chars-per-pixel */
"43 43 123 2 ",
"   c #7C5835",
".  c #5D5F61",
"X  c #5D6161",
"o  c #62696A",
"O  c #696C6B",
"+  c #73797D",
"@  c #AD2C27",
"#  c #AE2D28",
"$  c #BB2E27",
"%  c #B42C2A",
"&  c #B92E2B",
"*  c #B6322E",
"=  c #BE312C",
"-  c #B23531",
";  c #BB3735",
":  c #BF3B37",
">  c #B63438",
",  c #C32F2B",
"<  c #D02F2E",
"1  c #C5312D",
"2  c #CB332E",
"3  c #C13735",
"4  c #CD3631",
"5  c #C33F3B",
"6  c #CC3D3A",
"7  c #D33434",
"8  c #D33C36",
"9  c #D33C3B",
"0  c #9E4635",
"q  c #835638",
"w  c #A44436",
"e  c #C5413D",
"r  c #CE413A",
"t  c #D3413C",
"y  c #CD4744",
"u  c #D24B47",
"i  c #D44D49",
"p  c #DA534F",
"a  c #CC5E5E",
"s  c #DE5753",
"d  c #DA5F5C",
"f  c #E35654",
"g  c #E25856",
"h  c #E75E5B",
"j  c #CC6065",
"k  c #E26261",
"l  c #2F8746",
"z  c #2B8944",
"x  c #2D8748",
"c  c #308947",
"v  c #338D49",
"b  c #2E9048",
"n  c #34944C",
"m  c #38954E",
"M  c #37994F",
"N  c #3A9250",
"B  c #379A51",
"V  c #399D53",
"C  c #3B9B58",
"Z  c #3DA256",
"A  c #3AA559",
"S  c #409957",
"D  c #429A58",
"F  c #44A35D",
"G  c #48AC5F",
"H  c #4DA764",
"J  c #4BAA63",
"K  c #50A866",
"L  c #54AE6B",
"P  c #59AE6D",
"I  c #59B26F",
"U  c #5BB573",
"Y  c #5DBC75",
"T  c #65BC77",
"R  c #66BC79",
"E  c #68BD7E",
"W  c #67BF81",
"Q  c #828686",
"!  c #828A8E",
"~  c #88B293",
"^  c #88BB97",
"/  c #979FA2",
"(  c #9A9FA3",
")  c #9DA4A6",
"_  c #9DA5A9",
"`  c #A3AAAD",
"'  c #A7AEB0",
"]  c #A9AFB2",
"[  c #AAB2B5",
"{  c #AEB5B9",
"}  c #B0B7BC",
"|  c #E19C9D",
" . c #E2A09E",
".. c #DBB2A9",
"X. c #D8B4B0",
"o. c #EEB1AA",
"O. c #F0B2B2",
"+. c #95C5A5",
"@. c #A1CDA9",
"#. c #B9C1C4",
"$. c #CCCECE",
"%. c #CED0CF",
"&. c #CFD1D1",
"*. c #D4D4D4",
"=. c #D2D8DC",
"-. c #DBDCDC",
";. c #FACAC7",
":. c #FBCFC9",
">. c #E0DFDD",
",. c #E4E6DF",
"<. c #DADFE1",
"1. c #DCE3E5",
"2. c #E3E3E3",
"3. c #ECECEC",
"4. c #EBF4EF",
"5. c #EEF7F3",
"6. c #F3F3F3",
"7. c #FEFFF7",
"8. c #FAF6FA",
"9. c #F5FEF9",
"0. c #FCFEFF",
"q. c #FCFFFF",
"w. c white",
/* pixels */
"w.w.w.w.w.w.w.w.w.w.w.w.w.w.w.w.w.w.w.w.w.w.w.w.w.w.w.w.w.w.w.w.w.w.w.w.w.w.w.w.w.w.w.",
"w.w.w.w.w.w.w.w.w.w.w.w.w.w.w.w.w.w.w.w.w.w.w.w.w.w.w.w.w.w.w.w.w.w.w.w.w.w.w.w.w.w.w.",
"w.w.w.w.w.w.w.w.w.w.w.w.w.w.w.w.w.w.w.w.w.w.w.w.w.w.w.w.w.w.w.w.w.w.w.w.w.w.w.w.w.w.w.",
"w.w.w.w.w.w.w.w.w.w.w.w.w.w.w.w.w.w.w.w.w.w.w.w.w.w.w.w.w.w.w.w.w.w.w.w.w.w.w.w.w.w.w.",
"w.w.w.w.w.w.w.w.w.w.w.w.w.w.w.w.w.w.w.w.w.w.w.w.w.w.w.w.w.w.w.w.w.w.w.w.w.w.w.w.w.w.w.",
"w.w.w.w.w.w.w.w.w.w.w.w.w.w.w.w.w.w.w.w.w.w.w.w.w.w.w.w.w.w.w.w.w.w.w.w.w.w.w.w.w.w.w.",
"w.w.w.w.w.w.w.w.w.w.w.w.w.w.w.w.w.w.w.w.w.w.w.w.w.w.w.w.w.w.w.w.w.w.w.w.w.w.w.w.w.w.w.",
"w.w.w.w.w.w.w.w.w.w.w.w.w.w.w.w.w.w.w.w.w.w.w.w.w.w.w.w.w.w.w.w.w.w.w.w.w.w.w.w.w.w.w.",
"w.w.w.w.w.w.w.w.w.w.w.w.w.w.w.w.w.w.w.w.w.w.w.w.w.w.w.w.w.w.w.w.w.w.w.w.w.w.w.w.w.w.w.",
"w.w.w.w.w.w.w.w.w.w.w.w.w.w.w.w.w.w.w.w.w.w.w.w.w.w.w.w.w.w.w.w.w.w.w.w.w.w.w.w.w.w.w.",
"w.w.w.w.w.w.w.w.w.w.w.w.w.w.w.w.w.w.w.w.w.w.w.w.w.w.w.w.w.w.w.w.w.w.w.w.w.w.w.w.w.w.w.",
"w.w.w.w.w.w.w.w.w.w.w.w.w.w.$.w.w.w.w.w.w.w.w.w.w.w.w.w.$.w.w.w.w.w.w.w.w.w.w.w.w.w.w.",
"w.w.w.w.w.w.w.w.w.w.w.,.6.2.$.[ w.w.w.w.w.w.w.w.w.w.w.] *.2.5.2.w.w.w.w.w.w.w.w.w.w.w.",
"w.w.w.w.w.w.w.w.w.w.9 :.w.3.*.o w.w.w.w.w.w.w.w.w.w.w.o -.3.w.;.6 w.w.w.w.w.w.w.w.w.w.",
"w.w.w.w.w.w.w.w.w.O.7 t 6.6.2.*._ w.w.w.w.w.w.w.w.w.` $.2.8.6.t 4 o.w.w.w.w.w.w.w.w.w.",
"w.w.w.w.w.w.w.w.w.1 2 8 a w.3.-.Q w.w.w.w.w.w.w.w.w.Q -.6.9.j 8 2 1 w.w.w.w.w.w.w.w.w.",
"w.w.w.w.w.w.w.w.& 1 1 4 r 6.8.2.*.#.w.w.w.w.w.w.w.#.*.3.8.6.t 7 1 1 $ w.w.w.w.w.w.w.w.",
"w.w.w.w.w.w.w.- & = 1 < A K 8.6.-.&.1.w.w.w.w.w.<.%.2.6.8.H A 4 1 = & > w.w.w.w.w.w.w.",
"w.w.w.w.w.X.3 @ % & = M V F 4.w.3.*.! w.w.w.w.w.! *.3.w.4.F V B , & % @ ; ..w.w.w.w.w.",
"w.w.w.d f u e * # &   M V Z J 8.w.w.w._ w.w.w._ w.w.w.6.G Z V n q & @ * 5 u s k w.w.w.",
"w.w.w.w.h p y : # % n n B V 7.w.w.w.w.X w.w.w.X w.w.w.w.7.V B n n % # : y p h w.w.w.w.",
"w.w.w.w.| f i e 0 l v n m ^ w.w.w.w.w.w.[ w.{ w.w.w.w.w.w.+.n n v x w e i g  .w.w.w.w.",
"w.w.w.w.w.R I H S c c v n w.w.w.w.w.w.w.*.1.&.w.w.w.w.w.w.w.n b c v C H P T w.w.w.w.w.",
"w.w.w.w.w.w.Y L F N l v w.w.w.w.w.w.w.w.w.' w.w.w.w.w.w.w.w.w.v z N F L U 9.w.w.w.w.w.",
"w.w.w.w.w.w.E U H D v 7.w.w.w.w.w.w.w.w.=.>.-.w.w.w.w.w.w.w.w.w.v D H U W w.w.w.w.w.w.",
"w.w.w.w.w.w.w.Y P @.w.w.w.w.w.w.w.w.w.w.+ w.+ w.w.w.w.w.w.w.w.w.w.~ P Y w.w.w.w.w.w.w.",
"w.w.w.w.w.w.w.w.w.w.w.w.w.w.w.w.w.w.w./ w.w.w./ w.w.w.w.w.w.w.w.w.w.w.w.w.w.w.w.w.w.w.",
"w.w.w.w.w.w.w.w.w.w.w.w.w.w.w.w.w.w.w.. w.w.w.O w.w.w.w.w.w.w.w.w.w.w.w.w.w.w.w.w.w.w.",
"w.w.w.w.w.w.w.w.w.w.w.w.w.w.w.w.w.w.} w.w.w.w.w.{ w.w.w.w.w.w.w.w.w.w.w.w.w.w.w.w.w.w.",
"w.w.w.w.w.w.w.w.w.w.w.w.w.w.w.w.w.w.&.w.w.w.w.w.$.w.w.w.w.w.w.w.w.w.w.w.w.w.w.w.w.w.w.",
"w.w.w.w.w.w.w.w.w.w.w.w.w.w.w.w.w.) w.w.w.w.w.w.w.( w.w.w.w.w.w.w.w.w.w.w.w.w.w.w.w.w.",
"w.w.w.w.w.w.w.w.w.w.w.w.w.w.w.w.w.8.w.w.w.w.w.w.w.w.w.w.w.w.w.w.w.w.w.w.w.w.w.w.w.w.w.",
"w.w.w.w.w.w.w.w.w.w.w.w.w.w.w.w.w.w.w.w.w.w.w.w.w.w.w.w.w.w.w.w.w.w.w.w.w.w.w.w.w.w.w.",
"w.w.w.w.w.w.w.w.w.w.w.w.w.w.w.w.w.w.w.w.w.w.w.w.w.w.w.w.w.w.w.w.w.w.w.w.w.w.w.w.w.w.w.",
"w.w.w.w.w.w.w.w.w.w.w.w.w.w.w.w.w.w.w.w.w.w.w.w.w.w.w.w.w.w.w.w.w.w.w.w.w.w.w.w.w.w.w.",
"w.w.w.w.w.w.w.w.w.w.w.w.w.w.w.w.w.w.w.w.w.w.w.w.w.w.w.w.w.w.w.w.w.w.w.w.w.w.w.w.w.w.w.",
"w.w.w.w.w.w.w.w.w.w.w.w.w.w.w.w.w.w.w.w.w.w.w.w.w.w.w.w.w.w.w.w.w.w.w.w.w.w.w.w.w.w.w.",
"w.w.w.w.w.w.w.w.w.w.w.w.w.w.w.w.w.w.w.w.w.w.w.w.w.w.w.w.w.w.w.w.w.w.w.w.w.w.w.w.w.w.w.",
"w.w.w.w.w.w.w.w.w.w.w.w.w.w.w.w.w.w.w.w.w.w.w.w.w.w.w.w.w.w.w.w.w.w.w.w.w.w.w.w.w.w.w.",
"w.w.w.w.w.w.w.w.w.w.w.w.w.w.w.w.w.w.w.w.w.w.w.w.w.w.w.w.w.w.w.w.w.w.w.w.w.w.w.w.w.w.w.",
"w.w.w.w.w.w.w.w.w.w.w.w.w.w.w.w.w.w.w.w.w.w.w.w.w.w.w.w.w.w.w.w.w.w.w.w.w.w.w.w.w.w.w.",
"w.w.w.w.w.w.w.w.w.w.w.w.w.w.w.w.w.w.w.w.w.w.w.w.w.w.w.w.w.w.w.w.w.w.w.w.w.w.w.w.w.w.w.",
"w.w.w.w.w.w.w.w.w.w.w.w.w.w.w.w.w.w.w.w.w.w.w.w.w.w.w.w.w.w.w.w.w.w.w.w.w.w.w.w.w.w.w."
};
