/* XPM */
static char *tile106_ezgif_com_overlay__4_1719300972[] = {
/* columns rows colors chars-per-pixel */
"43 43 256 2 ",
"   c black",
".  c #010101",
"X  c #020202",
"o  c gray1",
"O  c #040404",
"+  c gray2",
"@  c #060606",
"#  c #070707",
"$  c gray3",
"%  c #090909",
"&  c gray4",
"*  c #0B0B0B",
"=  c #0C0C0C",
"-  c gray5",
";  c #0E0E0E",
":  c gray6",
">  c #101010",
",  c #111111",
"<  c gray7",
"1  c #131313",
"2  c gray8",
"3  c #151515",
"4  c #161616",
"5  c gray9",
"6  c #181818",
"7  c #191919",
"8  c gray10",
"9  c #1B1B1B",
"0  c gray11",
"q  c #1D1D1D",
"w  c #1E1E1E",
"e  c gray12",
"r  c #202020",
"t  c gray13",
"y  c #222222",
"u  c #232323",
"i  c gray14",
"p  c #252525",
"a  c gray15",
"s  c #272727",
"d  c #282828",
"f  c gray16",
"g  c #2A2A2A",
"h  c gray17",
"j  c #2C2C2C",
"k  c #2D2D2D",
"l  c gray18",
"z  c #2F2F2F",
"x  c gray19",
"c  c #313131",
"v  c #323232",
"b  c gray20",
"n  c #343434",
"m  c #353535",
"M  c gray21",
"N  c #373737",
"B  c gray22",
"V  c #393939",
"C  c #3A3A3A",
"Z  c gray23",
"A  c #3C3C3C",
"S  c gray24",
"D  c #3E3E3E",
"F  c #3F3F3F",
"G  c gray25",
"H  c #414141",
"J  c gray26",
"K  c #434343",
"L  c #444444",
"P  c gray27",
"I  c #464646",
"U  c gray28",
"Y  c #484848",
"T  c #494949",
"R  c gray29",
"E  c #4B4B4B",
"W  c #4C4C4C",
"Q  c gray30",
"!  c #4E4E4E",
"~  c gray31",
"^  c #505050",
"/  c #515151",
"(  c gray32",
")  c #535353",
"_  c gray33",
"`  c #555555",
"'  c #565656",
"]  c gray34",
"[  c #585858",
"{  c gray35",
"}  c #5A5A5A",
"|  c #5B5B5B",
" . c gray36",
".. c #5D5D5D",
"X. c gray37",
"o. c #5F5F5F",
"O. c #606060",
"+. c gray38",
"@. c #626262",
"#. c gray39",
"$. c #646464",
"%. c #656565",
"&. c gray40",
"*. c #676767",
"=. c #686868",
"-. c DimGray",
";. c #6A6A6A",
":. c gray42",
">. c #6C6C6C",
",. c #6D6D6D",
"<. c gray43",
"1. c #6F6F6F",
"2. c gray44",
"3. c #717171",
"4. c #727272",
"5. c gray45",
"6. c #747474",
"7. c gray46",
"8. c #767676",
"9. c #777777",
"0. c gray47",
"q. c #797979",
"w. c gray48",
"e. c #7B7B7B",
"r. c #7C7C7C",
"t. c gray49",
"y. c #7E7E7E",
"u. c gray50",
"i. c #808080",
"p. c #818181",
"a. c gray51",
"s. c #838383",
"d. c #848484",
"f. c gray52",
"g. c #868686",
"h. c gray53",
"j. c #888888",
"k. c #898989",
"l. c gray54",
"z. c #8B8B8B",
"x. c gray55",
"c. c #8D8D8D",
"v. c #8E8E8E",
"b. c gray56",
"n. c #909090",
"m. c gray57",
"M. c #929292",
"N. c #939393",
"B. c gray58",
"V. c #959595",
"C. c gray59",
"Z. c #979797",
"A. c #989898",
"S. c gray60",
"D. c #9A9A9A",
"F. c #9B9B9B",
"G. c gray61",
"H. c #9D9D9D",
"J. c gray62",
"K. c #9F9F9F",
"L. c #A0A0A0",
"P. c gray63",
"I. c #A2A2A2",
"U. c gray64",
"Y. c #A4A4A4",
"T. c #A5A5A5",
"R. c gray65",
"E. c #A7A7A7",
"W. c gray66",
"Q. c #A9A9A9",
"!. c #AAAAAA",
"~. c gray67",
"^. c #ACACAC",
"/. c gray68",
"(. c #AEAEAE",
"). c #AFAFAF",
"_. c gray69",
"`. c #B1B1B1",
"'. c #B2B2B2",
"]. c gray70",
"[. c #B4B4B4",
"{. c gray71",
"}. c #B6B6B6",
"|. c #B7B7B7",
" X c gray72",
".X c #B9B9B9",
"XX c gray73",
"oX c #BBBBBB",
"OX c #BCBCBC",
"+X c gray74",
"@X c gray",
"#X c gray75",
"$X c #C0C0C0",
"%X c #C1C1C1",
"&X c gray76",
"*X c #C3C3C3",
"=X c gray77",
"-X c #C5C5C5",
";X c #C6C6C6",
":X c gray78",
">X c #C8C8C8",
",X c gray79",
"<X c #CACACA",
"1X c #CBCBCB",
"2X c gray80",
"3X c #CDCDCD",
"4X c #CECECE",
"5X c gray81",
"6X c #D0D0D0",
"7X c gray82",
"8X c #D2D2D2",
"9X c LightGray",
"0X c gray83",
"qX c #D5D5D5",
"wX c gray84",
"eX c #D7D7D7",
"rX c #D8D8D8",
"tX c gray85",
"yX c #DADADA",
"uX c gray86",
"iX c gainsboro",
"pX c #DDDDDD",
"aX c gray87",
"sX c #DFDFDF",
"dX c gray88",
"fX c #E1E1E1",
"gX c #E2E2E2",
"hX c gray89",
"jX c #E4E4E4",
"kX c gray90",
"lX c #E6E6E6",
"zX c #E7E7E7",
"xX c gray91",
"cX c #E9E9E9",
"vX c #EAEAEA",
"bX c gray92",
"nX c #ECECEC",
"mX c gray93",
"MX c #EEEEEE",
"NX c #EFEFEF",
"BX c gray94",
"VX c #F1F1F1",
"CX c gray95",
"ZX c #F3F3F3",
"AX c #F4F4F4",
"SX c gray96",
"DX c #F6F6F6",
"FX c gray97",
"GX c #F8F8F8",
"HX c #F9F9F9",
"JX c gray98",
"KX c #FBFBFB",
"LX c gray99",
"PX c #FDFDFD",
"IX c #FEFEFE",
"UX c white",
/* pixels */
"UXUXUXUXUXUXUXUXUXUXUXUXUXUXUXUXUXUXUXUXUXUXUXUXUXUXUXUXUXUXUXUXUXUXUXUXUXUXUXUXUXUXUX",
"UXUXUXUXUXUXUXUXUXUXUXUXUXUXUXUXUXUXUXUXUXUXUXUXUXUXUXUXUXUXUXUXUXUXUXUXUXUXUXUXUXUXUX",
"UXUXUXUXUXUXUXUXUXUXUXUXUXUXUXUXUXUXUXUXUXUXUXUXUXUXUXUXUXUXUXUXUXUXUXUXUXUXUXUXUXUXUX",
"UXUXUXUXUXUXUXUXUXUXUXUXUXUXUXUXUXUXUXUXUXUXUXUXUXUXUXUXUXUXUXUXUXUXUXUXUXUXUXUXUXUXUX",
"UXUXUXUXUXUXUXUXUXUXUXUXUXUXUXUXUXUXUXUXIXCXzXIXUXUXUXUXUXUXUXUXUXUXUXUXUXUXUXUXUXUXUX",
"UXUXUXUXUXUXUXUXUXUXUXUXUXUXUXUXUXUXUXUXIXpX=XLXUXUXUXUXUXUXUXUXUXUXUXUXUXUXUXUXUXUXUX",
"UXUXUXUXUXUXUXUXUXUXUXUXUXUXUXUXUXUXUXUXPXvXLXUXUXUXUXUXUXUXUXUXUXUXUXUXUXUXUXUXUXUXUX",
"UXUXUXUXUXUXUXUXUXUXUXUXUXUXUXUXIXUXUXUXLXmXUXUXUXUXUXUXUXUXUXUXUXUXUXUXUXUXUXUXUXUXUX",
"UXUXUXUXUXUXUXUXUXUXUXUXUXUXUXUXKXUXUXPXPXMXUXUXUXUXUXUXUXUXUXUXUXUXUXUXUXUXUXUXUXUXUX",
"UXUXUXUXUXUXUXUXUXUXUXUXUXUXUXUXdXtXNXmXjXeXFXUXUXIXUXUXUXUXUXUXUXUXUXUXUXUXUXUXUXUXUX",
"UXUXUXKXKXUXUXUXUXUXUXUXUXUXUXFXy.5.x.n.8.5._.lXZXZXPXUXUXUXUXUXUXUXUXUXUXUXUXUXUXUXUX",
"UXUXUXDXSXUXUXUXUXUXUXUXUXUXUXqXL { ;.9.W.P.l.b.A.~.ZXUXUXUXUXUXUXUXUXUXUXUXPXIXUXUXUX",
"UXUXcX}.OXMXUXUXUXUXUXUXUXUXcXC.4.#.@.&.z.F.c.E.J.j.-XUXUXUXUXUXUXUXUXUXUXUXFXPXUXUXUX",
"UX5X<.o.c.R.fXUXUXUXUXUXUXJXf.Q Q } O.1.M.f.w.g.K.z.m.sXUXUXUXUXUXUXUXUXUXDX3XkXPXUXUX",
"XX%.W ! @.2.p.>XPXUXUXUXUXXXm h X.k.x.H.9X3X+Xm.V.b.k.R.SXUXUXUXUXUXUXUXwXd.*.A.:XHXUX",
"B.I ^  .7.4.#.R.UXUXUXUXzX} w.E %.N.l.U.0X<X5XP.j.J.n.l.=XIXUXUXUXUXHX1X0...} 9.l.}.NX",
"3X:.:.p.R.F.m.uXUXUXUXPXf.V w.$.&.m.h.H.5X#X<Xs.5.tXP.x.m.sXUXUXUXUXMX2.I R Y =.<.>.&X",
"0X6.] w.Q.i.n.dXUXUXUX&Xv g G V &.V.x.F.8X#X;X6.+.Q.F.z.s.H.CXUXUXUXUXU.&.*.6.`.^.U.jX",
"qX<.H 1.U.*.g.fXUXUXvX` y E B m %.n.x.D.6X,X-XS.r.N.N.c.f.t.}.PXUXUXUX/.2.-.0.}.).`.NX",
"9X:.R <.J.2.f.qXnXgXP.^ o.l.s.9.f.A.V.H.7XiX0X2X.X|.K.!.c.a.u.9XUXUXUX).3.&.q.}.(.R.mX",
"8X6.2.p.Z.q.t.M.b.l.i.t.u.r.9.:.p.H.M.G.5X3XqX(.I.).}.%XoX%X!.XX9XfXjX/.8.-.0..X).E.MX",
"9Xq.s.s.6.%.@.| { #.%.:.:.6.q.a.M.x.{ B.=Xd.,XOX).P.S.N.M.V.A.I.R.[.).+XW.J.t.(.{.].NX",
"6X7.-.d.*.o.=.} @.6.a.k.u.l.n.a.j.Z.l.S.3X,XeX>X%X+X-X[.+XW.^.A.C.v.z.v.b.V.6.E.&X_.nX",
"9X5.~ 9.;.1.4.s.&.p.3.*.h.G s.U X.G.H.Z.1XgXrXK.1./.z.XXU.+X+X}.&X/.|.P./.b.=.L.^.W.bX",
"8X8.7.0.1.[ K 8.P 2.] N r.p 3.G  .I.K.H.qXcXdXb.) l.' x._ Z.O.Y.t.].D.].'.P.<.J.5.B.xX",
"2X;.5.7.<._ V { J =.[ b s.n 3.G { c.r.C.2XoX4Xj.Q f.^ f.R f.Y g.Y j.T m.) F.9.Y.^.~.cX",
"4X1.0.w.O.Q K ] H &.) Q Z.J.r.R *.p.X.C.>Xd.OXZ.} n.o.j.` s.T s.U n.o.s.D N.5.J..X!.lX",
"6XO._ ,.>.Q G E T <.=.4.j.v.a.3.j.j.@.N.,Xm.%X-XH.(.Z.I.z.n.+.g.R m.2.a.A m.8.R.XX~.zX",
"qXO.A <.8.X.) ^ ] 0.6.8.0.8.0.7.h.k.7.M.,X^.=X@X^. X'. X^.'.G.L.z.H.j.c.` z.e.L.t.v.xX",
"rX-.E 3.<._ ^ / :.1.6.0.7.s.w.i.c.V.A.G.6XiX5X-X.X~.&X].`._.'.`./._.L.T.F.M.a.P.4.N.xX",
"wX=.$.3.*._ ^ ] 2.<.q.e.e.1.f.-.3.C.c.A.3X>X>X+XA./.[.'.+X/.+XW.+X).(.I.H.M.<.G.p.C.xX",
"tX,.4.o./ ~ F ~ Q +.o.F >.d X.P ` t.+.z.*Xj..Xm.R s.` G.:.R.x./.L.).].Q.{.v.%.Y.'.E.lX",
"yX;.[ W K P l K F H ! P 2.a _ Y [ j.X.z.%Xc.#Xv.Y q.T p.J r.Y u.E k.] Z.6.H.q.~.-X].lX",
"aX@.N J T P z Y S C T J 8.' O.W [ h.:.v.$XL.#Xc.W a./ y.! y.T 7.K a.Q 6.M v.0.K.z.V.xX",
"gX;.Z ! ^ O.I Y T  .1.( 7.A.7.| -.N.B.M.=XwX7X!.} B.p.x.,.d.' q.P l.2.e.A c.0.P.:.h.cX",
"dX7...4.7.x.f.u.d.v.s.E O.s.8.3.w.c.b.n.>XrX1X@XG.|.!.Y.Z.F.w.g.' k.6.e.L v.e.U.2.l.jX",
"v.*.t.u.a.a.B.f.d.d.T = N ( u.;.1.4.6.i.6XuXiXeX4XtX:X:X$XoX(.).M.Y.n.v.=.z.i.!.!.T.M.",
"C I Q O.P o.I.8.9.&.w & 8 K d.=.p.6.&.( i.V.oX5Xr.+XJ.&X X-X-X,X-XOXN.H._.`.h.H.oXH.e.",
"Q S K +.K [ *.#.0.%X X!.m.a.0.d.j.m.x.t.8.#.h.I.W S.] v.=.n.0.D.B.z.c.T._.E.f.s.6.o...",
"( ' +.3.y.l.S.q.w.m.~.GXZXkXN.F.).7.4.g.5.0.f.w.f.b.O.p.<.j.-.u.c.s.d.M.g.e.9.w.3.@.| ",
"0.a.a.h.u.d.V.2.&.D X.iXo. Xd.N.1X@./  .' U %.' @.$.;.w.=.=.<.f.m.@.;.%.G J K D / { *.",
"a.:.-.5.,.q.a.t.0.<.9.0X) ^.5.X.%.W _ } ` C L >.i.=.#.9.Q R F t.b.h.a.7.) ) ' #.r.7.U.",
"].U.e.%. .@.9.e.H.T.Z.}.R.$.k j B V U ( Y v a _ OX(.+X@X_ v k <.e.i.,._ ' E R *.0./ ~."
};
