/* XPM */
static char *tile106_ezgif_com_overlay__3_1719300972[] = {
/* columns rows colors chars-per-pixel */
"43 43 256 2 ",
"   c black",
".  c #010101",
"X  c #020202",
"o  c gray1",
"O  c #040404",
"+  c gray2",
"@  c #060606",
"#  c #070707",
"$  c gray3",
"%  c #090909",
"&  c gray4",
"*  c #0B0B0B",
"=  c #0C0C0C",
"-  c gray5",
";  c #0E0E0E",
":  c gray6",
">  c #101010",
",  c #111111",
"<  c gray7",
"1  c #131313",
"2  c gray8",
"3  c #151515",
"4  c #161616",
"5  c gray9",
"6  c #181818",
"7  c #191919",
"8  c gray10",
"9  c #1B1B1B",
"0  c gray11",
"q  c #1D1D1D",
"w  c #1E1E1E",
"e  c gray12",
"r  c #202020",
"t  c gray13",
"y  c #222222",
"u  c #232323",
"i  c gray14",
"p  c #252525",
"a  c gray15",
"s  c #272727",
"d  c #282828",
"f  c gray16",
"g  c #2A2A2A",
"h  c gray17",
"j  c #2C2C2C",
"k  c #2D2D2D",
"l  c gray18",
"z  c #2F2F2F",
"x  c gray19",
"c  c #313131",
"v  c #323232",
"b  c gray20",
"n  c #343434",
"m  c #353535",
"M  c gray21",
"N  c #373737",
"B  c gray22",
"V  c #393939",
"C  c #3A3A3A",
"Z  c gray23",
"A  c #3C3C3C",
"S  c gray24",
"D  c #3E3E3E",
"F  c #3F3F3F",
"G  c gray25",
"H  c #414141",
"J  c gray26",
"K  c #434343",
"L  c #444444",
"P  c gray27",
"I  c #464646",
"U  c gray28",
"Y  c #484848",
"T  c #494949",
"R  c gray29",
"E  c #4B4B4B",
"W  c #4C4C4C",
"Q  c gray30",
"!  c #4E4E4E",
"~  c gray31",
"^  c #505050",
"/  c #515151",
"(  c gray32",
")  c #535353",
"_  c gray33",
"`  c #555555",
"'  c #565656",
"]  c gray34",
"[  c #585858",
"{  c gray35",
"}  c #5A5A5A",
"|  c #5B5B5B",
" . c gray36",
".. c #5D5D5D",
"X. c gray37",
"o. c #5F5F5F",
"O. c #606060",
"+. c gray38",
"@. c #626262",
"#. c gray39",
"$. c #646464",
"%. c #656565",
"&. c gray40",
"*. c #676767",
"=. c #686868",
"-. c DimGray",
";. c #6A6A6A",
":. c gray42",
">. c #6C6C6C",
",. c #6D6D6D",
"<. c gray43",
"1. c #6F6F6F",
"2. c gray44",
"3. c #717171",
"4. c #727272",
"5. c gray45",
"6. c #747474",
"7. c gray46",
"8. c #767676",
"9. c #777777",
"0. c gray47",
"q. c #797979",
"w. c gray48",
"e. c #7B7B7B",
"r. c #7C7C7C",
"t. c gray49",
"y. c #7E7E7E",
"u. c gray50",
"i. c #808080",
"p. c #818181",
"a. c gray51",
"s. c #838383",
"d. c #848484",
"f. c gray52",
"g. c #868686",
"h. c gray53",
"j. c #888888",
"k. c #898989",
"l. c gray54",
"z. c #8B8B8B",
"x. c gray55",
"c. c #8D8D8D",
"v. c #8E8E8E",
"b. c gray56",
"n. c #909090",
"m. c gray57",
"M. c #929292",
"N. c #939393",
"B. c gray58",
"V. c #959595",
"C. c gray59",
"Z. c #979797",
"A. c #989898",
"S. c gray60",
"D. c #9A9A9A",
"F. c #9B9B9B",
"G. c gray61",
"H. c #9D9D9D",
"J. c gray62",
"K. c #9F9F9F",
"L. c #A0A0A0",
"P. c gray63",
"I. c #A2A2A2",
"U. c gray64",
"Y. c #A4A4A4",
"T. c #A5A5A5",
"R. c gray65",
"E. c #A7A7A7",
"W. c gray66",
"Q. c #A9A9A9",
"!. c #AAAAAA",
"~. c gray67",
"^. c #ACACAC",
"/. c gray68",
"(. c #AEAEAE",
"). c #AFAFAF",
"_. c gray69",
"`. c #B1B1B1",
"'. c #B2B2B2",
"]. c gray70",
"[. c #B4B4B4",
"{. c gray71",
"}. c #B6B6B6",
"|. c #B7B7B7",
" X c gray72",
".X c #B9B9B9",
"XX c gray73",
"oX c #BBBBBB",
"OX c #BCBCBC",
"+X c gray74",
"@X c gray",
"#X c gray75",
"$X c #C0C0C0",
"%X c #C1C1C1",
"&X c gray76",
"*X c #C3C3C3",
"=X c gray77",
"-X c #C5C5C5",
";X c #C6C6C6",
":X c gray78",
">X c #C8C8C8",
",X c gray79",
"<X c #CACACA",
"1X c #CBCBCB",
"2X c gray80",
"3X c #CDCDCD",
"4X c #CECECE",
"5X c gray81",
"6X c #D0D0D0",
"7X c gray82",
"8X c #D2D2D2",
"9X c LightGray",
"0X c gray83",
"qX c #D5D5D5",
"wX c gray84",
"eX c #D7D7D7",
"rX c #D8D8D8",
"tX c gray85",
"yX c #DADADA",
"uX c gray86",
"iX c gainsboro",
"pX c #DDDDDD",
"aX c gray87",
"sX c #DFDFDF",
"dX c gray88",
"fX c #E1E1E1",
"gX c #E2E2E2",
"hX c gray89",
"jX c #E4E4E4",
"kX c gray90",
"lX c #E6E6E6",
"zX c #E7E7E7",
"xX c gray91",
"cX c #E9E9E9",
"vX c #EAEAEA",
"bX c gray92",
"nX c #ECECEC",
"mX c gray93",
"MX c #EEEEEE",
"NX c #EFEFEF",
"BX c gray94",
"VX c #F1F1F1",
"CX c gray95",
"ZX c #F3F3F3",
"AX c #F4F4F4",
"SX c gray96",
"DX c #F6F6F6",
"FX c gray97",
"GX c #F8F8F8",
"HX c #F9F9F9",
"JX c gray98",
"KX c #FBFBFB",
"LX c gray99",
"PX c #FDFDFD",
"IX c #FEFEFE",
"UX c white",
/* pixels */
"UXUXUXUXUXUXUXUXUXUXUXUXUXUXUXUXUXUXUXUXUXUXUXUXUXUXUXUXUXUXUXUXUXUXUXUXUXUXUXUXUXUXUX",
"UXUXUXUXUXUXUXUXUXnXgXuX9XcXlXkXLXUXUXUXUXUXUXUXUXUXUXUXUXUXUXUXUXUXUXUXUXUXUXUXUXUXUX",
"UXUXUXUXUXUXPXbXwXl.` L m ^ W ! I.JXUXUXUXUXUXUXUXUXUXUXUXUXUXUXUXUXUXUXUXUXUXUXUXUXUX",
"UXUXUXUXUXVXV.I S G n s i d g a h c.CXUXUXUXUXUXUXUXUXUXUXUXUXUXMXhXkXfXuXuX0XgXNXIXUX",
"UXUXUXUXUXwX( B ^ { B b a 6 u ^ Y =.qXUXUXUXUXUXUXUXUXUXUXIXMXrXp. .%.R Z D Z R } J.iX",
"UXUXUXUXUXkXm.O.P d.S.E.m.F &.D.y.*.r.tXUXUXUXUXUXUXUXUXUXyX=.T P H F d 9 8 6 7 a y x ",
"IXIXLXPXUXUXmX;XL.`.$X| ] +.c.I.3.P Q.DXUXUXUXUXUXUXUXUXUX>XO.' ;.~ R =.c w f S o.v 5 ",
"k.a.s.r.N.b.e.H.1XAXvX=.,.$.,XUXDXtXJXUXUXUXUXUXUXUXUXUXUXSXOX-X<XS.i.l.P U R T ,.V F ",
"J S R G A C f C Q D.BXSX=XC.mXSXUXUXBXpXeXSXUXUXUXUXUXUXUXbXY.f.A.*.<.S F o.<.-./ r.,X",
"5.d.c.0.]  .-.5.:.| V.;X).2.n.B.1XI.:.W G A.JXUXUXUXUXUXUXnX[.s.m./ d.u.s.@.m M J H W ",
"K.v.P.I.+.r.c.] S L { ~ s.w.0XrXlXXX4.U z C %.j.7XUXUXUXUXIXPXCXuXI.u.eXtXr.:.u.7.P.#X",
"W ( O.>.K A.F.3.M E %.1.J.s.W.wX>X<X+Xh.[ O.k E 2XUXUXUXUXUXUXUXUXUXAXKXgXt.1.DXKXUXUX",
"* < k a u ! { ^ T j.Q.W._.B./.PXSXzXnXZXNXbX3X0XLXUXUXUXUXUXUXUXUXUXUXUXzXk.q.LXUXUXUX",
"% % g 8 p H p.H.D.P.R.R.'.z.[.UXUXUXUXUXUXUXUXUXUXUXUXUXUXUXUXUXUXUXUXUXvXZ.u.LXUXUXUX",
"8 q z , P n.!.E.E.R.R.R.[.j.XXUXUXUXUXUXUXUXUXUXUXUXUXUXUXUXUXUXUXUXUXUXnXF.0.JXUXUXUX",
"0.] v.e 1 T z.P.E.R.R.T.OXz.{.UXUXUXUXUXUXUXUXUXUXUXUXUXUXUXUXUXUXUXUXUXbXH.3.AXUXUXUX",
"d.{ C.p 2.<.w.m.W.W.E.T.%Xk.].gX#X<XiXmXIXUXUXUXUXUXUXUXUXUXUXUXUXUXUXUXxXR.,.NXUXUXUX",
"4.~ z.q L %.L G t.n.B.U.=Xg.3.,.R E ( f.sXJXUXUXUXUXUXUXUXUXUXUXUXUXUXUXlX!.2.nXUXUXUX",
"i./ u.e C d g p j J &.J.@Xh.r.E.~.O.D.9XoXC.!.%XpXPXUXUXUXUXUXUXUXUXUXUXkX/.1.vXUXUXUX",
"e.Q 7.q { W [ 5.u.j.Z.U.%Xh.v.5XP.D.xXdXL.] L m ^ #XHXUXUXUXUXUXUXUXUXUXgX^.3.xXUXUXUX",
"2.H >.8 j +.G.>./ ~ ` Z.&Xd.I.xXK.kX9XE.p.>.g.`.r.+./.IXUXUXUXUXUXUXUXUXdX'.3.aXUXUXUX",
"} Z &.9 i #.P.Z.t.7.} B.8Xy.P.cXk.XXpX9XT.3.0.`.NXlXbXUXUXUXUXUXUXKXIXUXsX|.>.eXUXUXUX",
"U b X.q G O.Q.W.J.M.I.~.qXw.Z.0X3.S #.+X<X/.} `.UXUXUXUXUXUXUXlXS.k.sXUXiXXX:.5XUXUXUX",
"f j [ 8 H ` R.W.F.c.E.`.tXq.v.dX6.W ( -XIX-X9.j.MXUXUXUXUXUXUXxXs.L.SXUX8XXX=.:XUXUXUX",
"; j [ 7 C K M.I.A.r.P.'.tX4.i.hX0.@._ |.dXu.q.1.aXfXNXUXUXUXUXUXBXVXUXIX4X X*.oXUXUXUX",
"@ l [ 6 n / b.F.3.W S.`.3X;.i.fX7.#./.bXmXU.d.f.mX`.).bXUXUXUXUXbXkXUXIX3X[.$.{.UXUXJX",
"O x ` 5 w b T  .| N -.Q. XO.6.9X7.#.s.(.tXD.k.%.B.} -.%XgXpX%XsX%XY.BXHX,X).$.V.aX0XR.",
". d Q 5 t g g z G j u v.I. .g v.9.=.~ S O.2.u.T L D N Z K Y M F -.L ^ i./.^.*.] ....1.",
". t ~ 4 5 y a y b B b n.K.+.f t.4.W Q X.2.q.>.Y x i t e 9 e d q N N 7 h D.K.=.Q E Y ..",
"= t B i 2 q r p Z ! E s.n.<.S ) I N ..e.0.9.:.| ^ T Y R J Z M b z h w m k.f.} F C S E ",
"Z ! { .. .@.o...X.#.$.;.&.] K M I ] X.7.3.5.e.i.b.i.8.-.O.} E P M v m =.d.,.~ U Q } X.",
"<.<.<.>.%.+.O. .] ( J c y j A ..r.y.3.9.u.q.d.s.M.L.S.j.w.;...[ ~ ~ ..3. .E ! ) } +...",
"' [ ( K Z S C N d 0 w n T [ :.3.,.7.3.2.6.0.f.l.k.C.Y.!.Q.G.f.3.&.&.;.8.>.{ / W m C D ",
"M b j 5 1 e p z c S ` X. .X.#.,.2.7.4.,.:.4.w.i.p.z.C.B.n.v.n.C.B.l.k.x.y.) j 6 $ & = ",
"6 3 > , q b K Y ! ' O.3.t.' X.u.6.8.w.s.j.v.1.9.F.H.L.H.F.Z.b.k.d.h.s.9.D 3 + X o X o ",
"- 2 u j B Q ) ) [ =.>.S.H.' :.v.3.8.9.y.9.2.} 0.D.C.C.B.Z.D.m.g.0.1.{ w * 1 y 0 & , 7 ",
"u B P L P T R U E ! ^ V.A.1.,.9.=.%.o.| [ E F o.6.7.8.4.6.7.{ x r a p d C ! ] ( F R Y ",
"F G m n A V D ] ` Z K R K J g p w 3 3 2 , , < < < 1 9 u d l g m U ~ } 5.a.s.k.k.m.N.5.",
"= % & - < j E H x r y 1 % - @ & * ; 6 e q e a h c Z ^ #.=.:.,.;.-.X.X.0.N.V.x.d.d.z.x.",
".   X $ $ a l : $ < < - > 2 9 r j n D U T P ) +.$.&.;.3.4.9.8.,.,.w.z.V.M.k.i.9. .#.y.",
"% # $ - = ; 3 , 4 w r k G ^ ` ..@.&.@.%.;.#.#.2.2.,.&.+.,.7.e.,.*.4.r.p.r.q.7.4.{ D A ",
"9 3 5 t w ; : c F ! ^ / ,.q.%.=.0.r.2.<.0.p.i.t.y.6.:.$.%.>.*.o.` X.#.%.w.f.4.) z 6 d ",
"m q 9 v b 3 r ~ { +.3.%.9.s.4.O.6.r.0.e.9.t.k.e.s.r.*.o.` R ! } &...[ $.:.>.M 2 1 b ' "
};
