/* XPM */
static char *tile1131719244613[] = {
/* columns rows colors chars-per-pixel */
"43 43 115 2 ",
"   c #5188FF",
".  c #5188FD",
"X  c #5088FF",
"o  c #5188FC",
"O  c #5289FE",
"+  c #538AFE",
"@  c #558CFF",
"#  c #5089FD",
"$  c #4F88FC",
"%  c #4D86FA",
"&  c #4A85FB",
"*  c #4C87FF",
"=  c #5087FB",
"-  c #4F86FA",
";  c #5289FD",
":  c #558EFF",
">  c #5891FF",
",  c #5691FF",
"<  c #528DFF",
"1  c #4C88FF",
"2  c #548BFF",
"3  c #4C81F3",
"4  c #4D82F4",
"5  c #5085F7",
"6  c #4E89FF",
"7  c #5186F8",
"8  c #5B8FFF",
"9  c #588CFA",
"0  c #5589F9",
"q  c #5388FA",
"w  c #528BFF",
"e  c #4E85F9",
"r  c #4C83F7",
"t  c #4A81F5",
"y  c #5489FB",
"u  c #5588F5",
"i  c #5585F1",
"p  c #5484F2",
"a  c #5587F6",
"s  c #578BFB",
"d  c #568BFD",
"f  c #558AFA",
"g  c #5989F5",
"h  c #5887F1",
"j  c #5685F1",
"k  c #5383F1",
"l  c #5284F3",
"z  c #5387F7",
"x  c #578EFF",
"c  c #477BEB",
"v  c #5180EA",
"b  c #5C88F1",
"n  c #6490FB",
"m  c #608FFB",
"M  c #5689F6",
"N  c #5084F2",
"B  c #4279ED",
"V  c #2F63D3",
"C  c #00238D",
"Z  c #1B46AE",
"A  c #4672DD",
"S  c #5C8BF5",
"D  c #5C8CFA",
"F  c #5286F4",
"G  c #487FF3",
"H  c #4B82F6",
"J  c #5D94FF",
"K  c #4178EC",
"L  c #002494",
"P  c #000E78",
"I  c #000B73",
"U  c #517DE8",
"Y  c #5B8AF4",
"T  c #5181EF",
"R  c #5B8FFD",
"E  c #568DFF",
"W  c #4D84F8",
"Q  c #457CF0",
"!  c #5B92FF",
"~  c #3F73E3",
"^  c #3968D2",
"/  c #2A56BF",
"(  c #6591FC",
")  c #5988F4",
"_  c #4A7DEA",
"`  c #5488F6",
"'  c #5990FF",
"]  c #588FFF",
"[  c #5E93FF",
"{  c #5D8DF9",
"}  c #6291FD",
"|  c #5686F4",
" . c #5082F1",
".. c #5185F5",
"X. c #4C7FEC",
"o. c #5383EF",
"O. c #588CFC",
"+. c #5287F9",
"@. c #5084F4",
"#. c #5C90FE",
"$. c #4E82F2",
"%. c #5D92FF",
"&. c #4F8AFF",
"*. c #4980F4",
"=. c #4E87FA",
"-. c #4F88FB",
";. c #5792FF",
":. c #4C87FD",
">. c #528EFF",
",. c #4E85FA",
"<. c #538AFF",
"1. c #4E87FB",
"2. c #518CFF",
"3. c #437EF4",
"4. c white",
/* pixels */
"                                                                                      ",
"                                                                                      ",
"                                                                                      ",
"                                                                                      ",
"                                                                                      ",
"                                                                                      ",
"                                                                                      ",
"                                                                                      ",
"                                                                                      ",
"                                                                                      ",
"                                                                                      ",
"                                                                                      ",
"                                                                                      ",
"                                                                                      ",
"                                                                                      ",
"                                                                                      ",
"                                                                                      ",
"                                                                                      ",
"                                            .   .   .   .   .   .   .   .       X X X ",
"                                          . o . o . o . o . o O + O o O @ # $ % & & * ",
"                                        . . o o o o o o o = - - o ; ; o o + : > , < 1 ",
"                                        . . o o o o o o o 2 ; o o 2 2 ; - 3 4 5 - $ 6 ",
"                                        . . o o o o o o o 2 @ + = - o o 7 8 9 0 q ; w ",
"                                        . . o o o o o o o e ; ; r t e o y u i p a s d ",
"                                        . . o o o o o o o r + 2 - e + @ f g h j k l z ",
"                                        . . o o o o o o o = @ @ ; 2 x = c v b n m M N ",
"                                        . . o o o o o o o ; + o e ; + B V C Z A S D F ",
"                                        . . o o o o o o o @ G 2 @ H J K L P I U Y T R ",
"                                        . . o o o o o o o E W E 2 Q @ ! ~ ^ / ( ) _ ` ",
"                                        . . o o o o o o o ; e x ' W r ] [ { v } |  ...",
"                                        . . o o o o o o o ; - = @ x W G 5 X.o.T l O.+.",
"                                        . . o o o o o o o @ 2 t G + @ = d @.#.$.+.@ $ ",
"                                        . . o o o o o o o e E ; W = + + E 7 %.q ] w &.",
"                                        . . o o o o o o o H = x ] + e W e *.=.-.;.:.>.",
"                                          . o . o . o . o @ H ,.E <.- <.2 : % 1.2.3.;.",
"                                            .   .   .   .   .   .   .   .       X X X ",
"                                                                                      ",
"                                                                                      ",
"                                                                                      ",
"                                                                                      ",
"                                                                                      ",
"                                                                                      ",
"                                                                                      "
};
