/* XPM */
static char *tile1141719244613[] = {
/* columns rows colors chars-per-pixel */
"43 43 35 1 ",
"  c #5188FF",
". c #5088FF",
"X c #4F8AFF",
"o c #528DFF",
"O c #4E88FF",
"+ c #4E89FF",
"@ c #5387FD",
"# c #4985FD",
"$ c #4884FE",
"% c #4D89FF",
"& c #518CFF",
"* c #548FFF",
"= c #538CFF",
"- c #5087FC",
"; c #4A83F7",
": c #558AFE",
"> c #558CFF",
", c #5089FD",
"< c #5388FA",
"1 c #578EFF",
"2 c #5185F5",
"3 c #528AFB",
"4 c #5188FD",
"5 c #568AFA",
"6 c #538BFC",
"7 c #568BFD",
"8 c #5990FF",
"9 c #5388FC",
"0 c #4C85F9",
"q c #528BFF",
"w c #4B86FC",
"e c #4682FA",
"r c #4985FF",
"t c #5691FF",
"y c white",
/* pixels */
"                                           ",
"                                           ",
"                                           ",
"                                           ",
"                                           ",
"                                           ",
"                                           ",
"                                           ",
"                                           ",
"                                           ",
"                                           ",
"                                           ",
"                                           ",
"                                           ",
"                                           ",
"                                           ",
"                                           ",
"                                           ",
"....                                       ",
"XoO+..  @@                                 ",
"#$%O..  @@                                 ",
"&*++..  @@                                 ",
"=&++..  @@                                 ",
"-;....                                     ",
":>,...                                     ",
"<1,,....                                   ",
"234,....                                   ",
"564,....                                   ",
"78,,....                                   ",
"94,...                                     ",
"-0....                                     ",
"q&++..  @@                                 ",
"w+++..  @@                                 ",
"er%O..  @@                                 ",
"+tO+..  @@                                 ",
"....                                       ",
"                                           ",
"                                           ",
"                                           ",
"                                           ",
"                                           ",
"                                           ",
"                                           "
};
