/* XPM */
static char *tile1161719244613[] = {
/* columns rows colors chars-per-pixel */
"43 43 125 2 ",
"   c #000020",
".  c #00052B",
"X  c #000F2E",
"o  c #00152A",
"O  c #000332",
"+  c #000D34",
"@  c #000D39",
"#  c #0A1833",
"$  c #000F43",
"%  c #001443",
"&  c #0C1840",
"*  c #001648",
"=  c #04184D",
"-  c #0C2446",
";  c #112445",
":  c #172846",
">  c #102E52",
",  c #132F5E",
"<  c #232D46",
"1  c #0D316F",
"2  c #1B3264",
"3  c #0F3576",
"4  c #183770",
"5  c #36424E",
"6  c #254775",
"7  c #495A62",
"8  c #4E5F7D",
"9  c #686B7C",
"0  c #274C83",
"q  c #375E9F",
"w  c #3F5F9C",
"e  c #405D95",
"r  c #677592",
"t  c #4963A0",
"y  c #5273B6",
"u  c #5C71B4",
"i  c #5677BA",
"p  c #4D79C4",
"a  c #5977C0",
"s  c #547BC0",
"d  c #627FC3",
"f  c #627ED2",
"g  c #4B7DE5",
"h  c #4779E8",
"j  c #487AED",
"k  c #467FF0",
"l  c #497DF3",
"z  c #4B7FF9",
"x  c #76869D",
"c  c #5C87CB",
"v  c #4A83DA",
"b  c #5486DB",
"n  c #5D84DB",
"m  c #5689DA",
"M  c #5C8BDC",
"N  c #6789C9",
"B  c #6585D2",
"V  c #6A8CD4",
"C  c #6C8CDF",
"Z  c #6492DD",
"A  c #6E93DB",
"S  c #4885E2",
"D  c #4785EA",
"F  c #4D84EC",
"G  c #5483E6",
"H  c #5788E7",
"J  c #5D84E9",
"K  c #558DEC",
"L  c #5D88EE",
"P  c #4E88F4",
"I  c #4C84FC",
"U  c #4D89FB",
"Y  c #5387F7",
"T  c #5289F6",
"R  c #5A8FF7",
"E  c #5286FD",
"W  c #5885FA",
"Q  c #5289FE",
"!  c #5C8AF8",
"~  c #5D93FE",
"^  c #638CE3",
"/  c #6185EC",
"(  c #6889E8",
")  c #6494E9",
"_  c #648EFC",
"`  c #6592F7",
"'  c #6293FE",
"]  c #679CFF",
"[  c #A4AABA",
"{  c #A6B4BD",
"}  c #95A6C0",
"|  c #BBC1CD",
" . c #B5C2D5",
".. c #D3DBDE",
"X. c #DAE3F4",
"o. c #E8E7E2",
"O. c #ECEDE7",
"+. c #E5E1EF",
"@. c #EBE6EC",
"#. c #E4EBEE",
"$. c #EEEBEC",
"%. c #F5EDE2",
"&. c #F4EFEB",
"*. c #E5F4EF",
"=. c #EEF8EF",
"-. c #F3F3EC",
";. c #FBF3ED",
":. c #F3FEEE",
">. c #F9F8ED",
",. c #E0E1F3",
"<. c #EBEAF2",
"1. c #F3EDF7",
"2. c #F5EEFF",
"3. c #EFF5F2",
"4. c #E6F3FD",
"5. c #EEF4FE",
"6. c #EDFDFF",
"7. c #F6F5F1",
"8. c #FDF4F3",
"9. c #F4FDF1",
"0. c #FDFEF5",
"q. c #F4F5FC",
"w. c #FCF4FD",
"e. c #F5FDFE",
"r. c #FFFFFF",
/* pixels */
"Q E Q E ~ z I T F ) A * r 5.&.;.0.0.r.5.r.r.r.r.r.r.r.r.r.r.r.r.r.r.r.r.r.r.r.r.r.r.r.",
"Q Q Q E z W U ~ S v M 3 + e.e.0.0.;.q.r.r.r.r.r.r.r.r.r.r.r.r.r.r.r.r.r.r.r.r.r.r.r.r.",
"E E Q E W ' k T D K m q @ e.e.-.0.0.w.r.r.r.r.r.r.r.r.r.r.r.r.r.r.r.r.r.r.r.r.r.r.r.r.",
"Y Y Y Y ! h Q I I R ^ 6 o e.0.r.w.w.e.q.r.r.r.r.r.r.r.r.r.r.r.r.r.r.r.r.r.r.r.r.r.r.r.",
"Y T Y Y g ] l I ~ g s > 7 e.8.r.w.r.r.q.r.r.r.r.r.r.r.r.r.r.r.r.r.r.r.r.r.r.r.r.r.r.r.",
"Y E E E F ! Q l _ ^ e . { r.-.0.r.r.e.e.r.r.r.r.r.r.r.r.r.r.r.r.r.r.r.r.r.r.r.r.r.r.r.",
"E E E Q T T g ` n a * 8 4.0.-.0.r.r.q.r.r.r.r.r.r.r.r.r.r.r.r.r.r.r.r.r.r.r.r.r.r.r.r.",
"E E E U U ~ H n d = & e.r.r.0.0.0.r.q.r.r.r.r.r.r.r.r.r.r.r.r.r.r.r.r.r.r.r.r.r.r.r.r.",
"E Q I E Q K M N % . e.q.e.r.0.0.0.r.w.r.r.r.r.r.r.r.r.r.r.r.r.r.r.r.r.r.r.r.r.r.r.r.r.",
"I E E I k K c , # ,.w.w.w.r.e.:.0.0.r.r.r.r.r.r.r.r.r.r.r.r.r.r.r.r.r.r.r.r.r.r.r.r.r.",
"E E E E T b 0 o | w.w.w.r.r.9.:.0.0.r.w.r.r.r.r.r.r.r.r.r.r.r.r.r.r.r.r.r.r.r.r.r.r.r.",
"' z E ! G p @ x w.0.8.w.w.r.e.0.9.0.r.w.r.r.r.r.r.r.r.r.r.r.r.r.r.r.r.r.r.r.r.r.r.r.r.",
"I W W ! Z 1 - e.9.%.;.w.w.r.e.0.0.0.r.r.r.r.r.r.r.r.r.r.r.r.r.r.r.r.r.r.r.r.r.r.r.r.r.",
"W ! G B i O } e.O.0.0.8.r.r.r.0.0.0.0.r.r.r.r.r.r.r.r.r.r.r.r.r.r.r.r.r.r.r.r.r.r.r.r.",
"_ L G V 2 : e.#.r.0.0.0.0.w.r.r.r.0.r.0.r.r.r.r.r.r.r.r.r.r.r.r.r.r.r.r.r.r.r.r.r.r.r.",
"/ f C e   [ e.q.r.3.0.0.r.0.w.r.r.r.0.r.r.r.r.r.r.r.r.r.r.r.r.r.r.r.r.r.r.r.r.r.r.r.r.",
"/ C y O 9 r.e.q.e.e.e.9.0.r.r.w.w.r.0.e.r.r.r.r.r.r.r.r.r.r.r.r.r.r.r.r.r.r.r.r.r.r.r.",
"( B 4 ; r.8.w.q.e.6.3.9.0.0.w.r.w.r.e.0.r.r.r.r.r.r.r.r.r.r.r.r.r.r.r.r.r.r.r.r.r.r.r.",
"f t @  .7.0.r.e.6.6.e.=.0.r.w.w.w.r.0.0.r.r.r.r.r.r.r.r.r.r.r.r.r.r.r.r.r.r.r.r.r.r.r.",
"u + 5 7.0.r.r.r.r.e.r.r.r.r.r.r.r.r.r.r.r.r.r.r.r.r.r.r.r.r.r.r.r.r.r.r.r.r.r.r.r.r.r.",
"$ < #.0.r.r.r.r.r.r.r.r.r.r.r.r.r.r.r.r.r.r.r.r.r.r.r.r.r.r.r.r.r.r.r.r.r.r.r.r.r.r.r.",
"X X.r.r.r.r.r.r.r.r.r.r.r.r.r.r.r.r.r.r.r.r.r.r.r.r.r.r.r.r.r.r.r.r.r.r.r.r.r.r.r.r.r.",
"x e.<.w.r.r.r.r.r.r.r.r.r.r.r.r.r.r.r.r.r.r.r.r.r.r.r.r.r.r.r.r.r.r.r.r.r.r.r.r.r.r.r.",
"4...r.r.r.r.r.r.r.r.r.r.r.r.r.r.r.r.r.r.r.r.r.r.r.r.r.r.r.r.r.r.r.r.r.r.r.r.r.r.r.r.r.",
"e.r.w.r.r.r.r.r.r.r.r.r.r.r.r.r.r.r.r.r.r.r.r.r.r.r.r.r.r.r.r.r.r.r.r.r.r.r.r.r.r.r.r.",
"e.r.1.r.r.r.r.r.r.r.r.r.r.r.r.r.r.r.r.r.r.r.r.r.r.r.r.r.r.r.r.r.r.r.r.r.r.r.r.r.r.r.r.",
"9.e.r.w.r.r.r.r.r.r.r.r.r.r.r.r.r.r.r.r.r.r.r.r.r.r.r.r.r.r.r.r.r.r.r.r.r.r.r.r.r.r.r.",
"r.$.w.r.r.r.r.r.r.r.r.r.r.r.r.r.r.r.r.r.r.r.r.r.r.r.r.r.r.r.r.r.r.r.r.r.r.r.r.r.r.r.r.",
"@.r.-.0.r.r.r.r.r.r.r.r.r.r.r.r.r.r.r.r.r.r.r.r.r.r.r.r.r.r.r.r.r.r.r.r.r.r.r.r.r.r.r.",
"r.@.0.>.0.r.r.r.r.r.r.r.r.r.r.r.r.r.r.r.r.r.r.r.r.r.r.r.r.r.r.r.r.r.r.r.r.r.r.r.r.r.r.",
",.r.;.0.0.r.r.r.r.r.r.r.r.r.r.r.r.r.r.r.r.r.r.r.r.r.r.r.r.r.r.r.r.r.r.r.r.r.r.r.r.r.r.",
"r.w.0.0.r.r.r.r.r.r.r.r.r.r.r.r.r.r.r.r.r.r.r.r.r.r.r.r.r.r.r.r.r.r.r.r.r.r.r.r.r.r.r.",
"w.r.0.>.0.r.r.r.r.r.r.r.r.r.r.r.r.r.r.r.r.r.r.r.r.r.r.r.r.r.r.r.r.r.r.r.r.r.r.r.r.r.r.",
"r.r.o.0.r.r.r.r.r.r.r.r.r.r.r.r.r.r.r.r.r.r.r.r.r.r.r.r.r.r.r.r.r.r.r.r.r.r.r.r.r.r.r.",
"&.7.r.7.r.r.r.r.r.r.r.r.r.r.r.r.r.r.r.r.r.r.r.r.r.r.r.r.r.r.r.r.r.r.r.r.r.r.r.r.r.r.r.",
"r.r.r.r.r.r.r.r.r.r.r.r.r.r.r.r.r.r.r.r.r.r.r.r.r.r.r.r.r.r.r.r.r.r.r.r.r.r.r.r.r.r.r.",
"r.r.r.r.r.r.r.r.r.r.r.r.r.r.r.r.r.r.r.r.r.r.r.r.r.r.r.r.r.r.r.r.r.r.r.r.r.r.r.r.r.r.r.",
"r.r.r.r.r.r.r.r.r.r.r.r.r.r.r.r.r.r.r.r.r.r.r.r.r.r.r.r.r.r.r.r.r.r.r.r.r.r.r.r.r.r.r.",
"e.r.r.r.r.r.r.r.r.r.r.r.r.r.r.r.r.r.r.r.r.r.r.r.r.r.r.r.r.r.r.r.r.r.r.r.r.r.r.r.r.r.r.",
"r.r.0.r.0.r.r.r.r.r.r.r.r.r.r.r.r.r.r.r.r.r.r.r.r.r.r.r.r.r.r.r.r.r.r.r.r.r.r.r.r.r.r.",
"r.r.r.0.r.r.r.r.r.r.r.r.r.r.r.r.r.r.r.r.r.r.r.r.r.r.r.r.r.r.r.r.r.r.r.r.r.r.r.r.r.r.r.",
"r.r.0.r.r.r.r.r.r.r.r.r.r.r.r.r.r.r.r.r.r.r.r.r.r.r.r.r.r.r.r.r.r.r.r.r.r.r.r.r.r.r.r.",
"e.r.0.r.0.r.r.r.r.r.r.r.r.r.r.r.r.r.r.r.r.r.r.r.r.r.r.r.r.r.r.r.r.r.r.r.r.r.r.r.r.r.r."
};
