/* XPM */
static char *tile1391719244611[] = {
/* columns rows colors chars-per-pixel */
"43 43 152 2 ",
"   c #00041C",
".  c #000C1E",
"X  c #000425",
"o  c #020824",
"O  c #00042C",
"+  c #000D2F",
"@  c #0F1024",
"#  c #021826",
"$  c #06152A",
"%  c #03182D",
"&  c #000334",
"*  c #000C34",
"=  c #060F3A",
"-  c #001233",
";  c #051C36",
":  c #171B38",
">  c #0A202E",
",  c #122738",
"<  c #1E2A3A",
"1  c #000E4A",
"2  c #011A42",
"3  c #00174A",
"4  c #092652",
"5  c #0D275A",
"6  c #132054",
"7  c #1E2C53",
"8  c #243A47",
"9  c #23354D",
"0  c #2A394C",
"q  c #293158",
"w  c #153362",
"e  c #1F396A",
"r  c #152C70",
"t  c #1C3877",
"y  c #203064",
"u  c #2C3A6B",
"i  c #243678",
"p  c #3A4153",
"a  c #3F4F68",
"s  c #3F5261",
"d  c #73737F",
"f  c #203586",
"g  c #274B87",
"h  c #304F85",
"j  c #36538F",
"k  c #2F4598",
"l  c #334994",
"z  c #3B539C",
"x  c #415499",
"c  c #637383",
"v  c #687586",
"b  c #65708E",
"n  c #4961A1",
"m  c #4765AE",
"M  c #4A64B3",
"N  c #516FB5",
"B  c #526CB9",
"V  c #4E72B3",
"C  c #5371BA",
"Z  c #5D71BA",
"A  c #5E78C5",
"S  c #5D7ACD",
"D  c #5D7BD1",
"F  c #527ADC",
"G  c #5D7EDB",
"H  c #647DCF",
"J  c #527EE1",
"K  c #5B7DE5",
"L  c #5C7EE9",
"P  c #4B7AF3",
"I  c #427BFC",
"U  c #507CF5",
"Y  c #5E7DF1",
"T  c #577FF9",
"R  c #778383",
"E  c #5F83CD",
"W  c #5D83DC",
"Q  c #6A88C4",
"!  c #6482D4",
"~  c #6887D7",
"^  c #6181DA",
"/  c #648CDD",
"(  c #6B89DF",
")  c #7187DA",
"_  c #7593DB",
"`  c #4582ED",
"'  c #4D84E9",
"]  c #5483E5",
"[  c #5E82E0",
"{  c #5381EE",
"}  c #5D84ED",
"|  c #5B89EB",
" . c #4686F0",
".. c #4B83F3",
"X. c #4588F5",
"o. c #4C8CF4",
"O. c #4380FF",
"+. c #4E85FE",
"@. c #4D8AFD",
"#. c #5484F3",
"$. c #5B86F5",
"%. c #528CF5",
"&. c #5D89F4",
"*. c #5586FC",
"=. c #5A85FB",
"-. c #5188FF",
";. c #5A8CFC",
":. c #4C92FC",
">. c #5190FA",
",. c #6285E5",
"<. c #6989E0",
"1. c #6484EF",
"2. c #6A8DEC",
"3. c #6691ED",
"4. c #7496EF",
"5. c #6085F4",
"6. c #618BF4",
"7. c #6389FD",
"8. c #6A88FA",
"9. c #6290F0",
"0. c #6893F1",
"q. c #6594FF",
"w. c #8F95B7",
"e. c #8EA1A5",
"r. c #9DA8AE",
"t. c #A5A9B5",
"y. c #B2BCB4",
"u. c #A8B6C1",
"i. c #ABB9C2",
"p. c #B4C0D0",
"a. c #D7E7E4",
"s. c #EDF4ED",
"d. c #F4F2E6",
"f. c #F6FBE5",
"g. c #F8FCE3",
"h. c #F3F2EE",
"j. c #F4FFEE",
"k. c #FDFCEC",
"l. c #E0EEF1",
"z. c #EFEFF1",
"x. c #E4ECFE",
"c. c #F1EEF9",
"v. c #EDFAF1",
"b. c #ECF5FE",
"n. c #F4F2F7",
"m. c #FCF6F4",
"M. c #F5FFF3",
"N. c #FBFFF4",
"B. c #F3F6FE",
"V. c #FDF5FD",
"C. c #F6FDFD",
"Z. c #FEFEFE",
/* pixels */
"Z.Z.Z.Z.Z.Z.Z.Z.N.M.j.M.C.Z.Z.: y ( =.I O.>.o.-.-.-.-.-.-.-.-.-.-.-.-.-.-.-.-.-.-.-.-.",
"Z.Z.Z.Z.Z.Z.Z.Z.C.j.j.M.Z.Z.V.o u S #.;.-.` %.%.-.-.-.-.-.-.-.-.-.-.-.-.-.-.-.-.-.-.-.",
"Z.Z.Z.Z.Z.Z.Z.Z.Z.M.M.C.Z.Z.Z.@ 7 _ W -.*...%.-.-.-.-.-.-.-.-.-.-.-.-.-.-.-.-.-.-.-.-.",
"Z.Z.Z.Z.Z.Z.Z.Z.Z.M.M.C.C.Z.Z.v o Q [ #.+.;.;.-.-.-.-.-.-.-.-.-.-.+.-.-.-.-.-.-.-.-.-.",
"Z.Z.Z.Z.Z.Z.Z.Z.N.N.C.C.Z.Z.V.z.< w / q.P *.=.-.-.-.-.-.-.-.-.-.-.-.-.-.-.-.-.-.-.-.-.",
"Z.Z.Z.Z.Z.Z.Z.Z.Z.C.C.Z.Z.Z.m.Z.r.O V 9...7.=.*.-.-.-.-.-.-.-.-.-.-.-.-.-.-.-.-.-.-.-.",
"Z.Z.Z.Z.Z.Z.Z.Z.V.Z.C.Z.V.V.m.d.C.; g [ =.7.T *.-.-.-.-.-.-.-.-.-.-.-.-.-.-.-.-.-.-.-.",
"Z.Z.Z.Z.Z.Z.Z.Z.Z.C.Z.Z.Z.Z.V.k.C.8 w 2.=.T =.*.-.-.-.-.-.-.-.-.-.-.-.-.-.-.-.-.-.-.-.",
"Z.Z.Z.Z.Z.Z.Z.Z.Z.C.N.N.Z.V.Z.Z.N.R + ( 7.P ;.-.-.-.-.-.-.-.-.-.-.-.-.-.-.-.-.-.-.-.-.",
"Z.Z.Z.Z.Z.Z.Z.Z.Z.N.N.f.M.Z.V.V.Z.y.  H 6.*.+.-.-.-.-.-.-.-.-.-.-.-.-.-.-.-.-.-.-.-.-.",
"Z.Z.Z.Z.Z.Z.Z.Z.Z.N.N.f.N.V.V.V.N.s.  B L *.+.-.-.-.-.-.-.-.-.-.-.-.-.-.-.-.-.-.-.-.-.",
"Z.Z.Z.Z.Z.Z.Z.Z.Z.N.N.j.N.Z.Z.Z.m.Z.$ z L #.-.-.-.-.-.-.-.-.-.-.-.-.-.-.-.-.-.-.-.-.-.",
"Z.Z.Z.Z.Z.Z.Z.Z.C.N.j.j.N.Z.Z.Z.h.Z.0 r 2.U ;.-.-.-.-.-.-.-.-.-.-.-.-.-.-.-.-.+.-.-.-.",
"Z.Z.Z.Z.Z.Z.Z.Z.Z.N.N.M.C.Z.V.Z.N.C.c 1 4.&...-.-.-.-.-.-.-.-.-.-.-.-.-.-.-.-.-.-.-.-.",
"Z.Z.Z.Z.Z.Z.Z.Z.Z.N.N.N.N.Z.Z.V.Z.Z.i.= ~ } *.-.-.-.-.-.-.-.-.-.-.-.-.-.-.-.-.-.-.-.-.",
"Z.Z.Z.Z.Z.Z.Z.Z.Z.M.M.C.C.Z.Z.Z.Z.Z.B.& N F ;.*.-.-.-.-.-.-.+.-.-.-.-.-.-.-.-.-.-.-.-.",
"Z.Z.Z.Z.Z.Z.Z.Z.Z.N.N.C.Z.Z.Z.Z.m.Z.B.- j [ ;.;.+.@.-.-.-.-.-.-.-.-.-.-.-.-.-.-.-.-.-.",
"Z.Z.Z.Z.Z.Z.Z.Z.Z.Z.C.C.Z.Z.V.Z.V.Z.B.9 y W &.*.-.-.-.-.-.-.-.-.-.-.-.-.-.-.-.-.-.-.-.",
"Z.Z.Z.Z.Z.Z.Z.Z.N.Z.C.Z.C.Z.Z.Z.V.Z.B.c 2 ! 5.*.-.-.-.-.-.-.-.-.-.-.-.-.-.-.-.-.-.-.-.",
"Z.Z.Z.Z.Z.Z.Z.Z.Z.N.C.C.C.Z.Z.V.Z.Z.B.i.o ! 1.*.-.-.-.-.-.-.-.-.-.-.-.-.-.-.-.-.-.-.-.",
"Z.Z.Z.Z.Z.Z.Z.Z.N.Z.C.Z.Z.Z.N.Z.Z.V.Z.l.  A L *.-.-.-.-.-.-.-.-.-.-.-.-.-.-.-.-.-.-.-.",
"Z.Z.Z.Z.Z.Z.Z.Z.Z.N.C.C.C.Z.N.Z.V.V.Z.C.. M G *.-.-.-.-.-.-.-.-.-.-.-.-.-.-.-.-.-.-.-.",
"Z.Z.Z.Z.Z.Z.Z.Z.N.Z.Z.C.C.C.Z.V.V.V.Z.C.# z K *.-.-.-.-.-.-.-.-.+.-.-.-.-.-.-.-.-.-.-.",
"Z.Z.Z.Z.Z.Z.Z.Z.Z.C.Z.C.Z.N.Z.Z.V.Z.Z.v.> l 1.=.-.-.-.-.-.-.-.-.-.-.-.-.-.-.-.-.-.-.-.",
"Z.Z.Z.Z.Z.Z.Z.Z.Z.Z.Z.C.C.Z.Z.V.Z.N.j.j., f 8.*.-.-.-.-.-.-.-.-.-.-.-.-.-.-.-.-.-.-.-.",
"Z.Z.Z.Z.Z.Z.Z.Z.Z.Z.Z.M.N.Z.Z.V.V.k.g.M.; k Y =.-.-.-.-.-.-.-.-.-.-.-.-.-.-.-.-.-.-.-.",
"Z.Z.Z.Z.Z.Z.Z.Z.Z.Z.C.N.N.Z.Z.V.V.N.f.C.  M Y *.-.-.-.-.-.-.-.-.-.-.-.-.-.-.-.-.-.-.-.",
"Z.Z.Z.Z.Z.Z.Z.Z.Z.Z.N.N.N.Z.Z.Z.V.m.N.a.X S 5.=.-.-.-.-.-.-.-.-.-.-.-.-.-.-.-.-.-.-.-.",
"Z.Z.Z.Z.Z.Z.Z.Z.Z.V.N.N.Z.Z.Z.V.V.V.Z.e.* ! 7.*.-.-.-.-.-.-.-.-.-.-.-.-.-.-.-.-.-.+.-.",
"Z.Z.Z.Z.Z.Z.Z.Z.Z.Z.Z.N.N.Z.Z.V.Z.Z.C.s 4 ^ $.*.-.-.-.-.-.-.-.-.-.-.-.-.-.-.-.-.-.-.-.",
"Z.Z.Z.Z.Z.Z.Z.Z.Z.Z.C.M.C.Z.Z.V.Z.Z.b.; h ^ #.*.-.-.-.-.-.-.-.-.-.-.-.-.-.-.-.-.-.-.-.",
"Z.Z.Z.Z.Z.Z.Z.Z.Z.N.N.N.N.Z.Z.Z.V.Z.x.X V 0.#.-.-.-.+.-.-.-.-.-.-.-.-.-.-.-.-.-.-.-.-.",
"Z.Z.Z.Z.Z.Z.Z.Z.Z.Z.N.N.C.Z.Z.Z.c.B.b 3 ! 9.#.%.-.-.-.-.-.-.-.-.-.-.-.-.-.-.-.-.-.-.-.",
"Z.Z.Z.Z.Z.Z.Z.Z.Z.N.N.N.N.Z.Z.V.Z.Z.7 t / ] %.-.-.-.-.-.-.-.-.-.-.-.-.-.-.-.-.-.-.-.-.",
"Z.Z.Z.Z.Z.Z.Z.Z.Z.Z.N.Z.C.Z.Z.n.Z.x.& m 3.' >.-.-.-.-.-.-.-.-.-.-.-.-.-.-.-.-.-.-.-.-.",
"Z.Z.Z.Z.Z.Z.Z.Z.Z.m.k.N.C.Z.Z.Z.B.w.1 D | o.o.-.-.-.-.-.-.-.-.-.-.-.-.-.-.-.-.-.-.-.-.",
"Z.Z.Z.Z.Z.Z.Z.V.Z.N.N.N.Z.Z.Z.Z.Z.q i G { o.o.@.-.-.-.-.-.-.-.-.-.-.-.-.-.-.-.-.-.-.-.",
"Z.Z.Z.Z.Z.Z.Z.Z.Z.N.k.N.C.Z.Z.Z.B.O z ,.;. .:.+.-.-.-.-.-.-.-.-.-.-.-.-.-.-.-.-.-.-.-.",
"Z.Z.Z.Z.Z.Z.Z.Z.Z.N.k.Z.C.Z.Z.Z.t.= Z 1.;.X.:.@.-.-.-.-.-.-.-.-.-.-.-.-.-.-.-.-.-.-.-.",
"Z.Z.Z.Z.Z.Z.Z.Z.Z.N.N.N.N.C.Z.Z.p 6 ) &.*.@.X.@.-.-.-.-.-.-.-.-.-.-.-.-.-.-.+.-.-.-.-.",
"Z.Z.Z.Z.Z.Z.Z.Z.c.Z.Z.k.k.k.N.C.  n G 7.*.+.@.-.-.-.-.-.-.-.-.-.-.-.-.-.-.-.-.-.-.-.-.",
"Z.Z.Z.Z.Z.Z.Z.Z.Z.Z.V.k.N.k.M.y.* B } =.-.-.+.-.-.-.-.-.-.-.-.-.-.-.-.-.-.-.-.-.-.-.-.",
"Z.Z.Z.Z.Z.Z.Z.Z.Z.Z.V.m.N.Z.B.a 5 ! 6.*.*.-.@.@.-.-.-.-.-.-.-.-.-.-.-.-.-.-.-.-.-.-.-."
};
