/* XPM */
static char *tile1471719244611[] = {
/* columns rows colors chars-per-pixel */
"43 43 152 2 ",
"   c #00031E",
".  c #00091D",
"X  c #07131F",
"o  c #000421",
"O  c #00052A",
"+  c #000C2D",
"@  c #000336",
"#  c #000B33",
"$  c #00043B",
"%  c #0A1835",
"&  c #061638",
"*  c #08243C",
"=  c #202538",
"-  c #252C3F",
";  c #010B42",
":  c #071B46",
">  c #00164A",
",  c #0B1C4A",
"<  c #092240",
"1  c #172846",
"2  c #1D2B43",
"3  c #222D44",
"4  c #2B3141",
"5  c #293448",
"6  c #2A394E",
"7  c #282C52",
"8  c #18246E",
"9  c #132565",
"0  c #173B6F",
"q  c #1A3878",
"w  c #213365",
"e  c #21386A",
"r  c #213975",
"t  c #2C3D71",
"y  c #213F7D",
"u  c #3D4955",
"i  c #2A4079",
"p  c #395177",
"a  c #575F72",
"s  c #5B6171",
"d  c #153A81",
"f  c #1E3F82",
"g  c #1D4082",
"h  c #1F4590",
"j  c #2B4487",
"k  c #314A83",
"l  c #2A4095",
"z  c #3B5A9D",
"x  c #345AAB",
"c  c #4F6283",
"v  c #446391",
"b  c #707789",
"n  c #4B5EA3",
"m  c #4D5FB3",
"M  c #4A66A7",
"N  c #5776A5",
"B  c #5164B0",
"V  c #576FB9",
"C  c #5677BE",
"Z  c #5877BA",
"A  c #507CBD",
"S  c #3F7CED",
"D  c #4C74CB",
"F  c #516AD1",
"G  c #527ED7",
"H  c #627FC5",
"J  c #637ECF",
"K  c #617FD6",
"L  c #4475EE",
"P  c #4D78EB",
"I  c #4C7CE2",
"U  c #557CE3",
"Y  c #467CF0",
"T  c #4D7FF8",
"R  c #5A81CC",
"E  c #5D81D5",
"W  c #5D87DD",
"Q  c #5A88DE",
"!  c #6387C3",
"~  c #6385D4",
"^  c #6C8CD7",
"/  c #6585D8",
"(  c #6389DC",
")  c #6D8CDC",
"_  c #6E94D3",
"`  c #4E87EE",
"'  c #5A85E3",
"]  c #5488E6",
"[  c #5B88E4",
"{  c #5485ED",
"}  c #5886E8",
"|  c #5B89ED",
" . c #4783F5",
".. c #4D83F4",
"X. c #4D8BF4",
"o. c #4286FB",
"O. c #4D83FA",
"+. c #468CFF",
"@. c #4D8AFC",
"#. c #5385F5",
"$. c #5B83F6",
"%. c #5389F5",
"&. c #5A8AF4",
"*. c #5386FE",
"=. c #5A87FB",
"-. c #5188FF",
";. c #5A8DFF",
":. c #4991FF",
">. c #5391FE",
",. c #5B90FF",
"<. c #628CE0",
"1. c #638CEB",
"2. c #7089E6",
"3. c #6490EF",
"4. c #7590EB",
"5. c #638BF3",
"6. c #6589F9",
"7. c #738FFC",
"8. c #629BFF",
"9. c #858C94",
"0. c #8295A4",
"q. c #8996B6",
"w. c #A2AAB5",
"e. c #A5AEBD",
"r. c #9DADC7",
"t. c #C8CDD1",
"y. c #CAD4E0",
"u. c #CBDAFB",
"i. c #DDEAE3",
"p. c #DDE2F8",
"a. c #E4E8E7",
"s. c #EBECE4",
"d. c #EEF3E6",
"f. c #F0F2E4",
"g. c #F3F7E9",
"h. c #F9F6ED",
"j. c #F2F9EA",
"k. c #FDFEED",
"l. c #E7EBF7",
"z. c #EAEEF1",
"x. c #F4EFF6",
"c. c #E4F1F7",
"v. c #EFF4F7",
"b. c #EDF5FB",
"n. c #ECFAFF",
"m. c #F5F6F6",
"M. c #F7FDF1",
"N. c #FDFEF4",
"B. c #F6F4F9",
"V. c #F5FCFE",
"C. c #FEFEFE",
"Z. c #FBF4FB",
/* pixels */
"-.-.-.-.-.-.-.-.-.-.-.-.-.-.*.*.*.%.X.X.%.*.=.*.;.@.#.[ q 5 V.C.C.C.C.C.C.C.C.C.C.C.C.",
"-.-.-.-.-.-.-.-.-.-.-.-.-.-.*.*.*.#.X.X.%.*.*.#.;.-. .1.z o C.C.C.C.C.C.C.C.C.C.C.C.C.",
"-.-.-.-.-.-.-.-.-.-.-.-.-.-.*.*.-.%.X.@.#.*.*.-.-.>.S &.C o b.C.C.C.C.C.C.C.C.C.C.C.C.",
"-.-.-.-.-.-.-.-.-.-.-.-.-.-.-.*.-.@.X.%.*.*.*.#.>.+. .| ~ # w.C.C.C.C.C.C.C.C.C.C.C.C.",
"-.-.-.-.-.-.-.-.-.-.-.-.-.-.*.*.*.%.X.-.-.*.=.#.-.o.-.{ ~ : s V.C.C.C.C.C.C.C.C.C.C.C.",
"-.-.-.-.-.-.-.-.-.-.-.-.-.-.*.*.-.%.@.-.*.*.=.;.X.+.>...( e 3 V.V.C.C.C.C.C.C.C.C.C.C.",
"-.-.-.-.-.-.-.-.-.-.-.-.-.-.*.*.-.%.@.-.-.T =.*.%.+.@.X.1.k % C.C.C.C.C.C.C.C.C.C.C.C.",
"*.-.-.-.-.-.-.-.-.-.-.-.-.-.*.*.-.@.@.@.-.*.=.=.-.+.o.X.3.M O l.C.V.C.C.C.C.C.C.C.C.C.",
"O.-.-.-.-.-.-.-.-.-.-.-.-.-.-.*.*.@.@.-.*.*.=.#.>.:.o.O.| ! @ e.C.m.C.C.C.C.C.C.C.C.C.",
"-.-.-.-.-.-.-.-.-.-.-.-.-.-.-.*.*.@.@.-.*.*.*.%.X.+.+.@.| ^ , s m.C.C.C.C.C.C.C.C.C.C.",
"-.-.-.-.-.-.-.-.-.-.-.-.-.-.-.*.*.@.O.-.T =.*.=.X.+.:.+.{ ) w - m.C.C.C.C.C.V.C.C.C.C.",
"-.-.-.-.-.-.-.-.-.-.-.-.-.-.-.*.*.@.-.=.=.T *.#.X.+.:.+.&./ t = C.C.C.C.C.C.C.C.C.C.C.",
"-.-.-.-.-.-.-.-.-.-.-.-.-.-.-.-.%.@.@.-.-.*.*.*.@.@.@. .&.E i - C.B.V.C.C.C.C.C.C.C.N.",
"-.-.-.-.-.-.-.-.*.-.-.-.-.-.-.-.-.@.@.@.-.-.*.-.-.-.%.&.} W i 3 C.C.Z.C.C.C.N.N.N.N.N.",
"-.-.-.-.-.-.-.O.O.-.-.-.-.-.-.-.-.@.@.-.@.-.@.-.-.*.#.&.] [ g 2 V.C.V.C.V.C.C.M.M.N.N.",
"-.-.-.-.-.-.-.-.-.-.-.-.-.-.-.O.@.@.@.@.@.-.-.-.*.*.#.&.[ [ g 3 C.C.Z.C.C.C.N.C.N.N.C.",
"-.-.-.-.-.-.-.-.-.-.-.-.-.-.-.@.@.@.%.@.@.-.@.-.-.*.#.&.} Q f 3 C.C.Z.C.C.C.C.C.C.C.C.",
"-.-.-.-.-.-.-.-.-.-.-.-.-.-.-.-.-.@.@.@.@.-.-.-.*.*.#.&.} ' f 3 C.C.C.C.C.C.C.C.C.C.C.",
"-.*.-.-.-.-.-.-.-.-.-.-.-.-.-.-.-.-.@.@.@.-.-.-.*.*.#.&.{ ] f 3 Z.C.C.C.C.C.C.C.Z.C.C.",
"-.-.-.-.-.-.-.-.-.-.-.-.-.-.-.-.@.@.-.#.-.-.O.-.-.*.=.&.} [ g - N.C.N.C.C.C.C.Z.C.C.C.",
"-.-.-.-.O.-.-.-.-.-.-.-.-.*.O.-.-.-.@.-.%.@.-.-.-.*.=.#.{ } g 3 C.C.N.N.N.C.C.C.C.C.Z.",
"-.O.-.-.-.-.-.-.-.-.-.-.-.-.-.-.-.-.-.#.%.-.-. .;.O.#.#.&.} d 2 C.M.s.N.N.h.h.C.C.Z.C.",
"-.-.-.-.-.-.-.-.-.-.-.-.-.-.-.-.-.-.-.@.@.@.%.O.;.O.-.{ &.| h 1 V.V.C.f.h.k.N.C.C.C.C.",
"-.-.-.-.-.-.-.-.-.*.-.-.-.-.-.*.-.%.-.%.-.-.O.-.;.-.;.#...&.x # V.m.V.M.g.k.N.N.C.C.C.",
"-.-.-.-.-.-.-.-.-.-.-.-.-.-.-.*.*.*.@.%.%.O.@.-.-.O.;.%.#.&.D $ q.V.b.V.k.k.k.N.C.C.C.",
"-.-.-.-.-.-.-.-.-.-.-.-.-.-.-.*.-.*.-.-.-.%.-.-.-.O.*.=.#.&.[ j @ u.n.V.d.N.k.N.C.C.Z.",
"-.-.-.-.*.-.-.-.-.-.-.-.-.-.-.*.*.*.-.%.%.@.@.*.-.*.*.%.#.#.1.J 9 : V.c.V.j.k.N.N.Z.C.",
"-.-.-.-.O.-.-.-.-.-.-.-.-.-.-.*.*.*.-.%.-.%.%.-.-.*.-.*.#.{ | 4.B ; c V.i.N.g.N.C.C.C.",
"-.-.-.-.-.-.-.-.-.-.-.-.-.-.-.-.*.*.*.-.%.@.@.O.-.;.O.*.=.%.&.' G V @ r.V.j.N.N.C.C.C.",
"-.-.-.-.-.-.-.-.-.-.-.-.-.-.-.-.-.-.-.-.-.-.-.-.-.-.-.-.*.*.%.] ' <.l ; p.C.k.C.a.C.C.",
"-.-.-.-.-.-.-.-.-.-.-.-.-.-.-.-.-.-.-.-.-.-.-.-.-.-.-.-.-.-.@.` %.$.F 8 7 V.d.M.V.V.Z.",
"-.-.-.-.-.-.-.-.-.-.-.-.-.-.-.-.-.-.-.-.-.-.-.-.-.-.-.-.-.-.-.X.` $.7.B @ b C.m.C.V.C.",
"-.-.-.-.-.-.-.-.*.O.-.-.-.-.-.-.-.-.-.-.-.-.-.-.-.-.-.-.-.-.-.X...=.6.2.n O e.V.v.Z.C.",
"-.-.-.-.-.-.-.-.-.-.-.-.-.-.-.-.-.-.-.-.-.-.-.-.-.-.-.-.-.-.-.=.;.;.P 6.K r & y.C.B.x.",
"-.-.-.-.-.-.-.-.-.-.-.-.-.-.-.-.-.-.-.-.-.*.O.-.-.-.-.-.-.-.*.*.,.Y #.$.U / > 6 V.C.Z.",
"*.-.-.-.-.-.-.-.-.-.-.-.-.-.-.-.-.-.-.-.-.-.-.-.-.-.-.-.*.*.*.*.T Y ;.=.%.1.Z . 9.C.C.",
"O.-.-.-.-.-.-.-.-.-.-.-.-.-.-.-.-.-.-.-.-.-.*.-.-.-.-.-.-.-.*.;.L 8.S +.O.&.~ p X Z.Z.",
"-.-.-.-.-.-.-.-.-.-.-.-.-.-.-.-.-.-.-.-.-.-.O.-.-.-.-.-.-.-.*.*.*.X.@.@.@.*.W N . t.C.",
"-.-.-.-.-.-.-.-.-.-.O.-.-.-.-.-.-.-.-.-.-.-.-.-.-.-.-.-.-.-.*.*.=.%.X.+.+.-.} R < u v.",
"-.-.-.-.-.-.-.-.-.-.*.-.-.-.-.-.-.-.-.-.-.-.-.-.-.-.-.-.-.-.*.*.%.X.X.+.@.-.&.J v . n.",
"-.-.-.-.-.-.-.-.-.-.-.-.-.-.-.-.-.-.-.-.-.-.-.-.-.-.-.-.-.-.*.-.%.%.X.@.@.-.#.G _ + 0.",
"-.-.-.-.-.-.-.-.-.-.-.-.-.-.-.-.-.-.-.-.-.-.-.-.-.-.-.-.-.-.-.#.#.%.%.%.-.*.*.{ <.0 * ",
"-.-.-.-.*.O.-.-.-.-.-.-.-.-.-.-.-.-.-.-.-.-.-.-.-.-.-.-.-.-.-.-.-.*.#.&.#.*.*.*.] A + "
};
