/* XPM */
static char *tile1631719244611[] = {
/* columns rows colors chars-per-pixel */
"43 43 212 2 ",
"   c #5188FF",
".  c #5188FD",
"X  c #5586FD",
"o  c #5786FA",
"O  c #5886F5",
"+  c #5386FF",
"@  c #5C91FF",
"#  c #497CF1",
"$  c #5E8DDB",
"%  c #001B44",
"&  c #5089FD",
"*  c #5487FD",
"=  c #5587FA",
"-  c #5787F5",
";  c #5487FA",
":  c #5187FF",
">  c #4A80FF",
",  c #4B81FB",
"<  c #5889E5",
"1  c #275086",
"2  c #5188FC",
"3  c #5388FA",
"4  c #5388F8",
"5  c #5189F8",
"6  c #508AF5",
"7  c #4E8AF8",
"8  c #558DFF",
"9  c #4E82FC",
"0  c #507CE5",
"q  c #567CC5",
"w  c #5189FA",
"e  c #5089FC",
"r  c #4E8AFA",
"t  c #4E8CF3",
"y  c #4D8CF3",
"u  c #457DF4",
"i  c #5488FF",
"p  c #5D88F9",
"a  c #5E82D6",
"s  c #4D8CF5",
"d  c #5890FF",
"f  c #5589FF",
"g  c #5580F3",
"h  c #5F83D7",
"j  c #4E8AFC",
"k  c #4E8BF5",
"l  c #4C84FD",
"z  c #4B7DF8",
"x  c #5E87FB",
"c  c #6587DE",
"v  c #5088FF",
"b  c #4E8BF6",
"n  c #4E80FD",
"m  c #618AFF",
"M  c #688AE1",
"N  c #5A92FF",
"B  c #5587FF",
"V  c #567FF5",
"C  c #6385DC",
"Z  c #427AF5",
"A  c #4F81FE",
"S  c #5A83F9",
"D  c #6282D9",
"F  c #508AF6",
"G  c #598FFF",
"H  c #4F7FFD",
"J  c #547BF0",
"K  c #6080D7",
"L  c #5389FF",
"P  c #4A7AF6",
"I  c #557DEF",
"U  c #708EE4",
"Y  c #5B88FF",
"T  c #597EF1",
"R  c #6584D7",
"E  c #4A7EF6",
"W  c #5F8DFF",
"Q  c #5B80F2",
"!  c #6884D8",
"~  c #508BF3",
"^  c #5480F9",
"/  c #6084F6",
"(  c #6E8ADD",
")  c #508BF1",
"_  c #518AF1",
"`  c #5C90FF",
"'  c #4A77EE",
"]  c #688CFC",
"[  c #5772C3",
"{  c #5089FA",
"}  c #5A8FFF",
"|  c #507DF4",
" . c #6B8FFD",
".. c #223D8C",
"X. c #4E89FD",
"o. c #508AF8",
"O. c #508BEF",
"+. c #518BEF",
"@. c #5489FB",
"#. c #5B88FD",
"$. c #6587F3",
"%. c #001360",
"&. c #518AF5",
"*. c #5185F2",
"=. c #618DF6",
"-. c #5A7DD9",
";. c #000747",
":. c #5089F2",
">. c #5089F0",
",. c #5088F7",
"<. c #5087FC",
"1. c #5285FF",
"2. c #5086FF",
"3. c #5286FE",
"4. c #5387F5",
"5. c #5385E6",
"6. c #5F8CDD",
"7. c #5F85C3",
"8. c #000B32",
"9. c #508AEE",
"0. c #5287F7",
"q. c #5284FF",
"w. c #5387F7",
"e. c #5485E4",
"r. c #5E8DD5",
"t. c #5075A9",
"y. c #000E2F",
"u. c #5089F4",
"i. c #5286FC",
"p. c #5286FF",
"a. c #5A8CEF",
"s. c #5683D4",
"d. c #5B7FBB",
"f. c #000B33",
"g. c #5287F9",
"h. c #5B8CF3",
"j. c #507ED6",
"k. c #7095DC",
"l. c #000C41",
"z. c #4F88FC",
"x. c #5287FB",
"c. c #5386FB",
"v. c #5588F3",
"b. c #5480E3",
"n. c #698FE2",
"m. c #1C397B",
"M. c #4F87FF",
"N. c #598BFC",
"B. c #5581EE",
"V. c #5A80E1",
"C. c #5E7DCD",
"Z. c #4F86FF",
"A. c #5388F2",
"S. c #5388F0",
"D. c #5288F5",
"F. c #5A8DFF",
"G. c #5180F4",
"H. c #5D86F2",
"J. c #7192EF",
"K. c #5087FE",
"L. c #5388EE",
"P. c #5387F4",
"I. c #5080FC",
"U. c #6791FF",
"Y. c #5378E0",
"T. c #5087FF",
"R. c #5389F6",
"E. c #5489F1",
"W. c #5489EF",
"Q. c #5488F5",
"!. c #5487FC",
"~. c #4E7FFF",
"^. c #5381FB",
"/. c #628CFA",
"(. c #5588F1",
"). c #5488F6",
"_. c #4C7FFE",
"`. c #5C8FFF",
"'. c #4875EA",
"]. c #5588F5",
"[. c #5488F8",
"{. c #5387FD",
"}. c #4C82FF",
"|. c #558AFF",
" X c #5588FF",
".X c #4E7FF5",
"XX c #5587F8",
"oX c #5387FF",
"OX c #558BFF",
"+X c #4B82FF",
"@X c #4C84FF",
"#X c #598DFF",
"$X c #5586FC",
"%X c #5486FF",
"&X c #528AFF",
"*X c #508BFF",
"=X c #4B86FC",
"-X c #4881F4",
";X c #5586FF",
":X c #5585FF",
">X c #4B83FC",
",X c #528FFF",
"<X c #4886F7",
"1X c #5189F6",
"2X c #5485FF",
"3X c #4C87FD",
"4X c #4C8AFB",
"5X c #5191FF",
"6X c #5494FF",
"7X c #4886F5",
"8X c #4C8AF9",
"9X c white",
/* pixels */
"                                                              . . X o O O X + @ # $ % ",
"                                                              & . * = O - ; : > , < 1 ",
"                                                              . 2 3 4 3 5 6 7 8 9 0 q ",
"                                                              . w 5 5 e r t y u i p a ",
"                                                              . 2 w w & r t s d f g h ",
"                                                                . w w & j k k l z x c ",
"                                                                  2 2 v j k b v n m M ",
"                                                              :   . . v & k b N B V C ",
"                                                              v v   . v & k b Z A S D ",
"                                                              v v     v & b F G H J K ",
"                                                              v v     v & b F L P I U ",
"                                                              v v   . v & k F , Y T R ",
"                                                              v v & & v & k 6 E W Q ! ",
"                                                              v v & e v e t ~ i ^ / ( ",
"                                                              v v e e v e ) _ ` ' ] [ ",
"                                                              v & e { & { ) _ } |  ...",
"                                                              v X.{ { & o.O.+.@.#.$.%.",
"                                                            . e { { e   & &._ *.=.-.;.",
"                                                            2 :.>.,.<.1.2.3.4.5.6.7.8.",
"                                                            w 9.9.0.3.1.q.1.w.e.r.t.y.",
"                                                            2 u.:.0.i.1.1.p.w.a.s.d.f.",
"                                                            . ,.,.g.i.3.p.3.w.h.j.k.l.",
"                                                              z.<.x.x.c.c.x.w.v.b.n.m.",
"                                                            : M.M.i.g.4.4.0.w.N.B.V.C.",
"                                                            : Z.Z.i.0.A.S.D.g.F.G.H.J.",
"                                                            : Z.Z.K.D.S.L.P.g.q.I.U.Y.",
"                                                            : T.T.  R.E.W.Q.!.+ ~.^./.",
"                                                            v T.T.. R.v.(.).* _.`.B '.",
"                                                            v v v . 4 ].].[.{.}.|. X.X",
"                                                            v v & 2 3 XXXX!.oXOX+X@X#X",
"                                                            & { o.w 3 $XX %XoX&X*X=X-X",
"                                                            e 6 6 5 !.;X:X%X+ >X,X,X<X",
"                                                            { ) O.1X!.:X:X2X+ 3X4X5X6X",
"                                                            2 ~ ~ 5 {.%X:X2X+ d 4X7X8X",
"                                                            . 2 2 .   oXoXoX:   & & & ",
"                                                                                      ",
"                                                                                      ",
"                                                                                      ",
"                                                                                      ",
"                                                                                      ",
"                                                                                      ",
"                                                                                      ",
"                                                                                      "
};
