/* XPM */
static char *tile1641719244610[] = {
/* columns rows colors chars-per-pixel */
"43 43 145 2 ",
"   c #000711",
".  c #000F19",
"X  c #02141E",
"o  c #000524",
"O  c #000D25",
"+  c #00032B",
"@  c #000C2B",
"#  c #001826",
"$  c #000537",
"%  c #000934",
"&  c #00053F",
"*  c #000D38",
"=  c #001134",
"-  c #071B34",
";  c #00133D",
":  c #001D3F",
">  c #021442",
",  c #00124B",
"<  c #061C56",
"1  c #0A2554",
"2  c #1B336F",
"3  c #1D396B",
"4  c #203874",
"5  c #35434E",
"6  c #354751",
"7  c #3D4D5A",
"8  c #3E5259",
"9  c #3A5463",
"0  c #3F536C",
"q  c #3D597C",
"w  c #415175",
"e  c #4D666D",
"r  c #526876",
"t  c #51627C",
"y  c #23448B",
"u  c #2E468E",
"i  c #36538D",
"p  c #415F93",
"a  c #536480",
"s  c #506D8F",
"d  c #47689E",
"f  c #546E91",
"g  c #647396",
"h  c #4867A7",
"j  c #4C6DAC",
"k  c #5472AE",
"l  c #4268B9",
"z  c #506EB6",
"x  c #5073B3",
"c  c #5B72B8",
"v  c #477CEE",
"b  c #557CE7",
"n  c #597FE2",
"m  c #547EEB",
"M  c #477EF3",
"N  c #4375F8",
"B  c #4C7DFB",
"V  c #527EF2",
"C  c #75838E",
"Z  c #72849C",
"A  c #5F84CA",
"S  c #5D82D3",
"D  c #5880DF",
"F  c #6085CB",
"G  c #6682D6",
"H  c #6C87D4",
"J  c #6A8AD7",
"K  c #6086DB",
"L  c #618BDF",
"P  c #6B90DE",
"I  c #4780E7",
"U  c #4B82E5",
"Y  c #5380E5",
"T  c #5A85E4",
"R  c #5482EE",
"E  c #5A86EF",
"W  c #5188EC",
"Q  c #4B84F5",
"!  c #4D85FE",
"~  c #4D89FE",
"^  c #5185F3",
"/  c #538AF4",
"(  c #5C8BF5",
")  c #5285FE",
"_  c #5D87FF",
"`  c #5188FE",
"'  c #5A8DFD",
"]  c #5A91F3",
"[  c #6184E2",
"{  c #698DE5",
"}  c #6384EF",
"|  c #698CE8",
" . c #6992EE",
".. c #7594E6",
"X. c #7294E9",
"o. c #638EF4",
"O. c #6291FF",
"+. c #669EFF",
"@. c #749EFF",
"#. c #A2ADB1",
"$. c #AAB5B7",
"%. c #AAB7BF",
"&. c #98A7C4",
"*. c #9CACC3",
"=. c #B7C4CD",
"-. c #B3C1DC",
";. c #C0CED7",
":. c #CAD4D5",
">. c #C7D9DD",
",. c #CBDADF",
"<. c #EDFCDF",
"1. c #F2F4DF",
"2. c #F2FFDE",
"3. c #C7D2E8",
"4. c #CCD9E9",
"5. c #D0DEF8",
"6. c #D4E2FC",
"7. c #E8EDE6",
"8. c #E5E9EC",
"9. c #F7EBEB",
"0. c #EFF0EB",
"q. c #EEF9E9",
"w. c #F1FEE4",
"e. c #F6F3EF",
"r. c #FBF5ED",
"t. c #F6FFEA",
"y. c #FCFCEE",
"u. c #E8EAF6",
"i. c #ECECF8",
"p. c #F7ECF0",
"a. c #FEEDF5",
"s. c #F8E7FF",
"d. c #FBEBFF",
"f. c #ECF3F3",
"g. c #E3F2FF",
"h. c #EFF2FB",
"j. c #EDFCFF",
"k. c #F5F6F2",
"l. c #FCF5F1",
"z. c #F6FFF3",
"x. c #FEFEF5",
"c. c #F7F3FB",
"v. c #FDF4FD",
"b. c #F5FDFE",
"n. c #FFFFFF",
/* pixels */
"e f.v.v.n.n.n.n.n.n.n.n.n.n.n.n.n.n.n.n.n.n.n.n.n.n.n.n.n.n.n.n.n.n.n.n.n.n.n.n.n.n.n.",
"# b.v.v.n.n.n.n.n.n.n.n.n.n.n.n.n.n.n.n.n.n.n.n.n.n.n.n.n.n.n.n.n.n.n.n.n.n.n.n.n.n.n.",
"o >.n.c.n.n.n.n.n.n.n.n.n.n.n.n.n.n.n.n.n.n.n.n.n.n.n.n.n.n.n.n.n.n.n.n.n.n.n.n.n.n.n.",
": 8 b.n.n.n.n.n.n.n.n.n.n.n.n.n.n.n.n.n.n.n.n.n.n.n.n.n.n.n.n.n.n.n.n.n.n.n.n.n.n.n.n.",
"q X b.b.n.n.n.n.n.n.n.n.n.n.n.n.n.n.n.n.n.n.n.n.n.n.n.n.n.n.n.n.n.n.n.n.n.n.n.n.n.n.n.",
"s   b.n.n.n.n.n.n.n.n.n.n.n.n.n.n.n.n.n.n.n.n.n.n.n.n.n.n.n.n.n.n.n.n.n.n.n.n.n.n.n.n.",
"f   b.n.n.n.n.n.n.n.n.n.n.n.n.n.n.n.n.n.n.n.n.n.n.n.n.n.n.n.n.n.n.n.n.n.n.n.n.n.n.n.n.",
"q . n.v.n.n.n.n.n.n.n.n.n.n.n.n.n.n.n.n.n.n.n.n.n.n.n.n.n.n.n.n.n.n.n.n.n.n.n.n.n.n.n.",
"; 5 h.n.n.n.n.n.n.n.n.n.n.n.n.n.n.n.n.n.n.n.n.n.n.n.n.n.n.n.n.n.n.n.n.n.n.n.n.n.n.n.n.",
"+ ;.n.v.n.n.n.n.n.n.n.n.n.n.n.n.n.n.n.n.n.n.n.n.n.n.n.n.n.n.n.n.n.n.n.n.n.n.n.n.n.n.n.",
"+ =.n.n.n.n.n.n.n.n.n.n.n.n.n.n.n.n.n.n.n.n.n.n.n.n.n.n.n.n.n.n.n.n.n.n.n.n.n.n.n.n.n.",
"+ %.n.v.n.n.n.n.n.n.n.n.n.n.n.n.n.n.n.n.n.n.n.n.n.n.n.n.n.n.n.n.n.n.n.n.n.n.n.n.n.n.n.",
"O #.n.v.n.n.n.n.n.n.n.n.n.n.n.n.n.n.n.n.n.n.n.n.n.n.n.n.n.n.n.n.n.n.n.n.n.n.n.n.n.n.n.",
"@ $.n.n.n.n.n.n.n.n.n.n.n.n.n.n.n.n.n.n.n.n.n.n.n.n.n.n.n.n.n.n.n.n.n.n.n.n.n.n.n.n.n.",
". :.v.v.n.n.n.n.n.n.n.n.n.n.n.n.n.n.n.n.n.n.n.n.n.n.n.n.n.n.n.n.n.n.n.n.n.n.n.n.n.n.n.",
"- f.n.x.n.n.n.n.n.n.n.n.n.n.n.n.n.n.n.n.n.n.n.n.n.n.n.n.n.n.n.n.n.n.n.n.n.n.n.n.n.n.n.",
"t n.v.x.n.n.n.n.n.n.n.n.n.n.n.n.n.n.n.n.n.n.n.n.n.n.n.n.n.n.n.n.n.n.n.n.n.n.n.n.n.n.n.",
"*.n.e.v.n.n.n.n.n.n.n.n.n.n.n.n.n.n.n.n.n.n.n.n.n.n.n.n.n.n.n.n.n.n.n.n.n.n.n.n.n.n.n.",
"4.n.x.l.n.n.n.v.n.n.n.z.z.t.t.z.x.n.v.n.n.n.n.n.n.n.n.n.n.n.n.n.n.n.n.n.n.n.n.n.n.n.n.",
"j.n.9.x.x.n.n.n.n.n.n.b.z.z.z.z.x.n.n.v.n.n.n.n.n.n.n.n.n.n.n.n.n.n.n.n.n.n.n.n.n.n.n.",
"5.u.v.x.x.n.n.n.v.n.n.b.b.z.z.z.n.n.v.n.n.n.n.n.n.n.n.n.n.n.n.n.n.n.n.n.n.n.n.n.n.n.n.",
"g b.v.k.n.x.v.n.n.n.n.n.n.b.b.b.n.n.n.v.n.n.n.n.n.n.n.n.n.n.n.n.n.n.n.n.n.n.n.n.n.n.n.",
"> b.i.n.n.n.n.n.n.n.v.n.b.b.b.n.n.n.v.n.n.n.n.n.n.n.n.n.n.n.n.n.n.n.n.n.n.n.n.n.n.n.n.",
"& g b.n.b.n.n.n.v.v.n.n.n.n.b.b.n.n.n.n.n.n.n.n.n.n.n.n.n.n.n.n.n.n.n.n.n.n.n.n.n.n.n.",
"u $ -.b.b.n.b.n.x.v.n.n.n.v.b.n.n.n.n.n.n.n.n.n.n.n.n.n.n.n.n.n.n.n.n.n.n.n.n.n.n.n.n.",
"..4 + g.b.n.n.x.n.x.n.n.n.n.n.n.n.n.n.n.n.n.n.n.n.n.n.n.n.n.n.n.n.n.n.n.n.n.n.n.n.n.n.",
"| z 3 % j.j.n.0.x.r.x.n.n.b.n.n.n.x.x.x.n.n.n.n.n.n.n.n.n.n.n.n.n.n.n.n.n.n.n.n.n.n.n.",
"T X.j 1 0 b.j.n.e.x.x.r.n.n.n.b.n.x.y.x.n.n.n.n.n.n.n.n.n.n.n.n.n.n.n.n.n.n.n.n.n.n.n.",
"E  .S h % Z b.b.n.x.x.y.x.x.n.b.b.n.x.x.n.n.n.n.n.n.n.n.n.n.n.n.n.n.n.n.n.n.n.n.n.n.n.",
"/ b T P i % &.b.n.l.y.y.x.n.b.n.b.x.x.x.n.n.n.n.n.n.n.n.n.n.n.n.n.n.n.n.n.n.n.n.n.n.n.",
"^ ' ( n J 2 * 6.b.b.y.y.x.n.n.n.n.b.n.n.n.n.n.n.n.n.n.n.n.n.n.n.n.n.n.n.n.n.n.n.n.n.n.",
"Q ' ' m [ H , w b.n.x.y.x.n.n.n.b.n.n.n.n.n.n.n.n.n.n.n.n.n.n.n.n.n.n.n.n.n.n.n.n.n.n.",
"~ Q ! ' b ..c + 4.v.n.x.x.n.n.x.n.n.v.n.n.n.n.n.n.n.n.n.n.n.n.n.n.n.n.n.n.n.n.n.n.n.n.",
"' ~ ) ) V m n < a v.7.x.n.n.v.v.n.n.n.b.n.n.n.n.n.n.n.n.n.n.n.n.n.n.n.n.n.n.n.n.n.n.n.",
"` ` ) ) ) O.T y @ b.t.1.x.v.d.v.v.8.t.w.x.n.n.n.n.n.n.n.n.n.n.n.n.n.n.n.n.n.n.n.n.n.n.",
"` ` ` ! B B @.l ; 9 b.y.r.a.v.d.v.n.w.2.z.n.n.n.n.n.n.n.n.n.n.n.n.n.n.n.n.n.n.n.n.n.n.",
"` ` ` ) ` ) R T x = 6 f.n.p.v.d.v.n.w.t.n.n.n.n.n.n.n.n.n.n.n.n.n.n.n.n.n.n.n.n.n.n.n.",
"` ` ` ` ' ^ R o.K j = 7 f.n.v.v.c.n.z.z.n.n.n.n.n.n.n.n.n.n.n.n.n.n.n.n.n.n.n.n.n.n.n.",
") ` ` ` U ] ' R b { k o C b.z.n.l.n.n.n.n.n.n.n.n.n.n.n.n.n.n.n.n.n.n.n.n.n.n.n.n.n.n.",
"~ ` ` / U +.v B O.m S p O ,.n.e.n.n.c.n.n.n.n.n.n.n.n.n.n.n.n.n.n.n.n.n.n.n.n.n.n.n.n.",
"` ` ! / ] W ` ' N O.T A ; r b.k.n.n.c.n.n.n.n.n.n.n.n.n.n.n.n.n.n.n.n.n.n.n.n.n.n.n.n.",
"` ` ` / ] I ` ! ! ` R T d o j.n.c.x.v.v.n.n.n.n.n.n.n.n.n.n.n.n.n.n.n.n.n.n.n.n.n.n.n.",
"` ` ~ ~ / / ~ ~ ~ ! / T A ; Z b.b.r.n.v.n.n.n.n.n.n.n.n.n.n.n.n.n.n.n.n.n.n.n.n.n.n.n."
};
