/* XPM */
static char *tile1861719244610[] = {
/* columns rows colors chars-per-pixel */
"43 43 169 2 ",
"   c #00000C",
".  c #0C0D11",
"X  c #000025",
"o  c #000B26",
"O  c #00072F",
"+  c #000C2B",
"@  c #051026",
"#  c #111924",
"$  c #000533",
"%  c #000C32",
"&  c #010B38",
"*  c #021236",
"=  c #001935",
"-  c #00143E",
";  c #0D173A",
":  c #181E37",
">  c #38393D",
",  c #000B42",
"<  c #041441",
"1  c #071A44",
"2  c #001E5C",
"3  c #061C55",
"4  c #032646",
"5  c #112945",
"6  c #092056",
"7  c #0C2659",
"8  c #1A2C5A",
"9  c #0F315F",
"0  c #103258",
"q  c #21374C",
"w  c #212E50",
"e  c #2E3D5A",
"r  c #0F3268",
"t  c #153568",
"y  c #1D3176",
"u  c #293C67",
"i  c #2E4859",
"p  c #3A465C",
"a  c #374562",
"s  c #334577",
"d  c #435B5D",
"f  c #464F6E",
"g  c #415A61",
"h  c #4B5861",
"j  c #4E546A",
"k  c #56596C",
"l  c #485778",
"z  c #2A4982",
"x  c #3B568D",
"c  c #384F95",
"v  c #355898",
"b  c #2852A4",
"n  c #415995",
"m  c #445D9F",
"M  c #495F9B",
"N  c #496191",
"B  c #63718B",
"V  c #797E92",
"C  c #70788F",
"Z  c #4C6EAE",
"A  c #5466A8",
"S  c #536CA4",
"D  c #5E74AE",
"F  c #4E70B0",
"G  c #597DB7",
"H  c #5778C5",
"J  c #5E78C5",
"K  c #587DCB",
"L  c #4F7BD2",
"P  c #4F7DDD",
"I  c #527FD4",
"U  c #547CDD",
"Y  c #597DD3",
"T  c #6072C4",
"R  c #647ACD",
"E  c #6D7ED6",
"W  c #516BE4",
"Q  c #4B7BEA",
"!  c #547EEB",
"~  c #4B7DFC",
"^  c #567BF3",
"/  c #527DFF",
"(  c #647DE2",
")  c #778D8A",
"_  c #5580C4",
"`  c #5D84C7",
"'  c #5A84CC",
"]  c #5C86D0",
"[  c #5582DC",
"{  c #5A86DB",
"}  c #5A8ADF",
"|  c #6280C0",
" . c #6D89CB",
".. c #6384D2",
"X. c #648AD2",
"o. c #6A88D0",
"O. c #6185DE",
"+. c #6881DB",
"@. c #6A8EDC",
"#. c #7A8CD6",
"$. c #6C90DA",
"%. c #4284ED",
"&. c #4A83EE",
"*. c #5385E3",
"=. c #5A87E4",
"-. c #5586EB",
";. c #548AED",
":. c #5C88EB",
">. c #4483F4",
",. c #4B85F4",
"<. c #4D8AF4",
"1. c #4E84FE",
"2. c #468AFF",
"3. c #4D8AFE",
"4. c #5486F4",
"5. c #5289F4",
"6. c #5B8AF4",
"7. c #5387FE",
"8. c #5E85FF",
"9. c #5188FE",
"0. c #5B8EFE",
"q. c #5190F7",
"w. c #5591FD",
"e. c #5D94FE",
"r. c #628FE0",
"t. c #688EE3",
"y. c #618DEA",
"u. c #7184E0",
"i. c #708FEA",
"p. c #6691E0",
"a. c #6C97E5",
"s. c #628BFE",
"d. c #6788F7",
"f. c #718BF9",
"g. c #6195FF",
"h. c #6D94F3",
"j. c #7591F2",
"k. c #8389A3",
"l. c #8C96A0",
"z. c #8A9EA5",
"x. c #A1ACC0",
"c. c #AAAFC2",
"v. c #BBC8D9",
"b. c #BDC3D9",
"n. c #CFDFDC",
"m. c #D6D7DB",
"M. c #DDDFEB",
"N. c #DAE4EE",
"B. c #D2E0FA",
"V. c #DFE6FF",
"C. c #E6E6EE",
"Z. c #EAEAEA",
"A. c #F3F9EF",
"S. c #ECECF1",
"D. c #E6EDFF",
"F. c #E9EFFE",
"G. c #E2E9F3",
"H. c #F0EFF7",
"J. c #EBF5F7",
"K. c #EEF8F7",
"L. c #EDF9FF",
"P. c #F4F4F4",
"I. c #F9F7F5",
"U. c #F5F8F6",
"Y. c #FEFDF5",
"T. c #F3F4FC",
"R. c #FCF7FD",
"E. c #F5FDFE",
"W. c #FEFFFF",
/* pixels */
"W.W.W.W.W.W.W.W.W.W.W.W.W.W.W.W.W.W.W.W.E.W.W.W.W.W.Y.A.E.z.- H s./ 7.7.9.9.9.9.9.9.7.",
"W.W.W.W.W.W.W.W.W.W.W.W.W.W.W.W.W.W.W.W.W.W.W.W.W.Y.W.U.E.q t p.s.~ 7.9.9.9.9.9.9.5.3.",
"W.W.W.W.W.W.W.W.W.W.W.W.W.W.W.W.W.W.W.W.W.W.W.W.Y.W.W.E.v.% F [ 9.9.9.9.9.9.9.9.3.7.7.",
"W.W.W.W.W.W.W.W.W.W.W.W.W.W.W.W.W.W.E.W.W.E.W.W.W.Y.P.W.l 3 @.P 9.9.9.9.9.7.5.1.7.9.9.",
"W.W.W.W.W.W.W.W.W.W.W.W.W.W.W.W.W.W.W.Y.W.W.W.Y.Y.Y.W.D.& c r.6.<.>.3.9.9.9.9.9.9.5.9.",
"W.W.W.W.W.W.W.W.W.W.W.W.W.W.W.W.W.W.Y.E.W.E.W.Y.Y.Y.W.k., R U s.<.%.3.9.9.9.9.9.7.9.7.",
"W.W.W.W.W.W.W.W.W.W.W.W.W.W.W.W.W.W.Y.W.W.W.E.E.Y.Y.E.; y i.! 4.q.q.1.9.9.9.9.9.3.7.7.",
"W.W.W.W.W.W.W.W.W.W.W.W.W.W.W.W.W.W.Y.Y.E.J.E.W.I.W.b.$ K -.,.w.&.&.9.9.9.9.9.1.9.9.3.",
"W.W.W.W.W.W.W.W.W.W.W.W.W.W.W.W.W.W.W.Y.W.E.E.W.W.W.f 6 [ q.>.w.4.0.7.9.7.9.9.9.9.9.9.",
"W.W.W.W.W.W.W.W.W.W.W.W.W.W.W.W.W.W.Y.I.E.E.L.E.W.M.X x { e.3.2.4.0.7.9.9.9.9.9.9.9.9.",
"W.W.W.W.W.W.W.W.W.W.W.W.W.W.W.W.W.W.Y.Y.K.E.L.E.E.V &  .=.w.3.3.7.6.7.9.9.9.9.9.9.9.9.",
"W.W.W.W.W.W.W.W.W.W.W.W.W.W.W.W.W.W.Y.W.W.E.E.W.F.: s  .*.,.3.3.7.7.7.9.9.9.9.9.9.9.9.",
"W.W.W.W.W.W.W.W.W.W.W.W.W.W.W.W.W.Y.I.W.E.E.E.E.x.X D ..6.9.3.1.7.7.7.9.1.9.9.9.1.9.9.",
"W.W.W.W.W.W.W.W.W.W.W.W.W.W.W.W.W.W.I.Y.U.L.L.E.a 8  .O.6.0.1.1.7.9.9.9.9.9.9.9.9.9.9.",
"W.W.W.W.W.W.W.W.W.W.W.W.W.W.W.W.W.W.W.W.U.W.L.L.X S ..y.Q 9.1.9.9.7.9.9.9.9.9.9.9.9.9.",
"W.W.W.W.W.W.W.W.W.W.W.W.W.W.W.W.W.W.I.W.P.W.W.B < | { :.7.9.9.9.7.7.9.9.9.9.9.9.9.9.9.",
"W.W.W.W.W.W.W.W.W.W.W.W.W.W.W.W.W.W.W.W.W.R.E.e 7 X.=.4.7.7.9.9.9.9.9.9.9.9.9.9.9.9.9.",
"W.W.W.W.W.W.W.W.W.W.W.W.W.W.W.W.W.W.W.E.W.W.W.O z p.;.9.9.9.7.7.9.9.9.9.9.9.9.9.9.9.9.",
"W.W.W.W.W.W.W.W.W.W.W.W.W.W.W.W.W.W.W.E.W.W.F.X F } <.3.7.7.7.4.9.3.9.9.9.1.9.9.9.9.9.",
"W.W.W.W.W.W.W.W.W.W.W.W.W.W.W.W.W.W.T.W.I.W.c.O ` *.<.3.1.8.4.4.5.3.3.9.9.9.9.9.9.9.9.",
"W.W.W.W.W.W.W.W.W.W.W.W.W.W.W.W.W.W.T.W.W.W.k 1 ] ;.2.3.1.7.4.4.<.3.9.9.9.9.9.9.9.9.9.",
"W.W.W.W.W.W.W.W.W.W.W.W.W.W.W.W.W.W.E.W.W.W.: u ] ;.2.2.1.7.6.;.5.<.9.9.9.9.9.9.9.1.9.",
"W.W.W.W.W.W.W.W.W.W.W.W.W.W.W.W.W.W.W.T.Y.R.@ N } 5.3.2.9.9.4.4.5.<.9.9.9.9.9.9.9.9.9.",
"W.W.W.W.W.W.W.W.W.W.W.W.W.W.W.W.W.W.R.W.W.n.o G :.,.3.3.5.5.7.7.7.3.9.9.9.1.9.9.9.9.9.",
"W.W.W.W.W.W.W.W.W.W.W.W.W.W.W.W.W.W.R.S.E.) = ` 6.7.9.1.5.9.9.7.7.3.7.9.9.9.9.9.9.9.9.",
"W.W.W.W.W.W.W.W.W.W.W.W.W.W.W.W.W.W.R.H.E.d 4 _ 6.7.9.9.9.9.9.9.7.1.9.9.9.9.9.9.9.9.9.",
"W.W.W.W.W.W.W.W.W.W.W.W.W.W.W.W.W.W.R.W.U.d 0 ' 6.7.7.1.5.7.9.9.9.7.9.7.9.9.1.9.9.9.9.",
"W.W.W.W.W.W.W.W.W.W.W.W.W.W.W.W.W.W.W.E.L.i r a.4.~ 9.9.1.7.9.9.9.9.9.9.9.9.9.9.7.9.9.",
"W.W.W.W.W.W.W.W.W.W.W.W.W.W.W.W.W.W.W.T.E.5 r r.-.1.9.3.9.5.9.9.9.9.9.9.9.9.9.9.1.9.9.",
"W.W.W.W.W.W.W.W.W.W.W.W.W.W.W.W.W.W.R.W.B.< v L 4.9.9.9.5.9.7.7.7.7.9.9.9.9.1.9.9.9.9.",
"W.W.W.W.W.W.W.W.W.W.W.W.W.W.W.W.W.W.R.E.C , $.[ e.,.3.9.5.9.7.7.7.9.9.9.9.9.9.9.9.9.9.",
"W.W.W.W.W.W.W.W.W.W.W.U.W.Z.W.I.P.m.C V.< m Y =.7.w.3.3.9.9.7.7.7.7.9.9.9.9.9.9.9.9.9.",
"W.W.W.W.W.W.W.W.W.W.E.I.W.W.S.W.W..   o , J h.6.9.%.3.3.9.9.5.7.7.7.9.9.9.9.9.9.9.9.9.",
"W.W.W.W.W.W.W.W.W.W.R.W.P.W.I.P.W.>   + A E d.4.&.w.3.3.3.9.4.7.7.7.9.9.9.9.9.9.9.9.9.",
"W.W.W.W.W.W.W.W.W.W.W.R.P.P.W.P.W.K.# w #.( ! 7.,.w.3.3.9.5.5.7.7.7.7.9.9.9.9.9.7.9.9.",
"W.W.W.W.W.W.W.W.W.W.W.P.W.W.W.I.R.W.l.X J f.^ / w.%.2.3.9.9.7.7.7.7.7.9.9.9.9.9.1.9.9.",
"W.W.W.W.W.W.W.W.W.W.I.W.W.W.W.P.W.S.N.X E d.8.1.9.q.3.3.3.9.5.6.7.7.7.9.9.9.9.9.9.9.9.",
"W.W.W.W.W.W.W.W.W.W.U.W.P.P.W.R.W.W.h & u.W s.8.<.w.<.3.3.9.5.5.7.7.7.9.9.9.9.9.1.9.9.",
"W.W.W.W.W.W.W.W.W.W.W.W.R.R.E.W.W.G.o x j.^ 7.7.<.<.2.3.9.9.5.7.7.8.7.9.9.9.9.9.9.9.9.",
"W.W.W.W.Y.W.E.Y.W.E.T.W.J.W.R.W.W.p 2 [ 6.4.0.,.<.3.9.9.9.9.9.7.7.7.7.9.9.9.9.9.9.9.9.",
"W.W.R.W.W.Y.E.Y.E.E.W.W.T.W.W.H.M.- b 0.<.,.5.,.5.9.1.5.9.9.9.9.1.9.9.9.1.7.9.9.9.9.9.",
"W.W.R.Y.Y.W.Y.E.E.W.R.T.E.W.C.R.j < { e.&.5.e.&.w.5.9.7.9.9.9.9.9.9.9.9.9.9.9.9.9.9.9.",
"W.W.W.W.Y.W.E.W.W.W.W.W.W.W.T.D.X N y.5.&.5.5.9.9.<.7.1.9.7.9.9.9.9.9.9.9.9.9.9.9.9.9."
};
