/* XPM */
static char *tile1951719244609[] = {
/* columns rows colors chars-per-pixel */
"43 43 154 2 ",
"   c #000717",
".  c #00151D",
"X  c #000523",
"o  c #000D24",
"O  c #000429",
"+  c #080F2C",
"@  c #000532",
"#  c #000D34",
"$  c #000139",
"%  c #000E3A",
"&  c #001334",
"*  c #041A31",
"=  c #00163E",
"-  c #031D38",
";  c #002238",
":  c #000D46",
">  c #001546",
",  c #011F43",
"<  c #00174D",
"1  c #192C4C",
"2  c #203342",
"3  c #293A4C",
"4  c #2D3854",
"5  c #152E63",
"6  c #1C4573",
"7  c #2C4B77",
"8  c #53706E",
"9  c #1D3B84",
"0  c #335481",
"q  c #3D5384",
"w  c #35528C",
"e  c #3A548D",
"r  c #304D9B",
"t  c #365293",
"y  c #3F5992",
"u  c #395A9D",
"i  c #526687",
"p  c #636D88",
"a  c #767B8F",
"s  c #627498",
"d  c #7D7E92",
"f  c #4466A5",
"g  c #496CA4",
"h  c #4F6FAA",
"j  c #5378AF",
"k  c #4575B5",
"l  c #5471B3",
"z  c #5575BB",
"x  c #4A78C3",
"c  c #5F7BCE",
"v  c #4478DD",
"b  c #5576D7",
"n  c #587DD8",
"m  c #447EEB",
"M  c #5979E0",
"N  c #557EEA",
"B  c #417FF5",
"V  c #4B7DFC",
"C  c #537CF5",
"Z  c #507DFA",
"A  c #6B8691",
"S  c #7F8B99",
"D  c #7F92B3",
"F  c #5980C1",
"G  c #5A87C8",
"H  c #4D82DB",
"J  c #5383D7",
"K  c #5D89D4",
"L  c #5484D9",
"P  c #5C83DD",
"I  c #5D8BD9",
"U  c #6484C2",
"Y  c #6283CE",
"T  c #6C8CD7",
"R  c #6385DA",
"E  c #668ADC",
"W  c #6A8ED8",
"Q  c #6D91DB",
"!  c #4F84E4",
"~  c #4982EB",
"^  c #4E8BEC",
"/  c #5380E7",
"(  c #5B82E5",
")  c #5B89E7",
"_  c #5780EC",
"`  c #5C86EA",
"'  c #508AEC",
"]  c #4684F3",
"[  c #4D85F4",
"{  c #4E8AF3",
"}  c #4483FC",
"|  c #4D85FD",
" . c #4D89FE",
".. c #5285F4",
"X. c #5C84F4",
"o. c #5289F4",
"O. c #5C8BF3",
"+. c #5386FE",
"@. c #5A84FD",
"#. c #5188FF",
"$. c #5C8BFE",
"%. c #5C92F6",
"&. c #5391FF",
"*. c #5993FE",
"=. c #6285E1",
"-. c #6B8DE2",
";. c #6183EE",
":. c #648CEC",
">. c #6888ED",
",. c #6093E6",
"<. c #6B92E1",
"1. c #6291EB",
"2. c #6187F6",
"3. c #638CF5",
"4. c #6084FC",
"5. c #618BFF",
"6. c #6A8DFF",
"7. c #659BFD",
"8. c #8194A3",
"9. c #A3B3C3",
"0. c #A3BBD5",
"q. c #F2E8DF",
"w. c #C9D5EB",
"e. c #D7EBF6",
"r. c #DEEEFC",
"t. c #E7EEE7",
"y. c #EFEFE3",
"u. c #E6E3EE",
"i. c #FBE6EB",
"p. c #FBE8EA",
"a. c #EFF1E6",
"s. c #EBF3E8",
"d. c #ECFCED",
"f. c #F5F6EB",
"g. c #FCF3ED",
"h. c #F5FDEC",
"j. c #F9FFEB",
"k. c #E5EAF0",
"l. c #F3EBF2",
"z. c #F9EAF4",
"x. c #E5F5F5",
"c. c #ECF2F4",
"v. c #EBFFF6",
"b. c #E7F6FF",
"n. c #ECF7FF",
"m. c #E7F8FF",
"M. c #EAFDFF",
"N. c #FDF6F4",
"B. c #F5FCF4",
"V. c #FEFCF6",
"C. c #F6F6F8",
"Z. c #FEF4FD",
"A. c #F4FEFE",
"S. c #FDFDFD",
/* pixels */
"#.#.#.#.#.#.#.#.#.#.#.#.#.#.#.#.#.#.#.#.#.#.#.#.#.#.#.#.#.#.#.+.+.+.+.#.#.#.#.+.#.+.#.",
"#.#.#.#.#.#.#.#.#.#.#.#.#.#.#.#.#.#.#.#.#.#.#.#.#.#.#.#.#.#.#.+.+.+.+.+.#.#.#.#.#.#.#.",
"#.#.#.#.#.#.#.#.#.#.| #.#.#.#.#.#.#.#.#.#.#.#.#.#.#.| #.#.#.#.#.+.+.$.+.+.#.#. . . .#.",
"#.#.#.#.#.#.#.#.#.#.#.#.#.#.#.#.#.#.#.#.#.#.#.#.#.#.#.#.#.#.#.#.#.+.+.+.+.o.#.{  . .#.",
"#.#.#.| #.#.#.#.#.#.#.#.#.#.#.#.#.#.#.#.#.#.#.#.#.#.#.#.#.#.#.+.#.#.+.+...#. . .}  .*.",
"#.#.#.#.#.#.#.#.#.#.#.#.#.#.#.#.#.#.#.#.| +.#.#.#.#.#.#.#.#.#.| #.+.+.+.+.#.#. . .&.m ",
"#.#.#.#.#.#.#.#.#.#.#.#.#.#.#.#.#.#.#.#.#.#.#.#.#.#.#.#.#.#.#.| | +.+.+.O.#.#. . .] o.",
"#.#.#.#.#.#.#.#.#.#.#.#.#.#.#.#.#.#.#.#.#.#.#.#.#.#.#.#.#.#.| | | #.X.+.X.#. . .] ] 7.",
"#.#.#.#.#.#.| #.#.#.#.#.+.| #.#.#.#.#.#.#.#.#.#.#.#.#.#.#.#.|  . . .+.X.+.+.#.| B &.H ",
"#.#.#.#.#.#.#.#.#.#.#.#.#.#.#.#.#.#.#.#.#.#.#.#.#.#.#.#.#.#.|  . .#.+.@.@.+.#. . .o.L ",
"#.#.#.#.#.#.#.#.#.#.#.#.#.#.#.#.#.#.#.#.#.#.#.#.#.#.#.#.#.#.#. . .#.#.X.@.+.#.|  .~ ,.",
"#.#.#.#.#.#.#.#.#.#.#.#.#.#.#.#.#.#.#.#.#.#.#.#.#.#.#.#.#.#. . .{ #...@.@.#.+.} } *.J ",
"#.#.#.#.#.#.#.#.#.#.#.#.#.#.#.#.#.#.#.#.#.#.#. .#.#.#.#.#.#. .} &.#.o...+. .} &.} #.J ",
"#.#.#.#.#.#.#.#.#.#.#.#.#.#.#.#.#.#.#.#.#.#.#.#.#.#.#.#.#.#.#.#. .o.{ o.#. .&.} *.v Q ",
"#.#.#.#.#.#.#.#.#.#.#.#.#.#.#.#.#.#.#.#.#.#.#.#.#.#.#.#.#.#.#.&.{  .#.#.#.#.#.~ ! I U ",
"#.#.#.#.#.#.#.#.#.#.#.#.#.#.#.#.#.#.#.#.#.#.#.#.#.#.#.#.#.#.#.o.{ { #.+.#.[ ..) K g = ",
"#.#.#.#.#.#.#.#.#.#.#.#.#.#.#.#.#.#.#.#.#.#.#.#.#.#.#.#.#.#.#.^ ^ #.#.#.+.+.) W w O 3 ",
"#.#.#.#.#.#.#.#.#.#.#.#.#.#.#.#.#.#.#.#.#.#.#.#.#.#.#.#.#.#.#.[ o.#. .} +.3.R e X S A.",
"#.#.#.#.#.#.#.#.#.#.#.#.#.#.#.#.#.#.#.#.#.#.#.#.#.#.#.#.#.#.#...o.#.] #.O.P l # a S.V.",
"#.#.#.#.#.#.#.#.#.#.| #.#.#.#.#.#.#.#.#.#.#.#.#.#.#.#.#.#.#.#...+.#.[ o.1.z q + S.V.q.",
"#.#.#.#.#.#.#.#.#.#.#.#.#.#.#.#.#.#.#.#.#.#.#.#.#.#.#.#.#.#.#.$.+...%.L G $ o d z.S.g.",
"#.#.#.#.| +.#.#.#.#.#.#.#.#.#.#.#.#.#.#.#.#.#.#.#.#.#.#.#.#.#.V +...1.k # -   u.Z.i.p.",
"#.#.#.#.#.#.#.#.#.#.#.#.#.#.#.#.#. .#.#.#.#.#.#.#.#.#.#.#.#.+.Z $.N x 6 ; e.A.S.S.z.Z.",
"#.#.#.#.#.#.#.#.#.#.#.#.#.#.#.#.#.#.#.#.#.#.#.#.#.#.#.#.#.#.+.V $.1.F & A A.A.l.Z.Z.Z.",
"#.#.#.#.#.#.#.#.#.#.#.#.#.#.#.#.#.#.#.#.#.#.#.#.#.#.#.#.#.#.+.+...P h X b.S.f.V.Z.S.Z.",
"#.#.#.#.#.#.#.#.#.#.#.#.#.#.#.#.#.#.#.#.#.#.#.#.#.#.#.#.#.#.+.V X.R y * A.V.a.S.C.S.A.",
"#.| #.#.#.#.#.#.#.#.#.| #.#.#.#.#.#.#.#.#.#.#.#.#.#.#.#.#.#.+...3.E 5 4 k.S.V.B.c.A.S.",
"#.#.#.#.#.#.#.#.#.#.#.+.#.#.#.#.#.#.#.#.#.| #.#.#.#.#.#.+.+.+...( Y > p S.V.a.V.S.S.c.",
"#.#.#.#.#.#.#.#.#.#.#.#.#.#.#.+.#.+.| | | |  .#.| #.*.+.O.O...X.n z % w.S.V.j.V.S.S.A.",
"#.#.#.#.#.#.#.#.#.#.#.#.#.#.#.+.#.+.+.#. .}  . . .#.o.....+.X.( R t % n.A.f.V.V.S.S.S.",
"#.#.#.#.#.#.#.#.#.#.#.#.#.#.#.+.+.#.| |  . . .} &.#.V +.$.@.X.P T $ s A.S.f.V.V.S.S.S.",
"#.#.| +.#.#.#.#.#.#.#.#.#.#.+.+.+.#.#.{ { { { { #.| | $.5.+._ -.t @ b.A.S.V.g.S.S.S.S.",
"#.#.#.#.#.#.#.#.#.#.#.#.#.#.+.+.+.+.o.' ^ ^ { #.#.| +.+.+.C M z @ 8.A.A.S.V.N.S.S.S.S.",
"#.#.#.#.#.#.#.#.#.#.#.#.#.#.+.Z +.+.' ' ' ^ ^ ..#.$.$.C X.2.-.5 1 b.A.S.N.V.S.V.S.S.S.",
"#.#.#.#.#.#.#.#.#.#.#.#.#.#.+.#.+.+.o.' ' ' o.#.Z 5.5.N :.E f # 9.A.S.V.N.V.V.S.S.S.S.",
"#.#.#.#.#.#.#.#.#.#.#.#.#.#.+.+.+.....o.' ..#.$.Z @.X.n Q j , 2 A.A.S.V.S.N.N.S.S.S.A.",
"#.#.#.#.#.#.#.#.#.#.#.#.#.#.+.+.$.+.O...+.+.@.Z @.2.=.u 0 o . x.c.V.S.V.N.V.Z.S.S.S.A.",
"#.#.#.#.#.#.| #.#.#.#.#.#.#.#.+.+.+.#.#.+.@.@.C 2.b 9 > * 8 v.v.B.S.S.V.N.V.S.S.S.S.S.",
"#.#.#.#.#.#.#.#.#.#.#.#.#.#.#.+.+.+.+.Z Z @.@.6.>.r < 0.M.d.d.h.V.V.S.V.N.Z.S.S.S.S.S.",
"#.#.#.#.#.#.#.#.#.#.#.#.#.#.+.o...+.+.+.@.4.4.M c : i r.A.h.j.j.V.S.V.V.S.S.S.S.S.A.S.",
"#. .#.#.#.#.#.#.#.#.#.#.#.#.#.o.+.+.#.Z @.@.;.T w # M.A.s.j.V.V.S.S.S.S.S.S.S.V.S.S.A.",
"#.#.#.#.#.#.#.#.#.#.#.#.#.#.#.o.o.+.+.+.4.C =.U O 8.A.t.S.V.S.S.S.S.S.S.S.S.S.A.S.B.S.",
"#.#.#.#.#.#.#.#.#.#.#.#.#.#.#.o.o.+.+.+.@.M Y 7 . A.d.V.S.z.Z.S.A.S.S.S.S.S.S.V.B.B.V."
};
