/* XPM */
static char *tile2101719244609[] = {
/* columns rows colors chars-per-pixel */
"43 43 177 2 ",
"   c #5188FF",
".  c #5089FD",
"X  c #5088FF",
"o  c #5387FF",
"O  c #5188FD",
"+  c #4C8CFA",
"@  c #4E89FD",
"#  c #5187FF",
"$  c #5486FF",
"%  c #5585FF",
"&  c #5784FF",
"*  c #5387FD",
"=  c #5089FC",
"-  c #5089FA",
";  c #5189FA",
":  c #5188FC",
">  c #5388FC",
",  c #4A8CFA",
"<  c #498DFA",
"1  c #4D8AFD",
"2  c #5783FF",
"3  c #5883FF",
"4  c #4E8AFA",
"5  c #5388FA",
"6  c #4A8CFC",
"7  c #4E8AFC",
"8  c #4D8BFC",
"9  c #508AF6",
"0  c #4C8BFD",
"q  c #4A8CFD",
"w  c #4E89FF",
"e  c #4D8CF6",
"r  c #4C8BFF",
"t  c #4D8AFF",
"y  c #4C8AFF",
"u  c #4D89FF",
"i  c #4E88FF",
"p  c #5087FF",
"a  c #4D8BFA",
"s  c #5487FD",
"d  c #5487FC",
"f  c #5386FF",
"g  c #4A8AFF",
"h  c #5586FF",
"j  c #4F86FF",
"k  c #5487FA",
"l  c #5087FB",
"z  c #4D88FC",
"x  c #518DFF",
"c  c #4684FD",
"v  c #4F8DFF",
"b  c #4D85FC",
"n  c #598CFF",
"m  c #5B8BFA",
"M  c #4C76E6",
"N  c #5C84F5",
"B  c #4F87FF",
"V  c #5388F8",
"C  c #4B87FF",
"Z  c #4D88FE",
"A  c #5E8FF8",
"S  c #4F7BDE",
"D  c #739AF9",
"F  c #5A7BD8",
"G  c #4C88FF",
"H  c #5490FF",
"J  c #4B86FE",
"K  c #5289FD",
"L  c #5D8EF7",
"P  c #5B87E6",
"I  c #5A80D5",
"U  c #5577C1",
"Y  c #718DCE",
"T  c #5087FE",
"R  c #5189F8",
"E  c #5087FC",
"W  c #4D88FF",
"Q  c #508CFF",
"!  c #528EFF",
"~  c #4D85FE",
"^  c #578BF9",
"/  c #5E8CEC",
"(  c #557ED0",
")  c #5E80C7",
"_  c #00144C",
"`  c #2C436D",
"'  c #5389F6",
"]  c #4B85FF",
"[  c #4D84FB",
"{  c #5A8AF6",
"}  c #5783DA",
"|  c #6287CD",
" . c #2F4E84",
".. c #000429",
"X. c #000C22",
"o. c #5086FF",
"O. c #4D86FF",
"+. c #4C83FF",
"@. c #6090F6",
"#. c #5982D2",
"$. c #6D8FCC",
"%. c #001139",
"&. c #596F86",
"*. c #E7F8FF",
"=. c #5389FF",
"-. c #4F84FF",
";. c #5788FE",
":. c #628EF1",
">. c #5F85D0",
",. c #4A6A9D",
"<. c #00102F",
"1. c #CCDFED",
"2. c #F5FFFF",
"3. c #558CFF",
"4. c #4A80FC",
"5. c #5284F7",
"6. c #5B85E7",
"7. c #6181CA",
"8. c #122D5C",
"9. c #23354D",
"0. c #F3FFFF",
"q. c #EDF6F5",
"w. c #4782F6",
"e. c #5891FF",
"r. c #4B7DEC",
"t. c #6088EA",
"y. c #6682CB",
"u. c #00002E",
"i. c #C3CCDD",
"p. c #F8FCFD",
"a. c #FEFFFF",
"s. c #4E8BF6",
"d. c #528CFA",
"f. c #4F81F0",
"g. c #5D85E7",
"h. c #526AB4",
"j. c #00022F",
"k. c #E6E9F8",
"l. c #FFFFFD",
"z. c white",
"x. c #518DFD",
"c. c #4A84F2",
"v. c #5587F6",
"b. c #3E56A0",
"n. c #000734",
"m. c #FBFEFF",
"M. c #FDFCFA",
"N. c #4983F1",
"B. c #588AF9",
"V. c #3D559F",
"C. c #000835",
"Z. c #F5F4F2",
"A. c #4C88F8",
"S. c #4F89F7",
"D. c #5E86E8",
"F. c #4860AA",
"G. c #F4F7FF",
"H. c #FAF9F7",
"J. c #4F8BFB",
"K. c #548EFC",
"L. c #5183F2",
"P. c #5981E3",
"I. c #4C64AE",
"U. c #F2F5FF",
"Y. c #518BF9",
"T. c #5385F4",
"R. c #5A82E4",
"E. c #465EA8",
"W. c #F8FBFF",
"Q. c #4B87F7",
"!. c #3F57A1",
"~. c #F1F0EE",
"^. c #508AF8",
"/. c #5C84E6",
"(. c #455DA7",
"). c #000936",
"_. c #FFFEFC",
/* pixels */
"                                                                                      ",
"                                                                                      ",
"                                                                                      ",
"                                                                                      ",
"                                                                                      ",
"                                                                                      ",
"                                                                                      ",
"                                                                                      ",
"                                                                                      ",
"                                                                                      ",
"                                                                                      ",
"                                                                                      ",
"                                                                                      ",
"                                                                                      ",
"                                                                                      ",
"                                                                                      ",
"                                                    . . X   o o o o o   O O O O O O O ",
"                                                  . + + @ # $ % & % $ * = - - ; : > > ",
"                                                  @ , < 1 # % 2 3 & $ > - 4 - - : > 5 ",
"                                                  @ 6 6 @ # % & & % o O 7 8 7 .   : 9 ",
"                                                  X 0 q w # % & & $ o . 1 1 w w X X e ",
"                                                  X r r X o $ % % o   w t y u i p X a ",
"                                                  X u u X o $ s $   X u y y u i # X 1 ",
"                                                  X u u X o s d * . w y y y u p f f X ",
"                                                  X i i # * d > : . t y g y i # $ h h ",
"                                                  # j j   * k 5 l z x c v u b n m M N ",
"                                                  # j B o > k V l z C y C Z V A S D F ",
"                                                  # B B * 5 V V l Z G H J K L P I U Y ",
"                                                    B T * 5 V R E W Q ! ~ ^ / ( ) _ ` ",
"                                                    T E > V ' ; T B i ] [ { } |  ...X.",
"                                                    T E 5 V ' ; o.j O.+.s @.#.$.%.&.*.",
"                                                    E l V ' V ; o.j =.-.;.:.>.,.<.1.2.",
"                                                  O l l 5 5 5 > T B 3.4.5.6.7.8.9.0.q.",
"                                                  O = = o $ $ s : = w.e.r.t.y.u.i.p.a.",
"                                                  . = = f $ % s ; s.4 d.f.g.h.j.k.l.z.",
"                                                  . = = f $ % s ; s.x.c.v.g.b.n.m.M.z.",
"                                                  . = = f $ % s ; s.4 N.B.t.V.C.m.Z.z.",
"                                                  . = = f $ % s ; s.A.S.v.D.F.n.G.H.z.",
"                                                  . = = f $ % s ; s.J.K.L.P.I.n.U.l.z.",
"                                                  . = = f $ % s ; s.4 Y.T.R.E.C.W.l.z.",
"                                                  . = = f $ % s ; s.Q.c.B.t.!.n.m.~.z.",
"                                                  . = = f $ % s ; s.4 ^.v./.(.).m._.z.",
"                                                  . = = f $ % s ; s.4 ^.v./.(.).m._.z."
};
