/* XPM */
static char *tile2111719244609[] = {
/* columns rows colors chars-per-pixel */
"43 43 147 2 ",
"   c #000225",
".  c #00012B",
"X  c #000B2D",
"o  c #031227",
"O  c #000035",
"+  c #000B36",
"@  c #00023C",
"#  c #001235",
"$  c #0A1B37",
"%  c #05173B",
"&  c #0C1C3C",
"*  c #18243A",
"=  c #000043",
"-  c #000D40",
";  c #000F48",
":  c #001342",
">  c #001648",
",  c #041B4D",
"<  c #0A1D4C",
"1  c #151C46",
"2  c #021152",
"3  c #0A1F54",
"4  c #122545",
"5  c #0C2659",
"6  c #112854",
"7  c #1F3155",
"8  c #27364D",
"9  c #333E5A",
"0  c #061F61",
"q  c #162961",
"w  c #17316E",
"e  c #162D71",
"r  c #2A3964",
"t  c #333B62",
"y  c #263B7B",
"u  c #3C4C69",
"i  c #27457B",
"p  c #354B87",
"a  c #284390",
"s  c #3B5A93",
"d  c #33509C",
"f  c #435F91",
"g  c #707B81",
"h  c #6C7797",
"j  c #485FA5",
"k  c #4662A3",
"l  c #4C65A7",
"z  c #4F6DAB",
"x  c #5164A9",
"c  c #556DAD",
"v  c #4865B5",
"b  c #5E7BB5",
"n  c #5774BA",
"m  c #5A77BB",
"M  c #617FBB",
"N  c #5474C3",
"B  c #5C7CC7",
"V  c #5C7DCE",
"C  c #5B7DD3",
"Z  c #677EC1",
"A  c #6B7FC8",
"S  c #427EEE",
"D  c #507FE7",
"F  c #5B7FE0",
"G  c #507FE9",
"H  c #4D7FF2",
"J  c #497FFB",
"K  c #748189",
"L  c #7F84AA",
"P  c #6D83BD",
"I  c #5D81D7",
"U  c #5780D8",
"Y  c #5D81DC",
"T  c #6E85C9",
"R  c #6788CF",
"E  c #6889CE",
"W  c #6382D3",
"Q  c #6A85D4",
"!  c #668AD4",
"~  c #6286DD",
"^  c #6886DE",
"/  c #5E87E3",
"(  c #5582E9",
")  c #5B86EB",
"_  c #5C89ED",
"`  c #4A83F4",
"'  c #4E8BF5",
"]  c #4D85FB",
"[  c #4D8AFC",
"{  c #5686F4",
"}  c #5A85F3",
"|  c #5289F4",
" . c #5B88F4",
".. c #5386FE",
"X. c #5887FD",
"o. c #5188FE",
"O. c #5B89FB",
"+. c #5491FF",
"@. c #5A91FF",
"#. c #6385E4",
"$. c #6189E0",
"%. c #6B8DE5",
"&. c #648AED",
"*. c #6187F4",
"=. c #6188F1",
"-. c #6393F7",
";. c #83919C",
":. c #8189A0",
">. c #8896B0",
",. c #9CAFB6",
"<. c #94A4BB",
"1. c #8699C1",
"2. c #A8AFC1",
"3. c #B9BEDB",
"4. c #B9C9E0",
"5. c #D2DCE5",
"6. c #CBDCFA",
"7. c #D7DFF3",
"8. c #DBE8EE",
"9. c #D6E3F5",
"0. c #DDE6F5",
"q. c #E7EAE3",
"w. c #EBE5EF",
"e. c #EAEEED",
"r. c #F5EFEA",
"t. c #EBF2EE",
"y. c #F3F3E4",
"u. c #F5F3EC",
"i. c #FBF4EA",
"p. c #F2FAEF",
"a. c #F9FBEE",
"s. c #EFEBF3",
"d. c #EBEFFF",
"f. c #F3EEF1",
"g. c #ECF6F5",
"h. c #EFF8F7",
"j. c #E5F2FA",
"k. c #EDF7F9",
"l. c #EFF9FF",
"z. c #F4F5F3",
"x. c #FCF5F2",
"c. c #F4FBF4",
"v. c #FDFEF5",
"b. c #F5F6FB",
"n. c #FCF5FD",
"m. c #F5FDFD",
"M. c #FEFFFE",
/* pixels */
"o.o.o.o.] o.o.o.o.o.] o.o.o.o.| | o...X. .I P X ,.c.v.v.M.n.n.M.m.M.M.M.M.M.m.v.m.v.m.",
"o.o.o.o.o.o.o.o.o.o.o.o.o.o.o.S O.] o.O._ E 6 * m.m.n.n.z.M.n.M.M.M.M.M.M.M.M.M.v.M.M.",
"o.o.o.o.o.o.o.o.o.o.o.o.o.o.o.o.@.J ..{ Y z # 2.M.n.x.n.z.c.m.v.M.M.M.M.M.M.M.M.M.M.M.",
"o.o.o.o.o.o.o.o.o.o.o.o.o.o.o.] O.] ..{ ~ s + m.M.n.n.n.M.c.m.M.M.M.M.M.M.M.M.M.M.M.M.",
"o.o.o.o.o.o.] o.o.o.o.o.o.o.o.] ] ] ..} %.i 4 m.b.M.n.n.M.v.c.M.M.M.M.M.M.M.M.M.M.M.M.",
"o.] o.o.o.o.o.o.o.] o.o.o.o.o.] o.o.O.) W 5 u b.M.n.n.n.M.m.m.v.M.M.M.M.M.M.M.M.M.M.M.",
"o.o.o.o.o.o.o.o.o.o.o.o.o.o.o.[ o...O.) B : >.m.M.n.b.M.z.v.v.M.M.M.M.M.M.M.M.M.M.M.M.",
"o.o.o.o.o.o.o.o.o.o.o.o.o.o.] [ o...} #.n + 9.m.f.n.n.M.b.M.c.M.M.M.M.M.M.M.M.M.M.M.M.",
"o.o.o.o.o.o.o.o.o.o.o.o.o.o.] ] o...} Y l   m.m.f.M.n.n.n.M.c.M.M.M.M.M.M.M.M.M.M.M.M.",
"o.o.o.o.o.o.o.o.o.o.] o.o.o.o.] o.{ =.V p 1 m.M.M.M.n.M.M.v.v.v.M.M.M.M.M.M.M.M.M.M.M.",
"o.o.o.o.o.o.o.o.o.o.o.o.o.o.[ +.` O.=.Q q 9 m.M.v.M.M.M.M.v.v.M.M.M.M.M.M.M.M.M.M.M.M.",
"o.] o.o.o.o.] o.o.o.o.o.o.o.o.+.`  .#.Q + :.m.M.M.M.n.M.M.M.v.M.M.M.M.M.M.M.M.M.M.M.M.",
"o.o.o.] o.o.o.o.o.o.o.o.o.o.[ [ ` ( Y T . 7.n.v.v.M.M.n.M.M.v.M.M.M.M.M.M.M.M.M.M.M.M.",
"o.o.o.o.o.o.o.o.o.o.o.o.] o.] [ +.D #.l . M.c.v.v.M.M.M.M.v.v.M.M.M.M.M.M.M.M.M.M.M.M.",
"o.o.o.o.o.o.o.o.o...] o.o.o.] [ o.G %.y 1 m.v.v.v.M.M.M.M.v.v.v.M.M.M.M.M.M.M.M.M.M.M.",
"o.o.o.o.o.o.o.o.o.o.o.o.o.o.[ [ ' G C 2 L n.v.v.v.M.m.M.M.v.v.M.M.M.M.M.M.M.M.M.M.M.M.",
"o...............o.o.o.o.o.o.[ o.` ) v O d.M.x.a.v.M.M.M.M.v.v.M.M.M.M.M.M.M.M.M.M.M.M.",
"..................o.o.o.' | o.+.H #.e t M.u.v.v.v.m.m.M.M.M.v.M.M.M.M.M.M.M.M.M.M.M.M.",
"....o.........X.....o.| ' ' | ` ..N @ 3.M.v.y.v.m.m.m.M.M.n.n.M.M.M.M.M.M.M.M.M.M.M.M.",
"' | | o.....o.......o.o.' ' | | ) d < n.f.v.v.v.M.m.M.m.M.M.v.M.M.M.M.M.M.M.M.M.M.M.M.",
"' ' ' ' | | ..o.o.X.| [ | ' | -.C 3 r b.M.v.i.v.M.m.m.m.M.M.v.M.M.M.M.M.M.M.M.M.M.M.M.",
"' ' ' | | | { | | ..o.X.o.o.| U ! > h M.M.x.x.v.M.M.m.M.M.v.v.M.M.M.M.M.M.M.M.M.M.M.M.",
"[ [ [ | | | | |  .} { | .... .! f . 9.M.z.v.v.M.M.m.m.M.M.v.v.M.M.M.M.M.M.M.M.M.M.M.M.",
"o.[ X.| | _ ) ) _ ) ) } } } #.b # 8 m.z.v.x.r.M.M.M.M.m.M.v.v.v.M.M.M.M.M.M.M.M.M.M.M.",
"..O.{ } ) / #.~ ~ ~ ~ Y #.#.Q < o l.m.M.M.x.v.M.M.M.n.m.M.v.v.v.M.M.M.M.M.M.M.M.M.M.M.",
"*.) / C V m n k w y c T T j : & 5.n.z.v.x.v.x.M.M.M.M.M.M.v.v.M.M.M.M.M.M.M.M.M.M.M.M.",
"^ Q a = @ , . . 7 % . & X O u 0.m.z.v.M.r.v.M.M.M.M.m.M.M.v.v.M.M.M.M.M.M.M.M.M.M.M.M.",
"P 3 - 1.6.4.9.m.j.m.8.g g 5.m.M.m.c.v.m.x.v.z.M.M.n.M.M.M.m.v.M.M.M.M.M.M.M.M.M.M.M.M.",
"  $ <.m.m.m.c.c.c.c.c.v.v.c.v.z.x.M.v.q.v.v.z.M.n.M.M.M.v.v.M.M.M.M.M.M.M.M.M.M.M.M.M.",
";.m.m.h.h.m.M.v.v.v.a.y.y.z.v.M.M.v.v.c.m.c.M.M.M.M.M.M.M.m.m.M.M.M.M.M.M.M.M.M.M.M.M.",
"g.h.m.m.m.M.z.v.r.z.v.v.v.v.z.r.z.z.c.m.v.t.m.M.M.M.M.M.M.m.M.M.M.M.M.M.M.M.M.M.M.M.M.",
"m.m.M.M.m.n.n.M.n.M.M.w.s.M.M.n.M.M.b.h.c.m.m.m.M.M.M.M.M.M.M.M.M.M.M.M.M.M.M.M.M.M.M.",
"m.z.e.M.M.f.M.M.n.n.M.M.M.n.M.n.M.b.m.m.m.m.t.M.v.M.M.M.M.M.M.M.M.M.M.M.M.M.M.M.M.M.M.",
"M.M.M.M.M.M.M.M.M.M.M.M.M.M.M.M.M.M.M.M.M.M.M.M.M.M.M.M.M.M.M.M.M.M.M.M.M.M.M.M.M.M.M.",
"M.M.M.M.M.M.M.M.M.M.M.M.M.M.M.M.M.M.M.M.M.M.M.M.M.M.M.M.M.M.M.M.M.M.M.M.M.M.M.M.M.M.M.",
"M.M.M.M.M.M.M.M.M.M.M.M.M.M.M.M.M.M.M.M.M.M.M.M.M.M.M.M.M.M.M.M.M.M.M.M.M.M.M.M.M.M.M.",
"M.M.M.M.M.M.M.M.M.M.M.M.M.M.M.M.M.M.M.M.M.M.M.M.M.M.M.M.M.M.M.M.M.M.M.M.M.M.M.M.M.M.M.",
"M.M.M.M.M.M.M.M.M.M.M.M.M.M.M.M.M.M.M.M.M.M.M.M.M.M.M.M.M.M.M.M.M.M.M.M.M.M.M.M.M.M.M.",
"M.M.M.M.M.M.M.M.M.M.M.M.M.M.M.M.M.M.M.M.M.M.M.M.M.M.M.M.M.M.M.M.M.M.M.M.M.M.M.M.M.M.M.",
"M.M.M.M.M.M.M.M.M.M.M.M.M.M.M.M.M.M.M.M.M.M.M.M.M.M.M.M.M.M.M.M.M.M.M.M.M.M.M.M.M.M.M.",
"M.M.M.M.M.M.M.M.M.M.M.M.M.M.M.M.M.M.M.M.M.M.M.M.M.M.M.M.M.M.M.M.M.M.M.M.M.M.M.M.M.M.M.",
"M.M.M.M.M.M.M.M.M.M.M.M.M.M.M.M.M.M.M.M.M.M.M.M.M.M.M.M.M.M.M.M.M.M.M.M.M.M.M.M.M.M.M.",
"M.M.M.M.M.M.M.M.M.M.M.M.M.M.M.M.M.M.M.M.M.M.M.M.M.M.M.M.M.M.M.M.M.M.M.M.M.M.M.M.M.M.M."
};
