/* XPM */
static char *tile2171719244608[] = {
/* columns rows colors chars-per-pixel */
"43 43 133 2 ",
"   c #00031A",
".  c #000B1F",
"X  c #000223",
"o  c #000823",
"O  c #00052C",
"+  c #000334",
"@  c #000C32",
"#  c #000A38",
"$  c #001132",
"%  c #0A1832",
"&  c #001138",
"*  c #0E2338",
"=  c #142539",
"-  c #17283A",
";  c #000D4F",
":  c #031442",
">  c #00164A",
",  c #071F4D",
"<  c #051550",
"1  c #001A50",
"2  c #0A2445",
"3  c #0A264D",
"4  c #1A324E",
"5  c #293C4B",
"6  c #071C6D",
"7  c #0A2960",
"8  c #1C3565",
"9  c #253362",
"0  c #213768",
"q  c #314252",
"w  c #3D4B54",
"e  c #23406C",
"r  c #364860",
"t  c #405266",
"y  c #4A566C",
"u  c #234380",
"i  c #384B8D",
"p  c #3B5384",
"a  c #3C609E",
"s  c #425B94",
"d  c #50699F",
"f  c #676F84",
"g  c #495FB4",
"h  c #4561A0",
"j  c #4D6BAC",
"k  c #576FAB",
"l  c #5074B0",
"z  c #5379B8",
"x  c #5D7ABC",
"c  c #5E77C4",
"v  c #5C7CC7",
"b  c #5C7BD6",
"n  c #597DDE",
"m  c #637FD2",
"M  c #657FDE",
"N  c #4D72E4",
"B  c #5A7EE9",
"V  c #467EF7",
"C  c #4E7FFF",
"Z  c #597EF3",
"A  c #547EFB",
"S  c #71848A",
"D  c #77889A",
"F  c #5D83D3",
"G  c #5B83DB",
"H  c #6080CD",
"J  c #6186D4",
"K  c #678CD4",
"L  c #6F8DD5",
"P  c #6383D8",
"I  c #6D87DE",
"U  c #698CDE",
"Y  c #758ED0",
"T  c #6890D8",
"R  c #4E8CEF",
"E  c #5B86E2",
"W  c #5B89E7",
"Q  c #5681E9",
"!  c #5B84ED",
"~  c #5B8BED",
"^  c #4E8CF3",
"/  c #4D85FD",
"(  c #4E89FC",
")  c #5585F4",
"_  c #5D82F5",
"`  c #508BF1",
"'  c #5C8BF5",
"]  c #5385FE",
"[  c #5B85FC",
"{  c #528BFC",
"}  c #5B8AFF",
"|  c #6483E3",
" . c #6B8AE7",
".. c #6485EE",
"X. c #648CE8",
"o. c #6384F2",
"O. c #6788F1",
"+. c #658AFC",
"@. c #6491FF",
"#. c #818E9C",
"$. c #828FAF",
"%. c #8798A8",
"&. c #B5BDBE",
"*. c #97A4C7",
"=. c #BCCAD3",
"-. c #BACADA",
";. c #B0C5E0",
":. c #D1D5D8",
">. c #D7DFE2",
",. c #DDE6F5",
"<. c #DCE9F1",
"1. c #E8EBE4",
"2. c #E4EEEF",
"3. c #E7F2EA",
"4. c #ECF4ED",
"5. c #F7F4EF",
"6. c #FBF4EE",
"7. c #FEFBED",
"8. c #EDEBF4",
"9. c #F3EEF3",
"0. c #EFF4F7",
"q. c #EFF9F0",
"w. c #E7F3FF",
"e. c #EDF4FC",
"r. c #EEFBFE",
"t. c #F6F3F5",
"y. c #FAF6F4",
"u. c #F5FDF4",
"i. c #FCFEF6",
"p. c #F2F3FB",
"a. c #FBF6FB",
"s. c #F6FEFD",
"d. c #FFFFFF",
/* pixels */
"d.d.d.d.d.d.d.d.d.d.d.d.d.d.d.d.d.d.d.d.d.d.d.d.d.d.d.d.d.d.i.d.d.d.d.d.d.d.i.d.5.d.p.",
"d.d.d.d.d.d.d.d.d.d.d.d.d.d.d.d.d.d.d.d.d.d.d.d.d.d.d.d.d.d.i.i.u.u.u.d.d.i.7.7.7.i.d.",
"d.d.d.d.d.d.d.d.d.d.d.d.d.d.d.d.d.d.d.d.d.d.d.d.d.d.d.d.d.d.i.i.u.s.s.s.d.i.7.7.i.s.w.",
"d.d.d.d.d.d.d.d.d.d.d.d.d.d.d.d.d.d.d.d.d.d.d.d.d.d.d.d.d.d.d.d.s.s.s.d.d.d.i.7.7.s.w.",
"d.d.d.d.d.d.d.d.d.d.d.d.d.d.d.d.d.d.d.d.d.d.d.d.d.d.d.d.d.d.d.i.s.s.s.s.d.d.y.7.y.d.$.",
"d.d.d.d.d.d.d.d.d.d.d.d.d.d.d.d.d.d.d.d.d.d.d.d.d.d.d.d.d.d.d.d.d.s.s.d.d.9.d.6.d.w.X ",
"d.d.d.d.d.d.d.d.d.d.d.d.d.d.d.d.d.d.d.d.d.d.d.d.d.d.d.d.d.d.d.d.d.s.s.s.d.9.d.y.t.f : ",
"d.d.d.d.d.d.d.d.d.d.d.d.d.d.d.d.d.d.d.d.d.d.d.d.d.d.d.d.d.d.d.s.s.s.s.d.a.a.d.y.:.  p ",
"d.d.d.d.d.d.d.d.d.d.d.d.d.d.d.d.d.d.d.d.d.d.d.d.d.d.d.d.d.d.d.d.s.s.d.d.d.d.y.d.&.  : ",
"d.d.d.d.d.d.d.d.d.d.d.d.d.d.d.d.d.d.d.d.d.d.d.d.d.d.d.d.d.d.d.i.u.d.s.d.d.i.d.i.>.r + ",
"d.d.d.d.d.d.d.d.d.d.d.d.d.d.d.d.d.d.d.d.d.d.d.d.d.d.d.d.d.d.a.i.i.u.u.d.d.d.5.i.d.;.> ",
"d.d.d.d.d.d.d.d.d.d.d.d.d.d.d.d.d.d.d.d.d.d.d.d.d.d.d.d.d.d.d.i.i.i.u.d.d.y.d.1.s.4 > ",
"d.d.d.d.d.d.d.d.d.d.d.d.d.d.d.d.d.d.d.d.d.d.d.d.d.d.d.d.d.d.d.y.i.u.i.d.d.d.i.d.=.@ l ",
"d.d.d.d.d.d.d.d.d.d.d.d.d.d.d.d.d.d.d.d.d.d.d.d.d.d.d.d.d.a.d.i.i.s.d.d.d.d.t.0.5 3 K ",
"d.d.d.d.d.d.d.d.d.d.d.d.d.d.d.d.d.d.d.d.d.d.d.d.d.d.d.d.d.a.d.d.i.i.i.d.d.9.d.s.- e T ",
"d.d.d.d.d.d.d.d.d.d.d.d.d.d.d.d.d.d.d.d.d.d.d.d.d.d.d.d.d.d.a.d.s.d.d.d.d.d.d.d.o p F ",
"d.d.d.d.d.d.d.d.d.d.d.d.d.d.d.d.d.d.d.d.d.d.d.d.d.d.d.d.d.d.d.d.d.d.i.d.d.d.s.s.+ j X.",
"d.d.d.d.d.d.d.d.d.d.d.d.d.d.d.d.d.d.d.d.d.d.d.d.d.d.d.d.d.d.d.d.i.d.d.d.d.s.e.*.;  .! ",
"d.d.d.d.d.d.d.d.d.d.d.d.d.d.d.d.d.d.d.d.d.d.d.d.d.d.d.d.d.d.a.i.i.d.d.d.d.t.s.9 6 B [ ",
"d.d.d.d.d.d.d.d.d.d.d.d.d.d.d.d.d.d.d.d.d.d.d.d.d.d.d.d.d.d.d.i.y.d.d.d.a.u.,.+ g o.} ",
"d.d.d.d.d.d.d.d.d.d.d.d.d.d.d.d.d.d.d.d.d.d.d.d.d.d.d.d.d.s.d.i.i.d.d.d.s.d.y < I _ ] ",
"d.d.d.d.d.d.d.d.d.d.d.d.d.d.d.d.d.d.d.d.d.d.d.d.d.d.d.d.d.d.i.d.d.d.d.d.s.s.X i P Z } ",
"d.d.d.d.d.d.d.d.d.d.d.d.d.d.d.d.d.d.d.d.d.d.d.d.d.d.d.d.d.i.d.i.i.d.d.d.s.$.@ c M +.+.",
"d.d.d.d.d.d.d.d.d.d.d.d.d.d.d.d.d.d.d.d.d.d.d.d.d.d.d.d.d.s.i.d.d.d.d.d.a.% 0 m o.A ] ",
"d.d.d.d.d.d.d.d.d.d.d.d.d.d.d.d.d.d.d.d.d.d.d.d.d.d.d.d.d.i.i.d.d.d.d.s.s.@ s b +.A } ",
"d.d.d.d.d.d.d.d.d.d.d.d.d.d.d.d.d.d.d.d.d.d.d.d.d.d.d.d.d.i.q.d.d.d.d.8.s.O x n [ ] C ",
"d.d.d.d.d.d.d.d.d.d.d.d.d.d.d.d.d.d.d.d.d.d.d.d.d.d.d.d.d.u.s.s.d.9.s.s.-.# v B ] ] / ",
"d.d.d.d.d.d.d.d.d.d.d.d.d.d.d.d.d.d.d.d.d.d.d.d.d.d.d.d.d.u.i.d.d.9.a.d.D > F ) ] ] ] ",
"d.d.d.d.d.d.d.d.d.d.d.d.d.d.d.d.d.d.d.d.d.d.d.d.d.d.d.d.d.i.q.d.8.a.d.2.t 7 G ) ] / ] ",
"d.d.d.d.d.d.d.d.d.d.d.d.d.d.d.d.d.d.d.d.d.d.d.d.d.d.d.d.d.u.4.d.8.d.a.s.* u E ] ] / } ",
"d.d.d.d.d.d.d.d.d.d.d.d.d.d.d.d.d.d.d.d.d.d.d.d.d.d.d.d.d.u.u.d.a.d.y.s.  a W ( ( ( { ",
"d.d.d.d.d.d.d.d.d.d.d.d.d.d.d.d.d.d.d.d.d.d.d.d.d.d.d.d.i.u.i.s.d.a.s.&.o z ~ / ( { { ",
"d.d.d.d.d.d.d.d.d.d.d.d.d.d.d.d.d.d.d.d.d.d.d.d.d.d.d.d.d.a.i.a.p.d.d.w 2 J ' V { ( { ",
"d.d.d.d.d.d.d.d.d.d.d.d.d.d.d.d.d.d.d.d.d.d.d.d.d.d.d.d.d.d.s.d.d.s.<.X h ! ] ] ( R R ",
"d.d.d.d.d.d.d.d.d.d.d.d.d.d.d.d.d.d.d.d.d.d.d.d.d.d.d.d.d.d.a.8.s.s.5 , m _ ] ] ( R R ",
"d.d.d.d.d.d.d.d.d.d.d.d.d.d.d.d.d.d.d.d.d.d.d.d.d.d.d.d.d.a.d.s.d.e.  k P _ ] ] ( ^ ^ ",
"d.d.d.d.d.d.d.d.d.d.d.d.d.d.d.d.d.d.d.d.d.d.d.d.d.d.d.d.d.d.a.d.p.#.$ Y | _ ] ] ( ( ^ ",
"d.d.d.d.d.d.d.d.d.d.d.d.d.d.d.d.d.d.d.d.d.d.d.d.d.d.d.d.d.d.t.i.s.= 8 c O.[ ] ] ( { ( ",
"d.d.d.d.d.d.d.d.d.d.d.d.d.d.d.d.d.d.d.d.d.d.d.d.d.d.d.d.d.a.d.i.r.o k b _ [ ] ] ] ] ] ",
"d.d.d.d.d.d.d.d.d.d.d.d.d.d.d.d.d.d.d.d.d.d.d.d.d.d.d.d.d.d.d.3.S O L o.[ [ ] ] ( ( { ",
"d.d.d.d.d.d.d.d.d.d.d.d.d.d.d.d.d.d.d.d.d.d.d.d.d.d.d.d.d.d.4.s.5 8 U N [ ] ] ] ] ] ] ",
"d.d.d.d.d.d.d.d.d.d.d.d.d.d.d.d.d.d.d.d.d.d.d.d.d.d.d.d.d.d.s.r.o j X.) } ] ) ] ] ] ] ",
"d.d.d.d.d.d.d.d.d.d.d.d.d.d.d.d.d.d.d.d.d.d.d.d.d.d.d.d.d.t.0.%.# K Q } ] ] ] ] ] A / "
};
