/* XPM */
static char *tile2331719244608[] = {
/* columns rows colors chars-per-pixel */
"43 43 153 2 ",
"   c #000124",
".  c #000827",
"X  c #00022B",
"o  c #000B2B",
"O  c #011224",
"+  c #03122D",
"@  c #021929",
"#  c #000033",
"$  c #000D34",
"%  c #00063A",
"&  c #000D3D",
"*  c #00143C",
"=  c #13243E",
"-  c #000C45",
";  c #031646",
":  c #001A40",
">  c #091B43",
",  c #031F5E",
"<  c #162E48",
"1  c #1C2F4D",
"2  c #0F2451",
"3  c #0B225B",
"4  c #112C57",
"5  c #192B5B",
"6  c #272C4A",
"7  c #263947",
"8  c #273349",
"9  c #2A364C",
"0  c #293155",
"q  c #353D54",
"w  c #0B2C61",
"e  c #133269",
"r  c #19326B",
"t  c #183869",
"y  c #1E3373",
"u  c #213B6E",
"i  c #2E3F6A",
"p  c #36485C",
"a  c #244274",
"s  c #454E6F",
"d  c #565C74",
"f  c #4F6479",
"g  c #314A80",
"h  c #324B8E",
"j  c #3B5798",
"k  c #335B98",
"l  c #3B589A",
"z  c #3C5EA6",
"x  c #3E61A1",
"c  c #435F9C",
"v  c #677894",
"b  c #465CA8",
"n  c #4768AF",
"m  c #5069A1",
"M  c #546FBA",
"N  c #5674B4",
"B  c #5071BE",
"V  c #3F7DF8",
"C  c #5F7CCA",
"Z  c #527FDE",
"A  c #607FC0",
"S  c #627CCB",
"D  c #4F7FE1",
"F  c #467BED",
"G  c #517CE2",
"H  c #5A7BE6",
"J  c #547EEB",
"K  c #597AEB",
"L  c #457DF3",
"P  c #4C7CFA",
"I  c #547EF6",
"U  c #527FFF",
"Y  c #728489",
"T  c #5881C3",
"R  c #5B82D5",
"E  c #5582DA",
"W  c #5C84DC",
"Q  c #6082CA",
"!  c #6187D2",
"~  c #6688D4",
"^  c #6686DC",
"/  c #6888DD",
"(  c #6692DD",
")  c #7897DA",
"_  c #4181EF",
"`  c #4F85EF",
"'  c #5383E3",
"]  c #5980E5",
"[  c #5788E4",
"{  c #5D8BE0",
"}  c #5284EF",
"|  c #5488EE",
" . c #5B88EC",
".. c #4483F6",
"X. c #4B82F5",
"o. c #4D8CF4",
"O. c #4781FC",
"+. c #4C85FD",
"@. c #4E8AFC",
"#. c #5385F6",
"$. c #5B84F3",
"%. c #528AF5",
"&. c #5C8DF4",
"*. c #5386FE",
"=. c #5A84FC",
"-. c #5188FE",
";. c #5A8CFE",
":. c #4E91FD",
">. c #5C90F5",
",. c #5493FF",
"<. c #5B92FF",
"1. c #6182E5",
"2. c #6885E1",
"3. c #648CE4",
"4. c #6A8CE0",
"5. c #6184E8",
"6. c #6289EB",
"7. c #6C91EC",
"8. c #638DF1",
"9. c #628AFD",
"0. c #848FA1",
"q. c #8D96AB",
"w. c #919FAA",
"e. c #96A3AC",
"r. c #A4AABA",
"t. c #9CAAC7",
"y. c #ACAAC0",
"u. c #A8B6C1",
"i. c #BACBD3",
"p. c #D0D4ED",
"a. c #CBD8FA",
"s. c #DAE9EC",
"d. c #DFECF4",
"f. c #D3E3F3",
"g. c #E3EBE9",
"h. c #F3EEEC",
"j. c #EAF0EC",
"k. c #FAF3EC",
"l. c #FCF8EF",
"z. c #E0E7FF",
"x. c #E6EFFE",
"c. c #F4EBFE",
"v. c #EEF7F2",
"b. c #E6F0FC",
"n. c #EEFAFA",
"m. c #F2F4F3",
"M. c #FAF3F4",
"N. c #F5F9F3",
"B. c #FDFDF4",
"V. c #F4F4FC",
"C. c #FCF6FE",
"Z. c #F5FDFE",
"A. c #FEFFFE",
/* pixels */
"A.A.A.A.A.A.A.A.A.A.A.A.A.A.A.A.A.A.A.A.A.A.A.A.A.A.A.A.A.A.Z.1 e 3.J <.+.*.#.=.*.*.+.",
"A.A.A.A.A.A.A.A.A.A.A.A.A.A.A.A.A.A.A.A.A.A.A.A.A.A.A.A.A.A.b.X n Z *.-.+.*.%.#.*.*.*.",
"A.A.A.A.A.A.A.A.A.A.A.A.A.A.A.A.A.A.A.A.A.A.A.A.A.A.A.A.A.Z.0.- 4.#.,...o.@.X.=.*.*.+.",
"A.A.A.A.A.A.A.A.A.A.A.A.A.A.A.A.A.A.A.A.A.A.A.A.A.A.A.A.A.A.8 y 5.;.+...:.@.%.#.=.*.*.",
"A.A.A.A.A.A.A.A.A.A.A.A.A.A.A.A.A.A.A.A.A.A.A.A.A.A.A.A.A.g.+ b H =.V @.:.o.#.#.=.#.*.",
"A.A.A.A.A.A.A.A.A.A.A.A.A.A.A.A.A.A.A.A.A.A.A.A.A.A.A.A.A.e.$ S 9.*.+.,._ @.*.%.#.#.*.",
"A.A.A.A.A.A.A.A.A.A.A.A.A.A.A.A.A.A.B.A.A.M.Z.N.Z.A.m.Z.A.< t ~ 6.I =.-.+.-.*.o.#.%.#.",
"A.A.A.A.A.A.A.A.A.A.A.A.A.A.Z.A.A.A.A.B.A.Z.A.B.v.A.Z.A.x.: k ! 5.=.+.=.*.@.*.o.o.%.%.",
"A.A.A.A.A.A.A.A.A.A.A.A.A.Z.A.A.C.A.A.A.A.N.Z.B.m.A.V.A.q.* T R  .9.P =.-.-.@.%.%.%.*.",
"A.A.A.A.A.A.A.A.A.A.A.A.A.A.A.A.A.A.A.B.B.N.B.A.Z.A.V.A.9 w ( E &.=.+.*.@.@.o.%.%.%.*.",
"A.A.A.A.A.A.A.A.A.A.A.A.A.A.Z.A.A.A.A.A.A.B.B.B.Z.Z.A.V.. x { ' &.#.-.-.+.@.o.%.%.%.-.",
"A.A.A.A.A.A.A.A.A.A.A.A.A.A.A.A.A.A.A.A.A.B.B.M.B.Z.A.r.  R ' | <.X.-.-.+.@.o.%.%.*.*.",
"A.A.A.A.A.A.A.A.A.A.A.A.A.A.A.A.C.C.A.A.A.l.l.B.Z.A.V.q 2 3.} %.*.-.-.-.%.o.o.o.o.%.=.",
"A.A.A.A.A.A.A.A.A.A.A.A.A.A.A.Z.A.A.A.A.B.l.B.B.m.A.Z.  m E <.-.X.<.O.,.%.o.o.%.%.-.*.",
"A.A.A.A.A.A.A.A.A.A.A.A.A.A.A.A.Z.A.A.A.A.B.k.A.m.Z.t.$ Q  .@.-.@.@.%.@.o.o.o.%.@.*.*.",
"A.A.A.A.A.A.A.A.A.A.A.A.A.A.A.A.A.A.Z.A.A.k.B.M.A.Z.> 3 ! %.-.@.@.@.@.o.@.o.o.%.*.-.*.",
"A.A.A.A.A.A.A.A.A.A.A.A.A.A.A.A.Z.A.A.A.A.B.M.C.V.a.% M 3.%.+.-.-.%.@.o.%.@.%.-.-.-.-.",
"A.A.A.A.A.A.A.A.A.A.A.A.A.B.B.Z.Z.Z.Z.A.A.B.h.A.C.i , R E *.-.-.@.*.%.*.%.%.%.-.-.-.-.",
"A.A.A.A.A.A.A.A.A.A.A.A.B.B.B.A.A.Z.Z.Z.A.B.A.V.d.% z 6.%.*.-.-.*.%.%.%.*.*.*.-.-.-.-.",
"A.A.A.A.A.A.A.A.A.A.A.A.A.B.l.A.Z.Z.Z.A.A.h.C.V.s 3 R #.X.*.*.*.#.;.%.*.%.-.*.*.*.-.-.",
"A.A.A.A.A.A.A.A.A.A.A.A.A.l.l.A.Z.Z.Z.A.A.N.A.V.X c W X.@.%.%.%.%.%.%.#.*.*.*.*.*.-.-.",
"A.A.A.A.A.A.A.A.A.A.A.A.B.B.B.B.A.A.A.A.A.B.A.d ; C 8.*.O.*.*.%.%.*.$.%.*.*.*.*.*.*.-.",
"A.A.A.A.A.A.A.A.A.A.A.A.A.Z.Z.B.A.c.c.C.C.N.Z.. j 6.9.#.+.-.*.*.*.*.-.*.-.*.*.*.+.-.-.",
"A.A.A.A.A.A.A.A.A.A.A.A.A.N.Z.Z.A.A.C.A.A.Z.Y * M 9.=.%.<.-.-.-.-.-.-.-.-.-.@.*.-.-.-.",
"A.A.A.A.A.A.A.A.A.A.A.A.A.Z.Z.A.A.C.A.C.B.n.@ a / #.=.X.<.*.-.-.*.@.*.*.-.-.-.-.-.-.-.",
"A.A.A.A.A.A.A.A.A.A.A.A.A.A.v.A.C.C.C.B.A.e.o N 7.J ;.+.+.-.-.-.@.*.-.@.-.-.-.-.-.-.+.",
"A.A.A.A.A.A.A.A.A.A.A.A.A.B.j.A.C.A.A.A.n.< u ~ H $.<.X.*.@.-.-.-.-.-.-.-.-.-.-.-.-.-.",
"A.A.A.A.A.A.A.A.A.A.A.A.Z.A.m.A.C.B.N.A.r.X M 1.J ;.*.F -.-.-.-.-.*.@.-.+.-.-.-.-.-.-.",
"A.A.A.A.A.A.A.A.A.A.A.A.A.A.B.A.V.N.N.j.p y 2.$.=.&.*...-.-.-.-.-.*.@.*.-.-.-.-.-.*.@.",
"A.A.A.A.A.A.A.A.A.A.A.A.A.B.A.A.V.B.Z.s.  M H =.*.F -.-.@.-.-.-.*.@.*.@.-.-.-.-.-.-.*.",
"A.A.A.A.A.A.A.A.A.A.A.A.A.A.B.C.C.Z.Z.7 4 ^ =.=.*.-.o.-.*.-.-.-.-.-.*.@.-.-.+.-.-.-.-.",
"A.A.A.A.A.A.A.A.A.A.A.A.A.B.A.A.A.A.i.+ c 5.=.*.-.%.*.@.*.*.-.-.-.-.-.*.@.*.-.-.-.*.@.",
"A.A.A.A.A.A.A.A.A.A.A.A.A.A.A.C.V.Z.f ; ! $.=.@.@.-.*.-.*.*.@.*.@.-.-.@.-.-.-.@.*.-.-.",
"A.A.A.A.A.A.A.A.A.A.A.A.A.A.A.V.Z.f.$ j 3.$.-.@.@.@.@.=.*.*.-.-.*.-.-.*.-.-.-.*.@.-.-.",
"A.A.A.A.A.A.A.A.A.A.A.A.A.A.m.Z.A.v & / J #.-.@.@.o.*.=.=.*.-.-.*.@.-.-.-.-.-.-.*.-.-.",
"A.A.A.A.A.A.A.A.A.A.A.A.A.A.m.A.b.$ h H $.*.@.o.o.@.-.=.=.*.-.-.-.*.@.*.-.-.+.-.-.-.+.",
"A.A.A.A.A.A.A.A.A.A.A.A.A.A.Z.A.Y & S K =.*.o.o.o.o.*.=.=.*.-.-.@.*.-.-.-.-.*.-.-.-.-.",
"A.A.A.A.A.A.A.A.A.A.A.A.A.A.A.V.@ a / 9.*.@.:.o.o.%.-.=.*.*.-.-.-.-.*.@.*.@.@.-.-.-.-.",
"A.A.B.A.B.m.A.A.Z.A.A.A.C.M.A.q.* Q ' *.-.*.*.%.%.%.*.-.-.@.-.-.-.*.-.*.-.@.*.-.-.*.-.",
"A.B.B.B.B.Z.N.V.A.A.C.A.C.A.A.0 r R >.-.O.*.*.*.$.%.*.@.@.-.-.-.-.@.*.@.-.*.@.*.*.@.-.",
"A.B.B.B.B.A.v.A.A.V.V.A.A.C.y.X N E >.@.+.@.=.=.=.#.*.@.@.@.-.-.-.-.*.@.-.-.@.*.-.@.*.",
"B.A.A.Z.A.A.C.A.A.V.A.B.A.A.6 5 ) E ` @.@.-.*.*.$.%.@.@.@.-.-.@.@.*.@.*.-.-.*.@.-.*.@.",
"A.A.A.A.A.A.A.B.V.A.A.m.c.p.  m ~ [ %.-.@.@.-.=.=.%.-.@.@.-.*.*.*.-.-.-.@.*.-.*.-.-.-."
};
