/* XPM */
static char *tile2341719244608[] = {
/* columns rows colors chars-per-pixel */
"43 43 21 1 ",
"  c #4C8AFB",
". c #4C8AF7",
"X c #5089FD",
"o c #5188FF",
"O c #4C89FC",
"+ c #4C88FF",
"@ c #5088FF",
"# c #4B88FF",
"$ c #4D87FF",
"% c #5387FF",
"& c #5187FF",
"* c #5487FD",
"= c #5486FF",
"- c #5485FF",
"; c #5584FF",
": c #5386FF",
"> c #5188FD",
", c #5188FC",
"< c #5089FA",
"1 c #5089FC",
"2 c white",
/* pixels */
" .Xoooooooooooooooooooooooooooooooooooooooo",
"O Xoooooooooooooooooooooooooooooooooooooooo",
"++@oooooooooooooooooooooooooooooooooooooooo",
"++@oooooooooooooooooooooooooooooooooooooooo",
"+#@oooooooooooooooooooooooooooooooooooooooo",
"$$@oooooooooooooooooooooooooooooooooooooooo",
"%&ooooooooooooooooooooooooooooooooooooooooo",
"*%%oooooooooooooooooooooooooooooooooooooooo",
"=%%oooooooooooooooooooooooooooooooooooooooo",
"==%oooooooooooooooooooooooooooooooooooooooo",
"--%oooooooooooooooooooooooooooooooooooooooo",
";-%oooooooooooooooooooooooooooooooooooooooo",
";-:oooooooooooooooooooooooooooooooooooooooo",
"--:oooooooooooooooooooooooooooooooooooooooo",
"--:oooooooooooooooooooooooooooooooooooooooo",
"-:&oooooooooooooooooooooooooooooooooooooooo",
"::&oooooooooooooooooooooooooooooooooooooooo",
":%ooooooooooooooooooooooooooooooooooooooooo",
"o>ooooooooooooooooooooooooooooooooooooooooo",
",,>oooooooooooooooooooooooooooooooooooooooo",
"<<>oooooooooooooooooooooooooooooooooooooooo",
"11>oooooooooooooooooooooooooooooooooooooooo",
">>ooooooooooooooooooooooooooooooooooooooooo",
"ooooooooooooooooooooooooooooooooooooooooooo",
"ooooooooooooooooooooooooooooooooooooooooooo",
"ooooooooooooooooooooooooooooooooooooooooooo",
"ooooooooooooooooooooooooooooooooooooooooooo",
"ooooooooooooooooooooooooooooooooooooooooooo",
"ooooooooooooooooooooooooooooooooooooooooooo",
"ooooooooooooooooooooooooooooooooooooooooooo",
"ooooooooooooooooooooooooooooooooooooooooooo",
"ooooooooooooooooooooooooooooooooooooooooooo",
"ooooooooooooooooooooooooooooooooooooooooooo",
"ooooooooooooooooooooooooooooooooooooooooooo",
"ooooooooooooooooooooooooooooooooooooooooooo",
"ooooooooooooooooooooooooooooooooooooooooooo",
"ooooooooooooooooooooooooooooooooooooooooooo",
"ooooooooooooooooooooooooooooooooooooooooooo",
"ooooooooooooooooooooooooooooooooooooooooooo",
"ooooooooooooooooooooooooooooooooooooooooooo",
"ooooooooooooooooooooooooooooooooooooooooooo",
"ooooooooooooooooooooooooooooooooooooooooooo",
"ooooooooooooooooooooooooooooooooooooooooooo"
};
