/* XPM */
static char *tile2421719244608[] = {
/* columns rows colors chars-per-pixel */
"43 43 175 2 ",
"   c #00041D",
".  c #000323",
"X  c #000C27",
"o  c #00002E",
"O  c #00082D",
"+  c #03152A",
"@  c #02182F",
"#  c #000635",
"$  c #000F36",
"%  c #000239",
"&  c #010B3B",
"*  c #021236",
"=  c #061937",
"-  c #001338",
";  c #0C1C33",
":  c #202E3B",
">  c #001545",
",  c #00164E",
"<  c #081B55",
"1  c #001558",
"2  c #0F1E59",
"3  c #021653",
"4  c #162042",
"5  c #152D49",
"6  c #0C2055",
"7  c #102552",
"8  c #12235A",
"9  c #102C5E",
"0  c #1D325D",
"q  c #222840",
"w  c #2D3341",
"e  c #313C58",
"r  c #383D5A",
"t  c #041E68",
"y  c #293C64",
"u  c #263B72",
"i  c #394253",
"p  c #3E495F",
"a  c #3E4D6E",
"s  c #324F71",
"d  c #3B4D73",
"f  c #49575A",
"g  c #4B5167",
"h  c #5C5F6E",
"j  c #545C6F",
"k  c #59607A",
"l  c #2B4A83",
"z  c #344F84",
"x  c #334688",
"c  c #384D8E",
"v  c #254494",
"b  c #324F93",
"n  c #3C60AC",
"m  c #415B8E",
"M  c #41559A",
"N  c #4E6496",
"B  c #626D89",
"V  c #6D798F",
"C  c #445CA2",
"Z  c #4367A3",
"A  c #4662AC",
"S  c #5C7CAB",
"D  c #596EBD",
"F  c #5675BD",
"G  c #5F77BD",
"H  c #466AC0",
"J  c #567CC5",
"K  c #517AD4",
"L  c #667ED4",
"P  c #4C75E7",
"I  c #4E7EE0",
"U  c #417DED",
"Y  c #4F7FEB",
"T  c #567DE3",
"R  c #537DEA",
"E  c #5E7DEB",
"W  c #417EF3",
"Q  c #4B7EF4",
"!  c #4C7FFF",
"~  c #5A7FF4",
"^  c #527CFD",
"/  c #5B7FFF",
"(  c #607EFF",
")  c #79829F",
"_  c #728299",
"`  c #7785AC",
"'  c #6887BD",
"]  c #5F83CF",
"[  c #5D84C5",
"{  c #4C83DE",
"}  c #5185D1",
"|  c #5F80DF",
" . c #5A88DA",
".. c #698CC4",
"X. c #6280C8",
"o. c #6C83CF",
"O. c #648DCD",
"+. c #6282D5",
"@. c #6B8ED0",
"#. c #6585DD",
"$. c #6883DE",
"%. c #658ADD",
"&. c #6988D8",
"*. c #6091D3",
"=. c #4B84E4",
"-. c #4785E8",
";. c #4C86ED",
":. c #4F89EC",
">. c #5A85E7",
",. c #508BE5",
"<. c #5286EC",
"1. c #548AEB",
"2. c #5B8AEC",
"3. c #5C8AE2",
"4. c #4383F3",
"5. c #4D84F5",
"6. c #4D8BF5",
"7. c #4783FB",
"8. c #4C85FE",
"9. c #4D89FD",
"0. c #5585F5",
"q. c #5887F3",
"w. c #5089F4",
"e. c #5E8AF7",
"r. c #5385FD",
"t. c #5A84FF",
"y. c #5188FF",
"u. c #5A8CFE",
"i. c #5090F2",
"p. c #5392FE",
"a. c #6383E4",
"s. c #618FE7",
"d. c #688AEB",
"f. c #638CE8",
"g. c #7088E2",
"h. c #608CF7",
"j. c #698EF9",
"k. c #6482FA",
"l. c #6F92F6",
"z. c #6093FF",
"x. c #83889B",
"c. c #888CA7",
"v. c #8991A4",
"b. c #8E9BAC",
"n. c #9EA8B2",
"m. c #A4B4B4",
"M. c #ACB8C8",
"N. c #C1CADB",
"B. c #DEE0EC",
"V. c #ECEDEC",
"C. c #E4E3E1",
"Z. c #F0EBE7",
"A. c #F1EFEA",
"S. c #E7F1E9",
"D. c #EDF4E4",
"F. c #F6F3ED",
"G. c #F4FBEA",
"H. c #FCFCEF",
"J. c #E3E7F3",
"K. c #E8EFF7",
"L. c #E4E6FF",
"P. c #E9EFFE",
"I. c #F3EEF2",
"U. c #ECF0F2",
"Y. c #E5F1FF",
"T. c #ECF3FE",
"R. c #EFFFFF",
"E. c #F3F4F3",
"W. c #FAF6F6",
"Q. c #F6FCF6",
"!. c #FCFDF4",
"~. c #F4F5FB",
"^. c #F9F7FA",
"/. c #F6FEFD",
"(. c #FDFDFD",
/* pixels */
"y.y.y.y.y.y.y.y.y.y.r.r.8.w.w.w.6.6.i.-.e.R d.c   R.~./.~.(.^.(.^.W.(.(.(.(.(.(.(./.(.",
"y.y.y.y.y.y.y.y.y.8.8.8.0.w.w.6.6.6.6.6.z.P >.G @ m./.V.(.C.!.!.I.(.(.(.^.(.(.(.(.(.(.",
"y.y.y.y.y.y.y.y.y.r.y.8.8.w.w.6.6.6.p.U u.t.E o.= f /.(.A.(.F.(.(.W.(.(.(.(.(.(.(.(.(.",
"y.y.y.y.y.y.y.y.y.y.y.y.w.:.6.6.6.6.4.7.t./ k.g.0 : ~.(.!.F.!.!.(.(.^.(.^.(.(.(.(.(.(.",
"y.y.y.y.y.y.y.y.y.y.y.8.w.w.6.5.9.9.9.9.y.t.( E z + /.^.!.(.H.W.(.W.(.(.(.(.(.(.!.(.(.",
"y.y.y.y.y.y.y.y.y.y.8.9.5.w.w.0.9.9.y.y.! t./ E J O N.Q.^.(.D.!.(.Q.(.(.(.(.(.(.(.!.(.",
"y.y.y.y.y.y.y.y.y.8.9.9.w.w.y.r.y.w.w.9.8.t.t.~ $.9 p (.(.E.E.(.(.(.(.(.(.(.(.(.(.(.(.",
"y.y.y.y.y.y.y.y.y.y.9.9.8.y.r.r.y.r.6.5.y.! u.r.3.Z . J.(.U.(.!.!.(./.(.(.(.(.(.(.(.(.",
"y.y.y.y.y.y.y.y.y.y.8.8.y.y.r.t.r.r.q.:.u.7.y.y.{ O.$ x.T./.(.Q.(.!.(.(./.(.(.(.(.(.(.",
"y.y.y.y.y.y.y.y.y.y.9.9.8.r./ ^ t.0.1.,.w.6.8.p.=.*.y : P././.Q./.Q.Q.(.(.(.(.(.(.(.(.",
"y.y.y.y.y.y.y.y.y.9.9.8.y.y.^ r.t.0.q.,.;.p.W y.i.} m . /.~.(.(.S.Q.Q.(.(.(.(.(.(.!.(.",
"y.y.y.y.y.y.y.y.y.y.9.9.y.r.r.r.r.y.w.w.y.6.y.9.w.2.X.o Y.Q.!.(.(./././.(.(.(.(.!.!.(.",
"y.y.y.y.y.y.y.y.y.y.y.y.y.y.y.y.y.y.y.y.y.y.y.y.y.q.L & N.(.!.!.(./././.(.(.^.(.!.!.(.",
"y.y.y.y.y.y.y.y.y.y.y.y.y.y.y.y.y.y.y.y.y.y.y.y.y.0.] > v./.!.!.(./././.(.(.^.(.(.!.!.",
"y.y.y.y.y.y.y.y.y.y.y.y.y.y.y.y.y.y.y.y.y.y.y.y.y.q.+.6 j (.!.H./.(././.^.(.(.(.(.!.(.",
"y.y.r.8.y.y.y.y.y.y.y.y.y.y.y.y.y.y.y.y.y.y.y.y.y.q.o.7 r (.!.H.(.(./.^.(.(.(./.(.!.(.",
"y.y.y.y.y.y.y.y.y.y.y.y.y.y.y.y.y.y.y.y.y.y.y.y.y.q.#.8 r (.H.H.(.(./.(.(.(.(.(.(./.(.",
"y.y.y.y.y.y.y.y.y.y.y.y.y.y.y.y.y.y.y.y.y.y.y.y.y.q.#.< g !.H.!.(.(./.(.!.(.^.^.!.^.(.",
"y.y.y.y.y.y.y.y.y.y.y.y.y.y.y.y.y.y.y.y.y.y.y.y.y.0.g.3 k ^.W.!.(./.Q.(.(.(.(.(.(.Q.(.",
"y.y.y.y.y.y.y.y.y.y.y.y.r.y.y.y.y.y.y.y.y.y.y.y.y.0.a.1 B (.Z.!./.Q.(.!.!.(.^.(./.(.(.",
"y.r.8.y.y.y.y.y.y.y.y.y.y.y.y.y.y.y.y.y.y.y.y.y.y.0.T t g /.(.F.(./.(.Q.^.(.^.(./.Q.(.",
"y.y.y.y.y.y.y.y.y.y.y.y.y.y.y.y.y.y.y.y.y.y.y.y.y.r.T v & T.(.(.U./.Q.(.(.^.(.^././.(.",
"y.y.y.y.y.y.y.y.y.y.y.y.y.y.y.y.y.y.y.y.y.y.y.y.y.y.e.H # b./.(.U./.Q.!.!.(.^.(././.(.",
"y.y.y.y.y.y.y.y.y.8.r.y.y.y.y.y.y.y.y.y.y.y.y.y.y.y.u.K z ; U.~./.~.Q.!.(.^.(.^.(./.(.",
"y.y.y.y.y.y.y.y.y.y.y.y.y.y.y.y.y.y.y.y.y.y.y.y.y.r.5.>.'   n.E./././.Q.(.(.(.(././.(.",
"y.y.y.y.y.y.y.y.y.y.y.y.y.y.y.y.y.y.y.y.y.y.y.y.y.y.4.e...5 i /./././.Q.!.(.(.(././.(.",
"y.y.y.y.y.y.y.y.r.8.y.y.y.y.y.y.y.y.y.y.y.y.y.y.y.y.p.=.[ s + /./././.(.!.!.(.(.(.(.(.",
"y.y.y.y.y.y.y.y.y.y.y.y.y.y.y.y.y.y.y.y.y.y.y.y.y.y.y.e. .S X M.~././.(.(.!.!.(.(.(.(.",
"y.y.y.y.y.y.y.y.y.y.y.y.r.y.y.y.y.y.y.y.y.y.y.y.y.y.8.5. ...- V P./.(./.!.!.!.!.(.(.(.",
"y.y.y.y.y.y.y.y.y.y.y.y.y.y.y.y.y.y.y.y.y.y.y.y.y.9.7.8. .@.7 e (.~.(.(.(.!.!.(.(.(.(.",
"y.y.y.y.y.y.y.y.y.y.y.y.y.y.y.y.y.y.y.y.y.y.y.y.y.9.8.9.I ] u 4 (.~.(.(.(.(.(.(.(.(.(.",
"y.y.y.y.y.y.r.y.y.y.y.y.y.y.y.y.y.y.y.y.y.y.y.y.y.y.8.y.;.a.M - L.(.(.(.(.(.(.(.(.(.(.",
"y.y.y.y.y.y.y.y.r.y.y.y.y.y.y.y.y.y.y.y.y.y.y.y.y.y.8.7.w.l.D % c.(.(.(.(.(.(.(.(.(.(.",
"y.y.y.y.y.y.y.y.y.y.y.y.y.y.y.y.y.y.y.y.y.y.y.y.y.8.9.7.t.j.L 2 r (.(.!.(.(.(.(.!.!.(.",
"y.y.r.8.y.y.y.y.y.y.y.y.8.r.y.y.y.y.y.y.y.y.y.y.y.y.9.9.r.R #.x 4 Q.(.!.(.(.(.(.!.!.(.",
"y.y.y.y.y.y.y.y.y.y.y.y.y.y.y.y.y.y.y.y.y.y.y.y.y.9.9.4.u.0.| C . (.^.(.(.(.(.!.F.G.(.",
"y.y.y.y.y.y.y.y.y.y.y.y.y.y.y.y.y.y.y.y.y.y.y.y.y.y.y.6.8.q.a.F > _ /.~.~.(.(.E.H.H.(.",
"y.y.y.y.y.y.y.y.y.y.y.y.y.y.y.y.y.y.y.y.y.y.y.y.y.y.w.w.5.0.2.%.l * T.P.(.(.W.(.H.D.(.",
"y.y.y.y.y.y.y.y.y.y.y.y.y.y.y.y.y.y.y.y.y.y.y.y.y.y.0.u.w.u.<.s.J , d /.T.^.(.!.!.!.(.",
"y.y.y.y.y.y.y.y.y.y.y.y.y.y.y.y.y.y.y.y.y.y.y.y.y.w.y.r.y.u.;.1.s.n % ` P.(.E.(.(.(.(.",
"y.y.y.y.y.y.y.8.y.y.y.y.y.y.y.y.y.y.y.y.y.y.y.y.y.y.t.Q u.y.6.6.<.d.A % V B.(.(.(.E.(.",
"y.y.y.y.y.y.y.y.y.y.y.y.y.y.y.y.y.y.y.y.y.y.y.y.y.y.t.^ 6.6.7.y.5.h.#.c # h ~.I.(.(.(.",
"y.y.y.y.y.y.y.y.y.y.y.y.y.y.y.r.y.y.y.y.y.y.y.y.y.t.r.t.y.y.W p.9.0.a.&.N X w ^.~.(.(."
};
