/* XPM */
static char *tile2481719244607[] = {
/* columns rows colors chars-per-pixel */
"43 43 71 1 ",
"  c white",
". c #FFFFFD",
"X c #FEFFF9",
"o c #FEFFF7",
"O c #FFFFFB",
"+ c #FDFFF7",
"@ c #FDFFF5",
"# c #FDFFF3",
"$ c #FDFFF2",
"% c #FEFFF2",
"& c #FFFEF9",
"* c #FEFFF3",
"= c #FFFEFA",
"- c #FFFFF5",
"; c #FFFDFA",
": c #FFFFF7",
"> c #FFFDFC",
", c #FFFCFC",
"< c #FFFEFF",
"1 c #FFFBFF",
"2 c #FFFCFF",
"3 c #FEFFF5",
"4 c #FFF9FF",
"5 c #FFFAFF",
"6 c #FFFDFE",
"7 c #FDFFF0",
"8 c #FEFFF0",
"9 c #FFFFFA",
"0 c #FFFFF3",
"q c #FEFFFD",
"w c #FEFFFB",
"e c #FEFFFF",
"r c #FCFFFD",
"t c #FDFFFA",
"y c #FBFFFE",
"u c #FBFFFC",
"i c #FEFFFA",
"p c #FDFDFB",
"a c #FAFFFF",
"s c #FDFDFF",
"d c #FAFFFE",
"f c #F9FFFD",
"g c #FDFCFF",
"h c #F7FFF4",
"j c #F6FDF6",
"k c #F4FCEF",
"l c #F1F8F0",
"z c #FEFDFF",
"x c #FBFFF6",
"c c #F3FAF2",
"v c #FFFDFF",
"b c #F9FFF3",
"n c #EBF0E9",
"m c #F9FFF5",
"M c #F1F6F0",
"N c #FEFCFF",
"B c #FAFFF6",
"V c #F5F8EF",
"C c #FAF8FF",
"Z c #FEFFF8",
"A c #F6F8F3",
"S c #FCFFF6",
"D c #FAFCF9",
"F c #F9FCF5",
"G c #F9FBF8",
"H c #FCFFF8",
"J c gray99",
"K c #FBFCF7",
"L c #FEFEFE",
"P c #F8F6FF",
"I c #F6F5FD",
/* pixels */
"                                       .XoX",
"                                       O+@o",
"                                       O##o",
"                                       O#$o",
"                                       O$%&",
"                                       O*%&",
"                                       O**=",
"                                       O--;",
"                                       .::>",
"                                       .&&,",
"                                       <>>;",
"                                       <123",
"                                       <41$",
"                                       <52$",
"                                       <167",
"                                       <2>7",
"                                       <2=7",
"                                        6=7",
"                                        6X8",
"                                        .90",
"                                        .9*",
"                                        qw3",
"                                       ertX",
"                                       eyui",
"                                       eyyp",
"                                       eaas",
"                                       edfg",
"                                       qhj<",
"                                       wklz",
"                                       wxc<",
"                                       wxlv",
"                                       wbnv",
"                                       wmMN",
"                                       wBwv",
"                                       qVwC",
"                                       qZAC",
"                                       .SDv",
"                                       .FGv",
"                                       .HGv",
"                                       .9pv",
"                                       .XJv",
"                                       .KLP",
"                                          I"
};
