/* XPM */
static char *tile2491719244607[] = {
/* columns rows colors chars-per-pixel */
"43 43 151 2 ",
"   c #000013",
".  c #000D16",
"X  c #00021E",
"o  c #000C1D",
"O  c #000622",
"+  c #00032B",
"@  c #000D2E",
"#  c #00142C",
"$  c #071D2B",
"%  c #000D32",
"&  c #000B3B",
"*  c #031532",
"=  c #03153D",
"-  c #10222E",
";  c #071748",
":  c #001948",
">  c #11274E",
",  c #0C2256",
"<  c #0E2C50",
"1  c #122756",
"2  c #152850",
"3  c #1A2C52",
"4  c #16315E",
"5  c #2A3B4B",
"6  c #343C49",
"7  c #323E54",
"8  c #082567",
"9  c #172A64",
"0  c #143264",
"q  c #253B6C",
"w  c #2E4652",
"e  c #3B5450",
"r  c #2E447E",
"t  c #2C4A7C",
"y  c #384A7C",
"u  c #444F6F",
"i  c #525C6B",
"p  c #63687B",
"a  c #324B84",
"s  c #345381",
"d  c #3A558A",
"f  c #334E91",
"g  c #3A4F90",
"h  c #395793",
"j  c #3B56A3",
"k  c #435D9E",
"l  c #50659A",
"z  c #697F8A",
"x  c #6A799A",
"c  c #4967A7",
"v  c #5673AF",
"b  c #4561B5",
"n  c #4B6BB6",
"m  c #4E6EB9",
"M  c #546FBC",
"N  c #5B78BE",
"B  c #647AB6",
"V  c #4E6CC6",
"C  c #567AC4",
"Z  c #5777CA",
"A  c #537CCC",
"S  c #5C7CCF",
"D  c #5876D6",
"F  c #537DD3",
"G  c #5D7FE1",
"H  c #537BEA",
"J  c #597FEA",
"K  c #4F7EF2",
"L  c #487EF8",
"P  c #547EF7",
"I  c #517EFF",
"U  c #72848E",
"Y  c #6C82BE",
"T  c #5A82DA",
"R  c #5A88DE",
"E  c #6481C7",
"W  c #6B85CA",
"Q  c #6C8ACA",
"!  c #6483D3",
"~  c #6A87D7",
"^  c #6A8AD5",
"/  c #6384DC",
"(  c #6489DD",
")  c #4780E9",
"_  c #4B85EE",
"`  c #4E88EC",
"'  c #5B84E3",
"]  c #5783ED",
"[  c #5C82EB",
"{  c #538AEF",
"}  c #5B8CEB",
"|  c #4783F1",
" . c #4C83F4",
".. c #4E89F5",
"X. c #4583FB",
"o. c #4C84FD",
"O. c #4D89FE",
"+. c #5286F6",
"@. c #5B83F5",
"#. c #538AF4",
"$. c #5C8EF4",
"%. c #5386FE",
"&. c #5C84FD",
"*. c #5188FF",
"=. c #598CFE",
"-. c #5290F7",
";. c #5591FF",
":. c #5C94FF",
">. c #6080E3",
",. c #6887E1",
"<. c #6689E7",
"1. c #6D8BE3",
"2. c #6184E9",
"3. c #6789EB",
"4. c #688CEA",
"5. c #7190EB",
"6. c #638CF5",
"7. c #6087FE",
"8. c #618BFD",
"9. c #89909A",
"0. c #A1BAB6",
"q. c #AFB6C0",
"w. c #A8BAC4",
"e. c #B0BDC3",
"r. c #BDCED5",
"t. c #B1C4E2",
"y. c #D4D8DB",
"u. c #C9D5EF",
"i. c #D0D6E4",
"p. c #D7E8F0",
"a. c #EFECE5",
"s. c #F2EFE6",
"d. c #ECF6ED",
"f. c #ECFBEC",
"g. c #F1F0EE",
"h. c #F4F8EA",
"j. c #FAFFEE",
"k. c #FAEEFF",
"l. c #EFF4F0",
"z. c #E7FAF6",
"x. c #E3F7FF",
"c. c #EEF6F9",
"v. c #EDFDFC",
"b. c #F5F4F5",
"n. c #F8F6F7",
"m. c #F5FCF4",
"M. c #FCFEF4",
"N. c #F4F4FD",
"B. c #FCF5FE",
"V. c #F5FEFD",
"C. c #FEFDFE",
/* pixels */
"C.C.C.C.C.C.C.n.C.C.b.C.C.u , Q E { ;.X.o.O.*.%.%.+.+.*.*.*.*.*.*.*.*.*.%.*.*.O.%.*.*.",
"M.C.C.C.C.C.C.B.C.b.g.C.i.+ k ^ R ..-.X.O.O.%.%.=.+.#.%.*.*.*.*.*.*.O.*.*.*.*.*.*.*.*.",
"C.C.C.C.C.C.C.b.C.n.C.N.i , ! T } ) ;.X.o.O.%.%.%.%.=.%.%.*.*.*.*.*.*.*.*.*.*.*.*.*.*.",
"C.C.C.C.C.C.C.B.C.C.C.B.O c F } { ..O.O.O.O.O.*.%.%.%.%.%.*.*.*.*.*.%.*.*.*.*.*.*.*.*.",
"C.B.C.C.C.B.C.j.b.V.N.p = C ' $.#.#.O.O.O.O.*.%.%.%.=.%.%.*.*.*.*.O.*.*.O.%.*.*.*.*.*.",
"C.C.C.C.C.B.C.M.N.V.V.X y ,.$.#.+...;.*.o.O.O.%.%.%.%.%.%.%.*.*.*.*.*.*.*.*.*.*.*.*.*.",
"C.C.C.C.C.M.h.C.V.V.u.O B } +.+. .+.*.*.O.*.*.%.%.%.%.%.+.=.*.*.%.*.*.*.*.*.*.*.%.*.*.",
"C.C.C.C.C.M.h.C.V.V.x ; E ] O.%...+.%.=.*.*.*.O.*.%.%.%.%.*.*.*.*.*.*.*.*.*.*.*.O.*.*.",
"C.B.C.C.M.M.M.d.V.v.2 9 ^ #.%.=.=.+.#.+.=.*.O.*.*.%.%.%.%.=.%.%.*.*.*.*.%.O.O.*.O.*.*.",
"C.C.C.B.M.j.M.f.V.x.& h 1.@.*.*.=.=.@.%.*.*.%.*.O.*.%.%.%.%.*.*.*.*.*.*.*.*.%.*.*.*.*.",
"C.C.C.C.C.j.M.m.V.t.& M ' +.o.O.%.*.+.=.=.%.%.O.*.O.%.%.*.%.*.*.*.*.*.*.*.*.*.*.*.*.%.",
"M.V.V.C.C.M.j.M.V.3 8 D 8.%.%.*.*.+.%.%.%.O.O.%.%.%.*.%.%.%.*.*.*.O.%.*.*.*.*.*.*.*.*.",
"M.m.V.C.C.B.M.s.q.& m } =.%.*.*.*.*.*.*.*.*.*.*.*.*.*.*.*.*.*.*.*.*.*.*.*.*.*.*.*.*.*.",
"j.V.V.C.C.M.j.C.6 1 ^ 6. .%.O.%.*.*.%.*.*.*.*.*.*.*.*.*.*.*.*.*.*.*.*.*.*.*.*.*.*.%.*.",
"j.V.V.V.C.C.s.C.  l S $. .%.O.%.*.*.O.*.*.*.O.*.*.*.%.*.*.*.*.*.*.*.O.*.*.*.*.%.*.*.*.",
"j.m.V.C.C.C.M.y.O Y / @.=.%.%.O.*.*.*.*.*.*.%.*.*.*.*.O.*.*.*.*.*.*.%.*.*.*.*.O.*.*.*.",
"j.V.C.V.C.C.C.9.@ W <.+.%.*.*.*.*.*.%.*.*.*.*.O.*.*.*.*.*.*.*.*.*.*.*.*.*.*.*.%.O.*.*.",
"j.V.C.C.C.C.m.i = ^ G =. .*.*.*.*.*.*.*.*.*.*.%.*.*.*.O.*.*.*.*.*.*.*.*.O.%.*.*.*.*.*.",
"j.C.C.C.C.C.N.7 q S [ K =.O.*.*.*.*.*.O.*.*.*.*.*.*.*.%.*.*.%.O.O.*.*.*.*.*.*.*.*.*.*.",
"M.M.C.C.C.m.V.* a 5.H %.+.*.*.*.*.*.*.*.*.*.*.*.*.*.*.*.*.*.*.*.%.*.*.*.*.*.*.*.*.*.*.",
"M.C.C.C.C.V.V.* k 3.7.P %.*.*.*.*.%.%.*.*.*.%.*.*.*.O.*.*.*.*.%.*.*.*.*.*.*.*.%.%.O.*.",
"M.C.C.C.C.V.p.+ B J 8.P *.*.*.*.*.*.*.*.*.*.O.*.*.*.*.*.*.*.*.O.*.*.*.*.*.*.*.*.*.*.*.",
"B.C.C.C.C.V.w.% ~ J 8. .;.%.*.*.*.*.*.O.*.*.*.*.*.*.*.*.*.*.*.*.%.*.*.*.*.*.*.O.*.*.*.",
"C.C.C.C.C.V.z : ~ @.%.+.*.*.*.*.*.*.*.*.*.*.*.*.*.%.%.*.*.*.*.*.O.*.*.*.*.*.*.*.*.*.*.",
"C.C.C.C.C.V.w 0 ( 7.P %.%...*.*.*.*.*.*.*.*.*.*.*.*.*.*.*.*.*.*.*.*.%.*.*.O.*.*.*.*.*.",
"C.C.C.C.V.V.$ t ( P &.+.%.*.*.*.*.*.*.*.*.*.*.*.*.*.*.*.*.*.*.*.*.*.*.*.*.*.*.*.*.*.*.",
"B.C.B.C.C.V.o h 3.P =...#.*.*.*.%.*.*.O.*.*.%.O.*.*.O.%.*.*.*.*.*.*.*.*.*.*.*.*.*.*.%.",
"B.k.B.B.m.v.O n 6.%.%...-.O.*.*.*.*.*.*.%.*.*.*.*.*.*.*.*.*.%.O.*.*.*.O.*.*.%.*.*.*.O.",
"B.B.C.B.V.y.O Z 7.I =.| -.%.*.*.*.*.*.O.*.*.*.*.*.O.*.*.*.*.*.*.*.*.*.%.*.*.O.%.*.*.%.",
"k.B.C.m.V.U = / @.I =._ ..*.O.*.*.*.*.*.*.*.*.*.*.%.*.*.*.*.*.*.*.*.*.*.*.*.*.*.*.*.O.",
"B.B.B.m.V.5 4 ,.7.I *.....*.*.*.*.*.*.%.O.*.*.*.*.*.*.*.*.*.*.*.*.*.%.*.*.*.*.*.*.*.*.",
"B.B.B.C.V.@ d T =.%.o.:.....*.*.*.*.*.*.%.*.*.*.*.*.*.*.*.O.%.*.*.*.O.*.*.*.*.*.*.*.*.",
"C.B.b.C.e.@ v T 8.&.L :._ %.O.*.*.*.*.O.*.*.*.*.*.*.*.*.O.*.%.*.*.*.*.*.*.*.*.*.*.*.*.",
"C.C.n.V.i > E 2.&.%.O.%...*.*.*.*.*.*.%.*.*.*.O.*.*.*.*.*.*.*.*.*.*.*.*.*.*.*.*.O.%.*.",
"N.C.C.V.- q ~ 6.P L =. .*.%.*.*.*.*.*.*.*.*.*.%.*.*.%.O.*.*.*.*.*.%.*.*.O.*.*.*.*.*.*.",
"C.C.b.V.$ y G 7.%.=.=.+.*.*.*.*.*.*.*.%.*.*.*.*.*.*.*.*.*.*.*.*.*.O.*.*.%.*.*.*.*.*.*.",
"C.C.m.v.# f G 7.%.;.#.*.*.*.*.*.*.*.*.O.*.*.*.*.*.*.*.*.*.*.*.%.*.*.*.*.*.*.*.*.*.*.*.",
"N.C.V.z.# j [ &.%.#.#.;.*.*.*.*.*.*.*.*.*.*.*.*.*.*.*.*.*.%.*.*.*.*.O.%.*.*.*.*.*.*.%.",
"N.M.m.V.* b @.&.&.#.` *.%.*.*.*.*.*.*.*.*.O.*.*.*.*.*.*.*.*.O.*.*.*.*.*.*.*.*.*.*.O.*.",
"N.V.m.v.# V &.&.%.#.` =.*.*.*.*.*.*.*.*.*.%.%.*.%.O.*.*.*.*.*.*.*.*.*.*.*.*.%.O.*.*.*.",
"N.M.f.0.% D I &.=.#.` =.%.O.%.O.*.*.*.*.*.%.*.*.*.*.*.*.*.*.*.*.*.*.*.*.%.*.*.*.*.*.*.",
"C.M.f.e 2 G 7.I %.{ ` =.%.%.*.%.*.*.*.*.*.*.*.*.*.*.*.*.*.*.*.*.*.*.*.*.*.O.*.*.*.*.*.",
"V.V.V.. s 2.&.I =.#._ =.O.%.*.*.*.*.O.%.*.*.*.O.*.*.O.*.*.%.=.%.*.*.*.*.*.*.*.*.%.*.*."
};
