/* XPM */
static char *tile2581719244607[] = {
/* columns rows colors chars-per-pixel */
"43 43 174 2 ",
"   c #5188FF",
".  c #5387FF",
"X  c #5784FF",
"o  c #5785FF",
"O  c #5388FC",
"+  c #4E8AF8",
"@  c #4A8DF8",
"#  c #478EF8",
"$  c #478DFC",
"%  c #4A8CFA",
"&  c #4D87F2",
"*  c #6294F3",
"=  c #6289D8",
"-  c #5F7CB6",
";  c #000125",
":  c #636F7F",
">  c #F9FFFF",
",  c #F4FAEE",
"<  c #F6FEE9",
"1  c #5785FD",
"2  c #5388FA",
"3  c #4E8BF6",
"4  c #4A8DF5",
"5  c #478EF6",
"6  c #458FFA",
"7  c #468EFC",
"8  c #4B8DFD",
"9  c #437DE9",
"0  c #5888EA",
"q  c #5F84D4",
"w  c #3E598E",
"e  c #011432",
"r  c #EAF9FF",
"t  c #F8FFFA",
"y  c #F8FFF1",
"u  c #5586FF",
"i  c #5586FC",
"p  c #5388F8",
"a  c #508AF5",
"s  c #4C8DF5",
"d  c #498EF6",
"f  c #478EFA",
"g  c #478DFD",
"h  c #4A88FF",
"j  c #4F88FC",
"k  c #5F8EFA",
"l  c #678EEB",
"z  c #5471B7",
"x  c #02194B",
"c  c #000826",
"v  c #E8F8FF",
"b  c #EEFEFB",
"n  c #5586FD",
"m  c #5587FA",
"M  c #5389F6",
"N  c #4D8CF3",
"B  c #4C8CF6",
"V  c #4A8CFC",
"C  c #4A8BFF",
"Z  c #4F8BFF",
"A  c #4C82FE",
"S  c #4978EE",
"D  c #6187F2",
"F  c #6C8EE7",
"G  c #6481C7",
"H  c #001248",
"J  c #001237",
"K  c #8DA2B3",
"L  c #5387FD",
"P  c #5487FC",
"I  c #5487FA",
"U  c #518AF5",
"Y  c #508BF3",
"T  c #4D8BFC",
"R  c #4D89FF",
"E  c #5087FF",
"W  c #5284FF",
"Q  c #5584FF",
"!  c #5A84FD",
"~  c #4C72DD",
"^  c #5074D2",
"/  c #7A9BEC",
"(  c #113070",
")  c #000C37",
"_  c #5188FD",
"`  c #5389F5",
"'  c #5189F6",
"]  c #5089FC",
"[  c #5088FF",
"{  c #4C81FF",
"}  c #4B7DFF",
"|  c #4B79FF",
" . c #5D89FF",
".. c #6C99FF",
"X. c #628EFB",
"o. c #4A74D8",
"O. c #678FE4",
"+. c #5273B6",
"@. c #578AFF",
"#. c #5B8BFF",
"$. c #4E7EFF",
"%. c #3E6EF4",
"&. c #4A7CF5",
"*. c #5589F9",
"=. c #5B8BF1",
"-. c #6088DF",
";. c #5488F6",
":. c #5487FD",
">. c #487AF7",
",. c #5687FF",
"<. c #5183FF",
"1. c #5287FF",
"2. c #4E85FF",
"3. c #558DFF",
"4. c #4782F8",
"5. c #528AF9",
"6. c #5181E7",
"7. c #5187FF",
"8. c #5587F8",
"9. c #5486FF",
"0. c #4E88FF",
"q. c #4C8AFF",
"w. c #5387F7",
"e. c #4E89FD",
"r. c #4D8AFF",
"t. c #4C8BFD",
"y. c #498CFD",
"u. c #4A8CFD",
"i. c #4C84FB",
"p. c #5386FF",
"a. c #5488F8",
"s. c #5189F8",
"d. c #4D8BFA",
"f. c #4C8CFA",
"g. c #4C8BFC",
"h. c #4C87FF",
"j. c #508AF6",
"k. c #4D8BF8",
"l. c #528EFF",
"z. c #5189FA",
"x. c #508AF8",
"c. c #5089FA",
"v. c #5089FD",
"b. c #538FFF",
"n. c #5188FC",
"m. c #4E8BFF",
"M. c #5488F5",
"N. c #5489F3",
"B. c #4E89FF",
"V. c #5585FF",
"C. c #4B88FB",
"Z. c #4C88FF",
"A. c #4580FE",
"S. c #4B89F0",
"D. c #508FEE",
"F. c #5996F1",
"G. c #5591F1",
"H. c #4D88F0",
"J. c #4C83F8",
"K. c #5086FF",
"L. c #598DFF",
"P. c #5087EC",
"I. c #5A91F6",
"U. c #5386F9",
"Y. c #5386FC",
"T. c #5088F9",
"R. c #4F89F5",
"E. c #4C8BF2",
"W. c #4B8CF0",
"Q. c #4B8CF2",
"!. c #4C8BF5",
"~. c #558EFF",
"^. c #578BFF",
"/. c white",
/* pixels */
"                                                  . X o O + @ # $ % & * = - ; : > , < ",
"                                                  . o 1 2 3 4 5 6 7 8 9 0 q w e r t y ",
"                                                  . u i p a s d f g h j k l z x c v b ",
"                                                  . n m M a N B V C Z A S D F G H J K ",
"                                                  L P I M U Y 3 T R E W Q ! ~ ^ / ( ) ",
"                                                  _ O I M ` U ' ] [ { } |  ...X.o.O.+.",
"                                                    L O p M ` M 2 . @.#.$.%.u &.*.=.-.",
"                                                    . . O p ;.;.I :.>.,.<.1.2.3.4.5.6.",
"                                                    7.. L P 8.8.8.m 9.. 7.[ 0.q.C T w.",
"                                                    7.. 9.:.m m 8.I P O _ e.r.t.y.u.i.",
"                                                    p.p.9.9.:.P I I a.p s.+ d.f.% g.h.",
"                                                    . . 9.9.9.L O 2 p ' j.j.3 k.k.T l.",
"                                                  _ O P L . .     _ z.x.x.x.x.c.c.v.b.",
"                                                  L a.a.2 L 7.[ [ [ v.] c.z.n.O :.  m.",
"                                                  O M.N.p O 7.[ 0.0.B.[ v._ 9.V.X 9.C.",
"                                                  O ;.M.p n.  [ 0.0.B.[   . 9.V.V.9.Z.",
"                                                  _ O O _ _   7.[ [ [       . . . 7.A.",
"                                                                                  [ l.",
"                                                                                  v.b.",
"                                                                                  ] S.",
"                                                                                  x.D.",
"                                                                                  s.F.",
"                                                                                  s.G.",
"                                                                                  n.H.",
"                                                                                    J.",
"                                                                                  7.K.",
"                                                                                  7.<.",
"                                                                                  7.9.",
"                                                                                    L.",
"                                                                                  _ p ",
"                                                                                  z.P.",
"                                                                                  z.I.",
"                                                                                  L U.",
"                                                                                  . Y.",
"                                                                                  _ T.",
"                                                                                  ] R.",
"                                                                                  ] E.",
"                                                                                  c.W.",
"                                                                                  ] Q.",
"                                                                                  ] !.",
"                                                                                  _ ~.",
"                                                                                    ^.",
"                                                                                  . Y."
};
