/* XPM */
static char *tile2591719244607[] = {
/* columns rows colors chars-per-pixel */
"43 43 173 2 ",
"   c #000412",
".  c #00021F",
"X  c #000324",
"o  c #010D26",
"O  c #00012D",
"+  c #000A29",
"@  c #00112C",
"#  c #000035",
"$  c #000B31",
"%  c #00013C",
"&  c #000C3D",
"*  c #021232",
"=  c #011837",
"-  c #01123C",
";  c #0A193A",
":  c #09233C",
">  c #112236",
",  c #000745",
"<  c #000848",
"1  c #001848",
"2  c #03164E",
"3  c #061C5B",
"4  c #0B1C54",
"5  c #0C254E",
"6  c #062355",
"7  c #0A2D55",
"8  c #263948",
"9  c #2A3B45",
"0  c #132F61",
"q  c #15286C",
"w  c #1A3465",
"e  c #2A3A6B",
"r  c #233B79",
"t  c #35455A",
"y  c #3D405F",
"u  c #394666",
"i  c #304864",
"p  c #3D4A6A",
"a  c #32497F",
"s  c #58635F",
"d  c #545F61",
"f  c #4D5D77",
"g  c #505B7B",
"h  c #5E6A68",
"j  c #516371",
"k  c #2A3D8A",
"l  c #3C54AA",
"z  c #5B6387",
"x  c #4E6B9E",
"c  c #71769C",
"v  c #445CA9",
"b  c #4566A9",
"n  c #5B68AC",
"m  c #5469AA",
"M  c #5479AE",
"N  c #4865B5",
"B  c #4E64B9",
"V  c #5A6DBC",
"C  c #577CBC",
"Z  c #5B7EB8",
"A  c #5773B6",
"S  c #6677BD",
"D  c #5379C4",
"F  c #5C76D1",
"G  c #5F7FD2",
"H  c #537BD3",
"J  c #647AC2",
"K  c #617FD5",
"L  c #6D7FD1",
"P  c #6376DD",
"I  c #457FED",
"U  c #487BEE",
"Y  c #4D77E5",
"T  c #567FEB",
"R  c #447EF4",
"E  c #487AF3",
"W  c #4C7DFD",
"Q  c #537EF4",
"!  c #5076FF",
"~  c #537FFE",
"^  c #5D7DF4",
"/  c #677DE0",
"(  c #6A7FEC",
")  c #637DFF",
"_  c #6F85BF",
"`  c #5E86C4",
"'  c #4681DF",
"]  c #5D89DD",
"[  c #6584CC",
"{  c #698CCD",
"}  c #7284C2",
"|  c #6F84D5",
" . c #6489D3",
".. c #6C88D1",
"X. c #6387DB",
"o. c #6982DF",
"O. c #668AD8",
"+. c #6C88DC",
"@. c #748CD2",
"#. c #4680E4",
"$. c #4E88EC",
"%. c #4E85EA",
"&. c #5483E6",
"*. c #5C85E6",
"=. c #5788E7",
"-. c #5384EE",
";. c #5C86EA",
":. c #4B86F4",
">. c #4C8AF4",
",. c #4681F9",
"<. c #4D85FD",
"1. c #4D89FD",
"2. c #5385F4",
"3. c #5D85F3",
"4. c #5188F4",
"5. c #5B89F3",
"6. c #5385FD",
"7. c #5D84FF",
"8. c #548BFD",
"9. c #598AFE",
"0. c #5691F7",
"q. c #5692FE",
"w. c #5E92FF",
"e. c #5993F4",
"r. c #6285E4",
"t. c #658BE5",
"y. c #6784EC",
"u. c #6983EA",
"i. c #628CEE",
"p. c #6E8BE9",
"a. c #6F9DEA",
"s. c #6D93EB",
"d. c #6280F2",
"f. c #638BF4",
"g. c #6485FE",
"h. c #6193FE",
"j. c #6D90F8",
"k. c #81929C",
"l. c #8C9DAA",
"z. c #9297AA",
"x. c #8B8CB8",
"c. c #8C94B8",
"v. c #99A8A1",
"b. c #B3B9B5",
"n. c #AABDCE",
"m. c #B1B0DA",
"M. c #B5C9D2",
"N. c #C4C7D0",
"B. c #C7D8E0",
"V. c #CDDFF3",
"C. c #DEEDF0",
"Z. c #E1EBE0",
"A. c #EAEBE5",
"S. c #E5EAED",
"D. c #EFF8E3",
"F. c #F5FDEC",
"G. c #FEFFEC",
"H. c #F0F3EA",
"J. c #E0E3FF",
"K. c #F4EEF2",
"L. c #EFF3F2",
"P. c #EFFAF4",
"I. c #E9F3FB",
"U. c #EDFEFF",
"Y. c #E4F1F9",
"T. c #F6F5F4",
"R. c #F8F5F5",
"E. c #F6FFF5",
"W. c #FDFFF5",
"Q. c #F0F7FD",
"!. c #FCF5FE",
"~. c #F4FDFD",
"^. c #FFFFFF",
/* pixels */
"F.W.^.K.!.^.!.^.W.^.W.W.^.^.^.^.^.^.^.^.^.^.^.^.^.^.^.^.^.^.^.^.^.^.^.^.^.^.^.^.^.^.^.",
"D.A.A.^.^.!.!.^.^.W.~.W.^.W.!.^.^.^.^.^.^.^.^.^.^.^.^.^.^.^.^.^.^.^.^.^.^.^.^.^.^.^.^.",
"E.^.^.T.^.!.!.^.^.~.W.~.W.^.^.^.^.^.^.^.^.^.^.^.^.^.^.^.^.^.^.^.^.^.^.^.^.^.^.^.^.^.^.",
"~.Y.U.!.!.^.^.^.^.^.^.^.^.^.W.^.^.^.^.^.^.^.^.^.^.^.^.^.^.^.^.^.^.^.^.^.^.^.^.^.^.^.^.",
"i U.~.^.^.R.R.^.^.^.^.^.^.W.W.^.^.^.^.^.^.^.^.^.^.^.^.^.^.^.^.^.^.^.^.^.^.^.^.^.^.^.^.",
"1 X V.~.~.W.W.^.^.^.^.!.^.^.W.^.^.^.^.^.^.^.^.^.^.^.^.^.^.^.^.^.^.^.^.^.^.^.^.^.^.^.^.",
"C 0 = B.~.^.H.^.^.!.^.^.^.W.W.^.^.^.^.^.^.^.^.^.^.^.^.^.^.^.^.^.^.^.^.^.^.^.^.^.^.^.^.",
"t.{ $ 8 ~.Z.W.W.^.!.^.^.!.W.W.^.^.^.^.^.^.^.^.^.^.^.^.^.^.^.^.^.^.^.^.^.^.^.^.^.^.^.^.",
";.D x @ S.~.W.^.^.!.^.^.^.W.W.^.^.^.^.^.^.^.^.^.^.^.^.^.^.^.^.^.^.^.^.^.^.^.^.^.^.^.^.",
"9.X.` @ l.Q.W.^.^.^.^.^.^.W.W.^.^.^.^.^.^.^.^.^.^.^.^.^.^.^.^.^.^.^.^.^.^.^.^.^.^.^.^.",
"8.i.{ 5 t ~.^.^.^.^.^.^.^.W.~.^.^.^.^.^.^.^.^.^.^.^.^.^.^.^.^.^.^.^.^.^.^.^.^.^.^.^.^.",
":.=. .a * ~.!.^.^.W.~.^.^.W.W.^.^.^.^.^.^.^.^.^.^.^.^.^.^.^.^.^.^.^.^.^.^.^.^.^.^.^.^.",
":.T X.m O ^.!.^.W.W.W.W.W.^.^.^.^.^.^.^.^.^.^.^.^.^.^.^.^.^.^.^.^.^.^.^.^.^.^.^.^.^.^.",
"4.5.t.J % C.^.^.W.G.G.W.W.^.^.^.^.^.^.^.^.^.^.^.^.^.^.^.^.^.^.^.^.^.^.^.^.^.^.^.^.^.^.",
"8.5.t.L , m.!.^.W.G.G.W.W.^.^.^.^.^.^.^.^.^.^.^.^.^.^.^.^.^.^.^.^.^.^.^.^.^.^.^.^.^.^.",
"1.-.t.| , x.!.^.W.G.G.G.~.^.^.^.^.^.^.^.^.^.^.^.^.^.^.^.^.^.^.^.^.^.^.^.^.^.^.^.^.^.^.",
"q.-.t...4 c !.^.!.W.W.W.W.~.E.^.^.^.^.^.^.^.^.^.^.^.^.^.^.^.^.^.^.^.^.^.^.^.^.^.^.^.^.",
"R h.r.[ 2 z ~.^.^.^.W.^.~.E.E.^.^.^.^.^.^.^.^.^.^.^.^.^.^.^.^.^.^.^.^.^.^.^.^.^.^.^.^.",
"R h.T +.3 g ^.^.W.^.^.^.^.W.E.^.^.^.^.^.^.^.^.^.^.^.^.^.^.^.^.^.^.^.^.^.^.^.^.^.^.^.^.",
"0.2.T p.q u Q.W.G.!.^.^.^.~.W.^.^.^.^.^.^.^.^.^.^.^.^.^.^.^.^.^.^.^.^.^.^.^.^.^.^.^.^.",
"e.2.Q u.k ; ^.F.G.W.!.^.^.!.W.^.^.^.^.^.^.^.^.^.^.^.^.^.^.^.^.^.^.^.^.^.^.^.^.^.^.^.^.",
"' 9.7.d.B X ~.E.G.^.^.!.!.^.W.^.^.^.^.^.^.^.^.^.^.^.^.^.^.^.^.^.^.^.^.^.^.^.^.^.^.^.^.",
"Y 9.7.g.r.& l.E.F.!.!.^.!.^.W.^.^.^.^.^.^.^.^.^.^.^.^.^.^.^.^.^.^.^.^.^.^.^.^.^.^.^.^.",
"w.W ~ g.y.3 * U.~.R.^.^.!.^.^.^.^.^.^.^.^.^.^.^.^.^.^.^.^.^.^.^.^.^.^.^.^.^.^.^.^.^.^.",
"8.6.~ g.j.N 6 + k.~.^.T.R.^.^.^.^.^.^.^.^.^.^.^.^.^.^.^.^.^.^.^.^.^.^.^.^.^.^.^.^.^.^.",
"6.8.~ Q 5.r.C w + j ~.~.^.T.T.^.^.^.^.^.^.^.^.^.^.^.^.^.^.^.^.^.^.^.^.^.^.^.^.^.^.^.^.",
"<.6.9.2.T f.s.[ x X t ~.S.!.^.^.^.^.^.^.^.^.^.^.^.^.^.^.^.^.^.^.^.^.^.^.^.^.^.^.^.^.^.",
"W 6.9.6.2.2.&.H ..A & f ~.~.L.^.^.^.^.^.^.^.^.^.^.^.^.^.^.^.^.^.^.^.^.^.^.^.^.^.^.^.^.",
"<.<.<.1.6.8.-.;.*.F v # p I.~.^.^.^.^.^.^.^.^.^.^.^.^.^.^.^.^.^.^.^.^.^.^.^.^.^.^.^.^.",
":.1.1.1.1.q.>.w.U ^ ( V - 9 P.^.^.^.^.^.^.^.^.^.^.^.^.^.^.^.^.^.^.^.^.^.^.^.^.^.^.^.^.",
"$.8.q.1.,.>.:.,.7.g.) P }   v.^.^.^.^.^.^.^.^.^.^.^.^.^.^.^.^.^.^.^.^.^.^.^.^.^.^.^.^.",
"-.<.1.1.>.0.q.8.W ! ) u.S > h ^.^.^.^.^.^.^.^.^.^.^.^.^.^.^.^.^.^.^.^.^.^.^.^.^.^.^.^.",
"2.9.6.6.4.-.4.1.<.6.g.P n . N.^.^.^.^.^.^.^.^.^.^.^.^.^.^.^.^.^.^.^.^.^.^.^.^.^.^.^.^.",
"6.6.6.3.6.4.4.q.R 6.^ K < y ^.^.^.^.^.^.^.^.^.^.^.^.^.^.^.^.^.^.^.^.^.^.^.^.^.^.^.^.^.",
"6.6.6.6.6.<.1.,.8.6.Y l # Q.!.^.^.^.^.^.^.^.^.^.^.^.^.^.^.^.^.^.^.^.^.^.^.^.^.^.^.^.^.",
">.<.6.6.6.1.<.1.8.6.f.v # I.~.^.^.^.^.^.^.^.^.^.^.^.^.^.^.^.^.^.^.^.^.^.^.^.^.^.^.^.^.",
">.1.<.<.<.1.<.9.E Q *.@.+ h E.^.^.^.^.^.^.^.^.^.^.^.^.^.^.^.^.^.^.^.^.^.^.^.^.^.^.^.^.",
"$.1.1.1.<.<.>.U f.i.K _ + s H.W.^.^.^.^.^.^.^.^.^.^.^.^.^.^.^.^.^.^.^.^.^.^.^.^.^.^.^.",
">.1.1.<.8.2.4.&.s.] S e o b.W.W.^.^.^.^.^.^.^.^.^.^.^.^.^.^.^.^.^.^.^.^.^.^.^.^.^.^.^.",
">.1.1.<.2.=.]  .b r , X z.W.W.^.^.^.^.^.^.^.^.^.^.^.^.^.^.^.^.^.^.^.^.^.^.^.^.^.^.^.^.",
"R 6.h.8.Y a.Z 6 & * c.~.!.T.^.^.^.^.^.^.^.^.^.^.^.^.^.^.^.^.^.^.^.^.^.^.^.^.^.^.^.^.^.",
"8.6.2.6.] ` 7 : n.^.!.!.!.^.K.^.^.^.^.^.^.^.^.^.^.^.^.^.^.^.^.^.^.^.^.^.^.^.^.^.^.^.^.",
"9.9.2.5.t.M X M.~.^.^.^.!.^.K.^.^.^.^.^.^.^.^.^.^.^.^.^.^.^.^.^.^.^.^.^.^.^.^.^.^.^.^."
};
