/* XPM */
static char *tile2651719244607[] = {
/* columns rows colors chars-per-pixel */
"43 43 245 2 ",
"   c #FBFFFA",
".  c #F7FFFA",
"X  c #B5CACD",
"o  c #000E2F",
"O  c #5375B5",
"+  c #5D84E9",
"@  c #5685FB",
"#  c #5286FC",
"$  c #4F88FB",
"%  c #4F89F5",
"&  c #4F89F7",
"*  c #5086FF",
"=  c #5285FF",
"-  c #5187FF",
";  c #5188FF",
":  c #F3FDF2",
">  c #EAFBF5",
",  c #5B717F",
"<  c #0B2757",
"1  c #5B7CC9",
"2  c #5B85EB",
"3  c #5486F7",
"4  c #5088F9",
"5  c #4D89F9",
"6  c #F2FDF5",
"7  c #F2FFFF",
"8  c #091F36",
"9  c #2E4C82",
"0  c #6184D6",
"q  c #5B84EE",
"w  c #5485FB",
"e  c #5087FB",
"r  c #EEFAF8",
"t  c #D8EAF4",
"y  c #000423",
"u  c #4967A7",
"i  c #6588E2",
"p  c #5A84F4",
"a  c #5485FC",
"s  c #5286FE",
"d  c #4F88FC",
"f  c #4F87FE",
"g  c #F1FEFF",
"h  c #5C7184",
"j  c #001742",
"k  c #5979C2",
"l  c #6487EB",
"z  c #5983F9",
"x  c #5484FF",
"c  c #5286FF",
"v  c #4F88F9",
"b  c #F1FFFF",
"n  c #000B2B",
"m  c #325086",
"M  c #6487DB",
"N  c #5B81EC",
"B  c #5983FC",
"V  c #5087FC",
"C  c #5188FD",
"Z  c #A2B4CA",
"A  c #000834",
"S  c #5F7EC1",
"D  c #6185E3",
"F  c #5981F2",
"G  c #5782FF",
"H  c #5483FF",
"J  c #253A59",
"K  c #102D65",
"L  c #6588D9",
"P  c #547BE2",
"I  c #608AFF",
"U  c #5683FF",
"Y  c #5384FF",
"T  c #5087FE",
"R  c #5089FD",
"E  c #000B35",
"W  c #415FA5",
"Q  c #638AE5",
"!  c #527EEB",
"~  c #5B89FF",
"^  c #5385FF",
"/  c #001246",
"(  c #577ACB",
")  c #5B85E9",
"_  c #5D8CFE",
"`  c #5284FD",
"'  c #0E2865",
"]  c #698EE7",
"[  c #5584F0",
"{  c #578AFF",
"}  c #5084FC",
"|  c #5385FE",
" . c #4C8AFB",
".. c #244185",
"X. c #6189EB",
"o. c #588AFB",
"O. c #467DF2",
"+. c #558DFF",
"@. c #5287FB",
"#. c #5386FB",
"$. c #5684FE",
"%. c #4C89FC",
"&. c #3957A0",
"*. c #5580E8",
"=. c #578BFF",
"-. c #4984FA",
";. c #518CFF",
":. c #5088F7",
">. c #5387F7",
",. c #4C89FE",
"<. c #4B8AFC",
"1. c #5088FF",
"2. c #5271C1",
"3. c #5884F1",
"4. c #5794FF",
"5. c #417FF0",
"6. c #5089F4",
"7. c #5388F2",
"8. c #5685F7",
"9. c #5684FC",
"0. c #4C88FF",
"q. c #4B8AFE",
"w. c #6887DA",
"e. c #5A88F7",
"r. c #5189FF",
"t. c #4F8EFF",
"y. c #4484F0",
"u. c #4F8AF0",
"i. c #5388EE",
"p. c #5785F4",
"a. c #5784FB",
"s. c #4B89FF",
"d. c #6C8BE5",
"f. c #5481F6",
"g. c #588FFF",
"h. c #3C7BED",
"j. c #5A9BFF",
"k. c #508AEB",
"l. c #5389EB",
"z. c #6D89ED",
"x. c #5881FD",
"c. c #5289FF",
"v. c #5290FF",
"b. c #4989ED",
"n. c #518CE8",
"m. c #5589EC",
"M. c #5984F7",
"N. c #5982FF",
"B. c #4C8CF6",
"V. c #4C8DF5",
"C. c #5089FC",
"Z. c #6783EE",
"A. c #5A85FF",
"S. c #5087FF",
"D. c #508EFD",
"F. c #4B8BED",
"G. c #4C8DF3",
"H. c #4C8DF1",
"J. c #5089FA",
"K. c #5E7DE9",
"L. c #5C89FF",
"P. c #4F86FF",
"I. c #4D8BFC",
"U. c #4E8EF2",
"Y. c #518CEA",
"T. c #5589EE",
"R. c #4D8CF5",
"E. c #597BE7",
"W. c #5A8AFF",
"Q. c #4E87FF",
"!. c #4A89FA",
"~. c #4F8EF5",
"^. c #518BEC",
"/. c #5589EF",
"(. c #4D8CF6",
"). c #577DEA",
"_. c #5687FF",
"`. c #518AFF",
"'. c #4988FA",
"]. c #4E8FF7",
"[. c #508CEE",
"{. c #5489F1",
"}. c #4E8AF8",
"|. c #5781EF",
" X c #5083FF",
".X c #528DFF",
"XX c #4988FC",
"oX c #4E8EF8",
"OX c #508BF1",
"+X c #5389F3",
"@X c #5686F4",
"#X c #4C82FF",
"$X c #4A88FF",
"%X c #4D8DFB",
"&X c #508AF5",
"*X c #5389F5",
"=X c #5485FE",
"-X c #5488F6",
";X c #4B82FF",
":X c #4F8AFF",
">X c #4E8CFD",
",X c #508AF6",
"<X c #5388F8",
"1X c #5188FC",
"2X c #558AFA",
"3X c #4E86FF",
"4X c #4D88FF",
"5X c #4F8BFF",
"6X c #4F8CFF",
"7X c #508AF8",
"8X c #5388FA",
"9X c #5486FF",
"0X c #5485FF",
"qX c #5387FF",
"wX c #5489FB",
"eX c #4D85FF",
"rX c #4C86FF",
"tX c #4E89FF",
"yX c #4D88FC",
"uX c #5189FA",
"iX c #5387FD",
"pX c #4E85FC",
"aX c #4F87FF",
"sX c #4F87F8",
"dX c #5589FF",
"fX c #568AFF",
"gX c #5287F9",
"hX c #5689FE",
"jX c #5788FF",
"kX c #5587FF",
"lX c #5388FC",
"zX c #5588FB",
"xX c #5988FC",
"cX c #5482FA",
"vX c #5283FC",
"bX c #5487FD",
"nX c #5789FC",
"mX c #5986FB",
"MX c #5480F9",
"NX c #5189F8",
"BX c #5786FA",
"VX c #5382F8",
"CX c #5583FB",
"ZX c #598AFF",
"AX c white",
/* pixels */
"  . X o O + @ # $ % & * = - ; ; ; ; ; ; ; ; ; ; ; ; ; ; ; ; ; ; ; ; ; ; ; ; ; ; ; ; ; ",
": > , < 1 2 3 4 5 5 $ * = - ; ; ; ; ; ; ; ; ; ; ; ; ; ; ; ; ; ; ; ; ; ; ; ; ; ; ; ; ; ",
"6 7 8 9 0 q w e $ 5 $ * * - ; ; ; ; ; ; ; ; ; ; ; ; ; ; ; ; ; ; ; ; ; ; ; ; ; ; ; ; ; ",
"r t y u i p a s d $ $ f * ; ; ; ; ; ; ; ; ; ; ; ; ; ; ; ; ; ; ; ; ; ; ; ; ; ; ; ; ; ; ",
"g h j k l z x c f $ v d d ; ; ; ; ; ; ; ; ; ; ; ; ; ; ; ; ; ; ; ; ; ; ; ; ; ; ; ; ; ; ",
"b n m M N B x = * V v v $ C ; ; ; ; ; ; ; ; ; ; ; ; ; ; ; ; ; ; ; ; ; ; ; ; ; ; ; ; ; ",
"Z A S D F G H = * V v v v C ; ; ; ; ; ; ; ; ; ; ; ; ; ; ; ; ; ; ; ; ; ; ; ; ; ; ; ; ; ",
"J K L P I U H Y = T $ 5 5 R ; ; ; ; ; ; ; ; ; ; ; ; ; ; ; ; ; ; ; ; ; ; ; ; ; ; ; ; ; ",
"E W Q ! ~ x H H ^ s d 5 5 R ; ; ; ; ; ; ; ; ; ; ; ; ; ; ; ; ; ; ; ; ; ; ; ; ; ; ; ; ; ",
"/ ( ) _ ` x x x ^ c d 5 5 R ; ; ; ; ; ; ; ; ; ; ; ; ; ; ; ; ; ; ; ; ; ; ; ; ; ; ; ; ; ",
"' ] [ { } | x x x ^ T  . .R ; ; ; ; ; ; ; ; ; ; ; ; ; ; ; ; ; ; ; ; ; ; ; ; ; ; ; ; ; ",
"..X.o.O.+.@.#.$.x ^ * %. .R ; ; ; ; ; ; ; ; ; ; ; ; ; ; ; ; ; ; ; ; ; ; ; ; ; ; ; ; ; ",
"&.*.=.-.;.:.>.@ $.x * ,.<.1.; ; ; ; ; ; ; ; ; ; ; ; ; ; ; ; ; ; ; ; ; ; ; ; ; ; ; ; ; ",
"2.3.; 4.5.6.7.8.9.x * 0.q.1.; ; ; ; ; ; ; ; ; ; ; ; ; ; ; ; ; ; ; ; ; ; ; ; ; ; ; ; ; ",
"w.e.r.t.y.u.i.p.a.x * 0.s.1.; ; ; ; ; ; ; ; ; ; ; ; ; ; ; ; ; ; ; ; ; ; ; ; ; ; ; ; ; ",
"d.f.g.h.j.k.l.p.a.x * ,.<.1.; ; ; ; ; ; ; ; ; ; ; ; ; ; ; ; ; ; ; ; ; ; ; ; ; ; ; ; ; ",
"z.x.c.v.b.n.m.M.N.x * B.V.C.; ; ; ; ; ; ; ; ; ; ; ; ; ; ; ; ; ; ; ; ; ; ; ; ; ; ; ; ; ",
"Z.A.S.D.F.n.m.z N.H * G.H.J.; ; ; ; ; ; ; ; ; ; ; ; ; ; ; ; ; ; ; ; ; ; ; ; ; ; ; ; ; ",
"K.L.P.I.U.Y.T.a.G H * R.G.C.; ; ; ; ; ; ; ; ; ; ; ; ; ; ; ; ; ; ; ; ; ; ; ; ; ; ; ; ; ",
"E.W.Q.!.~.^./.a.G H * (.R.C.; ; ; ; ; ; ; ; ; ; ; ; ; ; ; ; ; ; ; ; ; ; ; ; ; ; ; ; ; ",
")._.`.'.].[.{.9.U H = }.(.C.; ; ; ; ; ; ; ; ; ; ; ; ; ; ; ; ; ; ; ; ; ; ; ; ; ; ; ; ; ",
"|. X.XXXoXOX+Xa U H = C.}.R ; ; ; ; ; ; ; ; ; ; ; ; ; ; ; ; ; ; ; ; ; ; ; ; ; ; ; ; ; ",
"@X#X;.$X%X&X*X=Xx Y = R J.C ; ; ; ; ; ; ; ; ; ; ; ; ; ; ; ; ; ; ; ; ; ; ; ; ; ; ; ; ; ",
"-X;X:X$X>X,X<X| x Y = C 1XC ; ; ; ; ; ; ; ; ; ; ; ; ; ; ; ; ; ; ; ; ; ; ; ; ; ; ; ; ; ",
"2X3X4X5X6X7X8X9X9X0X9XqXC ; ; ; ; ; ; ; ; ; ; ; ; ; ; ; ; ; ; ; ; ; ; ; ; ; ; ; ; ; ; ",
"wXeXrXtXyXJ.uXqX9X9X9XqXiX; ; ; ; ; ; ; ; ; ; ; ; ; ; ; ; ; ; ; ; ; ; ; ; ; ; ; ; ; ; ",
"4 pXaX1.R 1X1XC qXqXqX9XqX; ; ; ; ; ; ; ; ; ; ; ; ; ; ; ; ; ; ; ; ; ; ; ; ; ; ; ; ; ; ",
"sX# dXfXdXC 1X1XC iXqX9XqXqX; ; ; ; ; ; ; ; ; ; ; ; ; ; ; ; ; ; ; ; ; ; ; ; ; ; ; ; ; ",
"gXhXjXkXkXiX1X1X1XlXiX9XqXqX; ; ; ; ; ; ; ; ; ; ; ; ; ; ; ; ; ; ; ; ; ; ; ; ; ; ; ; ; ",
"zXxX@ cXvXbXlXuXJ.uXlX9X9XqX; ; ; ; ; ; ; ; ; ; ; ; ; ; ; ; ; ; ; ; ; ; ; ; ; ; ; ; ; ",
"nXmXf.MX9.bXlXNX7XNXlX9X9XqX; ; ; ; ; ; ; ; ; ; ; ; ; ; ; ; ; ; ; ; ; ; ; ; ; ; ; ; ; ",
"hXBXVXCXZXbXlXuX7XuXlX9X9XqX; ; ; ; ; ; ; ; ; ; ; ; ; ; ; ; ; ; ; ; ; ; ; ; ; ; ; ; ; ",
"iXiXiXqXqXqXC C C C C qXqX; ; ; ; ; ; ; ; ; ; ; ; ; ; ; ; ; ; ; ; ; ; ; ; ; ; ; ; ; ; ",
"; ; ; ; ; ; ; ; ; ; ; ; ; ; ; ; ; ; ; ; ; ; ; ; ; ; ; ; ; ; ; ; ; ; ; ; ; ; ; ; ; ; ; ",
"; ; ; ; ; ; ; ; ; ; ; ; ; ; ; ; ; ; ; ; ; ; ; ; ; ; ; ; ; ; ; ; ; ; ; ; ; ; ; ; ; ; ; ",
"; ; ; ; ; ; ; ; ; ; ; ; ; ; ; ; ; ; ; ; ; ; ; ; ; ; ; ; ; ; ; ; ; ; ; ; ; ; ; ; ; ; ; ",
"; ; ; ; ; ; ; ; ; ; ; ; ; ; ; ; ; ; ; ; ; ; ; ; ; ; ; ; ; ; ; ; ; ; ; ; ; ; ; ; ; ; ; ",
"; ; ; ; ; ; ; ; ; ; ; ; ; ; ; ; ; ; ; ; ; ; ; ; ; ; ; ; ; ; ; ; ; ; ; ; ; ; ; ; ; ; ; ",
"; ; ; ; ; ; ; ; ; ; ; ; ; ; ; ; ; ; ; ; ; ; ; ; ; ; ; ; ; ; ; ; ; ; ; ; ; ; ; ; ; ; ; ",
"; ; ; ; ; ; ; ; ; ; ; ; ; ; ; ; ; ; ; ; ; ; ; ; ; ; ; ; ; ; ; ; ; ; ; ; ; ; ; ; ; ; ; ",
"; ; ; ; ; ; ; ; ; ; ; ; ; ; ; ; ; ; ; ; ; ; ; ; ; ; ; ; ; ; ; ; ; ; ; ; ; ; ; ; ; ; ; ",
"; ; ; ; ; ; ; ; ; ; ; ; ; ; ; ; ; ; ; ; ; ; ; ; ; ; ; ; ; ; ; ; ; ; ; ; ; ; ; ; ; ; ; ",
"; ; ; ; ; ; ; ; ; ; ; ; ; ; ; ; ; ; ; ; ; ; ; ; ; ; ; ; ; ; ; ; ; ; ; ; ; ; ; ; ; ; ; "
};
