/* XPM */
static char *tile2741719244607[] = {
/* columns rows colors chars-per-pixel */
"43 43 31 1 ",
"  c #5188FF",
". c #5387FD",
"X c #5485FB",
"o c #588AFB",
"O c #5388FC",
"+ c #578AF5",
"@ c #5388FA",
"# c #5489EF",
"$ c #588DF3",
"% c #5286F4",
"& c #5083F6",
"* c #5285FA",
"= c #5488FE",
"- c #5387FF",
"; c #5187FF",
": c #5389FF",
"> c #4E84FF",
", c #5086FF",
"< c #5487FF",
"1 c #5588FF",
"2 c #5485FF",
"3 c #5088FF",
"4 c #4E86FF",
"5 c #4F87FF",
"6 c #5189FF",
"7 c #5188FD",
"8 c #5488F8",
"9 c #5188FC",
"0 c #5488F6",
"q c #5489F3",
"w c white",
/* pixels */
"                                         .X",
"                                         .o",
"                                         O+",
"                                         @#",
"                                         @$",
"                                         O%",
"                                         .&",
"                                         .*",
"                                          =",
"                                          -",
"                                          -",
"                                         ;:",
"                                         ;;",
"                                         ;>",
"                                         ;,",
"                                         ;<",
"                                         ;1",
"                                         ;<",
"                                         -2",
"                                         -2",
"                                         ;<",
"                                          3",
"                                         33",
"                                         33",
"                                         33",
"                                         33",
"                                         33",
"                                         33",
"                                         33",
"                                         34",
"                                         35",
"                                         33",
"                                         36",
"                                         36",
"                                         33",
"                                         35",
"                                          4",
"                                           ",
"                                          .",
"                                         7O",
"                                         78",
"                                         90",
"                                         9q"
};
