/* XPM */
static char *tile2751719244606[] = {
/* columns rows colors chars-per-pixel */
"43 43 139 2 ",
"   c #00032D",
".  c #030A2B",
"X  c #090C2B",
"o  c #001027",
"O  c #091A2C",
"+  c #000532",
"@  c #000A36",
"#  c #00033C",
"$  c #000C3B",
"%  c #011633",
"&  c #071832",
"*  c #0A1A34",
"=  c #00133A",
"-  c #141835",
";  c #142036",
":  c #000342",
">  c #00094F",
",  c #051747",
"<  c #081B5F",
"1  c #0E234B",
"2  c #122647",
"3  c #1E264A",
"4  c #0E2052",
"5  c #1D335A",
"6  c #282C49",
"7  c #2B3946",
"8  c #343B4D",
"9  c #23375C",
"0  c #1C2D61",
"q  c #1B3566",
"w  c #1D3C73",
"e  c #2A3B6F",
"r  c #353F62",
"t  c #25387D",
"y  c #2A3D7F",
"u  c #394555",
"i  c #3F435E",
"p  c #2F4670",
"a  c #35467C",
"s  c #314C7B",
"d  c #525868",
"f  c #545871",
"g  c #5D6771",
"h  c #60647D",
"j  c #1E3C84",
"k  c #3C4D83",
"l  c #37548C",
"z  c #2D4E95",
"x  c #3E5C90",
"c  c #41538B",
"v  c #415F9F",
"b  c #616B8E",
"n  c #4B6BA4",
"m  c #5273A6",
"M  c #5373AE",
"N  c #496AB7",
"B  c #4F71B1",
"V  c #5375BF",
"C  c #4E75D0",
"Z  c #567AD1",
"A  c #5D7ED0",
"S  c #597AD9",
"D  c #4677ED",
"F  c #4A76EF",
"G  c #4478EE",
"H  c #527BE7",
"J  c #5D7FE3",
"K  c #417CF0",
"L  c #4C7EF4",
"P  c #7E8AA0",
"I  c #5E83C9",
"U  c #5B89CE",
"Y  c #5B87D4",
"T  c #5A88D3",
"R  c #5B83D8",
"E  c #5C89DC",
"W  c #6289CD",
"Q  c #6686D3",
"!  c #6188D3",
"~  c #6F8DD5",
"^  c #4F86ED",
"/  c #4E8AEC",
"(  c #5B83E3",
")  c #528AE7",
"_  c #5989E3",
"`  c #5483ED",
"'  c #5B83EA",
"]  c #528AEC",
"[  c #4C82F6",
"{  c #4D8BF5",
"}  c #4E86FD",
"|  c #4D89FE",
" . c #5483F3",
".. c #5984F6",
"X. c #5289F4",
"o. c #5F89F4",
"O. c #5486FB",
"+. c #5A86FD",
"@. c #5289FC",
"#. c #5A8BFE",
"$. c #5C93FF",
"%. c #6383E6",
"&. c #6484EB",
"*. c #6888ED",
"=. c #7A9CE6",
"-. c #638AF1",
";. c #6496FF",
":. c #7198F3",
">. c #828898",
",. c #89969E",
"<. c #9499AF",
"1. c #9BABC5",
"2. c #ADB2C8",
"3. c #B3BCC1",
"4. c #B3B9C9",
"5. c #AAB5D5",
"6. c #C9CEE2",
"7. c #CED3E6",
"8. c #D7E3FD",
"9. c #E2EDEF",
"0. c #EEECED",
"q. c #F4EEE9",
"w. c #FAF3E3",
"e. c #F6F7EF",
"r. c #FCF5ED",
"t. c #FFFDEF",
"y. c #EFEFF1",
"u. c #F5EBF4",
"i. c #EDF1F2",
"p. c #ECF5FD",
"a. c #EDFAFE",
"s. c #F4F5F5",
"d. c #FBF6F4",
"f. c #F5F9F5",
"g. c #FDFDF5",
"h. c #F5F5FC",
"j. c #FCF6FF",
"k. c #F5FCFD",
"l. c #FFFFFF",
/* pixels */
"O.O.+.o.R m o a.k.e.d.j.u.j.l.l.l.l.l.l.l.l.l.l.l.l.l.l.l.l.l.l.l.l.l.l.l.l.l.l.l.l.l.",
"+.L +...C n % a.g.r.g.l.l.j.i.l.l.l.l.l.l.l.l.l.l.l.l.l.l.l.l.l.l.l.l.l.l.l.l.l.l.l.l.",
"..O.O.+.R m . a.k.g.g.r.0.d.l.l.l.l.l.l.l.l.l.l.l.l.l.l.l.l.l.l.l.l.l.l.l.l.l.l.l.l.l.",
"X.O.O.+.o.C @ a.l.g.g.d.g.k.f.k.l.l.l.l.l.l.l.l.l.l.l.l.l.l.l.l.l.l.l.l.l.l.l.l.l.l.l.",
"` O.#.+.H N $ k.s.g.j.j.g.f.k.l.l.l.l.l.l.l.l.l.l.l.l.l.l.l.l.l.l.l.l.l.l.l.l.l.l.l.l.",
"@.O.#.F -.j = a.g.r.g.j.l.g.g.g.l.l.l.l.l.l.l.l.l.l.l.l.l.l.l.l.l.l.l.l.l.l.l.l.l.l.l.",
"@.#.L ;.' > 9 k.t.r.d.j.l.g.g.g.l.l.l.l.l.l.l.l.l.l.l.l.l.l.l.l.l.l.l.l.l.l.l.l.l.l.l.",
"#.L  .#.' z = 9.g.r.l.j.l.g.g.l.l.l.l.l.l.l.l.l.l.l.l.l.l.l.l.l.l.l.l.l.l.l.l.l.l.l.l.",
"L O.#.G o.=.  ,.g.q.j.l.j.g.g.l.l.l.l.l.l.l.l.l.l.l.l.l.l.l.l.l.l.l.l.l.l.l.l.l.l.l.l.",
"K ;.@.[ o.A q 7 l.q.d.j.l.g.k.g.l.l.l.l.l.l.l.l.l.l.l.l.l.l.l.l.l.l.l.l.l.l.l.l.l.l.l.",
"@.} [ $.` Z l O k.j.l.h.j.k.g.l.l.l.l.l.l.l.l.l.l.l.l.l.l.l.l.l.l.l.l.l.l.l.l.l.l.l.l.",
"$.K | @.L :.n & 3.l.l.j.l.k.k.l.l.l.l.l.l.l.l.l.l.l.l.l.l.l.l.l.l.l.l.l.l.l.l.l.l.l.l.",
"} $.{ { #.( ~ . g f.d.l.l.k.k.l.l.l.l.l.l.l.l.l.l.l.l.l.l.l.l.l.l.l.l.l.l.l.l.l.l.l.l.",
"| | | | X.' Q 1 u l.l.l.l.k.k.l.l.l.l.l.l.l.l.l.l.l.l.l.l.l.l.l.l.l.l.l.l.l.l.l.l.l.l.",
"} } { @.@.` A $ >.k.l.l.l.k.l.l.l.l.l.l.l.l.l.l.l.l.l.l.l.l.l.l.l.l.l.l.l.l.l.l.l.l.l.",
"} { { @.@.` Z # 8.k.g.l.l.k.l.l.l.l.l.l.l.l.l.l.l.l.l.l.l.l.l.l.l.l.l.l.l.l.l.l.l.l.l.",
"#.{ { { +.L S : p.l.g.g.l.k.k.l.l.l.l.l.l.l.l.l.l.l.l.l.l.l.l.l.l.l.l.l.l.l.l.l.l.l.l.",
"@.{ / X.+.+.J : 5.k.f.d.g.k.l.l.l.l.l.l.l.l.l.l.l.l.l.l.l.l.l.l.l.l.l.l.l.l.l.l.l.l.l.",
"#.{ / { @.+.-.< b k.f.g.g.l.l.l.l.l.l.l.l.l.l.l.l.l.l.l.l.l.l.l.l.l.l.l.l.l.l.l.l.l.l.",
"@./ ] X.@.+.J w i l.g.g.g.f.l.l.l.l.l.l.l.l.l.l.l.l.l.l.l.l.l.l.l.l.l.l.l.l.l.l.l.l.l.",
"@.^ { X.@.+.J k 3 h.k.g.l.f.g.l.l.l.l.l.l.l.l.l.l.l.l.l.l.l.l.l.l.l.l.l.l.l.l.l.l.l.l.",
"@.X...| | O.( c . l.l.j.l.g.g.l.l.l.l.l.l.l.l.l.l.l.l.l.l.l.l.l.l.l.l.l.l.l.l.l.l.l.l.",
"| ..@.| | X.E c . l.l.h.l.l.g.g.l.l.l.l.l.l.l.l.l.l.l.l.l.l.l.l.l.l.l.l.l.l.l.l.l.l.l.",
"@.O.@.| | X.E k X h.l.h.k.l.g.l.l.l.l.l.l.l.l.l.l.l.l.l.l.l.l.l.l.l.l.l.l.l.l.l.l.l.l.",
"| @.O.| | X._ a - h.l.h.l.l.j.l.l.l.l.l.l.l.l.l.l.l.l.l.l.l.l.l.l.l.l.l.l.l.l.l.l.l.l.",
"@...@.| | X.E e 6 h.l.h.l.g.g.g.l.l.l.l.l.l.l.l.l.l.l.l.l.l.l.l.l.l.l.l.l.l.l.l.l.l.l.",
"| O.@.| | X.E q i l.l.k.l.g.g.l.l.l.l.l.l.l.l.l.l.l.l.l.l.l.l.l.l.l.l.l.l.l.l.l.l.l.l.",
"@.O...| | @.! , f l.h.l.k.j.l.l.l.l.l.l.l.l.l.l.l.l.l.l.l.l.l.l.l.l.l.l.l.l.l.l.l.l.l.",
"| O.@.| | X.E 1 g l.u.l.l.d.l.g.l.l.l.l.l.l.l.l.l.l.l.l.l.l.l.l.l.l.l.l.l.l.l.l.l.l.l.",
"@.@...| | / T @ <.l.h.k.k.d.g.l.l.l.l.l.l.l.l.l.l.l.l.l.l.l.l.l.l.l.l.l.l.l.l.l.l.l.l.",
"} ..X.| { ] T $ 2.l.s.l.k.g.l.l.l.l.l.l.l.l.l.l.l.l.l.l.l.l.l.l.l.l.l.l.l.l.l.l.l.l.l.",
"| @.@.| { / T @ 6.l.h.k.j.l.g.l.l.l.l.l.l.l.l.l.l.l.l.l.l.l.l.l.l.l.l.l.l.l.l.l.l.l.l.",
"@.@.@.@.{ / T   7.l.j.k.k.l.g.l.l.l.l.l.l.l.l.l.l.l.l.l.l.l.l.l.l.l.l.l.l.l.l.l.l.l.l.",
"@.O.X.| { / T   4.j.g.k.l.l.d.l.l.l.l.l.l.l.l.l.l.l.l.l.l.l.l.l.l.l.l.l.l.l.l.l.l.l.l.",
"@.O...| { / U @ >.l.h.l.l.l.d.g.l.l.l.l.l.l.l.l.l.l.l.l.l.l.l.l.l.l.l.l.l.l.l.l.l.l.l.",
"@.@.X.| { ) U 1 d k.g.l.k.g.j.l.l.l.l.l.l.l.l.l.l.l.l.l.l.l.l.l.l.l.l.l.l.l.l.l.l.l.l.",
"} @.O.| { ) U 5 8 l.l.k.l.l.l.l.l.l.l.l.l.l.l.l.l.l.l.l.l.l.l.l.l.l.l.l.l.l.l.l.l.l.l.",
"@.} } | { ( W p ; h.l.i.k.l.l.g.g.l.g.l.g.g.k.g.k.g.g.k.l.l.l.l.l.l.l.l.l.l.l.l.l.l.l.",
"@.| | | { _ W s * p.k.l.k.l.p.g.g.g.g.l.l.g.k.g.g.g.l.l.l.l.l.l.l.l.l.l.l.l.l.l.l.l.l.",
"@.} | | { ' ! x % k.k.l.g.g.h.l.l.l.l.l.l.l.l.g.g.g.g.l.k.l.l.l.l.l.l.l.l.l.l.l.l.l.l.",
" .| | | O.] E M   a.h.f.g.g.g.l.l.j.l.l.l.l.l.l.l.g.g.l.l.l.l.l.l.l.l.l.l.l.l.l.l.l.l.",
"O.| | | | @._ I + 1.k.l.e.t.d.l.l.l.j.l.l.j.l.j.l.l.l.g.g.k.g.l.l.l.l.l.l.l.l.l.l.l.l.",
"{ [ | | | X.] ! w 2 k.k.g.w.t.g.l.j.l.l.l.j.l.l.l.l.l.k.l.g.g.l.l.l.l.l.l.l.l.l.l.l.l."
};
