/* XPM */
static char *tile2911719244606[] = {
/* columns rows colors chars-per-pixel */
"43 43 186 2 ",
"   c #000715",
".  c #000B16",
"X  c #00141D",
"o  c #000226",
"O  c #000B22",
"+  c #00022D",
"@  c #000B29",
"#  c #000232",
"$  c #000B33",
"%  c #000D3F",
"&  c #011234",
"*  c #0C1C32",
"=  c #00103C",
"-  c #142F38",
";  c #19343B",
":  c #000D47",
">  c #001A43",
",  c #011343",
"<  c #05284B",
"1  c #082A4F",
"2  c #0E2342",
"3  c #172B4C",
"4  c #0F2058",
"5  c #1E2E50",
"6  c #162A58",
"7  c #15355C",
"8  c #223947",
"9  c #032064",
"0  c #1B3F6F",
"q  c #17366C",
"w  c #103174",
"e  c #1F3F78",
"r  c #1B3873",
"t  c #22336B",
"y  c #333F65",
"u  c #344254",
"i  c #344A57",
"p  c #1E4167",
"a  c #30457C",
"s  c #484D60",
"d  c #434D68",
"f  c #455465",
"g  c #4F5E75",
"h  c #59687F",
"j  c #5D7579",
"k  c #284E8F",
"l  c #32508E",
"z  c #3E569C",
"x  c #3F64B5",
"c  c #405687",
"v  c #415790",
"b  c #425B95",
"n  c #4A5E9D",
"m  c #5E6A82",
"M  c #4964A4",
"N  c #5167A1",
"B  c #516BA6",
"V  c #5474A7",
"C  c #4D70B2",
"Z  c #5A7BB9",
"A  c #3A73E7",
"S  c #3F7EF0",
"D  c #4A6EC9",
"F  c #5779C1",
"G  c #5775CF",
"H  c #5C7FCB",
"J  c #5F7BC4",
"K  c #5D7FDE",
"L  c #567AD6",
"P  c #607BD2",
"I  c #6979C6",
"U  c #427BEE",
"Y  c #4C7EEC",
"T  c #5E7FEA",
"R  c #5C7FE3",
"E  c #437FF3",
"W  c #457CFA",
"Q  c #4B7AF6",
"!  c #557BF5",
"~  c #537FFF",
"^  c #718792",
"/  c #5E83BA",
"(  c #7188BE",
")  c #5C82D3",
"_  c #5B86DE",
"`  c #5D8ADA",
"'  c #6080C9",
"]  c #6584D3",
"[  c #6384DF",
"{  c #6A81DF",
"}  c #648CDC",
"|  c #6C86D0",
" . c #7187D0",
".. c #7088D0",
"X. c #6F96DE",
"o. c #4D83E2",
"O. c #4685EF",
"+. c #4B83EB",
"@. c #4E8CED",
"#. c #558AE7",
"$. c #5D8CE1",
"%. c #5381EB",
"&. c #5A85EC",
"*. c #538AEB",
"=. c #5C8AE9",
"-. c #5885E3",
";. c #4482F3",
":. c #4B83F4",
">. c #4D8BF4",
",. c #4E86FE",
"<. c #4D89FC",
"1. c #5485F7",
"2. c #5A84F4",
"3. c #5389F3",
"4. c #5D8BF4",
"5. c #5386FE",
"6. c #5A84FC",
"7. c #5188FF",
"8. c #5C8BFC",
"9. c #5691FF",
"0. c #5A94FF",
"q. c #5A99FF",
"w. c #5C92F6",
"e. c #6584E6",
"r. c #6C87E4",
"t. c #618AEA",
"y. c #6488E7",
"u. c #6C93E0",
"i. c #7794E4",
"p. c #6688F4",
"a. c #6286FF",
"s. c #618BFF",
"d. c #6A8DF9",
"f. c #6E94F7",
"g. c #6591FF",
"h. c #6099FF",
"j. c #6694F4",
"k. c #7194FF",
"l. c #858DA4",
"z. c #8694AF",
"x. c #8D9AAD",
"c. c #909EB9",
"v. c #97AAB1",
"b. c #9CA9B1",
"n. c #A1AAB9",
"m. c #A1B4B8",
"M. c #91A9C3",
"N. c #A4B4CC",
"B. c #B4C2CF",
"V. c #BCCAD5",
"C. c #F1F5DE",
"Z. c #CFD1E6",
"A. c #CADBE5",
"S. c #CCDBF0",
"D. c #DFE0E2",
"F. c #D7E3F9",
"G. c #D8E9FF",
"H. c #E9ECE9",
"J. c #F2EEEB",
"K. c #E6F0EF",
"L. c #E8F5EE",
"P. c #F4F2E3",
"I. c #F8F7E5",
"U. c #F9FEE7",
"Y. c #F4F4EC",
"T. c #F3FCEC",
"R. c #FCFDEC",
"E. c #E1E7F5",
"W. c #ECE0F6",
"Q. c #E0EFF2",
"!. c #EAEEF5",
"~. c #E4EDFF",
"^. c #FEEBFE",
"/. c #ECF4F3",
"(. c #E7F8F2",
"). c #ECF4FC",
"_. c #ECFDFE",
"`. c #E7F7F8",
"'. c #F5F4F3",
"]. c #FAF6F4",
"[. c #F4FAF4",
"{. c #FCFEF4",
"}. c #F2F4FC",
"|. c #FBF5FE",
" X c #F5FEFE",
".X c #FEFEFE",
/* pixels */
"3.>.<.<.<.<.>.-.Z + N.}.{.C.R..X.X.X.X|.|.|..X|..X.X.X.X.X[.{..X.X.X.X.X.X.X.X.X.X.X.X",
"3.7.,.<.,.<.1.#.` q 3  XJ.{.{.{.{..X{.{.{..X.X.X.X.X.X.X.X{.{..X.X.X.X.X.X.X.X.X.X.X.X",
"*.:.,.,.<.,.,.+.$.C # c. X|.].{.R.{.{.R.R.R.].|.|.|..X.X.X.X.X.X.X.X.X.X.X.X.X.X.X.X.X",
">.7.7.,.,.,.,.8.o.` a $ z.}..X.X{.{.R.R.C.I.{..X.X.X.X.X.X.X{..X.X.X.X.X.X.X.X.X.X.X.X",
">.>.,.,.,.,.,.:.w.` X.0 % y  X).(.[.T.P.R.R.R.{..X|.|..X.X.X{. X.X.X.X.X.X.X.X.X.X.X.X",
",.,.5.5.7.7.,.U q.o.$.X.M : + N. X`.[.R.U.U.{.{.|..X.X.X.X.X.X.X.X.X.X.X.X.X.X.X.X.X.X",
",.1.5.5.5.5.7.7.>.+.o.t.} ] z # 5 )._. X{.U.U.{..X.X.X.X.X.X.X.X.X.X.X.X.X.X.X.X.X.X.X",
",.,.>.6.6.7.1.;.q.7.O.Y 4.t.G ..4 + S. X[.{.R..X|..X|..X.X.X{..X.X.X.X.X.X.X.X.X.X.X.X",
"<.7.7.1.1.1.6.q.S <.q.;.1.g.d.{ I t & B.K.{.{..X.X.X.X.X.X.X{..X.X.X.X.X.X.X.X.X.X.X.X",
",.,.5.1.2.1.1.7.;.<.S 9.<.Q 2.T r...: u  XH.{.{..X.X|..X.X{..X.X.X.X.X.X.X.X.X.X.X.X.X",
"7.7.5.5.5.7.7.7.7.<.,.,.7.7.5.:.=.L l &  X.XY.Y..X]..X{.{.P.{..X.X.X.X.X.X.X.X.X.X.X.X",
"7.7.7.7.7.7.7.7.7.7.7.7.7.7.7.,.8.j.H + f )..XY.J.{..XR.{.{.T..X.X.X.X.X.X.X.X.X.X.X.X",
"7.7.7.7.7.7.7.7.7.7.7.7.7.7.7.9.:.+.} B $ y '..X'..X.XY.]..X]..X.X.X.X.X.X.X.X.X.X.X.X",
"7.7.7.7.7.7.7.,.7.7.7.7.7.7.,.q.A 8.y.' N % d E. XL..X.X'..X.X.X.X.X.X.X.X.X.X.X.X.X.X",
"7.7.7.7.7.7.7.5.7.7.7.7.7.7.7.,.7.8.&.D i.N + m  X/..X.X.X.X|..X.X.X.X.X.X.X.X.X.X.X.X",
"7.7.7.7.7.7.7.7.7.7.7.7.,.7.7.,.q.Q 1.g.R P b @ A. X[.|..X|.|..X.X.X.X.X.X.X.X.X.X.X.X",
"7.7.7.7.7.7.7.7.7.7.7.7.7.7.7.7.U 0.7.1.6.f.' & ^  X[.'..X.X.X.X.X.X.X.X.X.X.X.X.X.X.X",
"7.7.,.7.7.7.7.7.7.7.7.7.7.7.7.7.O.:.8.5.~ 4.) 7 - (..X.X|.|.|..X.X.X.X.X.X.X.X.X.X.X.X",
"7.7.7.7.7.7.7.7.7.7.7.7.7.7.,.3.>.>.<.<.,.7.` p 8 (.T..X|..X|..X.X.X.X.X.X.X.X.X.X.X.X",
"7.7.7.7.7.7.7.7.7.7.7.7.7.7.,.1.3.>.<.<.,.5._ 1 i [.{.[..X.X{..X.X.X.X.X.X.X.X.X.X.X.X",
"7.7.7.7.7.7.7.7.7.7.7.7.7.7.7.8.1.>.>.<.<.,.$.> j {..X'.|..X{..X.X.X.X.X.X.X.X.X.X.X.X",
"7.7.,.5.7.7.7.7.7.7.7.7.7.7.5.5.1.@.>.<.,.1.` = v.L..X.X|.R.{.{..X.X.X.X.X.X.X.X.X.X.X",
"7.7.7.7.7.7.,.7.7.7.7.7.,.7.5.5.7.@.@.,.,.6.[ $ V. X.X|.|.{.R..X.X.X.X.X.X.X.X.X.X.X.X",
"7.7.7.7.7.7.7.7.7.7.7.7.5.5.5.5.5.*.@.<.7.8.[ + n..X|.|. X[.U..X.X.X.X.X.X.X.X.X.X.X.X",
"7.7.7.7.7.7.5.,.7.7.7.7.7.7.5.~ 5.*.@.3.5.6.P 3 s }.|.|.|.{.T. X.X.X.X.X.X.X.X.X.X.X.X",
"7.7.7.7.7.7.7.7.7.7.7.7.7.7.5.~ ~ *.@.3.6.6.e.n o Z.}.|..X{.{..X.X X.X.X.X.X.X.X.X.X.X",
"7.7.7.7.7.7.7.7.7.7.7.7.7.7.5.5.~ 2.=.*.2.6.a.e.r o Q..X]..X|..X.X.X.X.X X.X.X.X.X.X.X",
"7.7.7.7.7.7.7.7.,.5.7.7.7.7.5.5.5.4.#.#.2.5.6.6.) 1 ; L.Y.|.^..X{..X.X X.X X X X X.X|.",
"7.7.7.7.7.,.7.7.7.7.7.7.7.7.7.7.5.*.*.*.3.5.5.s.L / @ f .XW.|..X.X.X{..X[..X X.X.X.X.X",
"7.7.7.7.7.7.7.7.7.7.7.7.7.7.,.,.,.>.*.*.3.7.5.:.%.X.V o l.|.|..X{..X.X{. X.X.X X.X.X.X",
"7.7.7.7.7.7.7.7.7.7.7.7.7.7.<.<.>.>.@.@.>.,.,.5.8.&.H v + ~.|..X.X{..X{..X{.{..X.X.X.X",
"7.7.7.7.7.7.7.7.7.7.7.7.7.7.,.<.>.>.>.>.>.>.,.7.5.s.L .., m  X.X{..X{..X{..X.X.X.X.X.X",
"7.7.7.7.7.7.7.7.7.7.7.7.7.7.7.<.<.<.>.>.>.>.,.;.5.Q k.P a * |..X.X{..X{..X{..X.X.X.X.X",
"5.,.7.7.7.7.7.7.7.7.7.7.7.7.,.>.>.,.<.<.3.>.>.<.,.~ ! r.b X  X X.X.X{..X{.{.{..X{..X.X",
"7.7.7.7.7.7.7.7.,.7.7.7.7.7.7.7.7.5.5.5.7.3.3.9.Q 5.a.e.b .  X[.|..X]..X{..X.X.X.X.X.X",
"7.7.7.7.7.7.7.7.7.7.7.7.7.7.7.7.5.5.5.5.3.3.3.7.5.6.! K Z   _. X}.'..X|..X.X{.{.{..X.X",
"7.7.7.7.7.7.5.,.7.7.7.7.7.7.5.7.5.5.6.6.6.3.3.8.1.5.2.[ Z @ _. X}.!..X.X.X'..X.X{..X.X",
"7.7.7.7.7.7.7.7.7.7.7.7.7.7.5.5.5.6.6.5.8.3.3.3.1.5.8.y.Z % M.~. X X}. X.X[..X.X.X.X.X",
",.7.7.7.7.7.7.7.7.7.7.7.7.7.5.5.7.5.5.5.7.1.3.:.5.8.Y 4.[ w > G.). X}.}.). X.X.X.X.X.X",
"7.7.7.7.7.7.7.7.7.7.7.7.7.,.>.8.6.5.5.5.7.7.>.>.>.:.+.4.=.D 9 + g F. X X X.XD..X.X.X.X",
"7.7.7.7.7.7.7.7.7.7.7.7.7.7.7.1.<.7.8.5.7.7.<.9.O.O.9.8.2.d.L c @ * x. X}.!..X.X.X.X.X",
"7.7.7.,.7.7.7.7.7.7.7.7.7.7.7.<.3.3.,.7.7.7.,.<.<.>.7.:.8.6.y.J ( 7 + 2 8 u b. X X.X.X",
"7.7.7.7.7.7.7.7.7.5.,.7.7.<.7.1.7.7.7.7.7.7.7.7.7.7.5.,.5.5.6.2.p.K x k 0 < X X m. X.X"
};
