/* XPM */
static char *tile2951719244606[] = {
/* columns rows colors chars-per-pixel */
"43 43 170 2 ",
"   c white",
".  c #FFFEFF",
"X  c #FEFFFF",
"o  c #FFF8FC",
"O  c #FFF9FD",
"+  c #FFFBFF",
"@  c #FDFEFF",
"#  c #FAFEFF",
"$  c #F7FDFF",
"%  c #FAFCFF",
"&  c #FDF9FF",
"*  c #FFFEFD",
"=  c #FFF9F9",
"-  c #FFFAF9",
";  c #FEFDF9",
":  c #FAFEFD",
">  c #F6FFFF",
",  c #FAFBFF",
"<  c #FEFAFF",
"1  c #FFFFFB",
"2  c #FFFEF5",
"3  c #FFFEF2",
"4  c #FCFFF1",
"5  c #F8FFF3",
"6  c #F4FFFA",
"7  c #FBFEFF",
"8  c #FFFCFF",
"9  c #FFFFF4",
"0  c #FEFFEE",
"q  c #F9FFEC",
"w  c #F5FFED",
"e  c #F3FFF2",
"r  c #F5FFF8",
"t  c #FBFFFF",
"y  c #FEFFF8",
"u  c #FBFFF2",
"i  c #F6FFEC",
"p  c #F4FFEB",
"a  c #F4FFEF",
"s  c #F6FFF5",
"d  c #FBFFFC",
"f  c #FAFFF9",
"g  c #F7FFF2",
"h  c #F6FFF0",
"j  c #F9FFF4",
"k  c #FEFFFA",
"l  c #FFFDFC",
"z  c #FAFDFF",
"x  c #F9FEFF",
"c  c #F9FFFD",
"v  c #F9FFF8",
"b  c #FAFFF6",
"n  c #FCFFF6",
"m  c #FFFBFB",
"M  c #F9FBFF",
"N  c #FBFFFA",
"B  c #FDFFF9",
"V  c #FEFDF8",
"C  c #FFFCFB",
"Z  c #FFFAFC",
"A  c gray97",
"S  c gray98",
"D  c #FBFBFB",
"F  c #FEFEFE",
"G  c #FEFEFF",
"H  c #F3F3FD",
"J  c #F1F2EC",
"K  c #FFFFF8",
"L  c #FFFBF8",
"P  c #F9F3F7",
"I  c #FFFDFF",
"U  c #F6F6F6",
"Y  c gray99",
"T  c #F9F9F9",
"R  c #FAFAFC",
"E  c #FCFDFF",
"W  c #F6F7F1",
"Q  c #FFFFF6",
"!  c #F7F7EF",
"~  c #FFFFFD",
"^  c #FBF8FF",
"/  c #F8F8F8",
"(  c #EDEEE8",
")  c #FFFFEF",
"_  c #F4F5E3",
"`  c #FEFEF4",
"'  c #F7F7F9",
"]  c #F3F4FF",
"[  c #F1F4FF",
"{  c gray96",
"}  c #F3F3F3",
"|  c #FBFDF0",
" . c #F5F8E7",
".. c #FCFFEA",
"X. c #F6FAE9",
"o. c #FEFFFB",
"O. c #F8FCFF",
"+. c #F3F9FF",
"@. c #2E3869",
"#. c #F9FAF5",
"$. c #FAFDF2",
"%. c #FCFFF3",
"&. c #FAFFF1",
"*. c #EEF5ED",
"=. c #F8FFFF",
"-. c #C6D2EC",
";. c #000032",
":. c #000D52",
">. c #FCFFFD",
",. c #F1F7F3",
"<. c #F0FBFF",
"1. c #9BA7BD",
"2. c #000833",
"3. c #22367D",
"4. c #6782DB",
"5. c gray94",
"6. c #E5E6EA",
"7. c #EDF5FF",
"8. c #EFF8FF",
"9. c #AFBBD3",
"0. c #000D35",
"q. c #192E6D",
"w. c #6883DC",
"e. c #5F81EC",
"r. c #FCFFFB",
"t. c #FEFFFD",
"y. c #FCFFFF",
"u. c #F3F1F6",
"i. c #F5F6FB",
"p. c #E7ECF0",
"a. c #9098A5",
"s. c #131E3C",
"d. c #3C4B72",
"f. c #8EA0C8",
"g. c #000132",
"h. c #4D65A5",
"j. c #6C89D9",
"k. c #5B7EE2",
"l. c #5E87F9",
"z. c #F0FDEC",
"x. c #F1FCEC",
"c. c #F8FFF1",
"v. c #FEFEF6",
"b. c #FFFDF8",
"n. c #FFFEF9",
"m. c #FFFFFA",
"M. c #FCFFFA",
"N. c #F4FEF6",
"B. c #F4FFF9",
"V. c #FBFFFD",
"C. c #F4F6F5",
"Z. c #F8F3F7",
"A. c #FFF4FE",
"S. c #FFF8FF",
"D. c #FCF0FE",
"F. c #FFFAFF",
"G. c #FEF7FF",
"H. c #F3F2FF",
"J. c #F8FEFF",
"K. c #CEDAEA",
"L. c #0F1F2E",
"P. c #000D2A",
"I. c #00164D",
"U. c #000149",
"Y. c #00155E",
"T. c #395CAD",
"R. c #6186DE",
"E. c #6088E8",
"W. c #5884EF",
"Q. c #5789FA",
/* pixels */
"                                                                                      ",
"                                                                                      ",
"                                                                                      ",
"                                                                                      ",
"                                                                                      ",
"                                                                                      ",
"                                                                                      ",
"                                                                                      ",
"                                                                                      ",
"                                                                                      ",
"                                                                                      ",
"                                                                                      ",
"                                                                                      ",
"                                                                                      ",
"                                                                                      ",
"                                                                                      ",
"                                                                                      ",
"                                                                                      ",
"                                                                                      ",
"                                                                                      ",
"                                                                                      ",
"                                                                                      ",
"                                                                                      ",
"                                                                                      ",
"                                                                                      ",
"                                                                    . . . .   X X X . ",
"                                                                    . o O + @ # $ % & ",
"                                                                    * = - ; : > > , < ",
"                                                                    1 2 3 4 5 6 > 7 8 ",
"                                                                    1 9 0 q w e r t . ",
"                                                                    1 y u i p a s d . ",
"                                                                    X d f g h h j k l ",
"                                                                    X z x c v b n ; m ",
"                                                                    X M % # N B V C Z ",
"                                                        A S     D F . G H X J K L P I ",
"                                                      U Y       S T R X E W Q ! ~ I ^ ",
"                                                      S   F / Y   F ~ ( 9 ) _ ` ' ] [ ",
"                                                          { }     D 1 |  ...X.o.O.+.@.",
"                                                      Y S D     / } #.$.%.&.*.=.-.;.:.",
"                                                      Y T     A U   X >.,.c <.1.2.3.4.",
"                                                        A   F 5.    6.O.7.8.9.0.q.w.e.",
"r.o.o.1 1 1 ~ ~ ~ ~ ~ ~ ~ ~ ~ ~ ~ ~ t.t.y.X   . . I I I u.8 . i.y.p.a.s.d.f.g.h.j.k.l.",
"z.x.c.Q Q Q v.b.n.1 1 1 1 1 1 m.m.K M.N.B.V.C.Z.+ A.S.D.F.G.H.J.K.L.P.I.U.Y.T.R.E.W.Q."
};
