/* XPM */
static char *tile3111719244605[] = {
/* columns rows colors chars-per-pixel */
"43 41 140 2 ",
"   c #000615",
".  c #000225",
"X  c #000B23",
"o  c #00012B",
"O  c #000E29",
"+  c #0A1B2B",
"@  c #000835",
"#  c #00073B",
"$  c #00083D",
"%  c #001237",
"&  c #081138",
"*  c #051D39",
"=  c #151B35",
"-  c #1C223C",
";  c #23253E",
":  c #081645",
">  c #041E4F",
",  c #111F42",
"<  c #0F1F50",
"1  c #08214A",
"2  c #152D4F",
"3  c #1F284F",
"4  c #212B44",
"5  c #273244",
"6  c #2E3C59",
"7  c #0D2A6E",
"8  c #1C3460",
"9  c #0F3178",
"0  c #123376",
"q  c #213969",
"w  c #2D3D70",
"e  c #2D4047",
"r  c #37414B",
"t  c #364656",
"y  c #2A416A",
"u  c #334867",
"i  c #2D4172",
"p  c #324778",
"a  c #34487A",
"s  c #54566F",
"d  c #5C6D7F",
"f  c #636E74",
"g  c #1E4087",
"h  c #38578E",
"j  c #3D5998",
"k  c #3B5EB0",
"l  c #3D61AB",
"z  c #3C64BC",
"x  c #415E9A",
"c  c #586585",
"v  c #406196",
"b  c #76768E",
"n  c #4E6AA9",
"m  c #5068AE",
"M  c #5977AD",
"N  c #5674BC",
"B  c #3E67C3",
"V  c #3F78E3",
"C  c #4C77C6",
"Z  c #577BC7",
"A  c #597CC0",
"S  c #5A7ECA",
"D  c #4F76D5",
"F  c #597BD4",
"G  c #567EDE",
"H  c #587DD8",
"J  c #447DE5",
"K  c #407DE8",
"L  c #497DEB",
"P  c #4478F0",
"I  c #5B89D7",
"U  c #5581DC",
"Y  c #5D85DB",
"T  c #5A89DB",
"R  c #6180C3",
"E  c #6287CE",
"W  c #6884D7",
"Q  c #648AD7",
"!  c #688BD5",
"~  c #6389DA",
"^  c #7095D9",
"/  c #4E83EA",
"(  c #5482E3",
")  c #5A84E3",
"_  c #5484EB",
"`  c #5C86EC",
"'  c #568AEF",
"]  c #5B8AED",
"[  c #4D85F4",
"{  c #4D8AF3",
"}  c #4D85FD",
"|  c #4D89FE",
" . c #5386F5",
".. c #5289F4",
"X. c #5B8CF5",
"o. c #5387FD",
"O. c #5986FC",
"+. c #5188FF",
"@. c #598BFC",
"#. c #5D91F4",
"$. c #5B92FE",
"%. c #6088E0",
"&. c #638CF4",
"*. c #658EFA",
"=. c #6293F9",
"-. c #6E9FFF",
";. c #67A1FF",
":. c #84979E",
">. c #95A2AB",
",. c #ACB5BC",
"<. c #AAABC0",
"1. c #B2C0C3",
"2. c #D5E2D9",
"3. c #EDECDA",
"4. c #EEF1DE",
"5. c #DDDBF0",
"6. c #DCE5F6",
"7. c #E2E7E1",
"8. c #E3EDEC",
"9. c #F3EFEE",
"0. c #F2F3EE",
"q. c #F5F8EF",
"w. c #FFFFEC",
"e. c #F2FAE3",
"r. c #EAE2F1",
"t. c #E6EEF0",
"y. c #ECEBF1",
"u. c #EBEFFA",
"i. c #F8EFF0",
"p. c #EAF2F4",
"a. c #EFF8F6",
"s. c #EEF6F8",
"d. c #F1F4F5",
"f. c #FDF7F7",
"g. c #F7FFF4",
"h. c #FCFCF5",
"j. c #F4F7FF",
"k. c #FDF7F9",
"l. c #F5FEFE",
"z. c #FCFDFD",
/* pixels */
"z.g.z.q.q.h.z.z.z.z.z.z.z.g.g.z.z.h.z.l.8.z.z.0.i.f.z.z.r.k.l.c o w M Z z B U &.X...L ",
"z.j.j.z.l.l.g.z.l.z.z.l.l.z.z.z.l.a.p.p.z.j.0.h.w.w.4.h.z.6., $ m W F Y U U ( / ..@.O.",
"z.z.k.l.l.l.l.l.l.l.z.z.l.j.s.d.g.z.z.j.z.y.h.h.4.e.q.2.e . > N Y *.=.` ` ] _ _  .@.o.",
"z.k.k.d.s.l.z.z.z.z.l.k.z.z.z.z.z.z.h.z.z.z.z.7.z.l.:.X % x ! Y G O.L #.] X.#.@. .+.} ",
"z.z.z.z.z.z.z.l.z.z.z.z.z.z.z.k.k.f.f.h.q.z.8.>.d u @ h ^ C U =...{ $.{ J / .. .} +.+.",
",.f r 5 3 - = = = - 4 s b <.5.z.z.z.z.z.g.1.t o # 7 k D _ -.L V ;.J { $.[ | ..} | | } ",
"O * 2 8 q i i a a i w < : @ o o & 3 6 +   X 1 x W H `  .@.L $.o.V $.{ { [ | +.} | +.} ",
"A E Q I T T T T Y I Y ~ ~ W S l g 9 0 j n R ! ~ U ` X.o.} +.+.| o.} | | | | | | | +.| ",
"] ` ..{ { { { { { { { / / ' #.#.( ( ` G %.` ] _ ' ..X.| | | ..+.o.o.o.| | | | | | | | ",
"@.+.| | | | | | | | | ..[ } ..@.....@.O.O.o.o.o.+.....| { o.+.+.o.o.o.| | | | | o.o.o.",
"} } } | | | } | } } | $.o.} } } {  .o.} P o.} +.+.+.| | ..o.@.+.@.o.+.| | | | +.o.} o.",
"} } }  . . .@. .o.o.o.@. .o.X.@.@.@.$.o.| o.+.+.+.| o.o.+.+.o.o.o...o.| | | | o.@.+.o.",
"| | .. ... ... .o. . .o.@.O.@. . ._ [ | | | | | } o.O.o.+.o.+.+.| o.| o.+.} +.o.o.o.o.",
"......[ ..o.o.o.} +.o.} } +.+.| | +.+.{ { | { | o.O.O.o.o.o.+.| | | | | +.o.@.o.o.o.o.",
"@.X.@.o.} +.| } | } | | | | | | | | | | ....o.@.@.o.}  .o.o.+.| | | | +.+.+.o.o.o.O.o.",
"o.o.o.| | +.o.| +.+.+.+.+.+.+.+.+.+...| +.{ | o.o.o.o.o.@.+.+.+.| o.| +.+.+.o.o.o.o.o.",
"+.+.o.+.+.+.+.+.| o.+.+.+.+.+.+.+.+.+.+.+.+.+.+.+.+.+.+.+.+.+.+.+.+.+.| +.+.+.+.+.+.o.",
"+.+.+.+.+.+.+.o.+.+.+.+.o.| o.+.+.+.+.+.+.+.+.+.+.+.+.+.+.+.+.+.+.+.+.o.+.o.+.+.+.+.| ",
"+.+.o.| +.+.+.+.+.o.+.+.+.+.| o.+.+.+.+.| +.+.+.+.+.+.+.| o.+.+.+.+.+.+.+.+.+.+.+.+.+.",
"+.+.+.+.+.+.| o.+.+.+.+.+.+.+.+.+.+.+.+.+.+.+.+.+.+.+.+.+.+.+.+.+.+.+.o.| o.+.+.+.o.+.",
"+.+.o.| +.+.+.+.+.+.+.+.+.+.+.+.+.+.+.+.+.+.+.+.+.+.+.+.+.+.+.+.+.+.o.+.o.+.+.+.+.+.+.",
"+.+.+.+.+.+.+.+.+.+.+.+.+.+.+.+.+.+.+.+.+.+.+.+.+.+.+.+.o.+.+.+.+.+.| +.| +.+.+.+.+.| ",
"+.+.o.| o.+.+.+.+.+.+.+.o.+.o.+.+.+.+.+.+.+.+.+.+.+.+.o.+.+.+.+.+.+.+.+.+.+.| o.+.+.+.",
"+.o.+.+.| +.+.+.o.| o.+.+.+.| +.+.+.+.+.+.+.+.+.+.+.+.| o.+.+.+.+.+.+.+.+.o.+.+.+.+.o.",
"+.+.+.+.+.+.+.+.+.+.+.+.o.| +.+.+.+.+.o.+.+.+.+.+.o.o.+.+.+.+.+.+.+.+.+.+.+.+.+.o.+.o.",
"+.+.o.+.+.+.+.+.+.+.+.+.+.+.+.+.+.+.+.+.+.+.+.+.+.| | +.+.+.| o.+.+.+.+.+.+.+.+.+.+.| ",
"+.+.+.+.+.+.+.+.+.+.+.+.o.+.+.+.+.+.| +.+.+.+.o.+.+.+.+.+.+.+.+.+.o.+.+.+.+.+.+.+.+.+.",
"+.+.o.| o.| o.+.+.o.| +.+.+.+.+.+.+.o.+.+.+.+.| o.+.+.+.+.+.+.o.+.| o.+.o.| o.+.+.+.+.",
"+.+.+.o.+.+.+.+.o.| +.+.+.| +.+.| +.+.+.+.+.+.o.o.+.+.+.+.+.+.+.+.+.+.+.+.+.+.+.+.+.+.",
"+.+.+.+.+.+.+.+.+.+.+.o.+.o.+.+.o.+.o.+.+.+.+.+.| +.+.+.+.+.+.+.+.+.+.+.+.+.+.+.+.+.+.",
"+.+.| +.+.+.| o.+.+.+.+.+.o.+.+.+.+.| +.+.+.o.+.+.+.+.+.+.+.o.| +.+.| o.+.o.+.+.+.| +.",
"+.+.o.+.+.+.+.+.+.+.+.+.+.+.+.+.+.+.o.+.+.+.+.| +.o.+.+.+.o.+.+.o.+.+.+.+.| +.o.+.o.+.",
"+.| +.+.+.o.| o.+.+.+.+.+.+.+.o.+.+.+.+.+.+.+.+.+.+.+.| +.+.+.+.+.+.+.o.+.+.+.| +.+.+.",
"+.o.+.o.+.+.+.+.+.+.+.+.o.| +.+.+.o.+.+.+.+.+.+.+.+.+.o.o.| +.+.+.+.+.| +.+.+.o.+.o.+.",
"+.+.+.+.+.+.+.+.+.+.+.o.+.+.+.+.+.+.+.+.+.| +.+.+.| +.+.+.+.+.+.+.+.+.o.+.+.+.+.+.+.+.",
"+.+.+.+.+.+.+.+.+.+.+.| +.+.+.+.+.+.+.+.+.o.+.o.+.o.+.+.+.+.o.| +.+.+.+.+.+.+.o.+.+.+.",
"+.+.+.+.+.+.o.+.+.+.+.| +.o.| +.+.+.+.+.+.+.+.+.o.+.| +.+.o.+.o.+.+.+.+.+.+.+.+.+.+.+.",
"+.+.+.o.+.+.+.+.+.o.+.o.+.+.o.+.+.+.+.+.+.+.+.+.+.+.o.+.+.+.+.+.+.+.+.+.+.+.| o.o.| o.",
"o.+.o.| +.+.+.| +.| +.+.+.+.+.+.+.+.+.+.+.} +.+.+.+.+.+.+.+.+.+.+.| +.+.+.| o.+.+.+.+.",
"| +.+.+.+.+.+.o.+.o.+.+.+.+.+.+.+.+.+.+.+.+.+.o.+.+.+.+.+.+.+.+.+.o.+.o.+.+.+.+.+.+.+.",
"+.o.+.+.| o.+.+.+.+.+.+.+.+.+.+.+.+.+.+.o.| +.+.+.+.+.+.+.+.+.+.+.+.+.+.+.+.+.o.+.+.| "
};
